<?xml version="1.0" standalone="no"?>
<!DOCTYPE svg PUBLIC "-//W3C//DTD SVG 1.1//EN" "http://www.w3.org/Graphics/SVG/1.1/DTD/svg11.dtd" >
<svg xmlns="http://www.w3.org/2000/svg" xmlns:xlink="http://www.w3.org/1999/xlink" version="1.1">
<metadata>
Created by FontForge 20170731 at Thu Dec  1 14:24:27 2022
 By Aleksey,,,
Copyright (c) 2018 by Alberto Romanos. All rights reserved.
</metadata>
<defs>
<font id="BwSeidoRoundDEMO-MediumItalic" horiz-adv-x="0" >
  <font-face 
    font-family="Bw Seido Round DEMO Medium It"
    font-weight="500"
    font-style="italic"
    font-stretch="normal"
    units-per-em="2048"
    panose-1="0 0 6 0 0 0 0 0 0 0"
    ascent="1657"
    descent="-391"
    x-height="1155"
    cap-height="1645"
    bbox="-1588.26 -512 2497 2165"
    underline-thickness="102"
    underline-position="-307"
    slope="-8"
    unicode-range="U+000D-FB02"
  />
<missing-glyph horiz-adv-x="2607" 
d="M154 -20q-15 0 -25 10.5t-10 25.5q0 21 10 31l700 698h-663q-47 0 -47 39q0 16 14 33l696 701h-669q-41 0 -41 38v3q0 38 41 38h758q47 0 47 -41q0 -20 -17 -34l-698 -697h676q17 0 29 -12t12 -29v-669l694 692q13 16 35 16q37 0 37 -45v-663l696 692q13 16 33 16
q15 0 25 -12t10 -27q0 -18 -13 -28l-753 -762q-14 -14 -35 -14q-41 0 -41 47v663l-694 -696q-14 -14 -35 -14q-41 0 -41 47v663l-697 -696q-14 -14 -34 -14z" />
    <glyph glyph-name="fi" unicode="fi" horiz-adv-x="1259" 
d="M1163 1645q55 0 82 -28.5t21 -74.5l-9 -67q-8 -48 -41.5 -74.5t-89.5 -26.5t-82 27.5t-20 73.5l8 67q8 50 42 76.5t89 26.5zM721 1157q47 0 69.5 -26.5t16.5 -71.5q-12 -88 -113 -88h-196l-123 -867q-8 -58 -41.5 -89t-89.5 -31q-57 0 -84 31.5t-19 88.5l123 867h-96
q-45 0 -67.5 26.5t-16.5 71.5q12 88 111 88h96l22 164q19 138 125 222.5t260 84.5h90q46 0 69 -27t17 -71q-15 -88 -112 -88h-66q-60 0 -101 -37.5t-50 -97.5l-21 -150h197zM1098 1174q57 0 82.5 -31t17.5 -90l-133 -949q-19 -120 -133 -120q-57 0 -83.5 31.5t-17.5 88.5
l134 949q8 59 42 90t91 31z" />
    <glyph glyph-name="fl" unicode="fl" horiz-adv-x="1273" 
d="M1249 1524l-178 -1264q-9 -74 49 -98q15 -9 23.5 -17t15.5 -25.5t4 -41.5q-7 -43 -45 -68.5t-92 -25.5q-101 0 -154 67t-38 176l182 1297q8 57 42 89t91 32q56 0 82 -31.5t18 -89.5zM721 1157q47 0 69.5 -26.5t16.5 -71.5q-12 -88 -113 -88h-196l-123 -867
q-8 -58 -41.5 -89t-89.5 -31q-57 0 -84 31.5t-19 88.5l123 867h-96q-45 0 -67.5 26.5t-16.5 71.5q12 88 111 88h96l22 164q19 138 125 222.5t260 84.5h90q46 0 69 -27t17 -71q-15 -88 -112 -88h-66q-60 0 -101 -37.5t-50 -97.5l-21 -150h197z" />
    <glyph glyph-name="f_f" unicode="ff" horiz-adv-x="1437" 
d="M1483 1628q46 0 69 -27t17 -71q-15 -88 -113 -88h-65q-60 0 -101.5 -37.5t-50.5 -97.5l-20 -150h196q47 0 69.5 -26.5t16.5 -71.5q-12 -88 -112 -88h-197l-123 -867q-8 -58 -41.5 -89t-89.5 -31q-57 0 -83.5 31.5t-18.5 88.5l122 867h-460l-123 -867q-8 -58 -41.5 -89
t-89.5 -31q-57 0 -84 31.5t-19 88.5l123 867h-96q-45 0 -67.5 26.5t-16.5 71.5q12 88 111 88h96l22 164q19 138 125 222.5t260 84.5h90q46 0 69 -27t17 -71q-15 -88 -112 -88h-66q-60 0 -101 -37.5t-50 -97.5l-21 -150h461l23 164q19 138 125 222.5t260 84.5h90z" />
    <glyph glyph-name="f_f_i" unicode="ffi" horiz-adv-x="1955" 
d="M1860 1645q55 0 81.5 -28.5t20.5 -74.5l-8 -67q-8 -48 -41.5 -74.5t-89.5 -26.5t-82.5 27.5t-20.5 73.5l9 67q8 50 42 76.5t89 26.5zM1417 1157q47 0 69.5 -26.5t16.5 -71.5q-12 -88 -112 -88h-197l-123 -867q-8 -58 -41.5 -89t-89.5 -31q-57 0 -83.5 31.5t-18.5 88.5
l123 867h-463l-123 -867q-8 -58 -41.5 -89t-89.5 -31q-57 0 -84 31.5t-19 88.5l123 867h-96q-45 0 -67.5 26.5t-16.5 71.5q12 88 111 88h96l22 164q19 138 125 222.5t260 84.5h90q46 0 69 -27t17 -71q-15 -88 -112 -88h-66q-60 0 -101 -37.5t-50 -97.5l-21 -150h463l23 164
q19 138 125 222.5t260 84.5h90q46 0 69 -27t17 -71q-15 -88 -113 -88h-65q-60 0 -101.5 -37.5t-50.5 -97.5l-20 -150h196zM1794 1174q57 0 82.5 -31t17.5 -90l-133 -949q-19 -120 -133 -120q-57 0 -83 31.5t-17 88.5l133 949q8 59 42 90t91 31z" />
    <glyph glyph-name="f_f_l" unicode="ffl" horiz-adv-x="1970" 
d="M1946 1524l-179 -1264q-9 -74 50 -98q15 -9 23.5 -17t15.5 -25.5t4 -41.5q-7 -43 -45.5 -68.5t-92.5 -25.5q-101 0 -154 67t-38 176l182 1297q8 57 42 89t91 32t83 -32t18 -89zM1417 1157q47 0 69.5 -26.5t16.5 -71.5q-12 -88 -112 -88h-197l-123 -867q-8 -58 -41.5 -89
t-89.5 -31q-57 0 -83.5 31.5t-18.5 88.5l123 867h-463l-123 -867q-8 -58 -41.5 -89t-89.5 -31q-57 0 -84 31.5t-19 88.5l123 867h-96q-45 0 -67.5 26.5t-16.5 71.5q12 88 111 88h96l22 164q19 138 125 222.5t260 84.5h90q46 0 69 -27t17 -71q-15 -88 -112 -88h-66
q-60 0 -101 -37.5t-50 -97.5l-21 -150h463l23 164q19 138 125 222.5t260 84.5h90q46 0 69 -27t17 -71q-15 -88 -113 -88h-65q-60 0 -101.5 -37.5t-50.5 -97.5l-20 -150h196z" />
    <glyph glyph-name=".notdef" horiz-adv-x="2607" 
d="M154 -20q-15 0 -25 10.5t-10 25.5q0 21 10 31l700 698h-663q-47 0 -47 39q0 16 14 33l696 701h-669q-41 0 -41 38v3q0 38 41 38h758q47 0 47 -41q0 -20 -17 -34l-698 -697h676q17 0 29 -12t12 -29v-669l694 692q13 16 35 16q37 0 37 -45v-663l696 692q13 16 33 16
q15 0 25 -12t10 -27q0 -18 -13 -28l-753 -762q-14 -14 -35 -14q-41 0 -41 47v663l-694 -696q-14 -14 -35 -14q-41 0 -41 47v663l-697 -696q-14 -14 -34 -14z" />
    <glyph glyph-name=".null" 
 />
    <glyph glyph-name="nonmarkingreturn" horiz-adv-x="682" 
 />
    <glyph glyph-name="CR" unicode="&#xd;" horiz-adv-x="458" 
 />
    <glyph glyph-name="space" unicode=" " horiz-adv-x="458" 
 />
    <glyph glyph-name="exclam" unicode="!" horiz-adv-x="542" 
d="M258 473q-118 0 -100 123l129 926q9 59 43.5 91t91.5 32t83 -32t17 -91l-129 -926q-9 -60 -43.5 -91.5t-91.5 -31.5zM188 -16q-124 0 -112 120l6 48q6 58 44 89t103 31q125 0 113 -120l-6 -48q-6 -58 -45 -89t-103 -31z" />
    <glyph glyph-name="quotedbl" unicode="&#x22;" horiz-adv-x="745" 
d="M287 1126q-43 0 -65 24.5t-19 68.5l28 301q3 59 36 92t91 33t83.5 -33t11.5 -92l-58 -301q-22 -93 -108 -93zM604 1126q-43 0 -65 24.5t-19 68.5l29 301q3 59 36 92t91 33t83 -33t11 -92l-57 -301q-22 -93 -109 -93z" />
    <glyph glyph-name="numbersign" unicode="#" horiz-adv-x="1398" 
d="M1335 1251q45 0 67.5 -27t16.5 -73q-12 -90 -110 -90h-109l-117 -494h86q47 0 69.5 -27t16.5 -73q-12 -90 -112 -90h-105l-67 -279q-27 -114 -144 -114h-2q-54 0 -77.5 33.5t-8.5 91.5l64 268h-350l-68 -279q-27 -114 -143 -114h-2q-54 0 -77 33t-9 92l63 268h-88
q-46 0 -69 27t-17 73q6 45 36 67.5t77 22.5h108l117 494h-86q-46 0 -69 27t-17 73q12 90 110 90h107l68 279q27 115 143 115q57 0 80 -33t8 -92l-63 -269h350l67 279q13 56 50.5 85.5t93.5 29.5q57 0 80 -33t8 -92l-64 -269h88zM850 567l117 494h-353l-116 -494h352z" />
    <glyph glyph-name="dollar" unicode="$" horiz-adv-x="1331" 
d="M420 1196l-2 -10q-11 -69 13.5 -116t74.5 -72.5t117.5 -42t143 -29t150.5 -27.5t141 -44t113.5 -73t68 -119.5t5.5 -177.5l-4 -28q-28 -186 -174.5 -313t-368.5 -156l-10 -76q-19 -123 -133 -123q-57 0 -83 32t-17 91l10 76q-144 19 -248 89.5t-145 188.5q-18 43 3 87.5
t77 68.5q36 17 64.5 11.5t45 -17t25.5 -27.5q110 -203 325 -203q158 0 264 73.5t125 193.5v12q10 68 -14.5 115t-74 72.5t-116.5 42t-141.5 29t-148.5 27.5t-139 44.5t-112.5 73.5t-68 119.5t-6.5 178.5l4 29q25 176 163 295.5t349 148.5l11 76q8 59 43 91t92 32
q55 0 80.5 -32t17.5 -91l-10 -76q130 -20 227 -89t148 -177q25 -40 1 -85.5t-81 -67.5q-88 -36 -131 30q-102 191 -308 191q-150 0 -249.5 -67.5t-116.5 -178.5z" />
    <glyph glyph-name="percent" unicode="%" horiz-adv-x="1675" 
d="M412 805q-141 0 -217.5 79t-59.5 208l37 262q17 128 116.5 207t241.5 79q144 0 220 -79t57 -207l-35 -262q-19 -129 -117.5 -208t-242.5 -79zM422 55q-54 -76 -123 -32q-65 41 -12 116l1032 1436q55 74 121 31q66 -41 12 -117zM434 963q63 0 108 38t52 99l33 243
q9 63 -23.5 101.5t-95.5 38.5t-107 -38.5t-53 -101.5l-33 -243q-9 -62 23.5 -99.5t95.5 -37.5zM1210 -10q-141 0 -217 78.5t-59 207.5l37 263q17 128 116.5 207t241.5 79q144 0 220 -79t57 -207l-35 -263q-19 -129 -117.5 -207.5t-243.5 -78.5zM1233 147q63 0 108 38.5
t52 99.5l32 243q9 63 -23 101.5t-95 38.5t-107 -38.5t-53 -101.5l-33 -243q-9 -62 23.5 -100t95.5 -38z" />
    <glyph glyph-name="ampersand" unicode="&#x26;" horiz-adv-x="1454" 
d="M1337 936q52 0 77.5 -31t17.5 -84q-14 -98 -125 -98h-166l-43 -305q-28 -191 153 -211q40 -7 61.5 -34t14.5 -75q-6 -51 -40.5 -79.5t-90.5 -28.5q-200 0 -258 194q-72 -97 -184 -150.5t-248 -53.5q-224 0 -343.5 120.5t-94.5 317.5l8 65q17 122 99 214t210 137
q-104 46 -152.5 131t-33.5 198l8 60q28 192 178.5 309t370.5 117q152 0 266 -72.5t154 -206.5q16 -40 -9.5 -84.5t-83.5 -62.5q-54 -15 -82 -4t-40 38q-24 89 -85 135t-145 46q-112 0 -189 -63.5t-91 -166.5l-7 -45q-15 -103 46.5 -165t177.5 -62h669zM551 190
q118 0 201 62.5t100 163.5l2 10l41 297h-279q-118 0 -200 -66.5t-97 -173.5l-6 -51q-15 -107 51 -174.5t187 -67.5z" />
    <glyph glyph-name="quotesingle" unicode="'" horiz-adv-x="425" 
d="M287 1126q-43 0 -65 24.5t-19 68.5l28 301q3 59 36 92t91 33t83.5 -33t11.5 -92l-58 -301q-22 -93 -108 -93z" />
    <glyph glyph-name="parenleft" unicode="(" horiz-adv-x="712" 
d="M432 -512q-211 0 -319 112t-82 298l200 1435q26 185 168 297.5t351 112.5q49 0 72.5 -32t17.5 -85q-15 -96 -121 -96q-99 0 -165.5 -59.5t-80.5 -157.5l-197 -1397q-14 -98 37.5 -157.5t149.5 -59.5q50 0 74 -29.5t16 -81.5q-14 -100 -121 -100z" />
    <glyph glyph-name="parenright" unicode=")" horiz-adv-x="712" 
d="M-25 -512q-51 0 -73.5 31t-16.5 86q14 94 121 94q97 0 165 59.5t81 157.5l197 1397q14 97 -37 157t-150 60q-50 0 -74 30t-16 80q6 51 38 77t83 26q209 0 318 -112.5t83 -297.5l-200 -1435q-26 -185 -167.5 -297.5t-351.5 -112.5z" />
    <glyph glyph-name="asterisk" unicode="*" horiz-adv-x="813" 
d="M829 1399q12 -65 -63 -86l-162 -43l80 -127q42 -60 -25 -105q-67 -42 -102 23l-70 131l-106 -131q-53 -65 -107 -23q-26 22 -26 50t28 57l117 125l-145 43q-71 21 -39 94q13 32 39.5 42.5t58.5 -3.5l144 -55l16 161q6 76 82 76q35 0 50.5 -20.5t8.5 -57.5l-28 -159
l157 55q38 13 61 0.5t31 -47.5z" />
    <glyph glyph-name="plus" unicode="+" horiz-adv-x="1155" 
d="M1010 682q46 0 68.5 -26t15.5 -70q-6 -44 -35.5 -67t-75.5 -23h-301l-39 -277q-16 -119 -133 -119q-55 0 -81.5 31t-18.5 88l39 277h-299q-47 0 -68.5 25.5t-15.5 70.5q4 44 33 67t77 23h299l39 276q7 57 42 88t91 31q57 0 83 -31t18 -88l-39 -276h301z" />
    <glyph glyph-name="comma" unicode="," horiz-adv-x="483" 
d="M8 -313q-83 18 -55 108l113 365q35 119 147 98q57 -10 73 -48.5t-10 -96.5l-149 -357q-37 -84 -119 -69z" />
    <glyph glyph-name="hyphen" unicode="-" horiz-adv-x="827" 
d="M201 496q-45 0 -67.5 26.5t-16.5 71.5q12 88 110 88h404q46 0 69.5 -27t16.5 -71q-15 -88 -113 -88h-403z" />
    <glyph glyph-name="period" unicode="." horiz-adv-x="466" 
d="M154 -16q-127 0 -115 120l6 48q6 58 45 89t103 31q124 0 112 -120l-6 -48q-6 -58 -44.5 -89t-100.5 -31z" />
    <glyph glyph-name="slash" unicode="/" horiz-adv-x="872" 
d="M33 -430q-51 13 -66.5 51t6.5 92l723 1839q47 113 154 86q104 -28 59 -143l-725 -1837q-44 -115 -151 -88z" />
    <glyph glyph-name="zero" unicode="0" horiz-adv-x="1417" 
d="M623 -20q-267 0 -410.5 154.5t-108.5 404.5l76 551q35 250 222 404.5t456 154.5q270 0 412.5 -154t107.5 -405l-78 -551q-35 -251 -221 -405t-456 -154zM653 197q160 0 270.5 97.5t135.5 258.5l74 522q23 160 -61 258.5t-245 98.5q-158 0 -269 -98.5t-134 -258.5
l-74 -522q-23 -160 61 -258t242 -98z" />
    <glyph glyph-name="one" unicode="1" horiz-adv-x="1036" 
d="M868 1638q74 0 109.5 -48.5t26.5 -125.5l-191 -1358q-9 -59 -45 -90.5t-94 -31.5q-59 0 -86.5 32t-18.5 90l174 1252l-462 -354q-92 -71 -150 12q-55 79 35 151l553 422q62 49 145 49h4z" />
    <glyph glyph-name="two" unicode="2" horiz-adv-x="1306" 
d="M817 1649q248 0 381.5 -129.5t101.5 -341.5l-4 -29q-12 -77 -48 -154t-99.5 -154t-139 -150t-183.5 -156.5t-213.5 -157.5t-247.5 -168l696 2q52 0 77 -30t17 -83q-14 -98 -123 -98h-895q-64 0 -92.5 31t-28.5 92v4q0 82 101 147q134 91 223.5 153t194 138t172 131.5
t136 119t109 115.5t69 107t36.5 107l2 12q19 124 -58.5 202.5t-218.5 78.5q-104 0 -197 -49t-163 -148q-27 -33 -69 -43.5t-87 8.5q-48 20 -57.5 58t18.5 79q86 147 243.5 226.5t346.5 79.5z" />
    <glyph glyph-name="three" unicode="3" horiz-adv-x="1310" 
d="M793 1649q246 0 379 -118t108 -314l-6 -48q-15 -116 -94.5 -202.5t-208.5 -132.5q127 -46 188.5 -139t44.5 -218l-8 -53q-26 -199 -201 -321.5t-432 -122.5q-187 0 -318 76t-177 220q-16 41 7.5 84t82.5 62q93 33 135 -37q80 -195 295 -195q149 0 248 67.5t118 180.5
l7 39q17 109 -58.5 175t-216.5 71q-75 5 -106 31.5t-25 81.5q7 52 40.5 72.5t100.5 27.5q137 5 229 68.5t105 164.5l4 33q12 107 -63.5 171.5t-214.5 64.5q-194 0 -332 -183q-26 -26 -62.5 -36t-85.5 6q-50 21 -59 65t21 80q78 133 226.5 206t328.5 73z" />
    <glyph glyph-name="four" unicode="4" horiz-adv-x="1323" 
d="M1155 578q52 0 77 -30t19 -83q-14 -98 -125 -98h-86l-36 -261q-9 -59 -45.5 -90.5t-94.5 -31.5q-57 0 -83.5 32t-16.5 90l39 261h-662q-63 0 -92.5 35t-21.5 98q10 73 63 139l784 913q32 40 79 63t94 23h14q75 0 109.5 -40t25.5 -117l-127 -903h86zM283 578h551l116 780z
" />
    <glyph glyph-name="five" unicode="5" horiz-adv-x="1267" 
d="M1161 1628q52 0 76 -30t18 -82q-14 -99 -125 -99h-546l-123 -452h268q235 0 359.5 -128t95.5 -339l-8 -60q-28 -206 -203 -332t-432 -126q-186 0 -318 76.5t-178 219.5q-16 40 8.5 83.5t81.5 62.5q60 16 91.5 4t43.5 -41q68 -195 295 -195q150 0 250 71.5t119 191.5l6 39
q19 118 -60.5 189t-226.5 71h-374q-55 0 -78 30t-8 86l178 658q30 102 131 102h659z" />
    <glyph glyph-name="six" unicode="6" horiz-adv-x="1286" 
d="M752 981q247 0 379.5 -133.5t101.5 -347.5l-6 -43q-32 -215 -214 -346t-450 -131t-414 135t-114 348l6 43q17 129 168 346l498 719q35 53 81 67.5t93 -12.5q49 -26 56 -69t-30 -97l-366 -514q110 35 211 35zM979 487q20 130 -64 208.5t-241 78.5q-156 0 -261 -78.5
t-124 -210.5l-2 -6q-20 -131 64.5 -208.5t242.5 -77.5q155 0 259.5 78t123.5 208z" />
    <glyph glyph-name="seven" unicode="7" horiz-adv-x="1165" 
d="M1128 1628q69 0 102 -38t23 -107q-8 -70 -49 -140l-764 -1280q-67 -113 -176 -63q-52 23 -62 67t23 99l752 1253l-727 -2q-52 0 -77 30t-17 83q12 98 125 98h847z" />
    <glyph glyph-name="eight" unicode="8" horiz-adv-x="1372" 
d="M838 1649q250 0 385.5 -122.5t107.5 -320.5l-6 -37q-15 -112 -89.5 -197.5t-197.5 -137.5q126 -52 187.5 -146t42.5 -215l-6 -35q-31 -206 -211.5 -332t-448.5 -126q-269 0 -415 125.5t-117 330.5l6 35q17 122 104.5 217t227.5 146q-107 52 -157.5 138t-35.5 199l4 37
q28 198 198.5 319.5t420.5 121.5zM1079 1200q17 104 -59 170t-213 66t-229 -65.5t-109 -170.5l-4 -33q-17 -105 58.5 -170t213.5 -65q136 0 228.5 64.5t107.5 170.5zM1018 473q14 115 -70 184.5t-239 69.5q-157 0 -263.5 -71t-119.5 -185l-4 -25q-14 -115 70.5 -184
t240.5 -69t262 69.5t119 183.5z" />
    <glyph glyph-name="nine" unicode="9" horiz-adv-x="1284" 
d="M788 1649q267 0 414 -135.5t115 -348.5l-6 -43q-17 -129 -168 -346l-498 -719q-35 -53 -81 -67.5t-93 12.5q-50 26 -57 69t30 97l367 514q-110 -35 -211 -35q-247 0 -379.5 133.5t-101.5 347.5l6 43q32 216 213.5 347t449.5 131zM1065 1149q20 131 -64.5 209t-242.5 78
q-155 0 -259.5 -78.5t-123.5 -208.5l-2 -8q-20 -130 64 -208.5t241 -78.5q156 0 261 78.5t124 210.5z" />
    <glyph glyph-name="colon" unicode=":" horiz-adv-x="479" 
d="M287 885q-127 0 -115 121l6 47q6 58 45 89.5t103 31.5q124 0 112 -121l-6 -47q-6 -58 -44.5 -89.5t-100.5 -31.5zM160 -16q-125 0 -113 120l6 48q6 58 44 89t102 31q124 0 112 -120l-4 -48q-7 -58 -45.5 -89t-101.5 -31z" />
    <glyph glyph-name="semicolon" unicode=";" horiz-adv-x="559" 
d="M332 887q-125 0 -113 121l6 45q6 58 44.5 89.5t103.5 31.5q124 0 112 -121l-6 -45q-6 -59 -44.5 -90t-102.5 -31zM51 -313q-82 18 -57 108l112 365q38 119 150 98q56 -10 72 -48.5t-9 -96.5l-151 -357q-37 -84 -117 -69z" />
    <glyph glyph-name="less" unicode="&#x3c;" horiz-adv-x="1155" 
d="M1034 1061q49 19 86.5 -9t34.5 -81q-3 -64 -76 -90l-712 -275q-9 -4 -26.5 -9.5t-23.5 -8.5l45 -17l619 -268q37 -13 55 -41t13 -61q-9 -51 -55 -77t-91 -7l-774 348q-37 17 -56 51.5t-14 75.5q4 39 32.5 71t66.5 46z" />
    <glyph glyph-name="equal" unicode="=" horiz-adv-x="1155" 
d="M170 651q-45 0 -67.5 26t-16.5 71q4 44 33 67t76 23h833q47 0 70.5 -26t17.5 -71q-7 -44 -36.5 -67t-75.5 -23h-834zM127 344q-46 0 -68 26t-16 70q4 44 33.5 67t77.5 23h833q46 0 68 -26t16 -70q-12 -90 -110 -90h-834z" />
    <glyph glyph-name="greater" unicode="&#x3e;" horiz-adv-x="1153" 
d="M1030 711q37 -15 56.5 -48.5t13.5 -74.5t-34 -73t-67 -46l-876 -352q-50 -18 -85.5 9.5t-33.5 80.5q0 29 23 54t55 36l709 274q12 4 29.5 10t19.5 7q-18 6 -45 18l-613 266q-40 17 -58 46t-13 61q9 51 55 76.5t90 5.5z" />
    <glyph glyph-name="question" unicode="?" horiz-adv-x="1056" 
d="M680 1628q208 0 320 -118.5t83 -311.5l-4 -35q-28 -189 -171.5 -303.5t-352.5 -114.5h-92l-21 -149q-7 -60 -41.5 -91.5t-91.5 -31.5t-83 31.5t-19 91.5l33 229q7 54 39.5 82.5t85.5 28.5h202q104 0 178 63t91 166l4 27q15 102 -41.5 163.5t-161.5 61.5h-346
q-52 0 -76 29t-18 82q11 100 122 100h361zM279 272q126 0 114 -120l-6 -48q-6 -58 -44.5 -89t-102.5 -31q-125 0 -113 120l6 48q6 58 44 89t102 31z" />
    <glyph glyph-name="at" unicode="@" horiz-adv-x="1753" 
d="M1077 1649q216 0 371 -74.5t226.5 -211t47.5 -314.5l-71 -510q-31 -212 -188 -341.5t-384 -129.5t-347.5 126.5t-92.5 333.5l18 138q29 207 169 333.5t339 126.5q212 0 312 -149l8 57q26 184 -94 297t-342 113q-273 0 -462 -170t-229 -449l-61 -432q-40 -282 113 -454
t444 -172h90q46 0 68 -28t16 -73q-9 -86 -110 -86h-113q-254 0 -435 99.5t-262 281t-47 418.5l64 461q34 240 163.5 424t334.5 284.5t454 100.5zM1108 272q122 0 207 77t102 204l15 88q17 127 -46.5 204t-185.5 77q-123 0 -207.5 -76.5t-103.5 -204.5l-12 -88
q-19 -127 45 -204t186 -77z" />
    <glyph glyph-name="A" unicode="A" horiz-adv-x="1482" 
d="M1364 141q10 -64 -13.5 -101t-82.5 -52q-58 -13 -98.5 14t-49.5 84l-55 281h-705l-141 -295q-50 -115 -162 -80q-108 36 -55 151l655 1354q31 68 88.5 104.5t133.5 36.5h26q75 0 124 -43t61 -112zM461 578h563l-164 831z" />
    <glyph glyph-name="B" unicode="B" horiz-adv-x="1478" 
d="M1040 1628q209 0 320.5 -118t83.5 -310l-4 -37q-15 -111 -83 -195t-177 -130q113 -45 167 -137.5t37 -217.5l-6 -45q-26 -196 -172 -317t-354 -121h-670q-54 0 -78 28t-16 81l197 1411q7 52 39.5 80t85.5 28h630zM1198 1186q11 105 -43.5 168t-159.5 63h-481l-68 -481
h484q106 0 180 63.5t86 167.5zM1141 479q14 109 -41.5 176.5t-159.5 67.5h-522l-72 -512h520q105 0 181.5 68t89.5 176z" />
    <glyph glyph-name="C" unicode="C" horiz-adv-x="1402" 
d="M676 -20q-299 0 -457.5 171.5t-118.5 454.5l56 406q40 287 247 462t504 175q181 0 318.5 -81t191.5 -220q15 -40 -4.5 -87t-73.5 -67q-94 -32 -143 35q-55 100 -138 151.5t-181 51.5q-188 0 -319 -119.5t-159 -315.5l-53 -379q-26 -189 73 -305t288 -116q113 0 214 56
t171 150q64 74 147 39q34 -15 50 -40.5t14.5 -50t-13.5 -44.5q-93 -158 -256.5 -242.5t-357.5 -84.5z" />
    <glyph glyph-name="D" unicode="D" horiz-adv-x="1488" 
d="M182 0q-54 0 -78 28t-16 81l197 1411q7 52 39.5 80t85.5 28h481q293 0 448 -173t115 -454l-51 -374q-40 -281 -243.5 -454t-495.5 -173h-482zM344 211h334q189 0 321 118t160 312l49 346q28 193 -71.5 311.5t-288.5 118.5h-334z" />
    <glyph glyph-name="E" unicode="E" horiz-adv-x="1337" 
d="M1280 1628q53 0 77.5 -30t16.5 -82q-11 -99 -123 -99h-737l-68 -481h697q52 0 77 -31t17 -84q-12 -98 -125 -98h-694l-72 -512h756q52 0 77 -30t17 -83q-12 -98 -123 -98h-891q-54 0 -78 28t-16 81l197 1411q7 52 39.5 80t85.5 28h870z" />
    <glyph glyph-name="F" unicode="F" horiz-adv-x="1298" 
d="M1280 1628q53 0 77.5 -30t16.5 -82q-11 -99 -123 -99h-735l-67 -481h694q52 0 76 -31t18 -84q-14 -98 -125 -98h-694l-86 -617q-9 -59 -45 -90.5t-94 -31.5q-60 0 -87 31.5t-18 90.5l197 1414q7 52 39.5 80t85.5 28h870z" />
    <glyph glyph-name="G" unicode="G" horiz-adv-x="1490" 
d="M1343 936q110 0 95 -111l-31 -225q-38 -279 -241.5 -449.5t-497.5 -170.5q-295 0 -451.5 172t-116.5 454l56 406q40 287 247 462t504 175q183 0 323 -80.5t187 -214.5q23 -47 2 -93t-78 -67q-92 -31 -141 35q-54 99 -139 151t-184 52q-188 0 -319 -119.5t-159 -315.5
l-53 -379q-26 -189 71 -305t281 -116q188 0 313.5 113.5t151.5 303.5l15 109h-347q-52 0 -76 31t-18 84q14 98 125 98h481z" />
    <glyph glyph-name="H" unicode="H" horiz-adv-x="1503" 
d="M1378 1645q59 0 86.5 -32.5t18.5 -90.5l-199 -1416q-19 -122 -139 -122q-59 0 -86.5 32t-18.5 90l86 617h-708l-86 -617q-9 -59 -45 -90.5t-94 -31.5q-60 0 -87 31.5t-18 90.5l199 1416q8 59 43.5 91t93.5 32q59 0 86.5 -32t19.5 -91l-81 -586h708l82 586q8 59 43.5 91
t95.5 32z" />
    <glyph glyph-name="I" unicode="I" horiz-adv-x="548" 
d="M193 -16q-122 0 -107 120l201 1418q8 59 43.5 91t93.5 32q59 0 86.5 -32t19.5 -91l-200 -1418q-7 -58 -42.5 -89t-94.5 -31z" />
    <glyph glyph-name="J" unicode="J" horiz-adv-x="1269" 
d="M483 -20q-173 0 -296.5 88t-161.5 241q-19 56 3 95.5t70 60.5q99 42 146 -47q75 -221 270 -221q145 0 244 88.5t121 236.5l139 1000q9 59 45 91t94 32q59 0 86.5 -32.5t18.5 -90.5l-142 -1012q-34 -239 -208.5 -384.5t-428.5 -145.5z" />
    <glyph glyph-name="K" unicode="K" horiz-adv-x="1437" 
d="M1458 1614q37 -34 31.5 -76.5t-51.5 -85.5l-400 -379l277 -934q17 -53 -3.5 -88t-78.5 -57q-54 -21 -97.5 -0.5t-58.5 74.5l-243 845l-447 -413l-55 -394q-9 -59 -45 -90.5t-94 -31.5q-60 0 -87 31.5t-18 90.5l199 1416q8 59 43.5 91t93.5 32q59 0 86.5 -32t19.5 -91
l-102 -734l864 807q93 89 166 19z" />
    <glyph glyph-name="L" unicode="L" horiz-adv-x="1183" 
d="M999 211q52 0 77.5 -30t17.5 -83q-12 -98 -123 -98h-789q-54 0 -78 28t-16 81l199 1413q8 59 43.5 91t93.5 32q59 0 86.5 -32t19.5 -91l-184 -1311h653z" />
    <glyph glyph-name="M" unicode="M" horiz-adv-x="1878" 
d="M1716 1638q76 0 111 -41t24 -118l-192 -1373q-8 -59 -43.5 -90.5t-93.5 -31.5q-57 0 -84.5 32t-18.5 90l172 1166l-555 -733q-55 -76 -112 -76q-59 0 -93 76l-348 735l-155 -1168q-9 -59 -44.5 -90.5t-93.5 -31.5t-84.5 31.5t-17.5 90.5l191 1373q10 76 57.5 117.5
t122.5 41.5h14q95 0 137 -92l359 -762l571 762q67 92 162 92h14z" />
    <glyph glyph-name="N" unicode="N" horiz-adv-x="1560" 
d="M1438 1645q57 0 84 -32.5t18 -90.5l-192 -1375q-10 -76 -57 -116.5t-124 -40.5h-16q-97 0 -137 98l-533 1184l-153 -1166q-9 -59 -44.5 -90.5t-93.5 -31.5t-84.5 31.5t-17.5 90.5l191 1375q10 76 57 116.5t123 40.5h18q100 0 129 -75l541 -1207l153 1166q8 59 44 91
t94 32z" />
    <glyph glyph-name="O" unicode="O" horiz-adv-x="1536" 
d="M684 -20q-302 0 -462 174t-120 458l54 404q40 284 250 458.5t512 174.5q303 0 462 -174t121 -459l-55 -404q-40 -284 -250 -458t-512 -174zM715 197q193 0 327 118t162 312l51 374q28 194 -73.5 312.5t-294.5 118.5q-192 0 -326 -118.5t-162 -312.5l-51 -374
q-28 -193 73.5 -311.5t293.5 -118.5z" />
    <glyph glyph-name="P" unicode="P" horiz-adv-x="1429" 
d="M1061 1628q207 0 318 -118.5t85 -311.5l-6 -45q-26 -193 -171 -311.5t-355 -118.5h-514l-86 -617q-9 -59 -45 -90.5t-94 -31.5q-60 0 -87 31.5t-18 90.5l197 1414q7 52 39.5 80t85.5 28h651zM1219 1186q11 106 -44 168.5t-159 62.5h-500l-67 -481h501q105 0 180 64
t87 167z" />
    <glyph glyph-name="Q" unicode="Q" horiz-adv-x="1540" 
d="M918 1649q303 0 462 -174t121 -459l-55 -404q-37 -261 -217 -428l104 -123q73 -85 -12 -161q-41 -35 -83 -32t-77 44l-121 143q-162 -75 -356 -75q-302 0 -462 174t-120 458l54 404q40 284 250 458.5t512 174.5zM1255 1001q28 194 -73.5 312.5t-294.5 118.5
q-192 0 -326 -118.5t-162 -312.5l-51 -374q-28 -193 73.5 -311.5t293.5 -118.5q95 0 178 30l-84 99q-35 42 -31.5 84.5t43.5 78.5q85 72 160 -12l102 -121q100 115 121 271z" />
    <glyph glyph-name="R" unicode="R" horiz-adv-x="1452" 
d="M1061 1628q207 0 318 -118.5t85 -311.5l-6 -45q-20 -151 -116.5 -259.5t-243.5 -148.5l180 -606q15 -54 -5 -88.5t-79 -56.5q-54 -21 -97.5 -0.5t-58.5 74.5l-188 655h-432l-86 -617q-9 -59 -45 -90.5t-94 -31.5q-60 0 -87 31.5t-18 90.5l197 1414q7 52 39.5 80t85.5 28
h651zM1219 1186q11 106 -44 168.5t-159 62.5h-500l-67 -481h501q105 0 180 64.5t87 166.5z" />
    <glyph glyph-name="S" unicode="S" horiz-adv-x="1384" 
d="M602 -20q-200 0 -346.5 73t-194.5 213q-18 43 3 87.5t77 68.5q35 17 64 11.5t44.5 -17t26.5 -27.5q119 -203 359 -203q172 0 287.5 73.5t134.5 193.5l2 12q8 56 -10 98t-49.5 66.5t-90.5 43.5t-108 28.5t-128 21.5q-106 16 -161.5 27t-141 42.5t-125 73t-65 115.5
t-10.5 174l4 29q31 209 215 337t455 128q184 0 315 -72t195 -203q25 -40 1 -85.5t-81 -67.5q-92 -37 -131 30q-102 191 -334 191q-163 0 -271.5 -68t-125.5 -178l-2 -12q-9 -56 10 -98.5t48.5 -66.5t92 -43.5t107.5 -28t130 -21.5q106 -16 161.5 -27t141.5 -42t126 -72
t65.5 -115t10.5 -174l-5 -27q-34 -220 -224 -354.5t-472 -134.5z" />
    <glyph glyph-name="T" unicode="T" horiz-adv-x="1255" 
d="M1264 1628q52 0 76 -30t18 -82q-14 -99 -125 -99h-369l-184 -1311q-9 -59 -45 -90.5t-94 -31.5q-59 0 -86.5 32t-18.5 90l185 1311h-371q-52 0 -76 30t-18 83q14 98 125 98h983z" />
    <glyph glyph-name="U" unicode="U" horiz-adv-x="1495" 
d="M666 -20q-275 0 -420.5 156.5t-108.5 414.5l137 971q8 59 44 91t94 32q59 0 86.5 -32t19.5 -91l-135 -959q-23 -166 63 -266t250 -100q163 0 277 100.5t137 265.5l133 959q9 59 45 91t94 32q60 0 87.5 -32t19.5 -91l-137 -971q-37 -258 -224.5 -414.5t-461.5 -156.5z" />
    <glyph glyph-name="V" unicode="V" horiz-adv-x="1445" 
d="M1452 1636q109 -38 57 -153l-630 -1321q-79 -172 -230 -172h-20q-72 0 -118.5 44t-61.5 128l-263 1333q-11 57 13.5 96t83.5 49q60 10 98 -15t47 -81l244 -1308l618 1316q54 120 162 84z" />
    <glyph glyph-name="W" unicode="W" horiz-adv-x="2082" 
d="M2083 1638q109 -27 69 -141l-505 -1356q-25 -68 -76.5 -109.5t-126.5 -41.5h-29q-76 0 -116.5 41.5t-45.5 109.5l-104 1211l-444 -1211q-23 -68 -74 -109.5t-127 -41.5h-27q-76 0 -117.5 41.5t-46.5 109.5l-127 1368q-9 119 111 133q123 13 129 -98l102 -1311l449 1262
q48 143 197 143h30q150 0 156 -143l98 -1262l471 1319q36 114 154 86z" />
    <glyph glyph-name="X" unicode="X" horiz-adv-x="1382" 
d="M1405 1622q43 -30 46 -72t-38 -90l-541 -633l375 -659q26 -47 11 -90t-66 -72q-110 -60 -158 43l-329 615l-502 -615q-78 -101 -166 -43q-45 31 -49 72.5t37 89.5l559 659l-367 633q-27 47 -12 91t69 73q105 55 158 -45l320 -588l485 590q79 103 168 41z" />
    <glyph glyph-name="Y" unicode="Y" horiz-adv-x="1419" 
d="M1430 1624q97 -59 20 -162l-608 -800l-76 -556q-9 -59 -45 -90.5t-94 -31.5q-60 0 -87.5 31.5t-19.5 90.5l78 556l-383 800q-23 51 -5 93t73 69q109 56 155 -49l316 -680l508 680q76 105 168 49z" />
    <glyph glyph-name="Z" unicode="Z" horiz-adv-x="1327" 
d="M1278 1628q66 0 96 -34.5t21 -100.5q-6 -49 -20.5 -80t-47.5 -65l-1044 -1139l843 2q52 0 77.5 -30t17.5 -83q-12 -98 -123 -98h-996q-66 0 -96 34.5t-20 100.5q6 50 20.5 81t46.5 65l1045 1138l-803 -2q-52 0 -77 30t-17 83q14 98 123 98h954z" />
    <glyph glyph-name="bracketleft" unicode="[" horiz-adv-x="739" 
d="M774 1743q52 0 76 -30.5t16 -82.5q-11 -100 -123 -100h-213l-258 -1831h215q52 0 76.5 -30.5t16.5 -82.5q-14 -98 -123 -98h-348q-54 0 -78.5 28t-16.5 81l287 2037q6 52 39 80.5t86 28.5h348z" />
    <glyph glyph-name="backslash" unicode="\" horiz-adv-x="847" 
d="M543 -434q-56 -6 -88.5 22t-38.5 86l-207 1835q-7 57 19.5 92t82.5 41q115 12 127 -106l207 -1839q7 -58 -19.5 -91.5t-82.5 -39.5z" />
    <glyph glyph-name="bracketright" unicode="]" horiz-adv-x="741" 
d="M645 1743q52 0 76 -28t16 -81l-284 -2037q-7 -52 -39.5 -80.5t-85.5 -28.5h-348q-53 0 -78.5 30.5t-16.5 82.5q14 98 125 98h213l256 1831h-213q-52 0 -77 31t-17 84q14 98 125 98h348z" />
    <glyph glyph-name="asciicircum" unicode="^" horiz-adv-x="1155" 
d="M1061 965q13 -53 -14.5 -91.5t-85.5 -52.5q-118 -25 -136 84l-127 525l-272 -525q-25 -56 -65.5 -78.5t-92.5 -5.5q-54 19 -69 59.5t14 96.5l285 496q46 86 94.5 129t126.5 43h18q77 0 113.5 -43.5t60.5 -128.5z" />
    <glyph glyph-name="underscore" unicode="_" horiz-adv-x="1077" 
d="M27 -287q-41 0 -62.5 24t-15.5 64q15 78 100 78h793q41 0 61.5 -24t14.5 -64q-12 -78 -101 -78h-790z" />
    <glyph glyph-name="grave" unicode="`" horiz-adv-x="759" 
d="M762 1339q-35 -59 -121 -28l-332 164q-86 35 -41 118q23 40 57 50t74 -13l318 -188q80 -47 45 -103z" />
    <glyph glyph-name="a" unicode="a" horiz-adv-x="1177" 
d="M659 1178q218 0 336 -111.5t92 -294.5l-94 -668q-8 -57 -39.5 -88.5t-83.5 -31.5q-51 0 -76.5 30.5t-19.5 87.5l6 50q-74 -82 -183 -127t-237 -45q-167 0 -257 88t-70 233l10 68q20 138 132 220.5t278 82.5h387l12 84q15 108 -45.5 173.5t-173.5 65.5q-160 0 -268 -123
q-48 -48 -113 -28q-37 12 -56 36t-18.5 50t17.5 49q65 95 190.5 147t273.5 52zM453 168q142 0 238.5 71.5t113.5 190.5l10 76h-334q-84 0 -140 -39.5t-65 -106.5l-6 -34q-9 -72 41 -115t142 -43z" />
    <glyph glyph-name="b" unicode="b" horiz-adv-x="1257" 
d="M801 1178q207 0 314 -131.5t79 -350.5l-31 -235q-29 -216 -175.5 -348.5t-354.5 -132.5q-120 0 -208 47.5t-136 136.5l-10 -62q-22 -118 -127 -118q-52 0 -75.5 31.5t-15.5 88.5l201 1420q8 57 42 89t91 32t83 -32t18 -89l-72 -508q149 162 377 162zM958 674
q19 135 -49 217t-200 82q-131 0 -222.5 -82t-111.5 -217l-27 -189q-19 -136 50 -218.5t200 -82.5t223 82.5t111 218.5z" />
    <glyph glyph-name="c" unicode="c" horiz-adv-x="1112" 
d="M516 -20q-235 0 -359.5 135t-93.5 358l29 211q29 222 192.5 358t397.5 136q138 0 243 -57.5t148 -170.5q12 -34 -8 -74t-72 -57q-86 -27 -121 25q-75 129 -219 129q-129 0 -218.5 -81t-108.5 -214l-29 -199q-20 -132 48.5 -213.5t199.5 -81.5q70 0 138 32.5t120 92.5
q52 52 125 27q46 -16 57 -55t-6 -70q-57 -113 -186 -172t-277 -59z" />
    <glyph glyph-name="d" unicode="d" horiz-adv-x="1257" 
d="M1161 1645q57 0 83 -32t18 -89l-201 -1420q-16 -120 -121 -120q-52 0 -77 30.5t-19 87.5l8 62q-71 -88 -172.5 -136t-222.5 -48q-207 0 -314.5 132t-79.5 349l31 235q29 217 176 349.5t355 132.5q226 0 331 -162l72 508q8 57 42 89t91 32zM549 184q131 0 222.5 82.5
t111.5 218.5l26 189q19 135 -50 217t-200 82t-222.5 -82t-110.5 -217l-27 -189q-19 -136 49.5 -218.5t200.5 -82.5z" />
    <glyph glyph-name="e" unicode="e" horiz-adv-x="1177" 
d="M676 1178q230 0 352.5 -135.5t91.5 -358.5l-12 -80q-6 -46 -35.5 -72t-75.5 -26h-696l-4 -35q-20 -139 47.5 -224t196.5 -85q169 0 288 131q52 48 113 29q38 -13 57 -37t18 -50t-18 -49q-68 -98 -198 -152t-287 -54q-233 0 -356.5 135t-94.5 358l29 211q31 222 192 358
t392 136zM887 688q20 138 -46 222.5t-192 84.5t-214 -84.5t-107 -222.5l-2 -16h559z" />
    <glyph glyph-name="f" unicode="f" horiz-adv-x="743" 
d="M788 1628q46 0 69 -27t17 -71q-15 -88 -112 -88h-66q-60 0 -101 -37.5t-50 -97.5l-21 -150h197q47 0 69.5 -26.5t16.5 -71.5q-12 -88 -113 -88h-196l-123 -867q-8 -58 -41.5 -89t-89.5 -31q-57 0 -84 31.5t-19 88.5l123 867h-96q-45 0 -67.5 26.5t-16.5 71.5
q12 88 111 88h96l22 164q19 138 125 222.5t260 84.5h90z" />
    <glyph glyph-name="g" unicode="g" horiz-adv-x="1259" 
d="M1108 1174q51 0 74 -31.5t16 -89.5l-145 -1030q-29 -207 -198.5 -335t-416.5 -128q-296 0 -381 166q-23 31 -6.5 76.5t70.5 70.5q37 15 61.5 10.5t38.5 -20.5q90 -115 244 -115q148 0 250 80t121 209l22 162q-73 -86 -173.5 -132.5t-219.5 -46.5q-208 0 -315.5 129.5
t-79.5 342.5l28 217q28 211 174.5 340t354.5 129q241 0 346 -179l8 56q22 119 127 119zM555 225q132 0 223 78t111 209v2l22 170q17 131 -51 210t-198 79q-131 0 -223 -79.5t-109 -209.5l-25 -170q-17 -131 51.5 -210t198.5 -79z" />
    <glyph glyph-name="h" unicode="h" horiz-adv-x="1245" 
d="M780 1178q194 0 296.5 -122t74.5 -321l-90 -631q-8 -58 -41.5 -89t-89.5 -31q-57 0 -84 31.5t-19 88.5l86 596q17 124 -46 198.5t-183 74.5t-203 -74.5t-102 -198.5l-84 -596q-16 -120 -133 -120q-55 0 -82 31.5t-19 88.5l201 1420q8 57 42 89t91 32t83 -32t18 -89
l-70 -492q143 146 354 146z" />
    <glyph glyph-name="i" unicode="i" horiz-adv-x="489" 
d="M358 1374q-56 0 -82 27.5t-20 73.5l8 67q8 50 42 76.5t89 26.5t82 -28.5t21 -74.5l-9 -67q-8 -48 -41.5 -74.5t-89.5 -26.5zM164 -16q-57 0 -83.5 31.5t-17.5 88.5l134 949q8 59 42 90t91 31t82.5 -31t17.5 -90l-133 -949q-19 -120 -133 -120z" />
    <glyph glyph-name="j" unicode="j" horiz-adv-x="505" 
d="M371 1374q-56 0 -83.5 28t-19.5 73l8 67q16 103 132 103q55 0 81.5 -28.5t20.5 -74.5l-8 -67q-8 -48 -41.5 -74.5t-89.5 -26.5zM-33 -436q-55 0 -85.5 25t-24.5 69q7 58 65 86q108 40 121 141l166 1168q8 59 42 90t91 31q56 0 81.5 -31.5t18.5 -89.5l-166 -1184
q-20 -135 -107 -220t-202 -85z" />
    <glyph glyph-name="k" unicode="k" horiz-adv-x="1126" 
d="M1090 1141q31 -34 26.5 -74t-43.5 -78l-287 -270l211 -572q20 -52 1 -91.5t-74 -59.5q-52 -20 -92.5 -4t-57.5 65l-184 521l-262 -246l-33 -228q-16 -120 -133 -120q-55 0 -82 31.5t-19 88.5l201 1420q8 57 42 89t91 32t83 -32t18 -89l-131 -928l571 534q87 81 154 11z
" />
    <glyph glyph-name="l" unicode="l" horiz-adv-x="514" 
d="M266 -16q-101 0 -154 67t-38 176l182 1297q8 57 42 89t91 32q56 0 82 -31.5t18 -89.5l-178 -1264q-9 -74 49 -98q15 -9 23.5 -17t15.5 -25.5t4 -41.5q-7 -43 -45 -68.5t-92 -25.5z" />
    <glyph glyph-name="m" unicode="m" horiz-adv-x="1972" 
d="M1516 1178q191 0 290.5 -119t71.5 -314l-90 -641q-8 -57 -42 -88.5t-91 -31.5t-83 31.5t-18 88.5l86 607q15 120 -45 191t-174 71q-108 0 -186.5 -63.5t-101.5 -170.5l-93 -635q-8 -58 -41.5 -89t-89.5 -31q-57 0 -83.5 31.5t-18.5 88.5l86 607q17 120 -43 191t-176 71
q-115 0 -194.5 -70.5t-98.5 -189.5v-2l-86 -607q-16 -120 -133 -120q-55 0 -82 31.5t-19 88.5l136 949q16 121 122 121q52 0 76.5 -31t18.5 -88l-4 -35q67 76 159.5 117t200.5 41q122 0 210 -52t128 -145q70 93 176 145t232 52z" />
    <glyph glyph-name="n" unicode="n" horiz-adv-x="1245" 
d="M780 1178q194 0 296.5 -122t74.5 -321l-90 -631q-8 -58 -41.5 -89t-89.5 -31q-57 0 -84 31.5t-19 88.5l86 596q17 124 -46 198.5t-183 74.5t-203 -74.5t-102 -198.5l-84 -596q-16 -120 -133 -120q-55 0 -82 31.5t-19 88.5l136 949q16 121 122 121q52 0 76.5 -31t18.5 -88
l-4 -41q68 79 163 121.5t207 42.5z" />
    <glyph glyph-name="o" unicode="o" horiz-adv-x="1202" 
d="M518 -20q-236 0 -360 136t-95 361l27 203q29 224 194 361t402 137q236 0 360 -136.5t95 -361.5l-27 -203q-29 -223 -194 -360t-402 -137zM547 184q130 0 222 83t112 218l26 187q19 136 -50 218.5t-200 82.5t-222.5 -82.5t-110.5 -218.5l-27 -187q-19 -135 49.5 -218
t200.5 -83z" />
    <glyph glyph-name="p" unicode="p" horiz-adv-x="1257" 
d="M801 1178q207 0 314 -131.5t79 -350.5l-31 -235q-29 -216 -175.5 -348.5t-354.5 -132.5q-111 0 -196.5 42t-135.5 119l-63 -456q-9 -58 -43.5 -89.5t-92.5 -31.5q-55 0 -81 32t-17 89l193 1368q16 121 122 121q52 0 76.5 -31t18.5 -88l-8 -58q73 87 174.5 134t220.5 47z
M958 674q19 135 -49 217t-200 82q-131 0 -222.5 -82t-111.5 -217l-27 -189q-19 -136 50 -218.5t200 -82.5t223 82.5t111 218.5z" />
    <glyph glyph-name="q" unicode="q" horiz-adv-x="1257" 
d="M1104 1174q52 0 76 -31t16 -90l-192 -1368q-7 -57 -42.5 -89t-91.5 -32q-58 0 -83 31.5t-17 89.5l64 458q-147 -163 -377 -163q-207 0 -314.5 132t-79.5 349l31 235q29 217 176 349.5t355 132.5q119 0 207.5 -47t136.5 -134l8 58q25 119 127 119zM549 184
q131 0 222.5 82.5t111.5 218.5l26 189q19 135 -50 217t-200 82t-222.5 -82t-110.5 -217l-27 -189q-19 -136 49.5 -218.5t200.5 -82.5z" />
    <glyph glyph-name="r" unicode="r" horiz-adv-x="786" 
d="M725 1174q66 0 94 -27t21 -84q-9 -50 -45 -72.5t-111 -32.5q-125 -11 -207.5 -88t-101.5 -206l-80 -560q-16 -120 -133 -120q-55 0 -82 31.5t-19 88.5l136 949q16 121 122 121q52 0 76.5 -31t18.5 -88l-6 -45q132 164 317 164z" />
    <glyph glyph-name="s" unicode="s" horiz-adv-x="1105" 
d="M461 -20q-150 0 -270 55t-162 151q-16 36 10.5 76.5t87.5 59.5q71 19 109 -29q39 -61 107 -93t151 -32q116 0 193.5 46t88.5 120q7 47 -13.5 78.5t-60.5 47t-93.5 24.5t-113 16t-118.5 16t-110.5 29t-89.5 51t-54.5 87t-5.5 132l4 21q24 162 162.5 252t353.5 90
q143 0 250.5 -52.5t148.5 -146.5q18 -36 -7 -76.5t-85 -58.5q-73 -20 -108 28q-75 129 -230 129q-109 0 -180.5 -44t-81.5 -117q-7 -46 13.5 -77t61 -46t94.5 -24t114 -15.5t119.5 -16t111.5 -30t90 -52t55 -88t5 -133.5l-2 -20q-26 -168 -173.5 -263t-371.5 -95z" />
    <glyph glyph-name="t" unicode="t" horiz-adv-x="755" 
d="M715 1157q46 0 69 -27.5t17 -72.5q-12 -86 -113 -86h-196l-95 -666q-7 -54 20.5 -86.5t80.5 -32.5h61q46 0 69 -27.5t17 -72.5q-12 -86 -113 -86h-86q-146 0 -224.5 80.5t-59.5 212.5l94 678h-94q-45 0 -68.5 27.5t-15.5 72.5q12 86 110 86h101l30 209q7 57 41.5 88
t90.5 31q55 0 79.5 -30.5t16.5 -88.5l-29 -209h197z" />
    <glyph glyph-name="u" unicode="u" horiz-adv-x="1224" 
d="M1063 1174q57 0 82.5 -31t17.5 -90l-133 -949q-19 -120 -123 -120q-52 0 -77 30.5t-19 87.5l4 35q-141 -157 -358 -157q-191 0 -292 118.5t-73 313.5l92 641q7 58 41 89.5t90 31.5q57 0 83.5 -31.5t19.5 -89.5l-86 -607q-17 -118 43 -190t176 -72q114 0 195 70.5
t98 187.5v4l86 607q8 59 42 90t91 31z" />
    <glyph glyph-name="v" unicode="v" horiz-adv-x="1120" 
d="M1063 1167q50 -15 64 -58t-11 -97l-411 -850q-77 -172 -222 -172h-16q-148 0 -176 172l-172 872q-18 114 98 135q58 11 94.5 -11.5t42.5 -76.5l150 -872l401 881q43 109 158 77z" />
    <glyph glyph-name="w" unicode="w" horiz-adv-x="1753" 
d="M1696 1169q52 -10 68.5 -49t-7.5 -94l-371 -879q-62 -157 -204 -157h-13q-144 0 -155 157l-92 762l-304 -762q-62 -157 -204 -157h-13q-138 0 -157 157l-127 891q-16 116 98 131q58 9 93 -15.5t38 -80.5l100 -846l316 791q27 70 70 109.5t118 39.5h15q135 0 149 -155
l88 -785l344 856q38 110 150 86z" />
    <glyph glyph-name="x" unicode="x" horiz-adv-x="1058" 
d="M1030 1155q44 -28 48 -72.5t-36 -89.5l-360 -391l262 -438q27 -46 9.5 -89t-70.5 -71q-93 -52 -152 49l-219 383l-330 -383q-84 -99 -164 -49q-46 29 -52 70.5t34 89.5l387 438l-250 391q-29 45 -11.5 89t69.5 73q87 49 149 -49l213 -346l309 346q88 98 164 49z" />
    <glyph glyph-name="y" unicode="y" horiz-adv-x="1103" 
d="M1051 1165q50 -18 64 -56.5t-13 -94.5l-570 -1120q-75 -152 -199.5 -241t-273.5 -89q-45 0 -66.5 26t-15.5 72q4 43 29 65.5t66 22.5q67 0 129 42t98 110l61 121l-239 1007q-27 112 86 137q124 29 145 -80l168 -794l377 792q52 116 154 80z" />
    <glyph glyph-name="z" unicode="z" horiz-adv-x="1032" 
d="M913 1157q60 0 86.5 -29.5t26.5 -91.5v-6q0 -56 -65 -121l-697 -727l563 2q47 0 70.5 -26t17.5 -70q-15 -88 -112 -88h-699q-59 0 -85.5 31t-26.5 92v4q0 59 65 121l697 727l-523 -2q-47 0 -70.5 26t-17.5 70q15 88 113 88h657z" />
    <glyph glyph-name="braceleft" unicode="{" horiz-adv-x="790" 
d="M827 1743q49 0 73 -32t18 -85q-15 -96 -121 -96q-99 0 -165.5 -59.5t-80.5 -157.5l-62 -445q-12 -89 -68 -158t-145 -108q78 -39 114.5 -108t23.5 -160l-60 -418q-14 -98 37.5 -157.5t149.5 -59.5q50 0 74 -29.5t16 -81.5q-14 -100 -121 -100q-210 0 -318.5 112.5
t-82.5 297.5l61 438q13 103 -80 158q-65 43 -57 112q10 63 88 105q110 52 123 155l65 467q26 185 167.5 297.5t350.5 112.5z" />
    <glyph glyph-name="bar" unicode="|" horiz-adv-x="532" 
d="M125 -436q-57 0 -83 32t-17 91l258 1835q9 59 43.5 91t89.5 32q57 0 83 -32t17 -91l-258 -1835q-19 -123 -133 -123z" />
    <glyph glyph-name="braceright" unicode="}" horiz-adv-x="792" 
d="M709 711q65 -44 57 -115q-9 -60 -88 -102q-110 -52 -123 -158l-61 -438q-26 -185 -167.5 -297.5t-351.5 -112.5q-51 0 -73.5 29.5t-16.5 83.5q14 98 121 98q97 0 165 59.5t81 157.5l59 418q12 91 67 160t144 108q-77 39 -113 107.5t-24 158.5l64 445q14 97 -37 157
t-150 60q-50 0 -74 29t-16 79q6 51 38 78t83 27q209 0 319 -112.5t82 -297.5l-65 -467q-16 -102 80 -155z" />
    <glyph glyph-name="asciitilde" unicode="~" horiz-adv-x="1243" 
d="M244 489q-33 -31 -55.5 -37t-49.5 15q-52 45 -6 106q67 84 153.5 133.5t166.5 49.5q52 0 107.5 -24t95.5 -52t89 -52t89 -24q43 0 89.5 22.5t82.5 61.5q33 31 54 37t48 -14q25 -21 27.5 -48t-21.5 -57q-70 -86 -154.5 -135t-166.5 -49q-51 0 -106.5 24t-95.5 52.5
t-89.5 52.5t-89.5 24q-85 0 -168 -86z" />
    <glyph glyph-name="uni00A0" unicode="&#xa0;" horiz-adv-x="458" 
 />
    <glyph glyph-name="exclamdown" unicode="&#xa1;" horiz-adv-x="505" 
d="M297 885q-63 0 -92 31t-21 90l4 47q6 58 45 89.5t103 31.5q125 0 113 -121l-7 -47q-6 -58 -44 -89.5t-101 -31.5zM111 -436q-57 0 -83.5 32.5t-17.5 90.5l123 876q7 58 42.5 89.5t92.5 31.5t83 -31t18 -90l-123 -876q-9 -59 -43.5 -91t-91.5 -32z" />
    <glyph glyph-name="cent" unicode="&#xa2;" horiz-adv-x="1161" 
d="M1122 1186q12 -35 -7.5 -75t-70.5 -56q-85 -26 -122 24q-76 129 -220 129q-129 0 -218.5 -81.5t-108.5 -215.5l-29 -196q-19 -134 49.5 -215.5t198.5 -81.5q71 0 139 32.5t119 92.5q54 54 127 26q31 -11 46 -32.5t14.5 -45t-11.5 -47.5q-45 -91 -138.5 -147t-213.5 -76
l-12 -80q-7 -60 -42 -91.5t-92 -31.5q-115 0 -100 123l12 82q-178 35 -266.5 164.5t-62.5 319.5l28 213q25 189 151.5 319t315.5 164l13 92q9 59 43.5 91t91.5 32q56 0 81.5 -32.5t16.5 -90.5l-12 -92q216 -42 280 -217z" />
    <glyph glyph-name="sterling" unicode="&#xa3;" horiz-adv-x="1449" 
d="M1446 1372q15 -45 -8 -88.5t-84 -62.5q-88 -30 -125 32q-78 179 -264 179q-152 0 -258 -96.5t-129 -256.5l-21 -143h502q52 0 77 -31t17 -84q-17 -98 -125 -98h-500l-71 -512h772q52 0 76 -30t18 -83q-12 -98 -123 -98h-1100q-52 0 -77 30.5t-19 82.5q14 98 125 98h84
l72 512h-84q-52 0 -76.5 31t-18.5 84q14 98 125 98h82l23 158q34 250 215.5 402.5t443.5 152.5q167 0 289 -71.5t162 -205.5z" />
    <glyph glyph-name="currency" unicode="&#xa4;" horiz-adv-x="1427" 
d="M1386 1460q72 -62 -6 -149l-147 -160q68 -130 45 -297l-10 -82q-24 -173 -129 -297l102 -160q56 -86 -37 -147q-94 -62 -147 22l-94 146q-129 -66 -291 -66q-158 0 -275 68l-135 -148q-76 -85 -151 -22q-73 61 4 147l147 160q-69 128 -45 297l12 82q24 172 127 297
l-102 160q-53 86 37 149q44 31 82.5 25t64.5 -47l94 -150q136 68 293 68q160 0 271 -66l137 148q39 40 78 46t75 -24zM451 776q-20 -136 49 -218.5t200 -82.5t222.5 82.5t111.5 218.5l10 74q20 136 -48 218.5t-199 82.5q-132 0 -223 -82t-111 -219z" />
    <glyph glyph-name="yen" unicode="&#xa5;" horiz-adv-x="1476" 
d="M1458 1624q46 -28 51.5 -69.5t-30.5 -92.5l-473 -620h229q41 0 61.5 -24t14.5 -64q-9 -80 -99 -80h-921q-42 0 -62 24t-14 66q9 78 98 78h230l-299 620q-24 51 -6 93t73 69q108 55 154 -49l315 -680l508 680q76 106 170 49zM1194 553q42 0 62.5 -24.5t13.5 -65.5
q-12 -78 -99 -78h-340l-38 -279q-7 -58 -44 -90t-96 -32q-58 0 -85 31.5t-19 90.5l37 279h-338q-40 0 -59.5 23.5t-14.5 64.5q9 80 98 80h922z" />
    <glyph glyph-name="brokenbar" unicode="&#xa6;" horiz-adv-x="532" 
d="M301 823q-56 0 -81.5 32.5t-16.5 90.5l80 576q9 59 43.5 91t89.5 32q57 0 83 -32t17 -91l-80 -576q-19 -123 -135 -123zM125 -436q-57 0 -83 32t-17 91l90 637q9 59 43.5 90.5t89.5 31.5q57 0 83 -31.5t17 -90.5l-90 -637q-19 -123 -133 -123z" />
    <glyph glyph-name="section" unicode="&#xa7;" horiz-adv-x="1261" 
d="M424 1196l-2 -10q-12 -83 16 -150q125 56 267 56q228 0 350 -127.5t90 -337.5l-6 -39q-24 -156 -119 -271q85 -122 63 -282l-4 -27q-32 -204 -194.5 -326t-401.5 -122q-165 0 -282 70t-162 204q-19 44 4.5 91t81.5 67q80 29 131 -43q78 -182 262 -182q132 0 221 66
t109 181l2 13q12 81 -16 147q-123 -55 -265 -55q-228 0 -350 128t-90 337l6 39q24 155 117 268q-86 127 -64 287l5 26q29 203 192 324t403 121q161 0 283 -76.5t166 -208.5q16 -42 -9 -86.5t-83 -63.5q-48 -16 -77 -2t-52 48q-75 182 -262 182q-132 0 -220 -66t-110 -180z
M909 616q17 127 -46 204t-185 77q-121 0 -206.5 -77.5t-104.5 -203.5l-2 -22q-19 -126 45 -203.5t186 -77.5q121 0 206.5 77.5t102.5 203.5z" />
    <glyph glyph-name="dieresis" unicode="&#xa8;" horiz-adv-x="860" 
d="M360 1374q-106 0 -96 105l8 61q6 50 38.5 77.5t86.5 27.5q53 0 77.5 -27.5t19.5 -77.5l-9 -61q-6 -50 -38.5 -77.5t-86.5 -27.5zM723 1374q-52 0 -76 27.5t-18 77.5l8 61q4 49 37.5 77t87.5 28q52 0 76 -27.5t18 -77.5l-8 -61q-5 -50 -37.5 -77.5t-87.5 -27.5z" />
    <glyph glyph-name="copyright" unicode="&#xa9;" horiz-adv-x="2146" 
d="M963 -197q-220 0 -395 66t-286.5 184.5t-159 288t-20.5 371.5l29 202q37 270 188.5 476.5t392.5 320t535 113.5q295 0 504 -113.5t303 -320t57 -476.5l-28 -202q-38 -270 -190 -476.5t-393.5 -320t-536.5 -113.5zM995 20q336 0 568 194.5t276 512.5l25 174
q30 210 -40 370.5t-227.5 248.5t-379.5 88q-221 0 -402.5 -88t-297 -248.5t-144.5 -370.5l-25 -174q-44 -318 133.5 -512.5t513.5 -194.5zM1042 272q-225 0 -344 131.5t-90 346.5l17 129q29 215 186 346t383 131q139 0 243 -57t142 -171q12 -33 -8 -74t-70 -57
q-85 -27 -123 25q-69 129 -215 129q-120 0 -203 -77t-102 -204l-16 -112q-20 -126 43.5 -203.5t185.5 -77.5q70 0 137 32t117 93q52 52 127 27q46 -16 57.5 -55t-8.5 -70q-59 -112 -185.5 -172t-273.5 -60z" />
    <glyph glyph-name="ordfeminine" unicode="&#xaa;" horiz-adv-x="745" 
d="M504 1640q127 0 194.5 -62t53.5 -165l-52 -375q-9 -69 -73 -69t-58 67l4 21q-90 -90 -231 -90q-96 0 -146.5 50.5t-37.5 133.5l6 37q12 78 74.5 125t156.5 47h209l6 37q8 59 -25 95t-96 36q-76 0 -137 -58q-30 -30 -73 -20q-31 9 -39 37t14 53q40 46 107 73t143 27z
M397 1083q75 0 127.5 37t61.5 97v4l4 39h-178q-44 0 -73.5 -21.5t-35.5 -58.5l-4 -17q-4 -36 23 -58t75 -22z" />
    <glyph glyph-name="guillemotleft" unicode="&#xab;" horiz-adv-x="1542" 
d="M786 958q31 -82 -71 -133l-469 -235l403 -236q85 -54 33 -133q-27 -40 -63.5 -47.5t-79.5 19.5l-416 258q-76 47 -64 139q9 89 101 137l491 258q50 28 85 20.5t50 -47.5zM1475 958q28 -83 -74 -133l-467 -237l401 -234q87 -54 35 -133q-27 -40 -63.5 -47.5t-79.5 19.5
l-418 258q-73 47 -64 139q12 89 103 137l489 258q51 28 87 20.5t51 -47.5z" />
    <glyph glyph-name="logicalnot" unicode="&#xac;" horiz-adv-x="1155" 
d="M993 682q52 0 76 -28t16 -81l-49 -354q-8 -57 -42 -88t-91 -31t-82.5 31t-17.5 88l39 277h-692q-47 0 -68.5 25.5t-15.5 70.5q4 44 33 67t77 23h817z" />
    <glyph glyph-name="uni00AD" unicode="&#xad;" horiz-adv-x="827" 
d="M201 496q-45 0 -67.5 26.5t-16.5 71.5q12 88 110 88h404q46 0 69.5 -27t16.5 -71q-15 -88 -113 -88h-403z" />
    <glyph glyph-name="registered" unicode="&#xae;" horiz-adv-x="1044" 
d="M686 1759q197 0 300 -117t81 -311l-8 -59q-23 -192 -163.5 -310t-340.5 -118q-197 0 -299 116.5t-80 311.5l8 61q22 191 162 308.5t340 117.5zM963 1327q22 155 -58.5 249.5t-232.5 94.5q-151 0 -256.5 -93.5t-128.5 -248.5l-6 -51q-22 -155 56.5 -250.5t229.5 -95.5
q152 0 258.5 94.5t128.5 249.5zM711 1552q68 0 104.5 -37t28.5 -96l-2 -16q-13 -89 -97 -121l43 -152q15 -51 -32 -67q-54 -16 -66 33l-49 174h-98l-23 -154q-6 -57 -57 -57q-53 0 -47 57l55 381q6 55 64 55h176zM569 1462l-14 -102h123q53 0 63 53q3 23 -9.5 36t-37.5 13
h-125z" />
    <glyph glyph-name="macron" unicode="&#xaf;" horiz-adv-x="737" 
d="M270 1415q-42 0 -61.5 24t-13.5 66q9 80 100 80h430q43 0 63.5 -24.5t14.5 -65.5q-12 -80 -103 -80h-430z" />
    <glyph glyph-name="degree" unicode="&#xb0;" horiz-adv-x="727" 
d="M432 1085q-131 0 -202 67t-56 177l12 76q15 110 104.5 177t221.5 67t202.5 -67t55.5 -177l-12 -78q-15 -110 -104.5 -176t-221.5 -66zM451 1219q64 0 108 31.5t51 84.5l6 64q7 54 -26 85.5t-98 31.5q-62 0 -105.5 -32t-50.5 -85l-10 -64q-7 -53 27 -84.5t98 -31.5z" />
    <glyph glyph-name="plusminus" unicode="&#xb1;" horiz-adv-x="1155" 
d="M1022 817q47 0 69 -25.5t17 -70.5q-6 -44 -35.5 -67t-77.5 -23h-293l-26 -185q-8 -57 -42 -87.5t-91 -30.5t-83 30.5t-18 87.5l27 185h-295q-47 0 -69 25.5t-17 70.5q6 44 35.5 67t77.5 23h293l26 184q8 57 42 88t91 31t83 -31t18 -88l-27 -184h295zM942 246q46 0 68 -26
t16 -70q-4 -44 -33 -67.5t-75 -23.5h-824q-46 0 -69 26.5t-17 70.5q4 43 34 66.5t77 23.5h823z" />
    <glyph glyph-name="acute" unicode="&#xb4;" horiz-adv-x="759" 
d="M324 1311q-90 -31 -111 28q-22 57 72 103l368 188q46 23 78 13t43 -50q12 -40 -7.5 -70.5t-66.5 -47.5z" />
    <glyph glyph-name="uni00B5" unicode="&#xb5;" horiz-adv-x="1249" 
d="M1090 1174q57 0 82.5 -31t17.5 -90l-90 -641q-28 -195 -161.5 -313.5t-322.5 -118.5q-100 0 -178.5 36t-124.5 103l-61 -434q-8 -58 -42.5 -89.5t-92.5 -31.5q-55 0 -81 32t-18 89l193 1368q7 58 41 89.5t90 31.5q57 0 83.5 -31t18.5 -90l-86 -607v-2
q-17 -117 43.5 -188.5t176.5 -71.5t196.5 72t95.5 190l86 607q7 58 42 89.5t92 31.5z" />
    <glyph glyph-name="paragraph" unicode="&#xb6;" horiz-adv-x="1298" 
d="M754 1645q73 0 108.5 -39.5t24.5 -110.5l-256 -1819q-8 -54 -40.5 -83t-86.5 -29q-53 0 -77 29t-17 83l149 1059h-41q-198 0 -305.5 114t-81.5 298l8 51q28 201 187.5 324t390.5 123h37zM1159 1645q54 0 79 -29.5t17 -83.5l-260 -1856q-8 -54 -40.5 -83t-86.5 -29t-79 29
t-17 83l260 1856q7 54 40.5 83.5t86.5 29.5z" />
    <glyph glyph-name="periodcentered" unicode="&#xb7;" horiz-adv-x="479" 
d="M221 442q-63 0 -92 31.5t-20 91.5l6 47q21 119 147 119q62 0 92 -30.5t21 -88.5l-6 -47q-9 -60 -47 -91.5t-101 -31.5z" />
    <glyph glyph-name="cedilla" unicode="&#xb8;" horiz-adv-x="661" 
d="M285 -78q76 -19 114 -59.5t31 -95.5l-2 -15q-10 -79 -90.5 -125.5t-204.5 -46.5h-53q-38 0 -56.5 19t-15.5 53q6 38 33.5 53.5t87.5 18.5q66 3 72 49q8 41 -58 61q-37 11 -46 22t1 38l97 204l155 -51z" />
    <glyph glyph-name="ordmasculine" unicode="&#xba;" horiz-adv-x="747" 
d="M424 967q-132 0 -202.5 77t-53.5 203l16 113q17 126 109.5 203t226.5 77t205.5 -77t52.5 -203l-16 -113q-19 -126 -112 -203t-226 -77zM442 1092q71 0 120 44t59 117l16 103q11 72 -27 117t-108 45q-69 0 -118 -45t-60 -117l-15 -103q-10 -73 26 -117t107 -44z" />
    <glyph glyph-name="guillemotright" unicode="&#xbb;" horiz-adv-x="1542" 
d="M735 727q80 -50 66 -137q-15 -90 -105 -139l-489 -258q-103 -56 -135 28q-30 79 71 133l469 234l-403 237q-42 25 -51 59t18 74q56 84 141 27zM1423 727q78 -48 66 -137q-15 -90 -105 -139l-489 -258q-103 -56 -135 28q-30 79 71 133l469 234l-403 237q-42 25 -51 59
t18 74q26 40 63.5 47.5t78.5 -20.5z" />
    <glyph glyph-name="onequarter" unicode="&#xbc;" horiz-adv-x="1593" 
d="M307 1317q-32 -25 -60.5 -22.5t-47.5 30.5q-41 60 28 111l209 155q48 37 105 37h8q55 0 80.5 -34.5t17.5 -86.5l-86 -608q-6 -44 -32.5 -68t-69.5 -24t-62.5 24t-13.5 68l76 531zM1356 1606q66 -41 12 -117l-1030 -1434q-54 -76 -123 -32q-65 41 -12 116l1032 1436
q55 74 121 31zM1401 299q38 0 57.5 -22.5t14.5 -59.5q-12 -72 -93 -72h-10l-8 -61q-6 -44 -32.5 -68t-69.5 -24t-62 24t-12 68l10 61h-289q-38 0 -56.5 26.5t-12.5 70.5q5 55 43 104l340 414q42 53 116 53h6q58 0 85.5 -30.5t19.5 -86.5l-55 -397h8zM1018 299h201l47 307z
" />
    <glyph glyph-name="onehalf" unicode="&#xbd;" horiz-adv-x="1576" 
d="M307 1317q-32 -25 -60.5 -22.5t-47.5 30.5q-41 60 28 111l209 155q48 37 105 37h8q55 0 80.5 -34.5t17.5 -86.5l-86 -608q-6 -44 -32.5 -68t-69.5 -24t-62.5 24t-13.5 68l76 531zM1356 1606q66 -41 12 -117l-1030 -1434q-54 -76 -123 -32q-65 41 -12 116l1032 1436
q55 74 121 31zM1233 825q131 0 203 -70t57 -180l-2 -14q-14 -101 -111 -192.5t-299 -218.5l273 2q38 0 56.5 -19.5t14.5 -54.5q-4 -37 -29 -57.5t-63 -20.5h-432q-43 0 -64.5 23.5t-15.5 64.5q11 67 72 105q236 155 325.5 234t98.5 136q7 49 -23 79t-86 30q-77 0 -145 -68
q-43 -37 -96 -10q-36 19 -43.5 45.5t16.5 54.5q100 131 293 131z" />
    <glyph glyph-name="threequarters" unicode="&#xbe;" horiz-adv-x="1640" 
d="M743 1040q-15 -106 -107 -170.5t-228 -64.5q-94 0 -163.5 34t-99.5 103q-11 26 8 55t62 43q63 18 88 -14q47 -70 121 -70q59 0 97.5 25.5t45.5 69.5l2 10q6 40 -23.5 66t-82.5 26h-8q-32 0 -48.5 22.5t-11.5 59.5q12 70 78 70h2q51 0 84 22t39 62l2 8q7 41 -22 65.5
t-82 24.5q-72 0 -127 -55q-48 -35 -99 -13q-35 15 -42.5 44t14.5 55q94 122 280 122q130 0 202.5 -64t57.5 -163l-4 -24q-18 -107 -139 -158q59 -25 87.5 -68.5t21.5 -101.5zM1417 1606q67 -42 13 -117l-1031 -1434q-54 -76 -123 -32q-65 41 -12 116l1032 1436q55 74 121 31
zM1462 299q38 0 57.5 -22.5t14.5 -59.5q-12 -72 -92 -72h-10l-9 -61q-6 -44 -32.5 -68t-69.5 -24t-62 24t-12 68l10 61h-288q-38 0 -57 26.5t-13 70.5q5 55 43 104l340 414q42 53 117 53h6q58 0 85 -30.5t19 -86.5l-55 -397h8zM1079 299h201l47 307z" />
    <glyph glyph-name="questiondown" unicode="&#xbf;" horiz-adv-x="1048" 
d="M815 1174q127 0 115 -121l-6 -47q-6 -58 -45 -89.5t-103 -31.5q-124 0 -112 121l6 47q6 58 44 89.5t101 31.5zM772 -209q54 0 78 -28.5t16 -81.5q-12 -101 -123 -101h-360q-208 0 -320 120t-83 314l6 35q28 191 171.5 306.5t352.5 115.5h90l12 92q9 59 44 90t92 31
t82.5 -31t17.5 -90l-25 -172q-6 -53 -39 -81.5t-86 -28.5h-202q-104 0 -178 -65t-89 -169l-4 -27q-17 -104 40 -166.5t163 -62.5h344z" />
    <glyph glyph-name="Agrave" unicode="&#xc0;" horiz-adv-x="1482" 
d="M694 1841q-46 11 -60.5 40.5t5.5 72.5q19 41 53.5 54t75.5 -5l350 -135q82 -36 56 -96q-13 -31 -45.5 -41t-73.5 2zM1364 141q10 -64 -13.5 -101t-82.5 -52q-58 -13 -98.5 14t-49.5 84l-55 281h-705l-141 -295q-50 -115 -162 -80q-108 36 -55 151l655 1354
q31 68 88.5 104.5t133.5 36.5h26q75 0 124 -43t61 -112zM461 578h563l-164 831z" />
    <glyph glyph-name="Aacute" unicode="&#xc1;" horiz-adv-x="1482" 
d="M756 1733q-95 -24 -107 39q-12 60 82 96l385 135q99 38 115 -49q12 -92 -84 -113zM1364 141q10 -64 -13.5 -101t-82.5 -52q-58 -13 -98.5 14t-49.5 84l-55 281h-705l-141 -295q-50 -115 -162 -80q-108 36 -55 151l655 1354q31 68 88.5 104.5t133.5 36.5h26q75 0 124 -43
t61 -112zM461 578h563l-164 831z" />
    <glyph glyph-name="Acircumflex" unicode="&#xc2;" horiz-adv-x="1482" 
d="M688 1726q-59 -35 -90 13q-33 52 23 96l278 221q27 21 51 21q26 0 47 -21l217 -221q46 -43 0 -92q-44 -53 -96 -17l-190 160zM1364 141q10 -64 -13.5 -101t-82.5 -52q-58 -13 -98.5 14t-49.5 84l-55 281h-705l-141 -295q-50 -115 -162 -80q-108 36 -55 151l655 1354
q31 68 88.5 104.5t133.5 36.5h26q75 0 124 -43t61 -112zM461 578h563l-164 831z" />
    <glyph glyph-name="Atilde" unicode="&#xc3;" horiz-adv-x="1482" 
d="M590 1769q-56 46 -4 101q109 112 229 112q51 0 129 -36.5t119 -36.5q49 0 90 28q24 13 37.5 18.5t29 4t29.5 -13.5q25 -20 27 -45t-23 -54q-109 -112 -229 -112q-52 0 -130.5 36.5t-119.5 36.5q-44 0 -94 -32q-30 -19 -48 -21t-42 14zM1364 141q10 -64 -13.5 -101
t-82.5 -52q-58 -13 -98.5 14t-49.5 84l-55 281h-705l-141 -295q-50 -115 -162 -80q-108 36 -55 151l655 1354q31 68 88.5 104.5t133.5 36.5h26q75 0 124 -43t61 -112zM461 578h563l-164 831z" />
    <glyph glyph-name="Adieresis" unicode="&#xc4;" horiz-adv-x="1482" 
d="M721 1743q-52 0 -76 27t-18 77l8 62q6 49 39 76.5t86 27.5q105 0 96 -104l-8 -62q-6 -50 -39 -77t-88 -27zM1085 1743q-105 0 -96 104l10 62q4 49 37.5 76.5t87.5 27.5q52 0 76.5 -27t18.5 -77l-9 -62q-4 -49 -37.5 -76.5t-87.5 -27.5zM1364 141q10 -64 -13.5 -101
t-82.5 -52q-58 -13 -98.5 14t-49.5 84l-55 281h-705l-141 -295q-50 -115 -162 -80q-108 36 -55 151l655 1354q31 68 88.5 104.5t133.5 36.5h26q75 0 124 -43t61 -112zM461 578h563l-164 831z" />
    <glyph glyph-name="Aring" unicode="&#xc5;" horiz-adv-x="1482" 
d="M899 1708q-118 0 -181.5 58t-49.5 153l4 35q14 95 93.5 153t197.5 58q119 0 182.5 -58t50.5 -153l-6 -35q-14 -95 -93.5 -153t-197.5 -58zM815 1925q-5 -40 23 -64t80 -24q51 0 86.5 24.5t39.5 63.5l3 23q6 40 -21.5 64t-79.5 24q-53 0 -88 -24t-39 -64zM1364 141
q10 -64 -13.5 -101t-82.5 -52q-58 -13 -98.5 14t-49.5 84l-55 281h-705l-141 -295q-50 -115 -162 -80q-108 36 -55 151l655 1354q31 68 88.5 104.5t133.5 36.5h26q75 0 124 -43t61 -112zM461 578h563l-164 831z" />
    <glyph glyph-name="AE" unicode="&#xc6;" horiz-adv-x="2121" 
d="M2066 1628q52 0 77.5 -30.5t17.5 -81.5q-14 -99 -125 -99h-791l17 -481h667q52 0 76 -31t18 -84q-14 -98 -125 -98h-630l18 -512h600q53 0 77.5 -29.5t16.5 -81.5q-11 -100 -122 -100h-715q-103 0 -103 100l-8 267h-657l-187 -308q-63 -107 -161 -61q-99 47 -35 154
l844 1368q31 51 85 79.5t123 28.5h1022zM504 578h522l-25 821z" />
    <glyph glyph-name="Ccedilla" unicode="&#xc7;" horiz-adv-x="1402" 
d="M1417 1348q15 -40 -4.5 -87t-73.5 -67q-94 -32 -143 35q-55 100 -138 151.5t-181 51.5q-188 0 -319 -119.5t-159 -315.5l-53 -379q-26 -189 73 -305t288 -116q113 0 214 56t171 150q64 74 147 39q34 -15 50 -40.5t14.5 -50t-13.5 -44.5q-83 -138 -220.5 -221t-303.5 -102
l-33 -62q76 -19 114.5 -59.5t31.5 -95.5l-2 -15q-10 -79 -90.5 -125.5t-204.5 -46.5h-54q-77 0 -71 72q6 38 33.5 53.5t87.5 18.5q65 3 71 49q8 41 -57 61q-37 11 -46 22t1 38l43 90q-260 26 -393.5 194t-96.5 428l56 406q40 287 247 462t504 175q181 0 318.5 -81
t191.5 -220z" />
    <glyph glyph-name="Egrave" unicode="&#xc8;" horiz-adv-x="1337" 
d="M651 1841q-46 11 -60.5 40.5t5.5 72.5q19 41 53.5 54t75.5 -5l350 -135q82 -35 55 -96q-13 -31 -45 -41t-73 2zM1280 1628q53 0 77.5 -30t16.5 -82q-11 -99 -123 -99h-737l-68 -481h697q52 0 77 -31t17 -84q-12 -98 -125 -98h-694l-72 -512h756q52 0 77 -30t17 -83
q-12 -98 -123 -98h-891q-54 0 -78 28t-16 81l197 1411q7 52 39.5 80t85.5 28h870z" />
    <glyph glyph-name="Eacute" unicode="&#xc9;" horiz-adv-x="1337" 
d="M713 1733q-95 -24 -107 39q-12 60 82 96l385 135q99 38 115 -49q12 -92 -84 -113zM1280 1628q53 0 77.5 -30t16.5 -82q-11 -99 -123 -99h-737l-68 -481h697q52 0 77 -31t17 -84q-12 -98 -125 -98h-694l-72 -512h756q52 0 77 -30t17 -83q-12 -98 -123 -98h-891
q-54 0 -78 28t-16 81l197 1411q7 52 39.5 80t85.5 28h870z" />
    <glyph glyph-name="Ecircumflex" unicode="&#xca;" horiz-adv-x="1337" 
d="M645 1726q-59 -35 -90 13q-33 52 23 96l278 221q27 21 51 21q26 0 47 -21l217 -221q46 -43 0 -92q-44 -53 -96 -17l-190 160zM1280 1628q53 0 77.5 -30t16.5 -82q-11 -99 -123 -99h-737l-68 -481h697q52 0 77 -31t17 -84q-12 -98 -125 -98h-694l-72 -512h756q52 0 77 -30
t17 -83q-12 -98 -123 -98h-891q-54 0 -78 28t-16 81l197 1411q7 52 39.5 80t85.5 28h870z" />
    <glyph glyph-name="Edieresis" unicode="&#xcb;" horiz-adv-x="1337" 
d="M678 1743q-52 0 -76 27t-18 77l8 62q6 49 39 76.5t86 27.5q105 0 96 -104l-8 -62q-6 -50 -39 -77t-88 -27zM1042 1743q-105 0 -96 104l10 62q4 49 37.5 76.5t87.5 27.5q52 0 76.5 -27t18.5 -77l-9 -62q-4 -49 -37.5 -76.5t-87.5 -27.5zM1280 1628q53 0 77.5 -30t16.5 -82
q-11 -99 -123 -99h-737l-68 -481h697q52 0 77 -31t17 -84q-12 -98 -125 -98h-694l-72 -512h756q52 0 77 -30t17 -83q-12 -98 -123 -98h-891q-54 0 -78 28t-16 81l197 1411q7 52 39.5 80t85.5 28h870z" />
    <glyph glyph-name="Igrave" unicode="&#xcc;" horiz-adv-x="550" 
d="M651 1769q-13 -31 -44.5 -40.5t-74.5 2.5l-264 75q-45 12 -59.5 42t4.5 71q41 86 131 47l254 -100q78 -34 53 -97zM193 -16q-122 0 -107 120l201 1418q8 59 43.5 91t93.5 32q59 0 86.5 -32t19.5 -91l-200 -1418q-7 -58 -42.5 -89t-94.5 -31z" />
    <glyph glyph-name="Iacute" unicode="&#xcd;" horiz-adv-x="552" 
d="M344 1731q-97 -25 -106 38q-12 60 81 97l281 100q47 19 78 7t37 -54q6 -43 -16.5 -73t-69.5 -40zM193 -16q-122 0 -107 120l201 1418q8 59 43.5 91t93.5 32q59 0 86.5 -32t19.5 -91l-200 -1418q-7 -58 -42.5 -89t-94.5 -31z" />
    <glyph glyph-name="Icircumflex" unicode="&#xce;" horiz-adv-x="550" 
d="M295 1741q-61 -46 -96 2q-37 52 16 102l211 203q32 29 57 29q26 0 49 -29l152 -203q43 -49 -2 -94q-54 -57 -104 -10l-123 137zM190 -16q-121 0 -106 120l201 1418q8 59 43.5 91t93.5 32q59 0 86.5 -32t19.5 -91l-200 -1418q-7 -58 -43 -89t-95 -31z" />
    <glyph glyph-name="Idieresis" unicode="&#xcf;" horiz-adv-x="550" 
d="M309 1743q-42 0 -62 23t-14 65l13 96q6 40 33 63t69 23q41 0 61 -23t15 -63l-14 -96q-4 -41 -31 -64.5t-70 -23.5zM561 1743q-42 0 -61.5 23t-14.5 65l15 96q5 40 31 63t69 23q42 0 62 -23t14 -63l-12 -96q-6 -42 -32.5 -65t-70.5 -23zM190 -16q-121 0 -106 120l201 1418
q8 59 43.5 91t93.5 32q59 0 86.5 -32t19.5 -91l-200 -1418q-7 -58 -43 -89t-95 -31z" />
    <glyph glyph-name="Eth" unicode="&#xd0;" horiz-adv-x="1515" 
d="M915 1628q293 0 448.5 -173t115.5 -454l-52 -374q-40 -281 -243.5 -454t-495.5 -173h-481q-54 0 -78 28t-16 81l86 624h-41q-46 0 -68 26t-16 72q12 91 110 91h41l84 598q7 52 39.5 80t85.5 28h481zM1233 987q28 193 -72 311.5t-289 118.5h-333l-70 -495h266
q47 0 68.5 -26.5t15.5 -72.5q-12 -90 -110 -90h-267l-73 -522h333q189 0 321.5 118.5t160.5 311.5z" />
    <glyph glyph-name="Ntilde" unicode="&#xd1;" horiz-adv-x="1560" 
d="M631 1769q-56 46 -4 101q109 112 229 112q50 0 128 -36.5t120 -36.5q49 0 90 28q24 13 37.5 18.5t29 4t29.5 -13.5q25 -20 27 -45t-23 -54q-109 -112 -229 -112q-52 0 -130.5 36.5t-119.5 36.5q-44 0 -94 -32q-30 -19 -48 -21t-42 14zM1438 1645q57 0 84 -32.5t18 -90.5
l-192 -1375q-10 -76 -57 -116.5t-124 -40.5h-16q-97 0 -137 98l-533 1184l-153 -1166q-9 -59 -44.5 -90.5t-93.5 -31.5t-84.5 31.5t-17.5 90.5l191 1375q10 76 57 116.5t123 40.5h18q100 0 129 -75l541 -1207l153 1166q8 59 44 91t94 32z" />
    <glyph glyph-name="Ograve" unicode="&#xd2;" horiz-adv-x="1536" 
d="M1200 1772q-13 -31 -45.5 -41t-73.5 2l-360 108q-46 11 -60.5 40.5t5.5 72.5q19 41 53.5 54t75.5 -5l350 -135q82 -35 55 -96zM684 -20q-302 0 -462 174t-120 458l54 404q40 284 250 458.5t512 174.5q303 0 462 -174t121 -459l-55 -404q-40 -284 -250 -458t-512 -174z
M715 197q193 0 327 118t162 312l51 374q28 194 -73.5 312.5t-294.5 118.5q-192 0 -326 -118.5t-162 -312.5l-51 -374q-28 -193 73.5 -311.5t293.5 -118.5z" />
    <glyph glyph-name="Oacute" unicode="&#xd3;" horiz-adv-x="1536" 
d="M784 1733q-94 -24 -106 39q-12 60 82 96l385 135q99 38 115 -49q12 -92 -84 -113zM684 -20q-302 0 -462 174t-120 458l54 404q40 284 250 458.5t512 174.5q303 0 462 -174t121 -459l-55 -404q-40 -284 -250 -458t-512 -174zM715 197q193 0 327 118t162 312l51 374
q28 194 -73.5 312.5t-294.5 118.5q-192 0 -326 -118.5t-162 -312.5l-51 -374q-28 -193 73.5 -311.5t293.5 -118.5z" />
    <glyph glyph-name="Ocircumflex" unicode="&#xd4;" horiz-adv-x="1536" 
d="M625 1739q-33 53 22 96l279 221q27 21 51 21q26 0 47 -21l217 -221q46 -43 0 -92q-44 -53 -96 -17l-191 160l-239 -160q-59 -35 -90 13zM684 -20q-302 0 -462 174t-120 458l54 404q40 284 250 458.5t512 174.5q303 0 462 -174t121 -459l-55 -404q-40 -284 -250 -458
t-512 -174zM715 197q193 0 327 118t162 312l51 374q28 194 -73.5 312.5t-294.5 118.5q-192 0 -326 -118.5t-162 -312.5l-51 -374q-28 -193 73.5 -311.5t293.5 -118.5z" />
    <glyph glyph-name="Otilde" unicode="&#xd5;" horiz-adv-x="1536" 
d="M707 1776q-30 -18 -48.5 -20.5t-42.5 13.5q-56 46 -4 101q109 112 230 112q50 0 128 -36.5t120 -36.5q49 0 90 28q24 13 37.5 18.5t29 4t29.5 -13.5q25 -20 27 -45t-23 -54q-109 -112 -229 -112q-52 0 -130.5 36.5t-119.5 36.5q-44 0 -94 -32zM684 -20q-302 0 -462 174
t-120 458l54 404q40 284 250 458.5t512 174.5q303 0 462 -174t121 -459l-55 -404q-40 -284 -250 -458t-512 -174zM715 197q193 0 327 118t162 312l51 374q28 194 -73.5 312.5t-294.5 118.5q-192 0 -326 -118.5t-162 -312.5l-51 -374q-28 -193 73.5 -311.5t293.5 -118.5z" />
    <glyph glyph-name="Odieresis" unicode="&#xd6;" horiz-adv-x="1536" 
d="M748 1743q-52 0 -76.5 27t-18.5 77l9 62q6 49 38.5 76.5t85.5 27.5q106 0 97 -104l-9 -62q-6 -50 -38.5 -77t-87.5 -27zM1112 1743q-105 0 -96 104l10 62q4 49 37.5 76.5t87.5 27.5q52 0 76 -27t18 -77l-8 -62q-4 -49 -37.5 -76.5t-87.5 -27.5zM684 -20q-302 0 -462 174
t-120 458l54 404q40 284 250 458.5t512 174.5q303 0 462 -174t121 -459l-55 -404q-40 -284 -250 -458t-512 -174zM715 197q193 0 327 118t162 312l51 374q28 194 -73.5 312.5t-294.5 118.5q-192 0 -326 -118.5t-162 -312.5l-51 -374q-28 -193 73.5 -311.5t293.5 -118.5z" />
    <glyph glyph-name="multiply" unicode="&#xd7;" horiz-adv-x="1155" 
d="M1034 987q28 -32 22 -70t-46 -73l-289 -254l219 -256q61 -74 -18 -144q-39 -33 -76.5 -32t-67.5 35l-219 256l-291 -256q-82 -70 -143 -3q-58 73 22 144l291 256l-219 254q-62 71 19 143q80 70 143 -2l219 -254l289 254q40 35 78 35.5t67 -33.5z" />
    <glyph glyph-name="Oslash" unicode="&#xd8;" horiz-adv-x="1548" 
d="M1561 1587q72 -72 -11 -151l-82 -84q63 -145 39 -336l-55 -404q-40 -284 -250 -458t-512 -174q-265 0 -424 137l-55 -58q-38 -41 -78.5 -45t-73.5 29q-69 69 11 152l77 79q-65 145 -38 338l53 404q40 284 250.5 458.5t511.5 174.5q270 0 426 -140l59 62q84 84 152 16z
M354 627q-12 -74 -2 -142l822 844q-103 103 -281 103q-192 0 -325.5 -118.5t-161.5 -312.5zM1262 1001q10 82 2 140l-822 -842q102 -102 279 -102q193 0 327 118t162 312z" />
    <glyph glyph-name="Ugrave" unicode="&#xd9;" horiz-adv-x="1495" 
d="M1182 1772q-13 -31 -45.5 -41t-73.5 2l-361 108q-46 11 -60.5 40.5t5.5 72.5q19 41 53.5 54t75.5 -5l350 -135q82 -36 56 -96zM666 -20q-275 0 -420.5 156.5t-108.5 414.5l137 971q8 59 44 91t94 32q59 0 86.5 -32t19.5 -91l-135 -959q-23 -166 63 -266t250 -100
q163 0 277 100.5t137 265.5l133 959q9 59 45 91t94 32q60 0 87.5 -32t19.5 -91l-137 -971q-37 -258 -224.5 -414.5t-461.5 -156.5z" />
    <glyph glyph-name="Uacute" unicode="&#xda;" horiz-adv-x="1495" 
d="M764 1733q-95 -24 -107 39q-12 60 82 96l385 135q99 38 115 -49q12 -92 -84 -113zM666 -20q-275 0 -420.5 156.5t-108.5 414.5l137 971q8 59 44 91t94 32q59 0 86.5 -32t19.5 -91l-135 -959q-23 -166 63 -266t250 -100q163 0 277 100.5t137 265.5l133 959q9 59 45 91
t94 32q60 0 87.5 -32t19.5 -91l-137 -971q-37 -258 -224.5 -414.5t-461.5 -156.5z" />
    <glyph glyph-name="Ucircumflex" unicode="&#xdb;" horiz-adv-x="1495" 
d="M606 1739q-33 52 23 96l278 221q27 21 51 21q27 0 48 -21l217 -221q46 -43 0 -92q-44 -54 -97 -17l-190 160l-240 -160q-59 -35 -90 13zM666 -20q-275 0 -420.5 156.5t-108.5 414.5l137 971q8 59 44 91t94 32q59 0 86.5 -32t19.5 -91l-135 -959q-23 -166 63 -266
t250 -100q163 0 277 100.5t137 265.5l133 959q9 59 45 91t94 32q60 0 87.5 -32t19.5 -91l-137 -971q-37 -258 -224.5 -414.5t-461.5 -156.5z" />
    <glyph glyph-name="Udieresis" unicode="&#xdc;" horiz-adv-x="1495" 
d="M729 1743q-52 0 -76 27t-18 77l8 62q6 49 39 76.5t86 27.5q105 0 96 -104l-8 -62q-6 -50 -39 -77t-88 -27zM1094 1743q-106 0 -97 104l11 62q4 49 37.5 76.5t87.5 27.5q52 0 76 -27t18 -77l-8 -62q-4 -49 -37.5 -76.5t-87.5 -27.5zM666 -20q-275 0 -420.5 156.5
t-108.5 414.5l137 971q8 59 44 91t94 32q59 0 86.5 -32t19.5 -91l-135 -959q-23 -166 63 -266t250 -100q163 0 277 100.5t137 265.5l133 959q9 59 45 91t94 32q60 0 87.5 -32t19.5 -91l-137 -971q-37 -258 -224.5 -414.5t-461.5 -156.5z" />
    <glyph glyph-name="Yacute" unicode="&#xdd;" horiz-adv-x="1419" 
d="M725 1733q-95 -24 -107 39q-12 60 82 96l385 135q99 38 115 -49q12 -92 -84 -113zM1430 1624q97 -59 20 -162l-608 -800l-76 -556q-9 -59 -45 -90.5t-94 -31.5q-60 0 -87.5 31.5t-19.5 90.5l78 556l-383 800q-23 51 -5 93t73 69q109 56 155 -49l316 -680l508 680
q76 105 168 49z" />
    <glyph glyph-name="Thorn" unicode="&#xde;" horiz-adv-x="1439" 
d="M1012 1278q207 0 317 -118.5t84 -313.5l-6 -47q-26 -194 -171 -313t-353 -119h-514l-37 -261q-9 -59 -45 -90.5t-94 -31.5q-60 0 -87 31.5t-18 90.5l199 1416q8 59 43.5 91t93.5 32q59 0 86.5 -32t19.5 -91l-34 -244h516zM1169 831q12 107 -43 171.5t-159 64.5h-500
l-70 -489h502q105 0 180.5 65.5t87.5 169.5z" />
    <glyph glyph-name="germandbls" unicode="&#xdf;" horiz-adv-x="1259" 
d="M778 1649q224 0 345 -114t98 -300l-13 -88q-13 -105 -84 -183t-186 -120q131 -40 194 -129t48 -213l-13 -94q-26 -183 -174.5 -295.5t-363.5 -112.5h-74q-50 0 -74 27.5t-18 72.5q12 86 112 86h66q117 0 197.5 65t95.5 171l12 80q14 106 -48 169.5t-179 63.5h-33
q-45 0 -67.5 28t-16.5 73q12 86 111 86q105 0 177.5 62t84.5 163l10 74q12 102 -51.5 162.5t-183.5 60.5q-119 0 -201.5 -68t-97.5 -180l-154 -1092q-19 -120 -133 -120q-57 0 -83.5 31.5t-17.5 88.5l156 1106q28 198 181.5 318.5t377.5 120.5z" />
    <glyph glyph-name="agrave" unicode="&#xe0;" horiz-adv-x="1177" 
d="M496 1475q-86 35 -41 118q23 40 57 50t74 -13l317 -188q80 -47 45 -103q-35 -59 -121 -28zM659 1178q218 0 336 -111.5t92 -294.5l-94 -668q-8 -57 -39.5 -88.5t-83.5 -31.5q-51 0 -76.5 30.5t-19.5 87.5l6 50q-74 -82 -183 -127t-237 -45q-167 0 -257 88t-70 233l10 68
q20 138 132 220.5t278 82.5h387l12 84q15 108 -45.5 173.5t-173.5 65.5q-160 0 -268 -123q-48 -48 -113 -28q-37 12 -56 36t-18.5 50t17.5 49q65 95 190.5 147t273.5 52zM453 168q142 0 238.5 71.5t113.5 190.5l10 76h-334q-84 0 -140 -39.5t-65 -106.5l-6 -34
q-9 -72 41 -115t142 -43z" />
    <glyph glyph-name="aacute" unicode="&#xe1;" horiz-adv-x="1177" 
d="M539 1311q-90 -31 -111 28q-22 57 72 103l368 188q46 23 78 13t43 -50q12 -40 -7.5 -70.5t-66.5 -47.5zM659 1178q218 0 336 -111.5t92 -294.5l-94 -668q-8 -57 -39.5 -88.5t-83.5 -31.5q-51 0 -76.5 30.5t-19.5 87.5l6 50q-74 -82 -183 -127t-237 -45q-167 0 -257 88
t-70 233l10 68q20 138 132 220.5t278 82.5h387l12 84q15 108 -45.5 173.5t-173.5 65.5q-160 0 -268 -123q-48 -48 -113 -28q-37 12 -56 36t-18.5 50t17.5 49q65 95 190.5 147t273.5 52zM453 168q142 0 238.5 71.5t113.5 190.5l10 76h-334q-84 0 -140 -39.5t-65 -106.5
l-6 -34q-9 -72 41 -115t142 -43z" />
    <glyph glyph-name="acircumflex" unicode="&#xe2;" horiz-adv-x="1177" 
d="M469 1309q-60 -35 -90 12q-34 52 22 96l279 221q27 21 51 21q26 0 47 -21l219 -221q42 -42 -2 -92q-44 -53 -96 -16l-192 159zM659 1178q218 0 336 -111.5t92 -294.5l-94 -668q-8 -57 -39.5 -88.5t-83.5 -31.5q-51 0 -76.5 30.5t-19.5 87.5l6 50q-74 -82 -183 -127
t-237 -45q-167 0 -257 88t-70 233l10 68q20 138 132 220.5t278 82.5h387l12 84q15 108 -45.5 173.5t-173.5 65.5q-160 0 -268 -123q-48 -48 -113 -28q-37 12 -56 36t-18.5 50t17.5 49q65 95 190.5 147t273.5 52zM453 168q142 0 238.5 71.5t113.5 190.5l10 76h-334
q-84 0 -140 -39.5t-65 -106.5l-6 -34q-9 -72 41 -115t142 -43z" />
    <glyph glyph-name="atilde" unicode="&#xe3;" horiz-adv-x="1177" 
d="M379 1401q-56 46 -4 98q112 115 229 115q50 0 128.5 -37t119.5 -37q48 0 90 29q33 19 51 22t43 -14q26 -19 27.5 -45t-23.5 -53q-110 -113 -229 -113q-51 0 -129 37t-121 37t-94 -33q-29 -19 -46.5 -21t-41.5 15zM659 1178q218 0 336 -111.5t92 -294.5l-94 -668
q-8 -57 -39.5 -88.5t-83.5 -31.5q-51 0 -76.5 30.5t-19.5 87.5l6 50q-74 -82 -183 -127t-237 -45q-167 0 -257 88t-70 233l10 68q20 138 132 220.5t278 82.5h387l12 84q15 108 -45.5 173.5t-173.5 65.5q-160 0 -268 -123q-48 -48 -113 -28q-37 12 -56 36t-18.5 50t17.5 49
q65 95 190.5 147t273.5 52zM453 168q142 0 238.5 71.5t113.5 190.5l10 76h-334q-84 0 -140 -39.5t-65 -106.5l-6 -34q-9 -72 41 -115t142 -43z" />
    <glyph glyph-name="adieresis" unicode="&#xe4;" horiz-adv-x="1177" 
d="M512 1374q-106 0 -96 105l8 61q6 50 38.5 77.5t86.5 27.5q106 0 96 -105l-8 -61q-6 -50 -38.5 -77.5t-86.5 -27.5zM874 1374q-52 0 -76 27.5t-18 77.5l8 61q4 49 37.5 77t87.5 28q52 0 76.5 -27.5t18.5 -77.5l-9 -61q-5 -50 -37.5 -77.5t-87.5 -27.5zM659 1178
q218 0 336 -111.5t92 -294.5l-94 -668q-8 -57 -39.5 -88.5t-83.5 -31.5q-51 0 -76.5 30.5t-19.5 87.5l6 50q-74 -82 -183 -127t-237 -45q-167 0 -257 88t-70 233l10 68q20 138 132 220.5t278 82.5h387l12 84q15 108 -45.5 173.5t-173.5 65.5q-160 0 -268 -123
q-48 -48 -113 -28q-37 12 -56 36t-18.5 50t17.5 49q65 95 190.5 147t273.5 52zM453 168q142 0 238.5 71.5t113.5 190.5l10 76h-334q-84 0 -140 -39.5t-65 -106.5l-6 -34q-9 -72 41 -115t142 -43z" />
    <glyph glyph-name="aring" unicode="&#xe5;" horiz-adv-x="1177" 
d="M672 1223q-120 0 -184 58t-50 153l4 36q15 96 94.5 153.5t198.5 57.5q118 0 182 -58t50 -153l-6 -36q-14 -96 -92.5 -153.5t-196.5 -57.5zM588 1440q-6 -39 21 -63.5t79 -24.5q51 0 86.5 25t40.5 63l4 24q5 39 -22.5 63.5t-79.5 24.5t-86.5 -24.5t-40.5 -63.5zM659 1178
q218 0 336 -111.5t92 -294.5l-94 -668q-8 -57 -39.5 -88.5t-83.5 -31.5q-51 0 -76.5 30.5t-19.5 87.5l6 50q-74 -82 -183 -127t-237 -45q-167 0 -257 88t-70 233l10 68q20 138 132 220.5t278 82.5h387l12 84q15 108 -45.5 173.5t-173.5 65.5q-160 0 -268 -123
q-48 -48 -113 -28q-37 12 -56 36t-18.5 50t17.5 49q65 95 190.5 147t273.5 52zM453 168q142 0 238.5 71.5t113.5 190.5l10 76h-334q-84 0 -140 -39.5t-65 -106.5l-6 -34q-9 -72 41 -115t142 -43z" />
    <glyph glyph-name="ae" unicode="&#xe6;" horiz-adv-x="1927" 
d="M1438 1178q226 0 344.5 -135.5t87.5 -358.5l-12 -80q-8 -46 -37 -72t-76 -26h-696l-5 -35q-19 -139 49 -224t197 -85q170 0 289 131q49 49 113 29q37 -13 56 -37t18.5 -50t-17.5 -49q-67 -98 -195.5 -152t-277.5 -54q-145 0 -245 66t-138 185q-77 -118 -209.5 -184.5
t-296.5 -66.5q-180 0 -277 88t-77 233l10 68q20 138 132 220.5t278 82.5h387l12 84q15 108 -45.5 173.5t-173.5 65.5q-160 0 -268 -123q-48 -48 -113 -28q-38 12 -57 36t-18 50t18 49q63 94 189 146.5t275 52.5q134 0 226.5 -59t126.5 -163q71 105 181.5 163.5t244.5 58.5z
M1636 688q20 138 -45.5 222.5t-191.5 84.5t-215 -84.5t-109 -222.5l-2 -16h561zM457 168q139 0 236 78.5t116 206.5l8 53h-336q-84 0 -140 -39.5t-65 -106.5l-6 -34q-9 -72 42 -115t145 -43z" />
    <glyph glyph-name="ccedilla" unicode="&#xe7;" horiz-adv-x="1112" 
d="M1073 950q12 -34 -8 -74t-72 -57q-86 -27 -121 25q-75 129 -219 129q-129 0 -218.5 -81t-108.5 -214l-29 -199q-20 -132 48.5 -213.5t199.5 -81.5q70 0 138 32.5t120 92.5q52 52 125 27q46 -16 57 -55t-6 -70q-49 -94 -149.5 -151.5t-223.5 -73.5l-33 -64
q76 -19 114.5 -59.5t31.5 -95.5l-2 -15q-10 -79 -90.5 -125.5t-204.5 -46.5h-53q-38 0 -56.5 19t-15.5 53q6 38 33.5 53.5t87.5 18.5q65 3 71 49q8 41 -57 61q-37 11 -46 22t1 38l43 92q-196 25 -295.5 156t-71.5 331l29 211q29 222 192.5 358t397.5 136q138 0 243 -57.5
t148 -170.5z" />
    <glyph glyph-name="egrave" unicode="&#xe8;" horiz-adv-x="1177" 
d="M508 1475q-86 35 -41 118q23 40 57 50t74 -13l317 -188q80 -48 46 -103q-35 -59 -121 -28zM676 1178q230 0 352.5 -135.5t91.5 -358.5l-12 -80q-6 -46 -35.5 -72t-75.5 -26h-696l-4 -35q-20 -139 47.5 -224t196.5 -85q169 0 288 131q52 48 113 29q38 -13 57 -37t18 -50
t-18 -49q-68 -98 -198 -152t-287 -54q-233 0 -356.5 135t-94.5 358l29 211q31 222 192 358t392 136zM887 688q20 138 -46 222.5t-192 84.5t-214 -84.5t-107 -222.5l-2 -16h559z" />
    <glyph glyph-name="eacute" unicode="&#xe9;" horiz-adv-x="1177" 
d="M551 1311q-90 -31 -111 28q-22 57 72 103l369 188q46 23 77.5 13t42.5 -50q25 -82 -73 -118zM676 1178q230 0 352.5 -135.5t91.5 -358.5l-12 -80q-6 -46 -35.5 -72t-75.5 -26h-696l-4 -35q-20 -139 47.5 -224t196.5 -85q169 0 288 131q52 48 113 29q38 -13 57 -37t18 -50
t-18 -49q-68 -98 -198 -152t-287 -54q-233 0 -356.5 135t-94.5 358l29 211q31 222 192 358t392 136zM887 688q20 138 -46 222.5t-192 84.5t-214 -84.5t-107 -222.5l-2 -16h559z" />
    <glyph glyph-name="ecircumflex" unicode="&#xea;" horiz-adv-x="1177" 
d="M479 1309q-60 -35 -90 12q-34 51 23 96l278 221q27 21 51 21q26 0 47 -21l220 -221q42 -42 -2 -92q-44 -53 -97 -16l-192 159zM676 1178q230 0 352.5 -135.5t91.5 -358.5l-12 -80q-6 -46 -35.5 -72t-75.5 -26h-696l-4 -35q-20 -139 47.5 -224t196.5 -85q169 0 288 131
q52 48 113 29q38 -13 57 -37t18 -50t-18 -49q-68 -98 -198 -152t-287 -54q-233 0 -356.5 135t-94.5 358l29 211q31 222 192 358t392 136zM887 688q20 138 -46 222.5t-192 84.5t-214 -84.5t-107 -222.5l-2 -16h559z" />
    <glyph glyph-name="edieresis" unicode="&#xeb;" horiz-adv-x="1177" 
d="M524 1374q-106 0 -96 105l8 61q6 50 38.5 77.5t86.5 27.5q106 0 96 -105l-8 -61q-6 -50 -38.5 -77.5t-86.5 -27.5zM887 1374q-52 0 -76 27.5t-18 77.5l8 61q4 49 37.5 77t87.5 28q52 0 76 -27.5t18 -77.5l-8 -61q-5 -50 -37.5 -77.5t-87.5 -27.5zM676 1178
q230 0 352.5 -135.5t91.5 -358.5l-12 -80q-6 -46 -35.5 -72t-75.5 -26h-696l-4 -35q-20 -139 47.5 -224t196.5 -85q169 0 288 131q52 48 113 29q38 -13 57 -37t18 -50t-18 -49q-68 -98 -198 -152t-287 -54q-233 0 -356.5 135t-94.5 358l29 211q31 222 192 358t392 136z
M887 688q20 138 -46 222.5t-192 84.5t-214 -84.5t-107 -222.5l-2 -16h559z" />
    <glyph glyph-name="igrave" unicode="&#xec;" horiz-adv-x="491" 
d="M535 1348q-43 -58 -121 -17l-215 146q-78 42 -27 122q25 37 59.5 42t71.5 -23l201 -160q71 -56 31 -110zM164 -16q-57 0 -83.5 31.5t-17.5 88.5l134 949q8 59 42 90t91 31t82.5 -31t17.5 -90l-133 -949q-19 -120 -133 -120z" />
    <glyph glyph-name="iacute" unicode="&#xed;" horiz-adv-x="491" 
d="M289 1331q-92 -42 -117 17q-22 57 61 110l248 160q44 28 78 23t49 -42q27 -79 -63 -122zM164 -16q-57 0 -83.5 31.5t-17.5 88.5l134 949q8 59 42 90t91 31t82.5 -31t17.5 -90l-133 -949q-19 -120 -133 -120z" />
    <glyph glyph-name="icircumflex" unicode="&#xee;" horiz-adv-x="491" 
d="M209 1321q-62 -44 -98 4q-35 53 18 100l211 205q32 29 57 29q26 0 49 -29l152 -205q42 -45 -4 -94q-53 -53 -102 -10l-123 137zM162 -16q-57 0 -83.5 31.5t-17.5 88.5l134 949q8 59 42 90t91 31t82.5 -31t17.5 -90l-133 -949q-19 -120 -133 -120z" />
    <glyph glyph-name="idieresis" unicode="&#xef;" horiz-adv-x="491" 
d="M229 1374q-42 0 -62.5 23t-14.5 63l14 99q6 40 32 63t68 23q43 0 63.5 -23t12.5 -63l-12 -99q-6 -40 -32.5 -63t-68.5 -23zM481 1374q-42 0 -61.5 23t-13.5 63l12 99q8 40 33.5 63t66.5 23q43 0 63.5 -23t14.5 -63l-14 -99q-6 -40 -32.5 -63t-68.5 -23zM164 -16
q-57 0 -83.5 31.5t-17.5 88.5l134 949q8 59 42 90t91 31t82.5 -31t17.5 -90l-133 -949q-19 -120 -133 -120z" />
    <glyph glyph-name="eth" unicode="&#xf0;" horiz-adv-x="1224" 
d="M969 1415q116 -117 163.5 -285t18.5 -378l-27 -179l-14 -106q-32 -220 -195 -353.5t-399 -133.5q-235 0 -361 134t-94 353l23 170q31 220 176 353.5t354 133.5q206 0 314 -120q-40 196 -178 321l-355 -145q-78 -33 -106 43q-24 74 61 108l236 96q-95 42 -207 54
q-42 4 -60 31.5t-6 66.5q21 69 107 63q239 -18 403 -116l224 90q78 31 104 -43t-61 -109zM899 629q19 130 -50 210.5t-200 80.5q-132 0 -223.5 -80t-110.5 -211l-20 -154q-19 -130 50 -210.5t200 -80.5q132 0 223.5 80t110.5 211z" />
    <glyph glyph-name="ntilde" unicode="&#xf1;" horiz-adv-x="1245" 
d="M422 1401q-56 46 -4 98q112 115 229 115q51 0 129 -37t119 -37q48 0 90 29q33 19 51 22t43 -14q26 -19 27.5 -45t-23.5 -53q-110 -113 -229 -113q-52 0 -130 37t-120 37q-43 0 -94 -33q-29 -19 -46.5 -21t-41.5 15zM780 1178q194 0 296.5 -122t74.5 -321l-90 -631
q-8 -58 -41.5 -89t-89.5 -31q-57 0 -84 31.5t-19 88.5l86 596q17 124 -46 198.5t-183 74.5t-203 -74.5t-102 -198.5l-84 -596q-16 -120 -133 -120q-55 0 -82 31.5t-19 88.5l136 949q16 121 122 121q52 0 76.5 -31t18.5 -88l-4 -41q68 79 163 121.5t207 42.5z" />
    <glyph glyph-name="ograve" unicode="&#xf2;" horiz-adv-x="1202" 
d="M971 1339q-35 -59 -121 -28l-332 164q-86 35 -41 118q23 40 57 50t74 -13l318 -188q80 -47 45 -103zM518 -20q-236 0 -360 136t-95 361l27 203q29 224 194 361t402 137q236 0 360 -136.5t95 -361.5l-27 -203q-29 -223 -194 -360t-402 -137zM547 184q130 0 222 83t112 218
l26 187q19 136 -50 218.5t-200 82.5t-222.5 -82.5t-110.5 -218.5l-27 -187q-19 -135 49.5 -218t200.5 -83z" />
    <glyph glyph-name="oacute" unicode="&#xf3;" horiz-adv-x="1202" 
d="M561 1311q-89 -30 -110 28q-22 57 71 103l369 188q46 23 78 13t43 -50q12 -40 -7.5 -70.5t-66.5 -47.5zM518 -20q-236 0 -360 136t-95 361l27 203q29 224 194 361t402 137q236 0 360 -136.5t95 -361.5l-27 -203q-29 -223 -194 -360t-402 -137zM547 184q130 0 222 83
t112 218l26 187q19 136 -50 218.5t-200 82.5t-222.5 -82.5t-110.5 -218.5l-27 -187q-19 -135 49.5 -218t200.5 -83z" />
    <glyph glyph-name="ocircumflex" unicode="&#xf4;" horiz-adv-x="1202" 
d="M399 1321q-34 51 23 96l278 221q27 21 52 21q26 0 47 -21l219 -221q42 -42 -2 -92q-44 -53 -96 -16l-193 159l-238 -159q-60 -35 -90 12zM518 -20q-236 0 -360 136t-95 361l27 203q29 224 194 361t402 137q236 0 360 -136.5t95 -361.5l-27 -203q-29 -223 -194 -360
t-402 -137zM547 184q130 0 222 83t112 218l26 187q19 136 -50 218.5t-200 82.5t-222.5 -82.5t-110.5 -218.5l-27 -187q-19 -135 49.5 -218t200.5 -83z" />
    <glyph glyph-name="otilde" unicode="&#xf5;" horiz-adv-x="1202" 
d="M487 1407q-29 -19 -46.5 -21t-41.5 15q-56 46 -4 98q112 115 230 115q51 0 128 -37t119 -37q49 0 91 29q33 19 51 22t43 -14q26 -19 27.5 -45t-23.5 -53q-110 -113 -230 -113q-51 0 -129 37t-120 37q-44 0 -95 -33zM518 -20q-236 0 -360 136t-95 361l27 203
q29 224 194 361t402 137q236 0 360 -136.5t95 -361.5l-27 -203q-29 -223 -194 -360t-402 -137zM547 184q130 0 222 83t112 218l26 187q19 136 -50 218.5t-200 82.5t-222.5 -82.5t-110.5 -218.5l-27 -187q-19 -135 49.5 -218t200.5 -83z" />
    <glyph glyph-name="odieresis" unicode="&#xf6;" horiz-adv-x="1202" 
d="M532 1374q-106 0 -96 105l8 61q6 50 38.5 77.5t86.5 27.5q53 0 77.5 -27.5t19.5 -77.5l-9 -61q-6 -50 -38.5 -77.5t-86.5 -27.5zM895 1374q-52 0 -76 27.5t-18 77.5l8 61q4 49 37.5 77t87.5 28q52 0 76 -27.5t18 -77.5l-8 -61q-5 -50 -37.5 -77.5t-87.5 -27.5zM518 -20
q-236 0 -360 136t-95 361l27 203q29 224 194 361t402 137q236 0 360 -136.5t95 -361.5l-27 -203q-29 -223 -194 -360t-402 -137zM547 184q130 0 222 83t112 218l26 187q19 136 -50 218.5t-200 82.5t-222.5 -82.5t-110.5 -218.5l-27 -187q-19 -135 49.5 -218t200.5 -83z" />
    <glyph glyph-name="divide" unicode="&#xf7;" horiz-adv-x="1155" 
d="M616 850q-56 0 -83 24t-21 68l8 57q6 44 40 67.5t91 23.5q56 0 82.5 -23.5t20.5 -67.5l-9 -57q-12 -92 -129 -92zM156 496q-45 0 -67.5 27.5t-16.5 72.5q12 86 110 86h822q47 0 70.5 -27.5t15.5 -72.5q-12 -86 -111 -86h-823zM510 90q-55 0 -82.5 23.5t-21.5 66.5l8 58
q15 90 131 90q56 0 82.5 -23t19.5 -67l-8 -58q-13 -90 -129 -90z" />
    <glyph glyph-name="oslash" unicode="&#xf8;" horiz-adv-x="1210" 
d="M1139 1044l-49 -53q79 -129 55 -311l-27 -203q-29 -223 -194 -360t-402 -137q-175 0 -293 79l-41 -45q-59 -65 -118 -18q-58 52 4 117l49 53q-79 129 -55 311l26 203q29 224 194 361t402 137q172 0 293 -78l39 43q30 33 61.5 37.5t59.5 -19.5q58 -52 -4 -117zM301 485
q-9 -65 4 -120l518 561q-65 47 -161 47q-131 0 -223 -82.5t-111 -218.5zM911 672q9 65 -4 123l-518 -564q62 -47 162 -47q130 0 222 83t112 218z" />
    <glyph glyph-name="ugrave" unicode="&#xf9;" horiz-adv-x="1224" 
d="M530 1475q-86 35 -41 118q23 40 57.5 50t74.5 -13l317 -188q80 -47 45 -103q-35 -59 -121 -28zM1063 1174q57 0 82.5 -31t17.5 -90l-133 -949q-19 -120 -123 -120q-52 0 -77 30.5t-19 87.5l4 35q-141 -157 -358 -157q-191 0 -292 118.5t-73 313.5l92 641q7 58 41 89.5
t90 31.5q57 0 83.5 -31.5t19.5 -89.5l-86 -607q-17 -118 43 -190t176 -72q114 0 195 70.5t98 187.5v4l86 607q8 59 42 90t91 31z" />
    <glyph glyph-name="uacute" unicode="&#xfa;" horiz-adv-x="1224" 
d="M573 1311q-89 -30 -110 28q-22 57 72 103l368 188q46 23 78 13t43 -50q12 -40 -7.5 -70.5t-66.5 -47.5zM1063 1174q57 0 82.5 -31t17.5 -90l-133 -949q-19 -120 -123 -120q-52 0 -77 30.5t-19 87.5l4 35q-141 -157 -358 -157q-191 0 -292 118.5t-73 313.5l92 641
q7 58 41 89.5t90 31.5q57 0 83.5 -31.5t19.5 -89.5l-86 -607q-17 -118 43 -190t176 -72q114 0 195 70.5t98 187.5v4l86 607q8 59 42 90t91 31z" />
    <glyph glyph-name="ucircumflex" unicode="&#xfb;" horiz-adv-x="1224" 
d="M504 1309q-60 -35 -90 12q-34 52 22 96l279 221q27 21 51 21q26 0 47 -21l219 -221q42 -42 -2 -92q-44 -53 -96 -16l-193 159zM1063 1174q57 0 82.5 -31t17.5 -90l-133 -949q-19 -120 -123 -120q-52 0 -77 30.5t-19 87.5l4 35q-141 -157 -358 -157q-191 0 -292 118.5
t-73 313.5l92 641q7 58 41 89.5t90 31.5q57 0 83.5 -31.5t19.5 -89.5l-86 -607q-17 -118 43 -190t176 -72q114 0 195 70.5t98 187.5v4l86 607q8 59 42 90t91 31z" />
    <glyph glyph-name="udieresis" unicode="&#xfc;" horiz-adv-x="1224" 
d="M547 1374q-106 0 -96 105l8 61q6 50 38.5 77.5t86.5 27.5q106 0 96 -105l-8 -61q-6 -50 -38.5 -77.5t-86.5 -27.5zM909 1374q-52 0 -76 27.5t-18 77.5l8 61q4 49 37.5 77t87.5 28q52 0 76 -27.5t18 -77.5l-8 -61q-5 -50 -37.5 -77.5t-87.5 -27.5zM1063 1174
q57 0 82.5 -31t17.5 -90l-133 -949q-19 -120 -123 -120q-52 0 -77 30.5t-19 87.5l4 35q-141 -157 -358 -157q-191 0 -292 118.5t-73 313.5l92 641q7 58 41 89.5t90 31.5q57 0 83.5 -31.5t19.5 -89.5l-86 -607q-17 -118 43 -190t176 -72q114 0 195 70.5t98 187.5v4l86 607
q8 59 42 90t91 31z" />
    <glyph glyph-name="yacute" unicode="&#xfd;" horiz-adv-x="1103" 
d="M510 1311q-90 -31 -111 28q-22 57 72 103l369 188q46 23 78 13t43 -50q12 -40 -7.5 -70.5t-66.5 -47.5zM1051 1165q50 -18 64 -56.5t-13 -94.5l-570 -1120q-75 -152 -199.5 -241t-273.5 -89q-45 0 -66.5 26t-15.5 72q4 43 29 65.5t66 22.5q67 0 129 42t98 110l61 121
l-239 1007q-27 112 86 137q124 29 145 -80l168 -794l377 792q52 116 154 80z" />
    <glyph glyph-name="thorn" unicode="&#xfe;" horiz-adv-x="1257" 
d="M801 1178q207 0 314 -131.5t79 -350.5l-31 -235q-29 -216 -175.5 -348.5t-354.5 -132.5q-111 0 -196.5 42t-135.5 119l-63 -456q-9 -58 -43.5 -89.5t-92.5 -31.5q-55 0 -81 32t-17 89l258 1839q8 57 42 89t91 32t83 -32t18 -89l-72 -508q149 162 377 162zM958 674
q19 135 -49 217t-200 82q-131 0 -222.5 -82t-111.5 -217l-27 -189q-19 -136 50 -218.5t200 -82.5t223 82.5t111 218.5z" />
    <glyph glyph-name="ydieresis" unicode="&#xff;" horiz-adv-x="1103" 
d="M483 1374q-106 0 -96 105l8 61q6 50 38.5 77.5t86.5 27.5q106 0 96 -105l-8 -61q-6 -50 -38.5 -77.5t-86.5 -27.5zM846 1374q-52 0 -76 27.5t-18 77.5l8 61q4 49 37.5 77t87.5 28q52 0 76 -27.5t18 -77.5l-8 -61q-5 -50 -37.5 -77.5t-87.5 -27.5zM1051 1165
q50 -18 64 -56.5t-13 -94.5l-570 -1120q-75 -152 -199.5 -241t-273.5 -89q-45 0 -66.5 26t-15.5 72q4 43 29 65.5t66 22.5q67 0 129 42t98 110l61 121l-239 1007q-27 112 86 137q124 29 145 -80l168 -794l377 792q52 116 154 80z" />
    <glyph glyph-name="Amacron" unicode="&#x100;" horiz-adv-x="1482" 
d="M666 1784q-42 0 -62.5 24t-15.5 66q9 80 100 80h492q41 0 61.5 -24t15.5 -64q-12 -82 -102 -82h-489zM1364 141q10 -64 -13.5 -101t-82.5 -52q-58 -13 -98.5 14t-49.5 84l-55 281h-705l-141 -295q-50 -115 -162 -80q-108 36 -55 151l655 1354q31 68 88.5 104.5
t133.5 36.5h26q75 0 124 -43t61 -112zM461 578h563l-164 831z" />
    <glyph glyph-name="amacron" unicode="&#x101;" horiz-adv-x="1177" 
d="M481 1415q-42 0 -61.5 24t-13.5 66q9 80 100 80h430q43 0 63.5 -24.5t14.5 -65.5q-12 -80 -103 -80h-430zM659 1178q218 0 336 -111.5t92 -294.5l-94 -668q-8 -57 -39.5 -88.5t-83.5 -31.5q-51 0 -76.5 30.5t-19.5 87.5l6 50q-74 -82 -183 -127t-237 -45q-167 0 -257 88
t-70 233l10 68q20 138 132 220.5t278 82.5h387l12 84q15 108 -45.5 173.5t-173.5 65.5q-160 0 -268 -123q-48 -48 -113 -28q-37 12 -56 36t-18.5 50t17.5 49q65 95 190.5 147t273.5 52zM453 168q142 0 238.5 71.5t113.5 190.5l10 76h-334q-84 0 -140 -39.5t-65 -106.5
l-6 -34q-9 -72 41 -115t142 -43z" />
    <glyph glyph-name="Abreve" unicode="&#x102;" horiz-adv-x="1482" 
d="M901 1714q-128 0 -204 69.5t-87 188.5q-4 41 22.5 68.5t69.5 27.5q27 0 45.5 -15.5t24.5 -41.5q20 -131 152 -131q138 0 190 131q28 57 84 57q43 0 63 -27.5t5 -68.5q-40 -118 -138 -188t-227 -70zM1364 141q10 -64 -13.5 -101t-82.5 -52q-58 -13 -98.5 14t-49.5 84
l-55 281h-705l-141 -295q-50 -115 -162 -80q-108 36 -55 151l655 1354q31 68 88.5 104.5t133.5 36.5h26q75 0 124 -43t61 -112zM461 578h563l-164 831z" />
    <glyph glyph-name="abreve" unicode="&#x103;" horiz-adv-x="1177" 
d="M680 1294q-130 0 -208 70t-83 188q-3 41 23 69t69 28q27 0 45.5 -16t24.5 -42q20 -131 154 -131q127 0 188 131q12 26 34.5 42t49.5 16q44 0 62.5 -27.5t4.5 -69.5q-40 -118 -137.5 -188t-226.5 -70zM659 1178q218 0 336 -111.5t92 -294.5l-94 -668q-8 -57 -39.5 -88.5
t-83.5 -31.5q-51 0 -76.5 30.5t-19.5 87.5l6 50q-74 -82 -183 -127t-237 -45q-167 0 -257 88t-70 233l10 68q20 138 132 220.5t278 82.5h387l12 84q15 108 -45.5 173.5t-173.5 65.5q-160 0 -268 -123q-48 -48 -113 -28q-37 12 -56 36t-18.5 50t17.5 49q65 95 190.5 147
t273.5 52zM453 168q142 0 238.5 71.5t113.5 190.5l10 76h-334q-84 0 -140 -39.5t-65 -106.5l-6 -34q-9 -72 41 -115t142 -43z" />
    <glyph glyph-name="Aogonek" unicode="&#x104;" horiz-adv-x="1482" 
d="M1296 -227q47 -19 39 -88q-15 -115 -151 -115h-23q-115 0 -177 54.5t-50 144.5l2 16q7 62 60 129t137 123q-9 22 -11 37l-57 293h-705l-141 -295q-50 -115 -162 -80q-108 36 -55 151l655 1354q31 68 88.5 104.5t133.5 36.5h26q75 0 124 -43t61 -112l272 -1340
q19 -94 -62 -137q-114 -86 -120 -149l-2 -11q-3 -52 79 -65zM461 578h563l-164 831z" />
    <glyph glyph-name="aogonek" unicode="&#x105;" horiz-adv-x="1177" 
d="M659 1178q218 0 336 -111.5t92 -294.5l-94 -668q-9 -72 -55 -102q-1 0 -2 -1t-2 -1l-4 -2q-65 -37 -105.5 -79t-44.5 -79v-8q-8 -61 76 -86q55 -12 73 -29.5t15 -56.5q-9 -96 -158 -96h-12q-115 0 -178.5 59.5t-52.5 151.5l2 8q9 74 71.5 142t163.5 116q-9 24 -6 61l6 50
q-74 -82 -183 -127t-237 -45q-167 0 -257 88t-70 233l10 68q20 138 132 220.5t278 82.5h387l12 84q15 108 -45.5 173.5t-173.5 65.5q-160 0 -268 -123q-48 -48 -113 -28q-37 12 -56 36t-18.5 50t17.5 49q65 95 190.5 147t273.5 52zM453 168q142 0 238.5 71.5t113.5 190.5
l10 76h-334q-84 0 -140 -39.5t-65 -106.5l-6 -34q-9 -72 41 -115t142 -43z" />
    <glyph glyph-name="Cacute" unicode="&#x106;" horiz-adv-x="1402" 
d="M772 1733q-94 -24 -106 39q-12 60 82 96l385 135q98 37 114 -49q12 -92 -84 -113zM676 -20q-299 0 -457.5 171.5t-118.5 454.5l56 406q40 287 247 462t504 175q181 0 318.5 -81t191.5 -220q15 -40 -4.5 -87t-73.5 -67q-94 -32 -143 35q-55 100 -138 151.5t-181 51.5
q-188 0 -319 -119.5t-159 -315.5l-53 -379q-26 -189 73 -305t288 -116q113 0 214 56t171 150q64 74 147 39q34 -15 50 -40.5t14.5 -50t-13.5 -44.5q-93 -158 -256.5 -242.5t-357.5 -84.5z" />
    <glyph glyph-name="cacute" unicode="&#x107;" horiz-adv-x="1112" 
d="M557 1311q-90 -31 -111 28q-22 57 72 103l369 188q46 23 78 13t43 -50q12 -40 -7.5 -70.5t-66.5 -47.5zM516 -20q-235 0 -359.5 135t-93.5 358l29 211q29 222 192.5 358t397.5 136q138 0 243 -57.5t148 -170.5q12 -34 -8 -74t-72 -57q-86 -27 -121 25q-75 129 -219 129
q-129 0 -218.5 -81t-108.5 -214l-29 -199q-20 -132 48.5 -213.5t199.5 -81.5q70 0 138 32.5t120 92.5q52 52 125 27q46 -16 57 -55t-6 -70q-57 -113 -186 -172t-277 -59z" />
    <glyph glyph-name="Cdotaccent" unicode="&#x10a;" horiz-adv-x="1402" 
d="M920 1743q-64 0 -94.5 27t-24.5 77l8 62q6 50 44.5 77t102.5 27t94.5 -27t24.5 -77l-8 -62q-6 -50 -44.5 -77t-102.5 -27zM676 -20q-299 0 -457.5 171.5t-118.5 454.5l56 406q40 287 247 462t504 175q181 0 318.5 -81t191.5 -220q15 -40 -4.5 -87t-73.5 -67
q-94 -32 -143 35q-55 100 -138 151.5t-181 51.5q-188 0 -319 -119.5t-159 -315.5l-53 -379q-26 -189 73 -305t288 -116q113 0 214 56t171 150q64 74 147 39q34 -15 50 -40.5t14.5 -50t-13.5 -44.5q-93 -158 -256.5 -242.5t-357.5 -84.5z" />
    <glyph glyph-name="cdotaccent" unicode="&#x10b;" horiz-adv-x="1112" 
d="M711 1374q-56 0 -82.5 27.5t-20.5 73.5l8 67q16 103 132 103q55 0 81.5 -28.5t20.5 -74.5l-8 -67q-8 -48 -41.5 -74.5t-89.5 -26.5zM516 -20q-235 0 -359.5 135t-93.5 358l29 211q29 222 192.5 358t397.5 136q138 0 243 -57.5t148 -170.5q12 -34 -8 -74t-72 -57
q-86 -27 -121 25q-75 129 -219 129q-129 0 -218.5 -81t-108.5 -214l-29 -199q-20 -132 48.5 -213.5t199.5 -81.5q70 0 138 32.5t120 92.5q52 52 125 27q46 -16 57 -55t-6 -70q-57 -113 -186 -172t-277 -59z" />
    <glyph glyph-name="Ccaron" unicode="&#x10c;" horiz-adv-x="1402" 
d="M913 1692q-27 0 -47 20l-215 221q-42 45 4 97q42 48 93 12l194 -160l238 160q62 36 92 -17q27 -50 -27 -92l-278 -221q-29 -20 -54 -20zM676 -20q-299 0 -457.5 171.5t-118.5 454.5l56 406q40 287 247 462t504 175q181 0 318.5 -81t191.5 -220q15 -40 -4.5 -87t-73.5 -67
q-94 -32 -143 35q-55 100 -138 151.5t-181 51.5q-188 0 -319 -119.5t-159 -315.5l-53 -379q-26 -189 73 -305t288 -116q113 0 214 56t171 150q64 74 147 39q34 -15 50 -40.5t14.5 -50t-13.5 -44.5q-93 -158 -256.5 -242.5t-357.5 -84.5z" />
    <glyph glyph-name="ccaron" unicode="&#x10d;" horiz-adv-x="1112" 
d="M696 1282q-26 0 -47 21l-215 221q-44 44 2 96q42 48 94 12l195 -157l238 157q60 35 90 -14q29 -48 -25 -94l-280 -221q-28 -21 -52 -21zM516 -20q-235 0 -359.5 135t-93.5 358l29 211q29 222 192.5 358t397.5 136q138 0 243 -57.5t148 -170.5q12 -34 -8 -74t-72 -57
q-86 -27 -121 25q-75 129 -219 129q-129 0 -218.5 -81t-108.5 -214l-29 -199q-20 -132 48.5 -213.5t199.5 -81.5q70 0 138 32.5t120 92.5q52 52 125 27q46 -16 57 -55t-6 -70q-57 -113 -186 -172t-277 -59z" />
    <glyph glyph-name="Dcaron" unicode="&#x10e;" horiz-adv-x="1488" 
d="M913 1692q-27 0 -47 20l-215 221q-42 45 4 97q42 48 93 12l194 -160l238 160q62 36 92 -17q27 -50 -27 -92l-278 -221q-29 -20 -54 -20zM182 0q-54 0 -78 28t-16 81l197 1411q7 52 39.5 80t85.5 28h481q293 0 448 -173t115 -454l-51 -374q-40 -281 -243.5 -454
t-495.5 -173h-482zM344 211h334q189 0 321 118t160 312l49 346q28 193 -71.5 311.5t-288.5 118.5h-334z" />
    <glyph glyph-name="dcaron" unicode="&#x10f;" horiz-adv-x="1374" 
d="M1542 1645q41 -9 54.5 -40.5t-5.5 -78.5l-129 -332q-37 -87 -102 -74q-64 13 -37 103l98 340q12 47 46 70t75 12zM1161 1645q57 0 83 -32t18 -89l-201 -1420q-16 -120 -121 -120q-52 0 -77 30.5t-19 87.5l8 62q-71 -88 -172.5 -136t-222.5 -48q-207 0 -314.5 132
t-79.5 349l31 235q29 217 176 349.5t355 132.5q226 0 331 -162l72 508q8 57 42 89t91 32zM549 184q131 0 222.5 82.5t111.5 218.5l26 189q19 135 -50 217t-200 82t-222.5 -82t-110.5 -217l-27 -189q-19 -136 49.5 -218.5t200.5 -82.5z" />
    <glyph glyph-name="Dcroat" unicode="&#x110;" horiz-adv-x="1515" 
d="M915 1628q293 0 448.5 -173t115.5 -454l-52 -374q-40 -281 -243.5 -454t-495.5 -173h-481q-54 0 -78 28t-16 81l86 624h-41q-46 0 -68 26t-16 72q12 91 110 91h41l84 598q7 52 39.5 80t85.5 28h481zM1233 987q28 193 -72 311.5t-289 118.5h-333l-70 -495h266
q47 0 68.5 -26.5t15.5 -72.5q-12 -90 -110 -90h-267l-73 -522h333q189 0 321.5 118.5t160.5 311.5z" />
    <glyph glyph-name="dcroat" unicode="&#x111;" horiz-adv-x="1257" 
d="M1270 1497q47 0 69.5 -25.5t16.5 -68.5q-12 -82 -111 -82h-12l-172 -1217q-16 -120 -121 -120q-52 0 -77 30.5t-19 87.5l8 62q-71 -88 -172.5 -136t-222.5 -48q-207 0 -314.5 132t-79.5 349l31 235q29 217 176 349.5t355 132.5q226 0 331 -162l43 305h-280
q-45 0 -68.5 25t-17.5 67q12 84 110 84h281l4 27q8 57 42 89t91 32t83 -32t18 -89l-5 -27h13zM549 184q131 0 222.5 82.5t111.5 218.5l26 189q19 135 -50 217t-200 82t-222.5 -82t-110.5 -217l-27 -189q-19 -136 49.5 -218.5t200.5 -82.5z" />
    <glyph glyph-name="Emacron" unicode="&#x112;" horiz-adv-x="1337" 
d="M623 1784q-42 0 -62.5 24t-15.5 66q9 80 100 80h492q41 0 61.5 -24t15.5 -64q-12 -82 -102 -82h-489zM1280 1628q53 0 77.5 -30t16.5 -82q-11 -99 -123 -99h-737l-68 -481h697q52 0 77 -31t17 -84q-12 -98 -125 -98h-694l-72 -512h756q52 0 77 -30t17 -83
q-12 -98 -123 -98h-891q-54 0 -78 28t-16 81l197 1411q7 52 39.5 80t85.5 28h870z" />
    <glyph glyph-name="emacron" unicode="&#x113;" horiz-adv-x="1177" 
d="M494 1415q-42 0 -62 24t-14 66q9 80 100 80h430q43 0 63.5 -24.5t14.5 -65.5q-12 -80 -102 -80h-430zM676 1178q230 0 352.5 -135.5t91.5 -358.5l-12 -80q-6 -46 -35.5 -72t-75.5 -26h-696l-4 -35q-20 -139 47.5 -224t196.5 -85q169 0 288 131q52 48 113 29
q38 -13 57 -37t18 -50t-18 -49q-68 -98 -198 -152t-287 -54q-233 0 -356.5 135t-94.5 358l29 211q31 222 192 358t392 136zM887 688q20 138 -46 222.5t-192 84.5t-214 -84.5t-107 -222.5l-2 -16h559z" />
    <glyph glyph-name="Edotaccent" unicode="&#x116;" horiz-adv-x="1337" 
d="M860 1743q-64 0 -94.5 27t-24.5 77l9 62q6 50 44.5 77t102.5 27t94.5 -27t24.5 -77l-8 -62q-6 -50 -45 -77t-103 -27zM1280 1628q53 0 77.5 -30t16.5 -82q-11 -99 -123 -99h-737l-68 -481h697q52 0 77 -31t17 -84q-12 -98 -125 -98h-694l-72 -512h756q52 0 77 -30t17 -83
q-12 -98 -123 -98h-891q-54 0 -78 28t-16 81l197 1411q7 52 39.5 80t85.5 28h870z" />
    <glyph glyph-name="edotaccent" unicode="&#x117;" horiz-adv-x="1177" 
d="M705 1374q-56 0 -82.5 27.5t-20.5 73.5l8 67q16 103 131 103q55 0 82 -28.5t21 -74.5l-8 -67q-8 -48 -41.5 -74.5t-89.5 -26.5zM676 1178q230 0 352.5 -135.5t91.5 -358.5l-12 -80q-6 -46 -35.5 -72t-75.5 -26h-696l-4 -35q-20 -139 47.5 -224t196.5 -85q169 0 288 131
q52 48 113 29q38 -13 57 -37t18 -50t-18 -49q-68 -98 -198 -152t-287 -54q-233 0 -356.5 135t-94.5 358l29 211q31 222 192 358t392 136zM887 688q20 138 -46 222.5t-192 84.5t-214 -84.5t-107 -222.5l-2 -16h559z" />
    <glyph glyph-name="Eogonek" unicode="&#x118;" horiz-adv-x="1337" 
d="M1280 1628q53 0 77.5 -30t16.5 -82q-11 -99 -123 -99h-737l-68 -481h697q52 0 77 -31t17 -84q-12 -98 -125 -98h-694l-72 -512h756q53 0 77 -27t17 -78q-9 -63 -53 -90q-153 -105 -158 -163l-2 -11q-3 -49 86 -65h27q55 -19 47 -92q-15 -115 -154 -115h-20
q-115 0 -174 54.5t-54 148.5v12q3 111 158 215h-717q-54 0 -78 28t-16 81l197 1411q7 52 39.5 80t85.5 28h870z" />
    <glyph glyph-name="eogonek" unicode="&#x119;" horiz-adv-x="1177" 
d="M676 1178q230 0 352.5 -135.5t91.5 -358.5l-12 -80q-6 -46 -35.5 -72t-75.5 -26h-696l-4 -35q-20 -139 47.5 -224t196.5 -85q169 0 288 131q52 48 113 29q38 -13 57 -37t18 -50t-18 -49q-92 -133 -288 -182q-83 -35 -137 -80.5t-58 -85.5l-2 -6q-9 -59 76 -86
q56 -12 74.5 -30t15.5 -58q-12 -94 -160 -94h-12q-115 0 -178 59.5t-51 151.5v8q15 108 151 201q-194 25 -293.5 157t-73.5 332l29 211q31 222 192 358t392 136zM887 688q20 138 -46 222.5t-192 84.5t-214 -84.5t-107 -222.5l-2 -16h559z" />
    <glyph glyph-name="Ecaron" unicode="&#x11a;" horiz-adv-x="1337" 
d="M807 1712l-215 221q-42 45 4 97q41 47 92 12l195 -160l237 160q62 36 92 -17q27 -50 -26 -92l-279 -221q-29 -20 -53 -20q-27 0 -47 20zM1280 1628q53 0 77.5 -30t16.5 -82q-11 -99 -123 -99h-737l-68 -481h697q52 0 77 -31t17 -84q-12 -98 -125 -98h-694l-72 -512h756
q52 0 77 -30t17 -83q-12 -98 -123 -98h-891q-54 0 -78 28t-16 81l197 1411q7 52 39.5 80t85.5 28h870z" />
    <glyph glyph-name="ecaron" unicode="&#x11b;" horiz-adv-x="1177" 
d="M641 1303l-215 221q-44 44 2 96q42 48 94 12l195 -157l237 157q60 35 90 -14t-24 -94l-281 -221q-28 -21 -51 -21q-26 0 -47 21zM676 1178q230 0 352.5 -135.5t91.5 -358.5l-12 -80q-6 -46 -35.5 -72t-75.5 -26h-696l-4 -35q-20 -139 47.5 -224t196.5 -85q169 0 288 131
q52 48 113 29q38 -13 57 -37t18 -50t-18 -49q-68 -98 -198 -152t-287 -54q-233 0 -356.5 135t-94.5 358l29 211q31 222 192 358t392 136zM887 688q20 138 -46 222.5t-192 84.5t-214 -84.5t-107 -222.5l-2 -16h559z" />
    <glyph glyph-name="Gbreve" unicode="&#x11e;" horiz-adv-x="1490" 
d="M918 1714q-128 0 -204 69.5t-87 188.5q-4 41 22.5 68.5t69.5 27.5q55 0 69 -57q20 -131 152 -131q138 0 190 131q28 57 84 57q43 0 63 -27.5t5 -68.5q-40 -118 -137.5 -188t-226.5 -70zM1343 936q110 0 95 -111l-31 -225q-38 -279 -241.5 -449.5t-497.5 -170.5
q-295 0 -451.5 172t-116.5 454l56 406q40 287 247 462t504 175q183 0 323 -80.5t187 -214.5q23 -47 2 -93t-78 -67q-92 -31 -141 35q-54 99 -139 151t-184 52q-188 0 -319 -119.5t-159 -315.5l-53 -379q-26 -189 71 -305t281 -116q188 0 313.5 113.5t151.5 303.5l15 109
h-347q-52 0 -76 31t-18 84q14 98 125 98h481z" />
    <glyph glyph-name="gbreve" unicode="&#x11f;" horiz-adv-x="1259" 
d="M707 1294q-130 0 -208 70t-83 188q-3 41 23 69t69 28q27 0 45.5 -16t24.5 -42q20 -131 153 -131q128 0 189 131q12 26 34.5 42t49.5 16q44 0 62.5 -27.5t4.5 -69.5q-40 -118 -137.5 -188t-226.5 -70zM1108 1174q51 0 74 -31.5t16 -89.5l-145 -1030q-29 -207 -198.5 -335
t-416.5 -128q-296 0 -381 166q-23 31 -6.5 76.5t70.5 70.5q37 15 61.5 10.5t38.5 -20.5q90 -115 244 -115q148 0 250 80t121 209l22 162q-73 -86 -173.5 -132.5t-219.5 -46.5q-208 0 -315.5 129.5t-79.5 342.5l28 217q28 211 174.5 340t354.5 129q241 0 346 -179l8 56
q22 119 127 119zM555 225q132 0 223 78t111 209v2l22 170q17 131 -51 210t-198 79q-131 0 -223 -79.5t-109 -209.5l-25 -170q-17 -131 51.5 -210t198.5 -79z" />
    <glyph glyph-name="Gdotaccent" unicode="&#x120;" horiz-adv-x="1490" 
d="M920 1743q-64 0 -94.5 27t-24.5 77l8 62q6 50 44.5 77t102.5 27t94.5 -27t24.5 -77l-8 -62q-6 -50 -44.5 -77t-102.5 -27zM1343 936q110 0 95 -111l-31 -225q-38 -279 -241.5 -449.5t-497.5 -170.5q-295 0 -451.5 172t-116.5 454l56 406q40 287 247 462t504 175
q183 0 323 -80.5t187 -214.5q23 -47 2 -93t-78 -67q-92 -31 -141 35q-54 99 -139 151t-184 52q-188 0 -319 -119.5t-159 -315.5l-53 -379q-26 -189 71 -305t281 -116q188 0 313.5 113.5t151.5 303.5l15 109h-347q-52 0 -76 31t-18 84q14 98 125 98h481z" />
    <glyph glyph-name="gdotaccent" unicode="&#x121;" horiz-adv-x="1259" 
d="M719 1374q-56 0 -82.5 27.5t-20.5 73.5l9 67q16 103 131 103q55 0 81.5 -28.5t20.5 -74.5l-8 -67q-8 -48 -41.5 -74.5t-89.5 -26.5zM1108 1174q51 0 74 -31.5t16 -89.5l-145 -1030q-29 -207 -198.5 -335t-416.5 -128q-296 0 -381 166q-23 31 -6.5 76.5t70.5 70.5
q37 15 61.5 10.5t38.5 -20.5q90 -115 244 -115q148 0 250 80t121 209l22 162q-73 -86 -173.5 -132.5t-219.5 -46.5q-208 0 -315.5 129.5t-79.5 342.5l28 217q28 211 174.5 340t354.5 129q241 0 346 -179l8 56q22 119 127 119zM555 225q132 0 223 78t111 209v2l22 170
q17 131 -51 210t-198 79q-131 0 -223 -79.5t-109 -209.5l-25 -170q-17 -131 51.5 -210t198.5 -79z" />
    <glyph glyph-name="Gcommaaccent" unicode="&#x122;" horiz-adv-x="1490" 
d="M1343 936q110 0 95 -111l-31 -225q-38 -279 -241.5 -449.5t-497.5 -170.5q-295 0 -451.5 172t-116.5 454l56 406q40 287 247 462t504 175q183 0 323 -80.5t187 -214.5q23 -47 2 -93t-78 -67q-92 -31 -141 35q-54 99 -139 151t-184 52q-188 0 -319 -119.5t-159 -315.5
l-53 -379q-26 -189 71 -305t281 -116q188 0 313.5 113.5t151.5 303.5l15 109h-347q-52 0 -76 31t-18 84q14 98 125 98h481zM719 -84q92 -37 26 -127l-88 -166q-29 -41 -58.5 -55t-66.5 0q-79 28 -36 113l75 159q58 112 148 76z" />
    <glyph glyph-name="gcommaaccent" unicode="&#x123;" horiz-adv-x="1259" 
d="M666 1270q-53 18 -58.5 54t29.5 85l92 174q29 42 55 56.5t62 0.5q39 -13 46.5 -40.5t-13.5 -71.5l-78 -182q-24 -54 -54 -72.5t-81 -3.5zM1108 1174q51 0 74 -31.5t16 -89.5l-145 -1030q-29 -207 -198.5 -335t-416.5 -128q-296 0 -381 166q-23 31 -6.5 76.5t70.5 70.5
q37 15 61.5 10.5t38.5 -20.5q90 -115 244 -115q148 0 250 80t121 209l22 162q-73 -86 -173.5 -132.5t-219.5 -46.5q-208 0 -315.5 129.5t-79.5 342.5l28 217q28 211 174.5 340t354.5 129q241 0 346 -179l8 56q22 119 127 119zM555 225q132 0 223 78t111 209v2l22 170
q17 131 -51 210t-198 79q-131 0 -223 -79.5t-109 -209.5l-25 -170q-17 -131 51.5 -210t198.5 -79z" />
    <glyph glyph-name="Hbar" unicode="&#x126;" horiz-adv-x="1562" 
d="M1540 1393q45 0 67.5 -27.5t16.5 -73.5q-12 -88 -113 -88h-43l-153 -1098q-19 -122 -139 -122q-59 0 -86.5 32t-18.5 90l86 617h-708l-87 -617q-9 -59 -45 -90.5t-94 -31.5q-60 0 -86.5 31.5t-17.5 90.5l153 1098h-47q-45 0 -67.5 27t-16.5 72q12 90 113 90h45l18 129
q8 59 44 91t94 32q59 0 86.5 -32t19.5 -91l-18 -129h708l19 129q8 59 43.5 91t95.5 32q58 0 85.5 -32t18.5 -91l-18 -129h45zM1188 936l37 268h-709l-37 -268h709z" />
    <glyph glyph-name="hbar" unicode="&#x127;" horiz-adv-x="1245" 
d="M780 1178q194 0 296.5 -122t74.5 -321l-90 -631q-8 -58 -41.5 -89t-89.5 -31q-57 0 -84 31.5t-19 88.5l86 596q17 124 -46 198.5t-183 74.5t-203 -74.5t-102 -198.5l-84 -596q-16 -120 -133 -120q-55 0 -82 31.5t-19 88.5l172 1217h-12q-45 0 -68.5 25t-17.5 67
q12 84 111 84h12l4 27q8 57 42 89t91 32t83 -32t18 -89l-4 -27h280q47 0 69.5 -25.5t16.5 -68.5q-12 -82 -110 -82h-281l-41 -289q143 146 354 146z" />
    <glyph glyph-name="Imacron" unicode="&#x12a;" horiz-adv-x="550" 
d="M303 1784q-42 0 -62.5 24t-15.5 66q4 39 31 59.5t70 20.5h282q42 0 63 -24t15 -64q-9 -82 -100 -82h-283zM190 -16q-121 0 -106 120l201 1418q8 59 43.5 91t93.5 32q59 0 86.5 -32t19.5 -91l-200 -1418q-7 -58 -43 -89t-95 -31z" />
    <glyph glyph-name="imacron" unicode="&#x12b;" horiz-adv-x="491" 
d="M223 1415q-43 0 -63.5 24.5t-14.5 65.5q12 80 103 80h280q41 0 62 -24.5t16 -65.5q-12 -80 -102 -80h-281zM164 -16q-57 0 -83.5 31.5t-17.5 88.5l134 949q8 59 42 90t91 31t82.5 -31t17.5 -90l-133 -949q-19 -120 -133 -120z" />
    <glyph glyph-name="Iogonek" unicode="&#x12e;" horiz-adv-x="550" 
d="M424 1645q59 0 86.5 -32t19.5 -91l-200 -1418q-9 -67 -54 -98q-113 -85 -122 -164l-2 -6q-4 -30 18.5 -53t65.5 -37q29 -14 40 -33t7 -53q-11 -96 -154 -96q-109 0 -167 59.5t-46 151.5v8q7 62 56.5 123t129.5 112q-22 28 -16 86l201 1418q8 59 43.5 91t93.5 32z" />
    <glyph glyph-name="iogonek" unicode="&#x12f;" horiz-adv-x="491" 
d="M397 1645q55 0 82 -28.5t21 -74.5l-8 -67q-8 -48 -42 -74.5t-90 -26.5t-82 27.5t-20 73.5l8 67q16 103 131 103zM332 1174q57 0 82.5 -31t17.5 -90l-133 -949q-12 -79 -68 -106q-103 -83 -112 -156l-2 -6q-4 -30 18.5 -53t65.5 -37q29 -14 40 -33t7 -53q-11 -96 -154 -96
q-109 0 -167 59.5t-46 151.5v8q9 65 61 127.5t136 112.5q-21 30 -12 81l133 949q8 59 42 90t91 31z" />
    <glyph glyph-name="Idotaccent" unicode="&#x130;" horiz-adv-x="548" 
d="M438 1743q-64 0 -94.5 27t-24.5 77l9 62q6 50 44.5 77t102.5 27t94.5 -27t24.5 -77l-8 -62q-6 -50 -45 -77t-103 -27zM190 -16q-121 0 -106 120l201 1418q8 59 43.5 91t93.5 32q59 0 86.5 -32t19.5 -91l-200 -1418q-7 -58 -43 -89t-95 -31z" />
    <glyph glyph-name="dotlessi" unicode="&#x131;" horiz-adv-x="489" 
d="M164 -16q-57 0 -83.5 31.5t-17.5 88.5l134 949q8 59 42 90t91 31t82.5 -31t17.5 -90l-133 -949q-19 -120 -133 -120z" />
    <glyph glyph-name="IJ" unicode="&#x132;" horiz-adv-x="1423" 
d="M268 709q-56 0 -81.5 31t-18.5 89l98 693q9 59 43.5 91t89.5 32q56 0 83 -32.5t18 -90.5l-99 -693q-18 -120 -133 -120zM637 -20q-173 0 -297 88t-162 241q-19 56 3.5 95.5t70.5 60.5q98 41 145 -47q75 -221 271 -221q145 0 243.5 88.5t120.5 236.5l139 1000
q9 59 45.5 91t94.5 32t85.5 -32t18.5 -91l-141 -1012q-34 -239 -208.5 -384.5t-428.5 -145.5z" />
    <glyph glyph-name="Kcommaaccent" unicode="&#x136;" horiz-adv-x="1437" 
d="M1458 1614q37 -34 31.5 -76.5t-51.5 -85.5l-400 -379l277 -934q17 -53 -3.5 -88t-78.5 -57q-54 -21 -97.5 -0.5t-58.5 74.5l-243 845l-447 -413l-55 -394q-9 -59 -45 -90.5t-94 -31.5q-60 0 -87 31.5t-18 90.5l199 1416q8 59 43.5 91t93.5 32q59 0 86.5 -32t19.5 -91
l-102 -734l864 807q93 89 166 19zM700 -84q93 -37 27 -127l-88 -166q-29 -41 -58.5 -55t-66.5 0q-80 28 -37 113l76 159q57 112 147 76z" />
    <glyph glyph-name="kcommaaccent" unicode="&#x137;" horiz-adv-x="1126" 
d="M1090 1141q31 -34 26.5 -74t-43.5 -78l-287 -270l211 -572q20 -52 1 -91.5t-74 -59.5q-52 -20 -92.5 -4t-57.5 65l-184 521l-262 -246l-33 -228q-16 -120 -133 -120q-55 0 -82 31.5t-19 88.5l201 1420q8 57 42 89t91 32t83 -32t18 -89l-131 -928l571 534q87 81 154 11z
M528 -84q93 -37 27 -127l-88 -166q-29 -41 -58.5 -55t-66.5 0q-80 28 -37 113l76 159q57 112 147 76z" />
    <glyph glyph-name="Lacute" unicode="&#x139;" horiz-adv-x="1181" 
d="M322 1733q-95 -24 -107 39q-12 60 82 96l385 135q99 38 115 -49q12 -92 -84 -113zM997 211q52 0 77.5 -30t17.5 -83q-12 -98 -123 -98h-789q-54 0 -78 28t-16 81l199 1413q8 59 43.5 91t93.5 32q59 0 86.5 -32t19.5 -91l-184 -1311h653z" />
    <glyph glyph-name="lacute" unicode="&#x13a;" horiz-adv-x="518" 
d="M322 1731q-98 -25 -107 38q-12 60 82 97l281 100q47 19 77.5 7t36.5 -54q6 -43 -16.5 -73t-69.5 -40zM266 -16q-101 0 -154 67t-38 176l182 1297q8 57 42 89t91 32q56 0 82 -31.5t18 -89.5l-178 -1264q-9 -74 49 -98q15 -9 23.5 -17t15.5 -25.5t4 -41.5q-7 -43 -45 -68.5
t-92 -25.5z" />
    <glyph glyph-name="Lcommaaccent" unicode="&#x13b;" horiz-adv-x="1183" 
d="M999 211q52 0 77.5 -30t17.5 -83q-12 -98 -123 -98h-789q-54 0 -78 28t-16 81l199 1413q8 59 43.5 91t93.5 32q59 0 86.5 -32t19.5 -91l-184 -1311h653zM602 -84q93 -37 27 -127l-88 -166q-29 -41 -58.5 -55t-66.5 0q-80 28 -37 113l76 159q57 112 147 76z" />
    <glyph glyph-name="lcommaaccent" unicode="&#x13c;" horiz-adv-x="514" 
d="M266 -16q-101 0 -154 67t-38 176l182 1297q8 57 42 89t91 32q56 0 82 -31.5t18 -89.5l-178 -1264q-9 -74 49 -98q15 -9 23.5 -17t15.5 -25.5t4 -41.5q-7 -43 -45 -68.5t-92 -25.5zM27 -432q-80 28 -37 113l76 159q57 112 147 76q93 -37 27 -127l-88 -166
q-29 -41 -58.5 -55t-66.5 0z" />
    <glyph glyph-name="Lcaron" unicode="&#x13d;" horiz-adv-x="1191" 
d="M1073 1645q41 -9 54.5 -40.5t-5.5 -78.5l-129 -332q-37 -87 -102 -74q-64 13 -37 103l98 340q12 47 46 70t75 12zM999 211q52 0 77.5 -30t17.5 -83q-12 -98 -123 -98h-789q-54 0 -78 28t-16 81l199 1413q8 59 43.5 91t93.5 32q59 0 86.5 -32t19.5 -91l-184 -1311h653z
" />
    <glyph glyph-name="lcaron" unicode="&#x13e;" horiz-adv-x="620" 
d="M690 1194q-37 -87 -102 -74q-64 13 -37 103l98 340q12 47 46 70t75 12q41 -9 54.5 -40.5t-5.5 -78.5zM266 -16q-101 0 -154 67t-38 176l182 1297q8 57 42 89t91 32q56 0 82 -31.5t18 -89.5l-178 -1264q-9 -74 49 -98q15 -9 23.5 -17t15.5 -25.5t4 -41.5q-7 -43 -45 -68.5
t-92 -25.5z" />
    <glyph glyph-name="Lslash" unicode="&#x141;" horiz-adv-x="1230" 
d="M1047 211q52 0 77 -30t17 -83q-14 -98 -123 -98h-791q-106 0 -94 109l80 569l-16 -6q-43 -17 -72 -2.5t-41 57.5t7.5 75t60.5 48l90 33l90 639q9 59 45 91t94 32t85.5 -32t18.5 -91l-77 -555l237 90q95 36 123 -51q12 -43 -9 -75t-65 -48l-315 -119l-78 -553h656z" />
    <glyph glyph-name="lslash" unicode="&#x142;" horiz-adv-x="636" 
d="M618 909q9 -42 -10.5 -68t-66.5 -44l-95 -35l-71 -502q-9 -74 49 -98q15 -9 23.5 -17t15.5 -25.5t4 -41.5q-7 -43 -45 -68.5t-92 -25.5q-101 0 -154.5 67t-38.5 176l64 455l-27 -10q-39 -15 -64.5 2.5t-33.5 58.5q-7 42 11.5 69t66.5 44l73 26l92 652q8 57 42.5 89
t91.5 32q56 0 82 -31.5t18 -89.5l-80 -572l31 13q46 16 75.5 1t38.5 -57z" />
    <glyph glyph-name="Nacute" unicode="&#x143;" horiz-adv-x="1560" 
d="M797 1733q-95 -24 -107 39q-12 60 82 96l385 135q99 38 115 -49q12 -92 -84 -113zM1438 1645q57 0 84 -32.5t18 -90.5l-192 -1375q-10 -76 -57 -116.5t-124 -40.5h-16q-97 0 -137 98l-533 1184l-153 -1166q-9 -59 -44.5 -90.5t-93.5 -31.5t-84.5 31.5t-17.5 90.5
l191 1375q10 76 57 116.5t123 40.5h18q100 0 129 -75l541 -1207l153 1166q8 59 44 91t94 32z" />
    <glyph glyph-name="nacute" unicode="&#x144;" horiz-adv-x="1245" 
d="M582 1311q-90 -31 -111 28q-22 57 72 103l368 188q46 23 78 13t43 -50q12 -40 -7.5 -70.5t-66.5 -47.5zM780 1178q194 0 296.5 -122t74.5 -321l-90 -631q-8 -58 -41.5 -89t-89.5 -31q-57 0 -84 31.5t-19 88.5l86 596q17 124 -46 198.5t-183 74.5t-203 -74.5t-102 -198.5
l-84 -596q-16 -120 -133 -120q-55 0 -82 31.5t-19 88.5l136 949q16 121 122 121q52 0 76.5 -31t18.5 -88l-4 -41q68 79 163 121.5t207 42.5z" />
    <glyph glyph-name="Ncommaaccent" unicode="&#x145;" horiz-adv-x="1560" 
d="M1438 1645q57 0 84 -32.5t18 -90.5l-192 -1375q-10 -76 -57 -116.5t-124 -40.5h-16q-97 0 -137 98l-533 1184l-153 -1166q-9 -59 -44.5 -90.5t-93.5 -31.5t-84.5 31.5t-17.5 90.5l191 1375q10 76 57 116.5t123 40.5h18q100 0 129 -75l541 -1207l153 1166q8 59 44 91
t94 32zM739 -84q93 -37 27 -127l-88 -166q-29 -41 -58.5 -55t-66.5 0q-80 28 -37 113l76 159q57 112 147 76z" />
    <glyph glyph-name="ncommaaccent" unicode="&#x146;" horiz-adv-x="1245" 
d="M780 1178q194 0 296.5 -122t74.5 -321l-90 -631q-8 -58 -41.5 -89t-89.5 -31q-57 0 -84 31.5t-19 88.5l86 596q17 124 -46 198.5t-183 74.5t-203 -74.5t-102 -198.5l-84 -596q-16 -120 -133 -120q-55 0 -82 31.5t-19 88.5l136 949q16 121 122 121q52 0 76.5 -31t18.5 -88
l-4 -41q68 79 163 121.5t207 42.5zM582 -84q92 -37 26 -127l-88 -166q-29 -41 -58.5 -55t-66.5 0q-80 28 -37 113l76 159q58 112 148 76z" />
    <glyph glyph-name="Ncaron" unicode="&#x147;" horiz-adv-x="1560" 
d="M889 1712l-215 221q-42 45 4 97q41 47 92 12l195 -160l237 160q62 36 92 -17q27 -50 -26 -92l-279 -221q-29 -20 -53 -20q-27 0 -47 20zM1438 1645q57 0 84 -32.5t18 -90.5l-192 -1375q-10 -76 -57 -116.5t-124 -40.5h-16q-97 0 -137 98l-533 1184l-153 -1166
q-9 -59 -44.5 -90.5t-93.5 -31.5t-84.5 31.5t-17.5 90.5l191 1375q10 76 57 116.5t123 40.5h18q100 0 129 -75l541 -1207l153 1166q8 59 44 91t94 32z" />
    <glyph glyph-name="ncaron" unicode="&#x148;" horiz-adv-x="1245" 
d="M672 1303l-215 221q-44 44 2 96q42 48 94 12l195 -157l237 157q60 35 90 -14t-24 -94l-281 -221q-28 -21 -51 -21q-26 0 -47 21zM780 1178q194 0 296.5 -122t74.5 -321l-90 -631q-8 -58 -41.5 -89t-89.5 -31q-57 0 -84 31.5t-19 88.5l86 596q17 124 -46 198.5t-183 74.5
t-203 -74.5t-102 -198.5l-84 -596q-16 -120 -133 -120q-55 0 -82 31.5t-19 88.5l136 949q16 121 122 121q52 0 76.5 -31t18.5 -88l-4 -41q68 79 163 121.5t207 42.5z" />
    <glyph glyph-name="Eng" unicode="&#x14a;" horiz-adv-x="1558" 
d="M1438 1645q57 0 84 -31.5t18 -91.5l-199 -1428q-32 -231 -198.5 -372.5t-403.5 -141.5h-55q-52 0 -77 30.5t-19 82.5q14 98 125 98h43q134 0 227 87.5t113 232.5l2 8l-613 1175l-157 -1188q-9 -59 -44.5 -90.5t-93.5 -31.5t-84.5 31.5t-17.5 90.5l191 1375
q10 76 58 116.5t126 40.5h12q100 0 135 -71l555 -1059l138 1014q8 59 42.5 91t92.5 32z" />
    <glyph glyph-name="eng" unicode="&#x14b;" horiz-adv-x="1245" 
d="M780 1178q194 0 296.5 -122t74.5 -321l-119 -848q-20 -138 -125.5 -222.5t-257.5 -84.5h-45q-49 0 -72.5 28t-17.5 73q12 86 111 86h26q59 0 100 36.5t48 96.5l114 800q17 124 -46 198.5t-183 74.5t-203 -74.5t-102 -198.5l-84 -596q-16 -120 -133 -120q-55 0 -82 31.5
t-19 88.5l136 949q16 121 122 121q52 0 76.5 -31t18.5 -88l-4 -41q68 79 163 121.5t207 42.5z" />
    <glyph glyph-name="Omacron" unicode="&#x14c;" horiz-adv-x="1536" 
d="M692 1784q-42 0 -62.5 24t-15.5 66q4 39 31 59.5t70 20.5h491q41 0 62 -24t16 -64q-12 -82 -102 -82h-490zM684 -20q-302 0 -462 174t-120 458l54 404q40 284 250 458.5t512 174.5q303 0 462 -174t121 -459l-55 -404q-40 -284 -250 -458t-512 -174zM715 197
q193 0 327 118t162 312l51 374q28 194 -73.5 312.5t-294.5 118.5q-192 0 -326 -118.5t-162 -312.5l-51 -374q-28 -193 73.5 -311.5t293.5 -118.5z" />
    <glyph glyph-name="omacron" unicode="&#x14d;" horiz-adv-x="1202" 
d="M504 1415q-42 0 -62 24t-14 66q9 80 100 80h430q43 0 63.5 -24.5t14.5 -65.5q-12 -80 -102 -80h-430zM518 -20q-236 0 -360 136t-95 361l27 203q29 224 194 361t402 137q236 0 360 -136.5t95 -361.5l-27 -203q-29 -223 -194 -360t-402 -137zM547 184q130 0 222 83
t112 218l26 187q19 136 -50 218.5t-200 82.5t-222.5 -82.5t-110.5 -218.5l-27 -187q-19 -135 49.5 -218t200.5 -83z" />
    <glyph glyph-name="Ohungarumlaut" unicode="&#x150;" horiz-adv-x="1536" 
d="M811 1747q-84 -59 -119 -12q-37 49 37 118l213 205q40 36 75.5 37.5t57.5 -31.5q48 -67 -39 -129zM1167 1747q-81 -58 -118 -12q-38 50 36 118l215 205q40 36 76 37.5t58 -31.5q46 -69 -39 -129zM684 -20q-302 0 -462 174t-120 458l54 404q40 284 250 458.5t512 174.5
q303 0 462 -174t121 -459l-55 -404q-40 -284 -250 -458t-512 -174zM715 197q193 0 327 118t162 312l51 374q28 194 -73.5 312.5t-294.5 118.5q-192 0 -326 -118.5t-162 -312.5l-51 -374q-28 -193 73.5 -311.5t293.5 -118.5z" />
    <glyph glyph-name="ohungarumlaut" unicode="&#x151;" horiz-adv-x="1202" 
d="M575 1290q-83 -61 -118 -10q-38 51 37 117l215 205q40 35 75 37.5t58 -29.5q46 -66 -41 -131zM932 1290q-81 -60 -119 -10q-38 51 37 117l217 205q40 35 74.5 37.5t56.5 -29.5q46 -67 -39 -131zM518 -20q-236 0 -360 136t-95 361l27 203q29 224 194 361t402 137
q236 0 360 -136.5t95 -361.5l-27 -203q-29 -223 -194 -360t-402 -137zM547 184q130 0 222 83t112 218l26 187q19 136 -50 218.5t-200 82.5t-222.5 -82.5t-110.5 -218.5l-27 -187q-19 -135 49.5 -218t200.5 -83z" />
    <glyph glyph-name="OE" unicode="&#x152;" horiz-adv-x="2381" 
d="M2322 1628q52 0 77.5 -30.5t17.5 -81.5q-11 -99 -123 -99h-735l-68 -481h692q53 0 77.5 -31t16.5 -84q-12 -98 -123 -98h-694l-71 -512h755q52 0 77 -30t17 -83q-12 -98 -122 -98h-891q-53 0 -77.5 28.5t-17.5 80.5l17 108q-95 -114 -228.5 -175.5t-291.5 -61.5
q-277 0 -421 174t-104 458l54 404q40 284 233.5 458.5t470.5 174.5q156 0 272.5 -62t180.5 -174l14 107q7 52 39.5 80t85.5 28h870zM715 197q193 0 327 118t162 312l51 374v7q26 191 -75 307.5t-293 116.5t-326 -118.5t-162 -312.5l-51 -374q-28 -193 73.5 -311.5
t293.5 -118.5z" />
    <glyph glyph-name="oe" unicode="&#x153;" horiz-adv-x="1994" 
d="M1503 1178q226 0 344.5 -135.5t87.5 -358.5l-12 -80q-6 -46 -35.5 -72t-75.5 -26h-696l-4 -35q-20 -139 47.5 -224t196.5 -85q170 0 289 131q52 48 112 29q38 -13 57.5 -37t18.5 -50t-18 -49q-67 -97 -196 -151.5t-276 -54.5q-145 0 -244 66t-138 185
q-74 -120 -192.5 -185.5t-264.5 -65.5q-231 0 -352 138t-89 365l27 193q32 226 192 364t390 138q145 0 245 -66t142 -184q71 118 187 184t257 66zM1702 688q20 138 -46 222.5t-192 84.5t-214 -84.5t-107 -222.5l-2 -16h559zM907 672q19 136 -50 218.5t-200 82.5
t-222.5 -82.5t-110.5 -218.5l-27 -187q-19 -135 49.5 -218t200.5 -83q130 0 222 83t112 218z" />
    <glyph glyph-name="Racute" unicode="&#x154;" horiz-adv-x="1452" 
d="M754 1733q-95 -24 -107 39q-12 60 82 96l385 135q99 38 115 -49q12 -92 -84 -113zM1061 1628q207 0 318 -118.5t85 -311.5l-6 -45q-20 -151 -116.5 -259.5t-243.5 -148.5l180 -606q15 -54 -5 -88.5t-79 -56.5q-54 -21 -97.5 -0.5t-58.5 74.5l-188 655h-432l-86 -617
q-9 -59 -45 -90.5t-94 -31.5q-60 0 -87 31.5t-18 90.5l197 1414q7 52 39.5 80t85.5 28h651zM1219 1186q11 106 -44 168.5t-159 62.5h-500l-67 -481h501q105 0 180 64.5t87 166.5z" />
    <glyph glyph-name="racute" unicode="&#x155;" horiz-adv-x="808" 
d="M383 1311q-90 -31 -111 28q-22 57 72 103l369 188q46 23 78 13t43 -50q12 -40 -7.5 -70.5t-66.5 -47.5zM725 1174q66 0 94 -27t21 -84q-9 -50 -45 -72.5t-111 -32.5q-125 -11 -207.5 -88t-101.5 -206l-80 -560q-16 -120 -133 -120q-55 0 -82 31.5t-19 88.5l136 949
q16 121 122 121q52 0 76.5 -31t18.5 -88l-6 -45q132 164 317 164z" />
    <glyph glyph-name="Rcommaaccent" unicode="&#x156;" horiz-adv-x="1452" 
d="M1061 1628q207 0 318 -118.5t85 -311.5l-6 -45q-20 -151 -116.5 -259.5t-243.5 -148.5l180 -606q15 -54 -5 -88.5t-79 -56.5q-54 -21 -97.5 -0.5t-58.5 74.5l-188 655h-432l-86 -617q-9 -59 -45 -90.5t-94 -31.5q-60 0 -87 31.5t-18 90.5l197 1414q7 52 39.5 80t85.5 28
h651zM1219 1186q11 106 -44 168.5t-159 62.5h-500l-67 -481h501q105 0 180 64.5t87 166.5zM696 -84q93 -37 27 -127l-88 -166q-29 -41 -58.5 -55t-66.5 0q-80 28 -37 113l76 159q57 112 147 76z" />
    <glyph glyph-name="rcommaaccent" unicode="&#x157;" horiz-adv-x="808" 
d="M725 1174q66 0 94 -27t21 -84q-9 -50 -45 -72.5t-111 -32.5q-125 -11 -207.5 -88t-101.5 -206l-80 -560q-16 -120 -133 -120q-55 0 -82 31.5t-19 88.5l136 949q16 121 122 121q52 0 76.5 -31t18.5 -88l-6 -45q132 164 317 164zM186 -84q93 -37 27 -127l-88 -166
q-29 -41 -58.5 -55t-66.5 0q-80 28 -37 113l76 159q57 112 147 76z" />
    <glyph glyph-name="Rcaron" unicode="&#x158;" horiz-adv-x="1452" 
d="M846 1712l-215 221q-42 45 4 97q41 47 92 12l195 -160l237 160q62 36 92 -17q27 -50 -26 -92l-279 -221q-29 -20 -53 -20q-27 0 -47 20zM1061 1628q207 0 318 -118.5t85 -311.5l-6 -45q-20 -151 -116.5 -259.5t-243.5 -148.5l180 -606q15 -54 -5 -88.5t-79 -56.5
q-54 -21 -97.5 -0.5t-58.5 74.5l-188 655h-432l-86 -617q-9 -59 -45 -90.5t-94 -31.5q-60 0 -87 31.5t-18 90.5l197 1414q7 52 39.5 80t85.5 28h651zM1219 1186q11 106 -44 168.5t-159 62.5h-500l-67 -481h501q105 0 180 64.5t87 166.5z" />
    <glyph glyph-name="rcaron" unicode="&#x159;" horiz-adv-x="808" 
d="M874 1618q30 -49 -24 -94l-281 -221q-28 -21 -51 -21q-26 0 -47 21l-215 221q-44 44 2 96q42 48 94 12l195 -157l237 157q60 35 90 -14zM723 1174q66 0 94 -27t21 -84q-9 -50 -45 -72.5t-111 -32.5q-125 -11 -207.5 -88t-101.5 -206l-80 -560q-16 -120 -133 -120
q-55 0 -82 31.5t-19 88.5l136 949q16 121 122 121q52 0 76.5 -31t18.5 -88l-6 -45q132 164 317 164z" />
    <glyph glyph-name="Sacute" unicode="&#x15a;" horiz-adv-x="1384" 
d="M700 1733q-94 -24 -106 39q-12 60 82 96l385 135q99 38 115 -49q12 -92 -84 -113zM602 -20q-200 0 -346.5 73t-194.5 213q-18 43 3 87.5t77 68.5q35 17 64 11.5t44.5 -17t26.5 -27.5q119 -203 359 -203q172 0 287.5 73.5t134.5 193.5l2 12q8 56 -10 98t-49.5 66.5
t-90.5 43.5t-108 28.5t-128 21.5q-106 16 -161.5 27t-141 42.5t-125 73t-65 115.5t-10.5 174l4 29q31 209 215 337t455 128q184 0 315 -72t195 -203q25 -40 1 -85.5t-81 -67.5q-92 -37 -131 30q-102 191 -334 191q-163 0 -271.5 -68t-125.5 -178l-2 -12q-9 -56 10 -98.5
t48.5 -66.5t92 -43.5t107.5 -28t130 -21.5q106 -16 161.5 -27t141.5 -42t126 -72t65.5 -115t10.5 -174l-5 -27q-34 -220 -224 -354.5t-472 -134.5z" />
    <glyph glyph-name="sacute" unicode="&#x15b;" horiz-adv-x="1105" 
d="M508 1311q-90 -31 -111 28q-22 57 72 103l369 188q46 23 77.5 13t42.5 -50q25 -82 -73 -118zM461 -20q-150 0 -270 55t-162 151q-16 36 10.5 76.5t87.5 59.5q71 19 109 -29q39 -61 107 -93t151 -32q116 0 193.5 46t88.5 120q7 47 -13.5 78.5t-60.5 47t-93.5 24.5t-113 16
t-118.5 16t-110.5 29t-89.5 51t-54.5 87t-5.5 132l4 21q24 162 162.5 252t353.5 90q143 0 250.5 -52.5t148.5 -146.5q18 -36 -7 -76.5t-85 -58.5q-73 -20 -108 28q-75 129 -230 129q-109 0 -180.5 -44t-81.5 -117q-7 -46 13.5 -77t61 -46t94.5 -24t114 -15.5t119.5 -16
t111.5 -30t90 -52t55 -88t5 -133.5l-2 -20q-26 -168 -173.5 -263t-371.5 -95z" />
    <glyph glyph-name="Scedilla" unicode="&#x15e;" horiz-adv-x="1384" 
d="M412 1196l-2 -12q-9 -56 10 -98.5t48.5 -66.5t92 -43.5t107.5 -28t130 -21.5q106 -16 161.5 -27t141.5 -42t126 -72t65.5 -115t10.5 -174l-5 -27q-31 -201 -194.5 -332t-411.5 -153l-33 -62q76 -19 114.5 -59.5t31.5 -95.5l-2 -15q-10 -79 -90.5 -125.5t-204.5 -46.5h-53
q-38 0 -56.5 19t-15.5 53q6 38 33.5 53.5t87.5 18.5q65 3 71 49q8 41 -57 61q-37 11 -46 22t1 38l43 90q-170 14 -292 86t-163 196q-18 43 3 87.5t77 68.5q35 17 64 11.5t44.5 -17t26.5 -27.5q119 -203 359 -203q172 0 287.5 73.5t134.5 193.5l2 12q8 56 -10 98t-49.5 66.5
t-90.5 43.5t-108 28.5t-128 21.5q-106 16 -161.5 27t-141 42.5t-125 73t-65 115.5t-10.5 174l4 29q31 209 215 337t455 128q184 0 315 -72t195 -203q25 -40 1 -85.5t-81 -67.5q-92 -37 -131 30q-102 191 -334 191q-163 0 -271.5 -68t-125.5 -178z" />
    <glyph glyph-name="scedilla" unicode="&#x15f;" horiz-adv-x="1105" 
d="M606 1001q-109 0 -180.5 -44t-81.5 -117q-7 -46 13.5 -77t61 -46t94.5 -24t114 -15.5t119.5 -16t111.5 -30t90 -52t55 -88t5 -133.5l-2 -20q-23 -150 -143 -241.5t-308 -112.5l-33 -62q76 -19 114.5 -59.5t31.5 -95.5l-2 -15q-10 -79 -90.5 -125.5t-204.5 -46.5h-54
q-77 0 -71 72q6 38 33.5 53.5t87.5 18.5q65 3 71 49q8 41 -57 61q-37 11 -46 22t1 38l43 90q-125 14 -219.5 66.5t-130.5 135.5q-16 36 10.5 76.5t87.5 59.5q71 19 109 -29q39 -61 107 -93t151 -32q116 0 193.5 46t88.5 120q7 47 -13.5 78.5t-60.5 47t-93.5 24.5t-113 16
t-118.5 16t-110.5 29t-89.5 51t-54.5 87t-5.5 132l4 21q24 162 162.5 252t353.5 90q143 0 250.5 -52.5t148.5 -146.5q18 -36 -7 -76.5t-85 -58.5q-73 -20 -108 28q-75 129 -230 129z" />
    <glyph glyph-name="Scaron" unicode="&#x160;" horiz-adv-x="1384" 
d="M842 1692q-27 0 -47 20l-215 221q-42 45 4 97q41 47 92 12l194 -160l238 160q62 36 92 -17q27 -50 -26 -92l-279 -221q-29 -20 -53 -20zM602 -20q-200 0 -346.5 73t-194.5 213q-18 43 3 87.5t77 68.5q35 17 64 11.5t44.5 -17t26.5 -27.5q119 -203 359 -203
q172 0 287.5 73.5t134.5 193.5l2 12q8 56 -10 98t-49.5 66.5t-90.5 43.5t-108 28.5t-128 21.5q-106 16 -161.5 27t-141 42.5t-125 73t-65 115.5t-10.5 174l4 29q31 209 215 337t455 128q184 0 315 -72t195 -203q25 -40 1 -85.5t-81 -67.5q-92 -37 -131 30q-102 191 -334 191
q-163 0 -271.5 -68t-125.5 -178l-2 -12q-9 -56 10 -98.5t48.5 -66.5t92 -43.5t107.5 -28t130 -21.5q106 -16 161.5 -27t141.5 -42t126 -72t65.5 -115t10.5 -174l-5 -27q-34 -220 -224 -354.5t-472 -134.5z" />
    <glyph glyph-name="scaron" unicode="&#x161;" horiz-adv-x="1105" 
d="M645 1282q-26 0 -47 21l-215 221q-44 44 2 96q42 48 94 12l195 -157l237 157q60 35 90 -14t-24 -94l-281 -221q-28 -21 -51 -21zM461 -20q-150 0 -270 55t-162 151q-16 36 10.5 76.5t87.5 59.5q71 19 109 -29q39 -61 107 -93t151 -32q116 0 193.5 46t88.5 120
q7 47 -13.5 78.5t-60.5 47t-93.5 24.5t-113 16t-118.5 16t-110.5 29t-89.5 51t-54.5 87t-5.5 132l4 21q24 162 162.5 252t353.5 90q143 0 250.5 -52.5t148.5 -146.5q18 -36 -7 -76.5t-85 -58.5q-73 -20 -108 28q-75 129 -230 129q-109 0 -180.5 -44t-81.5 -117
q-7 -46 13.5 -77t61 -46t94.5 -24t114 -15.5t119.5 -16t111.5 -30t90 -52t55 -88t5 -133.5l-2 -20q-26 -168 -173.5 -263t-371.5 -95z" />
    <glyph glyph-name="uni0162" unicode="&#x162;" horiz-adv-x="1255" 
d="M1264 1628q52 0 76 -30t18 -82q-14 -99 -125 -99h-369l-184 -1311q-6 -35 -21 -63l-63 -119q74 -21 112 -61.5t31 -95.5l-2 -15q-10 -78 -91 -125t-204 -47h-53q-38 0 -57.5 19t-14.5 53q6 40 32.5 54.5t88.5 17.5q31 2 51 13.5t21 31.5l2 10q3 39 -59 55q-38 11 -47 22
t2 38l53 116q-34 30 -25 96l185 1311h-371q-52 0 -76 30t-18 83q14 98 125 98h983z" />
    <glyph glyph-name="uni0163" unicode="&#x163;" horiz-adv-x="757" 
d="M717 1157q46 0 69 -27.5t17 -72.5q-12 -86 -113 -86h-196l-95 -666q-7 -54 20.5 -86.5t80.5 -32.5h61q46 0 69 -27.5t17 -72.5q-12 -86 -112 -86h-86q-22 0 -54 4l-43 -82q76 -19 114.5 -59.5t31.5 -95.5l-2 -15q-10 -79 -90.5 -125.5t-204.5 -46.5h-54q-77 0 -71 72
q6 38 33.5 53.5t87.5 18.5q65 3 71 49q8 41 -57 61q-37 11 -46 22t1 38l80 167q-103 80 -82 232l94 678h-94q-45 0 -68.5 27.5t-15.5 72.5q12 86 110 86h101l31 209q8 57 42 88t89 31t79.5 -30.5t16.5 -88.5l-29 -209h197z" />
    <glyph glyph-name="Tcaron" unicode="&#x164;" horiz-adv-x="1255" 
d="M733 1712l-215 221q-42 45 4 97q41 47 92 12l195 -160l238 160q62 36 92 -17q27 -50 -27 -92l-278 -221q-29 -20 -54 -20q-27 0 -47 20zM1264 1628q52 0 76 -30t18 -82q-14 -99 -125 -99h-369l-184 -1311q-9 -59 -45 -90.5t-94 -31.5q-59 0 -86.5 32t-18.5 90l185 1311
h-371q-52 0 -76 30t-18 83q14 98 125 98h983z" />
    <glyph glyph-name="tcaron" unicode="&#x165;" horiz-adv-x="757" 
d="M864 1661q41 -8 54.5 -33t-5.5 -63l-129 -271q-37 -72 -102 -59q-64 10 -37 82l98 278q12 38 46 56.5t75 9.5zM715 1157q46 0 69 -27.5t17 -72.5q-12 -86 -113 -86h-196l-95 -666q-7 -54 20.5 -86.5t80.5 -32.5h61q46 0 69 -27.5t17 -72.5q-12 -86 -113 -86h-86
q-146 0 -224.5 80.5t-59.5 212.5l94 678h-94q-45 0 -68.5 27.5t-15.5 72.5q12 86 110 86h101l30 209q7 57 41.5 88t90.5 31q55 0 79.5 -30.5t16.5 -88.5l-29 -209h197z" />
    <glyph glyph-name="Tbar" unicode="&#x166;" horiz-adv-x="1277" 
d="M1274 1628q52 0 76 -30t18 -82q-14 -99 -125 -99h-369l-69 -495h178q50 0 73 -26t17 -73q-12 -90 -119 -90h-176l-88 -627q-9 -59 -45 -90.5t-94 -31.5q-59 0 -86.5 32t-18.5 90l89 627h-173q-49 0 -72.5 26t-17.5 72q15 91 119 91h170l70 495h-371q-52 0 -76 30t-18 83
q14 98 125 98h983z" />
    <glyph glyph-name="tbar" unicode="&#x167;" horiz-adv-x="796" 
d="M735 1157q46 0 69 -27.5t17 -72.5q-12 -86 -112 -86h-197l-41 -295h201q47 0 69.5 -25.5t16.5 -68.5q-12 -82 -111 -82h-203l-26 -195q-7 -54 20 -86.5t80 -32.5h62q46 0 69 -27.5t17 -72.5q-12 -86 -113 -86h-86q-146 0 -225 80.5t-60 212.5l29 207h-90q-45 0 -68.5 25
t-17.5 67q12 84 110 84h91l40 295h-94q-45 0 -68.5 27.5t-15.5 72.5q12 86 111 86h100l31 209q8 57 42 88t89 31t79.5 -30.5t16.5 -88.5l-28 -209h196z" />
    <glyph glyph-name="Umacron" unicode="&#x16a;" horiz-adv-x="1495" 
d="M674 1784q-42 0 -62.5 24t-15.5 66q9 80 100 80h492q41 0 62 -24t16 -64q-12 -82 -103 -82h-489zM666 -20q-275 0 -420.5 156.5t-108.5 414.5l137 971q8 59 44 91t94 32q59 0 86.5 -32t19.5 -91l-135 -959q-23 -166 63 -266t250 -100q163 0 277 100.5t137 265.5l133 959
q9 59 45 91t94 32q60 0 87.5 -32t19.5 -91l-137 -971q-37 -258 -224.5 -414.5t-461.5 -156.5z" />
    <glyph glyph-name="umacron" unicode="&#x16b;" horiz-adv-x="1224" 
d="M516 1415q-42 0 -62 24t-14 66q4 39 31 59.5t70 20.5h430q43 0 63.5 -24.5t14.5 -65.5q-12 -80 -103 -80h-430zM1063 1174q57 0 82.5 -31t17.5 -90l-133 -949q-19 -120 -123 -120q-52 0 -77 30.5t-19 87.5l4 35q-141 -157 -358 -157q-191 0 -292 118.5t-73 313.5l92 641
q7 58 41 89.5t90 31.5q57 0 83.5 -31.5t19.5 -89.5l-86 -607q-17 -118 43 -190t176 -72q114 0 195 70.5t98 187.5v4l86 607q8 59 42 90t91 31z" />
    <glyph glyph-name="Uring" unicode="&#x16e;" horiz-adv-x="1495" 
d="M907 1708q-118 0 -181.5 58t-49.5 153l4 35q14 95 93.5 153t197.5 58q119 0 182.5 -58t50.5 -153l-6 -35q-14 -95 -93.5 -153t-197.5 -58zM926 1837q51 0 87 24.5t40 63.5l2 23q6 40 -21.5 64t-79.5 24q-53 0 -88 -24t-39 -64l-4 -23q-5 -40 23 -64t80 -24zM666 -20
q-275 0 -420.5 156.5t-108.5 414.5l137 971q8 59 44 91t94 32q59 0 86.5 -32t19.5 -91l-135 -959q-23 -166 63 -266t250 -100q163 0 277 100.5t137 265.5l133 959q9 59 45 91t94 32q60 0 87.5 -32t19.5 -91l-137 -971q-37 -258 -224.5 -414.5t-461.5 -156.5z" />
    <glyph glyph-name="uring" unicode="&#x16f;" horiz-adv-x="1224" 
d="M707 1223q-120 0 -184 58t-50 153l4 36q15 96 94.5 153.5t198.5 57.5q118 0 181.5 -58t49.5 -153l-6 -36q-14 -96 -92 -153.5t-196 -57.5zM623 1440q-6 -39 21 -63.5t79 -24.5q51 0 86.5 25t40.5 63l4 24q5 39 -22.5 63.5t-79.5 24.5t-86.5 -24.5t-40.5 -63.5zM1063 1174
q57 0 82.5 -31t17.5 -90l-133 -949q-19 -120 -123 -120q-52 0 -77 30.5t-19 87.5l4 35q-141 -157 -358 -157q-191 0 -292 118.5t-73 313.5l92 641q7 58 41 89.5t90 31.5q57 0 83.5 -31.5t19.5 -89.5l-86 -607q-17 -118 43 -190t176 -72q114 0 195 70.5t98 187.5v4l86 607
q8 59 42 90t91 31z" />
    <glyph glyph-name="Uhungarumlaut" unicode="&#x170;" horiz-adv-x="1495" 
d="M793 1747q-84 -59 -119 -12q-37 49 37 118l213 205q40 36 75.5 37.5t57.5 -31.5q48 -67 -39 -129zM1149 1747q-82 -58 -119 -12q-37 49 37 118l215 205q40 36 75.5 37.5t57.5 -31.5q46 -69 -39 -129zM666 -20q-275 0 -420.5 156.5t-108.5 414.5l137 971q8 59 44 91t94 32
q59 0 86.5 -32t19.5 -91l-135 -959q-23 -166 63 -266t250 -100q163 0 277 100.5t137 265.5l133 959q9 59 45 91t94 32q60 0 87.5 -32t19.5 -91l-137 -971q-37 -258 -224.5 -414.5t-461.5 -156.5z" />
    <glyph glyph-name="uhungarumlaut" unicode="&#x171;" horiz-adv-x="1226" 
d="M588 1290q-83 -61 -119 -10q-38 51 37 117l215 205q40 35 75 37.5t58 -29.5q46 -66 -41 -131zM1210 1610q46 -67 -39 -131l-227 -189q-81 -60 -119 -10q-38 51 37 117l217 205q40 35 74.5 37.5t56.5 -29.5zM1063 1174q57 0 82.5 -31t17.5 -90l-133 -949
q-19 -120 -123 -120q-52 0 -77 30.5t-19 87.5l4 35q-141 -157 -358 -157q-191 0 -292 118.5t-73 313.5l92 641q7 58 41 89.5t90 31.5q57 0 83.5 -31.5t19.5 -89.5l-86 -607q-17 -118 43 -190t176 -72q114 0 195 70.5t98 187.5v4l86 607q8 59 42 90t91 31z" />
    <glyph glyph-name="Uogonek" unicode="&#x172;" horiz-adv-x="1495" 
d="M1382 1645q60 0 87.5 -32t19.5 -91l-137 -971q-29 -204 -156.5 -348t-321.5 -197q-86 -35 -140.5 -81.5t-59.5 -86.5l-2 -6q-9 -59 76 -86q56 -12 74.5 -30t15.5 -58q-12 -94 -160 -94h-12q-116 0 -179 59.5t-51 151.5v8q16 109 150 201q-238 23 -360.5 176.5
t-88.5 390.5l137 971q8 59 44 91t94 32q59 0 86.5 -32t19.5 -91l-135 -959q-23 -166 63 -266t250 -100q163 0 277 100.5t137 265.5l133 959q9 59 45 91t94 32z" />
    <glyph glyph-name="uogonek" unicode="&#x173;" horiz-adv-x="1224" 
d="M1063 1174q57 0 82.5 -31t17.5 -90l-133 -949q-12 -73 -55 -102q-68 -37 -111 -80.5t-47 -81.5v-8q-8 -61 76 -86q55 -12 73 -29.5t15 -56.5q-9 -96 -158 -96h-12q-115 0 -178.5 59.5t-52.5 151.5l2 8q9 74 71 142t162 116q-7 27 -4 61l4 35q-141 -157 -358 -157
q-191 0 -292 118.5t-73 313.5l92 641q7 58 41 89.5t90 31.5q57 0 83.5 -31.5t19.5 -89.5l-86 -607q-17 -118 43 -190t176 -72q114 0 195 70.5t98 187.5v4l86 607q8 59 42 90t91 31z" />
    <glyph glyph-name="Wcircumflex" unicode="&#x174;" horiz-adv-x="2082" 
d="M987 1726q-59 -35 -90 13q-33 52 23 96l278 221q27 21 51 21q26 0 47 -21l217 -221q46 -43 0 -92q-44 -53 -96 -17l-190 160zM2083 1638q109 -27 69 -141l-505 -1356q-25 -68 -76.5 -109.5t-126.5 -41.5h-29q-76 0 -116.5 41.5t-45.5 109.5l-104 1211l-444 -1211
q-23 -68 -74 -109.5t-127 -41.5h-27q-76 0 -117.5 41.5t-46.5 109.5l-127 1368q-9 119 111 133q123 13 129 -98l102 -1311l449 1262q48 143 197 143h30q150 0 156 -143l98 -1262l471 1319q36 114 154 86z" />
    <glyph glyph-name="wcircumflex" unicode="&#x175;" horiz-adv-x="1753" 
d="M764 1309q-60 -35 -90 12q-34 52 22 96l279 221q27 21 51 21q26 0 47 -21l219 -221q42 -42 -2 -92q-44 -53 -96 -16l-193 159zM1696 1169q52 -10 68.5 -49t-7.5 -94l-371 -879q-62 -157 -204 -157h-13q-144 0 -155 157l-92 762l-304 -762q-62 -157 -204 -157h-13
q-138 0 -157 157l-127 891q-16 116 98 131q58 9 93 -15.5t38 -80.5l100 -846l316 791q27 70 70 109.5t118 39.5h15q135 0 149 -155l88 -785l344 856q38 110 150 86z" />
    <glyph glyph-name="Ycircumflex" unicode="&#x176;" horiz-adv-x="1419" 
d="M655 1726q-59 -35 -90 13q-33 52 23 96l278 221q27 21 52 21q26 0 47 -21l217 -221q46 -43 0 -92q-44 -54 -97 -17l-190 160zM1430 1624q97 -59 20 -162l-608 -800l-76 -556q-9 -59 -45 -90.5t-94 -31.5q-60 0 -87.5 31.5t-19.5 90.5l78 556l-383 800q-23 51 -5 93t73 69
q109 56 155 -49l316 -680l508 680q76 105 168 49z" />
    <glyph glyph-name="ycircumflex" unicode="&#x177;" horiz-adv-x="1103" 
d="M438 1309q-60 -35 -90 12q-34 51 23 96l278 221q27 21 51 21q27 0 48 -21l219 -221q42 -42 -2 -92q-44 -53 -97 -16l-192 159zM1051 1165q50 -18 64 -56.5t-13 -94.5l-570 -1120q-75 -152 -199.5 -241t-273.5 -89q-45 0 -66.5 26t-15.5 72q4 43 29 65.5t66 22.5
q67 0 129 42t98 110l61 121l-239 1007q-27 112 86 137q124 29 145 -80l168 -794l377 792q52 116 154 80z" />
    <glyph glyph-name="Ydieresis" unicode="&#x178;" horiz-adv-x="1419" 
d="M690 1743q-52 0 -76 27t-18 77l8 62q6 49 39 76.5t86 27.5q105 0 96 -104l-8 -62q-6 -50 -39 -77t-88 -27zM1055 1743q-106 0 -97 104l11 62q4 49 37.5 76.5t87.5 27.5q52 0 76 -27t18 -77l-8 -62q-4 -49 -37.5 -76.5t-87.5 -27.5zM1430 1624q97 -59 20 -162l-608 -800
l-76 -556q-9 -59 -45 -90.5t-94 -31.5q-60 0 -87.5 31.5t-19.5 90.5l78 556l-383 800q-23 51 -5 93t73 69q109 56 155 -49l316 -680l508 680q76 105 168 49z" />
    <glyph glyph-name="Zacute" unicode="&#x179;" horiz-adv-x="1327" 
d="M680 1733q-95 -24 -107 39q-12 60 82 96l385 135q99 38 115 -49q12 -92 -84 -113zM1278 1628q66 0 96 -34.5t21 -100.5q-6 -49 -20.5 -80t-47.5 -65l-1044 -1139l843 2q52 0 77.5 -30t17.5 -83q-12 -98 -123 -98h-996q-66 0 -96 34.5t-20 100.5q6 50 20.5 81t46.5 65
l1045 1138l-803 -2q-52 0 -77 30t-17 83q14 98 123 98h954z" />
    <glyph glyph-name="zacute" unicode="&#x17a;" horiz-adv-x="1032" 
d="M477 1311q-89 -30 -110 28q-22 57 71 103l369 188q46 23 78 13t43 -50q12 -40 -7.5 -70.5t-66.5 -47.5zM913 1157q60 0 86.5 -29.5t26.5 -91.5v-6q0 -56 -65 -121l-697 -727l563 2q47 0 70.5 -26t17.5 -70q-15 -88 -112 -88h-699q-59 0 -85.5 31t-26.5 92v4q0 59 65 121
l697 727l-523 -2q-47 0 -70.5 26t-17.5 70q15 88 113 88h657z" />
    <glyph glyph-name="Zdotaccent" unicode="&#x17b;" horiz-adv-x="1327" 
d="M827 1743q-64 0 -94 27t-24 77l8 62q6 50 44.5 77t102.5 27t94.5 -27t24.5 -77l-8 -62q-6 -50 -45 -77t-103 -27zM1278 1628q66 0 96 -34.5t21 -100.5q-6 -49 -20.5 -80t-47.5 -65l-1044 -1139l843 2q52 0 77.5 -30t17.5 -83q-12 -98 -123 -98h-996q-66 0 -96 34.5
t-20 100.5q6 50 20.5 81t46.5 65l1045 1138l-803 -2q-52 0 -77 30t-17 83q14 98 123 98h954z" />
    <glyph glyph-name="zdotaccent" unicode="&#x17c;" horiz-adv-x="1032" 
d="M631 1374q-56 0 -82.5 27.5t-20.5 73.5l9 67q16 103 131 103q55 0 81.5 -28.5t20.5 -74.5l-8 -67q-8 -48 -41.5 -74.5t-89.5 -26.5zM913 1157q60 0 86.5 -29.5t26.5 -91.5v-6q0 -56 -65 -121l-697 -727l563 2q47 0 70.5 -26t17.5 -70q-15 -88 -112 -88h-699
q-59 0 -85.5 31t-26.5 92v4q0 59 65 121l697 727l-523 -2q-47 0 -70.5 26t-17.5 70q15 88 113 88h657z" />
    <glyph glyph-name="Zcaron" unicode="&#x17d;" horiz-adv-x="1327" 
d="M774 1712l-215 221q-42 45 4 97q41 47 92 12l195 -160l237 160q62 37 93 -17q27 -50 -27 -92l-279 -221q-29 -20 -53 -20q-27 0 -47 20zM1278 1628q66 0 96 -34.5t21 -100.5q-6 -49 -20.5 -80t-47.5 -65l-1044 -1139l843 2q52 0 77.5 -30t17.5 -83q-12 -98 -123 -98h-996
q-66 0 -96 34.5t-20 100.5q6 50 20.5 81t46.5 65l1045 1138l-803 -2q-52 0 -77 30t-17 83q14 98 123 98h954z" />
    <glyph glyph-name="zcaron" unicode="&#x17e;" horiz-adv-x="1032" 
d="M569 1303l-215 221q-44 44 2 96q43 49 95 12l194 -157l238 157q60 35 90 -14q29 -48 -25 -94l-280 -221q-28 -21 -52 -21q-26 0 -47 21zM913 1157q60 0 86.5 -29.5t26.5 -91.5v-6q0 -56 -65 -121l-697 -727l563 2q47 0 70.5 -26t17.5 -70q-15 -88 -112 -88h-699
q-59 0 -85.5 31t-26.5 92v4q0 59 65 121l697 727l-523 -2q-47 0 -70.5 26t-17.5 70q15 88 113 88h657z" />
    <glyph glyph-name="uni018F" unicode="&#x18f;" horiz-adv-x="1488" 
d="M883 1649q297 0 453.5 -175t115.5 -462l-55 -406q-38 -282 -243.5 -454t-500.5 -172q-293 0 -446.5 170t-116.5 450l31 225q7 54 39.5 82.5t85.5 28.5h954l8 61q28 196 -70 315.5t-286 119.5q-105 0 -207 -49.5t-186 -153.5q-17 -16 -38.5 -27t-52 -16t-59.5 8
q-32 14 -46 42.5t-10 58t19 53.5q87 138 254.5 219.5t356.5 81.5zM684 197q185 0 315 116t156 305l14 105h-819l-14 -109q-26 -190 67 -303.5t281 -113.5z" />
    <glyph glyph-name="florin" unicode="&#x192;" horiz-adv-x="1234" 
d="M1200 1628q52 0 77 -30t17 -82q-14 -99 -123 -99h-12q-134 0 -228 -82.5t-114 -216.5l-26 -182h313q52 0 77 -31t17 -84q-14 -98 -125 -98h-311l-33 -227q-32 -224 -196.5 -360t-403.5 -136h-29q-50 0 -74 30.5t-18 82.5q14 98 125 98h10q136 0 230 82.5t114 216.5
l29 213h-311q-52 0 -76 31t-18 84q14 98 125 98h311l26 197q32 224 197.5 359.5t405.5 135.5h24z" />
    <glyph glyph-name="uni01C7" unicode="&#x1c7;" horiz-adv-x="1425" 
d="M260 723q-107 0 -92 108l14 105l82 586q9 59 43.5 91t89.5 32q56 0 83 -32.5t18 -90.5l-82 -586h282q52 0 77.5 -31t17.5 -84q-12 -98 -125 -98h-408zM1311 1645q58 0 85.5 -32t18.5 -91l-141 -1012q-34 -239 -208.5 -384.5t-428.5 -145.5q-173 0 -297 88t-162 241
q-19 56 3.5 95.5t70.5 60.5q98 41 145 -47q75 -221 271 -221q145 0 243.5 88.5t120.5 236.5l139 1000q9 59 45.5 91t94.5 32z" />
    <glyph glyph-name="Scommaaccent" unicode="&#x218;" horiz-adv-x="1384" 
d="M602 -20q-200 0 -346.5 73t-194.5 213q-18 43 3 87.5t77 68.5q35 17 64 11.5t44.5 -17t26.5 -27.5q119 -203 359 -203q172 0 287.5 73.5t134.5 193.5l2 12q8 56 -10 98t-49.5 66.5t-90.5 43.5t-108 28.5t-128 21.5q-106 16 -161.5 27t-141 42.5t-125 73t-65 115.5
t-10.5 174l4 29q31 209 215 337t455 128q184 0 315 -72t195 -203q25 -40 1 -85.5t-81 -67.5q-92 -37 -131 30q-102 191 -334 191q-163 0 -271.5 -68t-125.5 -178l-2 -12q-9 -56 10 -98.5t48.5 -66.5t92 -43.5t107.5 -28t130 -21.5q106 -16 161.5 -27t141.5 -42t126 -72
t65.5 -115t10.5 -174l-5 -27q-34 -220 -224 -354.5t-472 -134.5zM459 -432q-80 28 -37 113l76 159q57 112 147 76q93 -37 27 -127l-88 -166q-29 -41 -58.5 -55t-66.5 0z" />
    <glyph glyph-name="scommaaccent" unicode="&#x219;" horiz-adv-x="1105" 
d="M461 -20q-150 0 -270 55t-162 151q-16 36 10.5 76.5t87.5 59.5q71 19 109 -29q39 -61 107 -93t151 -32q116 0 193.5 46t88.5 120q7 47 -13.5 78.5t-60.5 47t-93.5 24.5t-113 16t-118.5 16t-110.5 29t-89.5 51t-54.5 87t-5.5 132l4 21q24 162 162.5 252t353.5 90
q143 0 250.5 -52.5t148.5 -146.5q18 -36 -7 -76.5t-85 -58.5q-73 -20 -108 28q-75 129 -230 129q-109 0 -180.5 -44t-81.5 -117q-7 -46 13.5 -77t61 -46t94.5 -24t114 -15.5t119.5 -16t111.5 -30t90 -52t55 -88t5 -133.5l-2 -20q-26 -168 -173.5 -263t-371.5 -95zM322 -432
q-80 28 -37 113l75 159q58 112 148 76q93 -37 27 -127l-89 -166q-30 -41 -59 -55t-65 0z" />
    <glyph glyph-name="uni021A" unicode="&#x21a;" horiz-adv-x="1255" 
d="M1264 1628q52 0 76 -30t18 -82q-14 -99 -125 -99h-369l-184 -1311q-9 -59 -45 -90.5t-94 -31.5q-59 0 -86.5 32t-18.5 90l185 1311h-371q-52 0 -76 30t-18 83q14 98 125 98h983zM575 -84q93 -37 27 -127l-88 -166q-29 -41 -58.5 -55t-66.5 0q-80 28 -37 113l76 159
q57 112 147 76z" />
    <glyph glyph-name="uni021B" unicode="&#x21b;" horiz-adv-x="755" 
d="M715 1157q46 0 69 -27.5t17 -72.5q-12 -86 -113 -86h-196l-95 -666q-7 -54 20.5 -86.5t80.5 -32.5h61q46 0 69 -27.5t17 -72.5q-12 -86 -113 -86h-86q-146 0 -224.5 80.5t-59.5 212.5l94 678h-94q-45 0 -68.5 27.5t-15.5 72.5q12 86 110 86h101l30 209q7 57 41.5 88
t90.5 31q55 0 79.5 -30.5t16.5 -88.5l-29 -209h197zM338 -84q93 -37 27 -127l-89 -166q-30 -41 -59 -55t-65 0q-80 28 -37 113l75 159q58 112 148 76z" />
    <glyph glyph-name="uni0237" unicode="&#x237;" horiz-adv-x="505" 
d="M-33 -436q-55 0 -85.5 25t-24.5 69q7 58 65 86q108 40 121 141l166 1168q8 59 42 90t91 31q56 0 81.5 -31.5t18.5 -89.5l-166 -1184q-20 -135 -107 -220t-202 -85z" />
    <glyph glyph-name="uni0259" unicode="&#x259;" horiz-adv-x="1179" 
d="M666 1178q234 0 357.5 -135.5t92.5 -358.5l-29 -211q-29 -222 -190 -357.5t-393 -135.5q-230 0 -352 135t-91 358l13 100q8 47 36.5 73t75.5 26h697l2 16q19 138 -49 222.5t-197 84.5q-170 0 -287 -129q-53 -49 -114 -30q-56 19 -70.5 60.5t12.5 74.5q68 98 198.5 152.5
t287.5 54.5zM530 162q128 0 216.5 85t107.5 224l4 35h-559l-6 -35q-19 -140 46 -224.5t191 -84.5z" />
    <glyph glyph-name="circumflex" unicode="&#x2c6;" horiz-adv-x="913" 
d="M254 1321q-34 52 22 96l279 221q27 21 51 21q26 0 47 -21l219 -221q42 -42 -2 -92q-44 -53 -96 -16l-192 159l-238 -159q-60 -35 -90 12z" />
    <glyph glyph-name="caron" unicode="&#x2c7;" horiz-adv-x="913" 
d="M553 1282q-26 0 -47 21l-215 221q-44 44 2 96q42 48 94 12l195 -157l237 157q60 35 90 -14t-24 -94l-281 -221q-28 -21 -51 -21z" />
    <glyph glyph-name="breve" unicode="&#x2d8;" horiz-adv-x="913" 
d="M555 1290q-130 0 -208 70t-83 188q-3 41 23 69t69 28q27 0 45.5 -16t24.5 -42q20 -131 154 -131q127 0 188 131q12 26 34.5 42t49.5 16q44 0 63 -27.5t5 -69.5q-40 -118 -138 -188t-227 -70z" />
    <glyph glyph-name="dotaccent" unicode="&#x2d9;" horiz-adv-x="462" 
d="M344 1374q-56 0 -82 27.5t-20 73.5l8 67q16 103 131 103q55 0 81.5 -28.5t20.5 -74.5l-8 -67q-8 -48 -41.5 -74.5t-89.5 -26.5z" />
    <glyph glyph-name="ring" unicode="&#x2da;" horiz-adv-x="813" 
d="M498 1223q-120 0 -184 58t-50 153l4 36q15 96 94.5 153.5t198.5 57.5q118 0 182 -58t50 -153l-7 -36q-14 -96 -92 -153.5t-196 -57.5zM514 1352q51 0 86.5 25t40.5 63l4 24q5 39 -22.5 63.5t-79.5 24.5t-86.5 -24.5t-40.5 -63.5l-2 -24q-6 -39 21 -63.5t79 -24.5z" />
    <glyph glyph-name="ogonek" unicode="&#x2db;" horiz-adv-x="696" 
d="M260 -436q-115 0 -178.5 59.5t-52.5 151.5l2 8q12 101 120 186.5t267 124.5l6 -92q-68 -37 -111 -80.5t-47 -81.5v-8q-8 -61 76 -86q55 -12 73 -29.5t15 -56.5q-9 -96 -158 -96h-12z" />
    <glyph glyph-name="tilde" unicode="&#x2dc;" horiz-adv-x="1093" 
d="M434 1407q-29 -19 -46.5 -21t-41.5 15q-56 46 -4 98q112 115 229 115q51 0 129 -37t119 -37q48 0 90 29q33 19 51.5 22t43.5 -14q26 -19 27.5 -45t-23.5 -53q-110 -113 -230 -113q-52 0 -130 37t-120 37q-43 0 -94 -33z" />
    <glyph glyph-name="hungarumlaut" unicode="&#x2dd;" horiz-adv-x="1007" 
d="M362 1290q-83 -61 -118 -10q-38 51 37 117l215 205q40 35 75 37.5t58 -29.5q46 -66 -41 -131zM719 1290q-81 -60 -119 -10q-38 51 37 117l217 205q40 35 74.5 37.5t56.5 -29.5q46 -67 -39 -131z" />
    <glyph glyph-name="gravecomb" unicode="&#x300;" 
d="M2 1339q-35 -59 -121 -28l-332 164q-86 35 -41 118q23 40 57.5 50t74.5 -13l317 -188q80 -47 45 -103z" />
    <glyph glyph-name="acutecomb" unicode="&#x301;" 
d="M-436 1311q-90 -31 -111 28q-22 57 72 103l369 188q46 23 77.5 13t42.5 -50q25 -82 -73 -118z" />
    <glyph glyph-name="uni0302" unicode="&#x302;" 
d="M-659 1321q-34 52 22 96l279 221q27 21 51 21q26 0 47 -21l219 -221q42 -42 -2 -92q-44 -53 -96 -16l-193 159l-237 -159q-60 -35 -90 12z" />
    <glyph glyph-name="tildecomb" unicode="&#x303;" 
d="M-659 1407q-29 -19 -47 -21t-42 15q-56 46 -4 98q112 115 230 115q50 0 128 -37t120 -37q48 0 90 29q33 19 51 22t43 -14q26 -19 27.5 -45t-23.5 -53q-110 -113 -229 -113q-51 0 -129 37t-121 37t-94 -33z" />
    <glyph glyph-name="uni0304" unicode="&#x304;" 
d="M-467 1415q-42 0 -62 24t-14 66q4 39 31 59.5t70 20.5h430q43 0 63.5 -24.5t14.5 -65.5q-12 -80 -103 -80h-430z" />
    <glyph glyph-name="uni0306" unicode="&#x306;" 
d="M-358 1290q-130 0 -208 70t-83 188q-3 41 23 69t69 28q27 0 45.5 -16t24.5 -42q20 -131 153 -131q128 0 189 131q12 26 34.5 42t49.5 16q44 0 62.5 -27.5t4.5 -69.5q-40 -118 -137.5 -188t-226.5 -70z" />
    <glyph glyph-name="uni0307" unicode="&#x307;" 
d="M-119 1374q-56 0 -82 27.5t-20 73.5l8 67q16 103 131 103q55 0 81.5 -28.5t20.5 -74.5l-8 -67q-8 -48 -41.5 -74.5t-89.5 -26.5z" />
    <glyph glyph-name="uni0308" unicode="&#x308;" 
d="M-500 1374q-106 0 -96 105l8 61q6 50 38.5 77.5t86.5 27.5q106 0 96 -105l-8 -61q-6 -50 -38.5 -77.5t-86.5 -27.5zM-137 1374q-52 0 -76 27.5t-18 77.5l8 61q4 49 37.5 77t87.5 28q52 0 76 -27.5t18 -77.5l-8 -61q-5 -50 -37.5 -77.5t-87.5 -27.5z" />
    <glyph glyph-name="uni030A" unicode="&#x30a;" 
d="M-315 1223q-120 0 -184 58t-50 153l4 36q15 96 94.5 153.5t198.5 57.5q118 0 182 -58t50 -153l-7 -36q-14 -96 -92 -153.5t-196 -57.5zM-299 1352q51 0 86.5 25t40.5 63l4 24q5 39 -22.5 63.5t-79.5 24.5t-86.5 -24.5t-40.5 -63.5l-2 -24q-6 -39 21 -63.5t79 -24.5z" />
    <glyph glyph-name="uni030B" unicode="&#x30b;" 
d="M-645 1290q-83 -61 -119 -10q-38 51 37 117l215 205q40 35 75 37.5t58 -29.5q46 -66 -41 -131zM-289 1290q-81 -60 -119 -10q-38 51 37 117l217 205q40 35 74.5 37.5t56.5 -29.5q47 -68 -38 -131z" />
    <glyph glyph-name="uni030C" unicode="&#x30c;" 
d="M-360 1282q-27 0 -48 21l-215 221q-44 44 2 96q43 49 95 12l194 -157l238 157q60 35 90 -14q29 -48 -25 -94l-280 -221q-28 -21 -51 -21z" />
    <glyph glyph-name="uni0312" unicode="&#x312;" 
d="M-74 1640q39 -13 46.5 -40.5t-13.5 -71.5l-78 -182q-24 -54 -54 -72.5t-81 -3.5q-53 18 -58.5 54t29.5 85l93 174q29 42 54.5 56.5t61.5 0.5z" />
    <glyph glyph-name="uni0326" unicode="&#x326;" 
d="M-524 -432q-80 28 -37 113l76 159q57 112 147 76q93 -37 27 -127l-88 -166q-29 -41 -58.5 -55t-66.5 0z" />
    <glyph glyph-name="uni0327" unicode="&#x327;" 
d="M-377 -78q76 -19 114.5 -59.5t31.5 -95.5l-2 -15q-10 -79 -90.5 -125.5t-204.5 -46.5h-54q-77 0 -71 72q6 38 33.5 53.5t87.5 18.5q65 3 71 49q8 41 -57 61q-37 11 -46 22t1 38l96 204l156 -51z" />
    <glyph glyph-name="uni0328" unicode="&#x328;" 
d="M-436 -436q-115 0 -179 59.5t-53 151.5l2 8q12 101 120 186.5t267 124.5l7 -92q-68 -37 -111 -80.5t-47 -81.5v-8q-8 -61 76 -86q55 -12 73 -29.5t15 -56.5q-9 -96 -158 -96h-12z" />
    <glyph glyph-name="uni0335" unicode="&#x335;" 
d="M-694 733q-45 0 -68.5 25t-17.5 67q12 84 110 84h527q47 0 69.5 -25.5t16.5 -68.5q-12 -82 -111 -82h-526z" />
    <glyph glyph-name="uni0336" unicode="&#x336;" 
d="M-1503 727q-45 0 -67.5 26.5t-16.5 71.5q12 90 112 90h1287q45 0 67.5 -27t16.5 -73q-12 -88 -113 -88h-1286z" />
    <glyph glyph-name="uni0394" unicode="&#x394;" horiz-adv-x="1482" 
d="M1360 160q12 -72 -31.5 -116t-114.5 -44h-1103q-72 0 -102 45t1 115l647 1337q31 68 88.5 104.5t133.5 36.5h26q76 0 123 -36.5t59 -104.5zM860 1409l-573 -1198h809z" />
    <glyph glyph-name="uni03A9" unicode="&#x3a9;" horiz-adv-x="1599" 
d="M948 1649q304 0 463 -174t121 -459l-51 -365q-18 -139 -90.5 -253t-184.5 -187h109q57 0 84.5 -30t19.5 -83q-12 -98 -133 -98h-368q-52 0 -77.5 30t-17.5 83q7 47 31 72.5t76 56.5q120 34 202.5 142t102.5 257l51 360q28 194 -73.5 312.5t-294.5 118.5
q-192 0 -326 -118.5t-162 -312.5l-51 -360q-20 -149 32.5 -255.5t161.5 -143.5q40 -31 57.5 -62.5t10.5 -77.5v-2q-18 -100 -123 -100h-368q-56 0 -84.5 31t-20.5 82q11 98 133 98h111q-91 72 -131 186t-21 254l51 365q19 140 84 258.5t164.5 200.5t231 128t280.5 46z" />
    <glyph glyph-name="pi" unicode="&#x3c0;" horiz-adv-x="1368" 
d="M1331 1157q46 0 69 -27.5t17 -72.5q-12 -86 -112 -86h-99l-123 -867q-8 -58 -41.5 -89t-89.5 -31q-57 0 -83.5 31.5t-18.5 88.5l123 867h-475l-121 -867q-16 -120 -133 -120q-57 0 -83 31.5t-18 88.5l121 867h-98q-46 0 -69 27.5t-17 72.5q12 86 113 86h1138z" />
    <glyph glyph-name="Wgrave" unicode="&#x1e80;" horiz-adv-x="2082" 
d="M993 1841q-46 11 -60.5 40.5t5.5 72.5q19 41 53.5 54t75.5 -5l350 -135q82 -36 56 -96q-13 -31 -45.5 -41t-73.5 2zM2083 1638q109 -27 69 -141l-505 -1356q-25 -68 -76.5 -109.5t-126.5 -41.5h-29q-76 0 -116.5 41.5t-45.5 109.5l-104 1211l-444 -1211
q-23 -68 -74 -109.5t-127 -41.5h-27q-76 0 -117.5 41.5t-46.5 109.5l-127 1368q-9 119 111 133q123 13 129 -98l102 -1311l449 1262q48 143 197 143h30q150 0 156 -143l98 -1262l471 1319q36 114 154 86z" />
    <glyph glyph-name="wgrave" unicode="&#x1e81;" horiz-adv-x="1753" 
d="M793 1475q-86 35 -41 118q23 40 57 50t74 -13l317 -188q80 -47 45 -103q-35 -59 -121 -28zM1696 1169q52 -10 68.5 -49t-7.5 -94l-371 -879q-62 -157 -204 -157h-13q-144 0 -155 157l-92 762l-304 -762q-62 -157 -204 -157h-13q-138 0 -157 157l-127 891q-16 116 98 131
q58 9 93 -15.5t38 -80.5l100 -846l316 791q27 70 70 109.5t118 39.5h15q135 0 149 -155l88 -785l344 856q38 110 150 86z" />
    <glyph glyph-name="Wacute" unicode="&#x1e82;" horiz-adv-x="2082" 
d="M1057 1733q-95 -24 -107 39q-12 60 82 96l385 135q99 38 115 -49q12 -92 -84 -113zM2083 1638q109 -27 69 -141l-505 -1356q-25 -68 -76.5 -109.5t-126.5 -41.5h-29q-76 0 -116.5 41.5t-45.5 109.5l-104 1211l-444 -1211q-23 -68 -74 -109.5t-127 -41.5h-27
q-76 0 -117.5 41.5t-46.5 109.5l-127 1368q-9 119 111 133q123 13 129 -98l102 -1311l449 1262q48 143 197 143h30q150 0 156 -143l98 -1262l471 1319q36 114 154 86z" />
    <glyph glyph-name="wacute" unicode="&#x1e83;" horiz-adv-x="1753" 
d="M834 1311q-90 -31 -111 28q-22 57 72 103l368 188q46 23 78 13t43 -50q12 -40 -7.5 -70.5t-66.5 -47.5zM1696 1169q52 -10 68.5 -49t-7.5 -94l-371 -879q-62 -157 -204 -157h-13q-144 0 -155 157l-92 762l-304 -762q-62 -157 -204 -157h-13q-138 0 -157 157l-127 891
q-16 116 98 131q58 9 93 -15.5t38 -80.5l100 -846l316 791q27 70 70 109.5t118 39.5h15q135 0 149 -155l88 -785l344 856q38 110 150 86z" />
    <glyph glyph-name="Wdieresis" unicode="&#x1e84;" horiz-adv-x="2082" 
d="M1022 1743q-52 0 -76 27t-18 77l8 62q6 49 39 76.5t86 27.5q105 0 96 -104l-8 -62q-6 -50 -39 -77t-88 -27zM1386 1743q-105 0 -96 104l10 62q4 49 37.5 76.5t87.5 27.5q52 0 76.5 -27t18.5 -77l-9 -62q-4 -49 -37.5 -76.5t-87.5 -27.5zM2083 1638q109 -27 69 -141
l-505 -1356q-25 -68 -76.5 -109.5t-126.5 -41.5h-29q-76 0 -116.5 41.5t-45.5 109.5l-104 1211l-444 -1211q-23 -68 -74 -109.5t-127 -41.5h-27q-76 0 -117.5 41.5t-46.5 109.5l-127 1368q-9 119 111 133q123 13 129 -98l102 -1311l449 1262q48 143 197 143h30
q150 0 156 -143l98 -1262l471 1319q36 114 154 86z" />
    <glyph glyph-name="wdieresis" unicode="&#x1e85;" horiz-adv-x="1753" 
d="M807 1374q-106 0 -96 105l8 61q6 50 38.5 77.5t86.5 27.5q106 0 96 -105l-8 -61q-6 -50 -38.5 -77.5t-86.5 -27.5zM1169 1374q-52 0 -76 27.5t-18 77.5l8 61q4 49 37.5 77t87.5 28q52 0 76.5 -27.5t18.5 -77.5l-9 -61q-5 -50 -37.5 -77.5t-87.5 -27.5zM1696 1169
q52 -10 68.5 -49t-7.5 -94l-371 -879q-62 -157 -204 -157h-13q-144 0 -155 157l-92 762l-304 -762q-62 -157 -204 -157h-13q-138 0 -157 157l-127 891q-16 116 98 131q58 9 93 -15.5t38 -80.5l100 -846l316 791q27 70 70 109.5t118 39.5h15q135 0 149 -155l88 -785l344 856
q38 110 150 86z" />
    <glyph glyph-name="uni1E9E" unicode="&#x1e9e;" horiz-adv-x="1492" 
d="M1464 1493q-8 -81 -69 -145l-402 -424q218 0 334 -121.5t90 -315.5l-6 -43q-29 -200 -182 -322t-377 -122h-188q-52 0 -77.5 30.5t-17.5 82.5q11 98 123 98h174q121 0 203.5 67.5t97.5 176.5l4 28q15 109 -48 174.5t-183 65.5h-111q-62 0 -91.5 31t-20.5 86q0 4 2 8
q14 77 65 137l385 434l-655 -2l-182 -1311q-9 -59 -45 -90.5t-94 -31.5q-60 0 -87 31.5t-18 90.5l197 1414q7 52 39.5 80t85.5 28h931q68 0 99.5 -35t23.5 -100z" />
    <glyph glyph-name="Ygrave" unicode="&#x1ef2;" horiz-adv-x="1419" 
d="M662 1841q-46 11 -61 40.5t5 72.5q19 41 53.5 54t75.5 -5l350 -135q82 -36 56 -96q-13 -31 -45.5 -41t-73.5 2zM1430 1624q97 -59 20 -162l-608 -800l-76 -556q-9 -59 -45 -90.5t-94 -31.5q-60 0 -87.5 31.5t-19.5 90.5l78 556l-383 800q-23 51 -5 93t73 69
q109 56 155 -49l316 -680l508 680q76 105 168 49z" />
    <glyph glyph-name="ygrave" unicode="&#x1ef3;" horiz-adv-x="1103" 
d="M467 1475q-86 35 -41 118q23 40 57 50t74 -13l317 -188q80 -48 46 -103q-35 -59 -121 -28zM1051 1165q50 -18 64 -56.5t-13 -94.5l-570 -1120q-75 -152 -199.5 -241t-273.5 -89q-45 0 -66.5 26t-15.5 72q4 43 29 65.5t66 22.5q67 0 129 42t98 110l61 121l-239 1007
q-27 112 86 137q124 29 145 -80l168 -794l377 792q52 116 154 80z" />
    <glyph glyph-name="endash" unicode="&#x2013;" horiz-adv-x="1083" 
d="M201 496q-45 0 -67.5 26.5t-16.5 71.5q12 88 110 88h658q47 0 70.5 -27t15.5 -71q-12 -88 -111 -88h-659z" />
    <glyph glyph-name="emdash" unicode="&#x2014;" horiz-adv-x="1769" 
d="M201 496q-45 0 -67.5 26.5t-16.5 71.5q12 88 110 88h1344q47 0 70.5 -26.5t17.5 -71.5q-15 -88 -113 -88h-1345z" />
    <glyph glyph-name="quoteleft" unicode="&#x2018;" horiz-adv-x="468" 
d="M469 1636q80 -21 51 -110l-98 -297q-19 -59 -58 -83t-94 -11q-56 14 -70 52t15 95l129 289q44 83 125 65z" />
    <glyph glyph-name="quoteright" unicode="&#x2019;" horiz-adv-x="458" 
d="M244 1135q-39 9 -52.5 38.5t-1.5 71.5l101 297q15 58 54.5 82t96.5 12q55 -13 69.5 -52.5t-13.5 -94.5l-131 -289q-44 -83 -123 -65z" />
    <glyph glyph-name="quotesinglbase" unicode="&#x201a;" horiz-adv-x="481" 
d="M23 -238q-80 20 -54 111l101 297q36 121 151 94q54 -14 69 -52t-14 -95l-131 -289q-44 -84 -122 -66z" />
    <glyph glyph-name="quotedblleft" unicode="&#x201c;" horiz-adv-x="802" 
d="M469 1636q80 -21 51 -110l-98 -297q-19 -59 -58 -83t-94 -11q-56 14 -70 52t15 95l129 289q44 83 125 65zM803 1636q80 -21 51 -110l-98 -297q-19 -59 -58 -83t-94 -11q-56 14 -70 52t15 95l129 289q44 83 125 65z" />
    <glyph glyph-name="quotedblright" unicode="&#x201d;" horiz-adv-x="792" 
d="M244 1135q-39 9 -52.5 38.5t-1.5 71.5l101 297q15 58 54.5 82t96.5 12q55 -13 69.5 -52.5t-13.5 -94.5l-131 -289q-44 -83 -123 -65zM578 1135q-39 9 -52.5 38.5t-1.5 71.5l101 297q15 58 54.5 82t96.5 12q55 -13 69.5 -52.5t-14.5 -94.5l-131 -289q-44 -83 -122 -65z
" />
    <glyph glyph-name="quotedblbase" unicode="&#x201e;" horiz-adv-x="815" 
d="M23 -238q-80 20 -54 111l101 297q36 121 151 94q54 -14 69 -52t-14 -95l-131 -289q-44 -84 -122 -66zM356 -238q-79 20 -53 111l100 297q17 59 56 83t96 11q54 -14 69 -52t-14 -95l-131 -289q-44 -84 -123 -66z" />
    <glyph glyph-name="dagger" unicode="&#x2020;" horiz-adv-x="731" 
d="M692 1415q38 0 56.5 -17.5t15.5 -47.5q-9 -62 -88 -62h-139l-54 -383q-5 -37 -27 -57.5t-59 -20.5q-35 0 -51.5 20.5t-11.5 57.5l53 383h-137q-38 0 -56.5 18t-13.5 48q6 61 86 61h140l18 137q6 37 28.5 57.5t57.5 20.5t52 -20.5t11 -57.5l-18 -137h137z" />
    <glyph glyph-name="daggerdbl" unicode="&#x2021;" horiz-adv-x="774" 
d="M715 1415q37 0 55 -17t14 -48q-9 -62 -88 -62h-426q-36 0 -55 18t-14 48q6 61 86 61h139l18 137q6 37 28.5 57.5t57.5 20.5q37 0 53.5 -20.5t10.5 -57.5l-19 -137h140zM680 1167q37 0 55.5 -17t14.5 -48q-9 -62 -88 -62h-140l-18 -135q-4 -37 -27.5 -57.5t-58.5 -20.5
t-51.5 20.5t-10.5 57.5l17 135h-137q-36 0 -55.5 18.5t-14.5 47.5q6 61 86 61h428z" />
    <glyph glyph-name="bullet" unicode="&#x2022;" horiz-adv-x="753" 
d="M344 346q-106 0 -161.5 62t-41.5 163l4 25q12 101 86.5 163t180.5 62q105 0 159.5 -61.5t40.5 -163.5l-2 -25q-13 -101 -86.5 -163t-179.5 -62z" />
    <glyph glyph-name="ellipsis" unicode="&#x2026;" horiz-adv-x="1357" 
d="M154 -16q-127 0 -115 120l6 48q6 58 45 89t103 31q124 0 112 -120l-6 -48q-6 -58 -44.5 -89t-100.5 -31zM598 -16q-127 0 -115 120l6 48q6 58 45 89t103 31q125 0 113 -120l-7 -48q-6 -58 -44.5 -89t-100.5 -31zM1044 -16q-126 0 -114 120l6 48q6 58 44.5 89t102.5 31
q125 0 113 -120l-6 -48q-6 -58 -45 -89t-101 -31z" />
    <glyph glyph-name="perthousand" unicode="&#x2030;" horiz-adv-x="2416" 
d="M412 805q-141 0 -217.5 79t-59.5 208l37 262q17 128 116.5 207t241.5 79q144 0 220 -79t57 -207l-35 -262q-19 -129 -117.5 -208t-242.5 -79zM422 55q-54 -76 -123 -32q-65 41 -12 116l1032 1436q55 74 121 31q66 -41 12 -117zM434 963q63 0 108 38t52 99l33 243
q9 63 -23.5 101.5t-95.5 38.5t-107 -38.5t-53 -101.5l-33 -243q-9 -62 23.5 -99.5t95.5 -37.5zM1210 -10q-141 0 -217 78.5t-59 207.5l37 263q17 128 116.5 207t241.5 79q144 0 220 -79t57 -207l-35 -263q-19 -129 -117.5 -207.5t-243.5 -78.5zM1956 -10q-141 0 -217.5 78.5
t-59.5 207.5l37 263q17 127 116.5 206.5t242.5 79.5q144 0 219.5 -79t56.5 -207l-35 -263q-19 -129 -117.5 -207.5t-242.5 -78.5zM1233 147q63 0 108 38.5t52 99.5l32 243q9 63 -23 101.5t-95 38.5t-107 -38.5t-53 -101.5l-33 -243q-9 -62 23.5 -100t95.5 -38zM1978 147
q63 0 108 38.5t52 99.5l33 243q9 63 -23.5 101.5t-95.5 38.5t-107 -38.5t-53 -101.5l-32 -243q-9 -62 23 -100t95 -38z" />
    <glyph glyph-name="guilsinglleft" unicode="&#x2039;" horiz-adv-x="1136" 
d="M1073 963q7 -46 -15.5 -80.5t-72.5 -51.5l-678 -243l608 -242q47 -17 60.5 -51t-8.5 -78q-22 -45 -60 -58.5t-84 7.5l-690 295q-86 38 -74 129q15 90 109 127l774 297q52 20 87 6.5t44 -57.5z" />
    <glyph glyph-name="guilsinglright" unicode="&#x203a;" horiz-adv-x="1134" 
d="M1006 717q88 -37 73 -127q-12 -93 -108 -129l-774 -295q-52 -21 -87 -7.5t-42 58.5q-9 45 13 78.5t73 50.5l677 244l-608 241q-46 17 -59.5 51.5t8.5 80.5q22 44 59.5 57.5t83.5 -6.5z" />
    <glyph glyph-name="fraction" unicode="&#x2044;" horiz-adv-x="186" 
d="M-322 55q-54 -76 -122 -32q-66 42 -13 116l1032 1436q55 74 121 31q67 -42 13 -117z" />
    <glyph glyph-name="lira" unicode="&#x20a4;" horiz-adv-x="1505" 
d="M231 889q-41 0 -60.5 24t-14.5 66q12 80 100 80h104l66 463q8 59 43.5 91t93.5 32q60 0 87.5 -32t19.5 -91l-66 -463h504q43 0 63.5 -24.5t14.5 -65.5q-15 -80 -101 -80h-854zM1315 408q55 -18 66.5 -64.5t-21.5 -85.5q-88 -130 -228 -194t-311 -64h-499q-54 0 -78.5 28
t-16.5 81l68 491h-105q-41 0 -61 24.5t-14 65.5q12 80 100 80h854q41 0 60.5 -24t13.5 -66q-9 -80 -99 -80h-505l-56 -389h367q93 0 179 42.5t153 123.5q60 56 133 31z" />
    <glyph glyph-name="Euro" unicode="&#x20ac;" horiz-adv-x="1501" 
d="M1473 1391q25 -42 1.5 -94t-83.5 -70q-85 -29 -125 26q-54 94 -121.5 136.5t-159.5 42.5q-161 0 -275.5 -102t-140.5 -271h504q43 0 63.5 -24.5t14.5 -65.5q-15 -80 -100 -80h-854q-41 0 -61 24t-15 66q12 80 100 80h105v6q37 263 226.5 423.5t463.5 160.5
q163 0 285 -67.5t172 -190.5zM1286 410q35 -13 52.5 -37t17 -50t-14.5 -49q-86 -143 -234 -218.5t-323 -75.5q-275 0 -419.5 157.5t-110.5 417.5l6 45h-104q-41 0 -61.5 24.5t-14.5 65.5q12 80 100 80h854q41 0 60.5 -24t13.5 -66q-9 -80 -98 -80h-506l-4 -33
q-23 -166 64 -268t251 -102q99 0 187 44.5t149 137.5q50 65 135 31z" />
    <glyph glyph-name="uni20B1" unicode="&#x20b1;" horiz-adv-x="1550" 
d="M1509 1438q49 0 72.5 -29.5t15.5 -77.5q-14 -94 -116 -94h-68q-1 -6 -2 -19.5t-2 -19.5l-6 -45l-6 -37h67q48 0 71 -29t17 -77q-12 -95 -116 -95h-131q-72 -91 -183.5 -141.5t-244.5 -50.5h-351l-86 -617q-9 -59 -45 -90.5t-94 -31.5q-60 0 -87 31.5t-19 90.5l114 809
h-88q-49 0 -72.5 29.5t-17.5 79.5q15 92 119 92h86l18 121h-90q-49 0 -71.5 29.5t-14.5 79.5q12 92 117 92h86l12 82q7 52 39.5 80t85.5 28h486q132 0 228 -50t142 -140h135zM1161 1186q12 105 -42 168t-158 63h-336l-68 -481h336q105 0 179.5 64t86.5 167z" />
    <glyph glyph-name="uni20B9" unicode="&#x20b9;" horiz-adv-x="1337" 
d="M1341 1628q41 0 61 -24t15 -66q-12 -78 -100 -78h-1028q-41 0 -61.5 24t-14.5 64q12 80 98 80h1030zM1300 1339q41 0 61.5 -24.5t14.5 -65.5q-11 -78 -100 -78h-92l-2 -18q-22 -154 -120.5 -262.5t-248.5 -147.5l176 -604q17 -53 -3.5 -88t-78.5 -57q-54 -20 -97 0
t-58 74l-189 655h-368q-47 0 -69.5 28t-14.5 74q14 88 110 88h459q104 0 177.5 64t88.5 168l4 26h-702q-41 0 -61 24.5t-15 64.5q11 79 100 79h1028z" />
    <glyph glyph-name="uni20BD" unicode="&#x20bd;" horiz-adv-x="1443" 
d="M1067 1628q207 0 319 -118.5t84 -311.5l-6 -45q-26 -193 -171 -311.5t-355 -118.5h-733q-49 0 -72.5 28t-15.5 78q15 95 116 95h89l84 596q15 108 124 108h537zM1225 1186q12 104 -43 167.5t-158 63.5h-389l-68 -481h389q105 0 180 64t87 167zM973 602q49 0 71.5 -28
t16.5 -76q-12 -97 -117 -97h-452l-41 -295q-8 -59 -44 -90.5t-96 -31.5q-58 0 -85 31.5t-19 90.5l41 295h-88q-49 0 -72.5 28.5t-15.5 78.5q12 94 116 94h785z" />
    <glyph glyph-name="uni20BF" unicode="&#x20bf;" horiz-adv-x="1486" 
d="M1122 1624q173 -23 262.5 -137.5t63.5 -286.5l-4 -37q-15 -111 -83 -195t-177 -130q113 -45 167.5 -137.5t37.5 -217.5l-7 -45q-25 -187 -160 -306t-329 -130l-12 -92q-9 -58 -43 -89.5t-90 -31.5q-57 0 -83.5 32t-17.5 89l12 90h-108l-12 -90q-9 -58 -43 -89.5
t-90 -31.5q-57 0 -83.5 32t-17.5 89l12 90h-131q-54 0 -78 28t-16 81l197 1411q7 52 39.5 80t85.5 28h133l12 90q9 58 43 89.5t90 31.5q57 0 83.5 -32t17.5 -89l-13 -90h109l12 90q9 58 43 89.5t90 31.5q57 0 83.5 -32t17.5 -89zM1202 1186q12 105 -43 168t-160 63h-479
l-67 -481h481q106 0 180 63.5t86 167.5zM1145 479q14 109 -41.5 176.5t-159.5 67.5h-522l-72 -512h520q105 0 181.5 68t89.5 176z" />
    <glyph glyph-name="trademark" unicode="&#x2122;" horiz-adv-x="1437" 
d="M1354 1632q45 0 66 -25.5t14 -70.5l-68 -485q-12 -78 -84 -78q-73 0 -61 80l55 356l-166 -225q-33 -47 -66 -47t-53 47l-102 227l-45 -358q-9 -80 -82 -80q-75 0 -66 78l70 485q6 45 34.5 70.5t71.5 25.5h9q64 0 90 -67l102 -230l164 230q44 67 109 67h8zM715 1565
q-3 -30 -24 -47t-54 -17h-117l-63 -450q-12 -78 -86 -78q-36 0 -53 20t-11 58l64 450h-115q-33 0 -49.5 17t-11.5 47q9 63 77 63h381q68 0 62 -63z" />
    <glyph glyph-name="oneeighth" unicode="&#x215b;" horiz-adv-x="1597" 
d="M307 1317q-32 -25 -60.5 -22.5t-47.5 30.5q-41 60 28 111l209 155q48 37 105 37h8q55 0 80.5 -34.5t17.5 -86.5l-86 -608q-6 -44 -32.5 -68t-69.5 -24t-62.5 24t-13.5 68l76 531zM1356 1606q66 -41 12 -117l-1030 -1434q-54 -76 -123 -32q-65 41 -12 116l1032 1436
q55 74 121 31zM1237 825q134 0 206.5 -65t57.5 -170v-12q-18 -106 -129 -160q116 -61 101 -178v-9q-17 -110 -112.5 -175.5t-240.5 -65.5q-144 0 -221 66t-63 177l2 9q15 115 147 176q-95 56 -80 162l2 12q15 104 106 168.5t224 64.5zM1090 573q-6 -37 22 -60.5t78 -23.5
t82.5 22.5t40.5 61.5l2 11q7 37 -21.5 60.5t-79.5 23.5q-49 0 -81.5 -22.5t-40.5 -61.5zM1288 246q6 43 -26.5 67.5t-92.5 24.5q-59 0 -99 -25t-46 -69v-6q-6 -41 26.5 -67t90.5 -26q60 0 100 26.5t45 68.5z" />
    <glyph glyph-name="threeeighths" unicode="&#x215c;" horiz-adv-x="1638" 
d="M739 1040q-15 -106 -107.5 -170.5t-228.5 -64.5q-94 0 -163 34t-99 103q-11 26 8 55t62 43q63 18 88 -14q47 -70 121 -70q59 0 97.5 25.5t45.5 69.5l2 10q6 40 -23.5 66t-82.5 26h-8q-32 0 -48.5 22.5t-11.5 59.5q12 70 78 70h2q51 0 84 22t39 62l2 8q7 41 -22 65.5
t-82 24.5q-72 0 -127 -55q-48 -35 -99 -13q-35 15 -42.5 44t14.5 55q94 122 280 122q130 0 202.5 -64t57.5 -163l-4 -24q-18 -107 -139 -158q123 -52 108 -170zM1413 1606q66 -41 12 -117l-1030 -1434q-54 -76 -123 -32q-65 41 -12 116l1032 1436q55 74 121 31zM1294 825
q134 0 207 -65t58 -170v-12q-18 -106 -129 -160q115 -61 100 -178v-9q-17 -110 -112 -175.5t-240 -65.5q-144 0 -221.5 66t-63.5 177l2 9q15 115 147 176q-94 56 -79 162l2 12q15 104 105.5 168.5t223.5 64.5zM1147 573q-6 -37 22 -60.5t78 -23.5t82.5 22.5t40.5 61.5l2 11
q7 37 -21 60.5t-79 23.5q-49 0 -82 -23t-41 -61zM1346 246q6 43 -26.5 67.5t-92.5 24.5t-100 -25t-46 -69v-6q-6 -41 26.5 -67t90.5 -26q60 0 100 26.5t45 68.5z" />
    <glyph glyph-name="fiveeighths" unicode="&#x215d;" horiz-adv-x="1632" 
d="M737 1047q-15 -110 -108 -177t-230 -67q-92 0 -161 32t-97 99q-12 27 5.5 55.5t62.5 46.5q35 12 56.5 7.5t31.5 -19.5q40 -68 121 -68q57 0 96 27.5t45 71.5l2 12q6 45 -23.5 71.5t-86.5 26.5h-185q-41 0 -58 22.5t-7 63.5l80 301q21 74 98 74h326q38 0 56 -21.5
t13 -58.5q-12 -73 -92 -73h-242l-41 -152h111q120 0 184 -69t47 -179zM1405 1606q66 -41 12 -117l-1030 -1434q-54 -76 -123 -32q-65 41 -12 116l1032 1436q55 74 121 31zM1286 825q134 0 206.5 -65t57.5 -170v-12q-18 -106 -129 -160q116 -61 101 -178v-9
q-17 -110 -112.5 -175.5t-240.5 -65.5q-144 0 -221 66t-63 177l2 9q15 115 147 176q-95 56 -80 162l2 12q15 104 106 168.5t224 64.5zM1139 573q-6 -37 22 -60.5t78 -23.5t82.5 22.5t40.5 61.5l2 11q7 37 -21 60.5t-79 23.5q-49 0 -82 -23t-41 -61zM1337 246q6 43 -26 67.5
t-92 24.5t-100 -25t-46 -69v-6q-6 -41 26.5 -67t90.5 -26q60 0 100 26.5t45 68.5z" />
    <glyph glyph-name="seveneighths" unicode="&#x215e;" horiz-adv-x="1595" 
d="M258 1477q-38 0 -57 21t-13 58q9 72 93 72h395q50 0 73.5 -26t18.5 -74q-7 -52 -37 -107l-334 -557q-52 -86 -129 -45q-78 40 -26 121l321 537h-305zM1364 1606q66 -41 12 -117l-1030 -1434q-54 -76 -123 -32q-65 41 -12 116l1032 1436q55 74 121 31zM1245 825
q134 0 206.5 -65t57.5 -170v-12q-18 -106 -129 -160q116 -61 101 -178v-9q-17 -110 -112.5 -175.5t-240.5 -65.5q-144 0 -221 66t-63 177l2 9q15 115 147 176q-95 56 -80 162l2 12q15 104 106 168.5t224 64.5zM1098 573q-6 -37 22 -60.5t78 -23.5t82.5 22.5t40.5 61.5l2 11
q7 37 -21 60.5t-79 23.5q-49 0 -82 -23t-41 -61zM1296 246q6 43 -26 67.5t-92 24.5t-100 -25t-46 -69v-6q-6 -41 26.5 -67t90.5 -26q60 0 100 26.5t45 68.5z" />
    <glyph glyph-name="arrowleft" unicode="&#x2190;" horiz-adv-x="1740" 
d="M1589 936q53 0 81 -27.5t28 -79.5q0 -106 -109 -106h-1128l350 -342q78 -75 8 -145q-32 -34 -71 -32.5t-76 38.5l-590 587l590 588q37 37 76 38.5t71 -30.5q73 -73 -8 -147l-348 -342h1126z" />
    <glyph glyph-name="arrowup" unicode="&#x2191;" horiz-adv-x="1413" 
d="M1352 1059q75 -79 6 -148q-32 -34 -71.5 -31.5t-76.5 40.5l-342 350v-1176q0 -110 -104 -110q-107 0 -107 110v1176l-342 -350q-37 -38 -75 -40.5t-70 31.5q-35 34 -33 72.5t39 75.5l588 590z" />
    <glyph glyph-name="arrowright" unicode="&#x2192;" horiz-adv-x="1736" 
d="M1139 1417l590 -588l-590 -587q-37 -37 -76.5 -38.5t-71.5 32.5q-73 69 6 145l351 342h-1127q-108 0 -108 106q0 107 108 107h1127l-351 342q-38 36 -39 75t33 72q32 32 71.5 30.5t76.5 -38.5z" />
    <glyph glyph-name="arrowdown" unicode="&#x2193;" horiz-adv-x="1415" 
d="M1313 717q34 -34 31.5 -72.5t-39.5 -75.5l-588 -589l-588 589q-36 37 -37.5 76t31.5 72q34 35 72 32.5t75 -40.5l342 -351v1176q0 54 27 82.5t78 28.5q106 0 106 -111v-1176l342 351q37 38 75.5 40t72.5 -32z" />
    <glyph glyph-name="partialdiff" unicode="&#x2202;" horiz-adv-x="1212" 
d="M434 1642q140 -12 260.5 -66.5t212.5 -148t151.5 -224t77.5 -294t-10 -358.5l-12 -84q-32 -220 -197.5 -353.5t-404.5 -133.5q-240 0 -369 135.5t-100 349.5l8 61q29 219 179 353.5t364 134.5q195 0 307 -115q-36 222 -173 360t-345 171q-49 8 -72.5 39t-9.5 85
q27 99 133 88zM877 512q17 129 -52 207t-198 78q-132 0 -223.5 -78t-108.5 -207l-4 -31q-17 -129 51.5 -206.5t200.5 -77.5q131 0 222.5 78t106.5 206z" />
    <glyph glyph-name="emptyset" unicode="&#x2205;" horiz-adv-x="1245" 
d="M1155 1042l-84 -90q109 -134 82 -344l-8 -61q-31 -224 -195 -361t-401 -137q-148 0 -256 57l-88 -94q-60 -63 -117 -16q-59 47 2 117l84 92q-104 132 -80 342l8 61q26 223 192 360.5t402 137.5q147 0 258 -57l84 92q66 69 123 18q27 -23 25.5 -54t-31.5 -63zM328 557
q-12 -97 18 -168l449 485q-56 27 -127 27q-131 0 -223 -82t-111 -217zM918 602q14 87 -17 164l-450 -485q55 -27 127 -27q130 0 220.5 82.5t112.5 218.5z" />
    <glyph glyph-name="product" unicode="&#x220f;" horiz-adv-x="1501" 
d="M1509 1804q52 0 76.5 -30t18.5 -82q-14 -101 -123 -101h-90l-234 -1654q-7 -60 -42.5 -91.5t-94.5 -31.5q-122 0 -107 123l234 1654h-506l-233 -1654q-18 -123 -140 -123q-59 0 -86 31.5t-18 91.5l231 1654h-86q-53 0 -78.5 31t-17.5 84q14 98 125 98h1171z" />
    <glyph glyph-name="summation" unicode="&#x2211;" horiz-adv-x="1353" 
d="M1341 1804q52 0 76.5 -30t16.5 -82q-11 -99 -123 -99l-803 2l440 -645q41 -58 33 -114q-6 -55 -66 -115l-647 -688l844 2q52 0 77 -30t19 -83q-14 -98 -125 -98h-979q-72 0 -106 34t-27 99q4 46 20.5 79.5t51.5 67.5l688 730l-469 690q-46 62 -31 147q13 64 59 98.5
t118 34.5h933z" />
    <glyph glyph-name="minus" unicode="&#x2212;" horiz-adv-x="1155" 
d="M150 496q-47 0 -68.5 25.5t-15.5 70.5q4 44 33 67t77 23h834q46 0 68.5 -26t15.5 -70q-6 -44 -35.5 -67t-75.5 -23h-833z" />
    <glyph glyph-name="radical" unicode="&#x221a;" horiz-adv-x="1251" 
d="M1339 1812q107 -39 56 -149l-809 -1698q-69 -151 -211 -151h-21q-75 0 -117 40t-53 111l-145 746q-18 113 92 137q123 23 137 -86l127 -727l787 1706q50 109 157 71z" />
    <glyph glyph-name="infinity" unicode="&#x221e;" horiz-adv-x="1839" 
d="M1366 1051q203 0 312 -119.5t81 -315.5l-8 -51q-28 -194 -170 -314t-344 -120q-129 0 -221.5 53t-132.5 148q-68 -95 -173.5 -148t-232.5 -53q-204 0 -312.5 120t-80.5 314l8 51q28 196 169 315.5t345 119.5q128 0 220.5 -53t134.5 -148q69 95 173.5 148t231.5 53z
M803 608q11 104 -43.5 166t-159.5 62t-178 -62t-88 -164l-4 -37q-14 -102 41.5 -164.5t160.5 -62.5t180 63t87 164zM1513 610q14 102 -41 164t-159 62q-106 0 -180 -63t-86 -165l-5 -35q-12 -102 42 -164.5t159 -62.5q104 0 177.5 63t88.5 164z" />
    <glyph glyph-name="integral" unicode="&#x222b;" horiz-adv-x="1040" 
d="M-18 -176q-52 0 -77 27t-18 79q6 51 37.5 79t85.5 28h10q136 0 229.5 81.5t112.5 215.5l138 975q32 223 197.5 359t404.5 136h22q109 0 97 -106q-6 -51 -38 -79t-85 -28h-13q-135 0 -229 -81.5t-113 -215.5l-137 -975q-32 -223 -196.5 -359t-403.5 -136h-24z" />
    <glyph glyph-name="approxequal" unicode="&#x2248;" horiz-adv-x="1249" 
d="M274 688q-32 -32 -54.5 -37.5t-49.5 13.5q-55 48 -6 106q66 86 151.5 135t167.5 49q52 0 107 -24t95 -52.5t88.5 -52.5t88.5 -24q92 0 172 86q34 30 55.5 35.5t47.5 -13.5q55 -48 8 -106q-70 -85 -156 -135t-166 -50q-52 0 -108 24t-96 53t-89.5 53t-89.5 24
q-85 0 -166 -84zM223 336q-32 -32 -54 -38t-48 15q-54 47 -6 107q70 85 154 133.5t165 48.5q51 0 106 -23.5t95 -52t89 -52t89 -23.5q88 0 172 84q34 31 54.5 36.5t47.5 -14.5q57 -47 9 -104q-67 -86 -153.5 -135.5t-168.5 -49.5q-52 0 -108 24t-96 53t-89.5 53t-89.5 24
q-88 0 -168 -86z" />
    <glyph glyph-name="notequal" unicode="&#x2260;" horiz-adv-x="1157" 
d="M1030 838q47 0 70.5 -26t17.5 -71q-7 -44 -36.5 -67t-75.5 -23h-261l-110 -121h354q46 0 68 -26t16 -70q-12 -90 -110 -90h-500l-227 -246q-61 -64 -119 -16q-60 47 4 117l135 145h-127q-46 0 -68 26t-16 70q4 44 33.5 67t77.5 23h270l113 121h-367q-45 0 -67.5 26
t-16.5 71q4 44 33 67t76 23h514l215 233q30 33 61.5 38t59.5 -19q28 -23 27 -54t-32 -63l-124 -135h112z" />
    <glyph glyph-name="equivalence" unicode="&#x2261;" horiz-adv-x="1495" 
d="M309 1130q-108 0 -108 107q0 104 108 104h942q111 0 111 -104q0 -107 -111 -107h-942zM309 723q-108 0 -108 106q0 107 108 107h942q111 0 111 -107q0 -106 -111 -106h-942zM309 317q-52 0 -80 27t-28 78q0 106 108 106h942q111 0 111 -106q0 -51 -28.5 -78t-82.5 -27
h-942z" />
    <glyph glyph-name="lessequal" unicode="&#x2264;" horiz-adv-x="1155" 
d="M1055 1100q50 12 81 -17t29 -77q-1 -35 -27 -62t-63 -33l-690 -186l637 -188q31 -6 50.5 -37t12.5 -66q-9 -47 -49.5 -72.5t-85.5 -13.5l-776 258q-48 13 -72 47.5t-18 75.5q4 39 32 67.5t68 39.5zM961 246q45 0 67 -25.5t16 -70.5q-6 -44 -34.5 -67.5t-75.5 -23.5h-846
q-46 0 -69 26.5t-17 70.5t35.5 67t77.5 23h846z" />
    <glyph glyph-name="greaterequal" unicode="&#x2265;" horiz-adv-x="1155" 
d="M1034 840q46 -12 69 -47t17 -76q-6 -39 -33.5 -66.5t-68.5 -38.5l-842 -256q-66 -18 -104.5 11t-32.5 79q4 35 30 60t60 31l690 188l-635 184q-33 7 -52.5 38t-14.5 67q8 46 49 72t88 14zM954 246q47 0 68.5 -25.5t15.5 -70.5q-4 -44 -33 -67.5t-75 -23.5h-846
q-47 0 -70.5 26.5t-15.5 70.5q6 44 35.5 67t75.5 23h845z" />
    <glyph glyph-name="triagup" unicode="&#x25b2;" horiz-adv-x="1413" 
d="M236 350q-38 0 -50.5 21.5t7.5 52.5l471 815q19 32 43 32t43 -32l471 -815q20 -31 7.5 -52.5t-50.5 -21.5h-942z" />
    <glyph glyph-name="uni25B4" unicode="&#x25b4;" horiz-adv-x="1413" 
d="M446 293q-38 0 -50 22t7 54l261 448q19 32 43 32t43 -32l260 -448q19 -32 6.5 -54t-49.5 -22h-521z" />
    <glyph glyph-name="uni25B6" unicode="&#x25b6;" horiz-adv-x="1411" 
d="M342 315q-32 -20 -54 -7t-22 50v942q0 37 22 49.5t54 -6.5l817 -471q31 -19 31 -43t-31 -43z" />
    <glyph glyph-name="uni25B8" unicode="&#x25b8;" horiz-adv-x="1413" 
d="M524 287q-32 -20 -53.5 -7.5t-21.5 48.5v522q0 37 21.5 49.5t53.5 -6.5l451 -260q31 -19 31 -44t-31 -44z" />
    <glyph glyph-name="triagdn" unicode="&#x25bc;" horiz-adv-x="1413" 
d="M750 420q-19 -32 -43 -32t-43 32l-471 815q-20 31 -7.5 52.5t50.5 21.5h942q38 0 50.5 -21.5t-7.5 -52.5z" />
    <glyph glyph-name="uni25BE" unicode="&#x25be;" horiz-adv-x="1413" 
d="M750 362q-19 -31 -43 -31t-43 31l-261 451q-19 31 -6.5 52.5t49.5 21.5h521q37 0 49.5 -21.5t-6.5 -52.5z" />
    <glyph glyph-name="uni25C0" unicode="&#x25c0;" horiz-adv-x="1413" 
d="M1147 358q0 -37 -22 -50t-54 7l-817 471q-31 19 -31 43t31 43l817 471q32 19 54 6.5t22 -49.5v-942z" />
    <glyph glyph-name="uni25C2" unicode="&#x25c2;" horiz-adv-x="1411" 
d="M965 328q0 -36 -22 -48.5t-54 7.5l-451 258q-31 19 -31 44t31 44l451 260q32 19 54 6.5t22 -49.5v-522z" />
    <glyph glyph-name="lozenge" unicode="&#x25ca;" horiz-adv-x="1103" 
d="M891 1481l170 -574q18 -79 -23 -157l-336 -603q-37 -72 -89.5 -111.5t-131.5 -39.5h-22q-145 0 -180 151l-166 603q-18 83 22 157l330 574q39 72 91.5 111.5t131.5 39.5h25q79 0 119 -39t59 -112zM500 211l342 616l-172 592l-338 -592z" />
    <glyph glyph-name="uni2605" unicode="&#x2605;" horiz-adv-x="1413" 
d="M1026 403q14 -43 -7 -58t-58 11l-254 185l-254 -185q-37 -26 -58.5 -11t-7.5 58l98 299l-254 187q-37 26 -28 51t53 25h313l97 301q9 28 25 38t32 0t25 -38l96 -301h313q44 0 53 -25t-28 -51l-254 -187z" />
    <glyph glyph-name="uni276E" unicode="&#x276e;" horiz-adv-x="1060" 
d="M856 381q78 -75 8 -145t-147 6l-590 587l590 588q37 37 75 38.5t72 -30.5q69 -73 -8 -147l-457 -449z" />
    <glyph glyph-name="uni276F" unicode="&#x276f;" horiz-adv-x="1060" 
d="M344 1417l590 -588l-590 -587q-76 -76 -147 -6q-70 70 8 145l457 448l-457 449q-77 74 -8 147q34 32 72 30.5t75 -38.5z" />
    <glyph glyph-name="uni2913" unicode="&#x2913;" horiz-adv-x="1884" 
d="M942 309l-463 465q-32 34 -33.5 69t27.5 64q31 31 66 29.5t67 -35.5l242 -248v893q0 46 24.5 72.5t69.5 26.5q47 0 71.5 -26.5t24.5 -72.5v-893l242 248q32 34 68 35.5t65 -29.5q31 -29 29.5 -64t-35.5 -69zM1640 164q43 0 66 -21t23 -61t-23 -61t-66 -21h-1394
q-88 0 -88 82t88 82h1394z" />
    <glyph glyph-name="uniF8FF" unicode="&#xf8ff;" horiz-adv-x="2607" 
d="M154 -20q-15 0 -25 10.5t-10 25.5q0 21 10 31l700 698h-663q-47 0 -47 39q0 16 14 33l696 701h-669q-41 0 -41 38v3q0 38 41 38h758q47 0 47 -41q0 -20 -17 -34l-698 -697h676q17 0 29 -12t12 -29v-669l694 692q13 16 35 16q37 0 37 -45v-663l696 692q13 16 33 16
q15 0 25 -12t10 -27q0 -18 -13 -28l-753 -762q-14 -14 -35 -14q-41 0 -41 47v663l-694 -696q-14 -14 -35 -14q-41 0 -41 47v663l-697 -696q-14 -14 -34 -14z" />
    <glyph glyph-name="uni00A40301" horiz-adv-x="1271" 
d="M1075 1731q-97 -25 -106 38q-12 60 82 97l280 100q47 19 78 7t37 -54q6 -43 -16.5 -73t-69.5 -40zM483 -20q-173 0 -296.5 88t-161.5 241q-19 56 3 95.5t70 60.5q99 42 146 -47q75 -221 270 -221q145 0 244 88.5t121 236.5l139 1000q9 59 45 91t94 32q59 0 86.5 -32.5
t18.5 -90.5l-142 -1012q-34 -239 -208.5 -384.5t-428.5 -145.5z" />
    <glyph glyph-name="a.ss01" horiz-adv-x="1257" 
d="M1106 1174q51 0 74 -31.5t16 -89.5l-135 -949q-16 -120 -121 -120q-52 0 -77 30.5t-19 87.5l8 62q-71 -88 -172.5 -136t-222.5 -48q-207 0 -314.5 132t-79.5 349l31 235q29 217 176 349.5t355 132.5q120 0 209 -48t137 -137l8 62q22 119 127 119zM549 184
q131 0 222.5 82.5t111.5 218.5l26 189q19 135 -50 217t-200 82t-222.5 -82t-110.5 -217l-27 -189q-19 -136 49.5 -218.5t200.5 -82.5z" />
    <glyph glyph-name="aacute.ss01" horiz-adv-x="1257" 
d="M578 1311q-90 -31 -111 28q-22 57 72 103l368 188q46 23 78 13t43 -50q12 -40 -7.5 -70.5t-66.5 -47.5zM1106 1174q51 0 74 -31.5t16 -89.5l-135 -949q-16 -120 -121 -120q-52 0 -77 30.5t-19 87.5l8 62q-71 -88 -172.5 -136t-222.5 -48q-207 0 -314.5 132t-79.5 349
l31 235q29 217 176 349.5t355 132.5q120 0 209 -48t137 -137l8 62q22 119 127 119zM549 184q131 0 222.5 82.5t111.5 218.5l26 189q19 135 -50 217t-200 82t-222.5 -82t-110.5 -217l-27 -189q-19 -136 49.5 -218.5t200.5 -82.5z" />
    <glyph glyph-name="abreve.ss01" horiz-adv-x="1257" 
d="M719 1294q-130 0 -208 70t-83 188q-3 41 23 69t69 28q27 0 45.5 -16t24.5 -42q20 -131 153 -131q128 0 189 131q12 26 34.5 42t49.5 16q44 0 62.5 -27.5t4.5 -69.5q-40 -118 -137.5 -188t-226.5 -70zM1106 1174q51 0 74 -31.5t16 -89.5l-135 -949q-16 -120 -121 -120
q-52 0 -77 30.5t-19 87.5l8 62q-71 -88 -172.5 -136t-222.5 -48q-207 0 -314.5 132t-79.5 349l31 235q29 217 176 349.5t355 132.5q120 0 209 -48t137 -137l8 62q22 119 127 119zM549 184q131 0 222.5 82.5t111.5 218.5l26 189q19 135 -50 217t-200 82t-222.5 -82
t-110.5 -217l-27 -189q-19 -136 49.5 -218.5t200.5 -82.5z" />
    <glyph glyph-name="acircumflex.ss01" horiz-adv-x="1257" 
d="M508 1309q-60 -35 -90 12q-34 52 22 96l279 221q27 21 51 21q26 0 47 -21l219 -221q42 -42 -2 -92q-44 -53 -96 -16l-193 159zM1106 1174q51 0 74 -31.5t16 -89.5l-135 -949q-16 -120 -121 -120q-52 0 -77 30.5t-19 87.5l8 62q-71 -88 -172.5 -136t-222.5 -48
q-207 0 -314.5 132t-79.5 349l31 235q29 217 176 349.5t355 132.5q120 0 209 -48t137 -137l8 62q22 119 127 119zM549 184q131 0 222.5 82.5t111.5 218.5l26 189q19 135 -50 217t-200 82t-222.5 -82t-110.5 -217l-27 -189q-19 -136 49.5 -218.5t200.5 -82.5z" />
    <glyph glyph-name="adieresis.ss01" horiz-adv-x="1257" 
d="M551 1374q-106 0 -96 105l8 61q6 50 38.5 77.5t86.5 27.5q106 0 96 -105l-8 -61q-6 -50 -38.5 -77.5t-86.5 -27.5zM913 1374q-52 0 -76 27.5t-18 77.5l8 61q4 49 37.5 77t87.5 28q52 0 76.5 -27.5t18.5 -77.5l-9 -61q-5 -50 -37.5 -77.5t-87.5 -27.5zM1106 1174
q51 0 74 -31.5t16 -89.5l-135 -949q-16 -120 -121 -120q-52 0 -77 30.5t-19 87.5l8 62q-71 -88 -172.5 -136t-222.5 -48q-207 0 -314.5 132t-79.5 349l31 235q29 217 176 349.5t355 132.5q120 0 209 -48t137 -137l8 62q22 119 127 119zM549 184q131 0 222.5 82.5
t111.5 218.5l26 189q19 135 -50 217t-200 82t-222.5 -82t-110.5 -217l-27 -189q-19 -136 49.5 -218.5t200.5 -82.5z" />
    <glyph glyph-name="agrave.ss01" horiz-adv-x="1257" 
d="M537 1475q-86 35 -41 118q23 40 57 50t74 -13l317 -188q80 -47 45 -103q-35 -59 -121 -28zM1106 1174q51 0 74 -31.5t16 -89.5l-135 -949q-16 -120 -121 -120q-52 0 -77 30.5t-19 87.5l8 62q-71 -88 -172.5 -136t-222.5 -48q-207 0 -314.5 132t-79.5 349l31 235
q29 217 176 349.5t355 132.5q120 0 209 -48t137 -137l8 62q22 119 127 119zM549 184q131 0 222.5 82.5t111.5 218.5l26 189q19 135 -50 217t-200 82t-222.5 -82t-110.5 -217l-27 -189q-19 -136 49.5 -218.5t200.5 -82.5z" />
    <glyph glyph-name="amacron.ss01" horiz-adv-x="1257" 
d="M522 1415q-42 0 -62 24t-14 66q4 39 31 59.5t70 20.5h430q43 0 63.5 -24.5t14.5 -65.5q-12 -80 -103 -80h-430zM1106 1174q51 0 74 -31.5t16 -89.5l-135 -949q-16 -120 -121 -120q-52 0 -77 30.5t-19 87.5l8 62q-71 -88 -172.5 -136t-222.5 -48q-207 0 -314.5 132
t-79.5 349l31 235q29 217 176 349.5t355 132.5q120 0 209 -48t137 -137l8 62q22 119 127 119zM549 184q131 0 222.5 82.5t111.5 218.5l26 189q19 135 -50 217t-200 82t-222.5 -82t-110.5 -217l-27 -189q-19 -136 49.5 -218.5t200.5 -82.5z" />
    <glyph glyph-name="aogonek.ss01" horiz-adv-x="1255" 
d="M1106 1174q51 0 74 -31.5t16 -89.5l-135 -949q-9 -72 -53 -102q-68 -37 -111 -80.5t-47 -81.5v-8q-8 -61 76 -86q55 -12 73 -29.5t15 -56.5q-9 -96 -158 -96h-12q-115 0 -179 59.5t-53 151.5l2 8q9 74 71.5 142t162.5 116q-7 27 -4 61l8 62q-71 -88 -172.5 -136
t-222.5 -48q-207 0 -314.5 132t-79.5 349l31 235q29 217 176 349.5t355 132.5q120 0 209 -48t137 -137l8 62q22 119 127 119zM549 184q131 0 222.5 82.5t111.5 218.5l26 189q19 135 -50 217t-200 82t-222.5 -82t-110.5 -217l-27 -189q-19 -136 49.5 -218.5t200.5 -82.5z" />
    <glyph glyph-name="aring.ss01" horiz-adv-x="1257" 
d="M711 1223q-120 0 -184 58t-50 153l4 36q15 96 94.5 153.5t198.5 57.5q118 0 182 -58t50 -153l-7 -36q-14 -96 -92 -153.5t-196 -57.5zM627 1440q-6 -39 21 -63.5t79 -24.5q51 0 86.5 25t40.5 63l4 24q5 39 -22.5 63.5t-79.5 24.5t-86.5 -24.5t-40.5 -63.5zM1106 1174
q51 0 74 -31.5t16 -89.5l-135 -949q-16 -120 -121 -120q-52 0 -77 30.5t-19 87.5l8 62q-71 -88 -172.5 -136t-222.5 -48q-207 0 -314.5 132t-79.5 349l31 235q29 217 176 349.5t355 132.5q120 0 209 -48t137 -137l8 62q22 119 127 119zM549 184q131 0 222.5 82.5
t111.5 218.5l26 189q19 135 -50 217t-200 82t-222.5 -82t-110.5 -217l-27 -189q-19 -136 49.5 -218.5t200.5 -82.5z" />
    <glyph glyph-name="atilde.ss01" horiz-adv-x="1257" 
d="M418 1401q-56 46 -4 98q112 115 229 115q51 0 129 -37t119 -37q48 0 90 29q33 19 51 22t43 -14q26 -19 27.5 -45t-23.5 -53q-110 -113 -229 -113q-52 0 -130 37t-120 37q-43 0 -94 -33q-29 -19 -46.5 -21t-41.5 15zM1106 1174q51 0 74 -31.5t16 -89.5l-135 -949
q-16 -120 -121 -120q-52 0 -77 30.5t-19 87.5l8 62q-71 -88 -172.5 -136t-222.5 -48q-207 0 -314.5 132t-79.5 349l31 235q29 217 176 349.5t355 132.5q120 0 209 -48t137 -137l8 62q22 119 127 119zM549 184q131 0 222.5 82.5t111.5 218.5l26 189q19 135 -50 217t-200 82
t-222.5 -82t-110.5 -217l-27 -189q-19 -136 49.5 -218.5t200.5 -82.5z" />
    <glyph glyph-name="i.loclTRK" horiz-adv-x="489" 
d="M358 1374q-56 0 -82 27.5t-20 73.5l8 67q16 103 131 103q55 0 82 -28.5t21 -74.5l-9 -67q-8 -48 -41.5 -74.5t-89.5 -26.5zM164 -16q-57 0 -83.5 31.5t-17.5 88.5l134 949q8 59 42 90t91 31t82.5 -31t17.5 -90l-133 -949q-19 -120 -133 -120z" />
    <glyph glyph-name="uni006A0301" horiz-adv-x="505" 
d="M303 1331q-92 -42 -117 17q-22 57 62 110l248 160q44 28 78 23t49 -42q27 -79 -64 -122zM-33 -436q-55 0 -85.5 25t-24.5 69q7 58 65 86q108 40 121 141l166 1168q8 59 42 90t91 31q56 0 81.5 -31.5t18.5 -89.5l-166 -1184q-20 -135 -107 -220t-202 -85z" />
    <glyph glyph-name="l.ss01" horiz-adv-x="489" 
d="M162 -16q-55 0 -82 31.5t-19 88.5l201 1420q8 57 42 89t91 32t83 -32t18 -89l-201 -1420q-16 -120 -133 -120z" />
    <glyph glyph-name="lacute.ss01" horiz-adv-x="493" 
d="M313 1731q-97 -25 -106 38q-12 60 82 97l280 100q47 19 78 7t37 -54q6 -43 -16.5 -73t-69.5 -40zM162 -16q-55 0 -82 31.5t-19 88.5l201 1420q8 57 42 89t91 32t83 -32t18 -89l-201 -1420q-16 -120 -133 -120z" />
    <glyph glyph-name="lcaron.ss01" horiz-adv-x="608" 
d="M696 1194q-37 -87 -102 -74q-64 13 -37 103l98 340q12 47 46 70t75 12q41 -9 54.5 -40.5t-5.5 -78.5zM162 -16q-55 0 -82 31.5t-19 88.5l201 1420q8 57 42 89t91 32t83 -32t18 -89l-201 -1420q-16 -120 -133 -120z" />
    <glyph glyph-name="lcommaaccent.ss01" horiz-adv-x="491" 
d="M162 -16q-55 0 -82 31.5t-19 88.5l201 1420q8 57 42 89t91 32t83 -32t18 -89l-201 -1420q-16 -120 -133 -120zM0 -432q-80 28 -37 113l76 159q57 112 147 76q93 -37 27 -127l-88 -166q-29 -41 -58.5 -55t-66.5 0z" />
    <glyph glyph-name="lslash.ss01" horiz-adv-x="632" 
d="M623 909q9 -41 -10.5 -67.5t-67.5 -44.5l-86 -33l-94 -660q-8 -58 -42 -89t-92 -31q-55 0 -81.5 31.5t-18.5 88.5l82 580l-35 -12q-39 -15 -64.5 2.5t-33.5 58.5q-7 42 11.5 69t66.5 44l82 31l92 647q8 57 42 89t91 32q56 0 82 -31.5t18 -89.5l-80 -568l23 9
q46 17 76 1.5t39 -57.5z" />
    <glyph glyph-name="y.ss01" horiz-adv-x="1224" 
d="M1063 1174q57 0 82.5 -31t17.5 -90l-145 -1035q-29 -206 -188.5 -332t-391.5 -126q-295 0 -381 166q-23 31 -6.5 76.5t70.5 70.5q64 30 100 -10q91 -115 244 -115q132 0 223.5 78.5t110.5 206.5l20 145q-139 -158 -358 -158q-191 0 -291 119t-72 314l86 600q7 58 41 89.5
t90 31.5q57 0 83.5 -31.5t19.5 -89.5l-80 -566q-17 -118 43 -190t176 -72q114 0 195 72t98 190l80 566q8 59 42 90t91 31z" />
    <glyph glyph-name="yacute.ss01" horiz-adv-x="1224" 
d="M573 1311q-89 -30 -110 28q-22 57 72 103l368 188q46 23 78 13t43 -50q12 -40 -7.5 -70.5t-66.5 -47.5zM1063 1174q57 0 82.5 -31t17.5 -90l-145 -1035q-29 -206 -188.5 -332t-391.5 -126q-295 0 -381 166q-23 31 -6.5 76.5t70.5 70.5q64 30 100 -10q91 -115 244 -115
q132 0 223.5 78.5t110.5 206.5l20 145q-139 -158 -358 -158q-191 0 -291 119t-72 314l86 600q7 58 41 89.5t90 31.5q57 0 83.5 -31.5t19.5 -89.5l-80 -566q-17 -118 43 -190t176 -72q114 0 195 72t98 190l80 566q8 59 42 90t91 31z" />
    <glyph glyph-name="ycircumflex.ss01" horiz-adv-x="1224" 
d="M504 1309q-60 -35 -90 12q-34 52 22 96l279 221q27 21 51 21q26 0 47 -21l219 -221q42 -42 -2 -92q-44 -53 -96 -16l-193 159zM1063 1174q57 0 82.5 -31t17.5 -90l-145 -1035q-29 -206 -188.5 -332t-391.5 -126q-295 0 -381 166q-23 31 -6.5 76.5t70.5 70.5
q64 30 100 -10q91 -115 244 -115q132 0 223.5 78.5t110.5 206.5l20 145q-139 -158 -358 -158q-191 0 -291 119t-72 314l86 600q7 58 41 89.5t90 31.5q57 0 83.5 -31.5t19.5 -89.5l-80 -566q-17 -118 43 -190t176 -72q114 0 195 72t98 190l80 566q8 59 42 90t91 31z" />
    <glyph glyph-name="ydieresis.ss01" horiz-adv-x="1224" 
d="M547 1374q-106 0 -96 105l8 61q6 50 38.5 77.5t86.5 27.5q106 0 96 -105l-8 -61q-6 -50 -38.5 -77.5t-86.5 -27.5zM909 1374q-52 0 -76 27.5t-18 77.5l8 61q4 49 37.5 77t87.5 28q52 0 76 -27.5t18 -77.5l-8 -61q-5 -50 -37.5 -77.5t-87.5 -27.5zM1063 1174
q57 0 82.5 -31t17.5 -90l-145 -1035q-29 -206 -188.5 -332t-391.5 -126q-295 0 -381 166q-23 31 -6.5 76.5t70.5 70.5q64 30 100 -10q91 -115 244 -115q132 0 223.5 78.5t110.5 206.5l20 145q-139 -158 -358 -158q-191 0 -291 119t-72 314l86 600q7 58 41 89.5t90 31.5
q57 0 83.5 -31.5t19.5 -89.5l-80 -566q-17 -118 43 -190t176 -72q114 0 195 72t98 190l80 566q8 59 42 90t91 31z" />
    <glyph glyph-name="ygrave.ss01" horiz-adv-x="1224" 
d="M530 1475q-86 35 -41 118q23 40 57.5 50t74.5 -13l317 -188q80 -47 45 -103q-35 -59 -121 -28zM1063 1174q57 0 82.5 -31t17.5 -90l-145 -1035q-29 -206 -188.5 -332t-391.5 -126q-295 0 -381 166q-23 31 -6.5 76.5t70.5 70.5q64 30 100 -10q91 -115 244 -115
q132 0 223.5 78.5t110.5 206.5l20 145q-139 -158 -358 -158q-191 0 -291 119t-72 314l86 600q7 58 41 89.5t90 31.5q57 0 83.5 -31.5t19.5 -89.5l-80 -566q-17 -118 43 -190t176 -72q114 0 195 72t98 190l80 566q8 59 42 90t91 31z" />
    <glyph glyph-name="uni00CD00A40301" horiz-adv-x="1427" 
d="M322 1731q-98 -25 -107 38q-12 60 82 97l281 100q47 19 77.5 7t36.5 -54q6 -43 -16.5 -73t-69.5 -40zM1231 1731q-98 -25 -107 38q-12 60 82 97l281 100q47 19 78 7t37 -54q6 -43 -16.5 -73t-69.5 -40zM270 709q-56 0 -81.5 31t-18.5 89l98 693q9 59 43.5 91t89.5 32
q56 0 83 -32.5t18 -90.5l-99 -693q-18 -120 -133 -120zM639 -20q-173 0 -297 88t-162 241q-19 56 3.5 95.5t70.5 60.5q98 41 145 -47q75 -221 271 -221q145 0 243.5 88.5t120.5 236.5l140 1000q9 59 45 91t94 32t85.5 -32t18.5 -91l-141 -1012q-34 -239 -208.5 -384.5
t-428.5 -145.5z" />
    <glyph glyph-name="f_f_l.ss01" horiz-adv-x="1953" 
d="M1858 1645q56 0 82 -31.5t18 -89.5l-201 -1420q-16 -120 -133 -120q-55 0 -81.5 31.5t-18.5 88.5l200 1420q8 57 42.5 89t91.5 32zM1415 1157q47 0 69.5 -26.5t16.5 -71.5q-12 -88 -112 -88h-197l-123 -867q-8 -58 -41.5 -89t-89.5 -31q-57 0 -83.5 31.5t-18.5 88.5
l122 867h-460l-123 -867q-8 -58 -41.5 -89t-89.5 -31q-57 0 -84 31.5t-19 88.5l123 867h-96q-45 0 -67.5 26.5t-16.5 71.5q12 88 111 88h96l22 164q19 138 125 222.5t260 84.5h90q46 0 69 -27t17 -71q-15 -88 -112 -88h-66q-60 0 -101 -37.5t-50 -97.5l-21 -150h461l23 164
q19 138 125 222.5t260 84.5h90q46 0 69 -27t17 -71q-15 -88 -113 -88h-65q-60 0 -101.5 -37.5t-50.5 -97.5l-20 -150h196z" />
    <glyph glyph-name="f_t" horiz-adv-x="1458" 
d="M1417 1157q46 0 69 -27.5t17 -72.5q-12 -86 -112 -86h-197l-94 -666q-7 -54 20 -86.5t80 -32.5h62q46 0 69 -27.5t17 -72.5q-12 -86 -113 -86h-86q-146 0 -225 80.5t-60 212.5l94 678h-460l-123 -867q-8 -58 -41.5 -89t-89.5 -31q-57 0 -84 31.5t-19 88.5l123 867h-96
q-45 0 -67.5 26.5t-16.5 71.5q12 88 111 88h96l22 164q19 138 125 222.5t260 84.5h90q46 0 69 -27t17 -71q-15 -88 -112 -88h-66q-60 0 -101 -37.5t-50 -97.5l-21 -150h467l31 209q8 57 42 88t89 31t79.5 -30.5t16.5 -88.5l-28 -209h196z" />
    <glyph glyph-name="fl.ss01" horiz-adv-x="1259" 
d="M1163 1645q57 0 83 -32t18 -89l-201 -1420q-16 -120 -133 -120q-55 0 -82 31.5t-19 88.5l201 1420q8 57 42 89t91 32zM721 1157q47 0 69.5 -26.5t16.5 -71.5q-12 -88 -113 -88h-196l-123 -867q-8 -58 -41.5 -89t-89.5 -31q-57 0 -84 31.5t-19 88.5l123 867h-96
q-45 0 -67.5 26.5t-16.5 71.5q12 88 111 88h96l22 164q19 138 125 222.5t260 84.5h90q46 0 69 -27t17 -71q-15 -88 -112 -88h-66q-60 0 -101 -37.5t-50 -97.5l-21 -150h197z" />
    <glyph glyph-name="t_f" horiz-adv-x="1431" 
d="M1477 1628q46 0 69 -27t17 -71q-15 -88 -113 -88h-66q-60 0 -101 -37.5t-50 -97.5l-21 -150h197q47 0 69.5 -26.5t16.5 -71.5q-12 -88 -113 -88h-196l-123 -867q-8 -58 -41.5 -89t-89.5 -31q-57 0 -84 31.5t-19 88.5l123 867h-460l-95 -666q-7 -54 20.5 -86.5t80.5 -32.5
h61q46 0 69 -27.5t17 -72.5q-12 -86 -113 -86h-86q-146 0 -224.5 80.5t-59.5 212.5l94 678h-94q-45 0 -68.5 27.5t-15.5 72.5q12 86 110 86h101l30 209q7 57 41.5 88t90.5 31q55 0 79.5 -30.5t16.5 -88.5l-29 -209h461l22 164q19 138 125 222.5t260 84.5h91z" />
    <glyph glyph-name="t_t" horiz-adv-x="1452" 
d="M1411 1157q46 0 69 -27.5t17 -72.5q-12 -86 -113 -86h-196l-94 -666q-7 -54 20 -86.5t80 -32.5h61q46 0 69 -27.5t17 -72.5q-12 -86 -112 -86h-86q-146 0 -225 80.5t-60 212.5l94 678h-460l-95 -666q-7 -54 20.5 -86.5t80.5 -32.5h61q46 0 69 -27.5t17 -72.5
q-12 -86 -113 -86h-86q-146 0 -224.5 80.5t-59.5 212.5l94 678h-94q-45 0 -68.5 27.5t-15.5 72.5q12 86 110 86h101l30 209q7 57 41.5 88t90.5 31q55 0 79.5 -30.5t16.5 -88.5l-29 -209h467l31 209q8 57 42 88t89 31t79.5 -30.5t16.5 -88.5l-29 -209h197z" />
    <glyph glyph-name="zero.tf" horiz-adv-x="1413" 
d="M623 -20q-265 0 -406.5 153t-107.5 402l79 559q34 249 219 402t451 153q265 0 406 -153t106 -402l-78 -559q-35 -249 -219.5 -402t-449.5 -153zM653 197q156 0 264.5 96.5t131.5 255.5l75 530q23 158 -58.5 255.5t-238.5 97.5q-155 0 -264.5 -97.5t-132.5 -255.5
l-76 -530q-23 -158 60 -255t239 -97z" />
    <glyph glyph-name="one.tf" horiz-adv-x="1413" 
d="M1055 1638q75 0 110.5 -48.5t24.5 -125.5l-191 -1358q-19 -122 -139 -122q-59 0 -86 32t-18 90l174 1252l-463 -354q-92 -71 -150 12q-56 80 37 151l551 422q62 49 148 49h2z" />
    <glyph glyph-name="two.tf" horiz-adv-x="1413" 
d="M870 1649q248 0 382 -129.5t102 -341.5l-4 -29q-10 -66 -40 -133.5t-73.5 -130t-110 -131t-137.5 -130t-168 -134t-189.5 -137t-213.5 -144.5l694 2q54 0 79 -30t17 -83q-14 -98 -125 -98h-893q-64 0 -92 31t-28 92v4q0 83 100 147q130 87 224 151.5t195 138t171 131
t136.5 120t108 116t69.5 108t36 106.5l2 12q19 124 -58 202.5t-218 78.5q-219 0 -363 -197q-27 -33 -68 -43.5t-86 8.5q-48 20 -57 58t19 79q85 147 242 226.5t347 79.5z" />
    <glyph glyph-name="three.tf" horiz-adv-x="1413" 
d="M842 1649q247 0 379.5 -117.5t107.5 -314.5l-6 -48q-13 -115 -92.5 -202t-208.5 -133q127 -46 187.5 -139t43.5 -218l-6 -53q-28 -199 -203 -321.5t-430 -122.5q-187 0 -318.5 76.5t-176.5 219.5q-18 40 6 83t82 63q97 33 135 -37q83 -195 295 -195q150 0 250 67.5
t117 180.5l6 39q18 109 -57.5 175t-215.5 71q-76 5 -107 31.5t-24 81.5q7 52 39.5 72.5t99.5 27.5q137 5 229.5 68.5t104.5 164.5l4 33q14 107 -61.5 171.5t-214.5 64.5q-194 0 -332 -183q-67 -63 -147 -30q-50 21 -60 65t19 80q80 133 228.5 206t326.5 73z" />
    <glyph glyph-name="four.tf" horiz-adv-x="1413" 
d="M1202 578q52 0 77 -30t17 -83q-14 -98 -122 -98h-89l-36 -261q-9 -59 -44.5 -90.5t-93.5 -31.5t-84.5 31.5t-17.5 90.5l39 261h-660q-64 0 -93.5 35t-20.5 98q4 42 17.5 71.5t43.5 67.5l787 913q32 40 78 63t92 23h16q74 0 108.5 -40.5t24.5 -116.5l-127 -903h88z
M330 578h549l116 780z" />
    <glyph glyph-name="five.tf" horiz-adv-x="1413" 
d="M1233 1628q53 0 77.5 -30t16.5 -82q-11 -99 -123 -99h-547l-125 -452h271q235 0 359 -128t95 -339l-8 -60q-29 -207 -203.5 -332.5t-431.5 -125.5q-187 0 -318 76t-177 220q-16 40 8.5 83.5t81.5 62.5q37 14 65 9.5t44.5 -16.5t25.5 -30q68 -195 295 -195
q149 0 249.5 71.5t119.5 191.5l6 39q19 118 -60.5 189t-226.5 71h-375q-56 0 -78.5 29.5t-7.5 86.5l178 658q30 102 131 102h658z" />
    <glyph glyph-name="six.tf" horiz-adv-x="1413" 
d="M815 981q247 0 379.5 -133.5t101.5 -347.5l-6 -43q-32 -216 -213.5 -346.5t-449.5 -130.5q-267 0 -413.5 135t-115.5 348l6 43q20 127 168 346l498 719q35 53 81 67.5t93 -12.5q51 -26 57.5 -69t-30.5 -97l-367 -514q107 35 211 35zM1042 487q20 130 -63.5 208.5
t-239.5 78.5q-157 0 -262 -78.5t-125 -210.5l-2 -6q-19 -131 65 -208.5t242 -77.5q155 0 260 78t125 208v8z" />
    <glyph glyph-name="seven.tf" horiz-adv-x="1413" 
d="M1251 1628q69 0 102 -38t23 -107q-8 -70 -49 -140l-764 -1280q-67 -113 -176 -63q-52 23 -62 67t23 99l752 1253l-727 -2q-52 0 -77 30t-17 83q12 98 124 98h848z" />
    <glyph glyph-name="eight.tf" horiz-adv-x="1413" 
d="M858 1649q250 0 386 -122.5t108 -320.5l-6 -37q-15 -112 -89.5 -197.5t-197.5 -137.5q126 -52 187 -145.5t42 -215.5l-6 -35q-31 -206 -211 -332t-448 -126q-269 0 -415.5 125.5t-117.5 330.5l6 35q17 122 104.5 217t227.5 146q-107 52 -157 138t-35 199l4 37
q28 198 198 319.5t420 121.5zM1100 1200q17 104 -59.5 170t-213.5 66t-229 -65.5t-109 -170.5l-4 -33q-17 -105 59 -170t214 -65q136 0 228.5 64.5t107.5 170.5zM1038 473q14 115 -70 184.5t-239 69.5q-157 0 -263.5 -71t-119.5 -185l-2 -25q-15 -114 69 -183.5t240 -69.5
t262 69.5t119 183.5z" />
    <glyph glyph-name="nine.tf" horiz-adv-x="1413" 
d="M854 1649q267 0 413.5 -135.5t114.5 -348.5l-6 -43q-17 -129 -168 -346l-497 -719q-35 -53 -81 -67.5t-93 12.5q-50 26 -57 69t30 97l367 514q-110 -35 -211 -35q-247 0 -380 133.5t-102 347.5l6 43q32 216 214 347t450 131zM1130 1149q20 131 -64.5 209t-242.5 78
q-155 0 -259.5 -78.5t-123.5 -208.5l-2 -8q-20 -130 64 -208.5t241 -78.5q156 0 261 78.5t124 210.5z" />
    <glyph glyph-name="zero.zero" horiz-adv-x="1417" 
d="M858 1649q270 0 412.5 -154t107.5 -405l-78 -551q-35 -251 -221 -405t-456 -154q-267 0 -410.5 154.5t-108.5 404.5l76 551q35 250 222 404.5t456 154.5zM1143 1075q23 164 -63.5 265.5t-250.5 101.5q-124 0 -221 -60l426 -950q27 62 35 121zM340 553
q-23 -164 62.5 -265.5t248.5 -101.5q124 0 221 60l-423 950q-27 -62 -35 -121z" />
    <glyph glyph-name="zero.zero.tf" horiz-adv-x="1413" 
d="M858 1649q265 0 406 -155t106 -409l-78 -542q-35 -253 -219 -408t-450 -155t-406.5 155t-105.5 408l75 542q35 253 220.5 408.5t451.5 155.5zM1135 1073q25 165 -60.5 267t-247.5 102q-119 0 -219 -62l422 -938q23 57 31 113zM346 555q-25 -165 60 -267t245 -102
q119 0 219 62l-419 938q-23 -57 -31 -113z" />
    <glyph glyph-name="zero.dnom" horiz-adv-x="786" 
d="M309 -10q-141 0 -217 78.5t-59 207.5l37 263q17 128 116.5 207t241.5 79q144 0 220 -79t57 -207l-35 -263q-19 -129 -117.5 -207.5t-243.5 -78.5zM332 147q63 0 108 38.5t52 99.5l32 243q9 63 -23 101.5t-95 38.5t-107 -38.5t-53 -101.5l-33 -243q-9 -62 23.5 -100
t95.5 -38z" />
    <glyph glyph-name="one.dnom" horiz-adv-x="581" 
d="M403 813q55 0 81 -34.5t18 -86.5l-86 -608q-6 -44 -33 -68t-70 -24q-87 0 -75 92l75 530l-151 -112q-32 -25 -61 -22.5t-48 30.5q-19 27 -11.5 57t40.5 54l209 155q48 37 104 37h8z" />
    <glyph glyph-name="two.dnom" horiz-adv-x="737" 
d="M408 825q131 0 203 -70t57 -180l-2 -14q-14 -101 -111 -192.5t-299 -218.5l272 2q38 0 57 -19.5t15 -54.5q-4 -37 -29 -57.5t-63 -20.5h-432q-43 0 -64.5 23.5t-15.5 64.5q11 67 72 105q236 155 325.5 234t98.5 136q7 49 -23 79t-86 30q-77 0 -145 -68q-44 -37 -97 -10
q-36 19 -43 45.5t17 54.5q100 131 293 131z" />
    <glyph glyph-name="three.dnom" horiz-adv-x="731" 
d="M397 825q130 0 202.5 -64t57.5 -163l-4 -25q-18 -106 -139 -157q59 -25 87.5 -68.5t21.5 -101.5l-5 -21q-15 -106 -107 -170.5t-228 -64.5q-94 0 -163.5 34t-99.5 103q-11 26 8 55t62 43q63 18 88 -14q47 -70 121 -70q59 0 97.5 25.5t45.5 69.5l2 10q6 40 -23.5 66
t-82.5 26h-8q-32 0 -48.5 22.5t-11.5 59.5q12 69 78 69h2q51 0 84 22t39 62l2 9q7 41 -22 65.5t-82 24.5q-71 0 -127 -56q-47 -35 -99 -12q-35 15 -42.5 43.5t14.5 54.5q94 123 280 123z" />
    <glyph glyph-name="four.dnom" horiz-adv-x="731" 
d="M561 299q38 0 57.5 -22.5t14.5 -59.5q-12 -72 -92 -72h-11l-8 -61q-6 -44 -32.5 -68t-69.5 -24t-62 24t-12 68l10 61h-288q-38 0 -57 26.5t-13 70.5q5 55 43 104l340 414q42 53 117 53h6q58 0 85 -30.5t19 -86.5l-55 -397h8zM178 299h201l47 307z" />
    <glyph glyph-name="five.dnom" horiz-adv-x="718" 
d="M578 813q38 0 56 -21.5t13 -58.5q-13 -74 -92 -74h-242l-41 -151h111q120 0 184 -69t47 -179l-4 -27q-15 -110 -108 -176.5t-230 -66.5q-92 0 -161 32t-97 99q-12 27 5.5 55.5t62.5 46.5q35 12 56.5 7.5t31.5 -19.5q40 -68 121 -68q57 0 96 27.5t45 71.5l2 12
q6 45 -23.5 71.5t-86.5 26.5h-185q-41 0 -58 22.5t-7 63.5l80 301q21 74 98 74h326z" />
    <glyph glyph-name="six.dnom" horiz-adv-x="714" 
d="M389 498q125 0 192 -67t52 -173l-2 -14q-15 -115 -111 -184.5t-241 -69.5t-221.5 70t-59.5 186l2 14q9 62 92 193l211 311q25 40 58.5 52.5t70.5 -5.5q37 -19 42 -51t-23 -72l-140 -201q49 11 78 11zM449 248q6 47 -26.5 75.5t-92.5 28.5q-59 0 -99.5 -28.5t-46.5 -75.5
q-8 -46 24.5 -74.5t92.5 -28.5t100 28.5t48 74.5z" />
    <glyph glyph-name="seven.dnom" horiz-adv-x="655" 
d="M545 813q50 0 73.5 -26t18.5 -74q-7 -52 -37 -107l-334 -557q-52 -86 -129 -45q-78 40 -26 121l321 537h-305q-38 0 -57 21t-13 58q9 72 93 72h395z" />
    <glyph glyph-name="eight.dnom" horiz-adv-x="759" 
d="M414 825q134 0 206.5 -65t57.5 -170v-12q-18 -106 -129 -160q115 -61 100 -178v-9q-17 -110 -112 -175.5t-240 -65.5q-144 0 -221.5 66t-63.5 177l2 9q15 114 148 176q-95 56 -80 162l2 12q15 104 106 168.5t224 64.5zM266 573q-6 -37 22.5 -60.5t78.5 -23.5t82 22.5
t40 61.5l3 11q7 37 -21.5 60.5t-79.5 23.5q-49 0 -82 -23t-41 -61zM465 246q6 43 -26.5 67.5t-92.5 24.5q-59 0 -99 -25t-46 -69v-6q-6 -41 26 -67t90 -26q60 0 100.5 27t45.5 68z" />
    <glyph glyph-name="nine.dnom" horiz-adv-x="712" 
d="M387 823q145 0 221.5 -70t59.5 -186l-2 -14q-9 -60 -93 -193l-211 -311q-25 -40 -58.5 -52.5t-70.5 5.5q-37 19 -41.5 51t23.5 72l139 201q-50 -11 -78 -11q-125 0 -191.5 66.5t-51.5 173.5l2 14q15 115 111 184.5t241 69.5zM481 565q8 46 -24 74.5t-92 28.5t-100 -28.5
t-48 -74.5q-6 -47 26.5 -75.5t92.5 -28.5q59 0 99 28.5t46 75.5z" />
    <glyph glyph-name="zero.numr" horiz-adv-x="782" 
d="M422 805q-141 0 -217.5 79t-59.5 208l37 262q17 127 116.5 206.5t242.5 79.5q144 0 219.5 -79t56.5 -207l-35 -262q-19 -129 -117.5 -208t-242.5 -79zM444 963q63 0 108 38t52 99l33 243q9 63 -23.5 101.5t-95.5 38.5t-107 -38.5t-53 -101.5l-32 -243q-9 -62 23 -99.5
t95 -37.5z" />
    <glyph glyph-name="one.numr" horiz-adv-x="581" 
d="M516 1628q55 0 80.5 -34.5t17.5 -86.5l-86 -608q-6 -44 -32.5 -68t-69.5 -24t-62.5 24t-13.5 68l76 531l-152 -113q-32 -25 -60.5 -22.5t-47.5 30.5q-19 27 -11.5 57t40.5 54l208 155q48 37 105 37h8z" />
    <glyph glyph-name="two.numr" horiz-adv-x="735" 
d="M520 1640q131 0 203 -70t57 -179l-2 -15q-14 -102 -111 -193.5t-298 -217.5l272 2q38 0 57 -19.5t15 -54.5q-4 -37 -29 -57.5t-63 -20.5h-433q-43 0 -64 23.5t-15 64.5q12 68 71 105q236 155 325.5 234t98.5 136q7 49 -22.5 79t-85.5 30q-78 0 -146 -68q-43 -37 -96 -10
q-36 19 -43.5 45.5t16.5 54.5q100 131 293 131z" />
    <glyph glyph-name="three.numr" horiz-adv-x="733" 
d="M512 1640q130 0 202.5 -64t57.5 -163l-4 -24q-18 -107 -139 -158q123 -52 108 -170l-4 -21q-15 -106 -107.5 -170.5t-228.5 -64.5q-94 0 -163 34t-99 103q-11 26 8 55t62 43q63 18 88 -14q47 -70 121 -70q59 0 97.5 25.5t45.5 69.5l2 10q6 40 -23.5 66t-82.5 26h-9
q-32 0 -48 22.5t-11 59.5q12 70 78 70h2q51 0 84 22t39 62l2 8q7 41 -22.5 65.5t-82.5 24.5q-72 0 -127 -55q-47 -35 -98 -13q-35 15 -43 44t14 55q94 122 281 122z" />
    <glyph glyph-name="four.numr" horiz-adv-x="731" 
d="M674 1114q38 0 57 -22.5t14 -59.5q-12 -71 -92 -71h-10l-8 -62q-6 -44 -33 -68t-70 -24t-62 24t-11 68l10 62h-289q-38 0 -56.5 26t-12.5 70q5 55 43 104l340 414q42 53 116 53h6q58 0 85.5 -30.5t19.5 -86.5l-55 -397h8zM291 1114h201l47 307z" />
    <glyph glyph-name="five.numr" horiz-adv-x="718" 
d="M692 1626q38 0 56.5 -21.5t13.5 -58.5q-12 -73 -92 -73h-242l-41 -152h111q120 0 184 -69t47 -179l-4 -26q-15 -110 -108 -177t-230 -67q-92 0 -161 32t-97 99q-12 27 5.5 55.5t62.5 46.5q35 12 56.5 7.5t31.5 -19.5q40 -68 121 -68q57 0 96 27.5t45 71.5l2 12
q6 44 -24 71t-87 27h-184q-41 0 -58.5 22.5t-7.5 63.5l80 301q21 74 99 74h325z" />
    <glyph glyph-name="six.numr" horiz-adv-x="716" 
d="M506 1313q125 0 192 -67t52 -173l-2 -14q-15 -115 -111.5 -184.5t-241.5 -69.5q-144 0 -220.5 70t-59.5 186l2 14q9 62 92 193l211 311q25 40 58.5 52.5t70.5 -5.5q37 -19 41.5 -51t-23.5 -72l-139 -200q45 10 78 10zM565 1063q6 47 -26.5 75.5t-92.5 28.5
q-59 0 -99 -28.5t-46 -75.5q-8 -46 24.5 -74t92.5 -28t99.5 28t47.5 74z" />
    <glyph glyph-name="seven.numr" horiz-adv-x="651" 
d="M655 1628q50 0 74 -26t19 -74q-7 -52 -37 -107l-334 -557q-52 -86 -129 -45q-79 40 -27 121l322 537h-305q-38 0 -57 21t-13 58q9 72 92 72h395z" />
    <glyph glyph-name="eight.numr" horiz-adv-x="759" 
d="M528 1640q134 0 207 -65t58 -170v-12q-18 -106 -129 -160q115 -61 100 -178v-8q-17 -111 -112.5 -176.5t-239.5 -65.5t-221.5 66.5t-63.5 177.5l2 8q15 115 147 176q-94 56 -79 162l2 12q15 104 105.5 168.5t223.5 64.5zM381 1389q-6 -37 22 -60.5t78 -23.5t82.5 22.5
t40.5 61.5l2 10q7 37 -21 60.5t-79 23.5q-49 0 -82 -23t-41 -61zM580 1061q6 43 -26.5 67.5t-92.5 24.5t-100 -25t-46 -69v-6q-6 -41 26.5 -66.5t90.5 -25.5q60 0 100.5 26.5t45.5 67.5z" />
    <glyph glyph-name="nine.numr" horiz-adv-x="714" 
d="M502 1638q144 0 220.5 -70t59.5 -186l-2 -14q-9 -61 -92 -192l-211 -312q-25 -40 -58.5 -52.5t-70.5 5.5q-37 19 -41.5 51t23.5 72l139 201q-50 -11 -78 -11q-125 0 -192 67t-52 173l3 14q15 115 111 184.5t241 69.5zM596 1380q8 46 -24.5 74.5t-92.5 28.5
q-59 0 -99 -28.5t-48 -74.5q-6 -47 26.5 -75.5t92.5 -28.5q59 0 99 28.5t46 75.5z" />
    <glyph glyph-name="backslash.case" horiz-adv-x="845" 
d="M573 -219q-57 -6 -90 21.5t-39 86.5l-206 1823q-7 58 19.5 93.5t82.5 41.5q115 9 127 -108l209 -1827q6 -58 -20.5 -91.5t-82.5 -39.5z" />
    <glyph glyph-name="exclamdown.case" horiz-adv-x="552" 
d="M385 1356q-61 0 -90 31t-23 90l7 47q6 58 44.5 89.5t102.5 31.5q61 0 90 -31t23 -90l-7 -47q-6 -58 -44 -89.5t-103 -31.5zM193 -16q-57 0 -83.5 32t-17.5 90l129 926q9 60 43.5 91.5t91.5 31.5q119 0 101 -123l-129 -926q-9 -59 -43.5 -90.5t-91.5 -31.5z" />
    <glyph glyph-name="questiondown.case" horiz-adv-x="1058" 
d="M885 1645q63 0 91.5 -31t20.5 -90l-4 -47q-6 -58 -44.5 -89.5t-102.5 -31.5q-125 0 -113 121l6 47q6 58 45 89.5t101 31.5zM834 211q54 0 78 -29t16 -82q-11 -100 -123 -100h-359q-210 0 -322 118.5t-83 311.5l6 35q28 189 171.5 303.5t350.5 114.5h93l20 149
q8 60 42.5 91.5t92.5 31.5q57 0 83.5 -31.5t17.5 -91.5l-33 -229q-8 -54 -39.5 -82.5t-83.5 -28.5h-205q-104 0 -177.5 -63t-88.5 -166l-4 -27q-17 -101 39.5 -163t160.5 -62h347z" />
    <glyph glyph-name="slash.case" horiz-adv-x="641" 
d="M96 -199q-53 12 -73.5 49.5t-8.5 94.5l459 1796q13 55 49.5 77.5t89.5 8.5q54 -12 74.5 -50t5.5 -94l-456 -1794q-30 -116 -140 -88z" />
    <glyph glyph-name="comma.tf" horiz-adv-x="706" 
d="M121 -313q-83 18 -58 108l113 365q38 119 150 98q57 -10 73 -48.5t-10 -96.5l-149 -357q-37 -84 -119 -69z" />
    <glyph glyph-name="period.tf" horiz-adv-x="706" 
d="M272 -16q-124 0 -112 120l6 48q6 58 44 89t101 31q128 0 113 -120l-4 -48q-6 -58 -45 -89t-103 -31z" />
    <glyph glyph-name="braceleft.case" horiz-adv-x="819" 
d="M846 1804q49 0 72.5 -31t17.5 -85q-15 -97 -121 -97q-99 0 -165.5 -60t-78.5 -157l-41 -280q-12 -90 -67.5 -160.5t-143.5 -108.5q77 -38 112.5 -108t23.5 -160l-43 -303q-13 -99 37 -158t147 -59q50 0 75 -30.5t17 -80.5q-15 -102 -121 -102q-210 0 -318.5 112.5
t-82.5 296.5l45 328q16 102 -80 156q-66 43 -55 114q7 59 86 103q109 52 125 156l41 305q26 185 167.5 297t350.5 112z" />
    <glyph glyph-name="braceright.case" horiz-adv-x="819" 
d="M756 934q68 -44 57 -113q-6 -37 -28 -61t-60 -43q-107 -51 -123 -156l-45 -328q-26 -184 -166.5 -296.5t-351.5 -112.5q-50 0 -74 32t-16 85q14 96 119 96q98 0 165 58.5t82 158.5l43 303q12 90 67.5 159.5t143.5 108.5q-76 39 -111.5 109t-23.5 160l39 280
q14 98 -35.5 157.5t-148.5 59.5q-50 0 -75 30.5t-17 80.5q15 102 120 102q209 0 318.5 -112t83.5 -297l-41 -305q-16 -104 78 -156z" />
    <glyph glyph-name="bracketleft.case" horiz-adv-x="761" 
d="M784 1804q52 0 76.5 -30t18.5 -82q-12 -101 -123 -101h-215l-217 -1554h213q52 0 77 -31t17 -84q-14 -98 -123 -98h-350q-107 0 -95 108l248 1764q7 52 39.5 80t85.5 28h348z" />
    <glyph glyph-name="bracketright.case" horiz-adv-x="761" 
d="M670 1804q106 0 94 -108l-248 -1764q-8 -53 -39.5 -80.5t-83.5 -27.5h-350q-52 0 -76 30.5t-18 82.5q14 100 123 100h217l215 1554h-211q-52 0 -78 31t-18 84q14 98 125 98h348z" />
    <glyph glyph-name="parenleft.case" horiz-adv-x="733" 
d="M481 -176q-210 0 -318.5 112.5t-82.5 296.5l162 1162q26 185 167 297t351 112q49 0 72.5 -31.5t17.5 -84.5q-15 -97 -121 -97q-99 0 -165.5 -59.5t-80.5 -157.5l-157 -1120q-13 -99 37 -158t147 -59q50 0 74 -30t18 -81q-15 -102 -121 -102z" />
    <glyph glyph-name="parenright.case" horiz-adv-x="733" 
d="M41 -176q-51 0 -74.5 31.5t-17.5 85.5q14 96 121 96q97 0 164.5 59t82.5 158l156 1120q14 98 -35.5 157.5t-148.5 59.5q-50 0 -75 30.5t-17 80.5q15 102 122 102q209 0 318.5 -112t83.5 -297l-164 -1162q-26 -184 -166.5 -296.5t-349.5 -112.5z" />
    <glyph glyph-name="emdash.case" horiz-adv-x="1787" 
d="M250 723q-52 0 -76 31t-16 84q12 98 123 98h1323q52 0 77 -31t17 -84q-14 -98 -125 -98h-1323z" />
    <glyph glyph-name="endash.case" horiz-adv-x="1101" 
d="M250 723q-52 0 -76 31t-16 84q12 98 123 98h637q52 0 77 -31t17 -84q-14 -98 -125 -98h-637z" />
    <glyph glyph-name="hyphen.case" horiz-adv-x="845" 
d="M250 723q-52 0 -76 31t-16 84q12 98 123 98h381q54 0 78.5 -31t15.5 -84q-14 -98 -125 -98h-381z" />
    <glyph glyph-name="uni00AD.case" horiz-adv-x="845" 
d="M250 723q-52 0 -76 31t-16 84q12 98 123 98h381q54 0 78.5 -31t15.5 -84q-14 -98 -125 -98h-381z" />
    <glyph glyph-name="guillemotleft.case" horiz-adv-x="1566" 
d="M827 1200q30 -82 -71 -133l-467 -238l399 -235q90 -50 35 -133t-143 -29l-416 258q-76 47 -64 139q9 88 101 140l491 258q49 26 85.5 19.5t49.5 -46.5zM1516 1200q30 -82 -72 -133l-467 -238l399 -235q90 -50 35 -133t-143 -29l-416 258q-76 47 -64 139q9 88 101 140
l491 258q49 27 86 19.5t50 -46.5z" />
    <glyph glyph-name="guillemotright.case" horiz-adv-x="1566" 
d="M784 969q78 -49 66 -140q-15 -90 -105 -139l-489 -258q-104 -53 -135 29t72 133l466 235l-399 238q-87 51 -35 133q26 40 63.5 46.5t78.5 -19.5zM1473 969q77 -48 65 -140q-15 -91 -104 -139l-490 -258q-104 -53 -135 29t72 133l467 235l-400 238q-87 51 -35 133
q54 81 142 27z" />
    <glyph glyph-name="guilsinglleft.case" horiz-adv-x="1155" 
d="M1108 1202q8 -46 -15 -80t-73 -49l-678 -244l610 -243q46 -17 60 -51t-8 -78t-60.5 -57.5t-85.5 6.5l-690 294q-83 39 -72 129q12 92 109 127l774 297q52 21 87 7.5t42 -58.5z" />
    <glyph glyph-name="guilsinglright.case" horiz-adv-x="1155" 
d="M1055 956q88 -34 73 -127q-14 -90 -110 -129l-772 -294q-53 -20 -86.5 -6.5t-42.5 57.5q-18 94 86 129l680 243l-613 244q-44 15 -57 49t8 80q20 45 59.5 58.5t84.5 -7.5z" />
    <glyph glyph-name="space.tf" horiz-adv-x="706" 
 />
    <glyph glyph-name="cent.tf" horiz-adv-x="1413" 
d="M1243 1186q12 -35 -7.5 -75t-70.5 -56q-89 -27 -123 24q-76 129 -219 129q-129 0 -218.5 -81.5t-108.5 -215.5l-29 -196q-19 -134 49.5 -215.5t198.5 -81.5q71 0 138.5 32.5t119.5 92.5q54 54 127 26q31 -11 46 -32.5t14.5 -45t-11.5 -47.5q-45 -91 -138.5 -147
t-213.5 -76l-13 -80q-7 -60 -41.5 -91.5t-91.5 -31.5q-115 0 -100 123l12 82q-178 35 -267 164.5t-63 319.5l29 213q25 189 151.5 319t315.5 164l12 92q9 59 44 91t92 32q56 0 81.5 -32.5t16.5 -90.5l-12 -92q213 -41 280 -217z" />
    <glyph glyph-name="dollar.tf" horiz-adv-x="1413" 
d="M463 1196l-2 -10q-11 -69 13.5 -116t74.5 -72.5t117.5 -42t143 -29t150.5 -27.5t141 -44t113.5 -73t68 -119.5t5.5 -177.5l-4 -28q-28 -186 -174.5 -313t-368.5 -156l-10 -76q-19 -123 -133 -123q-57 0 -83 32t-17 91l10 76q-144 19 -248 89.5t-145 188.5q-18 43 3 87.5
t79 68.5q34 17 63 11.5t45 -17t27 -27.5q53 -101 136.5 -152t186.5 -51q158 0 264 73.5t125 193.5l3 12q10 68 -14.5 115t-74.5 72.5t-117 42t-141.5 29t-149 27.5t-140 44.5t-112.5 73.5t-68 119.5t-7 178.5l4 29q26 177 164.5 296t349.5 148l11 76q8 59 42 91t91 32
t82.5 -32t17.5 -91l-10 -76q130 -22 226 -90.5t147 -175.5q26 -40 2.5 -85.5t-80.5 -67.5q-90 -37 -133 30q-99 191 -308 191q-149 0 -249 -67.5t-117 -178.5z" />
    <glyph glyph-name="Euro.tf" horiz-adv-x="1413" 
d="M1413 1391q16 -36 -9 -80.5t-83 -63.5q-84 -28 -121 19q-96 166 -256 166q-152 0 -258.5 -96.5t-128.5 -254.5l-4 -22h453q41 0 61 -24.5t14 -65.5q-12 -80 -98 -80h-801q-42 0 -62.5 24t-15.5 66q12 80 101 80h104l6 37q34 248 216 400.5t444 152.5q155 0 275 -67
t163 -191zM1206 395q55 -16 70.5 -60.5t-10.5 -78.5q-79 -139 -217 -207.5t-308 -68.5q-262 0 -400.5 148.5t-104.5 393.5l10 78h-107q-41 0 -61.5 24.5t-14.5 65.5q12 80 101 80h801q41 0 60.5 -24t14.5 -66q-12 -80 -100 -80h-451l-10 -63q-22 -153 59 -246.5t234 -93.5
q88 0 170.5 43t136.5 125q47 53 127 30z" />
    <glyph glyph-name="florin.tf" horiz-adv-x="1413" 
d="M1288 1628q52 0 77 -30t17 -82q-14 -99 -122 -99h-13q-134 0 -228 -82.5t-114 -216.5l-26 -182h313q52 0 77 -31t17 -84q-14 -98 -125 -98h-311l-33 -227q-32 -224 -196.5 -360t-403.5 -136h-29q-50 0 -74 30.5t-18 82.5q14 98 125 98h12q134 0 228 82.5t114 216.5
l29 213h-311q-52 0 -76 31t-16 84q12 98 123 98h311l27 197q32 224 197 359.5t405 135.5h24z" />
    <glyph glyph-name="lira.tf" horiz-adv-x="1413" 
d="M188 889q-41 0 -60.5 24t-14.5 66q12 80 100 80h104l66 463q8 59 43.5 91t95.5 32q59 0 86.5 -32.5t18.5 -90.5l-66 -463h467q41 0 61.5 -24.5t14.5 -65.5q-12 -80 -98 -80h-818zM1235 408q55 -18 66.5 -64.5t-21.5 -85.5q-90 -130 -229.5 -194t-309.5 -64h-462
q-53 0 -77.5 28.5t-17.5 80.5l68 491h-105q-41 0 -61 24.5t-14 65.5q12 80 100 80h817q41 0 60.5 -24t13.5 -66q-12 -80 -98 -80h-467l-56 -389h328q93 0 179 42.5t153 123.5q60 56 133 31z" />
    <glyph glyph-name="uni20B1.tf" horiz-adv-x="1413" 
d="M1389 1438q49 0 72.5 -29.5t15.5 -77.5q-14 -94 -117 -94h-68q-1 -6 -2 -19.5t-2 -19.5l-6 -45l-6 -37h67q49 0 72 -29t17 -77q-12 -95 -117 -95h-131q-72 -91 -183.5 -141.5t-244.5 -50.5h-256l-86 -617q-9 -59 -45.5 -90.5t-94.5 -31.5q-60 0 -87 31.5t-19 90.5
l115 809h-88q-49 0 -73 29.5t-18 79.5q15 92 119 92h86l19 121h-90q-49 0 -71.5 29.5t-14.5 79.5q12 92 116 92h86l13 82q7 52 39.5 80t85.5 28h391q132 0 228 -50t142 -140h136zM1040 1186q12 105 -42 168t-158 63h-242l-68 -481h242q105 0 179.5 64t86.5 167z" />
    <glyph glyph-name="uni20BD.tf" horiz-adv-x="1413" 
d="M1022 1628q207 0 319 -118.5t86 -311.5l-6 -45q-26 -193 -172 -311.5t-354 -118.5h-692q-49 0 -72.5 28t-15.5 78q15 95 116 95h88l82 596q19 108 125 108h496zM1180 1186q12 105 -42.5 168t-158.5 63h-346l-68 -481h346q105 0 180 64t87 167zM930 602q49 0 71.5 -28
t16.5 -76q-15 -97 -117 -97h-412l-40 -295q-8 -59 -44 -90.5t-96 -31.5q-58 0 -85 31.5t-19 90.5l41 295h-88q-49 0 -72.5 28.5t-15.5 78.5q12 94 116 94h744z" />
    <glyph glyph-name="uni20B9.tf" horiz-adv-x="1413" 
d="M1372 1628q41 0 61.5 -24.5t14.5 -65.5q-12 -78 -98 -78h-1031q-41 0 -60.5 24t-14.5 64q12 80 100 80h1028zM1331 1339q42 0 62 -24t14 -66q-11 -78 -98 -78h-92l-3 -18q-22 -154 -121 -264t-249 -148l178 -602q15 -54 -5 -88.5t-79 -56.5q-54 -21 -97.5 -0.5
t-58.5 74.5l-186 655h-371q-45 0 -67.5 28t-14.5 74q12 88 111 88h459q104 0 176.5 63.5t89.5 168.5l4 26h-704q-41 0 -60.5 24.5t-13.5 64.5q9 79 98 79h1028z" />
    <glyph glyph-name="sterling.tf" horiz-adv-x="1413" 
d="M1415 1376q16 -41 -11 -86t-87 -63q-89 -26 -127 35q-67 170 -248 170q-145 0 -246 -93t-123 -245l-22 -158h471q52 0 77 -31t17 -84q-14 -98 -125 -98h-469l-71 -512h741q52 0 76 -30t18 -83q-12 -98 -123 -98h-1069q-52 0 -77 30.5t-19 82.5q14 98 125 98h84l72 512
h-84q-52 0 -76.5 31t-16.5 84q12 98 123 98h82l25 170q34 245 210.5 394t430.5 149q160 0 279.5 -71.5t162.5 -201.5z" />
    <glyph glyph-name="yen.tf" horiz-adv-x="1413" 
d="M1415 1624q46 -28 51.5 -69.5t-30.5 -92.5l-463 -620h221q41 0 61 -24t15 -64q-12 -80 -101 -80h-899q-41 0 -61 24.5t-14 65.5q9 78 98 78h219l-289 620q-23 53 -5 94t73 68q109 56 155 -49l306 -676l495 676q72 107 168 49zM1153 553q41 0 61.5 -24.5t14.5 -65.5
q-12 -78 -101 -78h-329l-37 -279q-7 -58 -43.5 -90t-95.5 -32q-58 0 -85.5 31.5t-19.5 90.5l37 279h-326q-42 0 -61 23.5t-14 64.5q9 80 98 80h901z" />
    <glyph glyph-name="plus.case" horiz-adv-x="1155" 
d="M1044 922q46 0 68.5 -26.5t15.5 -70.5q-6 -44 -35 -67t-75 -23h-301l-39 -274q-8 -58 -41.5 -89.5t-91.5 -31.5q-55 0 -82 32t-19 89l39 274h-299q-46 0 -68 27t-16 72q9 88 111 88h299l39 276q8 57 43 89t90 32q56 0 82 -31.5t18 -89.5l-39 -276h301z" />
    <glyph glyph-name="minus.case" horiz-adv-x="1155" 
d="M182 735q-45 0 -67.5 27t-16.5 72q12 88 111 88h833q47 0 69.5 -26t16.5 -71q-15 -90 -112 -90h-834z" />
    <glyph glyph-name="multiply.case" horiz-adv-x="1155" 
d="M1067 1229q29 -34 23 -72.5t-46 -73.5l-290 -254l219 -254q61 -74 -17 -143q-82 -70 -145 2l-219 254l-289 -254q-41 -35 -78 -35.5t-65 33.5q-62 71 22 143l289 254l-219 254q-61 73 18 146q81 68 144 -4l219 -254l291 254q83 73 143 4z" />
    </font>
</defs>
</svg>
