<?xml version="1.0" standalone="no"?>
<!DOCTYPE svg PUBLIC "-//W3C//DTD SVG 1.1//EN" "http://www.w3.org/Graphics/SVG/1.1/DTD/svg11.dtd" >
<svg xmlns="http://www.w3.org/2000/svg" xmlns:xlink="http://www.w3.org/1999/xlink" version="1.1">
<metadata>
Created by FontForge 20170731 at Thu Dec  1 14:24:27 2022
 By Aleksey,,,
Copyright (c) 2018 by Alberto Romanos. All rights reserved.
</metadata>
<defs>
<font id="BwSeidoRoundDEMO-Thin" horiz-adv-x="0" >
  <font-face 
    font-family="Bw Seido Round DEMO Thin"
    font-weight="250"
    font-stretch="normal"
    units-per-em="2048"
    panose-1="0 0 3 0 0 0 0 0 0 0"
    ascent="1657"
    descent="-391"
    x-height="1147"
    cap-height="1638"
    bbox="-1548 -502 2499 2124"
    underline-thickness="102"
    underline-position="-307"
    unicode-range="U+000D-FB02"
  />
<missing-glyph horiz-adv-x="2609" 
d="M156 -20q-15 0 -25 10.5t-10 25.5q0 21 10 31l700 698h-663q-47 0 -47 39q0 16 14 33l696 701h-669q-41 0 -41 38v3q0 38 41 38h758q47 0 47 -41q0 -20 -17 -34l-698 -697h676q17 0 29 -12t12 -29v-669l694 692q13 16 35 16q37 0 37 -45v-663l696 692q13 16 33 16
q15 0 25 -12t10 -27q0 -18 -13 -28l-753 -762q-14 -14 -35 -14q-41 0 -41 47v663l-694 -696q-14 -14 -35 -14q-41 0 -41 47v663l-697 -696q-14 -14 -34 -14z" />
    <glyph glyph-name="fi" unicode="fi" horiz-adv-x="1116" 
d="M901 1638q41 0 41 -43v-110q0 -43 -41 -43t-41 43v110q0 43 41 43zM485 1554q-76 0 -123 -47.5t-47 -124.5v-235h283q43 0 43 -37t-43 -37h-283v-1040q0 -43 -41 -43t-41 43v1040h-159q-43 0 -43 37t43 37h159v242q0 107 68 173t178 66h119q43 0 43 -37t-43 -37h-113z
M901 1157q41 0 41 -43v-1081q0 -43 -41 -43t-41 43v1081q0 43 41 43z" />
    <glyph glyph-name="fl" unicode="fl" horiz-adv-x="1120" 
d="M1008 66q51 -8 51 -41q0 -35 -45 -35q-77 0 -125.5 48.5t-48.5 129.5v1427q0 43 41 43t41 -43v-1421q0 -44 22 -72.5t64 -35.5zM485 1554q-76 0 -123 -47.5t-47 -124.5v-235h283q43 0 43 -37t-43 -37h-283v-1040q0 -43 -41 -43t-41 43v1040h-159q-43 0 -43 37t43 37h159
v242q0 107 68 173t178 66h119q43 0 43 -37t-43 -37h-113z" />
    <glyph glyph-name="f_f" unicode="ff" horiz-adv-x="1249" 
d="M1194 1147q43 0 43 -37t-43 -37h-283v-1040q0 -43 -41 -43t-41 43v1040h-514v-1040q0 -43 -41 -43t-41 43v1040h-159q-43 0 -43 37t43 37h159v242q0 107 68 173t178 66h119q43 0 43 -37t-43 -37h-113q-76 0 -123 -47.5t-47 -124.5v-235h514v242q0 107 68 173t178 66h119
q43 0 43 -37t-43 -37h-113q-76 0 -123 -47.5t-47 -124.5v-235h283z" />
    <glyph glyph-name="f_f_i" unicode="ffi" horiz-adv-x="1718" 
d="M1503 1638q41 0 41 -43v-110q0 -43 -41 -43t-41 43v110q0 43 41 43zM1085 1554q-76 0 -123 -47.5t-47 -124.5v-235h283q43 0 43 -37t-43 -37h-283v-1040q0 -43 -41 -43q-40 0 -40 43v1040h-519v-1040q0 -43 -41 -43t-41 43v1040h-159q-43 0 -43 37t43 37h159v242
q0 107 68 173t178 66h119q43 0 43 -37t-43 -37h-113q-76 0 -123 -47.5t-47 -124.5v-235h519v242q0 107 67.5 173t177.5 66h119q43 0 43 -37t-43 -37h-113zM1503 1157q41 0 41 -43v-1081q0 -43 -41 -43t-41 43v1081q0 43 41 43z" />
    <glyph glyph-name="f_f_l" unicode="ffl" horiz-adv-x="1722" 
d="M1610 66q51 -8 51 -41q0 -35 -45 -35q-77 0 -125.5 48.5t-48.5 129.5v1427q0 43 41 43t41 -43v-1421q0 -44 22 -72.5t64 -35.5zM1085 1554q-76 0 -123 -47.5t-47 -124.5v-235h283q43 0 43 -37t-43 -37h-283v-1040q0 -43 -41 -43q-40 0 -40 43v1040h-519v-1040
q0 -43 -41 -43t-41 43v1040h-159q-43 0 -43 37t43 37h159v242q0 107 68 173t178 66h119q43 0 43 -37t-43 -37h-113q-76 0 -123 -47.5t-47 -124.5v-235h519v242q0 107 67.5 173t177.5 66h119q43 0 43 -37t-43 -37h-113z" />
    <glyph glyph-name=".notdef" horiz-adv-x="2609" 
d="M156 -20q-15 0 -25 10.5t-10 25.5q0 21 10 31l700 698h-663q-47 0 -47 39q0 16 14 33l696 701h-669q-41 0 -41 38v3q0 38 41 38h758q47 0 47 -41q0 -20 -17 -34l-698 -697h676q17 0 29 -12t12 -29v-669l694 692q13 16 35 16q37 0 37 -45v-663l696 692q13 16 33 16
q15 0 25 -12t10 -27q0 -18 -13 -28l-753 -762q-14 -14 -35 -14q-41 0 -41 47v663l-694 -696q-14 -14 -35 -14q-41 0 -41 47v663l-697 -696q-14 -14 -34 -14z" />
    <glyph glyph-name=".null" 
 />
    <glyph glyph-name="nonmarkingreturn" horiz-adv-x="682" 
 />
    <glyph glyph-name="CR" unicode="&#xd;" horiz-adv-x="565" 
 />
    <glyph glyph-name="space" unicode=" " horiz-adv-x="565" 
 />
    <glyph glyph-name="exclam" unicode="!" horiz-adv-x="487" 
d="M244 471q-43 0 -43 43v1081q0 43 43 43t43 -43v-1081q0 -43 -43 -43zM244 -10q-58 0 -58 61v74q0 61 58 61q57 0 57 -61v-74q0 -61 -57 -61z" />
    <glyph glyph-name="quotedbl" unicode="&#x22;" horiz-adv-x="616" 
d="M195 1155q-39 0 -39 43l-6 393q0 47 45 47t45 -47l-7 -393q0 -43 -38 -43zM422 1155q-39 0 -39 43l-6 393q0 47 45 47t45 -47l-6 -393q0 -43 -39 -43z" />
    <glyph glyph-name="numbersign" unicode="#" horiz-adv-x="1302" 
d="M1178 1159q43 0 43 -41t-43 -41h-183l-53 -526h174q43 0 43 -41t-43 -41h-182l-43 -438q-3 -41 -45 -41h-2q-42 0 -39 45l43 434h-463l-43 -438q-3 -41 -45 -41h-2q-42 0 -39 45l43 434h-174q-43 0 -43 41t43 41h182l53 526h-174q-43 0 -43 41t43 41h183l43 438
q3 41 45 41q44 0 41 -45l-43 -434h463l43 438q3 41 45 41q44 0 41 -45l-43 -434h174zM856 551l53 526h-463l-53 -526h463z" />
    <glyph glyph-name="dollar" unicode="$" horiz-adv-x="1280" 
d="M205 1192q0 -89 33.5 -149.5t90.5 -92t130.5 -50t155 -29t162.5 -22t154.5 -36t130.5 -65t90.5 -114.5t33.5 -179v-29q0 -189 -136 -310.5t-362 -133.5v-144q0 -43 -41 -43t-41 43v142q-179 9 -310.5 103t-189.5 245q-16 42 27 55q42 12 57 -25q58 -139 175.5 -218
t273.5 -79q207 0 334 102.5t127 268.5v23q0 79 -27.5 136t-66.5 89.5t-107 55t-123 32.5t-141 21q-73 9 -110 15t-101.5 20.5t-99.5 31.5t-80.5 47.5t-68 68.5t-39.5 94t-17 126v27q0 183 133.5 300t353.5 128v143q0 43 41 43t41 -43v-141q175 -10 295.5 -99.5t179.5 -240.5
q15 -41 -28 -54q-38 -11 -56 29q-61 133 -169 208t-261 75q-199 0 -321.5 -98t-122.5 -257v-20z" />
    <glyph glyph-name="percent" unicode="%" horiz-adv-x="1665" 
d="M371 803q-128 0 -206.5 75.5t-78.5 198.5v287q0 123 78.5 198.5t206.5 75.5q129 0 207.5 -75.5t78.5 -198.5v-287q0 -123 -78.5 -198.5t-207.5 -75.5zM420 16q-20 -36 -58 -16q-37 19 -14 57l897 1555q20 36 58 16q37 -19 14 -57zM371 877q92 0 148 56t56 148v277
q0 92 -56 148.5t-148 56.5q-91 0 -147 -56.5t-56 -148.5v-277q0 -92 56 -148t147 -56zM1292 -10q-127 0 -205.5 75.5t-78.5 198.5v287q0 123 78.5 198.5t205.5 75.5q129 0 208 -75.5t79 -198.5v-287q0 -123 -79 -198.5t-208 -75.5zM1292 63q92 0 148.5 56.5t56.5 148.5v277
q0 92 -56.5 148.5t-148.5 56.5q-91 0 -146.5 -56.5t-55.5 -148.5v-277q0 -92 55.5 -148.5t146.5 -56.5z" />
    <glyph glyph-name="ampersand" unicode="&#x26;" horiz-adv-x="1445" 
d="M1300 72q56 -6 56 -45q0 -37 -43 -37q-116 0 -198.5 63t-113.5 174q-44 -116 -152.5 -181.5t-258.5 -65.5q-206 0 -333.5 111t-127.5 292v80q0 140 80.5 238.5t218.5 134.5q-127 39 -198.5 132t-71.5 224v61q0 178 121 287t319 109q163 0 280 -93t154 -251
q5 -20 -3.5 -35t-27.5 -19q-43 -12 -53 31q-31 131 -125.5 208t-224.5 77q-160 0 -257 -87.5t-97 -232.5v-55q0 -145 98.5 -232.5t261.5 -87.5h709q43 0 43 -41q0 -40 -43 -40h-262v-433q0 -132 71.5 -203t177.5 -83zM590 61q169 0 272 89t103 235v406h-387q-163 0 -263 -90
t-100 -238v-74q0 -148 103 -238t272 -90z" />
    <glyph glyph-name="quotesingle" unicode="'" horiz-adv-x="389" 
d="M195 1155q-39 0 -39 43l-6 393q0 47 45 47t45 -47l-7 -393q0 -43 -38 -43z" />
    <glyph glyph-name="parenleft" unicode="(" horiz-adv-x="653" 
d="M582 -502q-190 0 -299 110t-109 292v1409q0 184 110 292.5t298 108.5q43 0 43 -43q0 -39 -43 -39q-150 0 -236 -89t-86 -236v-1397q0 -149 87.5 -237.5t234.5 -88.5q43 0 43 -39q0 -43 -43 -43z" />
    <glyph glyph-name="parenright" unicode=")" horiz-adv-x="653" 
d="M72 -502q-43 0 -43 43q0 39 43 39q146 0 233.5 88.5t87.5 237.5v1397q0 147 -85.5 236t-235.5 89q-43 0 -43 39q0 43 43 43q188 0 297.5 -108.5t109.5 -292.5v-1409q0 -182 -108.5 -292t-298.5 -110z" />
    <glyph glyph-name="asterisk" unicode="*" horiz-adv-x="856" 
d="M739 1403q10 -37 -30 -49l-226 -68l142 -190q25 -36 -4 -56q-33 -23 -58 13l-135 192l-135 -192q-24 -35 -55 -13q-33 20 -7 58l142 188l-226 68q-38 11 -28 49q10 37 51 22l225 -77l-6 237q0 43 39 43t39 -43l-6 -237l225 77q43 16 53 -22z" />
    <glyph glyph-name="plus" unicode="+" horiz-adv-x="1155" 
d="M1036 623q43 0 43 -37t-43 -37h-418v-404q0 -43 -40 -43q-41 0 -41 43v404h-418q-43 0 -43 37t43 37h418v403q0 43 41 43q40 0 40 -43v-403h418z" />
    <glyph glyph-name="comma" unicode="," horiz-adv-x="430" 
d="M123 -291q-38 7 -29 49l76 385q8 43 55 37q42 -6 33 -55l-88 -383q-9 -39 -47 -33z" />
    <glyph glyph-name="hyphen" unicode="-" horiz-adv-x="886" 
d="M193 549q-43 0 -43 37t43 37h501q43 0 43 -37t-43 -37h-501z" />
    <glyph glyph-name="period" unicode="." horiz-adv-x="413" 
d="M207 -10q-57 0 -57 61v74q0 61 57 61t57 -61v-74q0 -61 -57 -61z" />
    <glyph glyph-name="slash" unicode="/" horiz-adv-x="753" 
d="M117 -428q-39 9 -29 51l502 1983q9 39 49 30q39 -9 29 -49l-502 -1984q-9 -41 -49 -31z" />
    <glyph glyph-name="zero" unicode="0" horiz-adv-x="1386" 
d="M692 -20q-245 0 -395 148.5t-150 389.5v592q0 242 150.5 390.5t394.5 148.5q246 0 396.5 -148.5t150.5 -390.5v-592q0 -242 -150.5 -390t-396.5 -148zM692 61q207 0 334 128t127 335v580q0 207 -127 335t-334 128q-205 0 -332 -128t-127 -335v-580q0 -207 127 -335
t332 -128z" />
    <glyph glyph-name="one" unicode="1" horiz-adv-x="1030" 
d="M774 1638q23 0 37 -14t14 -37v-1554q0 -43 -43 -43t-43 43v1499l-618 -528q-32 -29 -58 4q-25 31 7 59l647 553q21 18 53 18h4z" />
    <glyph glyph-name="two" unicode="2" horiz-adv-x="1267" 
d="M1104 82q43 0 43 -41t-43 -41h-944q-29 0 -45.5 14t-16.5 37v4q0 33 27 54q120 93 211 166.5t193 161.5t175.5 160.5t143.5 153.5t113.5 152t69.5 145t26 142v18q0 161 -113.5 260t-298.5 99q-160 0 -278.5 -79.5t-161.5 -211.5q-9 -27 -21.5 -36t-33.5 -3q-43 13 -31 53
q51 166 191 262.5t335 96.5q223 0 360.5 -120t137.5 -315v-24q0 -73 -26 -151.5t-68 -150.5t-113 -156.5t-141 -155.5t-174.5 -162t-191 -162t-210.5 -170h885z" />
    <glyph glyph-name="three" unicode="3" horiz-adv-x="1282" 
d="M803 834q161 -36 254.5 -137t93.5 -246v-56q0 -187 -144 -301t-378 -114q-186 0 -321 93.5t-185 252.5q-6 20 2 35t27 20q43 12 55 -29q40 -134 151 -212.5t271 -78.5q197 0 316.5 93t119.5 247v50q0 154 -119.5 247t-316.5 93h-60q-43 0 -43 40q0 41 43 41h33
q197 0 315.5 90.5t118.5 241.5v31q0 151 -113.5 241.5t-301.5 90.5q-152 0 -261 -77t-149 -208q-13 -43 -53 -31q-40 13 -31 54q37 159 171 251.5t323 92.5q226 0 363.5 -112t137.5 -296v-37q0 -136 -84.5 -233t-234.5 -137z" />
    <glyph glyph-name="four" unicode="4" horiz-adv-x="1282" 
d="M1171 551q43 0 43 -41t-43 -41h-176v-436q0 -43 -43 -43t-43 43v436h-800q-26 0 -41 12.5t-15 34.5v4q0 28 19 53l811 1041q21 24 53 24h8q23 0 37 -14t14 -39v-1034h176zM154 551h755l2 969z" />
    <glyph glyph-name="five" unicode="5" horiz-adv-x="1214" 
d="M610 897q226 0 365 -118.5t139 -311.5v-61q0 -192 -144 -309t-378 -117q-186 0 -321 93.5t-185 252.5q-6 20 2 35t27 20q43 12 55 -29q40 -134 151 -212.5t271 -78.5q197 0 316.5 96.5t119.5 254.5v53q0 158 -116.5 254t-307.5 96h-373q-47 0 -41 45l97 727q6 41 47 41
h657q43 0 43 -41t-43 -41h-620l-90 -649h329z" />
    <glyph glyph-name="six" unicode="6" horiz-adv-x="1236" 
d="M629 946q241 0 388.5 -130.5t147.5 -342.5v-20q0 -213 -149 -343t-393 -130q-246 0 -395.5 130t-149.5 343v20q0 142 98 307l490 834q21 37 61 18q37 -19 16 -59l-409 -696q141 69 295 69zM1077 459v8q0 178 -125 287.5t-329 109.5q-205 0 -331 -109t-126 -288v-8
q0 -179 126 -288.5t331 -109.5q204 0 329 109.5t125 288.5z" />
    <glyph glyph-name="seven" unicode="7" horiz-adv-x="1101" 
d="M1001 1628q26 0 41 -14.5t15 -40.5v-4q0 -24 -13 -53l-679 -1496q-17 -42 -64 -26q-42 15 -22 63l684 1489h-879q-43 0 -43 41t43 41h917z" />
    <glyph glyph-name="eight" unicode="8" horiz-adv-x="1341" 
d="M870 834q161 -42 252.5 -144t91.5 -244v-40q0 -191 -149 -308.5t-393 -117.5q-245 0 -395 117.5t-150 308.5v40q0 142 92 245t254 143q-142 40 -223.5 134.5t-81.5 225.5v51q0 181 139 292.5t365 111.5t364 -111t138 -293v-51q0 -130 -81.5 -225t-222.5 -135zM256 1200
q0 -148 114.5 -238t301.5 -90q186 0 299.5 90t113.5 238v39q0 148 -113.5 238t-299.5 90q-187 0 -301.5 -90t-114.5 -238v-39zM1126 412v28q0 157 -125 254t-329 97q-205 0 -331 -97t-126 -254v-28q0 -157 126 -254t331 -97q204 0 329 97t125 254z" />
    <glyph glyph-name="nine" unicode="9" horiz-adv-x="1234" 
d="M614 1649q246 0 395.5 -130t149.5 -343v-21q0 -142 -98 -307l-490 -834q-21 -37 -61 -18q-37 19 -16 59l409 697q-143 -70 -295 -70q-241 0 -388.5 130.5t-147.5 342.5v21q0 213 149 343t393 130zM1071 1161v8q0 179 -126 288.5t-331 109.5q-204 0 -329 -109.5
t-125 -288.5v-8q0 -178 125 -287.5t329 -109.5q205 0 331 109t126 288z" />
    <glyph glyph-name="colon" unicode=":" horiz-adv-x="417" 
d="M209 961q-57 0 -57 61v74q0 61 57 61t57 -61v-74q0 -61 -57 -61zM209 -10q-57 0 -57 61v74q0 61 57 61t57 -61v-74q0 -61 -57 -61z" />
    <glyph glyph-name="semicolon" unicode=";" horiz-adv-x="528" 
d="M283 961q-58 0 -58 61v74q0 61 58 61q57 0 57 -61v-74q0 -61 -57 -61zM184 -291q-37 7 -28 49l75 385q8 44 56 37q41 -6 32 -55l-88 -383q-9 -39 -47 -33z" />
    <glyph glyph-name="less" unicode="&#x3c;" horiz-adv-x="1155" 
d="M1063 184q20 -10 20 -32q0 -20 -16 -30.5t-33 -2.5l-930 418q-32 14 -32 49t32 49l930 418q15 8 32 -2.5t17 -30.5q0 -23 -20 -33l-881 -391l-24 -10q3 -1 11 -5t13 -6z" />
    <glyph glyph-name="equal" unicode="=" horiz-adv-x="1155" 
d="M119 668q-43 0 -43 37q0 36 43 36h917q43 0 43 -36q0 -37 -43 -37h-917zM119 430q-43 0 -43 37t43 37h917q43 0 43 -37t-43 -37h-917z" />
    <glyph glyph-name="greater" unicode="&#x3e;" horiz-adv-x="1155" 
d="M1051 635q32 -14 32 -49t-32 -49l-930 -418q-17 -8 -33 2.5t-16 30.5q0 22 20 32l881 391l24 11q-3 1 -11.5 4.5t-12.5 5.5l-881 391q-20 10 -20 33q0 20 17 30.5t32 2.5z" />
    <glyph glyph-name="question" unicode="?" horiz-adv-x="983" 
d="M492 1628q185 0 299 -111t114 -292v-31q0 -181 -114 -292t-299 -111h-168v-277q0 -43 -43 -43t-43 43v315q0 43 43 43h204q150 0 242 90.5t92 237.5v19q0 147 -92 237t-242 90h-368q-43 0 -43 41t43 41h375zM281 186q57 0 57 -61v-74q0 -61 -57 -61q-58 0 -58 61v74
q0 61 58 61z" />
    <glyph glyph-name="at" unicode="@" horiz-adv-x="1705" 
d="M891 1649q306 0 493 -169t187 -444v-510q0 -207 -125.5 -332.5t-331.5 -125.5q-204 0 -329.5 125.5t-125.5 332.5v142q0 207 122.5 332.5t322.5 125.5q130 0 230 -57t155 -160v121q0 243 -164.5 392t-433.5 149q-307 0 -494.5 -188t-187.5 -496v-555q0 -305 199 -491.5
t524 -186.5h139q43 0 43 -37t-43 -37h-139q-239 0 -422 93t-283 262.5t-100 390.5v567q0 340 210 548t554 208zM1489 532v130q0 175 -103 281t-272 106q-168 0 -270.5 -106.5t-102.5 -280.5v-130q0 -174 102.5 -280.5t270.5 -106.5q169 0 272 106t103 281z" />
    <glyph glyph-name="A" unicode="A" horiz-adv-x="1429" 
d="M1368 49q17 -45 -25 -57t-57 28l-168 449h-809l-168 -449q-15 -41 -55 -28q-41 13 -25 57l576 1538q19 51 72 51h12q53 0 72 -51zM340 551h747l-372 995z" />
    <glyph glyph-name="B" unicode="B" horiz-adv-x="1452" 
d="M1036 838q134 -34 212.5 -136t78.5 -247v-43q0 -184 -114.5 -298t-299.5 -114h-669q-43 0 -43 43v1542q0 43 43 43h628q186 0 300 -111t114 -292v-25q0 -131 -67 -226.5t-183 -135.5zM287 1546v-674h579q151 0 242.5 90t91.5 238v19q0 148 -91.5 237.5t-242.5 89.5h-579z
M1241 418v37q0 151 -92.5 243.5t-241.5 92.5h-620v-709h620q149 0 241.5 92.5t92.5 243.5z" />
    <glyph glyph-name="C" unicode="C" horiz-adv-x="1386" 
d="M735 -20q-270 0 -435 164.5t-165 433.5v450q0 280 164.5 450.5t433.5 170.5q193 0 341.5 -102.5t209.5 -258.5q8 -20 0.5 -36.5t-27.5 -22.5q-39 -12 -57 33q-65 143 -187.5 224t-279.5 81q-230 0 -371 -149.5t-141 -395.5v-438q0 -235 141 -379t373 -144q166 0 294.5 90
t178.5 220q17 47 60 32q43 -16 26 -57q-71 -172 -217.5 -269t-341.5 -97z" />
    <glyph glyph-name="D" unicode="D" horiz-adv-x="1466" 
d="M244 0q-43 0 -43 43v1542q0 43 43 43h475q275 0 443.5 -168.5t168.5 -443.5v-404q0 -275 -168.5 -443.5t-443.5 -168.5h-475zM287 82h426q239 0 385.5 147.5t146.5 388.5v392q0 241 -146.5 388.5t-385.5 147.5h-426v-1464z" />
    <glyph glyph-name="E" unicode="E" horiz-adv-x="1329" 
d="M1178 82q43 0 43 -41t-43 -41h-934q-43 0 -43 43v1542q0 43 43 43h913q43 0 43 -41t-43 -41h-870v-674h829q43 0 43 -41q0 -40 -43 -40h-829v-709h891z" />
    <glyph glyph-name="F" unicode="F" horiz-adv-x="1273" 
d="M1157 1546h-870v-674h829q43 0 43 -41q0 -40 -43 -40h-829v-758q0 -43 -43 -43t-43 43v1552q0 43 43 43h913q43 0 43 -41t-43 -41z" />
    <glyph glyph-name="G" unicode="G" horiz-adv-x="1454" 
d="M1286 872q43 0 43 -43v-251q0 -269 -163.5 -433.5t-430.5 -164.5q-270 0 -435 164.5t-165 433.5v450q0 280 164.5 450.5t433.5 170.5q196 0 348 -103t211 -258q8 -20 1 -36.5t-27 -22.5q-40 -12 -58 33q-63 142 -190 223.5t-285 81.5q-230 0 -371 -149.5t-141 -395.5
v-438q0 -235 141 -379t373 -144q229 0 368.5 144t139.5 379v207h-534q-43 0 -43 40q0 41 43 41h577z" />
    <glyph glyph-name="H" unicode="H" horiz-adv-x="1486" 
d="M1243 1638q43 0 43 -43v-1562q0 -43 -43 -43t-43 43v758h-913v-758q0 -43 -43 -43t-43 43v1562q0 43 43 43t43 -43v-723h913v723q0 43 43 43z" />
    <glyph glyph-name="I" unicode="I" horiz-adv-x="487" 
d="M244 -10q-43 0 -43 43v1562q0 43 43 43t43 -43v-1562q0 -43 -43 -43z" />
    <glyph glyph-name="J" unicode="J" horiz-adv-x="1243" 
d="M547 -20q-176 0 -302.5 104.5t-181.5 284.5q-12 41 29 53q43 12 55 -29q48 -156 152.5 -244t247.5 -88q190 0 306 118.5t116 312.5v1103q0 43 43 43t43 -43v-1110q0 -227 -139.5 -366t-368.5 -139z" />
    <glyph glyph-name="K" unicode="K" horiz-adv-x="1423" 
d="M1358 53q19 -43 -21 -59q-41 -16 -59 24l-457 1026l-534 -559v-452q0 -43 -43 -43t-43 43v1562q0 43 43 43t43 -43v-995l970 1022q28 31 60 8q14 -10 13.5 -26t-15.5 -31l-428 -463z" />
    <glyph glyph-name="L" unicode="L" horiz-adv-x="1167" 
d="M1075 82q43 0 43 -41t-43 -41h-831q-43 0 -43 43v1552q0 43 43 43t43 -43v-1513h788z" />
    <glyph glyph-name="M" unicode="M" horiz-adv-x="1851" 
d="M1595 1638q26 0 41 -15.5t15 -41.5v-1548q0 -43 -43 -43t-43 43v1460l-590 -922q-19 -28 -49 -28t-49 28l-590 922v-1460q0 -43 -43 -43t-43 43v1548q0 26 14.5 41.5t40.5 15.5h6q32 0 51 -28l613 -959l612 959q19 28 51 28h6z" />
    <glyph glyph-name="N" unicode="N" horiz-adv-x="1552" 
d="M1309 1638q43 0 43 -43v-1550q0 -26 -15 -40.5t-41 -14.5h-6q-32 0 -51 28l-952 1475v-1460q0 -43 -43 -43t-43 43v1550q0 55 55 55h6q32 0 51 -28l953 -1475v1460q0 43 43 43z" />
    <glyph glyph-name="O" unicode="O" horiz-adv-x="1509" 
d="M754 -20q-278 0 -448.5 168.5t-170.5 443.5v444q0 275 170.5 444t448.5 169q279 0 449.5 -168.5t170.5 -444.5v-444q0 -275 -170 -443.5t-450 -168.5zM754 61q241 0 387.5 147.5t146.5 389.5v432q0 242 -146.5 389.5t-387.5 147.5q-239 0 -386 -148t-147 -389v-432
q0 -241 147 -389t386 -148z" />
    <glyph glyph-name="P" unicode="P" horiz-adv-x="1376" 
d="M893 1628q185 0 299.5 -111t114.5 -292v-31q0 -181 -114.5 -292t-299.5 -111h-606v-758q0 -43 -43 -43t-43 43v1552q0 43 43 43h649zM1221 1200v19q0 147 -92 237t-242 90h-600v-674h600q150 0 242 90.5t92 237.5z" />
    <glyph glyph-name="Q" unicode="Q" horiz-adv-x="1511" 
d="M1391 -45q30 -30 2 -61q-14 -13 -31 -12.5t-31 14.5l-196 196q-156 -112 -381 -112q-278 0 -448.5 168.5t-170.5 443.5v444q0 275 170.5 444t448.5 169q279 0 449.5 -168.5t170.5 -444.5v-444q0 -137 -45 -252t-129 -195zM754 61q183 0 319 93l-196 196q-13 14 -13 31
t13 31q29 28 59 -2l203 -203q149 146 149 391v432q0 242 -146.5 389.5t-387.5 147.5q-239 0 -386 -148t-147 -389v-432q0 -241 147 -389t386 -148z" />
    <glyph glyph-name="R" unicode="R" horiz-adv-x="1415" 
d="M1307 1194q0 -165 -96 -272.5t-257 -126.5l330 -742q19 -43 -20 -59q-42 -17 -60 24l-342 773h-575v-758q0 -43 -43 -43t-43 43v1552q0 43 43 43h649q185 0 299.5 -111t114.5 -292v-31zM887 872q150 0 242 90.5t92 237.5v19q0 147 -92 237t-242 90h-600v-674h600z" />
    <glyph glyph-name="S" unicode="S" horiz-adv-x="1372" 
d="M680 -20q-202 0 -351 95t-210 253q-16 43 26 55q43 13 58 -25q61 -139 186 -218t291 -79q221 0 357.5 102.5t136.5 268.5v23q0 66 -17.5 116.5t-56 84t-77.5 55.5t-105 37t-113.5 22.5t-125.5 17.5q-77 9 -117 15t-108.5 20.5t-105.5 31.5t-85.5 47.5t-73 68.5
t-42.5 94.5t-18 126.5v27q0 192 154.5 311t406.5 119q204 0 343.5 -90.5t201.5 -249.5q15 -41 -29 -54q-38 -10 -55 29q-62 133 -179.5 208t-281.5 75q-213 0 -344 -98t-131 -257v-20q0 -65 16.5 -114t57 -82.5t75 -54.5t105.5 -36.5t110 -21.5t125 -17q78 -10 118 -15.5
t109.5 -20.5t107 -32t86.5 -48t74 -70t43 -96.5t18 -128.5v-29q0 -200 -160.5 -323t-419.5 -123z" />
    <glyph glyph-name="T" unicode="T" horiz-adv-x="1150" 
d="M1061 1628q43 0 43 -41t-43 -41h-443v-1513q0 -43 -43 -43t-43 43v1513h-442q-43 0 -43 41t43 41h971z" />
    <glyph glyph-name="U" unicode="U" horiz-adv-x="1476" 
d="M739 -20q-249 0 -400 150t-151 396v1069q0 43 43 43t43 -43v-1063q0 -213 127.5 -342t337.5 -129q209 0 336 129.5t127 341.5v1063q0 43 43 43t43 -43v-1069q0 -246 -151 -396t-398 -150z" />
    <glyph glyph-name="V" unicode="V" horiz-adv-x="1392" 
d="M1305 1636q40 -12 24 -57l-551 -1528q-11 -28 -32.5 -44.5t-47.5 -16.5h-4q-27 0 -49 17t-31 44l-553 1530q-15 41 27 55q41 13 53 -26l555 -1526l553 1524q14 40 56 28z" />
    <glyph glyph-name="W" unicode="W" horiz-adv-x="1998" 
d="M1898 1636q39 -11 29 -55l-397 -1532q-14 -59 -70 -59h-12q-27 0 -45.5 16.5t-24.5 42.5l-379 1481l-378 -1481q-14 -59 -70 -59h-12q-27 0 -45.5 16.5t-24.5 42.5l-397 1532q-10 46 30 55q45 10 54 -32l389 -1516l381 1497q13 53 67 53h13q54 0 67 -53l381 -1497
l389 1516q12 45 55 32z" />
    <glyph glyph-name="X" unicode="X" horiz-adv-x="1337" 
d="M1272 57q24 -35 -8 -57q-34 -24 -58 10l-536 754l-539 -754q-24 -37 -57 -10q-32 22 -8 57l548 770l-536 744q-25 36 8 59t57 -12l527 -727l524 727q24 35 57 12q32 -26 9 -59l-537 -744z" />
    <glyph glyph-name="Y" unicode="Y" horiz-adv-x="1376" 
d="M1274 1630q34 -20 10 -59l-553 -864v-674q0 -43 -43 -43t-43 43v678l-551 860q-25 40 12 59q39 20 58 -14l526 -821l524 821q21 38 60 14z" />
    <glyph glyph-name="Z" unicode="Z" horiz-adv-x="1269" 
d="M1171 82q43 0 43 -41t-43 -41h-1054q-26 0 -41 14t-15 39v6q0 29 17 54l1016 1433h-969q-43 0 -43 41t43 41h1014q26 0 40.5 -14t14.5 -39v-6q0 -29 -16 -53l-1016 -1434h1009z" />
    <glyph glyph-name="bracketleft" unicode="[" horiz-adv-x="677" 
d="M604 -420q43 0 43 -41t-43 -41h-364q-43 0 -43 43v2126q0 43 43 43h364q43 0 43 -41t-43 -41h-321v-2048h321z" />
    <glyph glyph-name="backslash" unicode="\" horiz-adv-x="753" 
d="M637 -428q-40 -10 -49 31l-502 1984q-10 40 29 49q40 9 49 -30l502 -1983q10 -42 -29 -51z" />
    <glyph glyph-name="bracketright" unicode="]" horiz-adv-x="677" 
d="M438 1710q43 0 43 -43v-2126q0 -43 -43 -43h-364q-43 0 -43 41t43 41h321v2048h-321q-43 0 -43 41t43 41h364z" />
    <glyph glyph-name="asciicircum" unicode="^" horiz-adv-x="1155" 
d="M971 877q16 -40 -23 -54q-37 -12 -53 27l-317 711l-318 -711q-16 -39 -51 -27q-19 6 -26 21t1 35l322 708q12 26 26.5 38.5t40.5 12.5h9q26 0 40.5 -12.5t26.5 -38.5z" />
    <glyph glyph-name="underscore" unicode="_" horiz-adv-x="1056" 
d="M121 -240q-43 0 -43 37t43 37h815q43 0 43 -37t-43 -37h-815z" />
    <glyph glyph-name="grave" unicode="`" horiz-adv-x="778" 
d="M657 1327q-17 -30 -55 -10l-420 239q-36 20 -16 58q18 35 57 12l414 -248q36 -22 20 -51z" />
    <glyph glyph-name="a" unicode="a" horiz-adv-x="1173" 
d="M578 1167q195 0 314.5 -112.5t119.5 -298.5v-723q0 -43 -39 -43q-19 0 -30 11.5t-11 31.5v172q-61 -106 -180.5 -165.5t-278.5 -59.5q-164 0 -264 80.5t-100 211.5v70q0 129 90 205t241 76h490v127q0 154 -97 247t-255 93q-123 0 -213.5 -50t-133.5 -139q-17 -36 -53 -24
q-44 13 -26 53q52 112 162.5 174.5t263.5 62.5zM483 57q201 0 324 100t123 263v129h-479q-120 0 -190.5 -56.5t-70.5 -156.5v-57q0 -100 80.5 -161t212.5 -61z" />
    <glyph glyph-name="b" unicode="b" horiz-adv-x="1241" 
d="M662 1167q209 0 336.5 -131t127.5 -348v-229q0 -217 -127.5 -348t-336.5 -131q-140 0 -246 62t-162 173v-182q0 -20 -11 -31.5t-30 -11.5q-39 0 -39 43v1562q0 43 41 43t41 -43v-659q56 110 161.5 170.5t244.5 60.5zM1044 465v217q0 184 -108 296t-285 112
q-179 0 -287 -112t-108 -296v-217q0 -184 108 -296t287 -112q177 0 285 112t108 296z" />
    <glyph glyph-name="c" unicode="c" horiz-adv-x="1103" 
d="M584 -20q-211 0 -339 129t-128 340v247q0 212 128 341.5t337 129.5q140 0 253.5 -72t170.5 -194q16 -37 -27 -53q-35 -12 -53 26q-54 101 -142 158.5t-202 57.5q-172 0 -277.5 -110t-105.5 -290v-235q0 -179 106 -288.5t279 -109.5q115 0 205.5 53.5t134.5 141.5
q17 36 53 24q45 -16 27 -51q-60 -116 -170 -180.5t-250 -64.5z" />
    <glyph glyph-name="d" unicode="d" horiz-adv-x="1241" 
d="M1026 1638q41 0 41 -43v-1562q0 -43 -39 -43q-19 0 -30 11.5t-11 31.5v182q-56 -111 -161.5 -173t-245.5 -62q-210 0 -337.5 131.5t-127.5 347.5v229q0 216 127.5 347.5t337.5 131.5q138 0 243.5 -60.5t161.5 -170.5v659q0 43 41 43zM590 57q179 0 287 112t108 296v217
q0 184 -108 296t-287 112q-177 0 -285 -112t-108 -296v-217q0 -184 108 -296t285 -112z" />
    <glyph glyph-name="e" unicode="e" horiz-adv-x="1161" 
d="M1012 549h-815v-82q0 -185 108 -297.5t285 -112.5q134 0 228.5 50t139.5 139q17 36 54 24q43 -15 26 -53q-53 -114 -167.5 -175.5t-280.5 -61.5q-214 0 -344.5 132t-130.5 349v225q0 217 129.5 349t341.5 132q211 0 340 -132t129 -349v-94q0 -43 -43 -43zM586 1090
q-175 0 -282 -113t-107 -297v-57h776v57q0 184 -107 297t-280 113z" />
    <glyph glyph-name="f" unicode="f" horiz-adv-x="653" 
d="M598 1147q43 0 43 -37t-43 -37h-283v-1040q0 -43 -41 -43t-41 43v1040h-159q-43 0 -43 37t43 37h159v242q0 107 68 173t178 66h119q43 0 43 -37t-43 -37h-113q-76 0 -123 -47.5t-47 -124.5v-235h283z" />
    <glyph glyph-name="g" unicode="g" horiz-adv-x="1243" 
d="M1030 1157q39 0 39 -43v-1126q0 -192 -135 -310t-356 -118q-137 0 -245 59t-173 168q-21 41 22 59q33 13 54 -24q47 -83 138.5 -133.5t203.5 -50.5q184 0 296.5 98t112.5 258v252q-56 -107 -161.5 -166.5t-243.5 -59.5q-209 0 -337 128t-128 339v213q0 211 128 339
t337 128q140 0 245.5 -60.5t161.5 -168.5v176q0 20 11 31.5t30 11.5zM592 98q178 0 286.5 108.5t108.5 287.5v200q0 179 -108.5 287.5t-286.5 108.5q-177 0 -285 -109t-108 -287v-200q0 -178 108 -287t285 -109z" />
    <glyph glyph-name="h" unicode="h" horiz-adv-x="1245" 
d="M635 1167q201 0 324.5 -123.5t123.5 -324.5v-686q0 -43 -41 -43t-41 43v680q0 170 -102.5 273.5t-269.5 103.5q-168 0 -270.5 -103.5t-102.5 -273.5v-680q0 -43 -41 -43t-41 43v1562q0 43 41 43t41 -43v-637q55 99 153 154t226 55z" />
    <glyph glyph-name="i" unicode="i" horiz-adv-x="430" 
d="M215 1442q-41 0 -41 43v110q0 43 41 43t41 -43v-110q0 -43 -41 -43zM215 -10q-41 0 -41 43v1081q0 43 41 43t41 -43v-1081q0 -43 -41 -43z" />
    <glyph glyph-name="j" unicode="j" horiz-adv-x="446" 
d="M231 1442q-41 0 -41 43v110q0 43 41 43t41 -43v-110q0 -43 -41 -43zM37 -430q-45 0 -45 35q0 33 51 41q147 21 147 170v1298q0 43 41 43t41 -43v-1304q0 -108 -65 -174t-170 -66z" />
    <glyph glyph-name="k" unicode="k" horiz-adv-x="1075" 
d="M997 53q20 -41 -14 -57q-39 -18 -57 20l-351 666l-319 -340v-309q0 -43 -41 -43t-41 43v1562q0 43 41 43t41 -43v-1142l651 686q30 30 58 8q27 -23 -2 -55l-328 -353z" />
    <glyph glyph-name="l" unicode="l" horiz-adv-x="448" 
d="M342 -10q-77 0 -125.5 48.5t-48.5 129.5v1427q0 43 41 43t41 -43v-1421q0 -44 22 -72.5t64 -35.5q51 -8 51 -41q0 -35 -45 -35z" />
    <glyph glyph-name="m" unicode="m" horiz-adv-x="2031" 
d="M1432 1167q196 0 317 -120.5t121 -317.5v-696q0 -43 -41 -43t-41 43v690q0 165 -100 266t-263 101t-262.5 -100.5t-99.5 -266.5v-690q0 -43 -41 -43t-41 43v690q0 165 -100 266t-263 101t-262.5 -100.5t-99.5 -266.5v-690q0 -43 -41 -43t-41 43v1081q0 20 11 31.5
t30 11.5q39 0 39 -43v-151q53 97 149 150.5t222 53.5q148 0 255.5 -71t153.5 -195q43 124 148 195t250 71z" />
    <glyph glyph-name="n" unicode="n" horiz-adv-x="1245" 
d="M635 1167q201 0 324.5 -123.5t123.5 -324.5v-686q0 -43 -41 -43t-41 43v680q0 170 -102.5 273.5t-269.5 103.5q-168 0 -270.5 -103.5t-102.5 -273.5v-680q0 -43 -41 -43t-41 43v1081q0 20 11 31.5t30 11.5q39 0 39 -43v-160q55 101 153.5 157t227.5 56z" />
    <glyph glyph-name="o" unicode="o" horiz-adv-x="1181" 
d="M590 -20q-214 0 -344.5 132t-130.5 349v225q0 217 130.5 349t344.5 132q215 0 346 -132t131 -349v-225q0 -217 -131 -349t-346 -132zM590 57q178 0 286.5 112.5t108.5 297.5v213q0 185 -108.5 297.5t-286.5 112.5q-177 0 -285 -112.5t-108 -297.5v-213q0 -185 108 -297.5
t285 -112.5z" />
    <glyph glyph-name="p" unicode="p" horiz-adv-x="1241" 
d="M659 1167q211 0 339 -131t128 -348v-229q0 -217 -128 -348t-339 -131q-136 0 -240.5 60t-162.5 167v-594q0 -43 -41 -43t-41 43v1501q0 20 11 31.5t30 11.5q39 0 39 -43v-178q56 110 161.5 170.5t243.5 60.5zM1044 465v217q0 184 -108 296t-287 112q-177 0 -285 -112
t-108 -296v-217q0 -184 108 -296t285 -112q179 0 287 112t108 296z" />
    <glyph glyph-name="q" unicode="q" horiz-adv-x="1241" 
d="M1026 1157q19 0 30 -11.5t11 -31.5v-1501q0 -43 -41 -43t-41 43v594q-58 -107 -162.5 -167t-240.5 -60q-211 0 -339 131t-128 348v229q0 217 128 348t339 131q138 0 243.5 -60.5t161.5 -170.5v178q0 43 39 43zM592 57q177 0 285 112t108 296v217q0 184 -108 296t-285 112
q-179 0 -287 -112t-108 -296v-217q0 -184 108 -296t287 -112z" />
    <glyph glyph-name="r" unicode="r" horiz-adv-x="745" 
d="M678 1147q45 0 45 -39t-45 -39h-49q-168 0 -270.5 -103.5t-102.5 -273.5v-659q0 -43 -41 -43t-41 43v1081q0 20 11 31.5t30 11.5q39 0 39 -43v-180q55 101 153.5 157t227.5 56h43z" />
    <glyph glyph-name="s" unicode="s" horiz-adv-x="1089" 
d="M541 -20q-158 0 -271 62.5t-170 174.5q-17 38 27 53q36 12 53 -24q49 -89 141.5 -139t219.5 -50q163 0 263.5 69t100.5 179v6q0 66 -27 111t-72 67t-104 34.5t-124 18t-130 12.5t-124 24t-104 46t-72 85t-27 135v8q0 141 118.5 228t311.5 87q147 0 251 -62.5t156 -174.5
q18 -40 -26 -53q-36 -12 -53 24q-44 89 -128 139t-200 50q-156 0 -252 -67.5t-96 -176.5v-2q0 -64 27 -107t72 -64t104 -33t124 -18t130 -14t124 -26t104 -48t72 -86.5t27 -136.5v-12q0 -143 -123.5 -231t-322.5 -88z" />
    <glyph glyph-name="t" unicode="t" horiz-adv-x="677" 
d="M596 1073h-283v-837q0 -73 44 -117.5t116 -44.5h102q43 0 43 -37t-43 -37h-108q-106 0 -171 62.5t-65 166.5v844h-159q-43 0 -43 37t43 37h161v285q0 20 11 31.5t30 11.5q39 0 39 -43v-285h283q43 0 43 -37t-43 -37z" />
    <glyph glyph-name="u" unicode="u" horiz-adv-x="1224" 
d="M1010 1157q41 0 41 -43v-1081q0 -43 -39 -43q-19 0 -30 11.5t-11 31.5v151q-53 -97 -149 -150.5t-222 -53.5q-196 0 -317 121t-121 317v696q0 43 41 43t41 -43v-690q0 -166 99.5 -266.5t262.5 -100.5t263 101t100 266v690q0 43 41 43z" />
    <glyph glyph-name="v" unicode="v" horiz-adv-x="1048" 
d="M963 1155q36 -12 22 -55l-389 -1059q-16 -51 -68 -51h-8q-51 0 -67 51l-390 1059q-16 42 25 55q38 13 51 -27l385 -1058l385 1056q6 19 20.5 27t33.5 2z" />
    <glyph glyph-name="w" unicode="w" horiz-adv-x="1660" 
d="M1571 1155q17 -4 23.5 -19t0.5 -34l-331 -1059q-17 -53 -66 -53h-10q-50 0 -64 53l-295 1030l-294 -1030q-14 -53 -64 -53h-8q-49 0 -66 53l-331 1057q-6 19 1 35t25 20q38 10 49 -29l326 -1056l295 1036q14 51 63 51h11q49 0 63 -51l295 -1032l326 1052q11 39 51 29z
" />
    <glyph glyph-name="x" unicode="x" horiz-adv-x="1015" 
d="M954 55q25 -34 -8 -57t-57 12l-381 522l-381 -522q-25 -35 -57 -12t-9 55l396 537l-381 502q-24 35 8 57q30 24 55 -12l369 -492l369 492q24 35 57 12q30 -23 6 -57l-379 -502z" />
    <glyph glyph-name="y" unicode="y" horiz-adv-x="1048" 
d="M963 1155q17 -6 23 -21t-1 -34l-487 -1282q-42 -111 -130.5 -179.5t-193.5 -68.5q-19 0 -30 11t-11 30q0 33 35 33q83 0 153.5 54.5t102.5 145.5l57 160l-415 1096q-17 43 22 55q35 12 51 -27l387 -1013l383 1013q16 39 54 27z" />
    <glyph glyph-name="z" unicode="z" horiz-adv-x="1001" 
d="M891 74q43 0 43 -37t-43 -37h-764q-24 0 -38.5 13.5t-14.5 35.5v2q0 30 18 53l729 969h-684q-43 0 -43 37t43 37h723q53 0 53 -47v-4q0 -31 -18 -54l-729 -968h725z" />
    <glyph glyph-name="braceleft" unicode="{" horiz-adv-x="704" 
d="M633 -420q43 0 43 -39q0 -43 -43 -43q-190 0 -299 110t-109 292v479q0 72 -35.5 114.5t-89.5 53.5q-30 7 -44.5 16t-14.5 27t14.5 27t44.5 16q54 11 89.5 53.5t35.5 114.5v508q0 184 110 292.5t298 108.5q43 0 43 -43q0 -39 -43 -39q-150 0 -236 -89t-86 -236v-508
q0 -71 -34 -124.5t-95 -80.5q61 -27 95 -80.5t34 -124.5v-479q0 -149 87.5 -237.5t234.5 -88.5z" />
    <glyph glyph-name="bar" unicode="|" horiz-adv-x="471" 
d="M236 -430q-41 0 -41 43v1982q0 43 41 43q40 0 40 -43v-1982q0 -43 -40 -43z" />
    <glyph glyph-name="braceright" unicode="}" horiz-adv-x="704" 
d="M604 633q31 -7 45.5 -16t14.5 -27t-14.5 -27t-45.5 -16q-54 -11 -89.5 -53.5t-35.5 -114.5v-479q0 -182 -108.5 -292t-298.5 -110q-43 0 -43 43q0 39 43 39q146 0 233.5 88.5t87.5 237.5v479q0 71 34 124.5t95 80.5q-61 27 -95 80.5t-34 124.5v508q0 147 -85.5 236
t-235.5 89q-43 0 -43 39q0 43 43 43q188 0 297.5 -108.5t109.5 -292.5v-508q0 -72 35.5 -114.5t89.5 -53.5z" />
    <glyph glyph-name="asciitilde" unicode="~" horiz-adv-x="1314" 
d="M236 510q-24 -34 -48 -16q-31 24 -10 55q50 70 121 111.5t145 41.5q55 0 116 -25t106 -54.5t102 -54.5t104 -25q57 0 111.5 32t95.5 87q23 34 47 16q32 -25 11 -55q-50 -70 -122 -112t-147 -42q-55 0 -116.5 25t-107.5 55t-103.5 55t-104.5 25q-54 0 -106.5 -32
t-93.5 -87z" />
    <glyph glyph-name="uni00A0" unicode="&#xa0;" horiz-adv-x="565" 
 />
    <glyph glyph-name="exclamdown" unicode="&#xa1;" horiz-adv-x="438" 
d="M219 961q-57 0 -57 61v74q0 61 57 61t57 -61v-74q0 -61 -57 -61zM219 -430q-43 0 -43 43v1020q0 43 43 43t43 -43v-1020q0 -43 -43 -43z" />
    <glyph glyph-name="cent" unicode="&#xa2;" horiz-adv-x="1126" 
d="M983 516q45 -16 27 -51q-56 -107 -154.5 -171t-224.5 -73v-143q0 -43 -41 -43t-41 43v143q-193 12 -309.5 139.5t-116.5 327.5v248q0 201 117 329t309 140v164q0 43 41 43t41 -43v-164q127 -10 227.5 -80.5t153.5 -183.5q17 -38 -27 -54q-34 -12 -53 27q-54 101 -142 158
t-202 57q-172 0 -277.5 -109.5t-105.5 -289.5v-236q0 -179 106 -288t279 -109q115 0 205.5 53.5t134.5 141.5q17 36 53 24z" />
    <glyph glyph-name="sterling" unicode="&#xa3;" horiz-adv-x="1394" 
d="M1257 82q43 0 43 -41t-43 -41h-1128q-43 0 -43 41t43 41h162v709h-162q-43 0 -43 40q0 41 43 41h162v236q0 243 142.5 392t375.5 149q175 0 302 -89t183 -247q15 -40 -28 -53q-44 -12 -58 26q-50 131 -154.5 206t-244.5 75q-195 0 -313.5 -128t-118.5 -337v-230h592
q43 0 43 -41q0 -40 -43 -40h-592v-709h880z" />
    <glyph glyph-name="currency" unicode="&#xa4;" horiz-adv-x="1398" 
d="M1251 231q25 -36 -4 -57q-36 -25 -59 8l-164 211q-128 -112 -326 -112q-195 0 -323 112l-164 -211q-22 -32 -57 -8q-31 22 -7 57l172 220q-96 129 -96 311v102q0 183 96 312l-172 219q-24 34 7 59q31 27 57 -10l164 -211q129 113 323 113q197 0 326 -113l164 211
q26 37 59 10q27 -24 4 -57l-172 -221q97 -130 97 -312v-102q0 -182 -97 -309zM698 358q178 0 287 112.5t109 297.5v90q0 185 -109 297.5t-287 112.5q-177 0 -285 -112.5t-108 -297.5v-90q0 -185 108 -297.5t285 -112.5z" />
    <glyph glyph-name="yen" unicode="&#xa5;" horiz-adv-x="1390" 
d="M1280 1630q34 -20 10 -59l-497 -774h350q43 0 43 -41t-43 -41h-895q-43 0 -43 41t43 41h350l-498 774q-25 39 13 59t57 -14l524 -819h2l525 819q21 37 59 14zM1143 551q43 0 43 -41t-43 -41h-406v-436q0 -43 -43 -43t-43 43v436h-403q-43 0 -43 41t43 41h895z" />
    <glyph glyph-name="brokenbar" unicode="&#xa6;" horiz-adv-x="471" 
d="M236 829q-41 0 -41 43v723q0 43 41 43q40 0 40 -43v-723q0 -43 -40 -43zM236 -430q-41 0 -41 43v784q0 43 41 43q40 0 40 -43v-784q0 -43 -40 -43z" />
    <glyph glyph-name="section" unicode="&#xa7;" horiz-adv-x="1212" 
d="M979 295q106 -119 106 -279v-26q0 -192 -132 -311t-347 -119q-171 0 -294 91t-171 249q-12 40 31 53q43 12 55 -29q40 -131 140 -206.5t239 -75.5q177 0 285 97.5t108 256.5v20q0 123 -81 213q-119 -104 -308 -104q-204 0 -329 127t-125 334v39q0 166 84 286
q-109 119 -109 281v27q0 192 132 311t347 119q171 0 294 -91t171 -249q12 -41 -31 -54q-43 -12 -55 29q-40 132 -140.5 207.5t-238.5 75.5q-177 0 -285 -98t-108 -257v-20q0 -121 84 -215q120 108 309 108q206 0 331.5 -126.5t125.5 -333.5v-39q0 -174 -88 -291zM610 203
q169 0 272 107t103 282v26q0 175 -103 282.5t-272 107.5q-167 0 -269.5 -107.5t-102.5 -282.5v-26q0 -175 102.5 -282t269.5 -107z" />
    <glyph glyph-name="dieresis" unicode="&#xa8;" horiz-adv-x="743" 
d="M211 1442q-41 0 -41 43v110q0 43 41 43t41 -43v-110q0 -43 -41 -43zM532 1442q-40 0 -40 43v110q0 43 40 43q41 0 41 -43v-110q0 -43 -41 -43z" />
    <glyph glyph-name="copyright" unicode="&#xa9;" horiz-adv-x="2086" 
d="M1042 -164q-275 0 -485 109.5t-325 309.5t-115 460v198q0 260 115 460t325 309.5t485 109.5q206 0 379.5 -63.5t294 -178t187.5 -278.5t67 -359v-198q0 -195 -67 -359t-187.5 -278.5t-294 -178t-379.5 -63.5zM1042 -82q250 0 441.5 100t296 282.5t104.5 420.5v186
q0 238 -104.5 420.5t-296 282.5t-441.5 100q-249 0 -440 -100t-295 -282.5t-104 -420.5v-186q0 -238 104 -420.5t295 -282.5t440 -100zM1044 272q-201 0 -323.5 126.5t-122.5 332.5v164q0 207 122.5 334t321.5 127q139 0 248.5 -71.5t167.5 -194.5q17 -38 -26 -54
q-35 -12 -54 27q-51 102 -136.5 158.5t-199.5 56.5q-163 0 -262.5 -107t-99.5 -282v-152q0 -174 100 -280.5t264 -106.5q114 0 201 53t131 142q17 36 54 24q45 -15 26 -51q-63 -117 -168.5 -181.5t-243.5 -64.5z" />
    <glyph glyph-name="ordfeminine" unicode="&#xaa;" horiz-adv-x="794" 
d="M389 1640q114 0 183 -63t69 -166v-391q0 -41 -33 -41t-33 41v63q-74 -110 -245 -110q-93 0 -150 47.5t-57 122.5v39q0 73 52 117t138 44h258v62q0 77 -49.5 124.5t-132.5 47.5q-115 0 -174 -86q-19 -29 -43 -18q-35 14 -20 45q29 59 90.5 90.5t146.5 31.5zM342 1036
q104 0 166.5 51t62.5 136v61h-245q-61 0 -97 -28t-36 -80v-27q0 -52 40.5 -82.5t108.5 -30.5z" />
    <glyph glyph-name="guillemotleft" unicode="&#xab;" horiz-adv-x="1536" 
d="M709 276q36 -19 20 -51q-16 -33 -53 -12l-567 319q-31 19 -31 54q0 34 31 53l567 319q38 21 53 -10q15 -35 -20 -53l-557 -309zM1364 276q36 -19 20 -51q-16 -33 -53 -12l-567 319q-31 19 -31 54q0 34 31 53l567 319q37 21 53 -10q15 -35 -20 -53l-557 -309z" />
    <glyph glyph-name="logicalnot" unicode="&#xac;" horiz-adv-x="1155" 
d="M1036 623q43 0 43 -43v-435q0 -43 -41 -43t-41 43v404h-878q-43 0 -43 37t43 37h917z" />
    <glyph glyph-name="uni00AD" unicode="&#xad;" horiz-adv-x="886" 
d="M193 549q-43 0 -43 37t43 37h501q43 0 43 -37t-43 -37h-501z" />
    <glyph glyph-name="registered" unicode="&#xae;" horiz-adv-x="1075" 
d="M537 1747q191 0 308.5 -117.5t117.5 -308.5v-39q0 -190 -117.5 -308t-308.5 -118q-190 0 -307 117.5t-117 308.5v39q0 191 117 308.5t307 117.5zM887 1288v27q0 164 -96 264t-254 100q-157 0 -253 -100t-96 -264v-27q0 -164 96 -264t253 -100q158 0 254 100t96 264z
M584 1552q68 0 108.5 -35.5t40.5 -93.5v-12q0 -44 -24 -75.5t-66 -45.5l78 -176q17 -38 -16 -51q-36 -14 -52 22l-84 197h-120v-180q0 -41 -37 -41q-39 0 -39 41v409q0 41 41 41h170zM657 1415v6q0 29 -20.5 46.5t-54.5 17.5h-133v-135h133q34 0 54.5 18t20.5 47z" />
    <glyph glyph-name="macron" unicode="&#xaf;" horiz-adv-x="690" 
d="M123 1462q-43 0 -43 37t43 37h444q43 0 43 -37t-43 -37h-444z" />
    <glyph glyph-name="degree" unicode="&#xb0;" horiz-adv-x="765" 
d="M381 1096q-119 0 -191.5 64t-72.5 169v86q0 106 72.5 170t191.5 64q120 0 193 -64t73 -170v-86q0 -106 -73 -169.5t-193 -63.5zM381 1174q83 0 133.5 44t50.5 117v74q0 73 -50.5 117.5t-133.5 44.5q-82 0 -132 -44.5t-50 -117.5v-74q0 -73 50 -117t132 -44z" />
    <glyph glyph-name="plusminus" unicode="&#xb1;" horiz-adv-x="1155" 
d="M119 651q-43 0 -43 37t43 37h418v301q0 43 41 43q40 0 40 -43v-301h418q43 0 43 -37t-43 -37h-418v-301q0 -43 -40 -43q-41 0 -41 43v301h-418zM1036 176q43 0 43 -37t-43 -37h-917q-43 0 -43 37t43 37h917z" />
    <glyph glyph-name="acute" unicode="&#xb4;" horiz-adv-x="778" 
d="M176 1317q-34 -18 -53 10t18 51l414 248q39 23 57 -12q20 -38 -16 -58z" />
    <glyph glyph-name="uni00B5" unicode="&#xb5;" horiz-adv-x="1247" 
d="M1034 1157q41 0 41 -43v-696q0 -196 -120.5 -317t-317.5 -121q-125 0 -220.5 52.5t-148.5 147.5v-567q0 -43 -41 -43t-41 43v1501q0 43 41 43t41 -43v-690q0 -165 100 -266t263 -101t262.5 100.5t99.5 266.5v690q0 43 41 43z" />
    <glyph glyph-name="paragraph" unicode="&#xb6;" horiz-adv-x="1062" 
d="M514 1638q29 0 46.5 -17t17.5 -46v-1962q0 -43 -43 -43t-43 43v1188h-33q-175 0 -284 107t-109 280v41q0 184 119 296.5t311 112.5h18zM805 1638q43 0 43 -43v-1982q0 -43 -43 -43t-43 43v1982q0 43 43 43z" />
    <glyph glyph-name="periodcentered" unicode="&#xb7;" horiz-adv-x="413" 
d="M207 483q-57 0 -57 62v73q0 62 57 62t57 -62v-73q0 -62 -57 -62z" />
    <glyph glyph-name="cedilla" unicode="&#xb8;" horiz-adv-x="647" 
d="M307 -113q81 -14 129.5 -54t48.5 -97v-19q0 -62 -47 -99.5t-123 -37.5h-112q-41 0 -41 37t41 37h102q44 0 71 18t27 49v13q0 34 -28.5 57t-77.5 31l-51 8q-44 6 -29 49l64 174l75 -16l-55 -148z" />
    <glyph glyph-name="ordmasculine" unicode="&#xba;" horiz-adv-x="790" 
d="M395 973q-123 0 -198.5 75t-75.5 197v123q0 123 75.5 197.5t198.5 74.5t199 -74.5t76 -197.5v-123q0 -122 -76 -197t-199 -75zM395 1036q92 0 148.5 59t56.5 154v115q0 97 -56.5 155t-148.5 58t-148.5 -58t-56.5 -155v-115q0 -95 56.5 -154t148.5 -59z" />
    <glyph glyph-name="guillemotright" unicode="&#xbb;" horiz-adv-x="1536" 
d="M772 639q31 -19 31 -53q0 -35 -31 -54l-567 -319q-37 -21 -53 12q-16 32 20 51l557 310l-557 309q-35 18 -20 53q15 31 53 10zM1427 639q31 -19 31 -53q0 -35 -31 -54l-567 -319q-37 -21 -53 12q-16 32 20 51l557 310l-557 309q-35 18 -20 53q15 31 53 10z" />
    <glyph glyph-name="onequarter" unicode="&#xbc;" horiz-adv-x="1572" 
d="M1210 1628q38 -20 15 -57l-897 -1555q-20 -36 -58 -16q-37 19 -14 57l897 1555q20 35 57 16zM395 850v682l-254 -215q-31 -28 -55 2q-23 27 8 55l277 232q25 22 59 22h4q43 0 43 -43v-735q0 -43 -41 -43t-41 43zM1450 283q43 0 43 -37t-43 -37h-61v-172q0 -43 -39 -43
q-19 0 -30 11.5t-11 31.5v172h-377q-15 0 -25 11.5t-10 29.5v2q0 31 18 55l365 481q21 27 53 27h4q23 0 37.5 -14t14.5 -37v-481h61zM985 283h326l2 436z" />
    <glyph glyph-name="onehalf" unicode="&#xbd;" horiz-adv-x="1556" 
d="M1210 1628q38 -20 15 -57l-897 -1555q-20 -36 -58 -16q-37 19 -14 57l897 1555q20 35 57 16zM395 850v682l-254 -215q-31 -28 -55 2q-23 27 8 55l277 232q25 22 59 22h4q43 0 43 -43v-735q0 -43 -41 -43t-41 43zM1413 72q43 0 43 -35q0 -37 -43 -37h-461q-20 0 -31.5 11
t-11.5 30v2q0 32 27 53q89 70 143 113.5t117.5 101t97 99t57 87.5t23.5 87v8q0 72 -50 116t-132 44q-129 0 -193 -115q-20 -38 -51 -25q-38 15 -22 54q31 74 101 116.5t165 42.5q118 0 190 -62.5t72 -164.5v-12q0 -61 -31 -123t-96 -129.5t-132 -124.5t-173 -137h391z" />
    <glyph glyph-name="threequarters" unicode="&#xbe;" horiz-adv-x="1626" 
d="M633 1018q0 -97 -75 -156t-198 -59q-91 0 -160 41.5t-100 111.5q-16 41 25 54q34 12 51 -27q53 -109 182 -109q87 0 140 41t53 107v22q0 66 -52.5 107t-138.5 41h-14q-37 0 -37 35q0 37 37 37h2q86 0 138.5 39t52.5 104v16q0 64 -50.5 103t-132.5 39q-61 0 -108.5 -27.5
t-69.5 -75.5q-18 -40 -49 -26q-42 17 -27 53q29 69 96.5 109t157.5 40q118 0 190 -58t72 -153v-20q0 -62 -38.5 -108t-106.5 -70q75 -21 117.5 -69t42.5 -116v-26zM1274 1628q37 -19 14 -57l-897 -1555q-20 -35 -57 -16q-38 20 -15 57l898 1555q20 35 57 16zM1513 283
q43 0 43 -37t-43 -37h-61v-172q0 -43 -39 -43q-19 0 -30 11.5t-11 31.5v172h-377q-15 0 -24.5 11t-9.5 30v2q0 31 18 55l364 481q21 27 54 27h4q23 0 37 -14t14 -37v-481h61zM1049 283h325l2 436z" />
    <glyph glyph-name="questiondown" unicode="&#xbf;" horiz-adv-x="972" 
d="M698 961q-57 0 -57 61v74q0 61 57 61q58 0 58 -61v-74q0 -61 -58 -61zM862 -338q43 0 43 -41t-43 -41h-375q-185 0 -299 112.5t-114 295.5v30q0 183 114 295.5t299 112.5h168v207q0 43 43 43t43 -43v-246q0 -43 -43 -43h-204q-149 0 -241.5 -91.5t-92.5 -240.5v-18
q0 -149 92.5 -240.5t241.5 -91.5h368z" />
    <glyph glyph-name="Agrave" unicode="&#xc0;" horiz-adv-x="1429" 
d="M442 1882q-38 11 -26 53q13 40 55 27l457 -156q38 -12 28 -49q-9 -35 -53 -22zM1368 49q17 -45 -25 -57t-57 28l-168 449h-809l-168 -449q-15 -41 -55 -28q-41 13 -25 57l576 1538q19 51 72 51h12q53 0 72 -51zM340 551h747l-372 995z" />
    <glyph glyph-name="Aacute" unicode="&#xc1;" horiz-adv-x="1429" 
d="M526 1735q-39 -12 -51 22t29 49l454 156q43 16 56 -27q12 -41 -27 -53zM1368 49q17 -45 -25 -57t-57 28l-168 449h-809l-168 -449q-15 -41 -55 -28q-41 13 -25 57l576 1538q19 51 72 51h12q53 0 72 -51zM340 551h747l-372 995z" />
    <glyph glyph-name="Acircumflex" unicode="&#xc2;" horiz-adv-x="1429" 
d="M467 1722q-26 -23 -47 -2q-26 26 0 52l268 251q13 13 27 13q13 0 26 -13l269 -251q27 -27 2 -52q-21 -21 -47 2l-248 215zM1368 49q17 -45 -25 -57t-57 28l-168 449h-809l-168 -449q-15 -41 -55 -28q-41 13 -25 57l576 1538q19 51 72 51h12q53 0 72 -51zM340 551h747
l-372 995z" />
    <glyph glyph-name="Atilde" unicode="&#xc3;" horiz-adv-x="1429" 
d="M471 1765q-28 -25 -51 -2q-28 28 0 56q33 33 79.5 52t90.5 19q50 0 132 -36.5t122 -36.5q64 0 112 45q29 25 52 2q28 -28 0 -56q-33 -33 -79.5 -52t-90.5 -19q-50 0 -132 36.5t-124 36.5q-60 0 -111 -45zM1368 49q17 -45 -25 -57t-57 28l-168 449h-809l-168 -449
q-15 -41 -55 -28q-41 13 -25 57l576 1538q19 51 72 51h12q53 0 72 -51zM340 551h747l-372 995z" />
    <glyph glyph-name="Adieresis" unicode="&#xc4;" horiz-adv-x="1429" 
d="M555 1759q-41 0 -41 43v111q0 43 41 43t41 -43v-111q0 -43 -41 -43zM877 1759q-41 0 -41 43v111q0 43 41 43t41 -43v-111q0 -43 -41 -43zM1368 49q17 -45 -25 -57t-57 28l-168 449h-809l-168 -449q-15 -41 -55 -28q-41 13 -25 57l576 1538q19 51 72 51h12q53 0 72 -51z
M340 551h747l-372 995z" />
    <glyph glyph-name="Aring" unicode="&#xc5;" horiz-adv-x="1429" 
d="M715 1714q-96 0 -154.5 50t-58.5 132v46q0 82 58.5 132t154.5 50t154.5 -50t58.5 -132v-46q0 -82 -58.5 -132t-154.5 -50zM575 1935v-32q0 -53 38.5 -86t101.5 -33t101 33t38 86v32q0 53 -38 86t-101 33t-101.5 -33t-38.5 -86zM1368 49q17 -45 -25 -57t-57 28l-168 449
h-809l-168 -449q-15 -41 -55 -28q-41 13 -25 57l576 1538q19 51 72 51h12q53 0 72 -51zM340 551h747l-372 995z" />
    <glyph glyph-name="AE" unicode="&#xc6;" horiz-adv-x="2105" 
d="M1954 82q43 0 43 -41t-43 -41h-727q-38 0 -47 39l-84 430h-764l-234 -453q-18 -38 -57 -20q-34 17 -16 55l790 1530q24 47 82 47h1036q43 0 43 -41t-43 -41h-956l131 -674h784q43 0 43 -41q0 -40 -43 -40h-768l138 -709h692zM375 551h704l-192 987z" />
    <glyph glyph-name="Ccedilla" unicode="&#xc7;" horiz-adv-x="1386" 
d="M1268 403q43 -16 26 -57q-66 -161 -198.5 -256.5t-309.5 -107.5l-34 -93l6 -2q81 -14 129.5 -54t48.5 -97v-19q0 -62 -47 -99.5t-123 -37.5h-113q-41 0 -41 37t41 37h103q44 0 71 18t27 49v13q0 34 -28.5 57t-77.5 31l-52 8q-43 6 -28 49l37 101q-258 11 -414 174
t-156 424v450q0 280 164.5 450.5t433.5 170.5q193 0 341.5 -102.5t209.5 -258.5q8 -20 0.5 -36.5t-27.5 -22.5q-39 -12 -57 33q-65 143 -187.5 224t-279.5 81q-230 0 -371 -149.5t-141 -395.5v-438q0 -235 141 -379t373 -144q166 0 294.5 90t178.5 220q17 47 60 32z" />
    <glyph glyph-name="Egrave" unicode="&#xc8;" horiz-adv-x="1329" 
d="M418 1882q-39 12 -27 53q13 40 55 27l457 -156q39 -12 29 -49q-9 -35 -53 -22zM1178 82q43 0 43 -41t-43 -41h-934q-43 0 -43 43v1542q0 43 43 43h913q43 0 43 -41t-43 -41h-870v-674h829q43 0 43 -41q0 -40 -43 -40h-829v-709h891z" />
    <glyph glyph-name="Eacute" unicode="&#xc9;" horiz-adv-x="1329" 
d="M502 1735q-39 -12 -51 22t28 49l455 156q42 16 55 -27q12 -42 -26 -53zM1178 82q43 0 43 -41t-43 -41h-934q-43 0 -43 43v1542q0 43 43 43h913q43 0 43 -41t-43 -41h-870v-674h829q43 0 43 -41q0 -40 -43 -40h-829v-709h891z" />
    <glyph glyph-name="Ecircumflex" unicode="&#xca;" horiz-adv-x="1329" 
d="M442 1722q-26 -23 -47 -2q-26 26 0 52l269 251q13 13 26 13q14 0 27 -13l268 -251q27 -27 2 -52q-21 -21 -47 2l-248 215zM1178 82q43 0 43 -41t-43 -41h-934q-43 0 -43 43v1542q0 43 43 43h913q43 0 43 -41t-43 -41h-870v-674h829q43 0 43 -41q0 -40 -43 -40h-829v-709
h891z" />
    <glyph glyph-name="Edieresis" unicode="&#xcb;" horiz-adv-x="1329" 
d="M530 1759q-41 0 -41 43v111q0 43 41 43t41 -43v-111q0 -43 -41 -43zM852 1759q-41 0 -41 43v111q0 43 41 43t41 -43v-111q0 -43 -41 -43zM1178 82q43 0 43 -41t-43 -41h-934q-43 0 -43 43v1542q0 43 43 43h913q43 0 43 -41t-43 -41h-870v-674h829q43 0 43 -41
q0 -40 -43 -40h-829v-709h891z" />
    <glyph glyph-name="Igrave" unicode="&#xcc;" horiz-adv-x="487" 
d="M440 1757q-9 -35 -53 -22l-354 112q-41 12 -27 56q13 40 55 24l351 -121q37 -14 28 -49zM244 -10q-43 0 -43 43v1562q0 43 43 43t43 -43v-1562q0 -43 -43 -43z" />
    <glyph glyph-name="Iacute" unicode="&#xcd;" horiz-adv-x="487" 
d="M100 1735q-39 -12 -51 22t29 49l348 121q42 16 55 -24q13 -44 -26 -56zM244 -10q-43 0 -43 43v1562q0 43 43 43t43 -43v-1562q0 -43 -43 -43z" />
    <glyph glyph-name="Icircumflex" unicode="&#xce;" horiz-adv-x="487" 
d="M84 1729q-23 -30 -49 -7t-6 50l186 245q15 21 29 21q13 0 28 -21l187 -245q20 -27 -6 -50q-27 -23 -50 7l-159 196zM244 -10q-43 0 -43 43v1562q0 43 43 43t43 -43v-1562q0 -43 -43 -43z" />
    <glyph glyph-name="Idieresis" unicode="&#xcf;" horiz-adv-x="487" 
d="M145 1759q-41 0 -41 43v111q0 43 41 43t41 -43v-111q0 -43 -41 -43zM342 1759q-41 0 -41 43v111q0 43 41 43t41 -43v-111q0 -43 -41 -43zM244 -10q-43 0 -43 43v1562q0 43 43 43t43 -43v-1562q0 -43 -43 -43z" />
    <glyph glyph-name="Eth" unicode="&#xd0;" horiz-adv-x="1474" 
d="M727 1628q275 0 443.5 -168.5t168.5 -443.5v-404q0 -275 -168.5 -443.5t-443.5 -168.5h-475q-43 0 -43 43v743h-88q-43 0 -43 41t43 41h88v717q0 43 43 43h475zM1253 618v392q0 241 -146.5 388.5t-385.5 147.5h-426v-678h385q43 0 43 -41t-43 -41h-385v-704h426
q239 0 385.5 147.5t146.5 388.5z" />
    <glyph glyph-name="Ntilde" unicode="&#xd1;" horiz-adv-x="1552" 
d="M532 1765q-28 -25 -51 -2q-28 28 0 56q33 33 79.5 52t90.5 19q49 0 131 -36.5t123 -36.5q65 0 113 45q28 25 51 2q28 -28 0 -56q-33 -33 -79.5 -52t-90.5 -19q-51 0 -133 36.5t-123 36.5q-60 0 -111 -45zM1309 1638q43 0 43 -43v-1550q0 -26 -15 -40.5t-41 -14.5h-6
q-32 0 -51 28l-952 1475v-1460q0 -43 -43 -43t-43 43v1550q0 55 55 55h6q32 0 51 -28l953 -1475v1460q0 43 43 43z" />
    <glyph glyph-name="Ograve" unicode="&#xd2;" horiz-adv-x="1509" 
d="M995 1757q-9 -35 -53 -22l-461 147q-38 11 -26 53q13 40 55 27l457 -156q38 -12 28 -49zM754 -20q-278 0 -448.5 168.5t-170.5 443.5v444q0 275 170.5 444t448.5 169q279 0 449.5 -168.5t170.5 -444.5v-444q0 -275 -170 -443.5t-450 -168.5zM754 61q241 0 387.5 147.5
t146.5 389.5v432q0 242 -146.5 389.5t-387.5 147.5q-239 0 -386 -148t-147 -389v-432q0 -241 147 -389t386 -148z" />
    <glyph glyph-name="Oacute" unicode="&#xd3;" horiz-adv-x="1509" 
d="M565 1735q-39 -12 -51 22t29 49l454 156q43 16 56 -27q12 -41 -27 -53zM754 -20q-278 0 -448.5 168.5t-170.5 443.5v444q0 275 170.5 444t448.5 169q279 0 449.5 -168.5t170.5 -444.5v-444q0 -275 -170 -443.5t-450 -168.5zM754 61q241 0 387.5 147.5t146.5 389.5v432
q0 242 -146.5 389.5t-387.5 147.5q-239 0 -386 -148t-147 -389v-432q0 -241 147 -389t386 -148z" />
    <glyph glyph-name="Ocircumflex" unicode="&#xd4;" horiz-adv-x="1509" 
d="M459 1720q-26 26 0 52l268 251q13 13 27 13q13 0 26 -13l269 -251q27 -27 2 -52q-21 -21 -47 2l-248 215l-250 -215q-26 -23 -47 -2zM754 -20q-278 0 -448.5 168.5t-170.5 443.5v444q0 275 170.5 444t448.5 169q279 0 449.5 -168.5t170.5 -444.5v-444q0 -275 -170 -443.5
t-450 -168.5zM754 61q241 0 387.5 147.5t146.5 389.5v432q0 242 -146.5 389.5t-387.5 147.5q-239 0 -386 -148t-147 -389v-432q0 -241 147 -389t386 -148z" />
    <glyph glyph-name="Otilde" unicode="&#xd5;" horiz-adv-x="1509" 
d="M510 1765q-28 -25 -51 -2q-28 28 0 56q33 33 79.5 52t90.5 19q49 0 131 -36.5t123 -36.5q64 0 112 45q29 25 52 2q28 -28 0 -56q-33 -33 -79.5 -52t-90.5 -19q-51 0 -133 36.5t-123 36.5q-60 0 -111 -45zM754 -20q-278 0 -448.5 168.5t-170.5 443.5v444q0 275 170.5 444
t448.5 169q279 0 449.5 -168.5t170.5 -444.5v-444q0 -275 -170 -443.5t-450 -168.5zM754 61q241 0 387.5 147.5t146.5 389.5v432q0 242 -146.5 389.5t-387.5 147.5q-239 0 -386 -148t-147 -389v-432q0 -241 147 -389t386 -148z" />
    <glyph glyph-name="Odieresis" unicode="&#xd6;" horiz-adv-x="1509" 
d="M594 1759q-41 0 -41 43v111q0 43 41 43t41 -43v-111q0 -43 -41 -43zM915 1759q-41 0 -41 43v111q0 43 41 43t41 -43v-111q0 -43 -41 -43zM754 -20q-278 0 -448.5 168.5t-170.5 443.5v444q0 275 170.5 444t448.5 169q279 0 449.5 -168.5t170.5 -444.5v-444
q0 -275 -170 -443.5t-450 -168.5zM754 61q241 0 387.5 147.5t146.5 389.5v432q0 242 -146.5 389.5t-387.5 147.5q-239 0 -386 -148t-147 -389v-432q0 -241 147 -389t386 -148z" />
    <glyph glyph-name="multiply" unicode="&#xd7;" horiz-adv-x="1155" 
d="M633 586l352 -353q14 -14 15 -29.5t-11 -27.5t-29 -11.5t-30 13.5l-352 352l-353 -352q-13 -13 -29 -13.5t-28 11.5q-29 26 2 57l352 353l-352 352q-30 30 -2 59q12 12 27.5 11t29.5 -15l353 -352l352 352q32 31 59 4q12 -12 11 -28.5t-15 -30.5z" />
    <glyph glyph-name="Oslash" unicode="&#xd8;" horiz-adv-x="1517" 
d="M1403 1585q30 -27 4 -59l-121 -144q92 -150 92 -346v-444q0 -275 -170 -443.5t-450 -168.5q-302 0 -475 198l-109 -129q-25 -31 -57 -6q-33 27 -4 59l118 144q-92 147 -92 346v444q0 275 170.5 444t448.5 169q150 0 272 -52t205 -147l108 129q30 33 60 6zM225 598
q0 -158 66 -281l889 1065q-71 89 -179.5 137t-242.5 48q-239 0 -386 -148t-147 -389v-432zM1292 1030q0 161 -65 279l-889 -1063q71 -89 179 -137t241 -48q241 0 387.5 147.5t146.5 389.5v432z" />
    <glyph glyph-name="Ugrave" unicode="&#xd9;" horiz-adv-x="1476" 
d="M981 1757q-9 -35 -53 -22l-461 147q-39 12 -27 53q13 40 56 27l456 -156q39 -12 29 -49zM739 -20q-249 0 -400 150t-151 396v1069q0 43 43 43t43 -43v-1063q0 -213 127.5 -342t337.5 -129q209 0 336 129.5t127 341.5v1063q0 43 43 43t43 -43v-1069q0 -246 -151 -396
t-398 -150z" />
    <glyph glyph-name="Uacute" unicode="&#xda;" horiz-adv-x="1476" 
d="M551 1735q-39 -12 -51 22t28 49l455 156q42 16 55 -27q12 -42 -26 -53zM739 -20q-249 0 -400 150t-151 396v1069q0 43 43 43t43 -43v-1063q0 -213 127.5 -342t337.5 -129q209 0 336 129.5t127 341.5v1063q0 43 43 43t43 -43v-1069q0 -246 -151 -396t-398 -150z" />
    <glyph glyph-name="Ucircumflex" unicode="&#xdb;" horiz-adv-x="1476" 
d="M444 1720q-26 26 0 52l269 251q13 13 26 13q14 0 27 -13l268 -251q27 -27 2 -52q-21 -21 -47 2l-248 215l-249 -215q-27 -23 -48 -2zM739 -20q-249 0 -400 150t-151 396v1069q0 43 43 43t43 -43v-1063q0 -213 127.5 -342t337.5 -129q209 0 336 129.5t127 341.5v1063
q0 43 43 43t43 -43v-1069q0 -246 -151 -396t-398 -150z" />
    <glyph glyph-name="Udieresis" unicode="&#xdc;" horiz-adv-x="1476" 
d="M580 1759q-41 0 -41 43v111q0 43 41 43t41 -43v-111q0 -43 -41 -43zM901 1759q-41 0 -41 43v111q0 43 41 43t41 -43v-111q0 -43 -41 -43zM739 -20q-249 0 -400 150t-151 396v1069q0 43 43 43t43 -43v-1063q0 -213 127.5 -342t337.5 -129q209 0 336 129.5t127 341.5v1063
q0 43 43 43t43 -43v-1069q0 -246 -151 -396t-398 -150z" />
    <glyph glyph-name="Yacute" unicode="&#xdd;" horiz-adv-x="1376" 
d="M500 1735q-39 -12 -51 22t28 49l455 156q42 16 55 -27q12 -42 -26 -53zM1274 1630q34 -20 10 -59l-553 -864v-674q0 -43 -43 -43t-43 43v678l-551 860q-25 40 12 59q39 20 58 -14l526 -821l524 821q21 38 60 14z" />
    <glyph glyph-name="Thorn" unicode="&#xde;" horiz-adv-x="1404" 
d="M893 1247q185 0 299.5 -112t114.5 -295v-31q0 -183 -114.5 -295.5t-299.5 -112.5h-606v-368q0 -43 -43 -43t-43 43v1562q0 43 43 43t43 -43v-348h606zM1221 815v19q0 149 -92 240t-242 91h-600v-682h600q149 0 241.5 91.5t92.5 240.5z" />
    <glyph glyph-name="germandbls" unicode="&#xdf;" horiz-adv-x="1220" 
d="M788 840q150 -28 238 -125.5t88 -241.5v-80q0 -177 -119 -285t-313 -108h-133q-43 0 -43 37t43 37h127q160 0 258 89.5t98 235.5v74q0 145 -98 233.5t-258 88.5h-66q-43 0 -43 36q0 37 43 37q161 0 261 86.5t100 227.5v75q0 141 -98.5 227.5t-258.5 86.5t-259 -96
t-99 -252v-1190q0 -43 -41 -43t-41 43v1196q0 189 121 304.5t319 115.5q196 0 317.5 -106t121.5 -279v-82q0 -125 -70.5 -215t-194.5 -127z" />
    <glyph glyph-name="agrave" unicode="&#xe0;" horiz-adv-x="1173" 
d="M352 1556q-36 20 -16 58q18 35 57 12l414 -248q36 -22 20 -51q-17 -30 -55 -10zM578 1167q195 0 314.5 -112.5t119.5 -298.5v-723q0 -43 -39 -43q-19 0 -30 11.5t-11 31.5v172q-61 -106 -180.5 -165.5t-278.5 -59.5q-164 0 -264 80.5t-100 211.5v70q0 129 90 205t241 76
h490v127q0 154 -97 247t-255 93q-123 0 -213.5 -50t-133.5 -139q-17 -36 -53 -24q-44 13 -26 53q52 112 162.5 174.5t263.5 62.5zM483 57q201 0 324 100t123 263v129h-479q-120 0 -190.5 -56.5t-70.5 -156.5v-57q0 -100 80.5 -161t212.5 -61z" />
    <glyph glyph-name="aacute" unicode="&#xe1;" horiz-adv-x="1173" 
d="M383 1317q-34 -18 -53 10t18 51l414 248q39 23 57 -12q20 -38 -16 -58zM578 1167q195 0 314.5 -112.5t119.5 -298.5v-723q0 -43 -39 -43q-19 0 -30 11.5t-11 31.5v172q-61 -106 -180.5 -165.5t-278.5 -59.5q-164 0 -264 80.5t-100 211.5v70q0 129 90 205t241 76h490v127
q0 154 -97 247t-255 93q-123 0 -213.5 -50t-133.5 -139q-17 -36 -53 -24q-44 13 -26 53q52 112 162.5 174.5t263.5 62.5zM483 57q201 0 324 100t123 263v129h-479q-120 0 -190.5 -56.5t-70.5 -156.5v-57q0 -100 80.5 -161t212.5 -61z" />
    <glyph glyph-name="acircumflex" unicode="&#xe2;" horiz-adv-x="1173" 
d="M330 1323q-26 -23 -47 -2q-25 25 0 51l268 252q12 12 27 12q14 0 26 -12l268 -252q26 -26 2 -51q-21 -21 -47 2l-247 215zM578 1167q195 0 314.5 -112.5t119.5 -298.5v-723q0 -43 -39 -43q-19 0 -30 11.5t-11 31.5v172q-61 -106 -180.5 -165.5t-278.5 -59.5
q-164 0 -264 80.5t-100 211.5v70q0 129 90 205t241 76h490v127q0 154 -97 247t-255 93q-123 0 -213.5 -50t-133.5 -139q-17 -36 -53 -24q-44 13 -26 53q52 112 162.5 174.5t263.5 62.5zM483 57q201 0 324 100t123 263v129h-479q-120 0 -190.5 -56.5t-70.5 -156.5v-57
q0 -100 80.5 -161t212.5 -61z" />
    <glyph glyph-name="atilde" unicode="&#xe3;" horiz-adv-x="1173" 
d="M334 1448q-28 -25 -51 -2q-27 28 0 55q36 33 82 52.5t88 19.5q49 0 131 -37t123 -37q64 0 112 45q28 25 51 2q28 -28 0 -55q-36 -33 -82 -52.5t-88 -19.5q-50 0 -132 37t-124 37q-59 0 -110 -45zM578 1167q195 0 314.5 -112.5t119.5 -298.5v-723q0 -43 -39 -43
q-19 0 -30 11.5t-11 31.5v172q-61 -106 -180.5 -165.5t-278.5 -59.5q-164 0 -264 80.5t-100 211.5v70q0 129 90 205t241 76h490v127q0 154 -97 247t-255 93q-123 0 -213.5 -50t-133.5 -139q-17 -36 -53 -24q-44 13 -26 53q52 112 162.5 174.5t263.5 62.5zM483 57
q201 0 324 100t123 263v129h-479q-120 0 -190.5 -56.5t-70.5 -156.5v-57q0 -100 80.5 -161t212.5 -61z" />
    <glyph glyph-name="adieresis" unicode="&#xe4;" horiz-adv-x="1173" 
d="M418 1442q-41 0 -41 43v110q0 43 41 43t41 -43v-110q0 -43 -41 -43zM739 1442q-41 0 -41 43v110q0 43 41 43t41 -43v-110q0 -43 -41 -43zM578 1167q195 0 314.5 -112.5t119.5 -298.5v-723q0 -43 -39 -43q-19 0 -30 11.5t-11 31.5v172q-61 -106 -180.5 -165.5
t-278.5 -59.5q-164 0 -264 80.5t-100 211.5v70q0 129 90 205t241 76h490v127q0 154 -97 247t-255 93q-123 0 -213.5 -50t-133.5 -139q-17 -36 -53 -24q-44 13 -26 53q52 112 162.5 174.5t263.5 62.5zM483 57q201 0 324 100t123 263v129h-479q-120 0 -190.5 -56.5
t-70.5 -156.5v-57q0 -100 80.5 -161t212.5 -61z" />
    <glyph glyph-name="aring" unicode="&#xe5;" horiz-adv-x="1173" 
d="M578 1239q-96 0 -154.5 50t-58.5 132v45q0 82 58.5 132.5t154.5 50.5t154.5 -50.5t58.5 -132.5v-45q0 -82 -58.5 -132t-154.5 -50zM438 1460v-33q0 -53 38.5 -85.5t101.5 -32.5t101 32.5t38 85.5v33q0 53 -38 86t-101 33t-101.5 -33t-38.5 -86zM578 1167
q195 0 314.5 -112.5t119.5 -298.5v-723q0 -43 -39 -43q-19 0 -30 11.5t-11 31.5v172q-61 -106 -180.5 -165.5t-278.5 -59.5q-164 0 -264 80.5t-100 211.5v70q0 129 90 205t241 76h490v127q0 154 -97 247t-255 93q-123 0 -213.5 -50t-133.5 -139q-17 -36 -53 -24
q-44 13 -26 53q52 112 162.5 174.5t263.5 62.5zM483 57q201 0 324 100t123 263v129h-479q-120 0 -190.5 -56.5t-70.5 -156.5v-57q0 -100 80.5 -161t212.5 -61z" />
    <glyph glyph-name="ae" unicode="&#xe6;" horiz-adv-x="1976" 
d="M1827 549h-815v-82q0 -185 108 -297.5t285 -112.5q134 0 229 50t140 139q17 36 53 24q43 -15 26 -53q-53 -114 -167.5 -175.5t-280.5 -61.5q-160 0 -275 80t-161 221q-52 -140 -179.5 -220.5t-306.5 -80.5q-168 0 -271 80.5t-103 211.5v70q0 129 90 205t241 76h490v127
q0 154 -97 247t-255 93q-123 0 -213.5 -50t-133.5 -139q-17 -36 -53 -24q-44 13 -26 53q52 112 162.5 174.5t263.5 62.5q151 0 256.5 -72.5t144.5 -199.5q51 129 160.5 200.5t259.5 71.5q212 0 341.5 -132t129.5 -349v-94q0 -43 -43 -43zM1399 1090q-173 0 -280 -113
t-107 -297v-57h776v57q0 184 -107 297t-282 113zM930 467v82h-479q-120 0 -190.5 -56.5t-70.5 -156.5v-57q0 -100 83.5 -161t220.5 -61q196 0 316 112.5t120 297.5z" />
    <glyph glyph-name="ccedilla" unicode="&#xe7;" horiz-adv-x="1103" 
d="M977 276q45 -16 27 -51q-54 -104 -150 -167.5t-219 -75.5l-35 -93l6 -2q81 -14 129.5 -54t48.5 -97v-19q0 -62 -47 -99.5t-123 -37.5h-112q-41 0 -41 37t41 37h102q44 0 71 18t27 49v13q0 34 -28.5 57t-77.5 31l-51 8q-44 6 -29 49l37 101q-198 11 -317 139t-119 330v247
q0 212 128 341.5t337 129.5q140 0 253.5 -72t170.5 -194q16 -37 -27 -53q-35 -12 -53 26q-54 101 -142 158.5t-202 57.5q-172 0 -277.5 -110t-105.5 -290v-235q0 -179 106 -288.5t279 -109.5q115 0 205.5 53.5t134.5 141.5q17 36 53 24z" />
    <glyph glyph-name="egrave" unicode="&#xe8;" horiz-adv-x="1161" 
d="M360 1556q-36 20 -16 58q18 35 57 12l414 -248q37 -22 21 -51q-17 -30 -56 -10zM1012 549h-815v-82q0 -185 108 -297.5t285 -112.5q134 0 228.5 50t139.5 139q17 36 54 24q43 -15 26 -53q-53 -114 -167.5 -175.5t-280.5 -61.5q-214 0 -344.5 132t-130.5 349v225
q0 217 129.5 349t341.5 132q211 0 340 -132t129 -349v-94q0 -43 -43 -43zM586 1090q-175 0 -282 -113t-107 -297v-57h776v57q0 184 -107 297t-280 113z" />
    <glyph glyph-name="eacute" unicode="&#xe9;" horiz-adv-x="1161" 
d="M391 1317q-34 -18 -53 10t18 51l414 248q39 23 57 -12q20 -38 -16 -58zM1012 549h-815v-82q0 -185 108 -297.5t285 -112.5q134 0 228.5 50t139.5 139q17 36 54 24q43 -15 26 -53q-53 -114 -167.5 -175.5t-280.5 -61.5q-214 0 -344.5 132t-130.5 349v225q0 217 129.5 349
t341.5 132q211 0 340 -132t129 -349v-94q0 -43 -43 -43zM586 1090q-175 0 -282 -113t-107 -297v-57h776v57q0 184 -107 297t-280 113z" />
    <glyph glyph-name="ecircumflex" unicode="&#xea;" horiz-adv-x="1161" 
d="M338 1323q-26 -23 -47 -2q-25 25 0 51l268 252q12 12 27 12q14 0 26 -12l269 -252q27 -26 2 -51q-21 -21 -47 2l-248 215zM1012 549h-815v-82q0 -185 108 -297.5t285 -112.5q134 0 228.5 50t139.5 139q17 36 54 24q43 -15 26 -53q-53 -114 -167.5 -175.5t-280.5 -61.5
q-214 0 -344.5 132t-130.5 349v225q0 217 129.5 349t341.5 132q211 0 340 -132t129 -349v-94q0 -43 -43 -43zM586 1090q-175 0 -282 -113t-107 -297v-57h776v57q0 184 -107 297t-280 113z" />
    <glyph glyph-name="edieresis" unicode="&#xeb;" horiz-adv-x="1161" 
d="M426 1442q-41 0 -41 43v110q0 43 41 43t41 -43v-110q0 -43 -41 -43zM748 1442q-41 0 -41 43v110q0 43 41 43q40 0 40 -43v-110q0 -43 -40 -43zM1012 549h-815v-82q0 -185 108 -297.5t285 -112.5q134 0 228.5 50t139.5 139q17 36 54 24q43 -15 26 -53
q-53 -114 -167.5 -175.5t-280.5 -61.5q-214 0 -344.5 132t-130.5 349v225q0 217 129.5 349t341.5 132q211 0 340 -132t129 -349v-94q0 -43 -43 -43zM586 1090q-175 0 -282 -113t-107 -297v-57h776v57q0 184 -107 297t-280 113z" />
    <glyph glyph-name="igrave" unicode="&#xec;" horiz-adv-x="430" 
d="M377 1337q-21 -28 -55 -4l-320 226q-33 23 -10 57q22 32 59 6l311 -231q36 -25 15 -54zM215 -10q-41 0 -41 43v1081q0 43 41 43t41 -43v-1081q0 -43 -41 -43z" />
    <glyph glyph-name="iacute" unicode="&#xed;" horiz-adv-x="430" 
d="M109 1333q-34 -23 -54 4q-21 29 15 54l309 231q37 26 59 -6q23 -34 -10 -57zM215 -10q-41 0 -41 43v1081q0 43 41 43t41 -43v-1081q0 -43 -41 -43z" />
    <glyph glyph-name="icircumflex" unicode="&#xee;" horiz-adv-x="430" 
d="M55 1329q-23 -29 -49 -6t-6 49l186 246q14 20 29 20t29 -20l186 -246q20 -26 -6 -49t-49 6l-160 197zM215 -10q-41 0 -41 43v1081q0 43 41 43t41 -43v-1081q0 -43 -41 -43z" />
    <glyph glyph-name="idieresis" unicode="&#xef;" horiz-adv-x="430" 
d="M117 1442q-41 0 -41 43v110q0 43 41 43t41 -43v-110q0 -43 -41 -43zM313 1442q-41 0 -41 43v110q0 43 41 43t41 -43v-110q0 -43 -41 -43zM215 -10q-41 0 -41 43v1081q0 43 41 43t41 -43v-1081q0 -43 -41 -43z" />
    <glyph glyph-name="eth" unicode="&#xf0;" horiz-adv-x="1210" 
d="M727 1464q162 -115 251 -298t89 -421v-284q0 -217 -131 -349t-346 -132q-214 0 -344.5 132t-130.5 349v225q0 217 128 349t337 132q125 0 222 -50.5t156 -143.5q-67 297 -311 454l-395 -180q-19 -8 -33 -3.5t-20 20.5q-13 33 24 51l346 158q-153 75 -344 90q-46 3 -43 39
q3 37 43 34q240 -18 428 -125l258 119q44 21 56 -14t-25 -53zM985 467v213q0 185 -108.5 297.5t-286.5 112.5q-177 0 -285 -112.5t-108 -297.5v-213q0 -185 108 -297.5t285 -112.5q178 0 286.5 112.5t108.5 297.5z" />
    <glyph glyph-name="ntilde" unicode="&#xf1;" horiz-adv-x="1245" 
d="M375 1448q-28 -25 -51 -2q-28 28 0 55q36 33 82 52.5t88 19.5q50 0 132 -37t122 -37q64 0 112 45q28 25 51 2q27 -28 0 -55q-36 -33 -82 -52.5t-88 -19.5q-51 0 -133 37t-123 37q-59 0 -110 -45zM635 1167q201 0 324.5 -123.5t123.5 -324.5v-686q0 -43 -41 -43t-41 43
v680q0 170 -102.5 273.5t-269.5 103.5q-168 0 -270.5 -103.5t-102.5 -273.5v-680q0 -43 -41 -43t-41 43v1081q0 20 11 31.5t30 11.5q39 0 39 -43v-160q55 101 153.5 157t227.5 56z" />
    <glyph glyph-name="ograve" unicode="&#xf2;" horiz-adv-x="1181" 
d="M840 1327q-17 -30 -56 -10l-419 239q-37 20 -17 58q19 36 58 12l413 -248q37 -22 21 -51zM590 -20q-214 0 -344.5 132t-130.5 349v225q0 217 130.5 349t344.5 132q215 0 346 -132t131 -349v-225q0 -217 -131 -349t-346 -132zM590 57q178 0 286.5 112.5t108.5 297.5v213
q0 185 -108.5 297.5t-286.5 112.5q-177 0 -285 -112.5t-108 -297.5v-213q0 -185 108 -297.5t285 -112.5z" />
    <glyph glyph-name="oacute" unicode="&#xf3;" horiz-adv-x="1181" 
d="M395 1317q-34 -18 -53 10t18 51l414 248q39 23 57 -12q20 -38 -16 -58zM590 -20q-214 0 -344.5 132t-130.5 349v225q0 217 130.5 349t344.5 132q215 0 346 -132t131 -349v-225q0 -217 -131 -349t-346 -132zM590 57q178 0 286.5 112.5t108.5 297.5v213q0 185 -108.5 297.5
t-286.5 112.5q-177 0 -285 -112.5t-108 -297.5v-213q0 -185 108 -297.5t285 -112.5z" />
    <glyph glyph-name="ocircumflex" unicode="&#xf4;" horiz-adv-x="1181" 
d="M295 1321q-25 25 0 51l268 252q12 12 27 12q14 0 26 -12l269 -252q27 -26 2 -51q-21 -21 -47 2l-248 215l-250 -215q-26 -23 -47 -2zM590 -20q-214 0 -344.5 132t-130.5 349v225q0 217 130.5 349t344.5 132q215 0 346 -132t131 -349v-225q0 -217 -131 -349t-346 -132z
M590 57q178 0 286.5 112.5t108.5 297.5v213q0 185 -108.5 297.5t-286.5 112.5q-177 0 -285 -112.5t-108 -297.5v-213q0 -185 108 -297.5t285 -112.5z" />
    <glyph glyph-name="otilde" unicode="&#xf5;" horiz-adv-x="1181" 
d="M346 1448q-28 -25 -51 -2q-27 28 0 55q36 33 82 52.5t88 19.5q49 0 131 -37t123 -37q64 0 112 45q29 25 52 2q27 -28 0 -55q-36 -33 -82 -52.5t-88 -19.5q-51 0 -133 37t-123 37q-60 0 -111 -45zM590 -20q-214 0 -344.5 132t-130.5 349v225q0 217 130.5 349t344.5 132
q215 0 346 -132t131 -349v-225q0 -217 -131 -349t-346 -132zM590 57q178 0 286.5 112.5t108.5 297.5v213q0 185 -108.5 297.5t-286.5 112.5q-177 0 -285 -112.5t-108 -297.5v-213q0 -185 108 -297.5t285 -112.5z" />
    <glyph glyph-name="odieresis" unicode="&#xf6;" horiz-adv-x="1181" 
d="M430 1442q-41 0 -41 43v110q0 43 41 43t41 -43v-110q0 -43 -41 -43zM752 1442q-41 0 -41 43v110q0 43 41 43t41 -43v-110q0 -43 -41 -43zM590 -20q-214 0 -344.5 132t-130.5 349v225q0 217 130.5 349t344.5 132q215 0 346 -132t131 -349v-225q0 -217 -131 -349t-346 -132
zM590 57q178 0 286.5 112.5t108.5 297.5v213q0 185 -108.5 297.5t-286.5 112.5q-177 0 -285 -112.5t-108 -297.5v-213q0 -185 108 -297.5t285 -112.5z" />
    <glyph glyph-name="divide" unicode="&#xf7;" horiz-adv-x="1155" 
d="M578 893q-41 0 -41 43v90q0 43 41 43q40 0 40 -43v-90q0 -43 -40 -43zM119 549q-43 0 -43 37t43 37h917q43 0 43 -37t-43 -37h-917zM578 102q-41 0 -41 43v91q0 43 41 43q40 0 40 -43v-91q0 -43 -40 -43z" />
    <glyph glyph-name="oslash" unicode="&#xf8;" horiz-adv-x="1185" 
d="M973 995q96 -126 96 -309v-225q0 -217 -131 -349t-346 -132q-196 0 -324 112l-71 -92q-24 -34 -58 -10q-30 24 -6 59l80 103q-96 126 -96 309v225q0 217 130.5 349t344.5 132q198 0 326 -112l71 90q26 37 60 10q27 -24 4 -57zM199 467q0 -143 67 -246l600 768
q-109 101 -274 101q-177 0 -285 -112.5t-108 -297.5v-213zM987 467v213q0 143 -67 246l-601 -768q109 -101 273 -101q178 0 286.5 112.5t108.5 297.5z" />
    <glyph glyph-name="ugrave" unicode="&#xf9;" horiz-adv-x="1224" 
d="M391 1556q-36 20 -16 58q18 35 57 12l414 -248q36 -22 20 -51q-17 -30 -55 -10zM1010 1157q41 0 41 -43v-1081q0 -43 -39 -43q-19 0 -30 11.5t-11 31.5v151q-53 -97 -149 -150.5t-222 -53.5q-196 0 -317 121t-121 317v696q0 43 41 43t41 -43v-690q0 -166 99.5 -266.5
t262.5 -100.5t263 101t100 266v690q0 43 41 43z" />
    <glyph glyph-name="uacute" unicode="&#xfa;" horiz-adv-x="1224" 
d="M422 1317q-34 -18 -53 10t18 51l414 248q39 23 57 -12q20 -38 -16 -58zM1010 1157q41 0 41 -43v-1081q0 -43 -39 -43q-19 0 -30 11.5t-11 31.5v151q-53 -97 -149 -150.5t-222 -53.5q-196 0 -317 121t-121 317v696q0 43 41 43t41 -43v-690q0 -166 99.5 -266.5
t262.5 -100.5t263 101t100 266v690q0 43 41 43z" />
    <glyph glyph-name="ucircumflex" unicode="&#xfb;" horiz-adv-x="1224" 
d="M369 1323q-26 -23 -47 -2q-26 25 0 51l268 252q12 12 26 12q15 0 27 -12l268 -252q27 -26 2 -51q-21 -21 -47 2l-248 215zM1010 1157q41 0 41 -43v-1081q0 -43 -39 -43q-19 0 -30 11.5t-11 31.5v151q-53 -97 -149 -150.5t-222 -53.5q-196 0 -317 121t-121 317v696
q0 43 41 43t41 -43v-690q0 -166 99.5 -266.5t262.5 -100.5t263 101t100 266v690q0 43 41 43z" />
    <glyph glyph-name="udieresis" unicode="&#xfc;" horiz-adv-x="1224" 
d="M457 1442q-41 0 -41 43v110q0 43 41 43t41 -43v-110q0 -43 -41 -43zM778 1442q-41 0 -41 43v110q0 43 41 43t41 -43v-110q0 -43 -41 -43zM1010 1157q41 0 41 -43v-1081q0 -43 -39 -43q-19 0 -30 11.5t-11 31.5v151q-53 -97 -149 -150.5t-222 -53.5q-196 0 -317 121
t-121 317v696q0 43 41 43t41 -43v-690q0 -166 99.5 -266.5t262.5 -100.5t263 101t100 266v690q0 43 41 43z" />
    <glyph glyph-name="yacute" unicode="&#xfd;" horiz-adv-x="1048" 
d="M330 1317q-35 -18 -54 10t19 51l414 248q39 23 57 -12q20 -38 -16 -58zM963 1155q17 -6 23 -21t-1 -34l-487 -1282q-42 -111 -130.5 -179.5t-193.5 -68.5q-19 0 -30 11t-11 30q0 33 35 33q83 0 153.5 54.5t102.5 145.5l57 160l-415 1096q-17 43 22 55q35 12 51 -27
l387 -1013l383 1013q16 39 54 27z" />
    <glyph glyph-name="thorn" unicode="&#xfe;" horiz-adv-x="1241" 
d="M659 1167q211 0 339 -131t128 -348v-229q0 -217 -128 -348t-339 -131q-136 0 -240.5 60t-162.5 167v-594q0 -43 -41 -43t-41 43v1982q0 43 41 43t41 -43v-655q58 107 162.5 167t240.5 60zM1044 465v217q0 184 -108 296t-287 112q-177 0 -285 -112t-108 -296v-217
q0 -184 108 -296t285 -112q179 0 287 112t108 296z" />
    <glyph glyph-name="ydieresis" unicode="&#xff;" horiz-adv-x="1048" 
d="M365 1442q-41 0 -41 43v110q0 43 41 43t41 -43v-110q0 -43 -41 -43zM686 1442q-41 0 -41 43v110q0 43 41 43t41 -43v-110q0 -43 -41 -43zM963 1155q17 -6 23 -21t-1 -34l-487 -1282q-42 -111 -130.5 -179.5t-193.5 -68.5q-19 0 -30 11t-11 30q0 33 35 33q83 0 153.5 54.5
t102.5 145.5l57 160l-415 1096q-17 43 22 55q35 12 51 -27l387 -1013l383 1013q16 39 54 27z" />
    <glyph glyph-name="Amacron" unicode="&#x100;" horiz-adv-x="1429" 
d="M440 1780q-43 0 -43 37q0 36 43 36h549q43 0 43 -36q0 -37 -43 -37h-549zM1368 49q17 -45 -25 -57t-57 28l-168 449h-809l-168 -449q-15 -41 -55 -28q-41 13 -25 57l576 1538q19 51 72 51h12q53 0 72 -51zM340 551h747l-372 995z" />
    <glyph glyph-name="amacron" unicode="&#x101;" horiz-adv-x="1173" 
d="M354 1462q-43 0 -43 37t43 37h445q43 0 43 -37t-43 -37h-445zM578 1167q195 0 314.5 -112.5t119.5 -298.5v-723q0 -43 -39 -43q-19 0 -30 11.5t-11 31.5v172q-61 -106 -180.5 -165.5t-278.5 -59.5q-164 0 -264 80.5t-100 211.5v70q0 129 90 205t241 76h490v127
q0 154 -97 247t-255 93q-123 0 -213.5 -50t-133.5 -139q-17 -36 -53 -24q-44 13 -26 53q52 112 162.5 174.5t263.5 62.5zM483 57q201 0 324 100t123 263v129h-479q-120 0 -190.5 -56.5t-70.5 -156.5v-57q0 -100 80.5 -161t212.5 -61z" />
    <glyph glyph-name="Abreve" unicode="&#x102;" horiz-adv-x="1429" 
d="M715 1720q-128 0 -209 73t-100 202q-6 43 38 43q33 0 39 -39q15 -92 76.5 -144.5t155.5 -52.5t155 52.5t76 144.5q6 39 39 39q45 0 39 -43q-19 -129 -100 -202t-209 -73zM1368 49q17 -45 -25 -57t-57 28l-168 449h-809l-168 -449q-15 -41 -55 -28q-41 13 -25 57l576 1538
q19 51 72 51h12q53 0 72 -51zM340 551h747l-372 995z" />
    <glyph glyph-name="abreve" unicode="&#x103;" horiz-adv-x="1173" 
d="M578 1321q-129 0 -211 73t-99 201q-6 43 39 43q33 0 39 -39q13 -92 75.5 -144t156.5 -52t156 52t75 144q6 39 39 39q45 0 39 -43q-17 -128 -99 -201t-210 -73zM578 1167q195 0 314.5 -112.5t119.5 -298.5v-723q0 -43 -39 -43q-19 0 -30 11.5t-11 31.5v172
q-61 -106 -180.5 -165.5t-278.5 -59.5q-164 0 -264 80.5t-100 211.5v70q0 129 90 205t241 76h490v127q0 154 -97 247t-255 93q-123 0 -213.5 -50t-133.5 -139q-17 -36 -53 -24q-44 13 -26 53q52 112 162.5 174.5t263.5 62.5zM483 57q201 0 324 100t123 263v129h-479
q-120 0 -190.5 -56.5t-70.5 -156.5v-57q0 -100 80.5 -161t212.5 -61z" />
    <glyph glyph-name="Aogonek" unicode="&#x104;" horiz-adv-x="1429" 
d="M1329 -346q41 0 41 -37t-61 -37h-43q-98 0 -158.5 43t-60.5 113v18q0 66 65.5 140.5t171.5 132.5l-166 442h-809l-168 -449q-15 -41 -55 -28q-41 13 -25 57l576 1538q19 51 72 51h12q53 0 72 -51l575 -1538q13 -38 -14 -53q-99 -57 -162.5 -124t-63.5 -120v-12
q0 -38 41 -62t107 -24h53zM340 551h747l-372 995z" />
    <glyph glyph-name="aogonek" unicode="&#x105;" horiz-adv-x="1173" 
d="M1012 33q0 -27 -17 -37q-1 0 -2 -1t-2 -1q-98 -57 -159.5 -123t-61.5 -119v-12q0 -38 41 -62t107 -24h53q41 0 41 -37t-62 -37h-43q-98 0 -158.5 43t-60.5 113v18q0 68 67.5 143.5t176.5 133.5v2v172q-61 -106 -180.5 -165.5t-278.5 -59.5q-164 0 -264 80.5t-100 211.5
v70q0 129 90 205t241 76h490v127q0 154 -97 247t-255 93q-123 0 -213.5 -50t-133.5 -139q-17 -36 -53 -24q-44 13 -26 53q52 112 162.5 174.5t263.5 62.5q195 0 314.5 -112.5t119.5 -298.5v-723zM483 57q201 0 324 100t123 263v129h-479q-120 0 -190.5 -56.5t-70.5 -156.5
v-57q0 -100 80.5 -161t212.5 -61z" />
    <glyph glyph-name="Cacute" unicode="&#x106;" horiz-adv-x="1386" 
d="M545 1735q-39 -12 -51 22t28 49l455 156q42 16 55 -27q12 -42 -26 -53zM735 -20q-270 0 -435 164.5t-165 433.5v450q0 280 164.5 450.5t433.5 170.5q193 0 341.5 -102.5t209.5 -258.5q8 -20 0.5 -36.5t-27.5 -22.5q-39 -12 -57 33q-65 143 -187.5 224t-279.5 81
q-230 0 -371 -149.5t-141 -395.5v-438q0 -235 141 -379t373 -144q166 0 294.5 90t178.5 220q17 47 60 32q43 -16 26 -57q-71 -172 -217.5 -269t-341.5 -97z" />
    <glyph glyph-name="cacute" unicode="&#x107;" horiz-adv-x="1103" 
d="M387 1317q-34 -18 -53 10t18 51l414 248q39 23 57 -12q20 -38 -16 -58zM584 -20q-211 0 -339 129t-128 340v247q0 212 128 341.5t337 129.5q140 0 253.5 -72t170.5 -194q16 -37 -27 -53q-35 -12 -53 26q-54 101 -142 158.5t-202 57.5q-172 0 -277.5 -110t-105.5 -290
v-235q0 -179 106 -288.5t279 -109.5q115 0 205.5 53.5t134.5 141.5q17 36 53 24q45 -16 27 -51q-60 -116 -170 -180.5t-250 -64.5z" />
    <glyph glyph-name="Cdotaccent" unicode="&#x10a;" horiz-adv-x="1386" 
d="M733 1759q-43 0 -43 45v107q0 45 43 45t43 -45v-107q0 -45 -43 -45zM735 -20q-270 0 -435 164.5t-165 433.5v450q0 280 164.5 450.5t433.5 170.5q193 0 341.5 -102.5t209.5 -258.5q8 -20 0.5 -36.5t-27.5 -22.5q-39 -12 -57 33q-65 143 -187.5 224t-279.5 81
q-230 0 -371 -149.5t-141 -395.5v-438q0 -235 141 -379t373 -144q166 0 294.5 90t178.5 220q17 47 60 32q43 -16 26 -57q-71 -172 -217.5 -269t-341.5 -97z" />
    <glyph glyph-name="cdotaccent" unicode="&#x10b;" horiz-adv-x="1103" 
d="M582 1442q-41 0 -41 43v110q0 43 41 43t41 -43v-110q0 -43 -41 -43zM584 -20q-211 0 -339 129t-128 340v247q0 212 128 341.5t337 129.5q140 0 253.5 -72t170.5 -194q16 -37 -27 -53q-35 -12 -53 26q-54 101 -142 158.5t-202 57.5q-172 0 -277.5 -110t-105.5 -290v-235
q0 -179 106 -288.5t279 -109.5q115 0 205.5 53.5t134.5 141.5q17 36 53 24q45 -16 27 -51q-60 -116 -170 -180.5t-250 -64.5z" />
    <glyph glyph-name="Ccaron" unicode="&#x10c;" horiz-adv-x="1386" 
d="M733 1690q-14 0 -26 12l-269 252q-26 26 0 51q21 21 47 -2l250 -215l248 215q26 23 47 2q24 -25 -2 -51l-268 -252q-12 -12 -27 -12zM735 -20q-270 0 -435 164.5t-165 433.5v450q0 280 164.5 450.5t433.5 170.5q193 0 341.5 -102.5t209.5 -258.5q8 -20 0.5 -36.5
t-27.5 -22.5q-39 -12 -57 33q-65 143 -187.5 224t-279.5 81q-230 0 -371 -149.5t-141 -395.5v-438q0 -235 141 -379t373 -144q166 0 294.5 90t178.5 220q17 47 60 32q43 -16 26 -57q-71 -172 -217.5 -269t-341.5 -97z" />
    <glyph glyph-name="ccaron" unicode="&#x10d;" horiz-adv-x="1103" 
d="M582 1311q-15 0 -27 12l-268 252q-25 25 0 51q21 21 47 -2l250 -215l247 215q27 23 48 2q25 -24 -2 -51l-269 -252q-12 -12 -26 -12zM584 -20q-211 0 -339 129t-128 340v247q0 212 128 341.5t337 129.5q140 0 253.5 -72t170.5 -194q16 -37 -27 -53q-35 -12 -53 26
q-54 101 -142 158.5t-202 57.5q-172 0 -277.5 -110t-105.5 -290v-235q0 -179 106 -288.5t279 -109.5q115 0 205.5 53.5t134.5 141.5q17 36 53 24q45 -16 27 -51q-60 -116 -170 -180.5t-250 -64.5z" />
    <glyph glyph-name="Dcaron" unicode="&#x10e;" horiz-adv-x="1466" 
d="M745 1690q-14 0 -26 12l-268 252q-25 26 0 51q21 21 47 -2l250 -215l247 215q26 23 47 2q24 -25 -2 -51l-268 -252q-12 -12 -27 -12zM244 0q-43 0 -43 43v1542q0 43 43 43h475q275 0 443.5 -168.5t168.5 -443.5v-404q0 -275 -168.5 -443.5t-443.5 -168.5h-475zM287 82
h426q239 0 385.5 147.5t146.5 388.5v392q0 241 -146.5 388.5t-385.5 147.5h-426v-1464z" />
    <glyph glyph-name="dcaron" unicode="&#x10f;" horiz-adv-x="1277" 
d="M1305 1647q41 -6 32 -54l-84 -413q-6 -39 -43 -33q-30 6 -24 47l71 416q3 20 16 30t32 7zM1026 1638q41 0 41 -43v-1562q0 -43 -39 -43q-19 0 -30 11.5t-11 31.5v182q-56 -111 -161.5 -173t-245.5 -62q-210 0 -337.5 131.5t-127.5 347.5v229q0 216 127.5 347.5
t337.5 131.5q138 0 243.5 -60.5t161.5 -170.5v659q0 43 41 43zM590 57q179 0 287 112t108 296v217q0 184 -108 296t-287 112q-177 0 -285 -112t-108 -296v-217q0 -184 108 -296t285 -112z" />
    <glyph glyph-name="Dcroat" unicode="&#x110;" horiz-adv-x="1474" 
d="M727 1628q275 0 443.5 -168.5t168.5 -443.5v-404q0 -275 -168.5 -443.5t-443.5 -168.5h-475q-43 0 -43 43v743h-88q-43 0 -43 41t43 41h88v717q0 43 43 43h475zM1253 618v392q0 241 -146.5 388.5t-385.5 147.5h-426v-678h385q43 0 43 -41t-43 -41h-385v-704h426
q239 0 385.5 147.5t146.5 388.5z" />
    <glyph glyph-name="dcroat" unicode="&#x111;" horiz-adv-x="1241" 
d="M1153 1446q43 0 43 -37t-43 -37h-86v-1339q0 -43 -39 -43q-19 0 -30 11.5t-11 31.5v182q-56 -111 -161.5 -173t-245.5 -62q-210 0 -337.5 131.5t-127.5 347.5v229q0 216 127.5 347.5t337.5 131.5q138 0 243.5 -60.5t161.5 -170.5v436h-356q-43 0 -43 37t43 37h356v149
q0 43 41 43t41 -43v-149h86zM590 57q179 0 287 112t108 296v217q0 184 -108 296t-287 112q-177 0 -285 -112t-108 -296v-217q0 -184 108 -296t285 -112z" />
    <glyph glyph-name="Emacron" unicode="&#x112;" horiz-adv-x="1329" 
d="M416 1780q-43 0 -43 37q0 36 43 36h549q43 0 43 -36q0 -37 -43 -37h-549zM1178 82q43 0 43 -41t-43 -41h-934q-43 0 -43 43v1542q0 43 43 43h913q43 0 43 -41t-43 -41h-870v-674h829q43 0 43 -41q0 -40 -43 -40h-829v-709h891z" />
    <glyph glyph-name="emacron" unicode="&#x113;" horiz-adv-x="1161" 
d="M362 1462q-43 0 -43 37t43 37h445q43 0 43 -37t-43 -37h-445zM1012 549h-815v-82q0 -185 108 -297.5t285 -112.5q134 0 228.5 50t139.5 139q17 36 54 24q43 -15 26 -53q-53 -114 -167.5 -175.5t-280.5 -61.5q-214 0 -344.5 132t-130.5 349v225q0 217 129.5 349t341.5 132
q211 0 340 -132t129 -349v-94q0 -43 -43 -43zM586 1090q-175 0 -282 -113t-107 -297v-57h776v57q0 184 -107 297t-280 113z" />
    <glyph glyph-name="Edotaccent" unicode="&#x116;" horiz-adv-x="1329" 
d="M690 1759q-43 0 -43 45v107q0 45 43 45t43 -45v-107q0 -45 -43 -45zM1178 82q43 0 43 -41t-43 -41h-934q-43 0 -43 43v1542q0 43 43 43h913q43 0 43 -41t-43 -41h-870v-674h829q43 0 43 -41q0 -40 -43 -40h-829v-709h891z" />
    <glyph glyph-name="edotaccent" unicode="&#x117;" horiz-adv-x="1161" 
d="M586 1442q-41 0 -41 43v110q0 43 41 43t41 -43v-110q0 -43 -41 -43zM1012 549h-815v-82q0 -185 108 -297.5t285 -112.5q134 0 228.5 50t139.5 139q17 36 54 24q43 -15 26 -53q-53 -114 -167.5 -175.5t-280.5 -61.5q-214 0 -344.5 132t-130.5 349v225q0 217 129.5 349
t341.5 132q211 0 340 -132t129 -349v-94q0 -43 -43 -43zM586 1090q-175 0 -282 -113t-107 -297v-57h776v57q0 184 -107 297t-280 113z" />
    <glyph glyph-name="Eogonek" unicode="&#x118;" horiz-adv-x="1329" 
d="M1180 -346q41 0 41 -37t-62 -37h-43q-98 0 -158.5 43t-60.5 113v18q0 57 48.5 121.5t133.5 124.5h-835q-43 0 -43 43v1542q0 43 43 43h913q43 0 43 -41t-43 -41h-870v-674h829q43 0 43 -41q0 -40 -43 -40h-829v-709h891q43 0 43 -41q0 -25 -19 -35q-101 -67 -162 -134.5
t-61 -119.5v-12q0 -38 40.5 -62t106.5 -24h54z" />
    <glyph glyph-name="eogonek" unicode="&#x119;" horiz-adv-x="1161" 
d="M1012 549h-815v-82q0 -185 108 -297.5t285 -112.5q134 0 228.5 50t139.5 139q17 36 54 24q43 -15 26 -53q-78 -171 -293 -221q-106 -59 -169.5 -125.5t-63.5 -118.5v-12q0 -38 40.5 -62t106.5 -24h54q41 0 41 -37t-62 -37h-43q-98 0 -158.5 43t-60.5 113v18
q0 54 43.5 113.5t120.5 112.5h-4q-214 0 -344.5 132t-130.5 349v225q0 217 129.5 349t341.5 132q211 0 340 -132t129 -349v-94q0 -43 -43 -43zM586 1090q-175 0 -282 -113t-107 -297v-57h776v57q0 184 -107 297t-280 113z" />
    <glyph glyph-name="Ecaron" unicode="&#x11a;" horiz-adv-x="1329" 
d="M664 1702l-269 252q-25 26 0 51q21 21 47 -2l250 -215l248 215q26 23 47 2q25 -25 -2 -51l-268 -252q-12 -12 -27 -12q-14 0 -26 12zM1178 82q43 0 43 -41t-43 -41h-934q-43 0 -43 43v1542q0 43 43 43h913q43 0 43 -41t-43 -41h-870v-674h829q43 0 43 -41q0 -40 -43 -40
h-829v-709h891z" />
    <glyph glyph-name="ecaron" unicode="&#x11b;" horiz-adv-x="1161" 
d="M559 1323l-268 252q-25 25 0 51q21 21 47 -2l250 -215l248 215q26 23 47 2q25 -24 -2 -51l-269 -252q-12 -12 -26 -12q-15 0 -27 12zM1012 549h-815v-82q0 -185 108 -297.5t285 -112.5q134 0 228.5 50t139.5 139q17 36 54 24q43 -15 26 -53q-53 -114 -167.5 -175.5
t-280.5 -61.5q-214 0 -344.5 132t-130.5 349v225q0 217 129.5 349t341.5 132q211 0 340 -132t129 -349v-94q0 -43 -43 -43zM586 1090q-175 0 -282 -113t-107 -297v-57h776v57q0 184 -107 297t-280 113z" />
    <glyph glyph-name="Gbreve" unicode="&#x11e;" horiz-adv-x="1454" 
d="M733 1720q-128 0 -209 73t-100 202q-6 43 39 43q33 0 39 -39q15 -92 76 -144.5t155 -52.5t155.5 52.5t76.5 144.5q6 39 39 39q44 0 38 -43q-19 -129 -100 -202t-209 -73zM1286 872q43 0 43 -43v-251q0 -269 -163.5 -433.5t-430.5 -164.5q-270 0 -435 164.5t-165 433.5
v450q0 280 164.5 450.5t433.5 170.5q196 0 348 -103t211 -258q8 -20 1 -36.5t-27 -22.5q-40 -12 -58 33q-63 142 -190 223.5t-285 81.5q-230 0 -371 -149.5t-141 -395.5v-438q0 -235 141 -379t373 -144q229 0 368.5 144t139.5 379v207h-534q-43 0 -43 40q0 41 43 41h577z
" />
    <glyph glyph-name="gbreve" unicode="&#x11f;" horiz-adv-x="1243" 
d="M594 1321q-128 0 -210 73t-99 201q-6 43 39 43q32 0 38 -39q13 -92 75.5 -144t156.5 -52t156 52t75 144q6 39 39 39q45 0 39 -43q-17 -128 -99 -201t-210 -73zM1030 1157q39 0 39 -43v-1126q0 -192 -135 -310t-356 -118q-137 0 -245 59t-173 168q-21 41 22 59
q33 13 54 -24q47 -83 138.5 -133.5t203.5 -50.5q184 0 296.5 98t112.5 258v252q-56 -107 -161.5 -166.5t-243.5 -59.5q-209 0 -337 128t-128 339v213q0 211 128 339t337 128q140 0 245.5 -60.5t161.5 -168.5v176q0 20 11 31.5t30 11.5zM592 98q178 0 286.5 108.5
t108.5 287.5v200q0 179 -108.5 287.5t-286.5 108.5q-177 0 -285 -109t-108 -287v-200q0 -178 108 -287t285 -109z" />
    <glyph glyph-name="Gdotaccent" unicode="&#x120;" horiz-adv-x="1454" 
d="M733 1759q-43 0 -43 45v107q0 45 43 45t43 -45v-107q0 -45 -43 -45zM1286 872q43 0 43 -43v-251q0 -269 -163.5 -433.5t-430.5 -164.5q-270 0 -435 164.5t-165 433.5v450q0 280 164.5 450.5t433.5 170.5q196 0 348 -103t211 -258q8 -20 1 -36.5t-27 -22.5q-40 -12 -58 33
q-63 142 -190 223.5t-285 81.5q-230 0 -371 -149.5t-141 -395.5v-438q0 -235 141 -379t373 -144q229 0 368.5 144t139.5 379v207h-534q-43 0 -43 40q0 41 43 41h577z" />
    <glyph glyph-name="gdotaccent" unicode="&#x121;" horiz-adv-x="1243" 
d="M594 1442q-41 0 -41 43v110q0 43 41 43t41 -43v-110q0 -43 -41 -43zM1030 1157q39 0 39 -43v-1126q0 -192 -135 -310t-356 -118q-137 0 -245 59t-173 168q-21 41 22 59q33 13 54 -24q47 -83 138.5 -133.5t203.5 -50.5q184 0 296.5 98t112.5 258v252
q-56 -107 -161.5 -166.5t-243.5 -59.5q-209 0 -337 128t-128 339v213q0 211 128 339t337 128q140 0 245.5 -60.5t161.5 -168.5v176q0 20 11 31.5t30 11.5zM592 98q178 0 286.5 108.5t108.5 287.5v200q0 179 -108.5 287.5t-286.5 108.5q-177 0 -285 -109t-108 -287v-200
q0 -178 108 -287t285 -109z" />
    <glyph glyph-name="Gcommaaccent" unicode="&#x122;" horiz-adv-x="1454" 
d="M1286 872q43 0 43 -43v-251q0 -269 -163.5 -433.5t-430.5 -164.5q-270 0 -435 164.5t-165 433.5v450q0 280 164.5 450.5t433.5 170.5q196 0 348 -103t211 -258q8 -20 1 -36.5t-27 -22.5q-40 -12 -58 33q-63 142 -190 223.5t-285 81.5q-230 0 -371 -149.5t-141 -395.5
v-438q0 -235 141 -379t373 -144q229 0 368.5 144t139.5 379v207h-534q-43 0 -43 40q0 41 43 41h577zM791 -78q40 -12 24 -59l-94 -273q-13 -39 -51 -26q-33 11 -21 51l84 272q7 23 23 32t35 3z" />
    <glyph glyph-name="gcommaaccent" unicode="&#x123;" horiz-adv-x="1243" 
d="M557 1264q-42 12 -27 59l95 293q12 39 49 29q35 -8 22 -52l-84 -295q-11 -44 -55 -34zM1030 1157q39 0 39 -43v-1126q0 -192 -135 -310t-356 -118q-137 0 -245 59t-173 168q-21 41 22 59q33 13 54 -24q47 -83 138.5 -133.5t203.5 -50.5q184 0 296.5 98t112.5 258v252
q-56 -107 -161.5 -166.5t-243.5 -59.5q-209 0 -337 128t-128 339v213q0 211 128 339t337 128q140 0 245.5 -60.5t161.5 -168.5v176q0 20 11 31.5t30 11.5zM592 98q178 0 286.5 108.5t108.5 287.5v200q0 179 -108.5 287.5t-286.5 108.5q-177 0 -285 -109t-108 -287v-200
q0 -178 108 -287t285 -109z" />
    <glyph glyph-name="Hbar" unicode="&#x126;" horiz-adv-x="1495" 
d="M1384 1307q43 0 43 -41t-43 -41h-94v-1192q0 -43 -43 -43t-43 43v758h-913v-758q0 -43 -43 -43t-43 43v1192h-94q-43 0 -43 41t43 41h94v288q0 43 43 43t43 -43v-288h913v288q0 43 43 43t43 -43v-288h94zM1204 872v353h-913v-353h913z" />
    <glyph glyph-name="hbar" unicode="&#x127;" horiz-adv-x="1245" 
d="M635 1167q201 0 324.5 -123.5t123.5 -324.5v-686q0 -43 -41 -43t-41 43v680q0 170 -102.5 273.5t-269.5 103.5q-168 0 -270.5 -103.5t-102.5 -273.5v-680q0 -43 -41 -43t-41 43v1339h-86q-43 0 -43 37t43 37h86v149q0 43 41 43t41 -43v-149h356q43 0 43 -37t-43 -37h-356
v-414q55 99 153 154t226 55z" />
    <glyph glyph-name="Imacron" unicode="&#x12a;" horiz-adv-x="487" 
d="M106 1780q-43 0 -43 37q0 36 43 36h275q43 0 43 -36q0 -37 -43 -37h-275zM244 -10q-43 0 -43 43v1562q0 43 43 43t43 -43v-1562q0 -43 -43 -43z" />
    <glyph glyph-name="imacron" unicode="&#x12b;" horiz-adv-x="430" 
d="M78 1462q-43 0 -43 37t43 37h274q43 0 43 -37t-43 -37h-274zM215 -10q-41 0 -41 43v1081q0 43 41 43t41 -43v-1081q0 -43 -41 -43z" />
    <glyph glyph-name="Iogonek" unicode="&#x12e;" horiz-adv-x="487" 
d="M268 -4q-67 -57 -110 -124.5t-43 -119.5v-12q0 -40 34.5 -66.5t88.5 -29.5q47 -3 47 -37q0 -37 -54 -37q-89 0 -143.5 45.5t-54.5 120.5v18q0 65 46.5 138t121.5 131v10v1562q0 43 43 43t43 -43v-1562q0 -27 -19 -37z" />
    <glyph glyph-name="iogonek" unicode="&#x12f;" horiz-adv-x="432" 
d="M217 1638q41 0 41 -43v-110q0 -43 -41 -43t-41 43v110q0 43 41 43zM217 1157q41 0 41 -43v-1081q0 -24 -16 -37q-67 -58 -110.5 -125t-43.5 -119v-12q0 -40 34.5 -66.5t88.5 -29.5q47 -3 47 -37q0 -37 -53 -37q-89 0 -144 45.5t-55 120.5v18q0 64 47 137t123 132v10v1081
q0 43 41 43z" />
    <glyph glyph-name="Idotaccent" unicode="&#x130;" horiz-adv-x="487" 
d="M244 1759q-43 0 -43 45v107q0 45 43 45t43 -45v-107q0 -45 -43 -45zM244 -10q-43 0 -43 43v1562q0 43 43 43t43 -43v-1562q0 -43 -43 -43z" />
    <glyph glyph-name="dotlessi" unicode="&#x131;" horiz-adv-x="430" 
d="M215 -10q-41 0 -41 43v1081q0 43 41 43t41 -43v-1081q0 -43 -41 -43z" />
    <glyph glyph-name="IJ" unicode="&#x132;" horiz-adv-x="1388" 
d="M229 780q-43 0 -43 43v772q0 43 43 43t43 -43v-772q0 -43 -43 -43zM692 -20q-175 0 -301.5 104.5t-181.5 284.5q-12 41 29 53q43 12 55 -29q48 -156 152 -244t247 -88q190 0 306 118.5t116 312.5v1103q0 43 43 43t43 -43v-1110q0 -227 -139.5 -366t-368.5 -139z" />
    <glyph glyph-name="Kcommaaccent" unicode="&#x136;" horiz-adv-x="1423" 
d="M1358 53q19 -43 -21 -59q-41 -16 -59 24l-457 1026l-534 -559v-452q0 -43 -43 -43t-43 43v1562q0 43 43 43t43 -43v-995l970 1022q28 31 60 8q14 -10 13.5 -26t-15.5 -31l-428 -463zM774 -78q41 -12 25 -59l-94 -273q-6 -18 -20 -25t-32 -1q-32 11 -20 51l84 272
q16 48 57 35z" />
    <glyph glyph-name="kcommaaccent" unicode="&#x137;" horiz-adv-x="1075" 
d="M997 53q20 -41 -14 -57q-39 -18 -57 20l-351 666l-319 -340v-309q0 -43 -41 -43t-41 43v1562q0 43 41 43t41 -43v-1142l651 686q30 30 58 8q27 -23 -2 -55l-328 -353zM588 -78q40 -12 24 -59l-94 -273q-13 -39 -51 -26q-33 11 -21 51l84 272q7 23 23 32t35 3z" />
    <glyph glyph-name="Lacute" unicode="&#x139;" horiz-adv-x="1167" 
d="M586 1935q12 -41 -27 -53l-461 -147q-39 -12 -51 22t29 49l454 156q43 16 56 -27zM1075 82q43 0 43 -41t-43 -41h-831q-43 0 -43 43v1552q0 43 43 43t43 -43v-1513h788z" />
    <glyph glyph-name="lacute" unicode="&#x13a;" horiz-adv-x="448" 
d="M76 1735q-39 -12 -51 22t28 49l348 121q43 16 56 -24q13 -44 -27 -56zM342 -10q-77 0 -125.5 48.5t-48.5 129.5v1427q0 43 41 43t41 -43v-1421q0 -44 22 -72.5t64 -35.5q51 -8 51 -41q0 -35 -45 -35z" />
    <glyph glyph-name="Lcommaaccent" unicode="&#x13b;" horiz-adv-x="1167" 
d="M1075 82q43 0 43 -41t-43 -41h-831q-43 0 -43 43v1552q0 43 43 43t43 -43v-1513h788zM684 -78q41 -12 25 -59l-95 -273q-13 -39 -51 -26q-32 11 -20 51l84 272q16 48 57 35z" />
    <glyph glyph-name="lcommaaccent" unicode="&#x13c;" horiz-adv-x="448" 
d="M342 -10q-77 0 -125.5 48.5t-48.5 129.5v1427q0 43 41 43t41 -43v-1421q0 -44 22 -72.5t64 -35.5q51 -8 51 -41q0 -35 -45 -35zM154 -436q-33 11 -21 51l84 272q16 48 57 35q41 -12 25 -59l-94 -273q-13 -39 -51 -26z" />
    <glyph glyph-name="Lcaron" unicode="&#x13d;" horiz-adv-x="1171" 
d="M778 1147q-30 6 -24 47l71 416q3 20 15.5 30t31.5 7q42 -6 33 -54l-84 -413q-6 -39 -43 -33zM1075 82q43 0 43 -41t-43 -41h-831q-43 0 -43 43v1552q0 43 43 43t43 -43v-1513h788z" />
    <glyph glyph-name="lcaron" unicode="&#x13e;" horiz-adv-x="493" 
d="M436 1180q-6 -39 -43 -33q-30 6 -24 47l71 416q3 20 15.5 30t31.5 7q42 -6 33 -54zM342 -10q-77 0 -125.5 48.5t-48.5 129.5v1427q0 43 41 43t41 -43v-1421q0 -44 22 -72.5t64 -35.5q51 -8 51 -41q0 -35 -45 -35z" />
    <glyph glyph-name="Lslash" unicode="&#x141;" horiz-adv-x="1187" 
d="M1096 82q43 0 43 -41t-43 -41h-832q-43 0 -43 43v725l-76 -31q-19 -8 -34 -2t-21 23q-13 36 25 51l106 43v743q0 43 43 43t43 -43v-712l361 143q41 16 53 -18q13 -39 -25 -54l-389 -155v-717h789z" />
    <glyph glyph-name="lslash" unicode="&#x142;" horiz-adv-x="557" 
d="M475 889q11 -32 -26 -47l-150 -60v-608q0 -44 22 -72.5t64 -35.5q51 -8 51 -41q0 -35 -45 -35q-77 0 -125.5 48.5t-48.5 129.5v584l-100 -35q-39 -14 -49 20q-9 33 26 47l123 47v764q0 43 41 43t41 -43v-737l125 49q39 16 51 -18z" />
    <glyph glyph-name="Nacute" unicode="&#x143;" horiz-adv-x="1552" 
d="M588 1735q-39 -12 -51 22t28 49l455 156q42 16 55 -27q12 -42 -26 -53zM1309 1638q43 0 43 -43v-1550q0 -26 -15 -40.5t-41 -14.5h-6q-32 0 -51 28l-952 1475v-1460q0 -43 -43 -43t-43 43v1550q0 55 55 55h6q32 0 51 -28l953 -1475v1460q0 43 43 43z" />
    <glyph glyph-name="nacute" unicode="&#x144;" horiz-adv-x="1245" 
d="M424 1317q-34 -18 -53 10t18 51l414 248q39 23 57 -12q20 -38 -16 -58zM635 1167q201 0 324.5 -123.5t123.5 -324.5v-686q0 -43 -41 -43t-41 43v680q0 170 -102.5 273.5t-269.5 103.5q-168 0 -270.5 -103.5t-102.5 -273.5v-680q0 -43 -41 -43t-41 43v1081q0 20 11 31.5
t30 11.5q39 0 39 -43v-160q55 101 153.5 157t227.5 56z" />
    <glyph glyph-name="Ncommaaccent" unicode="&#x145;" horiz-adv-x="1552" 
d="M1309 1638q43 0 43 -43v-1550q0 -26 -15 -40.5t-41 -14.5h-6q-32 0 -51 28l-952 1475v-1460q0 -43 -43 -43t-43 43v1550q0 55 55 55h6q32 0 51 -28l953 -1475v1460q0 43 43 43zM831 -78q41 -12 25 -59l-94 -273q-13 -39 -51 -26q-33 11 -21 51l84 272q16 48 57 35z" />
    <glyph glyph-name="ncommaaccent" unicode="&#x146;" horiz-adv-x="1245" 
d="M635 1167q201 0 324.5 -123.5t123.5 -324.5v-686q0 -43 -41 -43t-41 43v680q0 170 -102.5 273.5t-269.5 103.5q-168 0 -270.5 -103.5t-102.5 -273.5v-680q0 -43 -41 -43t-41 43v1081q0 20 11 31.5t30 11.5q39 0 39 -43v-160q55 101 153.5 157t227.5 56zM674 -78
q40 -12 24 -59l-94 -273q-13 -39 -51 -26q-33 11 -21 51l84 272q7 23 23 32t35 3z" />
    <glyph glyph-name="Ncaron" unicode="&#x147;" horiz-adv-x="1552" 
d="M750 1702l-269 252q-25 26 0 51q21 21 47 -2l250 -215l248 215q26 23 47 2q25 -25 -2 -51l-268 -252q-12 -12 -27 -12q-14 0 -26 12zM1309 1638q43 0 43 -43v-1550q0 -26 -15 -40.5t-41 -14.5h-6q-32 0 -51 28l-952 1475v-1460q0 -43 -43 -43t-43 43v1550q0 55 55 55h6
q32 0 51 -28l953 -1475v1460q0 43 43 43z" />
    <glyph glyph-name="ncaron" unicode="&#x148;" horiz-adv-x="1245" 
d="M592 1323l-268 252q-26 25 0 51q21 21 47 -2l250 -215l247 215q26 23 47 2q25 -24 -2 -51l-268 -252q-12 -12 -27 -12q-14 0 -26 12zM635 1167q201 0 324.5 -123.5t123.5 -324.5v-686q0 -43 -41 -43t-41 43v680q0 170 -102.5 273.5t-269.5 103.5q-168 0 -270.5 -103.5
t-102.5 -273.5v-680q0 -43 -41 -43t-41 43v1081q0 20 11 31.5t30 11.5q39 0 39 -43v-160q55 101 153.5 157t227.5 56z" />
    <glyph glyph-name="Eng" unicode="&#x14a;" horiz-adv-x="1552" 
d="M1309 1638q43 0 43 -43v-1519q0 -223 -139 -359.5t-365 -136.5h-70q-43 0 -43 41t43 41h64q191 0 307.5 115.5t116.5 304.5v4l-979 1413v-1466q0 -43 -43 -43t-43 43v1550q0 55 55 55h6q34 0 51 -26l953 -1374v1357q0 43 43 43z" />
    <glyph glyph-name="eng" unicode="&#x14b;" horiz-adv-x="1245" 
d="M635 1167q201 0 324.5 -123.5t123.5 -324.5v-879q0 -118 -73 -189t-193 -71h-55q-43 0 -43 37t43 37h49q86 0 138 52t52 140v867q0 170 -102.5 273.5t-269.5 103.5q-168 0 -270.5 -103.5t-102.5 -273.5v-680q0 -43 -41 -43t-41 43v1081q0 20 11 31.5t30 11.5q39 0 39 -43
v-160q55 101 153.5 157t227.5 56z" />
    <glyph glyph-name="Omacron" unicode="&#x14c;" horiz-adv-x="1509" 
d="M479 1780q-43 0 -43 37q0 36 43 36h549q43 0 43 -36q0 -37 -43 -37h-549zM754 -20q-278 0 -448.5 168.5t-170.5 443.5v444q0 275 170.5 444t448.5 169q279 0 449.5 -168.5t170.5 -444.5v-444q0 -275 -170 -443.5t-450 -168.5zM754 61q241 0 387.5 147.5t146.5 389.5v432
q0 242 -146.5 389.5t-387.5 147.5q-239 0 -386 -148t-147 -389v-432q0 -241 147 -389t386 -148z" />
    <glyph glyph-name="omacron" unicode="&#x14d;" horiz-adv-x="1181" 
d="M367 1462q-43 0 -43 37t43 37h444q43 0 43 -37t-43 -37h-444zM590 -20q-214 0 -344.5 132t-130.5 349v225q0 217 130.5 349t344.5 132q215 0 346 -132t131 -349v-225q0 -217 -131 -349t-346 -132zM590 57q178 0 286.5 112.5t108.5 297.5v213q0 185 -108.5 297.5
t-286.5 112.5q-177 0 -285 -112.5t-108 -297.5v-213q0 -185 108 -297.5t285 -112.5z" />
    <glyph glyph-name="Ohungarumlaut" unicode="&#x150;" horiz-adv-x="1509" 
d="M610 1737q-27 -30 -53 -8q-24 21 2 55l254 293q29 36 59 6q29 -29 2 -60zM918 1737q-28 -31 -54 -8q-24 21 2 55l256 293q13 17 30 18.5t30 -12.5q29 -29 2 -60zM754 -20q-278 0 -448.5 168.5t-170.5 443.5v444q0 275 170.5 444t448.5 169q279 0 449.5 -168.5
t170.5 -444.5v-444q0 -275 -170 -443.5t-450 -168.5zM754 61q241 0 387.5 147.5t146.5 389.5v432q0 242 -146.5 389.5t-387.5 147.5q-239 0 -386 -148t-147 -389v-432q0 -241 147 -389t386 -148z" />
    <glyph glyph-name="ohungarumlaut" unicode="&#x151;" horiz-adv-x="1181" 
d="M436 1276q-27 -30 -53 -8q-24 21 2 55l254 293q29 36 59 6q29 -29 2 -59zM743 1276q-27 -30 -53 -8q-24 21 2 55l256 293q13 17 30 18.5t30 -12.5q29 -29 2 -59zM590 -20q-214 0 -344.5 132t-130.5 349v225q0 217 130.5 349t344.5 132q215 0 346 -132t131 -349v-225
q0 -217 -131 -349t-346 -132zM590 57q178 0 286.5 112.5t108.5 297.5v213q0 185 -108.5 297.5t-286.5 112.5q-177 0 -285 -112.5t-108 -297.5v-213q0 -185 108 -297.5t285 -112.5z" />
    <glyph glyph-name="OE" unicode="&#x152;" horiz-adv-x="2414" 
d="M2263 82q43 0 43 -41t-43 -41h-932q-43 0 -43 43v260q-70 -152 -210.5 -237.5t-327.5 -85.5q-277 0 -446 168.5t-169 443.5v444q0 275 169 444t446 169q187 0 327.5 -86t210.5 -238v260q0 43 43 43h912q43 0 43 -41t-43 -41h-869v-674h828q43 0 43 -41q0 -40 -43 -40
h-828v-709h889zM754 61q241 0 387.5 147.5t146.5 389.5v432q0 242 -146.5 389.5t-387.5 147.5q-239 0 -386 -148t-147 -389v-432q0 -241 147 -389t386 -148z" />
    <glyph glyph-name="oe" unicode="&#x153;" horiz-adv-x="2031" 
d="M1882 549h-815v-82q0 -185 108 -297.5t285 -112.5q134 0 229 50t140 139q17 36 53 24q44 -15 27 -53q-53 -114 -168 -175.5t-281 -61.5q-160 0 -274 79t-160 217q-48 -138 -162.5 -217t-273.5 -79q-214 0 -344.5 132t-130.5 349v225q0 217 130.5 349t344.5 132
q159 0 273.5 -79t162.5 -218q46 139 158.5 218t269.5 79q212 0 341.5 -132t129.5 -349v-94q0 -43 -43 -43zM985 467v213q0 185 -108.5 297.5t-286.5 112.5q-177 0 -285 -112.5t-108 -297.5v-213q0 -185 108 -297.5t285 -112.5q178 0 286.5 112.5t108.5 297.5zM1454 1090
q-173 0 -280 -113t-107 -297v-57h776v57q0 184 -107 297t-282 113z" />
    <glyph glyph-name="Racute" unicode="&#x154;" horiz-adv-x="1415" 
d="M524 1735q-39 -12 -51 22t29 49l454 156q43 16 56 -27q12 -41 -27 -53zM1307 1194q0 -165 -96 -272.5t-257 -126.5l330 -742q19 -43 -20 -59q-42 -17 -60 24l-342 773h-575v-758q0 -43 -43 -43t-43 43v1552q0 43 43 43h649q185 0 299.5 -111t114.5 -292v-31zM887 872
q150 0 242 90.5t92 237.5v19q0 147 -92 237t-242 90h-600v-674h600z" />
    <glyph glyph-name="racute" unicode="&#x155;" horiz-adv-x="745" 
d="M219 1317q-34 -18 -53 10t18 51l414 248q39 23 57 -12q20 -38 -16 -58zM678 1147q45 0 45 -39t-45 -39h-49q-168 0 -270.5 -103.5t-102.5 -273.5v-659q0 -43 -41 -43t-41 43v1081q0 20 11 31.5t30 11.5q39 0 39 -43v-180q55 101 153.5 157t227.5 56h43z" />
    <glyph glyph-name="Rcommaaccent" unicode="&#x156;" horiz-adv-x="1415" 
d="M1307 1194q0 -165 -96 -272.5t-257 -126.5l330 -742q19 -43 -20 -59q-42 -17 -60 24l-342 773h-575v-758q0 -43 -43 -43t-43 43v1552q0 43 43 43h649q185 0 299.5 -111t114.5 -292v-31zM887 872q150 0 242 90.5t92 237.5v19q0 147 -92 237t-242 90h-600v-674h600z
M768 -78q41 -12 25 -59l-95 -273q-13 -39 -51 -26q-32 11 -20 51l84 272q16 48 57 35z" />
    <glyph glyph-name="rcommaaccent" unicode="&#x157;" horiz-adv-x="745" 
d="M678 1147q45 0 45 -39t-45 -39h-49q-168 0 -270.5 -103.5t-102.5 -273.5v-659q0 -43 -41 -43t-41 43v1081q0 20 11 31.5t30 11.5q39 0 39 -43v-180q55 101 153.5 157t227.5 56h43zM264 -78q41 -12 25 -59l-94 -273q-6 -18 -20 -25t-32 -1q-32 11 -20 51l84 272
q16 48 57 35z" />
    <glyph glyph-name="Rcaron" unicode="&#x158;" horiz-adv-x="1415" 
d="M686 1702l-268 252q-26 26 0 51q21 21 47 -2l250 -215l248 215q26 23 47 2q24 -25 -2 -51l-269 -252q-12 -12 -26 -12q-15 0 -27 12zM1307 1194q0 -165 -96 -272.5t-257 -126.5l330 -742q19 -43 -20 -59q-42 -17 -60 24l-342 773h-575v-758q0 -43 -43 -43t-43 43v1552
q0 43 43 43h649q185 0 299.5 -111t114.5 -292v-31zM887 872q150 0 242 90.5t92 237.5v19q0 147 -92 237t-242 90h-600v-674h600z" />
    <glyph glyph-name="rcaron" unicode="&#x159;" horiz-adv-x="745" 
d="M414 1311q-15 0 -27 12l-268 252q-25 25 0 51q21 21 47 -2l250 -215l248 215q26 23 47 2q25 -24 -2 -51l-269 -252q-12 -12 -26 -12zM678 1147q45 0 45 -39t-45 -39h-49q-168 0 -270.5 -103.5t-102.5 -273.5v-659q0 -43 -41 -43t-41 43v1081q0 20 11 31.5t30 11.5
q39 0 39 -43v-180q55 101 153.5 157t227.5 56h43z" />
    <glyph glyph-name="Sacute" unicode="&#x15a;" horiz-adv-x="1372" 
d="M492 1735q-40 -12 -52 22t29 49l455 156q42 16 55 -27q12 -41 -27 -53zM680 -20q-202 0 -351 95t-210 253q-16 43 26 55q43 13 58 -25q61 -139 186 -218t291 -79q221 0 357.5 102.5t136.5 268.5v23q0 66 -17.5 116.5t-56 84t-77.5 55.5t-105 37t-113.5 22.5t-125.5 17.5
q-77 9 -117 15t-108.5 20.5t-105.5 31.5t-85.5 47.5t-73 68.5t-42.5 94.5t-18 126.5v27q0 192 154.5 311t406.5 119q204 0 343.5 -90.5t201.5 -249.5q15 -41 -29 -54q-38 -10 -55 29q-62 133 -179.5 208t-281.5 75q-213 0 -344 -98t-131 -257v-20q0 -65 16.5 -114t57 -82.5
t75 -54.5t105.5 -36.5t110 -21.5t125 -17q78 -10 118 -15.5t109.5 -20.5t107 -32t86.5 -48t74 -70t43 -96.5t18 -128.5v-29q0 -200 -160.5 -323t-419.5 -123z" />
    <glyph glyph-name="sacute" unicode="&#x15b;" horiz-adv-x="1089" 
d="M348 1317q-34 -18 -53 10t18 51l414 248q39 23 57 -12q20 -38 -16 -58zM541 -20q-158 0 -271 62.5t-170 174.5q-17 38 27 53q36 12 53 -24q49 -89 141.5 -139t219.5 -50q163 0 263.5 69t100.5 179v6q0 66 -27 111t-72 67t-104 34.5t-124 18t-130 12.5t-124 24t-104 46
t-72 85t-27 135v8q0 141 118.5 228t311.5 87q147 0 251 -62.5t156 -174.5q18 -40 -26 -53q-36 -12 -53 24q-44 89 -128 139t-200 50q-156 0 -252 -67.5t-96 -176.5v-2q0 -64 27 -107t72 -64t104 -33t124 -18t130 -14t124 -26t104 -48t72 -86.5t27 -136.5v-12
q0 -143 -123.5 -231t-322.5 -88z" />
    <glyph glyph-name="Scedilla" unicode="&#x15e;" horiz-adv-x="1372" 
d="M215 1192q0 -65 16.5 -114t57 -82.5t75 -54.5t105.5 -36.5t110 -21.5t125 -17q78 -10 118 -15.5t109.5 -20.5t107 -32t86.5 -48t74 -70t43 -96.5t18 -128.5v-29q0 -190 -145 -311t-384 -133l-35 -93l6 -2q81 -14 130 -54t49 -97v-19q0 -62 -47 -99.5t-123 -37.5h-113
q-41 0 -41 37t41 37h102q45 0 72 18t27 49v13q0 34 -29 57t-78 31l-51 8q-44 6 -29 49l37 101q-191 7 -330.5 101.5t-199.5 246.5q-16 43 26 55q43 13 58 -25q61 -139 186 -218t291 -79q221 0 357.5 102.5t136.5 268.5v23q0 66 -17.5 116.5t-56 84t-77.5 55.5t-105 37
t-113.5 22.5t-125.5 17.5q-77 9 -117 15t-108.5 20.5t-105.5 31.5t-85.5 47.5t-73 68.5t-42.5 94.5t-18 126.5v27q0 192 154.5 311t406.5 119q204 0 343.5 -90.5t201.5 -249.5q15 -41 -29 -54q-38 -10 -55 29q-62 133 -179.5 208t-281.5 75q-213 0 -344 -98t-131 -257v-20z
" />
    <glyph glyph-name="scedilla" unicode="&#x15f;" horiz-adv-x="1089" 
d="M203 844q0 -64 27 -107t72 -64t104 -33t124 -18t130 -14t124 -26t104 -48t72 -86.5t27 -136.5v-12q0 -133 -107 -219t-286 -98l-35 -93l6 -2q81 -14 129.5 -54t48.5 -97v-19q0 -62 -47 -99.5t-123 -37.5h-112q-41 0 -41 37t41 37h102q45 0 72 18t27 49v13q0 34 -29 57
t-78 31l-51 8q-44 6 -29 49l37 101q-148 6 -253.5 67.5t-158.5 169.5q-17 38 27 53q36 12 53 -24q49 -89 141.5 -139t219.5 -50q163 0 263.5 69t100.5 179v6q0 66 -27 111t-72 67t-104 34.5t-124 18t-130 12.5t-124 24t-104 46t-72 85t-27 135v8q0 141 118.5 228t311.5 87
q147 0 251 -62.5t156 -174.5q18 -40 -26 -53q-36 -12 -53 24q-44 89 -128 139t-200 50q-156 0 -252 -67.5t-96 -176.5v-2z" />
    <glyph glyph-name="Scaron" unicode="&#x160;" horiz-adv-x="1372" 
d="M680 1690q-15 0 -27 12l-268 252q-25 26 0 51q21 21 47 -2l250 -215l248 215q26 23 47 2q25 -25 -2 -51l-268 -252q-12 -12 -27 -12zM680 -20q-202 0 -351 95t-210 253q-16 43 26 55q43 13 58 -25q61 -139 186 -218t291 -79q221 0 357.5 102.5t136.5 268.5v23
q0 66 -17.5 116.5t-56 84t-77.5 55.5t-105 37t-113.5 22.5t-125.5 17.5q-77 9 -117 15t-108.5 20.5t-105.5 31.5t-85.5 47.5t-73 68.5t-42.5 94.5t-18 126.5v27q0 192 154.5 311t406.5 119q204 0 343.5 -90.5t201.5 -249.5q15 -41 -29 -54q-38 -10 -55 29
q-62 133 -179.5 208t-281.5 75q-213 0 -344 -98t-131 -257v-20q0 -65 16.5 -114t57 -82.5t75 -54.5t105.5 -36.5t110 -21.5t125 -17q78 -10 118 -15.5t109.5 -20.5t107 -32t86.5 -48t74 -70t43 -96.5t18 -128.5v-29q0 -200 -160.5 -323t-419.5 -123z" />
    <glyph glyph-name="scaron" unicode="&#x161;" horiz-adv-x="1089" 
d="M543 1311q-15 0 -27 12l-268 252q-26 25 0 51q21 21 47 -2l250 -215l248 215q26 23 47 2q24 -24 -2 -51l-269 -252q-12 -12 -26 -12zM541 -20q-158 0 -271 62.5t-170 174.5q-17 38 27 53q36 12 53 -24q49 -89 141.5 -139t219.5 -50q163 0 263.5 69t100.5 179v6
q0 66 -27 111t-72 67t-104 34.5t-124 18t-130 12.5t-124 24t-104 46t-72 85t-27 135v8q0 141 118.5 228t311.5 87q147 0 251 -62.5t156 -174.5q18 -40 -26 -53q-36 -12 -53 24q-44 89 -128 139t-200 50q-156 0 -252 -67.5t-96 -176.5v-2q0 -64 27 -107t72 -64t104 -33
t124 -18t130 -14t124 -26t104 -48t72 -86.5t27 -136.5v-12q0 -143 -123.5 -231t-322.5 -88z" />
    <glyph glyph-name="uni0162" unicode="&#x162;" horiz-adv-x="1150" 
d="M1061 1628q43 0 43 -41t-43 -41h-443v-1546l-40 -111l6 -2q81 -14 129.5 -54t48.5 -97v-19q0 -62 -47 -99.5t-123 -37.5h-113q-41 0 -41 37t41 37h103q44 0 71 18t27 49v13q0 34 -29 57t-78 31l-51 8q-43 6 -30 49l40 121v1546h-442q-43 0 -43 41t43 41h971z" />
    <glyph glyph-name="uni0163" unicode="&#x163;" horiz-adv-x="677" 
d="M596 1073h-283v-837q0 -73 44 -117.5t116 -44.5h102q43 0 43 -37t-43 -37h-108q-31 0 -61 6l-44 -117l7 -2q81 -14 129.5 -54t48.5 -97v-19q0 -62 -47 -99.5t-123 -37.5h-113q-41 0 -41 37t41 37h103q44 0 71 18t27 49v13q0 34 -29 57t-78 31l-51 8q-43 6 -28 49l55 154
q-103 64 -103 196v844h-159q-43 0 -43 37t43 37h161v285q0 20 11 31.5t30 11.5q39 0 39 -43v-285h283q43 0 43 -37t-43 -37z" />
    <glyph glyph-name="Tcaron" unicode="&#x164;" horiz-adv-x="1150" 
d="M549 1702l-268 252q-25 26 0 51q21 21 47 -2l250 -215l247 215q26 23 47 2q24 -25 -2 -51l-268 -252q-12 -12 -27 -12q-14 0 -26 12zM1061 1628q43 0 43 -41t-43 -41h-443v-1513q0 -43 -43 -43t-43 43v1513h-442q-43 0 -43 41t43 41h971z" />
    <glyph glyph-name="tcaron" unicode="&#x165;" horiz-adv-x="677" 
d="M477 1253q-30 6 -24 39l71 342q3 15 16 23.5t31 5.5q43 -3 33 -43l-84 -340q-6 -30 -43 -27zM596 1073h-283v-837q0 -73 44 -117.5t116 -44.5h102q43 0 43 -37t-43 -37h-108q-106 0 -171 62.5t-65 166.5v844h-159q-43 0 -43 37t43 37h161v285q0 20 11 31.5t30 11.5
q39 0 39 -43v-285h283q43 0 43 -37t-43 -37z" />
    <glyph glyph-name="Tbar" unicode="&#x166;" horiz-adv-x="1183" 
d="M1077 1628q43 0 43 -41t-43 -41h-442v-678h237q43 0 43 -41t-43 -41h-237v-753q0 -43 -43 -43t-43 43v753h-236q-43 0 -43 41t43 41h236v678h-443q-43 0 -43 41t43 41h971z" />
    <glyph glyph-name="tbar" unicode="&#x167;" horiz-adv-x="724" 
d="M625 621q43 0 43 -37t-43 -37h-283v-311q0 -73 44 -117.5t116 -44.5h102q43 0 43 -37t-43 -37h-108q-106 0 -171 62.5t-65 166.5v318h-160q-43 0 -43 37t43 37h160v452h-160q-43 0 -43 37t43 37h162v285q0 20 11 31.5t30 11.5q39 0 39 -43v-285h283q43 0 43 -37t-43 -37
h-283v-452h283z" />
    <glyph glyph-name="Umacron" unicode="&#x16a;" horiz-adv-x="1476" 
d="M465 1780q-43 0 -43 37q0 36 43 36h549q43 0 43 -36q0 -37 -43 -37h-549zM739 -20q-249 0 -400 150t-151 396v1069q0 43 43 43t43 -43v-1063q0 -213 127.5 -342t337.5 -129q209 0 336 129.5t127 341.5v1063q0 43 43 43t43 -43v-1069q0 -246 -151 -396t-398 -150z" />
    <glyph glyph-name="umacron" unicode="&#x16b;" horiz-adv-x="1224" 
d="M393 1462q-43 0 -43 37t43 37h445q43 0 43 -37t-43 -37h-445zM1010 1157q41 0 41 -43v-1081q0 -43 -39 -43q-19 0 -30 11.5t-11 31.5v151q-53 -97 -149 -150.5t-222 -53.5q-196 0 -317 121t-121 317v696q0 43 41 43t41 -43v-690q0 -166 99.5 -266.5t262.5 -100.5t263 101
t100 266v690q0 43 41 43z" />
    <glyph glyph-name="Uring" unicode="&#x16e;" horiz-adv-x="1476" 
d="M739 1714q-96 0 -154.5 50t-58.5 132v46q0 82 58.5 132t154.5 50t154.5 -50t58.5 -132v-46q0 -82 -58.5 -132t-154.5 -50zM739 1784q63 0 101.5 33t38.5 86v32q0 53 -38.5 86t-101.5 33t-101 -33t-38 -86v-32q0 -53 38 -86t101 -33zM739 -20q-249 0 -400 150t-151 396
v1069q0 43 43 43t43 -43v-1063q0 -213 127.5 -342t337.5 -129q209 0 336 129.5t127 341.5v1063q0 43 43 43t43 -43v-1069q0 -246 -151 -396t-398 -150z" />
    <glyph glyph-name="uring" unicode="&#x16f;" horiz-adv-x="1224" 
d="M616 1239q-96 0 -154.5 50t-58.5 132v45q0 82 58.5 132.5t154.5 50.5t154.5 -50.5t58.5 -132.5v-45q0 -82 -58.5 -132t-154.5 -50zM477 1460v-33q0 -53 38 -85.5t101 -32.5t101.5 32.5t38.5 85.5v33q0 53 -38.5 86t-101.5 33t-101 -33t-38 -86zM1010 1157q41 0 41 -43
v-1081q0 -43 -39 -43q-19 0 -30 11.5t-11 31.5v151q-53 -97 -149 -150.5t-222 -53.5q-196 0 -317 121t-121 317v696q0 43 41 43t41 -43v-690q0 -166 99.5 -266.5t262.5 -100.5t263 101t100 266v690q0 43 41 43z" />
    <glyph glyph-name="Uhungarumlaut" unicode="&#x170;" horiz-adv-x="1476" 
d="M596 1737q-27 -30 -53 -8q-24 21 2 55l254 293q29 36 59 6q29 -29 2 -60zM903 1737q-27 -30 -53 -8q-24 21 2 55l256 293q29 36 59 6q29 -29 2 -60zM739 -20q-249 0 -400 150t-151 396v1069q0 43 43 43t43 -43v-1063q0 -213 127.5 -342t337.5 -129q209 0 336 129.5
t127 341.5v1063q0 43 43 43t43 -43v-1069q0 -246 -151 -396t-398 -150z" />
    <glyph glyph-name="uhungarumlaut" unicode="&#x171;" horiz-adv-x="1224" 
d="M410 1268q-24 21 2 55l254 293q29 36 59 6q29 -29 2 -59l-264 -287q-27 -30 -53 -8zM717 1268q-24 21 2 55l256 293q29 36 59 6q29 -29 2 -59l-266 -287q-27 -30 -53 -8zM1010 1157q41 0 41 -43v-1081q0 -43 -39 -43q-19 0 -30 11.5t-11 31.5v151q-53 -97 -149 -150.5
t-222 -53.5q-196 0 -317 121t-121 317v696q0 43 41 43t41 -43v-690q0 -166 99.5 -266.5t262.5 -100.5t263 101t100 266v690q0 43 41 43z" />
    <glyph glyph-name="Uogonek" unicode="&#x172;" horiz-adv-x="1476" 
d="M1245 1638q43 0 43 -43v-1069q0 -200 -102.5 -340t-280.5 -186q-109 -59 -175 -126.5t-66 -121.5v-12q0 -38 40.5 -62t106.5 -24h53q41 0 41 -37t-61 -37h-43q-98 0 -158.5 43t-60.5 113v18q0 54 44 113.5t122 112.5h-9q-249 0 -400 150t-151 396v1069q0 43 43 43t43 -43
v-1063q0 -213 127.5 -342t337.5 -129q209 0 336 129.5t127 341.5v1063q0 43 43 43z" />
    <glyph glyph-name="uogonek" unicode="&#x173;" horiz-adv-x="1224" 
d="M1051 33q0 -27 -17 -37q-1 0 -2 -1t-2 -1q-98 -57 -159.5 -123t-61.5 -119v-12q0 -38 40.5 -62t106.5 -24h54q41 0 41 -37t-62 -37h-43q-98 0 -158.5 43t-60.5 113v18q0 68 67.5 143.5t176.5 133.5v2v151q-53 -97 -149 -150.5t-222 -53.5q-196 0 -317 121t-121 317v696
q0 43 41 43t41 -43v-690q0 -166 99.5 -266.5t262.5 -100.5t263 101t100 266v690q0 43 41 43t41 -43v-1081z" />
    <glyph glyph-name="Wcircumflex" unicode="&#x174;" horiz-adv-x="1998" 
d="M752 1722q-26 -23 -47 -2q-26 26 0 52l268 251q13 13 26 13q14 0 27 -13l268 -251q27 -27 2 -52q-21 -21 -47 2l-248 215zM1898 1636q39 -11 29 -55l-397 -1532q-14 -59 -70 -59h-12q-27 0 -45.5 16.5t-24.5 42.5l-379 1481l-378 -1481q-14 -59 -70 -59h-12
q-27 0 -45.5 16.5t-24.5 42.5l-397 1532q-10 46 30 55q45 10 54 -32l389 -1516l381 1497q13 53 67 53h13q54 0 67 -53l381 -1497l389 1516q12 45 55 32z" />
    <glyph glyph-name="wcircumflex" unicode="&#x175;" horiz-adv-x="1660" 
d="M582 1323q-26 -23 -47 -2q-25 25 0 51l268 252q12 12 26 12q15 0 27 -12l268 -252q26 -26 2 -51q-21 -21 -47 2l-248 215zM1571 1155q17 -4 23.5 -19t0.5 -34l-331 -1059q-17 -53 -66 -53h-10q-50 0 -64 53l-295 1030l-294 -1030q-14 -53 -64 -53h-8q-49 0 -66 53
l-331 1057q-6 19 1 35t25 20q38 10 49 -29l326 -1056l295 1036q14 51 63 51h11q49 0 63 -51l295 -1032l326 1052q11 39 51 29z" />
    <glyph glyph-name="Ycircumflex" unicode="&#x176;" horiz-adv-x="1376" 
d="M440 1722q-26 -23 -47 -2q-26 26 0 52l269 251q13 13 26 13q14 0 27 -13l268 -251q27 -27 2 -52q-21 -21 -47 2l-248 215zM1274 1630q34 -20 10 -59l-553 -864v-674q0 -43 -43 -43t-43 43v678l-551 860q-25 40 12 59q39 20 58 -14l526 -821l524 821q21 38 60 14z" />
    <glyph glyph-name="ycircumflex" unicode="&#x177;" horiz-adv-x="1048" 
d="M276 1323q-26 -23 -47 -2q-25 25 0 51l269 252q12 12 26 12q15 0 27 -12l268 -252q27 -26 2 -51q-21 -21 -47 2l-248 215zM963 1155q17 -6 23 -21t-1 -34l-487 -1282q-42 -111 -130.5 -179.5t-193.5 -68.5q-19 0 -30 11t-11 30q0 33 35 33q83 0 153.5 54.5t102.5 145.5
l57 160l-415 1096q-17 43 22 55q35 12 51 -27l387 -1013l383 1013q16 39 54 27z" />
    <glyph glyph-name="Ydieresis" unicode="&#x178;" horiz-adv-x="1376" 
d="M528 1759q-41 0 -41 43v111q0 43 41 43t41 -43v-111q0 -43 -41 -43zM850 1759q-41 0 -41 43v111q0 43 41 43t41 -43v-111q0 -43 -41 -43zM1274 1630q34 -20 10 -59l-553 -864v-674q0 -43 -43 -43t-43 43v678l-551 860q-25 40 12 59q39 20 58 -14l526 -821l524 821
q21 38 60 14z" />
    <glyph glyph-name="Zacute" unicode="&#x179;" horiz-adv-x="1269" 
d="M449 1735q-40 -12 -52 22t29 49l455 156q42 16 55 -27q12 -41 -27 -53zM1171 82q43 0 43 -41t-43 -41h-1054q-26 0 -41 14t-15 39v6q0 29 17 54l1016 1433h-969q-43 0 -43 41t43 41h1014q26 0 40.5 -14t14.5 -39v-6q0 -29 -16 -53l-1016 -1434h1009z" />
    <glyph glyph-name="zacute" unicode="&#x17a;" horiz-adv-x="1001" 
d="M309 1317q-34 -18 -53 10t18 51l414 248q39 23 57 -12q20 -38 -16 -58zM891 74q43 0 43 -37t-43 -37h-764q-24 0 -38.5 13.5t-14.5 35.5v2q0 30 18 53l729 969h-684q-43 0 -43 37t43 37h723q53 0 53 -47v-4q0 -31 -18 -54l-729 -968h725z" />
    <glyph glyph-name="Zdotaccent" unicode="&#x17b;" horiz-adv-x="1269" 
d="M637 1759q-43 0 -43 45v107q0 45 43 45t43 -45v-107q0 -45 -43 -45zM1171 82q43 0 43 -41t-43 -41h-1054q-26 0 -41 14t-15 39v6q0 29 17 54l1016 1433h-969q-43 0 -43 41t43 41h1014q26 0 40.5 -14t14.5 -39v-6q0 -29 -16 -53l-1016 -1434h1009z" />
    <glyph glyph-name="zdotaccent" unicode="&#x17c;" horiz-adv-x="1001" 
d="M504 1442q-41 0 -41 43v110q0 43 41 43t41 -43v-110q0 -43 -41 -43zM891 74q43 0 43 -37t-43 -37h-764q-24 0 -38.5 13.5t-14.5 35.5v2q0 30 18 53l729 969h-684q-43 0 -43 37t43 37h723q53 0 53 -47v-4q0 -31 -18 -54l-729 -968h725z" />
    <glyph glyph-name="Zcaron" unicode="&#x17d;" horiz-adv-x="1269" 
d="M610 1702l-268 252q-26 26 0 51q21 21 47 -2l250 -215l248 215q26 23 47 2q24 -25 -2 -51l-268 -252q-12 -12 -27 -12t-27 12zM1171 82q43 0 43 -41t-43 -41h-1054q-26 0 -41 14t-15 39v6q0 29 17 54l1016 1433h-969q-43 0 -43 41t43 41h1014q26 0 40.5 -14t14.5 -39v-6
q0 -29 -16 -53l-1016 -1434h1009z" />
    <glyph glyph-name="zcaron" unicode="&#x17e;" horiz-adv-x="1001" 
d="M477 1323l-268 252q-25 25 0 51q21 21 47 -2l250 -215l248 215q26 23 47 2q25 -24 -2 -51l-269 -252q-12 -12 -26 -12q-15 0 -27 12zM891 74q43 0 43 -37t-43 -37h-764q-24 0 -38.5 13.5t-14.5 35.5v2q0 30 18 53l729 969h-684q-43 0 -43 37t43 37h723q53 0 53 -47v-4
q0 -31 -18 -54l-729 -968h725z" />
    <glyph glyph-name="uni018F" unicode="&#x18f;" horiz-adv-x="1454" 
d="M721 1649q269 0 433.5 -170.5t164.5 -450.5v-450q0 -269 -165 -433.5t-435 -164.5q-267 0 -430.5 164.5t-163.5 433.5v251q0 43 43 43h1065v150q0 246 -141 395.5t-371 149.5q-160 0 -288 -81t-187 -224q-18 -45 -58 -33q-20 6 -27 22.5t1 36.5q59 155 211 258t348 103z
M719 61q232 0 373 144t141 379v207h-1022v-207q0 -235 139.5 -379t368.5 -144z" />
    <glyph glyph-name="florin" unicode="&#x192;" horiz-adv-x="1167" 
d="M1032 872q43 0 43 -41q0 -40 -43 -40h-405v-336q0 -204 -127 -329.5t-334 -125.5h-35q-37 0 -37 41t43 41h23q172 0 276.5 104.5t104.5 274.5v330h-404q-43 0 -43 40q0 41 43 41h404v302q0 204 128 329t335 125h28q43 0 43 -41t-43 -41h-22q-172 0 -277.5 -104.5
t-105.5 -274.5v-295h405z" />
    <glyph glyph-name="uni01C7" unicode="&#x1c7;" horiz-adv-x="1388" 
d="M229 791q-43 0 -43 43v761q0 43 43 43t43 -43v-723h437q43 0 43 -41q0 -40 -43 -40h-480zM1157 1638q43 0 43 -43v-1110q0 -227 -139.5 -366t-368.5 -139q-175 0 -301.5 104.5t-181.5 284.5q-12 41 29 53q43 12 55 -29q48 -156 152 -244t247 -88q190 0 306 118.5
t116 312.5v1103q0 43 43 43z" />
    <glyph glyph-name="Scommaaccent" unicode="&#x218;" horiz-adv-x="1372" 
d="M680 -20q-202 0 -351 95t-210 253q-16 43 26 55q43 13 58 -25q61 -139 186 -218t291 -79q221 0 357.5 102.5t136.5 268.5v23q0 66 -17.5 116.5t-56 84t-77.5 55.5t-105 37t-113.5 22.5t-125.5 17.5q-77 9 -117 15t-108.5 20.5t-105.5 31.5t-85.5 47.5t-73 68.5
t-42.5 94.5t-18 126.5v27q0 192 154.5 311t406.5 119q204 0 343.5 -90.5t201.5 -249.5q15 -41 -29 -54q-38 -10 -55 29q-62 133 -179.5 208t-281.5 75q-213 0 -344 -98t-131 -257v-20q0 -65 16.5 -114t57 -82.5t75 -54.5t105.5 -36.5t110 -21.5t125 -17q78 -10 118 -15.5
t109.5 -20.5t107 -32t86.5 -48t74 -70t43 -96.5t18 -128.5v-29q0 -200 -160.5 -323t-419.5 -123zM614 -436q-32 11 -20 51l84 272q16 48 57 35q41 -12 25 -59l-94 -273q-6 -18 -20 -25t-32 -1z" />
    <glyph glyph-name="scommaaccent" unicode="&#x219;" horiz-adv-x="1089" 
d="M541 -20q-158 0 -271 62.5t-170 174.5q-17 38 27 53q36 12 53 -24q49 -89 141.5 -139t219.5 -50q163 0 263.5 69t100.5 179v6q0 66 -27 111t-72 67t-104 34.5t-124 18t-130 12.5t-124 24t-104 46t-72 85t-27 135v8q0 141 118.5 228t311.5 87q147 0 251 -62.5t156 -174.5
q18 -40 -26 -53q-36 -12 -53 24q-44 89 -128 139t-200 50q-156 0 -252 -67.5t-96 -176.5v-2q0 -64 27 -107t72 -64t104 -33t124 -18t130 -14t124 -26t104 -48t72 -86.5t27 -136.5v-12q0 -143 -123.5 -231t-322.5 -88zM477 -436q-32 11 -20 51l84 272q16 48 57 35
q41 -12 25 -59l-95 -273q-13 -39 -51 -26z" />
    <glyph glyph-name="uni021A" unicode="&#x21a;" horiz-adv-x="1150" 
d="M1061 1628q43 0 43 -41t-43 -41h-443v-1513q0 -43 -43 -43t-43 43v1513h-442q-43 0 -43 41t43 41h971zM629 -78q40 -12 24 -59l-94 -273q-13 -39 -51 -26q-33 11 -21 51l84 272q7 23 23 32t35 3z" />
    <glyph glyph-name="uni021B" unicode="&#x21b;" horiz-adv-x="677" 
d="M596 1073h-283v-837q0 -73 44 -117.5t116 -44.5h102q43 0 43 -37t-43 -37h-108q-106 0 -171 62.5t-65 166.5v844h-159q-43 0 -43 37t43 37h161v285q0 20 11 31.5t30 11.5q39 0 39 -43v-285h283q43 0 43 -37t-43 -37zM401 -78q41 -12 25 -59l-94 -273q-13 -39 -51 -26
q-33 11 -21 51l84 272q16 48 57 35z" />
    <glyph glyph-name="uni0237" unicode="&#x237;" horiz-adv-x="446" 
d="M37 -430q-45 0 -45 35q0 33 51 41q147 21 147 170v1298q0 43 41 43t41 -43v-1304q0 -108 -65 -174t-170 -66z" />
    <glyph glyph-name="uni0259" unicode="&#x259;" horiz-adv-x="1163" 
d="M573 1167q214 0 345 -132t131 -349v-225q0 -217 -129.5 -349t-341.5 -132q-211 0 -340 132t-129 349v119q0 43 43 43h815v57q0 184 -108.5 297t-285.5 113q-134 0 -228.5 -50t-139.5 -139q-17 -36 -53 -24q-44 15 -27 53q53 114 167.5 175.5t280.5 61.5zM578 57
q175 0 282 113t107 297v82h-777v-82q0 -184 107 -297t281 -113z" />
    <glyph glyph-name="circumflex" unicode="&#x2c6;" horiz-adv-x="888" 
d="M150 1321q-26 25 0 51l268 252q12 12 26 12q15 0 27 -12l268 -252q27 -26 2 -51q-21 -21 -47 2l-248 215l-249 -215q-26 -23 -47 -2z" />
    <glyph glyph-name="caron" unicode="&#x2c7;" horiz-adv-x="888" 
d="M444 1311q-14 0 -26 12l-268 252q-26 25 0 51q21 21 47 -2l249 -215l248 215q26 23 47 2q25 -24 -2 -51l-268 -252q-12 -12 -27 -12z" />
    <glyph glyph-name="breve" unicode="&#x2d8;" horiz-adv-x="888" 
d="M444 1321q-128 0 -210 73t-99 201q-6 43 39 43q33 0 39 -39q13 -92 75 -144t156 -52t156.5 52t75.5 144q6 39 39 39q45 0 39 -43q-17 -128 -99 -201t-211 -73z" />
    <glyph glyph-name="dotaccent" unicode="&#x2d9;" horiz-adv-x="409" 
d="M205 1442q-41 0 -41 43v110q0 43 41 43t41 -43v-110q0 -43 -41 -43z" />
    <glyph glyph-name="ring" unicode="&#x2da;" horiz-adv-x="770" 
d="M385 1239q-96 0 -154.5 50t-58.5 132v45q0 82 58.5 132.5t154.5 50.5t154.5 -50.5t58.5 -132.5v-45q0 -82 -58.5 -132t-154.5 -50zM385 1309q63 0 101 32.5t38 85.5v33q0 53 -38 86t-101 33t-101 -33t-38 -86v-33q0 -53 38 -85.5t101 -32.5z" />
    <glyph glyph-name="ogonek" unicode="&#x2db;" horiz-adv-x="692" 
d="M403 -420q-98 0 -158.5 43t-60.5 113v18q0 73 78 154t199 139l31 -51q-99 -57 -162.5 -124t-63.5 -120v-12q0 -38 41 -62t107 -24h53q41 0 41 -37t-62 -37h-43z" />
    <glyph glyph-name="tilde" unicode="&#x2dc;" horiz-adv-x="985" 
d="M250 1448q-28 -25 -51 -2q-27 28 0 55q36 33 82 52.5t88 19.5q49 0 131.5 -37t122.5 -37q64 0 112 45q28 25 51 2q28 -28 0 -55q-36 -33 -82 -52.5t-88 -19.5q-50 0 -132 37t-124 37q-59 0 -110 -45z" />
    <glyph glyph-name="hungarumlaut" unicode="&#x2dd;" horiz-adv-x="987" 
d="M233 1276q-27 -30 -53 -8q-24 21 2 55l254 293q13 17 30 18.5t30 -12.5q29 -29 2 -59zM541 1276q-28 -31 -54 -8q-24 21 2 55l256 293q13 17 30 18.5t30 -12.5q29 -29 2 -59z" />
    <glyph glyph-name="gravecomb" unicode="&#x300;" 
d="M-121 1327q-17 -30 -55 -10l-420 239q-36 20 -16 58q18 35 57 12l414 -248q36 -22 20 -51z" />
    <glyph glyph-name="acutecomb" unicode="&#x301;" 
d="M-602 1317q-34 -18 -53 10t18 51l414 248q39 23 57 -12q20 -38 -16 -58z" />
    <glyph glyph-name="uni0302" unicode="&#x302;" 
d="M-739 1321q-25 25 0 51l268 252q12 12 27 12q14 0 26 -12l268 -252q27 -27 3 -51q-21 -21 -48 2l-247 215l-250 -215q-26 -23 -47 -2z" />
    <glyph glyph-name="tildecomb" unicode="&#x303;" 
d="M-735 1448q-28 -25 -51 -2q-28 28 0 55q36 33 82 52.5t88 19.5q50 0 132 -37t122 -37q64 0 112 45q28 25 51 2q27 -28 0 -55q-36 -33 -82 -52.5t-88 -19.5q-51 0 -132.5 37t-123.5 37q-59 0 -110 -45z" />
    <glyph glyph-name="uni0304" unicode="&#x304;" 
d="M-567 1462q-43 0 -43 37t43 37h444q43 0 43 -37t-43 -37h-444z" />
    <glyph glyph-name="uni0306" unicode="&#x306;" 
d="M-444 1321q-129 0 -211 73t-99 201q-6 43 39 43q33 0 39 -39q13 -92 75.5 -144t156.5 -52t156 52t75 144q6 39 39 39q45 0 39 -43q-17 -128 -99 -201t-210 -73z" />
    <glyph glyph-name="uni0307" unicode="&#x307;" 
d="M-205 1442q-41 0 -41 43v110q0 43 41 43t41 -43v-110q0 -43 -41 -43z" />
    <glyph glyph-name="uni0308" unicode="&#x308;" 
d="M-532 1442q-41 0 -41 43v110q0 43 41 43q40 0 40 -43v-110q0 -43 -40 -43zM-211 1442q-41 0 -41 43v110q0 43 41 43t41 -43v-110q0 -43 -41 -43z" />
    <glyph glyph-name="uni030A" unicode="&#x30a;" 
d="M-385 1239q-96 0 -154.5 50t-58.5 132v45q0 82 58.5 132.5t154.5 50.5t154.5 -50.5t58.5 -132.5v-45q0 -82 -58.5 -132t-154.5 -50zM-385 1309q63 0 101 32.5t38 85.5v33q0 53 -38 86t-101 33t-101 -33t-38 -86v-33q0 -53 38 -85.5t101 -32.5z" />
    <glyph glyph-name="uni030B" unicode="&#x30b;" 
d="M-754 1276q-27 -30 -53 -8q-24 21 2 55l254 293q29 36 59 6t3 -59zM-446 1276q-28 -31 -54 -8q-24 21 2 55l256 293q13 17 30 18.5t30 -12.5q29 -29 2 -59z" />
    <glyph glyph-name="uni030C" unicode="&#x30c;" 
d="M-444 1311q-15 0 -27 12l-268 252q-25 25 0 51q21 21 47 -2l250 -215l247 215q27 23 48 2q24 -24 -3 -51l-268 -252q-12 -12 -26 -12z" />
    <glyph glyph-name="uni0312" unicode="&#x312;" 
d="M-240 1645q36 -9 23 -52l-84 -295q-11 -44 -55 -34q-42 12 -27 59l94 293q12 39 49 29z" />
    <glyph glyph-name="uni0326" unicode="&#x326;" 
d="M-365 -436q-32 11 -20 51l84 272q16 48 57 35q41 -12 25 -59l-94 -273q-6 -18 -20 -25t-32 -1z" />
    <glyph glyph-name="uni0327" unicode="&#x327;" 
d="M-340 -113q81 -14 129.5 -54t48.5 -97v-19q0 -62 -47 -99.5t-123 -37.5h-112q-41 0 -41 37t41 37h102q44 0 71 18t27 49v13q0 34 -28.5 57t-77.5 31l-51 8q-44 6 -29 49l63 174l76 -16l-55 -148z" />
    <glyph glyph-name="uni0328" unicode="&#x328;" 
d="M-289 -420q-98 0 -158.5 43t-60.5 113v18q0 73 78 154t199 139l30 -51q-99 -57 -162 -124t-63 -120v-12q0 -38 40.5 -62t106.5 -24h54q41 0 41 -37t-62 -37h-43z" />
    <glyph glyph-name="uni0335" unicode="&#x335;" 
d="M-717 786q-43 0 -43 37t43 37h524q43 0 43 -37t-43 -37h-524z" />
    <glyph glyph-name="uni0336" unicode="&#x336;" 
d="M-1505 782q-43 0 -43 41t43 41h1274q43 0 43 -41t-43 -41h-1274z" />
    <glyph glyph-name="uni0394" unicode="&#x394;" horiz-adv-x="1429" 
d="M1364 59q4 -12 4 -20q0 -18 -13 -28.5t-32 -10.5h-1217q-22 0 -33.5 12t-11.5 27q0 5 5 20l571 1528q19 51 72 51h12q53 0 72 -51zM715 1546l-551 -1464h1100z" />
    <glyph glyph-name="uni03A9" unicode="&#x3a9;" horiz-adv-x="1562" 
d="M1368 82q43 0 43 -41t-43 -41h-442q-20 0 -31.5 11t-11.5 30q0 39 41 45q179 29 285 173.5t106 358.5v412q0 242 -147 389.5t-388 147.5q-239 0 -385.5 -148t-146.5 -389v-412q0 -214 106 -358.5t283 -173.5q41 -6 41 -45q0 -19 -11.5 -30t-31.5 -11h-440q-43 0 -43 41
t43 41h251q-133 65 -208.5 205.5t-75.5 330.5v418q0 275 170 444t448 169q280 0 450.5 -169t170.5 -444v-418q0 -190 -76 -330.5t-211 -205.5h254z" />
    <glyph glyph-name="pi" unicode="&#x3c0;" horiz-adv-x="1286" 
d="M1210 1147q43 0 43 -37t-43 -37h-151v-1040q0 -43 -41 -43t-41 43v1040h-668v-1040q0 -43 -41 -43t-41 43v1040h-151q-43 0 -43 37t43 37h1134z" />
    <glyph glyph-name="Wgrave" unicode="&#x1e80;" horiz-adv-x="1998" 
d="M727 1882q-39 12 -27 53q13 40 56 27l456 -156q39 -12 29 -49q-9 -35 -53 -22zM1898 1636q39 -11 29 -55l-397 -1532q-14 -59 -70 -59h-12q-27 0 -45.5 16.5t-24.5 42.5l-379 1481l-378 -1481q-14 -59 -70 -59h-12q-27 0 -45.5 16.5t-24.5 42.5l-397 1532q-10 46 30 55
q45 10 54 -32l389 -1516l381 1497q13 53 67 53h13q54 0 67 -53l381 -1497l389 1516q12 45 55 32z" />
    <glyph glyph-name="wgrave" unicode="&#x1e81;" horiz-adv-x="1660" 
d="M604 1556q-36 20 -16 58q18 35 57 12l414 -248q36 -22 20 -51q-17 -30 -55 -10zM1571 1155q17 -4 23.5 -19t0.5 -34l-331 -1059q-17 -53 -66 -53h-10q-50 0 -64 53l-295 1030l-294 -1030q-14 -53 -64 -53h-8q-49 0 -66 53l-331 1057q-6 19 1 35t25 20q38 10 49 -29
l326 -1056l295 1036q14 51 63 51h11q49 0 63 -51l295 -1032l326 1052q11 39 51 29z" />
    <glyph glyph-name="Wacute" unicode="&#x1e82;" horiz-adv-x="1998" 
d="M811 1735q-39 -12 -51 22t28 49l455 156q42 16 55 -27q12 -42 -26 -53zM1898 1636q39 -11 29 -55l-397 -1532q-14 -59 -70 -59h-12q-27 0 -45.5 16.5t-24.5 42.5l-379 1481l-378 -1481q-14 -59 -70 -59h-12q-27 0 -45.5 16.5t-24.5 42.5l-397 1532q-10 46 30 55
q45 10 54 -32l389 -1516l381 1497q13 53 67 53h13q54 0 67 -53l381 -1497l389 1516q12 45 55 32z" />
    <glyph glyph-name="wacute" unicode="&#x1e83;" horiz-adv-x="1660" 
d="M635 1317q-34 -18 -53 10t18 51l414 248q39 23 57 -12q20 -38 -16 -58zM1571 1155q17 -4 23.5 -19t0.5 -34l-331 -1059q-17 -53 -66 -53h-10q-50 0 -64 53l-295 1030l-294 -1030q-14 -53 -64 -53h-8q-49 0 -66 53l-331 1057q-6 19 1 35t25 20q38 10 49 -29l326 -1056
l295 1036q14 51 63 51h11q49 0 63 -51l295 -1032l326 1052q11 39 51 29z" />
    <glyph glyph-name="Wdieresis" unicode="&#x1e84;" horiz-adv-x="1998" 
d="M840 1759q-41 0 -41 43v111q0 43 41 43t41 -43v-111q0 -43 -41 -43zM1161 1759q-41 0 -41 43v111q0 43 41 43t41 -43v-111q0 -43 -41 -43zM1898 1636q39 -11 29 -55l-397 -1532q-14 -59 -70 -59h-12q-27 0 -45.5 16.5t-24.5 42.5l-379 1481l-378 -1481q-14 -59 -70 -59
h-12q-27 0 -45.5 16.5t-24.5 42.5l-397 1532q-10 46 30 55q45 10 54 -32l389 -1516l381 1497q13 53 67 53h13q54 0 67 -53l381 -1497l389 1516q12 45 55 32z" />
    <glyph glyph-name="wdieresis" unicode="&#x1e85;" horiz-adv-x="1660" 
d="M670 1442q-41 0 -41 43v110q0 43 41 43t41 -43v-110q0 -43 -41 -43zM991 1442q-41 0 -41 43v110q0 43 41 43t41 -43v-110q0 -43 -41 -43zM1571 1155q17 -4 23.5 -19t0.5 -34l-331 -1059q-17 -53 -66 -53h-10q-50 0 -64 53l-295 1030l-294 -1030q-14 -53 -64 -53h-8
q-49 0 -66 53l-331 1057q-6 19 1 35t25 20q38 10 49 -29l326 -1056l295 1036q14 51 63 51h11q49 0 63 -51l295 -1032l326 1052q11 39 51 29z" />
    <glyph glyph-name="uni1E9E" unicode="&#x1e9e;" horiz-adv-x="1437" 
d="M889 872q207 0 334 -115t127 -304v-29q0 -190 -127 -307t-334 -117h-264q-43 0 -43 41t43 41h258q172 0 276.5 95.5t104.5 252.5v21q0 154 -104.5 247t-276.5 93h-181q-59 0 -59 49v2q0 30 19 55l495 649h-870v-1513q0 -43 -43 -43t-43 43v1552q0 43 43 43h954
q28 0 43.5 -14t15.5 -37v-6q0 -31 -18 -55l-496 -644h146z" />
    <glyph glyph-name="Ygrave" unicode="&#x1ef2;" horiz-adv-x="1376" 
d="M416 1882q-39 12 -27 53q13 40 55 27l457 -156q39 -12 29 -49q-9 -35 -53 -22zM1274 1630q34 -20 10 -59l-553 -864v-674q0 -43 -43 -43t-43 43v678l-551 860q-25 40 12 59q39 20 58 -14l526 -821l524 821q21 38 60 14z" />
    <glyph glyph-name="ygrave" unicode="&#x1ef3;" horiz-adv-x="1048" 
d="M299 1556q-36 20 -16 58q18 35 57 12l414 -248q36 -22 20 -51q-17 -30 -55 -10zM963 1155q17 -6 23 -21t-1 -34l-487 -1282q-42 -111 -130.5 -179.5t-193.5 -68.5q-19 0 -30 11t-11 30q0 33 35 33q83 0 153.5 54.5t102.5 145.5l57 160l-415 1096q-17 43 22 55
q35 12 51 -27l387 -1013l383 1013q16 39 54 27z" />
    <glyph glyph-name="endash" unicode="&#x2013;" horiz-adv-x="1138" 
d="M193 549q-43 0 -43 37t43 37h753q43 0 43 -37t-43 -37h-753z" />
    <glyph glyph-name="emdash" unicode="&#x2014;" horiz-adv-x="1746" 
d="M193 549q-43 0 -43 37t43 37h1361q43 0 43 -37t-43 -37h-1361z" />
    <glyph glyph-name="quoteleft" unicode="&#x2018;" horiz-adv-x="413" 
d="M281 1630q36 -6 26 -49l-90 -385q-9 -43 -55 -33q-44 10 -31 56l100 380q9 38 50 31z" />
    <glyph glyph-name="quoteright" unicode="&#x2019;" horiz-adv-x="409" 
d="M160 1163q-17 3 -24.5 16.5t-2.5 32.5l90 385q9 43 56 33q43 -9 30 -55l-100 -381q-9 -37 -49 -31z" />
    <glyph glyph-name="quotesinglbase" unicode="&#x201a;" horiz-adv-x="430" 
d="M113 -289q-17 3 -24.5 16.5t-2.5 32.5l90 385q9 43 55 33q44 -10 31 -55l-100 -381q-9 -37 -49 -31z" />
    <glyph glyph-name="quotedblleft" unicode="&#x201c;" horiz-adv-x="651" 
d="M281 1630q36 -6 26 -49l-90 -385q-9 -43 -55 -33q-44 10 -31 56l100 380q9 38 50 31zM518 1630q17 -3 24.5 -16.5t2.5 -32.5l-90 -385q-9 -43 -56 -33q-43 10 -30 56l100 380q9 37 49 31z" />
    <glyph glyph-name="quotedblright" unicode="&#x201d;" horiz-adv-x="647" 
d="M160 1163q-17 3 -24.5 16.5t-2.5 32.5l90 385q9 43 56 33q43 -9 30 -55l-100 -381q-9 -37 -49 -31zM397 1163q-36 6 -26 49l90 385q9 43 55 33q44 -10 31 -55l-101 -381q-9 -37 -49 -31z" />
    <glyph glyph-name="quotedblbase" unicode="&#x201e;" horiz-adv-x="667" 
d="M113 -289q-17 3 -24.5 16.5t-2.5 32.5l90 385q9 43 55 33q44 -10 31 -55l-100 -381q-9 -37 -49 -31zM350 -289q-36 6 -26 49l90 385q9 43 55 33q44 -10 31 -55l-101 -381q-9 -37 -49 -31z" />
    <glyph glyph-name="dagger" unicode="&#x2020;" horiz-adv-x="753" 
d="M604 1378q43 0 43 -32q0 -35 -43 -35h-188v-437q0 -43 -39 -43t-39 43v437h-188q-20 0 -32 10t-12 25q0 32 44 32h188v207q0 43 39 43t39 -43v-207h188z" />
    <glyph glyph-name="daggerdbl" unicode="&#x2021;" horiz-adv-x="831" 
d="M188 1311q-20 0 -31.5 10t-11.5 25q0 32 43 32h189v207q0 43 39 43t39 -43v-207h188q43 0 43 -32q0 -35 -43 -35h-455zM643 1147q43 0 43 -33q0 -35 -43 -35h-188v-205q0 -43 -39 -43t-39 43v205h-189q-20 0 -31.5 10t-11.5 25q0 33 43 33h455z" />
    <glyph glyph-name="bullet" unicode="&#x2022;" horiz-adv-x="757" 
d="M379 401q-81 0 -130.5 48t-49.5 126v17q0 78 49.5 126t130.5 48t130.5 -48t49.5 -126v-17q0 -78 -49.5 -126t-130.5 -48z" />
    <glyph glyph-name="ellipsis" unicode="&#x2026;" horiz-adv-x="1175" 
d="M207 -10q-57 0 -57 61v74q0 61 57 61t57 -61v-74q0 -61 -57 -61zM588 -10q-58 0 -58 61v74q0 61 58 61q57 0 57 -61v-74q0 -61 -57 -61zM969 -10q-58 0 -58 61v74q0 61 58 61q57 0 57 -61v-74q0 -61 -57 -61z" />
    <glyph glyph-name="perthousand" unicode="&#x2030;" horiz-adv-x="2387" 
d="M371 803q-128 0 -206.5 75.5t-78.5 198.5v287q0 123 78.5 198.5t206.5 75.5q129 0 207.5 -75.5t78.5 -198.5v-287q0 -123 -78.5 -198.5t-207.5 -75.5zM420 16q-20 -36 -58 -16q-37 19 -14 57l897 1555q20 36 58 16q37 -19 14 -57zM371 877q92 0 148 56t56 148v277
q0 92 -56 148.5t-148 56.5q-91 0 -147 -56.5t-56 -148.5v-277q0 -92 56 -148t147 -56zM1292 -10q-127 0 -205.5 75.5t-78.5 198.5v287q0 123 78.5 198.5t205.5 75.5q129 0 208 -75.5t79 -198.5v-287q0 -123 -79 -198.5t-208 -75.5zM2023 -10q-127 0 -205.5 75.5t-78.5 198.5
v287q0 123 78.5 198.5t205.5 75.5q129 0 208 -75.5t79 -198.5v-287q0 -123 -79 -198.5t-208 -75.5zM1292 63q92 0 148.5 56.5t56.5 148.5v277q0 92 -56.5 148.5t-148.5 56.5q-91 0 -146.5 -56.5t-55.5 -148.5v-277q0 -92 55.5 -148.5t146.5 -56.5zM2023 63q92 0 148.5 56.5
t56.5 148.5v277q0 92 -56.5 148.5t-148.5 56.5q-91 0 -146.5 -56.5t-55.5 -148.5v-277q0 -92 55.5 -148.5t146.5 -56.5z" />
    <glyph glyph-name="guilsinglleft" unicode="&#x2039;" horiz-adv-x="1132" 
d="M956 272q37 -15 25 -49q-12 -37 -53 -20l-811 332q-35 15 -35 51q0 39 35 51l811 332q42 17 53 -19q13 -38 -25 -51l-788 -313z" />
    <glyph glyph-name="guilsinglright" unicode="&#x203a;" horiz-adv-x="1132" 
d="M1016 637q35 -12 35 -51q0 -36 -35 -51l-811 -332q-41 -17 -53 20q-12 35 24 49l789 314l-789 313q-37 13 -24 51q11 36 53 19z" />
    <glyph glyph-name="fraction" unicode="&#x2044;" horiz-adv-x="163" 
d="M-332 16q-20 -35 -57 -16t-14 57l897 1555q20 35 57 16t14 -57z" />
    <glyph glyph-name="lira" unicode="&#x20a4;" horiz-adv-x="1452" 
d="M156 913q-43 0 -43 41t43 41h161v600q0 43 43 43t43 -43v-600h648q43 0 43 -41t-43 -41h-895zM1348 375q19 -6 26 -21t0 -35q-57 -149 -191 -234t-317 -85h-506q-43 0 -43 43v625h-161q-43 0 -43 41t43 41h895q43 0 43 -41t-43 -41h-648v-586h463q150 0 260 69.5
t166 196.5q17 39 56 27z" />
    <glyph glyph-name="Euro" unicode="&#x20ac;" horiz-adv-x="1470" 
d="M127 913q-43 0 -43 41t43 41h162v86q0 255 150.5 411.5t396.5 156.5q177 0 309.5 -90.5t193.5 -247.5q15 -42 -26 -54q-43 -13 -58 27q-51 132 -162 207.5t-257 75.5q-207 0 -334 -135.5t-127 -356.5v-80h647q43 0 43 -41t-43 -41h-895zM1319 375q43 -16 29 -53
q-61 -159 -194 -250.5t-316 -91.5q-247 0 -398 150t-151 396v142h-162q-43 0 -43 41t43 41h895q43 0 43 -41t-43 -41h-647v-136q0 -212 127 -341.5t336 -129.5q151 0 263 76t163 211q15 42 55 27z" />
    <glyph glyph-name="uni20B1" unicode="&#x20b1;" horiz-adv-x="1511" 
d="M1397 1128q43 0 43 -41q0 -40 -43 -40h-166q-40 -119 -142.5 -187.5t-246.5 -68.5h-463v-758q0 -43 -43 -43t-43 43v1014h-162q-43 0 -43 40q0 41 43 41h162v164h-162q-43 0 -43 41t43 41h162v211q0 43 43 43h506q141 0 244 -68t145 -186h166q43 0 43 -41t-43 -41h-146
q4 -46 4 -67v-31q0 -26 -4 -66h146zM1169 1200v19q0 147 -91.5 237t-241.5 90h-457v-674h457q149 0 241 90t92 238z" />
    <glyph glyph-name="uni20B9" unicode="&#x20b9;" horiz-adv-x="1331" 
d="M158 1546q-43 0 -43 41t43 41h1059q43 0 43 -41t-43 -41h-1059zM1217 1382q43 0 43 -41t-43 -41h-162v-106q0 -165 -96 -272.5t-257 -126.5l330 -742q19 -43 -20 -59q-42 -17 -60 24l-342 773h-452q-43 0 -43 40q0 41 43 41h477q150 0 242 90.5t92 237.5v100h-811
q-43 0 -43 41t43 41h1059z" />
    <glyph glyph-name="uni20BD" unicode="&#x20bd;" horiz-adv-x="1378" 
d="M891 1628q185 0 299.5 -111t114.5 -292v-31q0 -181 -114.5 -292t-299.5 -111h-752q-43 0 -43 40q0 41 43 41h162v713q0 43 43 43h547zM1219 1200v19q0 147 -92 237t-242 90h-498v-674h498q150 0 242 90.5t92 237.5zM952 627q43 0 43 -41t-43 -41h-565v-512q0 -43 -43 -43
t-43 43v512h-162q-43 0 -43 41t43 41h813z" />
    <glyph glyph-name="uni20BF" unicode="&#x20bf;" horiz-adv-x="1449" 
d="M1036 838q134 -34 212.5 -136t78.5 -247v-43q0 -184 -114.5 -298t-299.5 -114h-61v-162q0 -43 -41 -43t-41 43v162h-184v-162q0 -43 -41 -43t-41 43v162h-260q-43 0 -43 43v1542q0 43 43 43h260v162q0 43 41 43t41 -43v-162h184v162q0 43 41 43t41 -43v-162h20
q186 0 300 -111t114 -292v-25q0 -131 -67 -226.5t-183 -135.5zM287 1546v-674h579q151 0 242.5 90t91.5 238v19q0 148 -91.5 237.5t-242.5 89.5h-579zM1241 418v37q0 151 -92.5 243.5t-241.5 92.5h-620v-709h620q149 0 241.5 92.5t92.5 243.5z" />
    <glyph glyph-name="trademark" unicode="&#x2122;" horiz-adv-x="1392" 
d="M1174 1632q47 0 47 -51v-567q0 -41 -37 -41q-39 0 -39 41l2 502l-197 -316q-16 -26 -35 -26q-20 0 -36 26l-199 316l4 -502q0 -41 -37 -41q-39 0 -39 41v567q0 51 47 51h4q35 0 60 -43l194 -317l195 317q25 43 59 43h7zM489 1628q41 0 41 -33q0 -34 -41 -34h-149v-547
q0 -41 -39 -41t-39 41v547h-149q-41 0 -41 34q0 33 41 33h376z" />
    <glyph glyph-name="oneeighth" unicode="&#x215b;" horiz-adv-x="1572" 
d="M1210 1628q38 -20 15 -57l-897 -1555q-20 -36 -58 -16q-37 19 -14 57l897 1555q20 35 57 16zM395 850v682l-254 -215q-31 -28 -55 2q-23 27 8 55l277 232q25 22 59 22h4q43 0 43 -43v-735q0 -43 -41 -43t-41 43zM1323 416q73 -23 113.5 -72t40.5 -115v-18
q0 -100 -78 -160.5t-207 -60.5t-207 60.5t-78 160.5v18q0 65 40.5 114.5t113.5 74.5q-63 24 -98 69t-35 105v22q0 94 73 152.5t191 58.5q119 0 191.5 -58.5t72.5 -152.5v-22q0 -61 -34.5 -106t-98.5 -70zM1012 592q0 -63 49.5 -102t130.5 -39t130.5 39t49.5 102v18
q0 63 -49.5 102.5t-130.5 39.5t-130.5 -39.5t-49.5 -102.5v-18zM1393 215v12q0 69 -55 110.5t-146 41.5t-146 -41.5t-55 -110.5v-12q0 -68 55.5 -110t145.5 -42t145.5 42t55.5 110z" />
    <glyph glyph-name="threeeighths" unicode="&#x215c;" horiz-adv-x="1613" 
d="M627 1018q0 -97 -75 -156t-198 -59q-91 0 -160 41.5t-100 111.5q-16 41 25 54q34 12 51 -27q53 -109 182 -109q87 0 140 41t53 107v22q0 66 -52.5 107t-138.5 41h-14q-37 0 -37 35q0 37 37 37h2q86 0 138 39t52 104v16q0 64 -50 103t-132 39q-61 0 -108.5 -27.5
t-69.5 -75.5q-18 -40 -49 -26q-42 17 -27 53q29 69 96.5 109t157.5 40q118 0 190 -58t72 -153v-20q0 -62 -38.5 -108t-106.5 -70q75 -21 117.5 -69t42.5 -116v-26zM1268 1628q37 -19 14 -57l-897 -1555q-20 -35 -57 -16q-38 20 -15 57l897 1555q20 36 58 16zM1380 416
q73 -23 113.5 -72t40.5 -115v-18q0 -100 -78 -160.5t-207 -60.5t-206.5 60.5t-77.5 160.5v18q0 66 40.5 115t112.5 74q-63 24 -98 69t-35 105v22q0 94 73 152.5t191 58.5q119 0 191.5 -58.5t72.5 -152.5v-22q0 -61 -34.5 -106t-98.5 -70zM1069 592q0 -63 49.5 -102
t130.5 -39q82 0 131.5 39t49.5 102v18q0 63 -50 102.5t-131 39.5t-130.5 -39.5t-49.5 -102.5v-18zM1450 215v12q0 69 -55 110.5t-146 41.5t-145.5 -41.5t-54.5 -110.5v-12q0 -68 55 -110t145 -42t145.5 42t55.5 110z" />
    <glyph glyph-name="fiveeighths" unicode="&#x215d;" horiz-adv-x="1601" 
d="M1251 1628q38 -20 15 -57l-897 -1555q-20 -36 -58 -16q-37 19 -14 57l897 1555q20 35 57 16zM616 1026q0 -100 -75 -160.5t-197 -60.5q-91 0 -160 41.5t-100 111.5q-16 41 25 54q34 12 51 -27q52 -108 182 -108q88 0 140.5 42.5t52.5 112.5v21q0 70 -51 112.5t-136 42.5
h-180q-47 0 -41 45l43 336q6 41 47 41h318q43 0 43 -37t-43 -37h-287l-37 -276h149q115 0 185.5 -62t70.5 -163v-29zM1364 416q73 -23 113.5 -72t40.5 -115v-18q0 -100 -78 -160.5t-207 -60.5t-207 60.5t-78 160.5v18q0 65 40.5 114.5t113.5 74.5q-63 24 -98 69t-35 105v22
q0 94 73 152.5t191 58.5q119 0 191.5 -58.5t72.5 -152.5v-22q0 -61 -34.5 -106t-98.5 -70zM1053 592q0 -63 49.5 -102t130.5 -39t130.5 39t49.5 102v18q0 63 -49.5 102.5t-130.5 39.5t-130.5 -39.5t-49.5 -102.5v-18zM1434 215v12q0 69 -55 110.5t-146 41.5t-146 -41.5
t-55 -110.5v-12q0 -68 55.5 -110t145.5 -42t145.5 42t55.5 110z" />
    <glyph glyph-name="seveneighths" unicode="&#x215e;" horiz-adv-x="1576" 
d="M1221 1628q37 -19 14 -57l-897 -1555q-20 -35 -57 -16q-38 20 -15 57l897 1555q20 36 58 16zM584 1526l-316 -692q-18 -40 -57 -21q-37 18 -21 55l318 686h-397q-43 0 -43 37t43 37h434q23 0 37 -12.5t14 -34.5v-2q0 -26 -12 -53zM1333 416q73 -23 113.5 -72t40.5 -115
v-18q0 -100 -78 -160.5t-207 -60.5t-206.5 60.5t-77.5 160.5v18q0 66 40.5 115t112.5 74q-63 24 -98 69t-35 105v22q0 94 73 152.5t191 58.5q119 0 191.5 -58.5t72.5 -152.5v-22q0 -61 -34.5 -106t-98.5 -70zM1022 592q0 -63 49.5 -102t130.5 -39t130.5 39t49.5 102v18
q0 63 -49.5 102.5t-130.5 39.5t-130.5 -39.5t-49.5 -102.5v-18zM1403 215v12q0 69 -55 110.5t-146 41.5t-146 -41.5t-55 -110.5v-12q0 -68 55.5 -110t145.5 -42t145.5 42t55.5 110z" />
    <glyph glyph-name="arrowleft" unicode="&#x2190;" horiz-adv-x="1710" 
d="M1583 872q43 0 43 -41q0 -40 -43 -40h-1376l536 -531q31 -31 5 -57q-12 -12 -29.5 -11.5t-30.5 13.5l-629 626l629 627q14 14 31 15t29 -11q25 -29 -5 -59l-536 -531h1376z" />
    <glyph glyph-name="arrowup" unicode="&#x2191;" horiz-adv-x="1429" 
d="M1341 1020q31 -31 5 -57q-12 -12 -29.5 -11.5t-30.5 13.5l-530 536v-1468q0 -43 -41 -43t-41 43v1468l-531 -536q-29 -29 -57 -2q-26 26 2 57l627 629z" />
    <glyph glyph-name="arrowright" unicode="&#x2192;" horiz-adv-x="1710" 
d="M1022 1458l629 -627l-629 -626q-30 -29 -57 -2q-29 29 2 57l536 531h-1376q-43 0 -43 40q0 41 43 41h1376l-536 531q-13 13 -13.5 30t11.5 29q27 26 57 -4z" />
    <glyph glyph-name="arrowdown" unicode="&#x2193;" horiz-adv-x="1433" 
d="M1348 668q26 -29 -5 -60l-626 -628l-627 628q-13 13 -13.5 30.5t11.5 29.5q26 26 57 -4l531 -537v1468q0 43 41 43t41 -43v-1468l530 537q14 14 31 15t29 -11z" />
    <glyph glyph-name="partialdiff" unicode="&#x2202;" horiz-adv-x="1177" 
d="M221 1638q185 -13 339.5 -95t265 -222.5t172 -343.5t61.5 -449v-67q0 -217 -132 -349t-349 -132q-216 0 -348 132t-132 349v61q0 217 129 349.5t340 132.5q126 0 225 -52.5t158 -148.5q-59 334 -255.5 531.5t-473.5 221.5q-56 6 -53 46q3 39 53 36zM973 467v49
q0 183 -109 294.5t-286 111.5t-285.5 -111.5t-108.5 -294.5v-49q0 -183 108.5 -294.5t285.5 -111.5q178 0 286.5 111.5t108.5 294.5z" />
    <glyph glyph-name="emptyset" unicode="&#x2205;" horiz-adv-x="1218" 
d="M956 952q129 -132 129 -348v-61q0 -217 -131 -349.5t-346 -132.5q-163 0 -284 82l-111 -143q-25 -36 -57 -10q-30 24 -6 59l112 146q-129 132 -129 348v61q0 217 130.5 349t344.5 132q168 0 287 -81l111 141q12 17 28 20t31 -10q27 -24 4 -57zM215 549q0 -175 100 -289
l529 678q-98 70 -236 70q-177 0 -285 -112.5t-108 -297.5v-49zM1004 549v49q0 175 -101 287l-528 -678q100 -68 233 -68q178 0 287 112.5t109 297.5z" />
    <glyph glyph-name="product" unicode="&#x220f;" horiz-adv-x="1363" 
d="M1253 1772q43 0 43 -41t-43 -41h-151v-1801q0 -43 -43 -43t-43 43v1801h-668v-1801q0 -43 -43 -43t-43 43v1801h-151q-43 0 -43 41t43 41h1142z" />
    <glyph glyph-name="summation" unicode="&#x2211;" horiz-adv-x="1288" 
d="M1178 -61q43 0 43 -41t-43 -41h-1051q-28 0 -43.5 14t-15.5 39v6q0 26 18 53l649 869l-629 821q-18 24 -18 55v4q0 25 15.5 39.5t43.5 14.5h1010q43 0 43 -41t-43 -41h-969l619 -805q18 -24 18 -47t-18 -50l-639 -849h1010z" />
    <glyph glyph-name="minus" unicode="&#x2212;" horiz-adv-x="1155" 
d="M119 549q-43 0 -43 37t43 37h917q43 0 43 -37t-43 -37h-917z" />
    <glyph glyph-name="radical" unicode="&#x221a;" horiz-adv-x="1167" 
d="M1151 1778q35 -15 23 -54l-672 -1820q-22 -58 -70 -58h-8q-48 0 -70 58l-323 884q-13 42 22 54q38 13 51 -27l324 -889l670 1827q6 19 21 26t32 -1z" />
    <glyph glyph-name="infinity" unicode="&#x221e;" horiz-adv-x="1835" 
d="M1300 1016q185 0 298.5 -111.5t113.5 -292.5v-49q0 -181 -113.5 -292t-298.5 -111q-141 0 -241.5 68t-140.5 188q-40 -119 -140.5 -187.5t-240.5 -68.5q-186 0 -300 111t-114 292v49q0 182 114 293t300 111q140 0 240.5 -68.5t140.5 -187.5q40 120 140.5 188t241.5 68z
M874 569v37q0 148 -91 238t-240 90q-151 0 -242.5 -90t-91.5 -238v-37q0 -148 91.5 -237.5t242.5 -89.5q149 0 240 89.5t91 237.5zM1626 569v37q0 148 -91.5 238t-240.5 90q-151 0 -242 -90t-91 -238v-37q0 -148 91 -237.5t242 -89.5q149 0 240.5 89.5t91.5 237.5z" />
    <glyph glyph-name="integral" unicode="&#x222b;" horiz-adv-x="927" 
d="M10 -143q-37 0 -37 41t43 41h23q172 0 276.5 104t104.5 274v1000q0 204 128 329.5t335 125.5h28q43 0 43 -41t-43 -41h-22q-172 0 -277.5 -104.5t-105.5 -274.5v-1000q0 -204 -127 -329t-334 -125h-35z" />
    <glyph glyph-name="approxequal" unicode="&#x2248;" horiz-adv-x="1312" 
d="M233 700q-23 -34 -47 -16q-31 24 -10 55q50 70 121 112t145 42q55 0 116 -25t106 -55t102 -55t104 -25q57 0 111.5 32t95.5 87q23 34 47 16q32 -25 11 -55q-50 -70 -122 -112t-147 -42q-55 0 -116.5 25t-107.5 55t-103.5 55t-104.5 25q-55 0 -107.5 -32t-93.5 -87z
M233 414q-24 -34 -47 -17q-32 25 -10 56q50 70 121 111.5t145 41.5q55 0 116 -25t106 -55t102 -55t104 -25q57 0 111.5 32t95.5 87q24 34 47 17q14 -11 17.5 -26t-6.5 -30q-50 -70 -122 -111.5t-147 -41.5q-55 0 -116.5 25t-107.5 54.5t-103.5 54.5t-104.5 25
q-55 0 -108 -31.5t-93 -86.5z" />
    <glyph glyph-name="notequal" unicode="&#x2260;" horiz-adv-x="1155" 
d="M1036 504q43 0 43 -37t-43 -37h-520l-205 -264q-22 -32 -57 -8q-31 21 -6 57l168 215h-297q-43 0 -43 37t43 37h354l129 164h-483q-43 0 -43 37q0 36 43 36h540l187 240q26 37 59 10q27 -24 4 -57l-149 -193h276q43 0 43 -36q0 -37 -43 -37h-334l-129 -164h463z" />
    <glyph glyph-name="equivalence" unicode="&#x2261;" horiz-adv-x="1384" 
d="M193 1194q-43 0 -43 41t43 41h999q43 0 43 -41t-43 -41h-999zM193 791q-43 0 -43 40q0 41 43 41h999q43 0 43 -41q0 -40 -43 -40h-999zM193 387q-43 0 -43 41t43 41h999q43 0 43 -41t-43 -41h-999z" />
    <glyph glyph-name="lessequal" unicode="&#x2264;" horiz-adv-x="1155" 
d="M1059 373q24 -10 24 -37q0 -20 -16 -30.5t-35 -4.5l-928 340q-32 13 -32 47t32 47l928 340q19 6 35 -4.5t16 -30.5q0 -26 -24 -36l-879 -310l-16 -6q4 -2 16 -6zM1040 176q43 0 43 -37t-43 -37h-925q-43 0 -43 37t43 37h925z" />
    <glyph glyph-name="greaterequal" unicode="&#x2265;" horiz-adv-x="1155" 
d="M96 373l879 309q8 2 16 6q-8 4 -16 6l-879 310q-24 10 -24 36q0 20 16 30.5t35 4.5l928 -340q32 -13 32 -47t-32 -47l-928 -340q-19 -6 -35 4.5t-16 30.5q0 27 24 37zM1040 176q43 0 43 -37t-43 -37h-925q-43 0 -43 37t43 37h925z" />
    <glyph glyph-name="triagup" unicode="&#x25b2;" horiz-adv-x="1413" 
d="M289 422q-25 0 -33 14.5t4 34.5l418 723q12 20 28.5 20t28.5 -20l418 -723q12 -20 4 -34.5t-33 -14.5h-835z" />
    <glyph glyph-name="uni25B4" unicode="&#x25b4;" horiz-adv-x="1413" 
d="M469 332q-25 0 -33 14.5t4 34.5l238 412q12 20 28.5 20t28.5 -20l238 -412q12 -20 4 -34.5t-33 -14.5h-475z" />
    <glyph glyph-name="uni25B6" unicode="&#x25b6;" horiz-adv-x="1413" 
d="M385 385q-20 -12 -34.5 -4t-14.5 33v835q0 25 14.5 33t34.5 -4l725 -418q20 -12 20 -28.5t-20 -28.5z" />
    <glyph glyph-name="uni25B8" unicode="&#x25b8;" horiz-adv-x="1413" 
d="M541 319q-20 -12 -34.5 -4t-14.5 33v475q0 25 14.5 33t34.5 -4l413 -238q20 -12 20 -28.5t-20 -28.5z" />
    <glyph glyph-name="triagdn" unicode="&#x25bc;" horiz-adv-x="1413" 
d="M735 469q-12 -20 -28.5 -20t-28.5 20l-418 723q-12 20 -4 34.5t33 14.5h835q25 0 33 -14.5t-4 -34.5z" />
    <glyph glyph-name="uni25BE" unicode="&#x25be;" horiz-adv-x="1413" 
d="M735 379q-12 -20 -28.5 -20t-28.5 20l-238 412q-12 20 -4 34.5t33 14.5h475q25 0 33 -14.5t-4 -34.5z" />
    <glyph glyph-name="uni25C0" unicode="&#x25c0;" horiz-adv-x="1413" 
d="M1077 414q0 -25 -14.5 -33t-34.5 4l-725 418q-20 12 -20 28.5t20 28.5l725 418q20 12 34.5 4t14.5 -33v-835z" />
    <glyph glyph-name="uni25C2" unicode="&#x25c2;" horiz-adv-x="1413" 
d="M922 348q0 -25 -15 -33t-35 4l-413 238q-20 12 -20 28.5t20 28.5l413 238q20 12 35 4t15 -33v-475z" />
    <glyph glyph-name="lozenge" unicode="&#x25ca;" horiz-adv-x="1011" 
d="M582 1587l342 -729q6 -12 6 -27q0 -13 -6 -28l-342 -762q-22 -51 -72 -51h-8q-50 0 -72 51l-342 762q-6 15 -6 28q0 15 6 27l342 729q25 51 72 51h8q28 0 43.5 -12t28.5 -39zM506 68l346 763l-346 730l-346 -730z" />
    <glyph glyph-name="uni2605" unicode="&#x2605;" horiz-adv-x="1413" 
d="M987 432q9 -29 -4.5 -39.5t-38.5 8.5l-237 172l-238 -172q-25 -19 -38.5 -8.5t-4.5 39.5l92 279l-237 174q-24 19 -19 34t35 15h293l90 280q6 19 16 26t20.5 0t16.5 -26l90 -280h293q30 0 35.5 -15t-18.5 -34l-238 -174z" />
    <glyph glyph-name="uni276E" unicode="&#x276e;" horiz-adv-x="1021" 
d="M260 831l578 -571q30 -30 4 -57q-12 -12 -29.5 -11.5t-30.5 13.5l-628 626l628 627q14 14 31 15t29 -11q26 -29 -4 -59z" />
    <glyph glyph-name="uni276F" unicode="&#x276f;" horiz-adv-x="1021" 
d="M240 1458l628 -627l-628 -626q-13 -13 -29.5 -13.5t-28.5 11.5q-29 29 2 57l578 571l-578 572q-13 13 -13.5 30t11.5 29t28 11t30 -15z" />
    <glyph glyph-name="uni2913" unicode="&#x2913;" horiz-adv-x="1884" 
d="M942 309l-496 498q-30 31 -4 57q12 12 28 11t30 -15l401 -405v1140q0 43 41 43t41 -43v-1140l401 405q14 14 30 15t28 -11q26 -26 -4 -57zM1647 74q43 0 43 -37t-43 -37h-1409q-43 0 -43 37t43 37h1409z" />
    <glyph glyph-name="uniF8FF" unicode="&#xf8ff;" horiz-adv-x="2609" 
d="M156 -20q-15 0 -25 10.5t-10 25.5q0 21 10 31l700 698h-663q-47 0 -47 39q0 16 14 33l696 701h-669q-41 0 -41 38v3q0 38 41 38h758q47 0 47 -41q0 -20 -17 -34l-698 -697h676q17 0 29 -12t12 -29v-669l694 692q13 16 35 16q37 0 37 -45v-663l696 692q13 16 33 16
q15 0 25 -12t10 -27q0 -18 -13 -28l-753 -762q-14 -14 -35 -14q-41 0 -41 47v663l-694 -696q-14 -14 -35 -14q-41 0 -41 47v663l-697 -696q-14 -14 -34 -14z" />
    <glyph glyph-name="uni00A40301" horiz-adv-x="1243" 
d="M868 1735q-39 -12 -51 22t29 49l348 121q42 16 55 -24q13 -44 -26 -56zM547 -20q-176 0 -302.5 104.5t-181.5 284.5q-12 41 29 53q43 12 55 -29q48 -156 152.5 -244t247.5 -88q190 0 306 118.5t116 312.5v1103q0 43 43 43t43 -43v-1110q0 -227 -139.5 -366t-368.5 -139z
" />
    <glyph glyph-name="a.ss01" horiz-adv-x="1241" 
d="M1028 1157q39 0 39 -43v-1081q0 -43 -39 -43q-19 0 -30 11.5t-11 31.5v182q-56 -111 -161.5 -173t-245.5 -62q-210 0 -337.5 131.5t-127.5 347.5v229q0 216 127.5 347.5t337.5 131.5q140 0 245.5 -62t161.5 -173v182q0 20 11 31.5t30 11.5zM590 57q179 0 287 112t108 296
v217q0 184 -108 296t-287 112q-177 0 -285 -112t-108 -296v-217q0 -184 108 -296t285 -112z" />
    <glyph glyph-name="aacute.ss01" horiz-adv-x="1241" 
d="M418 1317q-34 -18 -53 10t18 51l414 248q39 23 57 -12q20 -38 -16 -58zM1028 1157q39 0 39 -43v-1081q0 -43 -39 -43q-19 0 -30 11.5t-11 31.5v182q-56 -111 -161.5 -173t-245.5 -62q-210 0 -337.5 131.5t-127.5 347.5v229q0 216 127.5 347.5t337.5 131.5
q140 0 245.5 -62t161.5 -173v182q0 20 11 31.5t30 11.5zM590 57q179 0 287 112t108 296v217q0 184 -108 296t-287 112q-177 0 -285 -112t-108 -296v-217q0 -184 108 -296t285 -112z" />
    <glyph glyph-name="abreve.ss01" horiz-adv-x="1241" 
d="M612 1321q-128 0 -210 73t-99 201q-6 43 39 43q33 0 39 -39q13 -92 75 -144t156 -52t156.5 52t75.5 144q6 39 39 39q45 0 39 -43q-17 -128 -99 -201t-211 -73zM1028 1157q39 0 39 -43v-1081q0 -43 -39 -43q-19 0 -30 11.5t-11 31.5v182q-56 -111 -161.5 -173t-245.5 -62
q-210 0 -337.5 131.5t-127.5 347.5v229q0 216 127.5 347.5t337.5 131.5q140 0 245.5 -62t161.5 -173v182q0 20 11 31.5t30 11.5zM590 57q179 0 287 112t108 296v217q0 184 -108 296t-287 112q-177 0 -285 -112t-108 -296v-217q0 -184 108 -296t285 -112z" />
    <glyph glyph-name="acircumflex.ss01" horiz-adv-x="1241" 
d="M365 1323q-27 -23 -48 -2q-25 25 0 51l269 252q12 12 26 12q15 0 27 -12l268 -252q27 -26 2 -51q-21 -21 -47 2l-248 215zM1028 1157q39 0 39 -43v-1081q0 -43 -39 -43q-19 0 -30 11.5t-11 31.5v182q-56 -111 -161.5 -173t-245.5 -62q-210 0 -337.5 131.5t-127.5 347.5
v229q0 216 127.5 347.5t337.5 131.5q140 0 245.5 -62t161.5 -173v182q0 20 11 31.5t30 11.5zM590 57q179 0 287 112t108 296v217q0 184 -108 296t-287 112q-177 0 -285 -112t-108 -296v-217q0 -184 108 -296t285 -112z" />
    <glyph glyph-name="adieresis.ss01" horiz-adv-x="1241" 
d="M453 1442q-41 0 -41 43v110q0 43 41 43t41 -43v-110q0 -43 -41 -43zM774 1442q-41 0 -41 43v110q0 43 41 43t41 -43v-110q0 -43 -41 -43zM1028 1157q39 0 39 -43v-1081q0 -43 -39 -43q-19 0 -30 11.5t-11 31.5v182q-56 -111 -161.5 -173t-245.5 -62q-210 0 -337.5 131.5
t-127.5 347.5v229q0 216 127.5 347.5t337.5 131.5q140 0 245.5 -62t161.5 -173v182q0 20 11 31.5t30 11.5zM590 57q179 0 287 112t108 296v217q0 184 -108 296t-287 112q-177 0 -285 -112t-108 -296v-217q0 -184 108 -296t285 -112z" />
    <glyph glyph-name="agrave.ss01" horiz-adv-x="1241" 
d="M387 1556q-36 20 -16 58q18 35 57 12l414 -248q36 -22 20 -51q-17 -30 -55 -10zM1028 1157q39 0 39 -43v-1081q0 -43 -39 -43q-19 0 -30 11.5t-11 31.5v182q-56 -111 -161.5 -173t-245.5 -62q-210 0 -337.5 131.5t-127.5 347.5v229q0 216 127.5 347.5t337.5 131.5
q140 0 245.5 -62t161.5 -173v182q0 20 11 31.5t30 11.5zM590 57q179 0 287 112t108 296v217q0 184 -108 296t-287 112q-177 0 -285 -112t-108 -296v-217q0 -184 108 -296t285 -112z" />
    <glyph glyph-name="amacron.ss01" horiz-adv-x="1241" 
d="M389 1462q-43 0 -43 37t43 37h445q43 0 43 -37t-43 -37h-445zM1028 1157q39 0 39 -43v-1081q0 -43 -39 -43q-19 0 -30 11.5t-11 31.5v182q-56 -111 -161.5 -173t-245.5 -62q-210 0 -337.5 131.5t-127.5 347.5v229q0 216 127.5 347.5t337.5 131.5q140 0 245.5 -62
t161.5 -173v182q0 20 11 31.5t30 11.5zM590 57q179 0 287 112t108 296v217q0 184 -108 296t-287 112q-177 0 -285 -112t-108 -296v-217q0 -184 108 -296t285 -112z" />
    <glyph glyph-name="aogonek.ss01" horiz-adv-x="1241" 
d="M1067 33q0 -27 -16 -37q-1 0 -2 -1t-2 -1q-98 -57 -160 -123t-62 -119v-12q0 -38 41 -62t107 -24h53q41 0 41 -37t-61 -37h-43q-99 0 -159.5 43t-60.5 113v18q0 68 67.5 143.5t176.5 133.5v2v182q-56 -111 -161.5 -173t-245.5 -62q-210 0 -337.5 131.5t-127.5 347.5v229
q0 216 127.5 347.5t337.5 131.5q140 0 245.5 -62t161.5 -173v182q0 20 11 31.5t30 11.5q39 0 39 -43v-1081zM590 57q179 0 287 112t108 296v217q0 184 -108 296t-287 112q-177 0 -285 -112t-108 -296v-217q0 -184 108 -296t285 -112z" />
    <glyph glyph-name="aring.ss01" horiz-adv-x="1241" 
d="M612 1239q-96 0 -154.5 50t-58.5 132v45q0 82 58.5 132.5t154.5 50.5t154.5 -50.5t58.5 -132.5v-45q0 -82 -58.5 -132t-154.5 -50zM473 1460v-33q0 -53 38 -85.5t101 -32.5t101.5 32.5t38.5 85.5v33q0 53 -38.5 86t-101.5 33t-101 -33t-38 -86zM1028 1157q39 0 39 -43
v-1081q0 -43 -39 -43q-19 0 -30 11.5t-11 31.5v182q-56 -111 -161.5 -173t-245.5 -62q-210 0 -337.5 131.5t-127.5 347.5v229q0 216 127.5 347.5t337.5 131.5q140 0 245.5 -62t161.5 -173v182q0 20 11 31.5t30 11.5zM590 57q179 0 287 112t108 296v217q0 184 -108 296
t-287 112q-177 0 -285 -112t-108 -296v-217q0 -184 108 -296t285 -112z" />
    <glyph glyph-name="atilde.ss01" horiz-adv-x="1241" 
d="M369 1448q-29 -25 -52 -2q-27 28 0 55q36 33 82 52.5t88 19.5q49 0 131 -37t123 -37q65 0 113 45q28 25 51 2q27 -28 0 -55q-36 -33 -82 -52.5t-88 -19.5q-51 0 -133 37t-123 37q-59 0 -110 -45zM1028 1157q39 0 39 -43v-1081q0 -43 -39 -43q-19 0 -30 11.5t-11 31.5v182
q-56 -111 -161.5 -173t-245.5 -62q-210 0 -337.5 131.5t-127.5 347.5v229q0 216 127.5 347.5t337.5 131.5q140 0 245.5 -62t161.5 -173v182q0 20 11 31.5t30 11.5zM590 57q179 0 287 112t108 296v217q0 184 -108 296t-287 112q-177 0 -285 -112t-108 -296v-217
q0 -184 108 -296t285 -112z" />
    <glyph glyph-name="i.loclTRK" horiz-adv-x="430" 
d="M215 1442q-41 0 -41 43v110q0 43 41 43t41 -43v-110q0 -43 -41 -43zM215 -10q-41 0 -41 43v1081q0 43 41 43t41 -43v-1081q0 -43 -41 -43z" />
    <glyph glyph-name="uni006A0301" horiz-adv-x="446" 
d="M125 1333q-33 -23 -53 4q-10 12 -6.5 27t20.5 27l309 231q38 26 60 -6q23 -33 -11 -57zM37 -430q-45 0 -45 35q0 33 51 41q147 21 147 170v1298q0 43 41 43t41 -43v-1304q0 -108 -65 -174t-170 -66z" />
    <glyph glyph-name="l.ss01" horiz-adv-x="430" 
d="M215 -10q-41 0 -41 43v1562q0 43 41 43t41 -43v-1562q0 -43 -41 -43z" />
    <glyph glyph-name="lacute.ss01" horiz-adv-x="430" 
d="M72 1735q-40 -12 -52 22t29 49l348 121q43 16 56 -24q13 -44 -27 -56zM215 -10q-41 0 -41 43v1562q0 43 41 43t41 -43v-1562q0 -43 -41 -43z" />
    <glyph glyph-name="lcaron.ss01" horiz-adv-x="466" 
d="M442 1180q-6 -39 -43 -33q-30 6 -24 47l71 416q3 20 16 30t32 7q41 -6 32 -54zM215 -10q-41 0 -41 43v1562q0 43 41 43t41 -43v-1562q0 -43 -41 -43z" />
    <glyph glyph-name="lcommaaccent.ss01" horiz-adv-x="430" 
d="M215 -10q-41 0 -41 43v1562q0 43 41 43t41 -43v-1562q0 -43 -41 -43zM143 -436q-32 11 -20 51l84 272q16 48 57 35q41 -12 25 -59l-94 -273q-6 -18 -20 -25t-32 -1z" />
    <glyph glyph-name="lslash.ss01" horiz-adv-x="528" 
d="M471 889q11 -32 -27 -47l-139 -56v-753q0 -43 -41 -43t-41 43v723l-110 -39q-40 -15 -50 20q-9 33 27 47l133 52v759q0 43 41 43t41 -43v-733l115 45q39 16 51 -18z" />
    <glyph glyph-name="y.ss01" horiz-adv-x="1224" 
d="M1010 1157q41 0 41 -43v-1126q0 -192 -124.5 -310t-326.5 -118q-139 0 -249 59t-169 168q-10 17 -4 33.5t27 25.5q32 13 53 -24q48 -84 139 -134t203 -50q166 0 267.5 98t101.5 258v227q-53 -95 -149 -148t-220 -53q-196 0 -317 121t-121 318v655q0 43 41 43t41 -43v-649
q0 -166 99.5 -266.5t262.5 -100.5t263 101t100 266v649q0 43 41 43z" />
    <glyph glyph-name="yacute.ss01" horiz-adv-x="1224" 
d="M422 1317q-34 -18 -53 10t18 51l414 248q39 23 57 -12q20 -38 -16 -58zM1010 1157q41 0 41 -43v-1126q0 -192 -124.5 -310t-326.5 -118q-139 0 -249 59t-169 168q-10 17 -4 33.5t27 25.5q32 13 53 -24q48 -84 139 -134t203 -50q166 0 267.5 98t101.5 258v227
q-53 -95 -149 -148t-220 -53q-196 0 -317 121t-121 318v655q0 43 41 43t41 -43v-649q0 -166 99.5 -266.5t262.5 -100.5t263 101t100 266v649q0 43 41 43z" />
    <glyph glyph-name="ycircumflex.ss01" horiz-adv-x="1224" 
d="M369 1323q-26 -23 -47 -2q-26 25 0 51l268 252q12 12 26 12q15 0 27 -12l268 -252q27 -26 2 -51q-21 -21 -47 2l-248 215zM1010 1157q41 0 41 -43v-1126q0 -192 -124.5 -310t-326.5 -118q-139 0 -249 59t-169 168q-10 17 -4 33.5t27 25.5q32 13 53 -24q48 -84 139 -134
t203 -50q166 0 267.5 98t101.5 258v227q-53 -95 -149 -148t-220 -53q-196 0 -317 121t-121 318v655q0 43 41 43t41 -43v-649q0 -166 99.5 -266.5t262.5 -100.5t263 101t100 266v649q0 43 41 43z" />
    <glyph glyph-name="ydieresis.ss01" horiz-adv-x="1224" 
d="M457 1442q-41 0 -41 43v110q0 43 41 43t41 -43v-110q0 -43 -41 -43zM778 1442q-41 0 -41 43v110q0 43 41 43t41 -43v-110q0 -43 -41 -43zM1010 1157q41 0 41 -43v-1126q0 -192 -124.5 -310t-326.5 -118q-139 0 -249 59t-169 168q-10 17 -4 33.5t27 25.5q32 13 53 -24
q48 -84 139 -134t203 -50q166 0 267.5 98t101.5 258v227q-53 -95 -149 -148t-220 -53q-196 0 -317 121t-121 318v655q0 43 41 43t41 -43v-649q0 -166 99.5 -266.5t262.5 -100.5t263 101t100 266v649q0 43 41 43z" />
    <glyph glyph-name="ygrave.ss01" horiz-adv-x="1224" 
d="M391 1556q-36 20 -16 58q18 35 57 12l414 -248q36 -22 20 -51q-17 -30 -55 -10zM1010 1157q41 0 41 -43v-1126q0 -192 -124.5 -310t-326.5 -118q-139 0 -249 59t-169 168q-10 17 -4 33.5t27 25.5q32 13 53 -24q48 -84 139 -134t203 -50q166 0 267.5 98t101.5 258v227
q-53 -95 -149 -148t-220 -53q-196 0 -317 121t-121 318v655q0 43 41 43t41 -43v-649q0 -166 99.5 -266.5t262.5 -100.5t263 101t100 266v649q0 43 41 43z" />
    <glyph glyph-name="uni00CD00A40301" horiz-adv-x="1388" 
d="M86 1735q-39 -12 -51 22t28 49l349 121q42 16 55 -24q13 -44 -27 -56zM1014 1735q-39 -12 -51 22t28 49l348 121q43 16 56 -24q13 -44 -27 -56zM229 780q-43 0 -43 43v772q0 43 43 43t43 -43v-772q0 -43 -43 -43zM692 -20q-175 0 -301.5 104.5t-181.5 284.5q-12 41 29 53
q43 12 55 -29q48 -156 152 -244t247 -88q190 0 306 118.5t116 312.5v1103q0 43 43 43t43 -43v-1110q0 -227 -139.5 -366t-368.5 -139z" />
    <glyph glyph-name="f_f_l.ss01" horiz-adv-x="1712" 
d="M1497 1638q41 0 41 -43v-1562q0 -43 -41 -43t-41 43v1562q0 43 41 43zM1081 1554q-76 0 -123 -47.5t-47 -124.5v-235h283q43 0 43 -37t-43 -37h-283v-1040q0 -43 -41 -43t-41 43v1040h-514v-1040q0 -43 -41 -43t-41 43v1040h-159q-43 0 -43 37t43 37h159v242
q0 107 68 173t178 66h119q43 0 43 -37t-43 -37h-113q-76 0 -123 -47.5t-47 -124.5v-235h514v242q0 107 68 173t178 66h119q43 0 43 -37t-43 -37h-113z" />
    <glyph glyph-name="f_t" horiz-adv-x="1277" 
d="M1196 1073h-283v-837q0 -73 44 -117.5t116 -44.5h103q43 0 43 -37t-43 -37h-109q-106 0 -171 62.5t-65 166.5v844h-516v-1040q0 -43 -41 -43t-41 43v1040h-159q-43 0 -43 37t43 37h159v242q0 107 68 173t178 66h119q43 0 43 -37t-43 -37h-113q-76 0 -123 -47.5
t-47 -124.5v-235h519v285q0 43 40 43q39 0 39 -43v-285h283q43 0 43 -37t-43 -37z" />
    <glyph glyph-name="fl.ss01" horiz-adv-x="1116" 
d="M901 1638q41 0 41 -43v-1562q0 -43 -41 -43t-41 43v1562q0 43 41 43zM485 1554q-76 0 -123 -47.5t-47 -124.5v-235h283q43 0 43 -37t-43 -37h-283v-1040q0 -43 -41 -43t-41 43v1040h-159q-43 0 -43 37t43 37h159v242q0 107 68 173t178 66h119q43 0 43 -37t-43 -37h-113z
" />
    <glyph glyph-name="t_f" horiz-adv-x="1249" 
d="M1194 1147q43 0 43 -37t-43 -37h-283v-1040q0 -43 -41 -43t-41 43v1040h-516v-837q0 -73 44 -117.5t116 -44.5h102q43 0 43 -37t-43 -37h-108q-106 0 -171 62.5t-65 166.5v844h-159q-43 0 -43 37t43 37h161v285q0 20 11 31.5t30 11.5q39 0 39 -43v-285h516v242
q0 107 68 173t178 66h119q43 0 43 -37t-43 -37h-113q-76 0 -123 -47.5t-47 -124.5v-235h283z" />
    <glyph glyph-name="t_t" horiz-adv-x="1277" 
d="M1196 1073h-283v-837q0 -73 44 -117.5t116 -44.5h103q43 0 43 -37t-43 -37h-109q-106 0 -171 62.5t-65 166.5v844h-518v-837q0 -73 44 -117.5t116 -44.5h102q43 0 43 -37t-43 -37h-108q-106 0 -171 62.5t-65 166.5v844h-159q-43 0 -43 37t43 37h161v285q0 20 11 31.5
t30 11.5q39 0 39 -43v-285h521v285q0 43 40 43q39 0 39 -43v-285h283q43 0 43 -37t-43 -37z" />
    <glyph glyph-name="zero.tf" horiz-adv-x="1413" 
d="M707 -20q-245 0 -395 148.5t-150 389.5v592q0 242 150.5 390.5t394.5 148.5t394 -148.5t150 -390.5v-592q0 -242 -150 -390t-394 -148zM707 61q205 0 331.5 128t126.5 335v580q0 207 -126.5 335t-331.5 128t-332 -128t-127 -335v-580q0 -207 127 -335t332 -128z" />
    <glyph glyph-name="one.tf" horiz-adv-x="1413" 
d="M967 1638q23 0 37 -14t14 -37v-1554q0 -43 -43 -43t-43 43v1499l-619 -528q-31 -28 -57 4q-25 31 6 59l647 553q21 18 54 18h4z" />
    <glyph glyph-name="two.tf" horiz-adv-x="1413" 
d="M1178 82q43 0 43 -41t-43 -41h-945q-29 0 -45 13.5t-16 37.5v4q0 33 27 54q142 110 245.5 195t218 186t192.5 186t144 175t98.5 175t32.5 164v18q0 161 -113 260t-298 99q-160 0 -278.5 -79.5t-161.5 -211.5q-16 -51 -56 -39q-42 12 -30 53q51 166 191 262.5t335 96.5
q223 0 360.5 -120t137.5 -315v-24q0 -73 -26 -151.5t-68 -150.5t-113 -156.5t-141 -155.5t-174.5 -162t-191 -162t-210.5 -170h885z" />
    <glyph glyph-name="three.tf" horiz-adv-x="1413" 
d="M868 834q161 -36 255 -137t94 -246v-56q0 -187 -144.5 -301t-378.5 -114q-186 0 -321 93.5t-185 252.5q-6 20 2 35t27 20q43 12 55 -29q40 -134 151 -212.5t271 -78.5q197 0 316.5 93t119.5 247v50q0 154 -119.5 247t-316.5 93h-59q-43 0 -43 40q0 41 43 41h33
q197 0 315.5 90.5t118.5 241.5v31q0 150 -114 241t-302 91q-152 0 -261 -77t-149 -208q-13 -43 -53 -31q-39 13 -30 54q37 159 170.5 251.5t322.5 92.5q226 0 364 -112t138 -296v-37q0 -136 -85 -233t-235 -137z" />
    <glyph glyph-name="four.tf" horiz-adv-x="1413" 
d="M1237 551q43 0 43 -41t-43 -41h-176v-436q0 -43 -43 -43t-43 43v436h-801q-26 0 -40.5 12.5t-14.5 34.5v4q0 29 18 53l811 1041q21 24 53 24h9q23 0 37 -14t14 -39v-1034h176zM219 551h756l2 969z" />
    <glyph glyph-name="five.tf" horiz-adv-x="1413" 
d="M711 897q226 0 364.5 -118.5t138.5 -311.5v-61q0 -192 -144 -309t-378 -117q-186 0 -321 93.5t-185 252.5q-6 20 2 35t27 20q43 12 55 -29q40 -134 151 -212.5t271 -78.5q197 0 316.5 96.5t119.5 254.5v53q0 158 -116 254t-307 96h-373q-47 0 -41 45l96 727q6 41 47 41
h658q43 0 43 -41t-43 -41h-621l-90 -649h330z" />
    <glyph glyph-name="six.tf" horiz-adv-x="1413" 
d="M717 946q241 0 388.5 -130.5t147.5 -342.5v-20q0 -213 -149 -343t-393 -130q-246 0 -395.5 130t-149.5 343v20q0 142 98 307l490 834q21 37 61 18q37 -19 16 -59l-409 -696q141 69 295 69zM1165 459v8q0 178 -125 287.5t-329 109.5q-205 0 -331 -109t-126 -288v-8
q0 -179 126 -288.5t331 -109.5q204 0 329 109.5t125 288.5z" />
    <glyph glyph-name="seven.tf" horiz-adv-x="1413" 
d="M1157 1628q55 0 55 -55v-4q0 -26 -12 -53l-680 -1496q-17 -42 -63 -26q-43 15 -23 63l684 1489h-878q-43 0 -43 41t43 41h917z" />
    <glyph glyph-name="eight.tf" horiz-adv-x="1413" 
d="M905 834q162 -41 254 -143.5t92 -244.5v-40q0 -191 -149.5 -308.5t-394.5 -117.5t-395 117.5t-150 308.5v40q0 142 92 245t254 143q-142 40 -223.5 134.5t-81.5 225.5v51q0 181 139 292.5t365 111.5q227 0 365 -111t138 -293v-51q0 -131 -81.5 -225.5t-223.5 -134.5z
M291 1200q0 -148 114.5 -238t301.5 -90t301 90t114 238v39q0 148 -114 238t-301 90t-301.5 -90t-114.5 -238v-39zM1163 412v28q0 157 -125.5 254t-330.5 97t-331 -97t-126 -254v-28q0 -157 126 -254t331 -97t330.5 97t125.5 254z" />
    <glyph glyph-name="nine.tf" horiz-adv-x="1413" 
d="M705 1649q246 0 395 -130t149 -343v-21q0 -142 -98 -307l-489 -834q-21 -38 -62 -18q-37 19 -16 59l409 697q-143 -70 -295 -70q-241 0 -388.5 130.5t-147.5 342.5v21q0 212 149.5 342.5t393.5 130.5zM1161 1161v8q0 179 -125.5 288.5t-330.5 109.5q-204 0 -329.5 -110
t-125.5 -288v-8q0 -178 125.5 -287.5t329.5 -109.5q205 0 330.5 109t125.5 288z" />
    <glyph glyph-name="zero.zero" horiz-adv-x="1386" 
d="M692 1649q246 0 396.5 -148.5t150.5 -390.5v-592q0 -242 -150.5 -390t-396.5 -148q-245 0 -395 148.5t-150 389.5v592q0 242 150.5 390.5t394.5 148.5zM1153 524v580q0 207 -127 335t-334 128q-218 0 -346 -144l746 -1147q61 104 61 248zM692 61q216 0 346 140l-745 1147
q-60 -105 -60 -244v-580q0 -207 127 -335t332 -128z" />
    <glyph glyph-name="zero.zero.tf" horiz-adv-x="1413" 
d="M707 1649q244 0 394 -148.5t150 -390.5v-592q0 -242 -150 -390t-394 -148q-245 0 -395 148.5t-150 389.5v592q0 242 150.5 390.5t394.5 148.5zM1165 524v580q0 207 -126.5 335t-331.5 128q-107 0 -196.5 -38t-150.5 -106l746 -1144q59 106 59 245zM707 61q218 0 344 142
l-744 1145q-59 -103 -59 -244v-580q0 -207 127 -335t332 -128z" />
    <glyph glyph-name="zero.dnom" horiz-adv-x="778" 
d="M387 -10q-128 0 -206.5 75.5t-78.5 198.5v287q0 123 78.5 198.5t206.5 75.5q129 0 208 -75.5t79 -198.5v-287q0 -123 -79 -198.5t-208 -75.5zM387 63q92 0 148.5 56.5t56.5 148.5v277q0 92 -56.5 148.5t-148.5 56.5q-91 0 -147 -56.5t-56 -148.5v-277q0 -92 56 -148.5
t147 -56.5z" />
    <glyph glyph-name="one.dnom" horiz-adv-x="589" 
d="M418 815q43 0 43 -43v-735q0 -43 -41 -43t-41 43v682l-254 -215q-31 -28 -55 2q-23 27 8 55l276 232q25 22 60 22h4z" />
    <glyph glyph-name="two.dnom" horiz-adv-x="720" 
d="M588 72q43 0 43 -35q0 -37 -43 -37h-461q-20 0 -31.5 11t-11.5 30v2q0 32 27 53q89 70 143 113.5t117.5 101t97 99t57 87.5t23.5 87v8q0 72 -50 116t-132 44q-129 0 -193 -115q-20 -38 -51 -25q-38 15 -23 54q31 74 101.5 116.5t165.5 42.5q118 0 190 -62.5t72 -164.5
v-12q0 -61 -31 -123t-96 -129.5t-132 -124.5t-173 -137h391z" />
    <glyph glyph-name="three.dnom" horiz-adv-x="727" 
d="M473 416q75 -21 117.5 -69t42.5 -116v-26q0 -97 -75 -156t-198 -59q-91 0 -160 41.5t-100 111.5q-16 41 25 54q34 12 51 -27q53 -109 182 -109q87 0 140 41t53 107v22q0 66 -52.5 107t-138.5 41h-14q-37 0 -37 35q0 37 37 37h2q86 0 138.5 39t52.5 104v16q0 64 -50.5 103
t-132.5 39q-61 0 -108.5 -27.5t-69.5 -75.5q-18 -40 -49 -26q-42 17 -27 53q29 69 96.5 109t157.5 40q118 0 190 -58t72 -153v-20q0 -62 -38.5 -108t-106.5 -70z" />
    <glyph glyph-name="four.dnom" horiz-adv-x="716" 
d="M608 283q43 0 43 -37t-43 -37h-61v-172q0 -43 -39 -43q-19 0 -30 11.5t-11 31.5v172h-377q-15 0 -25 11.5t-10 29.5v2q0 30 19 55l364 481q21 27 54 27h4q23 0 37 -14t14 -37v-481h61zM143 283h326l2 436z" />
    <glyph glyph-name="five.dnom" horiz-adv-x="692" 
d="M356 465q115 0 185.5 -62t70.5 -163v-29q0 -100 -75 -160.5t-197 -60.5q-91 0 -160 41.5t-100 111.5q-16 41 24 54q35 12 52 -27q53 -109 182 -109q88 0 140 42.5t52 113.5v21q0 71 -50.5 113t-135.5 42h-180q-47 0 -41 45l43 336q6 41 47 41h317q43 0 43 -37t-43 -37
h-286l-37 -276h149z" />
    <glyph glyph-name="six.dnom" horiz-adv-x="692" 
d="M358 483q123 0 198 -66t75 -173v-15q0 -107 -78 -173t-207 -66t-207 66t-78 173v15q0 65 56 164l221 387q20 39 57 20q35 -18 13 -57l-172 -299q67 24 122 24zM547 233v7q0 77 -55 123.5t-146 46.5t-146 -46.5t-55 -123.5v-7q0 -77 55 -123.5t146 -46.5t146 46.5
t55 123.5z" />
    <glyph glyph-name="seven.dnom" horiz-adv-x="624" 
d="M526 815q23 0 37.5 -12.5t14.5 -34.5v-2q0 -24 -13 -53l-315 -693q-17 -39 -57 -20q-37 18 -21 55l317 686h-397q-43 0 -43 37t43 37h434z" />
    <glyph glyph-name="eight.dnom" horiz-adv-x="749" 
d="M506 416q72 -23 112.5 -72t40.5 -115v-18q0 -100 -77.5 -160.5t-206.5 -60.5t-207 60.5t-78 160.5v18q0 65 40.5 114.5t113.5 74.5q-63 24 -98 69t-35 105v22q0 94 73 152.5t191 58.5q119 0 191.5 -58.5t72.5 -152.5v-22q0 -61 -34.5 -106t-98.5 -70zM195 592
q0 -63 49.5 -102t130.5 -39t130.5 39t49.5 102v18q0 63 -49.5 102.5t-130.5 39.5t-130.5 -39.5t-49.5 -102.5v-18zM575 215v12q0 69 -54.5 110.5t-145.5 41.5t-146 -41.5t-55 -110.5v-12q0 -68 55.5 -110t145.5 -42t145 42t55 110z" />
    <glyph glyph-name="nine.dnom" horiz-adv-x="694" 
d="M346 825q129 0 207 -66t78 -173v-15q0 -64 -56 -163l-221 -388q-20 -39 -57 -20q-34 18 -12 57l172 299q-67 -24 -123 -24q-123 0 -198 66t-75 173v15q0 107 78 173t207 66zM547 575v7q0 77 -55 123.5t-146 46.5t-146 -46.5t-55 -123.5v-7q0 -76 55 -122.5t146 -46.5
t146 46.5t55 122.5z" />
    <glyph glyph-name="zero.numr" horiz-adv-x="776" 
d="M387 803q-128 0 -206.5 75.5t-78.5 198.5v287q0 123 78.5 198.5t206.5 75.5q129 0 208 -75.5t79 -198.5v-287q0 -123 -79 -198.5t-208 -75.5zM387 877q92 0 148.5 56t56.5 148v277q0 92 -56.5 148.5t-148.5 56.5q-91 0 -147 -56.5t-56 -148.5v-277q0 -92 56 -148t147 -56
z" />
    <glyph glyph-name="one.numr" horiz-adv-x="585" 
d="M414 1628q43 0 43 -43v-735q0 -43 -41 -43t-41 43v682l-254 -215q-31 -28 -55 2q-23 27 8 55l276 232q25 22 60 22h4z" />
    <glyph glyph-name="two.numr" horiz-adv-x="722" 
d="M590 885q43 0 43 -35q0 -37 -43 -37h-461q-20 0 -31.5 11t-11.5 30v2q0 32 27 53q89 70 143 113.5t117.5 101t97 99t57 87.5t23.5 87v8q0 72 -50 116t-132 44q-129 0 -193 -115q-20 -38 -51 -25q-38 15 -23 54q31 74 101.5 116.5t165.5 42.5q118 0 190 -62.5t72 -164.5
v-12q0 -61 -31 -123t-96 -129.5t-132 -124.5t-173 -137h391z" />
    <glyph glyph-name="three.numr" horiz-adv-x="727" 
d="M473 1229q75 -21 117.5 -69t42.5 -116v-26q0 -97 -75 -156t-198 -59q-91 0 -160 41.5t-100 111.5q-16 41 25 54q34 12 51 -27q53 -109 182 -109q87 0 140 41t53 107v22q0 66 -52.5 107t-138.5 41h-14q-37 0 -37 35q0 37 37 37h2q86 0 138.5 39t52.5 104v16
q0 64 -50.5 103t-132.5 39q-61 0 -108.5 -27.5t-69.5 -75.5q-18 -40 -49 -26q-42 17 -27 53q29 69 96.5 109t157.5 40q118 0 190 -58t72 -153v-20q0 -62 -38.5 -108t-106.5 -70z" />
    <glyph glyph-name="four.numr" horiz-adv-x="716" 
d="M608 1096q43 0 43 -37t-43 -37h-61v-172q0 -43 -39 -43q-19 0 -30 11.5t-11 31.5v172h-377q-15 0 -25 11.5t-10 29.5v2q0 30 19 55l364 482q20 26 54 26h4q23 0 37 -14t14 -37v-481h61zM143 1096h326l2 436z" />
    <glyph glyph-name="five.numr" horiz-adv-x="694" 
d="M356 1280q115 0 185.5 -62t70.5 -163v-29q0 -100 -75 -160.5t-197 -60.5q-91 0 -160 41.5t-100 111.5q-16 41 24 54q35 12 52 -27q52 -108 182 -108q88 0 140 42t52 113v21q0 71 -50.5 113t-135.5 42h-180q-47 0 -41 45l43 336q6 41 47 41h317q43 0 43 -37t-43 -37h-286
l-37 -276h149z" />
    <glyph glyph-name="six.numr" horiz-adv-x="694" 
d="M360 1296q123 0 198 -66t75 -173v-15q0 -107 -78 -173t-207 -66t-207 66t-78 173v15q0 65 56 164l221 387q20 39 57 20q35 -18 13 -57l-172 -299q67 24 122 24zM549 1047v6q0 77 -55 123.5t-146 46.5t-146 -46.5t-55 -123.5v-6q0 -77 55 -123.5t146 -46.5t146 46.5
t55 123.5z" />
    <glyph glyph-name="seven.numr" horiz-adv-x="622" 
d="M526 1628q23 0 37.5 -12.5t14.5 -34.5v-2q0 -24 -13 -53l-315 -692q-18 -40 -57 -21q-37 18 -21 55l317 686h-397q-43 0 -43 37t43 37h434z" />
    <glyph glyph-name="eight.numr" horiz-adv-x="749" 
d="M506 1229q72 -23 112.5 -72t40.5 -115v-18q0 -100 -77.5 -160.5t-206.5 -60.5t-207 60.5t-78 160.5v18q0 65 40.5 114.5t113.5 74.5q-63 24 -98 69t-35 105v22q0 94 73 152.5t191 58.5q119 0 191.5 -58.5t72.5 -152.5v-22q0 -61 -34.5 -106t-98.5 -70zM195 1405
q0 -63 49.5 -102t130.5 -39t130.5 39t49.5 102v18q0 63 -49.5 102.5t-130.5 39.5t-130.5 -39.5t-49.5 -102.5v-18zM575 1028v12q0 69 -54.5 110.5t-145.5 41.5t-146 -41.5t-55 -110.5v-12q0 -68 55 -109.5t146 -41.5q90 0 145 41.5t55 109.5z" />
    <glyph glyph-name="nine.numr" horiz-adv-x="694" 
d="M346 1638q129 0 207 -66t78 -173v-15q0 -64 -56 -163l-221 -387q-21 -40 -57 -21q-34 18 -12 57l172 299q-67 -24 -123 -24q-123 0 -198 66t-75 173v15q0 107 78 173t207 66zM547 1389v6q0 77 -55 123.5t-146 46.5t-146 -46.5t-55 -123.5v-6q0 -77 55 -123.5t146 -46.5
t146 46.5t55 123.5z" />
    <glyph glyph-name="backslash.case" horiz-adv-x="753" 
d="M635 -203q-40 -10 -49 31l-498 1954q-10 40 29 49t49 -31l498 -1952q10 -42 -29 -51z" />
    <glyph glyph-name="exclamdown.case" horiz-adv-x="499" 
d="M250 1638q57 0 57 -61v-74q0 -61 -57 -61t-57 61v74q0 61 57 61zM250 1157q43 0 43 -43v-1081q0 -43 -43 -43t-43 43v1081q0 43 43 43z" />
    <glyph glyph-name="questiondown.case" horiz-adv-x="983" 
d="M702 1442q-57 0 -57 61v74q0 61 57 61q58 0 58 -61v-74q0 -61 -58 -61zM866 82q43 0 43 -41t-43 -41h-374q-185 0 -299.5 111t-114.5 292v31q0 181 114.5 292.5t299.5 111.5h167v276q0 43 43 43t43 -43v-315q0 -43 -43 -43h-204q-150 0 -242 -90.5t-92 -237.5v-18
q0 -147 92 -237.5t242 -90.5h368z" />
    <glyph glyph-name="slash.case" horiz-adv-x="753" 
d="M119 -203q-39 9 -29 51l498 1952q10 40 49 31t29 -49l-498 -1954q-9 -41 -49 -31z" />
    <glyph glyph-name="comma.tf" horiz-adv-x="706" 
d="M266 -291q-37 7 -28 49l75 385q8 44 56 37q41 -6 32 -55l-88 -383q-9 -39 -47 -33z" />
    <glyph glyph-name="period.tf" horiz-adv-x="706" 
d="M352 -10q-57 0 -57 61v74q0 61 57 61q58 0 58 -61v-74q0 -61 -58 -61z" />
    <glyph glyph-name="braceleft.case" horiz-adv-x="737" 
d="M645 -61q43 0 43 -39q0 -43 -43 -43q-190 0 -298.5 109.5t-108.5 291.5v354q0 72 -35.5 114.5t-89.5 53.5q-31 7 -45.5 16t-14.5 27t14.5 27t45.5 16q54 11 89.5 53.5t35.5 114.5v336q0 184 109.5 293t297.5 109q43 0 43 -43q0 -39 -43 -39q-150 0 -235.5 -89.5
t-85.5 -236.5v-336q0 -71 -34 -124.5t-95 -80.5q61 -27 95 -80.5t34 -124.5v-354q0 -149 87 -237t234 -88z" />
    <glyph glyph-name="braceright.case" horiz-adv-x="737" 
d="M625 866q30 -7 44.5 -16t14.5 -27t-14.5 -27t-44.5 -16q-54 -11 -89.5 -53.5t-35.5 -114.5v-354q0 -182 -109 -291.5t-299 -109.5q-43 0 -43 43q0 39 43 39q147 0 234.5 88t87.5 237v354q0 71 34 124.5t95 80.5q-61 27 -95 80.5t-34 124.5v336q0 147 -86 236.5t-236 89.5
q-43 0 -43 39q0 43 43 43q188 0 298 -109t110 -293v-336q0 -72 35.5 -114.5t89.5 -53.5z" />
    <glyph glyph-name="bracketleft.case" horiz-adv-x="702" 
d="M608 -61q43 0 43 -41t-43 -41h-364q-43 0 -43 43v1829q0 43 43 43h364q43 0 43 -41t-43 -41h-321v-1751h321z" />
    <glyph glyph-name="bracketright.case" horiz-adv-x="702" 
d="M459 1772q43 0 43 -43v-1829q0 -43 -43 -43h-365q-43 0 -43 41t43 41h322v1751h-322q-43 0 -43 41t43 41h365z" />
    <glyph glyph-name="parenleft.case" horiz-adv-x="677" 
d="M586 -143q-190 0 -299 109.5t-109 291.5v1112q0 184 110 293t298 109q43 0 43 -43q0 -39 -43 -39q-150 0 -236 -89.5t-86 -236.5v-1100q0 -149 87.5 -237t234.5 -88q43 0 43 -39q0 -43 -43 -43z" />
    <glyph glyph-name="parenright.case" horiz-adv-x="677" 
d="M92 -143q-43 0 -43 43q0 39 43 39q147 0 234.5 88t87.5 237v1100q0 147 -86 236.5t-236 89.5q-43 0 -43 39q0 43 43 43q188 0 298 -109t110 -293v-1112q0 -182 -109 -291.5t-299 -109.5z" />
    <glyph glyph-name="emdash.case" horiz-adv-x="1759" 
d="M199 791q-43 0 -43 40q0 41 43 41h1362q43 0 43 -41q0 -40 -43 -40h-1362z" />
    <glyph glyph-name="endash.case" horiz-adv-x="1150" 
d="M199 791q-43 0 -43 40q0 41 43 41h753q43 0 43 -41q0 -40 -43 -40h-753z" />
    <glyph glyph-name="hyphen.case" horiz-adv-x="899" 
d="M199 791q-43 0 -43 40q0 41 43 41h501q43 0 43 -41q0 -40 -43 -40h-501z" />
    <glyph glyph-name="uni00AD.case" horiz-adv-x="899" 
d="M199 791q-43 0 -43 40q0 41 43 41h501q43 0 43 -41q0 -40 -43 -40h-501z" />
    <glyph glyph-name="guillemotleft.case" horiz-adv-x="1542" 
d="M711 522q36 -19 20 -51q-16 -33 -53 -12l-567 319q-31 19 -31 53q0 35 31 54l567 319q38 21 53 -10q15 -35 -20 -53l-557 -310zM1366 522q36 -19 20 -51q-16 -33 -53 -12l-567 319q-31 19 -31 53q0 35 31 54l567 319q37 21 53 -10q15 -35 -20 -53l-557 -310z" />
    <glyph glyph-name="guillemotright.case" horiz-adv-x="1542" 
d="M776 885q31 -19 31 -54q0 -34 -31 -53l-567 -319q-37 -21 -53 12q-16 32 20 51l557 309l-557 310q-35 18 -20 53q15 31 53 10zM1432 885q30 -18 30 -54q0 -35 -30 -53l-568 -319q-37 -21 -53 12q-16 32 20 51l558 309l-558 310q-35 18 -20 53q15 31 53 10z" />
    <glyph glyph-name="guilsinglleft.case" horiz-adv-x="1142" 
d="M961 518q36 -14 24 -49q-12 -37 -53 -20l-811 331q-35 15 -35 51q0 40 35 52l811 331q42 17 53 -18q13 -38 -24 -51l-789 -314z" />
    <glyph glyph-name="guilsinglright.case" horiz-adv-x="1142" 
d="M1022 883q35 -12 35 -52q0 -36 -35 -51l-811 -331q-41 -17 -53 20q-12 35 24 49l789 313l-789 314q-37 13 -24 51q11 35 53 18z" />
    <glyph glyph-name="space.tf" horiz-adv-x="706" 
 />
    <glyph glyph-name="cent.tf" horiz-adv-x="1413" 
d="M1120 516q45 -16 27 -51q-56 -107 -154.5 -171t-224.5 -73v-143q0 -43 -41 -43t-41 43v143q-193 12 -309.5 139.5t-116.5 327.5v248q0 201 117 329t309 140v164q0 43 41 43t41 -43v-164q127 -10 227.5 -80.5t153.5 -183.5q17 -38 -27 -54q-34 -12 -53 27
q-54 101 -142 158t-202 57q-172 0 -277.5 -109.5t-105.5 -289.5v-236q0 -179 106 -288t279 -109q115 0 205.5 53.5t134.5 141.5q17 36 53 24z" />
    <glyph glyph-name="dollar.tf" horiz-adv-x="1413" 
d="M270 1192q0 -89 33.5 -149.5t90.5 -92t130.5 -50t155 -29t162.5 -22t154.5 -36t130.5 -65t90.5 -114.5t33.5 -179v-29q0 -189 -135.5 -310.5t-361.5 -133.5v-144q0 -43 -41 -43t-41 43v142q-179 9 -310.5 103t-189.5 245q-16 42 27 55q42 12 57 -25q58 -139 175.5 -218
t273.5 -79q207 0 333.5 102.5t126.5 268.5v23q0 79 -27.5 136t-66.5 89.5t-107 55t-123 32.5t-141 21q-73 9 -110 15t-101.5 20.5t-99.5 31.5t-80.5 47.5t-68 68.5t-39.5 94t-17 126v27q0 183 134 300t354 128v143q0 43 41 43t41 -43v-141q175 -10 295.5 -99.5t179.5 -240.5
q15 -41 -29 -54q-38 -10 -55 29q-61 133 -169 208t-261 75q-199 0 -322 -98.5t-123 -256.5v-20z" />
    <glyph glyph-name="Euro.tf" horiz-adv-x="1413" 
d="M115 913q-43 0 -43 41t43 41h161v107q0 246 147.5 396.5t389.5 150.5q174 0 303.5 -90.5t190.5 -247.5q15 -41 -27 -54q-43 -12 -57 27q-52 132 -159.5 207.5t-250.5 75.5q-203 0 -327 -129.5t-124 -341.5v-101h627q43 0 43 -41t-43 -41h-874zM1286 375q41 -15 29 -53
q-54 -160 -186.5 -251t-313.5 -91q-243 0 -391 145t-148 381v162h-161q-43 0 -43 41t43 41h874q43 0 43 -41t-43 -41h-627v-156q0 -203 124.5 -327t328.5 -124q148 0 256 76t160 211q15 42 55 27z" />
    <glyph glyph-name="florin.tf" horiz-adv-x="1413" 
d="M1155 872q43 0 43 -41q0 -40 -43 -40h-405v-336q0 -204 -127 -329.5t-334 -125.5h-35q-37 0 -37 41t43 41h23q172 0 276.5 104.5t104.5 274.5v330h-404q-43 0 -43 40q0 41 43 41h404v302q0 204 127.5 329t334.5 125h29q43 0 43 -41t-43 -41h-22q-172 0 -277.5 -104.5
t-105.5 -274.5v-295h405z" />
    <glyph glyph-name="lira.tf" horiz-adv-x="1413" 
d="M123 913q-43 0 -43 41t43 41h162v600q0 43 43 43t43 -43v-600h647q43 0 43 -41t-43 -41h-895zM1315 375q19 -6 26 -21t0 -35q-58 -149 -191 -234t-316 -85h-506q-43 0 -43 43v625h-162q-43 0 -43 41t43 41h895q43 0 43 -41t-43 -41h-647v-586h463q149 0 258.5 70
t167.5 196q17 38 55 27z" />
    <glyph glyph-name="uni20B1.tf" horiz-adv-x="1413" 
d="M1313 1128q43 0 43 -41q0 -40 -43 -40h-166q-40 -119 -142.5 -187.5t-246.5 -68.5h-402v-758q0 -43 -43 -43t-43 43v1014h-161q-43 0 -43 40q0 41 43 41h161v164h-161q-43 0 -43 41t43 41h161v211q0 43 43 43h445q141 0 244 -68t145 -186h166q43 0 43 -41t-43 -41h-146
q4 -46 4 -67v-31q0 -26 -4 -66h146zM1085 1200v19q0 147 -91.5 237t-241.5 90h-396v-674h396q149 0 241 90t92 238z" />
    <glyph glyph-name="uni20BD.tf" horiz-adv-x="1413" 
d="M893 1628q185 0 299.5 -111t114.5 -292v-31q0 -181 -114.5 -292t-299.5 -111h-731q-43 0 -43 40q0 41 43 41h162v713q0 43 43 43h526zM1221 1200v19q0 147 -92 237t-242 90h-477v-674h477q150 0 242 90.5t92 237.5zM954 627q43 0 43 -41t-43 -41h-544v-512q0 -43 -43 -43
t-43 43v512h-162q-43 0 -43 41t43 41h792z" />
    <glyph glyph-name="uni20B9.tf" horiz-adv-x="1413" 
d="M188 1546q-43 0 -43 41t43 41h1059q43 0 43 -41t-43 -41h-1059zM1247 1382q43 0 43 -41t-43 -41h-162v-106q0 -165 -95.5 -272.5t-256.5 -126.5l330 -742q19 -43 -21 -59q-41 -16 -59 24l-342 773h-453q-43 0 -43 40q0 41 43 41h478q149 0 241 90t92 238v100h-811
q-43 0 -43 41t43 41h1059z" />
    <glyph glyph-name="sterling.tf" horiz-adv-x="1413" 
d="M1268 82q43 0 43 -41t-43 -41h-1129q-43 0 -43 41t43 41h162v709h-162q-43 0 -43 40q0 41 43 41h162v236q0 243 142.5 392t375.5 149q174 0 299.5 -89t186.5 -247q15 -40 -29 -53q-43 -12 -57 26q-50 131 -155 206t-245 75q-195 0 -313.5 -128t-118.5 -337v-230h592
q43 0 43 -41q0 -40 -43 -40h-592v-709h881z" />
    <glyph glyph-name="yen.tf" horiz-adv-x="1413" 
d="M1292 1630q34 -21 11 -59l-498 -774h350q43 0 43 -41t-43 -41h-895q-43 0 -43 41t43 41h350l-497 774q-25 40 12 59q38 20 57 -14l525 -819h2l524 819q21 37 59 14zM1155 551q43 0 43 -41t-43 -41h-405v-436q0 -43 -43 -43t-43 43v436h-404q-43 0 -43 41t43 41h895z" />
    <glyph glyph-name="plus.case" horiz-adv-x="1155" 
d="M1036 868q43 0 43 -37q0 -36 -43 -36h-418v-404q0 -43 -40 -43q-41 0 -41 43v404h-418q-43 0 -43 36q0 37 43 37h418v404q0 43 41 43q40 0 40 -43v-404h418z" />
    <glyph glyph-name="minus.case" horiz-adv-x="1155" 
d="M119 795q-43 0 -43 36q0 37 43 37h917q43 0 43 -37q0 -36 -43 -36h-917z" />
    <glyph glyph-name="multiply.case" horiz-adv-x="1155" 
d="M633 831l352 -352q14 -14 15 -29.5t-11 -27.5t-29 -11.5t-30 13.5l-352 352l-353 -352q-13 -13 -29 -13.5t-28 11.5q-29 26 2 57l352 352l-352 353q-30 30 -2 59q12 12 27.5 11t29.5 -15l353 -352l352 352q32 31 59 4q12 -12 11 -28.5t-15 -30.5z" />
    <glyph glyph-name="divide.case" horiz-adv-x="1155" 
d="M578 1139q-41 0 -41 43v90q0 43 41 43q40 0 40 -43v-90q0 -43 -40 -43zM119 795q-43 0 -43 36q0 37 43 37h917q43 0 43 -37q0 -36 -43 -36h-917zM578 348q-41 0 -41 43v90q0 43 41 43q40 0 40 -43v-90q0 -43 -40 -43z" />
    <glyph glyph-name="equal.case" horiz-adv-x="1155" 
d="M119 913q-43 0 -43 37t43 37h917q43 0 43 -37t-43 -37h-917zM119 676q-43 0 -43 37t43 37h917q43 0 43 -37t-43 -37h-917z" />
    <glyph glyph-name="notequal.case" horiz-adv-x="1155" 
d="M1036 750q43 0 43 -37t-43 -37h-520l-205 -264q-23 -33 -57 -9q-31 22 -6 58l168 215h-297q-43 0 -43 37t43 37h354l129 163h-483q-43 0 -43 37t43 37h540l187 240q26 37 59 10q27 -24 4 -57l-149 -193h276q43 0 43 -37t-43 -37h-334l-129 -163h463z" />
    <glyph glyph-name="greater.case" horiz-adv-x="1155" 
d="M1051 881q32 -14 32 -50q0 -35 -32 -49l-930 -417q-18 -8 -33.5 2t-15.5 30q0 23 20 33l881 391l24 10q-3 1 -11 5t-13 6l-881 391q-20 10 -20 33q0 20 16.5 30t32.5 2z" />
    <glyph glyph-name="less.case" horiz-adv-x="1155" 
d="M1063 430q20 -10 20 -33q0 -20 -15.5 -30t-33.5 -2l-930 417q-32 14 -32 49q0 36 32 50l930 417q16 8 32.5 -2t16.5 -30q0 -23 -20 -33l-881 -391l-24 -11q3 -1 11.5 -4.5t12.5 -5.5z" />
    <glyph glyph-name="greaterequal.case" horiz-adv-x="1155" 
d="M96 618l879 310q8 2 16 6q-8 4 -16 6l-879 309q-24 10 -24 37q0 20 16 30.5t35 4.5l928 -340q32 -13 32 -47t-32 -47l-928 -340q-19 -6 -35 4.5t-16 30.5q0 26 24 36zM1040 422q43 0 43 -37t-43 -37h-925q-43 0 -43 37t43 37h925z" />
    <glyph glyph-name="lessequal.case" horiz-adv-x="1155" 
d="M1059 618q24 -10 24 -36q0 -20 -16 -30.5t-35 -4.5l-928 340q-32 13 -32 47t32 47l928 340q19 6 35 -4.5t16 -30.5q0 -27 -24 -37l-879 -309l-16 -6q4 -2 16 -6zM1040 422q43 0 43 -37t-43 -37h-925q-43 0 -43 37t43 37h925z" />
    <glyph glyph-name="plusminus.case" horiz-adv-x="1155" 
d="M119 897q-43 0 -43 37t43 37h418v301q0 43 41 43q40 0 40 -43v-301h418q43 0 43 -37t-43 -37h-418v-301q0 -43 -40 -43q-41 0 -41 43v301h-418zM1036 422q43 0 43 -37t-43 -37h-917q-43 0 -43 37t43 37h917z" />
    <glyph glyph-name="approxequal.case" horiz-adv-x="1302" 
d="M238 946q-24 -34 -48 -16q-31 24 -10 55q50 70 121 112t145 42q55 0 116 -25t106 -55t102 -55t104 -25q57 0 111.5 32t95.5 87q23 34 47 16q32 -25 11 -55q-50 -70 -122 -112t-147 -42q-55 0 -116.5 25t-107.5 55t-103.5 55t-104.5 25q-54 0 -106.5 -32t-93.5 -87z
M238 659q-24 -34 -48 -16q-31 24 -10 55q50 70 121 112t145 42q55 0 116 -25t106 -55t102 -55t104 -25q57 0 111.5 32t95.5 87q23 34 47 16q32 -25 11 -55q-50 -70 -122 -112t-147 -42q-55 0 -116.5 25t-107.5 55t-103.5 55t-104.5 25q-54 0 -106.5 -32t-93.5 -87z" />
    <glyph glyph-name="asciitilde.case" horiz-adv-x="1325" 
d="M244 756q-24 -34 -47 -17q-14 11 -17.5 26t6.5 30q50 70 121.5 111.5t145.5 41.5q55 0 116 -25t106 -55t102 -55t104 -25q58 0 113 31.5t93 87.5q24 35 48 17q32 -25 10 -56q-50 -70 -121.5 -111.5t-146.5 -41.5q-55 0 -116.5 25t-107.5 54.5t-104 54.5t-105 25
q-56 0 -109 -31.5t-91 -86.5z" />
    <glyph glyph-name="logicalnot.case" horiz-adv-x="1155" 
d="M1030 868q43 0 43 -43v-434q0 -43 -41 -43t-41 43v404h-878q-43 0 -43 36q0 37 43 37h917z" />
    <glyph glyph-name="emptyset.case" horiz-adv-x="1245" 
d="M969 1210q129 -132 129 -348v-61q0 -217 -131 -349.5t-346 -132.5q-164 0 -285 82l-111 -143q-22 -32 -57 -8q-31 21 -6 57l112 146q-129 132 -129 348v61q0 217 131 349t345 132q167 0 286 -81l111 141q26 37 59 10q27 -24 4 -57zM227 807q0 -174 101 -289l528 678
q-98 70 -235 70q-177 0 -285.5 -113t-108.5 -297v-49zM1016 807v49q0 175 -101 287l-528 -678q100 -68 234 -68q178 0 286.5 112.5t108.5 297.5z" />
    <glyph glyph-name="infinity.case" horiz-adv-x="1830" 
d="M1298 1262q185 0 298.5 -111.5t113.5 -292.5v-49q0 -181 -113.5 -292t-298.5 -111q-141 0 -242 68t-141 188q-40 -120 -140 -188t-240 -68q-186 0 -300 111t-114 292v49q0 182 114 293t300 111q140 0 240 -68t140 -188q40 120 141 188t242 68zM872 815v37q0 148 -91 238
t-240 90q-151 0 -242.5 -90t-91.5 -238v-37q0 -148 91.5 -238t242.5 -90q149 0 240 90t91 238zM1624 815v37q0 148 -91.5 238t-240.5 90q-151 0 -242.5 -90t-91.5 -238v-37q0 -148 91.5 -238t242.5 -90q149 0 240.5 90t91.5 238z" />
    <glyph glyph-name="at.case" horiz-adv-x="1683" 
d="M897 1853q308 0 496 -168.5t188 -443.5v-500q0 -207 -127 -332.5t-334 -125.5q-206 0 -332 125.5t-126 332.5v142q0 207 123.5 332.5t324.5 125.5q130 0 230 -57t155 -160v111q0 241 -164.5 389t-433.5 148q-306 0 -492 -187t-186 -493v-555q0 -147 52 -269.5
t145.5 -208.5t227.5 -134t294 -48h139q43 0 43 -41t-43 -41h-139q-239 0 -422 91.5t-283 258.5t-100 385v568q0 340 210 547.5t554 207.5zM1495 748v129q0 173 -103 278t-272 105q-167 0 -269.5 -105t-102.5 -278v-129q0 -173 102.5 -278t269.5 -105q169 0 272 105t103 278z
" />
    <glyph glyph-name="bar.case" horiz-adv-x="483" 
d="M242 -154q-41 0 -41 43v1850q0 43 41 43t41 -43v-1850q0 -43 -41 -43z" />
    <glyph glyph-name="brokenbar.case" horiz-adv-x="483" 
d="M242 1034q-41 0 -41 43v662q0 43 41 43t41 -43v-662q0 -43 -41 -43zM242 -154q-41 0 -41 43v713q0 43 41 43t41 -43v-713q0 -43 -41 -43z" />
    <glyph glyph-name="uni0308.case" 
d="M-532 1278q-41 0 -41 43v111q0 43 41 43q40 0 40 -43v-111q0 -43 -40 -43zM-211 1278q-41 0 -41 43v111q0 43 41 43t41 -43v-111q0 -43 -41 -43z" />
    <glyph glyph-name="uni0307.case" 
d="M-205 1278q-43 0 -43 45v107q0 45 43 45t43 -45v-107q0 -45 -43 -45z" />
    <glyph glyph-name="gravecomb.case" 
d="M-129 1276q-9 -36 -53 -23l-461 148q-39 12 -27 53q13 40 56 27l456 -156q39 -12 29 -49z" />
    <glyph glyph-name="acutecomb.case" 
d="M-596 1253q-39 -12 -51 23q-12 34 29 49l454 156q42 16 55 -27q12 -42 -26 -53z" />
    <glyph glyph-name="uni030B.case" 
d="M-754 1255q-27 -30 -53 -8q-25 22 2 56l254 292q29 37 59 7t3 -60zM-446 1255q-28 -31 -54 -8q-25 22 2 56l256 292q13 17 30 19t30 -12q29 -29 2 -60z" />
    <glyph glyph-name="uni0302.case" 
d="M-739 1239q-25 25 0 51l268 252q12 12 27 12q14 0 26 -12l268 -252q27 -27 3 -51q-21 -21 -48 2l-247 215l-250 -215q-26 -23 -47 -2z" />
    <glyph glyph-name="uni030C.case" 
d="M-444 1208q-14 0 -27 13l-268 252q-25 25 0 51q21 21 47 -2l250 -215l247 215q27 23 48 2q24 -24 -3 -51l-268 -252q-13 -13 -26 -13z" />
    <glyph glyph-name="uni0306.case" 
d="M-444 1239q-128 0 -209.5 73t-100.5 201q-6 43 39 43q33 0 39 -38q15 -92 76.5 -144.5t155.5 -52.5t155 52.5t76 144.5q6 38 39 38q45 0 39 -43q-19 -128 -100 -201t-209 -73z" />
    <glyph glyph-name="uni030A.case" 
d="M-385 1233q-96 0 -154.5 50t-58.5 132v45q0 82 58.5 132t154.5 50t154.5 -50t58.5 -132v-45q0 -82 -58.5 -132t-154.5 -50zM-385 1303q63 0 101 32.5t38 85.5v33q0 53 -38 86t-101 33t-101 -33t-38 -86v-33q0 -53 38 -85.5t101 -32.5z" />
    <glyph glyph-name="tildecomb.case" 
d="M-735 1284q-28 -25 -51 -2q-28 28 0 55q33 33 79.5 52.5t90.5 19.5q50 0 132 -37t122 -37q64 0 112 45q28 25 51 2q27 -28 0 -55q-33 -33 -79.5 -52.5t-90.5 -19.5q-51 0 -132.5 37t-123.5 37q-59 0 -110 -45z" />
    <glyph glyph-name="uni0304.case" 
d="M-672 1298q-43 0 -43 37t43 37h549q43 0 43 -37t-43 -37h-549z" />
    <glyph glyph-name="uni0335.case" 
d="M-788 782q-43 0 -43 41t43 41h559q43 0 43 -41t-43 -41h-559z" />
    <glyph glyph-name="uni0328.eu" 
d="M-289 -420q-98 0 -158.5 43t-60.5 113v18q0 74 80.5 155.5t212.5 141.5l31 -51q-109 -59 -175.5 -126.5t-66.5 -121.5v-12q0 -38 40.5 -62t106.5 -24h54q41 0 41 -37t-62 -37h-43z" />
    <glyph glyph-name="uni0308.narrow" 
d="M-469 1442q-41 0 -41 43v110q0 43 41 43t41 -43v-110q0 -43 -41 -43zM-272 1442q-41 0 -41 43v110q0 43 41 43t41 -43v-110q0 -43 -41 -43z" />
    <glyph glyph-name="gravecomb.narrow" 
d="M-209 1337q-21 -28 -55 -4l-320 226q-33 23 -10 57q22 32 59 6l312 -231q17 -12 20.5 -27t-6.5 -27z" />
    <glyph glyph-name="acutecomb.narrow" 
d="M-514 1333q-33 -23 -53 4q-10 12 -6.5 27t20.5 27l309 231q38 26 60 -6q23 -33 -11 -57z" />
    <glyph glyph-name="uni0302.narrow" 
d="M-543 1329q-23 -29 -49 -6t-6 49l186 246q14 20 29 20t29 -20l186 -246q20 -26 -6 -49t-49 6l-160 197z" />
    <glyph glyph-name="uni0304.narrow" 
d="M-461 1462q-43 0 -43 37t43 37h275q43 0 43 -37t-43 -37h-275z" />
    <glyph glyph-name="uni0328.narrow" 
d="M-238 -430q-89 0 -143.5 45.5t-54.5 120.5v18q0 72 58 153.5t147 139.5l30 -51q-67 -57 -110 -124.5t-43 -119.5v-12q0 -40 34.5 -66.5t88.5 -29.5q47 -3 47 -37q0 -37 -54 -37z" />
    <glyph glyph-name="uni0308.case.narrow" 
d="M-469 1278q-41 0 -41 43v111q0 43 41 43t41 -43v-111q0 -43 -41 -43zM-272 1278q-41 0 -41 43v111q0 43 41 43t41 -43v-111q0 -43 -41 -43z" />
    <glyph glyph-name="gravecomb.case.narrow" 
d="M-174 1276q-9 -36 -53 -23l-355 113q-40 12 -26 55q13 41 55 25l350 -121q38 -14 29 -49z" />
    <glyph glyph-name="acutecomb.case.narrow" 
d="M-551 1253q-39 -12 -51 23q-12 34 29 49l348 121q42 16 55 -25q13 -43 -27 -55z" />
    <glyph glyph-name="uni0302.case.narrow" 
d="M-543 1247q-23 -29 -49 -6t-6 49l186 246q14 20 29 20t29 -20l186 -246q20 -26 -6 -49t-49 6l-160 197z" />
    <glyph glyph-name="uni0304.case.narrow" 
d="M-461 1298q-43 0 -43 37t43 37h275q43 0 43 -37t-43 -37h-275z" />
    <glyph glyph-name="uni20BF.tf" horiz-adv-x="1413" 
d="M973 838q135 -34 213 -136t78 -249v-43q0 -184 -114.5 -297t-299.5 -113h-51v-162q0 -43 -41 -43t-41 43v162h-185v-162q0 -43 -40 -43q-41 0 -41 43v162h-230q-43 0 -43 43v1542q0 43 43 43h230v162q0 43 41 43q40 0 40 -43v-162h185v162q0 43 41 43t41 -43v-162h10
q186 0 300 -111.5t114 -293.5v-25q0 -131 -66.5 -225.5t-183.5 -134.5zM264 1546v-674h539q151 0 242.5 90t91.5 236v19q0 148 -91.5 238.5t-242.5 90.5h-539zM1178 416v37q0 152 -92 245t-242 93h-580v-709h580q150 0 242 92t92 242z" />
    </font>
</defs>
</svg>
