<?xml version="1.0" standalone="no"?>
<!DOCTYPE svg PUBLIC "-//W3C//DTD SVG 1.1//EN" "http://www.w3.org/Graphics/SVG/1.1/DTD/svg11.dtd" >
<svg xmlns="http://www.w3.org/2000/svg" xmlns:xlink="http://www.w3.org/1999/xlink" version="1.1">
<metadata>
Created by FontForge 20170731 at Thu Dec  1 14:24:25 2022
 By Aleksey,,,
Copyright (c) 2018 by Alberto Romanos. All rights reserved.
</metadata>
<defs>
<font id="BwSeidoRoundDEMO-Black" horiz-adv-x="0" >
  <font-face 
    font-family="Bw Seido Round DEMO Black"
    font-weight="900"
    font-stretch="normal"
    units-per-em="2048"
    panose-1="0 0 10 0 0 0 0 0 0 0"
    ascent="1657"
    descent="-391"
    x-height="1167"
    cap-height="1649"
    bbox="-1686 -522 2499 2202"
    underline-thickness="102"
    underline-position="-307"
    unicode-range="U+000D-FB02"
  />
<missing-glyph horiz-adv-x="2609" 
d="M156 -20q-15 0 -25 10.5t-10 25.5q0 21 10 31l700 698h-663q-47 0 -47 39q0 16 14 33l696 701h-669q-41 0 -41 38v3q0 38 41 38h758q47 0 47 -41q0 -20 -17 -34l-698 -697h676q17 0 29 -12t12 -29v-669l694 692q13 16 35 16q37 0 37 -45v-663l696 692q13 16 33 16
q15 0 25 -12t10 -27q0 -18 -13 -28l-753 -762q-14 -14 -35 -14q-41 0 -41 47v663l-694 -696q-14 -14 -35 -14q-41 0 -41 47v663l-697 -696q-14 -14 -34 -14z" />
    <glyph glyph-name="fi" unicode="fi" horiz-adv-x="1400" 
d="M1124 1649q89 0 137 -43t48 -123v-2q0 -79 -47.5 -122.5t-137.5 -43.5q-89 0 -136.5 43.5t-47.5 122.5v2q0 80 47.5 123t136.5 43zM666 1341q-44 0 -71.5 -28t-27.5 -74v-72h123q71 0 109.5 -37t38.5 -106t-38.5 -106t-109.5 -37h-123v-713q0 -91 -47 -139.5t-137 -48.5
q-89 0 -136.5 48.5t-47.5 139.5v713h-37q-71 0 -109.5 37t-38.5 106t38.5 106t109.5 37h37v93q0 166 117 267t309 101h65q71 0 109.5 -37t38.5 -106t-38.5 -106.5t-109.5 -37.5h-24zM1124 1188q89 0 137 -49t48 -140v-831q0 -91 -47.5 -139.5t-137.5 -48.5
q-89 0 -136.5 48.5t-47.5 139.5v831q0 91 47.5 140t136.5 49z" />
    <glyph glyph-name="fl" unicode="fl" horiz-adv-x="1425" 
d="M1341 246q56 -45 56 -119q0 -68 -55 -107.5t-140 -39.5q-123 0 -197.5 83t-74.5 218v1179q0 91 47.5 140t136.5 49t136.5 -49t47.5 -140v-1122q0 -55 43 -92zM666 1341q-44 0 -71.5 -28t-27.5 -74v-72h123q71 0 109.5 -37t38.5 -106t-38.5 -106t-109.5 -37h-123v-713
q0 -91 -47 -139.5t-137 -48.5q-89 0 -136.5 48.5t-47.5 139.5v713h-37q-71 0 -109.5 37t-38.5 106t38.5 106t109.5 37h37v93q0 166 117 267t309 101h65q71 0 109.5 -37t38.5 -106t-38.5 -106.5t-109.5 -37.5h-24z" />
    <glyph glyph-name="f_f" unicode="ff" horiz-adv-x="1615" 
d="M1473 1167q71 0 109 -37t38 -106t-38 -106t-109 -37h-123v-713q0 -91 -47.5 -139.5t-137.5 -48.5q-89 0 -136.5 48.5t-47.5 139.5v713h-414v-713q0 -91 -47 -139.5t-137 -48.5q-89 0 -136.5 48.5t-47.5 139.5v713h-37q-71 0 -109.5 37t-38.5 106t38.5 106t109.5 37h37v93
q0 166 117 267t309 101h65q71 0 109.5 -37t38.5 -106t-38.5 -106.5t-109.5 -37.5h-24q-44 0 -71.5 -28t-27.5 -74v-72h414v93q0 166 117 267t309 101h66q71 0 109 -37t38 -106t-38.5 -106.5t-108.5 -37.5h-25q-44 0 -71 -28t-27 -74v-72h123z" />
    <glyph glyph-name="f_f_i" unicode="ffi" horiz-adv-x="2181" 
d="M1905 1649q89 0 136.5 -43t47.5 -123v-2q0 -79 -47 -122.5t-137 -43.5q-89 0 -137 43.5t-48 122.5v2q0 80 48 123t137 43zM1448 1341q-44 0 -71 -28t-27 -74v-72h123q71 0 109 -37t38 -106t-38 -106t-109 -37h-123v-713q0 -91 -47.5 -139.5t-137.5 -48.5
q-89 0 -136.5 48.5t-47.5 139.5v713h-414v-713q0 -91 -47 -139.5t-137 -48.5q-89 0 -136.5 48.5t-47.5 139.5v713h-37q-71 0 -109.5 37t-38.5 106t38.5 106t109.5 37h37v93q0 166 117 267t309 101h65q71 0 109.5 -37t38.5 -106t-38.5 -106.5t-109.5 -37.5h-24
q-44 0 -71.5 -28t-27.5 -74v-72h414v93q0 166 117 267t309 101h66q71 0 109 -37t38 -106t-38.5 -106.5t-108.5 -37.5h-25zM1905 1188q89 0 136.5 -49t47.5 -140v-831q0 -91 -47 -139.5t-137 -48.5q-89 0 -137 48.5t-48 139.5v831q0 91 48 140t137 49z" />
    <glyph glyph-name="f_f_l" unicode="ffl" horiz-adv-x="2205" 
d="M2122 246q55 -44 55 -119q0 -68 -55 -107.5t-140 -39.5q-123 0 -197.5 83t-74.5 218v1179q0 91 47.5 140t136.5 49t137 -49t48 -140v-1122q0 -55 43 -92zM1448 1341q-44 0 -71 -28t-27 -74v-72h123q71 0 109 -37t38 -106t-38 -106t-109 -37h-123v-713q0 -91 -47.5 -139.5
t-137.5 -48.5q-89 0 -136.5 48.5t-47.5 139.5v713h-414v-713q0 -91 -47 -139.5t-137 -48.5q-89 0 -136.5 48.5t-47.5 139.5v713h-37q-71 0 -109.5 37t-38.5 106t38.5 106t109.5 37h37v93q0 166 117 267t309 101h65q71 0 109.5 -37t38.5 -106t-38.5 -106.5t-109.5 -37.5h-24
q-44 0 -71.5 -28t-27.5 -74v-72h414v93q0 166 117 267t309 101h66q71 0 109 -37t38 -106t-38.5 -106.5t-108.5 -37.5h-25z" />
    <glyph glyph-name=".notdef" horiz-adv-x="2609" 
d="M156 -20q-15 0 -25 10.5t-10 25.5q0 21 10 31l700 698h-663q-47 0 -47 39q0 16 14 33l696 701h-669q-41 0 -41 38v3q0 38 41 38h758q47 0 47 -41q0 -20 -17 -34l-698 -697h676q17 0 29 -12t12 -29v-669l694 692q13 16 35 16q37 0 37 -45v-663l696 692q13 16 33 16
q15 0 25 -12t10 -27q0 -18 -13 -28l-753 -762q-14 -14 -35 -14q-41 0 -41 47v663l-694 -696q-14 -14 -35 -14q-41 0 -41 47v663l-697 -696q-14 -14 -34 -14z" />
    <glyph glyph-name=".null" 
 />
    <glyph glyph-name="nonmarkingreturn" horiz-adv-x="682" 
 />
    <glyph glyph-name="CR" unicode="&#xd;" horiz-adv-x="366" 
 />
    <glyph glyph-name="space" unicode=" " horiz-adv-x="366" 
 />
    <glyph glyph-name="exclam" unicode="!" horiz-adv-x="598" 
d="M299 475q-89 0 -136.5 49.5t-47.5 143.5v788q0 94 47.5 143.5t136.5 49.5t136.5 -49.5t47.5 -143.5v-788q0 -94 -47 -143.5t-137 -49.5zM299 -20q-94 0 -144.5 47.5t-50.5 136.5v2q0 90 50.5 137t144.5 47t144.5 -47t50.5 -137v-2q0 -89 -50 -136.5t-145 -47.5z" />
    <glyph glyph-name="quotedbl" unicode="&#x22;" horiz-adv-x="872" 
d="M236 1102q-66 0 -104 34.5t-44 100.5l-22 217q-9 93 34.5 144t135.5 51t135.5 -51t34.5 -144l-23 -217q-6 -66 -43.5 -100.5t-103.5 -34.5zM637 1102q-66 0 -104 34.5t-44 100.5l-22 217q-9 93 34.5 144t135.5 51t135.5 -51t34.5 -144l-23 -217q-6 -66 -43.5 -100.5
t-103.5 -34.5z" />
    <glyph glyph-name="numbersign" unicode="#" horiz-adv-x="1486" 
d="M1298 1047h-41l-45 -465h11q70 0 108.5 -37.5t38.5 -106.5t-38 -106t-109 -37h-39l-15 -137q-9 -88 -59.5 -133t-138.5 -45h-2q-86 0 -128.5 51t-33.5 145l12 119h-254l-14 -137q-9 -87 -60 -132.5t-139 -45.5h-2q-86 0 -128.5 51t-33.5 145l13 119h-13q-71 0 -109 37
t-38 106t38.5 106.5t108.5 37.5h41l45 465h-10q-71 0 -109 37t-38 106t38 106t109 37h39l14 137q18 179 199 179q88 0 130.5 -51.5t33.5 -145.5l-12 -119h254l14 137q18 179 199 179q87 0 129.5 -51.5t33.5 -145.5l-12 -119h12q71 0 109.5 -37t38.5 -106t-38.5 -106
t-109.5 -37zM848 582l45 465h-254l-45 -465h254z" />
    <glyph glyph-name="dollar" unicode="$" horiz-adv-x="1384" 
d="M453 1178q0 -51 30 -86t80.5 -54.5t116.5 -33.5t138.5 -28t145 -32t138.5 -51t116.5 -79.5t80.5 -123.5t30 -178v-27q0 -184 -123.5 -315t-335.5 -174v-19q0 -94 -46.5 -143t-137.5 -49q-89 0 -136.5 49t-47.5 143v17q-269 44 -373 219q-22 43 -24 87t27.5 87.5
t84.5 69.5q109 52 213 -39q137 -121 268 -121q114 0 183 48t69 126v6q0 49 -29.5 82.5t-79.5 52.5t-115 32.5t-137 28t-144 32.5t-137 52t-115 82t-79.5 126t-29.5 180v26q0 168 113 291t305 166v23q0 94 47.5 143t136.5 49t136.5 -49t47.5 -143v-21q233 -49 357 -196
q50 -58 24.5 -134.5t-108.5 -111.5q-120 -51 -211 35q-113 108 -248 108q-104 0 -167.5 -40.5t-63.5 -106.5v-6z" />
    <glyph glyph-name="percent" unicode="%" horiz-adv-x="1687" 
d="M391 805q-155 0 -250.5 82t-95.5 217v237q0 134 95.5 216.5t250.5 82.5q158 0 253 -82.5t95 -216.5v-237q0 -135 -95 -217t-253 -82zM567 90q-31 -53 -75 -66t-97 17q-106 62 -43 172l768 1327q31 53 75 65t97 -18q106 -62 43 -172zM391 1036q38 0 60 22t22 58v211
q0 37 -22 59.5t-60 22.5q-37 0 -59.5 -22.5t-22.5 -59.5v-211q0 -35 22.5 -57.5t59.5 -22.5zM1294 -10q-155 0 -250.5 82t-95.5 217v237q0 134 95.5 216.5t250.5 82.5q158 0 253 -82.5t95 -216.5v-237q0 -135 -95 -217t-253 -82zM1294 221q38 0 60 22t22 58v211
q0 37 -22 59.5t-60 22.5q-37 0 -59.5 -22.5t-22.5 -59.5v-211q0 -35 22.5 -57.5t59.5 -22.5z" />
    <glyph glyph-name="ampersand" unicode="&#x26;" horiz-adv-x="1484" 
d="M1311 326q53 -8 90 -49t37 -115q0 -80 -48 -126t-135 -46q-182 0 -276 153q-135 -163 -385 -163q-239 0 -386 129.5t-147 341.5v49q0 111 61.5 196t172.5 135q-98 48 -152.5 127t-54.5 179v57q0 204 146 329.5t384 125.5q144 0 273 -54t207 -168q18 -27 20.5 -60.5
t-10 -65.5t-43 -60.5t-74.5 -44.5q-48 -20 -89 -14t-65 20t-40 33q-69 86 -168 86q-70 0 -113 -40.5t-43 -106.5v-37q0 -66 45 -106t117 -40h635q82 0 125 -42t43 -122q0 -79 -43 -121t-125 -42h-82v-193q0 -45 9.5 -73.5t30.5 -42.5t36.5 -19t46.5 -10zM625 307
q80 0 129 42.5t49 111.5v203h-185q-77 0 -124.5 -45.5t-47.5 -118.5v-29q0 -73 49.5 -118.5t129.5 -45.5z" />
    <glyph glyph-name="quotesingle" unicode="'" horiz-adv-x="471" 
d="M236 1102q-66 0 -104 34.5t-44 100.5l-22 217q-9 93 34.5 144t135.5 51t135.5 -51t34.5 -144l-23 -217q-6 -66 -43.5 -100.5t-103.5 -34.5z" />
    <glyph glyph-name="parenleft" unicode="(" horiz-adv-x="780" 
d="M592 -522q-227 0 -366.5 115t-139.5 303v1458q0 188 139.5 303t366.5 115q77 0 119.5 -43.5t42.5 -124.5q0 -77 -42 -118.5t-120 -41.5q-54 0 -87.5 -33.5t-33.5 -87.5v-1397q0 -54 33.5 -87.5t87.5 -33.5q78 0 120 -40.5t42 -118.5q0 -82 -41.5 -125t-120.5 -43z" />
    <glyph glyph-name="parenright" unicode=")" horiz-adv-x="780" 
d="M188 -522q-79 0 -120 43t-41 125q0 78 41.5 118.5t119.5 40.5q54 0 87.5 33.5t33.5 87.5v1397q0 54 -33.5 87.5t-87.5 33.5q-78 0 -119.5 41.5t-41.5 118.5q0 81 42 124.5t119 43.5q227 0 366.5 -115t139.5 -303v-1458q0 -188 -139.5 -303t-366.5 -115z" />
    <glyph glyph-name="asterisk" unicode="*" horiz-adv-x="778" 
d="M700 1405q30 -102 -73 -129l-84 -23l57 -67q34 -40 29.5 -78.5t-45.5 -69.5t-80.5 -23t-67.5 52l-47 74l-47 -74q-28 -44 -66 -51.5t-79 22.5q-42 30 -47 68t28 80l58 67l-84 23q-51 13 -70 47t-4 82t50 63.5t85 -4.5l82 -32l-6 86q-3 54 23 82t77 28t77 -28t23 -82
l-6 -86l82 32q50 20 85.5 4t49.5 -63z" />
    <glyph glyph-name="plus" unicode="+" horiz-adv-x="1155" 
d="M956 735q71 0 109.5 -37t38.5 -106t-38.5 -106t-109.5 -37h-194v-162q0 -91 -47 -140t-137 -49q-89 0 -137 49t-48 140v162h-194q-71 0 -109.5 37t-38.5 106t38.5 106t109.5 37h194v162q0 91 48 139.5t137 48.5t136.5 -48.5t47.5 -139.5v-162h194z" />
    <glyph glyph-name="comma" unicode="," horiz-adv-x="530" 
d="M133 -332q-126 26 -108 162l49 344q12 92 65.5 132.5t141.5 21.5q91 -19 123.5 -78t3.5 -148l-111 -333q-22 -64 -61.5 -89t-102.5 -12z" />
    <glyph glyph-name="hyphen" unicode="-" horiz-adv-x="786" 
d="M236 449q-71 0 -109.5 37t-38.5 106t38.5 106t109.5 37h315q71 0 109 -37t38 -106t-38 -106t-109 -37h-315z" />
    <glyph glyph-name="period" unicode="." horiz-adv-x="520" 
d="M260 -20q-94 0 -144 47.5t-50 136.5v2q0 90 50 137t144 47t144.5 -47t50.5 -137v-2q0 -89 -50 -136.5t-145 -47.5z" />
    <glyph glyph-name="slash" unicode="/" horiz-adv-x="946" 
d="M213 -432q-84 22 -116.5 80.5t-10.5 146.5l432 1708q23 89 80 124t141 13q83 -22 115 -80.5t10 -146.5l-432 -1706q-47 -183 -219 -139z" />
    <glyph glyph-name="zero" unicode="0" horiz-adv-x="1454" 
d="M727 -20q-290 0 -467.5 158.5t-177.5 418.5v514q0 260 177.5 419t467.5 159q291 0 468 -159t177 -419v-514q0 -260 -177 -418.5t-468 -158.5zM727 317q118 0 189 72t71 189v473q0 117 -71 188.5t-189 71.5q-117 0 -188.5 -71.5t-71.5 -188.5v-473q0 -117 71.5 -189
t188.5 -72z" />
    <glyph glyph-name="one" unicode="1" horiz-adv-x="1056" 
d="M684 1638q122 0 186 -64t64 -185v-1217q0 -94 -49.5 -143t-143.5 -49t-143 49t-49 143v1032l-234 -200q-127 -109 -233 18q-105 124 22 233l355 308q49 41 97 58t112 17h16z" />
    <glyph glyph-name="two" unicode="2" horiz-adv-x="1355" 
d="M1118 326q82 0 125 -41.5t43 -120.5q0 -80 -43 -122t-125 -42h-848q-100 0 -154.5 49t-54.5 139v2q0 75 30.5 130.5t96.5 101.5q197 137 320 230t219 179.5t137 151.5t41 123v6q0 94 -63 151.5t-166 57.5q-61 0 -119 -21.5t-121 -89.5q-35 -38 -97.5 -49t-137.5 17
q-76 33 -96 93.5t16 119.5q73 131 224 194.5t339 63.5q270 0 434 -139t164 -367v-29q0 -84 -30.5 -164.5t-83 -153t-141.5 -153t-187 -154t-238 -167.5z" />
    <glyph glyph-name="three" unicode="3" horiz-adv-x="1351" 
d="M1042 831q116 -50 179 -135t63 -196v-49q0 -212 -168.5 -341.5t-445.5 -129.5q-188 0 -335.5 61.5t-230.5 189.5q-18 28 -20.5 60.5t10 64t42.5 59.5t75 44q123 45 215 -43q65 -63 118.5 -86t114.5 -23q107 0 173.5 45.5t66.5 118.5v29q0 72 -51 113.5t-141 50.5
q-93 9 -140 48t-47 115t43 115.5t127 48.5q82 9 132 49t50 97v37q0 67 -60 107t-157 40q-56 0 -105.5 -18.5t-111.5 -69.5q-24 -20 -54.5 -32t-75 -15t-91.5 16q-57 21 -85.5 62t-27 84t26.5 79q79 111 220 166.5t315 55.5q266 0 428.5 -125t162.5 -330v-57
q0 -100 -56.5 -179t-158.5 -127z" />
    <glyph glyph-name="four" unicode="4" horiz-adv-x="1368" 
d="M1147 602q82 0 125 -42t43 -122t-43 -122t-125 -42h-8v-102q0 -94 -49.5 -143t-141.5 -49t-139.5 49.5t-46.5 144.5l2 100h-533q-97 0 -148.5 54t-51.5 155v6q0 61 14.5 107.5t48.5 99.5l520 801q41 63 111 102t143 39h21q122 0 186 -64t64 -185v-787h8zM397 602h371
l10 592z" />
    <glyph glyph-name="five" unicode="5" horiz-adv-x="1320" 
d="M735 1024q242 0 389.5 -138.5t147.5 -363.5v-51q0 -221 -169 -356t-446 -135q-188 0 -335 61.5t-230 189.5q-18 28 -20.5 60.5t10 64t42.5 59.5t75 44q54 22 99.5 15t71.5 -21.5t44 -36.5q55 -66 110 -87.5t123 -21.5q107 0 173.5 51t66.5 134v20q0 83 -64 133.5
t-170 50.5h-377q-85 0 -126 46t-31 132l78 599q21 155 178 155h659q82 0 125 -42t43 -122t-43 -122t-125 -42h-481l-35 -276h217z" />
    <glyph glyph-name="six" unicode="6" horiz-adv-x="1337" 
d="M752 1014q253 0 407 -134t154 -354v-49q0 -224 -176.5 -360.5t-466.5 -136.5t-466.5 136.5t-176.5 360.5v49q0 79 34.5 170t102.5 222l315 616q43 84 111 107t151 -19q83 -41 102.5 -108.5t-26.5 -153.5l-196 -363q77 17 131 17zM918 492v20q0 82 -67.5 131t-180.5 49
t-180.5 -49t-67.5 -131v-20q0 -82 68 -131.5t180 -49.5t180 49.5t68 131.5z" />
    <glyph glyph-name="seven" unicode="7" horiz-adv-x="1241" 
d="M981 1628q107 0 165 -58t58 -165v-8q0 -109 -45 -207l-497 -1090q-40 -86 -106.5 -111t-154.5 15q-86 38 -111 105t15 155l483 1043l-595 -4q-82 0 -125 41t-43 120q0 80 43 122t125 42h788z" />
    <glyph glyph-name="eight" unicode="8" horiz-adv-x="1409" 
d="M1106 834q117 -56 179.5 -143.5t62.5 -198.5v-23q0 -221 -176.5 -355t-466.5 -134q-291 0 -467.5 134t-176.5 355v23q0 111 62.5 198.5t179.5 143.5q-201 114 -201 315v27q0 212 166 342.5t437 130.5t436.5 -130t165.5 -343v-27q0 -201 -201 -315zM498 1165v-26
q0 -69 56.5 -111.5t150.5 -42.5q93 0 149.5 42.5t56.5 111.5v26q0 68 -56.5 110t-149.5 42t-150 -42t-57 -110zM952 479v23q0 75 -67.5 121.5t-179.5 46.5t-180 -46.5t-68 -121.5v-23q0 -75 68 -121.5t180 -46.5t179.5 46.5t67.5 121.5z" />
    <glyph glyph-name="nine" unicode="9" horiz-adv-x="1335" 
d="M668 1649q290 0 466.5 -137t176.5 -361v-49q0 -78 -34.5 -168.5t-102.5 -222.5l-316 -617q-43 -84 -111 -107t-151 19q-83 41 -102.5 108.5t26.5 153.5l197 363q-77 -17 -131 -17q-253 0 -407 134t-154 354v49q0 224 176.5 361t466.5 137zM915 1116v21q0 82 -67.5 131
t-179.5 49q-113 0 -180.5 -49t-67.5 -131v-21q0 -82 67.5 -131t180.5 -49q112 0 179.5 49t67.5 131z" />
    <glyph glyph-name="colon" unicode=":" horiz-adv-x="544" 
d="M272 817q-94 0 -144 47.5t-50 136.5v3q0 90 50 137t144 47t144.5 -47t50.5 -137v-3q0 -89 -50 -136.5t-145 -47.5zM272 -20q-94 0 -144 47.5t-50 136.5v2q0 90 50 137t144 47t144.5 -47t50.5 -137v-2q0 -89 -50 -136.5t-145 -47.5z" />
    <glyph glyph-name="semicolon" unicode=";" horiz-adv-x="593" 
d="M295 817q-94 0 -144.5 47.5t-50.5 136.5v3q0 90 50.5 137t144.5 47t144 -47t50 -137v-3q0 -90 -49.5 -137t-144.5 -47zM168 -332q-127 27 -109 162l50 344q12 92 65 132.5t141 21.5q91 -19 123.5 -78t3.5 -148l-110 -333q-22 -64 -61.5 -89t-102.5 -12z" />
    <glyph glyph-name="less" unicode="&#x3c;" horiz-adv-x="1155" 
d="M1012 397q44 -15 72 -53.5t28 -87.5q0 -80 -66 -125t-141 -16l-737 293q-55 22 -90 72t-35 112t35 112t90 72l737 293q75 29 141 -16t66 -125q0 -49 -28 -88t-72 -54l-490 -172l-65 -22q7 -2 29 -10.5t36 -12.5z" />
    <glyph glyph-name="equal" unicode="=" horiz-adv-x="1155" 
d="M199 637q-71 0 -109.5 37t-38.5 106t38.5 106.5t109.5 37.5h757q71 0 109.5 -37.5t38.5 -106.5t-38.5 -106t-109.5 -37h-757zM199 268q-71 0 -109.5 37.5t-38.5 106.5t38.5 106t109.5 37h757q71 0 109.5 -37t38.5 -106t-38.5 -106.5t-109.5 -37.5h-757z" />
    <glyph glyph-name="greater" unicode="&#x3e;" horiz-adv-x="1155" 
d="M987 776q55 -22 90 -72t35 -112t-35 -112t-90 -72l-737 -293q-75 -29 -141 16t-66 125q0 49 28 87.5t72 53.5l490 172l65 23q-4 2 -27 9.5t-38 12.5l-490 172q-44 15 -72 54t-28 88q0 80 66 125t141 16z" />
    <glyph glyph-name="question" unicode="?" horiz-adv-x="1126" 
d="M571 1628q229 0 369.5 -124t140.5 -328v-39q0 -195 -140.5 -313.5t-369.5 -118.5h-22v-37q0 -94 -47 -143.5t-137 -49.5q-89 0 -137 49.5t-48 143.5v155q0 82 43 125t125 43h203q65 0 105 40t40 106v18q0 66 -40 105.5t-105 39.5h-326q-82 0 -125 42t-43 122t43 122
t125 42h346zM365 350q94 0 144 -47t50 -137v-2q0 -90 -49.5 -137t-144.5 -47q-94 0 -144.5 47.5t-50.5 136.5v2q0 90 50.5 137t144.5 47z" />
    <glyph glyph-name="at" unicode="@" horiz-adv-x="1804" 
d="M963 1649q347 0 559.5 -162.5t212.5 -427.5v-510q0 -217 -150.5 -349t-396.5 -132q-249 0 -399 126.5t-150 335.5v134q0 209 120 335.5t318 126.5q174 0 289 -106v18q0 132 -110.5 212.5t-292.5 80.5q-241 0 -388 -153.5t-147 -405.5v-326q0 -261 158 -420t418 -159h47
q71 0 109 -37t38 -106t-38.5 -106.5t-108.5 -37.5h-88q-201 0 -370 61t-286 171t-182.5 268t-65.5 346v367q0 254 112 448.5t317.5 301t474.5 106.5zM1366 569v56q0 83 -49 133.5t-129 50.5q-82 0 -131 -50.5t-49 -133.5v-56q0 -83 49 -133.5t131 -50.5q80 0 129 50.5
t49 133.5z" />
    <glyph glyph-name="A" unicode="A" horiz-adv-x="1533" 
d="M1470 227q28 -91 -4 -151.5t-120 -85.5q-89 -25 -149.5 8.5t-86.5 122.5l-45 153h-596l-45 -153q-26 -89 -86.5 -122.5t-149.5 -8.5q-88 25 -120.5 86t-4.5 151l367 1188q33 107 114.5 165t203.5 58h38q122 0 203.5 -58t114.5 -165zM567 602h400l-199 678z" />
    <glyph glyph-name="B" unicode="B" horiz-adv-x="1511" 
d="M1233 836q109 -46 170 -131t61 -195v-49q0 -207 -140.5 -334t-369.5 -127h-671q-82 0 -125 43t-43 125v1292q0 82 43 125t125 43h630q230 0 370 -124t140 -328v-39q0 -197 -190 -301zM500 1300v-309h393q66 0 105.5 40t39.5 106v18q0 66 -39.5 105.5t-105.5 39.5h-393z
M1079 481v29q0 69 -40 111.5t-105 42.5h-434v-336h434q65 0 105 42t40 111z" />
    <glyph glyph-name="C" unicode="C" horiz-adv-x="1431" 
d="M784 -20q-324 0 -521 179t-197 472v366q0 293 197 472.5t519 179.5q174 0 324 -62t229 -188q20 -31 21 -76.5t-25.5 -92t-81.5 -67.5q-50 -22 -96.5 -17t-76 19t-52.5 35q-62 60 -126.5 85.5t-115.5 25.5q-149 0 -240 -91.5t-91 -242.5v-326q0 -151 91 -242.5t242 -91.5
q143 0 252 117q88 95 219 41q42 -17 70 -45t38 -57.5t10 -55.5t-9 -45q-70 -146 -226.5 -219t-353.5 -73z" />
    <glyph glyph-name="D" unicode="D" horiz-adv-x="1521" 
d="M283 0q-82 0 -125 43t-43 125v1292q0 82 43 125t125 43h487q309 0 497.5 -176t188.5 -465v-346q0 -289 -188.5 -465t-497.5 -176h-487zM500 328h250q145 0 233 91.5t88 242.5v305q0 151 -88 242t-233 91h-250v-972z" />
    <glyph glyph-name="E" unicode="E" horiz-adv-x="1355" 
d="M1137 328q82 0 125 -42t43 -122t-43 -122t-125 -42h-854q-82 0 -125 43t-43 125v1292q0 82 43 125t125 43h833q82 0 125 -42t43 -122t-43 -122t-125 -42h-616v-309h575q82 0 125 -42t43 -122q0 -79 -43 -121t-125 -42h-575v-336h637z" />
    <glyph glyph-name="F" unicode="F" horiz-adv-x="1325" 
d="M1075 991q82 0 125 -42t43 -122q0 -79 -43 -121t-125 -42h-575v-492q0 -94 -49.5 -143t-143.5 -49t-143 49t-49 143v1288q0 82 43 125t125 43h833q82 0 125 -42t43 -122t-43 -122t-125 -42h-616v-309h575z" />
    <glyph glyph-name="G" unicode="G" horiz-adv-x="1529" 
d="M1305 991q82 0 125 -43t43 -125v-202q0 -191 -87.5 -336.5t-247 -225t-368.5 -79.5q-317 0 -510.5 179t-193.5 472v366q0 293 197 472.5t519 179.5q174 0 324 -62t229 -188q20 -31 21 -76.5t-25.5 -92t-81.5 -67.5q-50 -22 -96.5 -17t-76 19t-52.5 35q-62 60 -126.5 85.5
t-115.5 25.5q-149 0 -240 -91.5t-91 -242.5v-326q0 -150 88 -242t231 -92q151 0 234 87.5t83 236.5v23h-180q-82 0 -125 42t-43 121q0 80 43 122t125 42h398z" />
    <glyph glyph-name="H" unicode="H" horiz-adv-x="1525" 
d="M1219 1649q94 0 143 -49.5t49 -143.5v-1284q0 -94 -49 -143t-143 -49t-143.5 49t-49.5 143v492h-526v-492q0 -94 -49.5 -143t-143.5 -49t-143 49t-49 143v1284q0 94 49 143.5t143 49.5t143.5 -49.5t49.5 -143.5v-465h526v465q0 94 49.5 143.5t143.5 49.5z" />
    <glyph glyph-name="I" unicode="I" horiz-adv-x="614" 
d="M307 -20q-94 0 -143 48t-49 140v1288q0 94 49 143.5t143 49.5t143.5 -49.5t49.5 -143.5v-1288q0 -92 -49.5 -140t-143.5 -48z" />
    <glyph glyph-name="J" unicode="J" horiz-adv-x="1312" 
d="M598 -20q-175 0 -315.5 71t-212.5 215q-14 28 -14 64t12.5 71.5t41.5 67t70 49.5q30 13 57.5 14.5t47.5 -5t39 -20.5t31 -27.5t24 -30.5q54 -76 106 -104t113 -28q101 0 163 64t62 170v905q0 94 49.5 143.5t143.5 49.5t143 -49.5t49 -143.5v-926q0 -249 -167.5 -399.5
t-442.5 -150.5z" />
    <glyph glyph-name="K" unicode="K" horiz-adv-x="1460" 
d="M1386 244q36 -85 10 -148.5t-110 -97.5q-85 -34 -148 -7.5t-98 111.5l-284 693l-256 -281v-342q0 -94 -49.5 -143t-143.5 -49t-143 49t-49 143v1284q0 94 49 143.5t143 49.5t143.5 -49.5t49.5 -143.5v-504l557 621q123 138 256 26q66 -55 67 -120.5t-61 -132.5l-272 -304
z" />
    <glyph glyph-name="L" unicode="L" horiz-adv-x="1224" 
d="M1034 328q82 0 125 -42t43 -122t-43 -122t-125 -42h-751q-82 0 -125 43t-43 125v1288q0 94 49 143.5t143 49.5t143.5 -49.5t49.5 -143.5v-1128h534z" />
    <glyph glyph-name="M" unicode="M" horiz-adv-x="1910" 
d="M1546 1638q122 0 186 -64t64 -185v-1217q0 -94 -48 -143t-140 -49q-93 0 -141.5 49.5t-47.5 144.5l13 887l-326 -553q-66 -115 -150 -115q-85 0 -151 115l-326 553l13 -887q1 -95 -46.5 -144.5t-140.5 -49.5q-92 0 -141 49t-49 143v1217q0 121 64 185t186 64h20
q151 0 238 -149l333 -586l332 586q84 149 238 149h20z" />
    <glyph glyph-name="N" unicode="N" horiz-adv-x="1576" 
d="M1274 1649q91 0 139.5 -49.5t48.5 -143.5v-1216q0 -122 -64 -186t-186 -64h-26q-157 0 -219 119l-490 931l15 -866q1 -95 -46.5 -144.5t-140.5 -49.5q-92 0 -141 49t-49 143v1217q0 121 64 185t186 64h26q157 0 219 -118l490 -932l-15 866q-1 95 47.5 145t141.5 50z" />
    <glyph glyph-name="O" unicode="O" horiz-adv-x="1568" 
d="M784 -20q-324 0 -521 179t-197 472v366q0 293 197 472.5t521 179.5t521.5 -179.5t197.5 -472.5v-366q0 -293 -197.5 -472t-521.5 -179zM784 317q151 0 242.5 91.5t91.5 242.5v326q0 151 -91.5 242.5t-242.5 91.5t-242 -91.5t-91 -242.5v-326q0 -151 91 -242.5t242 -91.5z
" />
    <glyph glyph-name="P" unicode="P" horiz-adv-x="1482" 
d="M934 1628q229 0 369.5 -124t140.5 -328v-60q0 -204 -140.5 -328t-369.5 -124h-434v-492q0 -94 -49.5 -143t-143.5 -49t-143 49t-49 143v1288q0 82 43 125t125 43h651zM1059 1137v18q0 66 -40.5 105.5t-105.5 39.5h-413v-309h413q65 0 105.5 40t40.5 106z" />
    <glyph glyph-name="Q" unicode="Q" horiz-adv-x="1574" 
d="M1503 997v-366q0 -244 -139 -412l59 -61q132 -136 19 -252q-56 -55 -121 -49.5t-131 71.5l-100 103q-139 -51 -306 -51q-324 0 -521 179t-197 472v366q0 293 197 472.5t521 179.5t521.5 -179.5t197.5 -472.5zM1051 537l36 -37q31 67 31 151v326q0 151 -91.5 242.5
t-242.5 91.5t-242 -91.5t-91 -242.5v-326q0 -151 91 -242.5t242 -91.5h23q-55 63 -57 126.5t51 115.5q56 55 120 49.5t130 -71.5z" />
    <glyph glyph-name="R" unicode="R" horiz-adv-x="1495" 
d="M1444 1116q0 -141 -69 -245.5t-193 -159.5l200 -467q36 -83 10 -147.5t-110 -98.5q-85 -34 -148 -7.5t-98 111.5l-231 562h-305v-492q0 -94 -49.5 -143t-143.5 -49t-143 49t-49 143v1288q0 82 43 125t125 43h651q230 0 370 -124t140 -328v-60zM500 1300v-309h413
q65 0 105.5 40t40.5 106v18q0 66 -40.5 105.5t-105.5 39.5h-413z" />
    <glyph glyph-name="S" unicode="S" horiz-adv-x="1409" 
d="M696 -20q-460 0 -598 233q-22 43 -24 87t27.5 87.5t84.5 69.5q109 52 213 -39q137 -121 308 -121q127 0 205.5 48t78.5 126v6q0 49 -32 82.5t-86 52.5t-123.5 32t-147 26.5t-155 31t-147 49.5t-123.5 78t-86 121t-32 174v27q0 224 176.5 361t466.5 137q171 0 317 -54.5
t236 -160.5q50 -58 24.5 -134.5t-108.5 -111.5q-120 -51 -210 35q-113 108 -269 108q-120 0 -192 -40.5t-72 -106.5v-6q0 -46 26.5 -79.5t71.5 -52t105.5 -34t128 -24.5t139.5 -24.5t139.5 -33t128 -51t105.5 -77.5t71.5 -113t26.5 -157v-26q0 -236 -186 -381t-488 -145z
" />
    <glyph glyph-name="T" unicode="T" horiz-adv-x="1366" 
d="M1180 1628q82 0 125 -42t43 -122t-43 -122t-125 -42h-306v-1128q0 -94 -49 -143t-143 -49t-143.5 49t-49.5 143v1128h-303q-82 0 -125 42t-43 122t43 122t125 42h994z" />
    <glyph glyph-name="U" unicode="U" horiz-adv-x="1521" 
d="M762 -20q-297 0 -478.5 162t-181.5 429v885q0 94 49.5 143.5t143.5 49.5t143 -49.5t49 -143.5v-864q0 -124 76 -199.5t199 -75.5t197.5 75.5t74.5 199.5v864q0 94 49.5 143.5t143.5 49.5t143 -49.5t49 -143.5v-885q0 -267 -180.5 -429t-476.5 -162z" />
    <glyph glyph-name="V" unicode="V" horiz-adv-x="1501" 
d="M1309 1636q181 -57 125 -239l-351 -1137q-84 -270 -315 -270h-35q-113 0 -193.5 68t-121.5 202l-352 1141q-56 178 124 235q88 28 148 -5t86 -122l326 -1138l325 1132q26 92 86 126.5t148 6.5z" />
    <glyph glyph-name="W" unicode="W" horiz-adv-x="2160" 
d="M1966 1642q89 -17 126.5 -73.5t18.5 -147.5l-243 -1196q-23 -109 -93.5 -172t-189.5 -63h-43q-120 0 -189.5 63t-90.5 172l-181 955l-182 -955q-21 -109 -91 -172t-190 -63h-40q-119 0 -189.5 63t-93.5 172l-246 1196q-19 90 19.5 147t128.5 74t146 -21t71 -130
l192 -1120l176 1042q19 112 86 168.5t191 56.5h45q123 0 189 -56t85 -169l178 -1042l191 1120q15 91 72 129.5t147 21.5z" />
    <glyph glyph-name="X" unicode="X" horiz-adv-x="1433" 
d="M1335 268q52 -75 36 -142.5t-93 -113.5q-152 -91 -256 70l-305 487l-305 -487q-48 -78 -112.5 -96.5t-141.5 26.5q-78 47 -94.5 113t34.5 143l381 559l-366 533q-52 77 -37 143.5t92 112.5q153 92 256 -70l293 -463l293 463q102 161 254 70q77 -46 93 -113.5t-36 -142.5
l-367 -533z" />
    <glyph glyph-name="Y" unicode="Y" horiz-adv-x="1464" 
d="M1296 1620q80 -43 100 -108.5t-26 -145.5l-444 -743v-451q0 -94 -49.5 -143t-143.5 -49t-143 49t-49 143v446l-447 748q-46 80 -26 145.5t100 108.5q159 85 254 -80l311 -541l309 541q95 165 254 80z" />
    <glyph glyph-name="Z" unicode="Z" horiz-adv-x="1396" 
d="M1190 326q82 0 125 -41.5t43 -120.5q0 -80 -43 -122t-125 -42h-940q-101 0 -155 54t-54 155v12q0 62 18 110.5t60 98.5l762 877l-652 -4q-82 0 -125 41t-43 120q0 80 43 122t125 42h899q101 0 155 -54t54 -155v-12q0 -63 -18 -111t-59 -98l-762 -876z" />
    <glyph glyph-name="bracketleft" unicode="[" horiz-adv-x="811" 
d="M616 -195q82 0 125 -42t43 -121q0 -80 -43 -122t-125 -42h-333q-82 0 -125 43t-43 125v1958q0 82 43 125t125 43h333q82 0 125 -42t43 -122t-43 -122t-125 -42h-116v-1639h116z" />
    <glyph glyph-name="backslash" unicode="\" horiz-adv-x="946" 
d="M733 -432q-172 -44 -219 139l-432 1706q-22 88 10 146.5t115 80.5q84 22 141 -13t80 -124l432 -1708q22 -88 -10.5 -146.5t-116.5 -80.5z" />
    <glyph glyph-name="bracketright" unicode="]" horiz-adv-x="811" 
d="M528 1772q82 0 125 -43t43 -125v-1958q0 -82 -43 -125t-125 -43h-333q-82 0 -125 42t-43 122q0 79 43 121t125 42h116v1639h-116q-82 0 -125 42t-43 122t43 122t125 42h333z" />
    <glyph glyph-name="asciicircum" unicode="^" horiz-adv-x="1155" 
d="M1030 1055q35 -85 0 -147t-125 -87q-87 -25 -146.5 10t-84.5 125l-96 340l-95 -340q-25 -90 -83.5 -125t-145.5 -10q-89 25 -124.5 88t-2.5 146l123 315q25 66 50 111.5t62 86.5t87.5 61t115.5 20h25q65 0 115 -20.5t86.5 -62t60.5 -85.5t51 -111z" />
    <glyph glyph-name="underscore" unicode="_" horiz-adv-x="1110" 
d="M170 -328q-62 0 -94.5 31.5t-32.5 91.5t32.5 91.5t94.5 31.5h770q62 0 94.5 -31.5t32.5 -91.5t-32.5 -91.5t-94.5 -31.5h-770z" />
    <glyph glyph-name="grave" unicode="`" horiz-adv-x="743" 
d="M651 1350q-35 -87 -170 -43l-295 94q-69 22 -93 67t-1 107q24 61 71.5 76.5t115.5 -17.5l278 -137q129 -63 94 -147z" />
    <glyph glyph-name="a" unicode="a" horiz-adv-x="1189" 
d="M575 1188q238 0 384.5 -110.5t146.5 -291.5v-618q0 -91 -42.5 -139.5t-123.5 -48.5q-144 0 -172 143q-127 -143 -348 -143q-169 0 -273 95t-104 251v67q0 145 109.5 233.5t289.5 88.5h295v47q0 67 -45 108t-117 41q-81 0 -165 -63q-16 -12 -28.5 -19.5t-33 -15.5
t-46 -7.5t-54.5 9.5q-47 15 -79 41t-44.5 55t-11.5 58.5t16 52.5q51 81 176 123.5t270 42.5zM537 266q89 0 144.5 48t55.5 126v29h-207q-52 0 -85 -25t-33 -65v-8q0 -47 34 -76t91 -29z" />
    <glyph glyph-name="b" unicode="b" horiz-adv-x="1282" 
d="M770 1188q207 0 333 -132.5t126 -350.5v-242q0 -218 -126 -350.5t-333 -132.5q-216 0 -342 151q-22 -151 -170 -151q-81 0 -123.5 48.5t-42.5 139.5v1292q0 91 47.5 140t136.5 49t137 -49t48 -140v-389q123 117 309 117zM860 502v164q0 92 -55 148t-146 56
q-89 0 -143.5 -56t-54.5 -148v-164q0 -92 54.5 -148.5t143.5 -56.5q91 0 146 56.5t55 148.5z" />
    <glyph glyph-name="c" unicode="c" horiz-adv-x="1132" 
d="M621 -20q-258 0 -416 141t-158 373v180q0 232 157 373t414 141q327 0 422 -193q10 -20 11.5 -48t-6 -57.5t-32 -56t-63.5 -38.5q-122 -39 -192 22q-59 53 -140 53q-91 0 -146.5 -56t-55.5 -148v-164q0 -92 56.5 -148.5t148.5 -56.5q86 0 151 63q70 66 182 29
q50 -16 78.5 -51t31.5 -71t-3 -70q-15 -57 -60 -101t-108 -68t-131.5 -36t-140.5 -12z" />
    <glyph glyph-name="d" unicode="d" horiz-adv-x="1282" 
d="M1006 1649q89 0 136.5 -49t47.5 -140v-1292q0 -91 -42.5 -139.5t-123.5 -48.5q-148 0 -170 151q-126 -151 -342 -151q-207 0 -333 132.5t-126 350.5v242q0 218 126 350.5t333 132.5q186 0 309 -117v389q0 91 48 140t137 49zM623 297q89 0 143.5 56.5t54.5 148.5v164
q0 92 -54.5 148t-143.5 56q-91 0 -146 -56t-55 -148v-164q0 -92 55 -148.5t146 -56.5z" />
    <glyph glyph-name="e" unicode="e" horiz-adv-x="1206" 
d="M604 1188q249 0 401 -138.5t152 -365.5v-68q0 -70 -38.5 -108.5t-108.5 -38.5h-590q1 -96 54 -154.5t138 -58.5q84 0 183 78q74 60 161 33q47 -14 79 -40t44.5 -55.5t11.5 -59t-16 -52.5q-55 -86 -184.5 -133t-278.5 -47q-252 0 -406.5 138t-154.5 365v201
q0 227 152 365.5t401 138.5zM604 911q-78 0 -128 -53.5t-56 -142.5h368q-6 89 -56 142.5t-128 53.5z" />
    <glyph glyph-name="f" unicode="f" horiz-adv-x="833" 
d="M690 1167q71 0 109.5 -37t38.5 -106t-38.5 -106t-109.5 -37h-123v-713q0 -91 -47 -139.5t-137 -48.5q-89 0 -136.5 48.5t-47.5 139.5v713h-37q-71 0 -109.5 37t-38.5 106t38.5 106t109.5 37h37v93q0 166 117 267t309 101h65q71 0 109.5 -37t38.5 -106t-38.5 -106.5
t-109.5 -37.5h-24q-44 0 -71.5 -28t-27.5 -74v-72h123z" />
    <glyph glyph-name="g" unicode="g" horiz-adv-x="1284" 
d="M1026 1188q80 0 123 -49t43 -140v-944q0 -223 -165.5 -359t-436.5 -136q-54 0 -85.5 1t-83 6.5t-86 16.5t-72.5 33t-64 53q-27 32 -32.5 74t17.5 85t74 69q29 15 60.5 18t52 -2.5t35.5 -13.5q95 -54 184 -54q117 0 188.5 63.5t71.5 166.5v86q-126 -142 -336 -142
q-207 0 -333 130t-126 344v221q0 214 126 343.5t333 129.5q214 0 342 -150q11 72 54.5 111t115.5 39zM625 338q89 0 143.5 53t54.5 141v144q0 88 -54.5 141t-143.5 53q-91 0 -146 -53t-55 -141v-144q0 -88 55 -141t146 -53z" />
    <glyph glyph-name="h" unicode="h" horiz-adv-x="1257" 
d="M754 1188q189 0 304.5 -120t115.5 -316v-584q0 -91 -47.5 -139.5t-137.5 -48.5q-89 0 -136.5 48.5t-47.5 139.5v522q0 81 -47.5 130.5t-124.5 49.5t-124.5 -49.5t-47.5 -130.5v-522q0 -91 -47.5 -139.5t-137.5 -48.5q-89 0 -136.5 48.5t-47.5 139.5v1292q0 91 47.5 140
t136.5 49t137 -49t48 -140v-379q120 107 293 107z" />
    <glyph glyph-name="i" unicode="i" horiz-adv-x="552" 
d="M276 1315q-89 0 -136.5 43.5t-47.5 122.5v2q0 80 47.5 123t136.5 43t137 -43t48 -123v-2q0 -79 -47.5 -122.5t-137.5 -43.5zM276 -20q-89 0 -136.5 48.5t-47.5 139.5v831q0 91 47.5 140t136.5 49t137 -49t48 -140v-831q0 -91 -47.5 -139.5t-137.5 -48.5z" />
    <glyph glyph-name="j" unicode="j" horiz-adv-x="561" 
d="M285 1315q-89 0 -137 43.5t-48 122.5v2q0 80 48 123t137 43t136.5 -43t47.5 -123v-2q0 -79 -47 -122.5t-137 -43.5zM176 -440q-85 0 -139.5 39t-54.5 108q0 75 57 125q31 27 46 52.5t15 64.5v1050q0 91 48 140t137 49t136.5 -49t47.5 -140v-1077q0 -160 -84 -261
t-209 -101z" />
    <glyph glyph-name="k" unicode="k" horiz-adv-x="1183" 
d="M1106 254q40 -82 19.5 -147t-99.5 -103q-78 -39 -142 -16.5t-102 106.5l-178 385l-143 -157v-154q0 -91 -47.5 -139.5t-137.5 -48.5q-89 0 -136.5 48.5t-47.5 139.5v1292q0 91 47.5 140t136.5 49t137 -49t48 -140v-735l358 397q117 126 236 13q59 -56 62 -117t-52 -121
l-180 -199z" />
    <glyph glyph-name="l" unicode="l" horiz-adv-x="583" 
d="M360 -20q-123 0 -197.5 83t-74.5 218v1179q0 91 47.5 140t136.5 49t137 -49t48 -140v-1122q0 -55 43 -92q55 -44 55 -119q0 -68 -55 -107.5t-140 -39.5z" />
    <glyph glyph-name="m" unicode="m" horiz-adv-x="1929" 
d="M1436 1188q184 0 296.5 -117t112.5 -309v-594q0 -91 -47 -139.5t-137 -48.5q-89 0 -136.5 48.5t-47.5 139.5v532q0 76 -45 123t-117 47t-117 -47t-45 -123v-532q0 -91 -47 -139.5t-137 -48.5q-89 0 -137 48.5t-48 139.5v532q0 76 -44.5 123t-116.5 47t-117 -47t-45 -123
v-532q0 -91 -47.5 -139.5t-137.5 -48.5q-89 0 -136.5 48.5t-47.5 139.5v831q0 91 43.5 140t124.5 49q140 0 168 -135q119 135 315 135q104 0 188.5 -40.5t139.5 -113.5q135 154 365 154z" />
    <glyph glyph-name="n" unicode="n" horiz-adv-x="1257" 
d="M754 1188q189 0 304.5 -120t115.5 -316v-584q0 -91 -47.5 -139.5t-137.5 -48.5q-89 0 -136.5 48.5t-47.5 139.5v522q0 81 -47.5 130.5t-124.5 49.5t-124.5 -49.5t-47.5 -130.5v-522q0 -91 -47.5 -139.5t-137.5 -48.5q-89 0 -136.5 48.5t-47.5 139.5v831q0 91 43.5 140
t124.5 49q143 0 168 -139q123 139 326 139z" />
    <glyph glyph-name="o" unicode="o" horiz-adv-x="1234" 
d="M618 -20q-256 0 -412.5 141t-156.5 371v184q0 230 156.5 371t412.5 141q255 0 411.5 -141t156.5 -371v-184q0 -230 -156.5 -371t-411.5 -141zM618 297q89 0 144 56.5t55 148.5v164q0 92 -55 148t-144 56q-91 0 -145.5 -56t-54.5 -148v-164q0 -92 54.5 -148.5t145.5 -56.5
z" />
    <glyph glyph-name="p" unicode="p" horiz-adv-x="1282" 
d="M772 1188q206 0 331.5 -132.5t125.5 -350.5v-242q0 -218 -125.5 -350.5t-331.5 -132.5q-189 0 -311 116v-348q0 -91 -47.5 -139.5t-137.5 -48.5q-89 0 -136.5 48.5t-47.5 139.5v1251q0 91 43.5 140t124.5 49q73 0 116 -38.5t54 -111.5q128 150 342 150zM860 502v164
q0 92 -54.5 148t-143.5 56q-91 0 -146 -56t-55 -148v-164q0 -92 55 -148.5t146 -56.5q89 0 143.5 56.5t54.5 148.5z" />
    <glyph glyph-name="q" unicode="q" horiz-adv-x="1282" 
d="M1022 1188q81 0 124.5 -49t43.5 -140v-1251q0 -91 -47.5 -139.5t-136.5 -48.5q-90 0 -137.5 48.5t-47.5 139.5v348q-122 -116 -311 -116q-206 0 -331.5 132.5t-125.5 350.5v242q0 218 125.5 350.5t331.5 132.5q214 0 342 -150q11 73 54 111.5t116 38.5zM621 297
q91 0 145.5 56.5t54.5 148.5v164q0 92 -54.5 148t-145.5 56q-89 0 -144 -56t-55 -148v-164q0 -92 55 -148.5t144 -56.5z" />
    <glyph glyph-name="r" unicode="r" horiz-adv-x="829" 
d="M653 1188q78 0 121 -46t43 -132q0 -72 -43.5 -106.5t-138.5 -53.5q-174 -33 -174 -211v-471q0 -91 -47.5 -139.5t-137.5 -48.5q-89 0 -136.5 48.5t-47.5 139.5v831q0 91 43.5 140t124.5 49q133 0 164 -121q92 121 229 121z" />
    <glyph glyph-name="s" unicode="s" horiz-adv-x="1130" 
d="M553 -20q-145 0 -286 48t-195 132q-32 50 2.5 114.5t126.5 92.5q29 9 54 9.5t45.5 -7.5t32.5 -15t29 -20q90 -68 201 -68q75 0 121.5 24t46.5 62v6q0 38 -37.5 59t-97 29.5t-131.5 16t-144 26t-131.5 50t-97 97t-37.5 159.5v24q0 179 135.5 274t368.5 95
q145 0 270.5 -42.5t176.5 -123.5q15 -23 16 -52.5t-11.5 -59t-44.5 -55.5t-79 -40q-92 -28 -162 33q-88 74 -176 74q-66 0 -106 -22.5t-40 -59.5v-4q0 -38 38 -58.5t98.5 -29.5t133.5 -16t146.5 -25.5t134 -50t98.5 -97t38 -160.5v-26q0 -190 -145 -291.5t-392 -101.5z" />
    <glyph glyph-name="t" unicode="t" horiz-adv-x="847" 
d="M662 287q70 0 108.5 -37.5t38.5 -106.5t-38 -106t-109 -37h-66q-183 0 -294.5 95.5t-111.5 252.5v533h-36q-71 0 -109.5 37t-38.5 106t38.5 106t109.5 37h45v140q0 91 46 139.5t134 48.5t134 -48.5t46 -139.5v-140h123q71 0 109 -37t38 -106t-38 -106t-109 -37h-123v-512
q0 -37 21.5 -59.5t56.5 -22.5h25z" />
    <glyph glyph-name="u" unicode="u" horiz-adv-x="1236" 
d="M961 1188q89 0 136.5 -49t47.5 -140v-831q0 -91 -42.5 -139.5t-123.5 -48.5q-139 0 -170 135q-119 -135 -315 -135q-185 0 -297.5 117t-112.5 309v593q0 91 47.5 140t136.5 49t137 -49t48 -140v-532q0 -76 44.5 -123t116.5 -47t117 47t45 123v532q0 91 48 140t137 49z
" />
    <glyph glyph-name="v" unicode="v" horiz-adv-x="1191" 
d="M1001 1178q88 -25 120.5 -85t4.5 -149l-204 -676q-40 -132 -113.5 -205t-200.5 -73h-24q-127 0 -202.5 73.5t-113.5 204.5l-202 676q-26 88 6.5 148.5t120.5 85.5q87 25 146.5 -10.5t82.5 -125.5l174 -692l174 692q23 89 83 125t148 11z" />
    <glyph glyph-name="w" unicode="w" horiz-adv-x="1839" 
d="M1655 1182q86 -19 120.5 -77t12.5 -147l-174 -716q-63 -252 -285 -252h-14q-124 0 -192 70.5t-93 181.5l-110 501l-111 -501q-25 -111 -93 -181.5t-192 -70.5h-16q-222 0 -285 252l-174 716q-22 89 13.5 147t121.5 77t142 -19t75 -129l127 -643l119 547q12 52 30 92.5
t47.5 75.5t76.5 53.5t108 18.5h19q61 0 108 -18.5t76.5 -53.5t47.5 -75.5t30 -92.5l119 -553l127 649q19 90 75.5 128.5t143.5 19.5z" />
    <glyph glyph-name="x" unicode="x" horiz-adv-x="1112" 
d="M1051 262q51 -73 31 -140.5t-99 -113.5q-49 -31 -94 -26t-81 31.5t-73 78.5l-180 258l-180 -258q-37 -52 -72.5 -78t-80 -31t-93.5 25q-79 44 -99.5 112.5t31.5 141.5l258 352l-235 291q-55 70 -35.5 140t96.5 114q46 30 90 25t79.5 -30.5t74.5 -76.5l166 -219l166 219
q39 51 75 77.5t80.5 30.5t92.5 -26q77 -44 95.5 -114t-36.5 -140l-235 -291z" />
    <glyph glyph-name="y" unicode="y" horiz-adv-x="1159" 
d="M985 1176q85 -28 113.5 -90t-2.5 -148l-344 -977q-66 -189 -200 -295t-323 -106q-69 0 -107 38.5t-38 108.5q0 68 32 103.5t93 35.5q55 0 100 29.5t62 77.5l30 82l-335 903q-32 88 -4.5 150t112.5 88q86 26 147 -5.5t89 -117.5l184 -570l160 564q26 89 86 123t145 6z" />
    <glyph glyph-name="z" unicode="z" horiz-adv-x="1075" 
d="M883 285q72 0 109.5 -36.5t37.5 -105.5t-38 -106t-109 -37h-641q-94 0 -144.5 48.5t-50.5 139.5v7q0 104 72 182l469 510l-373 -4q-72 0 -109.5 36t-37.5 105t38 106t109 37h600q94 0 144.5 -48.5t50.5 -139.5v-6q0 -104 -72 -182l-469 -510z" />
    <glyph glyph-name="braceleft" unicode="{" horiz-adv-x="880" 
d="M692 -195q78 0 120 -40.5t42 -118.5q0 -82 -41.5 -125t-120.5 -43q-227 0 -366.5 115t-139.5 303v403q0 76 -80 145q-83 71 -83 168t83 168q80 69 80 146v428q0 188 139.5 303t366.5 115q77 0 119.5 -43.5t42.5 -124.5q0 -77 -42 -118.5t-120 -41.5q-54 0 -87.5 -33.5
t-33.5 -87.5v-387q0 -106 -56.5 -190t-158.5 -134q102 -50 158.5 -133.5t56.5 -189.5v-363q0 -54 33.5 -87.5t87.5 -33.5z" />
    <glyph glyph-name="bar" unicode="|" horiz-adv-x="598" 
d="M299 -440q-89 0 -136.5 49t-47.5 143v1704q0 94 47.5 143.5t136.5 49.5t136.5 -49.5t47.5 -143.5v-1704q0 -94 -46.5 -143t-137.5 -49z" />
    <glyph glyph-name="braceright" unicode="}" horiz-adv-x="880" 
d="M774 780q84 -72 84 -168t-84 -168q-80 -69 -80 -145v-403q0 -188 -139.5 -303t-366.5 -115q-79 0 -120 43t-41 125q0 78 41.5 118.5t119.5 40.5q54 0 87.5 33.5t33.5 87.5v363q0 106 56.5 189.5t158.5 133.5q-102 50 -158.5 134t-56.5 190v387q0 54 -33.5 87.5
t-87.5 33.5q-78 0 -119.5 41.5t-41.5 118.5q0 81 42 124.5t119 43.5q227 0 366.5 -115t139.5 -303v-428q0 -77 80 -146z" />
    <glyph glyph-name="asciitilde" unicode="~" horiz-adv-x="1181" 
d="M272 473q-28 -29 -49.5 -42t-45 -11t-50.5 22q-41 32 -50.5 70t17.5 82q63 98 148.5 154.5t171.5 56.5q48 0 105 -23t100 -51t91 -51t81 -23q62 0 118 56q28 28 49.5 40.5t45.5 10t51 -22.5q87 -67 32 -151q-63 -98 -148 -154.5t-171 -56.5q-48 0 -105.5 23t-100.5 50.5
t-91.5 50.5t-81.5 23q-67 0 -117 -53z" />
    <glyph glyph-name="uni00A0" unicode="&#xa0;" horiz-adv-x="366" 
 />
    <glyph glyph-name="exclamdown" unicode="&#xa1;" horiz-adv-x="577" 
d="M289 817q-94 0 -144.5 47.5t-50.5 136.5v3q0 90 50.5 137t144.5 47t144 -47t50 -137v-3q0 -90 -49.5 -137t-144.5 -47zM289 -440q-90 0 -137.5 49.5t-47.5 142.5v748q0 93 47.5 142.5t137.5 49.5q89 0 136.5 -49t47.5 -143v-748q0 -94 -46.5 -143t-137.5 -49z" />
    <glyph glyph-name="cent" unicode="&#xa2;" horiz-adv-x="1198" 
d="M979 618q72 -24 96 -80t10 -112q-39 -149 -270 -201v-28q0 -94 -47 -143.5t-137 -49.5q-89 0 -137 49.5t-48 143.5v39q-175 48 -274.5 176t-99.5 311v180q0 183 99.5 311.5t274.5 178.5v37q0 93 47.5 142.5t137.5 49.5q89 0 136.5 -49t47.5 -143v-29q185 -44 250 -176
q10 -20 11.5 -48t-6 -58t-32 -56.5t-63.5 -38.5q-122 -39 -193 23q-59 53 -139 53q-91 0 -147 -56.5t-56 -148.5v-164q0 -92 56.5 -148.5t148.5 -56.5q86 0 152 64q70 65 182 28z" />
    <glyph glyph-name="sterling" unicode="&#xa3;" horiz-adv-x="1507" 
d="M1298 328q82 0 125 -42t43 -122t-43 -122t-125 -42h-1075q-82 0 -125 42t-43 122t43 122t125 42h13v336h-13q-82 0 -125 42t-43 121q0 80 43 122t125 42h13v90q0 256 175.5 412t462.5 156q162 0 296.5 -55.5t195.5 -170.5q16 -30 19 -64t-7 -67t-40.5 -61.5t-77.5 -44.5
q-115 -40 -197 37q-54 51 -98 69.5t-91 18.5q-114 0 -183.5 -68t-69.5 -182v-70h417q82 0 125 -42t43 -122q0 -79 -43 -121t-125 -42h-417v-336h677z" />
    <glyph glyph-name="currency" unicode="&#xa4;" horiz-adv-x="1460" 
d="M1221 496l82 -105q104 -135 -25 -229q-130 -94 -231 35l-80 102q-109 -39 -236 -39q-128 0 -237 39l-80 -102q-49 -63 -109 -72t-123 37q-127 95 -24 229l82 107q-78 124 -78 284v62q0 159 78 286l-82 105q-104 135 24 231q63 46 123 37.5t109 -71.5l82 -105
q109 39 235 39q125 0 234 -39l82 105q102 130 231 34q63 -47 69.5 -106.5t-44.5 -124.5l-82 -107q77 -123 77 -284v-62q0 -160 -77 -286zM530 782q0 -92 55 -148t146 -56q89 0 144 56t55 148v62q0 92 -55 148.5t-144 56.5q-91 0 -146 -56.5t-55 -148.5v-62z" />
    <glyph glyph-name="yen" unicode="&#xa5;" horiz-adv-x="1550" 
d="M1339 1620q80 -43 100 -108.5t-26 -145.5l-289 -483h125q62 0 94.5 -31.5t32.5 -91.5t-32.5 -91.5t-94.5 -31.5h-946q-62 0 -94.5 31.5t-32.5 91.5t32.5 91.5t94.5 31.5h123l-289 483q-46 80 -26 145.5t100 108.5q159 85 254 -80l311 -541l309 541q95 165 254 80z
M1249 555q62 0 94.5 -31.5t32.5 -91.5t-32.5 -91.5t-94.5 -31.5h-280v-137q0 -94 -49.5 -143t-143.5 -49t-143 49t-49 143v137h-281q-62 0 -94.5 31.5t-32.5 91.5t32.5 91.5t94.5 31.5h946z" />
    <glyph glyph-name="brokenbar" unicode="&#xa6;" horiz-adv-x="598" 
d="M299 819q-89 0 -136.5 49.5t-47.5 143.5v444q0 94 47.5 143.5t136.5 49.5t136.5 -49.5t47.5 -143.5v-444q0 -94 -47 -143.5t-137 -49.5zM299 -440q-89 0 -136.5 49t-47.5 143v506q0 94 47.5 143.5t136.5 49.5t136.5 -49.5t47.5 -143.5v-506q0 -94 -46.5 -143t-137.5 -49z
" />
    <glyph glyph-name="section" unicode="&#xa7;" horiz-adv-x="1306" 
d="M1128 340q97 -125 97 -277v-26q0 -215 -159.5 -346t-422.5 -131q-162 0 -293 52t-205 165q-21 31 -25.5 68.5t6 72t39.5 64t73 45.5q29 11 56.5 12t46.5 -3.5t42 -17t34.5 -21.5t31.5 -26q65 -54 111.5 -74t92.5 -20q93 0 150 46.5t57 121.5v6q0 41 -14 88
q-88 -24 -193 -24q-247 0 -398 132t-151 349v18q0 146 72 256q-94 125 -94 275v26q0 215 160 346.5t422 131.5q157 0 299.5 -62.5t207.5 -173.5q17 -29 19 -63t-9.5 -66.5t-41.5 -60t-74 -43.5q-29 -10 -55.5 -11.5t-47 3t-41 15.5t-34.5 22.5t-31 27.5q-99 94 -203 94
q-93 0 -150 -46.5t-57 -121.5v-6q0 -45 15 -86q92 25 192 25q246 0 396.5 -132.5t150.5 -349.5v-18q0 -146 -72 -256zM473 596q0 -83 49 -133.5t131 -50.5q80 0 129 50.5t49 133.5v18q0 83 -49 134t-129 51q-82 0 -131 -51t-49 -134v-18z" />
    <glyph glyph-name="dieresis" unicode="&#xa8;" horiz-adv-x="962" 
d="M281 1315q-83 0 -127.5 42t-44.5 118v14q0 77 44.5 118.5t127.5 41.5t127.5 -41.5t44.5 -118.5v-14q0 -76 -44 -118t-128 -42zM682 1315q-83 0 -127.5 42t-44.5 118v14q0 77 44.5 118.5t127.5 41.5t127.5 -41.5t44.5 -118.5v-14q0 -76 -44 -118t-128 -42z" />
    <glyph glyph-name="copyright" unicode="&#xa9;" horiz-adv-x="2203" 
d="M1102 -225q-311 0 -549 116.5t-368 329.5t-130 492v202q0 279 130 492t368 329.5t549 116.5q233 0 428 -68t331 -189.5t211.5 -296.5t75.5 -384v-202q0 -209 -75.5 -384t-211.5 -296.5t-331 -189.5t-428 -68zM1102 113q298 0 479.5 170t181.5 450v162q0 280 -181.5 450.5
t-479.5 170.5t-480 -170.5t-182 -450.5v-162q0 -280 182 -450t480 -170zM1124 272q-249 0 -401 135.5t-152 358.5v96q0 223 151.5 358.5t399.5 135.5q329 0 422 -193q10 -20 11.5 -48t-6 -57.5t-32 -56t-63.5 -38.5q-122 -39 -192 22q-59 53 -140 53q-82 0 -132 -50.5
t-50 -133.5v-80q0 -83 50.5 -133.5t133.5 -50.5q87 0 152 63q70 66 182 29q50 -16 78.5 -51.5t31.5 -71.5t-3 -70q-15 -57 -60 -101t-108.5 -68t-132 -36t-140.5 -12z" />
    <glyph glyph-name="ordfeminine" unicode="&#xaa;" horiz-adv-x="714" 
d="M334 1640q138 0 222.5 -62t84.5 -163v-360q0 -46 -24 -70t-68 -24q-85 0 -94 79q-74 -77 -195 -77q-96 0 -154.5 53t-58.5 141v37q0 82 61.5 132t161.5 50h166v15q0 41 -28 67.5t-74 26.5q-51 0 -86 -33q-39 -34 -98 -20q-44 10 -61 53t11 74q35 38 99 59.5t135 21.5z
M324 1124q51 0 81.5 27t30.5 70v16h-121q-29 0 -46 -14.5t-17 -38.5v-6q0 -23 20 -38.5t52 -15.5z" />
    <glyph glyph-name="guillemotleft" unicode="&#xab;" horiz-adv-x="1558" 
d="M657 422q148 -79 82 -205q-32 -62 -88 -73t-127 30l-352 203q-131 74 -131 215t131 215l352 203q70 41 126.5 30.5t88.5 -71.5q66 -126 -82 -205l-323 -172zM1374 422q148 -79 82 -205q-32 -62 -88 -73t-127 30l-352 203q-131 74 -131 215t131 215l352 203
q70 41 126.5 30.5t88.5 -71.5q66 -126 -82 -205l-323 -172z" />
    <glyph glyph-name="logicalnot" unicode="&#xac;" horiz-adv-x="1155" 
d="M926 735q82 0 125 -43t43 -125v-280q0 -91 -47.5 -140t-137.5 -49q-89 0 -136.5 49t-47.5 140v162h-526q-71 0 -109.5 37t-38.5 106t38.5 106t109.5 37h727z" />
    <glyph glyph-name="uni00AD" unicode="&#xad;" horiz-adv-x="786" 
d="M236 449q-71 0 -109.5 37t-38.5 106t38.5 106t109.5 37h315q71 0 109 -37t38 -106t-38 -106t-109 -37h-315z" />
    <glyph glyph-name="registered" unicode="&#xae;" horiz-adv-x="1013" 
d="M506 1772q205 0 331 -118.5t126 -312.5v-79q0 -194 -126 -312.5t-331 -118.5q-204 0 -329.5 119t-125.5 312v79q0 193 125.5 312t329.5 119zM834 1268v67q0 148 -90 238t-238 90q-146 0 -236 -90t-90 -238v-67q0 -148 90 -238t236 -90q148 0 238 90t90 238zM569 1552
q70 0 113 -37.5t43 -99.5v-18q0 -85 -74 -121l54 -123q13 -31 5 -54t-36 -34q-62 -23 -86 41l-62 154h-80v-132q0 -69 -63 -69q-31 0 -48.5 18t-17.5 51v355q0 69 70 69h182zM446 1444v-76h115q17 0 27 10t10 25v6q0 15 -10 25t-27 10h-115z" />
    <glyph glyph-name="macron" unicode="&#xaf;" horiz-adv-x="778" 
d="M180 1372q-63 0 -97 33.5t-34 95.5q0 61 34 94t97 33h418q63 0 97 -33t34 -94q0 -63 -34 -96t-97 -33h-418z" />
    <glyph glyph-name="degree" unicode="&#xb0;" horiz-adv-x="704" 
d="M352 1075q-143 0 -229 69.5t-86 184.5v66q0 115 86 184.5t229 69.5t229.5 -69.5t86.5 -184.5v-66q0 -115 -86.5 -184.5t-229.5 -69.5zM352 1257q46 0 75.5 21.5t29.5 56.5v54q0 35 -29.5 56t-75.5 21t-75 -21t-29 -56v-54q0 -35 29 -56.5t75 -21.5z" />
    <glyph glyph-name="plusminus" unicode="&#xb1;" horiz-adv-x="1155" 
d="M209 612q-71 0 -109.5 37.5t-38.5 106.5t38.5 106t109.5 37h184v80q0 91 48 139.5t137 48.5t136.5 -48.5t47.5 -139.5v-80h184q71 0 109.5 -37t38.5 -106t-38.5 -106.5t-109.5 -37.5h-184v-80q0 -91 -47 -139.5t-137 -48.5q-89 0 -137 48.5t-48 139.5v80h-184zM946 309
q71 0 109.5 -37t38.5 -106t-38.5 -106t-109.5 -37h-737q-71 0 -109.5 37t-38.5 106t38.5 106t109.5 37h737z" />
    <glyph glyph-name="acute" unicode="&#xb4;" horiz-adv-x="743" 
d="M260 1307q-135 -44 -170 43q-35 84 94 147l279 137q66 32 115.5 16.5t72.5 -75.5q23 -61 -2 -106.5t-94 -67.5z" />
    <glyph glyph-name="uni00B5" unicode="&#xb5;" horiz-adv-x="1261" 
d="M985 1188q89 0 136.5 -49t47.5 -140v-593q0 -192 -112.5 -309t-296.5 -117q-166 0 -283 100v-332q0 -91 -47 -139.5t-137 -48.5q-89 0 -136.5 48.5t-47.5 139.5v1251q0 91 47.5 140t136.5 49t136.5 -49t47.5 -140v-532q0 -76 45 -123t117 -47t117 47t45 123v532
q0 91 47.5 140t136.5 49z" />
    <glyph glyph-name="paragraph" unicode="&#xb6;" horiz-adv-x="1509" 
d="M686 1649q112 0 173 -58.5t61 -165.5v-1693q0 -83 -44.5 -127.5t-127.5 -44.5t-128 44.5t-45 127.5v944h-45q-220 0 -354.5 120t-134.5 316v59q0 215 163 346.5t429 131.5h53zM1194 1649q83 0 127.5 -44.5t44.5 -127.5v-1745q0 -83 -44.5 -127.5t-127.5 -44.5
t-127.5 44.5t-44.5 127.5v1745q0 83 44.5 127.5t127.5 44.5z" />
    <glyph glyph-name="periodcentered" unicode="&#xb7;" horiz-adv-x="540" 
d="M270 408q-94 0 -144 47.5t-50 136.5v2q0 90 50 137t144 47t144.5 -47t50.5 -137v-2q0 -89 -50 -136.5t-145 -47.5z" />
    <glyph glyph-name="cedilla" unicode="&#xb8;" horiz-adv-x="675" 
d="M444 -47q73 -25 112.5 -66.5t39.5 -93.5v-6q0 -94 -98.5 -150.5t-261.5 -56.5h-3q-54 0 -84 27t-30 76q0 89 78 102q36 6 36 25v2q0 10 -6.5 16t-23.5 16q-23 13 -29 26.5t0 35.5l70 233l241 -82z" />
    <glyph glyph-name="ordmasculine" unicode="&#xba;" horiz-adv-x="720" 
d="M360 963q-143 0 -230 78.5t-87 207.5v105q0 129 87 207.5t230 78.5t230.5 -78.5t87.5 -207.5v-105q0 -129 -87.5 -207.5t-230.5 -78.5zM360 1141q51 0 82 31t31 83v93q0 52 -31 84t-82 32t-81.5 -31.5t-30.5 -84.5v-93q0 -52 30.5 -83t81.5 -31z" />
    <glyph glyph-name="guillemotright" unicode="&#xbb;" horiz-adv-x="1558" 
d="M670 807q131 -74 131 -215t-131 -215l-353 -203q-71 -41 -127 -30t-88 73q-66 126 82 205l324 170l-324 172q-148 79 -82 205q32 61 88.5 71.5t126.5 -30.5zM1386 807q132 -75 132 -215t-132 -215l-352 -203q-71 -41 -127 -30t-88 73q-66 126 82 205l324 170l-324 172
q-148 79 -82 205q32 61 88.5 71.5t126.5 -30.5z" />
    <glyph glyph-name="onequarter" unicode="&#xbc;" horiz-adv-x="1611" 
d="M287 1337l-25 -20q-43 -36 -84.5 -33t-75.5 45q-70 85 17 160l106 88q62 51 154 51h8q78 0 121 -39t43 -112v-537q0 -65 -33.5 -100t-97.5 -35q-65 0 -99 34.5t-34 100.5v397zM1214 1587q106 -62 43 -172l-768 -1325q-31 -53 -75 -66t-97 17q-106 62 -43 172l768 1327
q31 53 75 65t97 -18zM1548 201q0 -44 -21 -73t-59 -36q-19 -102 -131 -102t-127 98h-217q-57 0 -88 37t-31 106v7q0 73 39 141l209 356q46 78 156 78h10q88 0 135 -45.5t47 -130.5v-328q78 -18 78 -108zM1217 496l-105 -183h100z" />
    <glyph glyph-name="onehalf" unicode="&#xbd;" horiz-adv-x="1603" 
d="M287 1337l-25 -20q-43 -36 -84.5 -33t-75.5 45q-70 85 17 160l106 88q62 51 154 51h8q78 0 121 -39t43 -112v-537q0 -65 -33.5 -100t-97.5 -35q-65 0 -99 34.5t-34 100.5v397zM1214 1587q106 -62 43 -172l-768 -1325q-31 -53 -75 -66t-97 17q-106 62 -43 172l768 1327
q31 53 75 65t97 -18zM1417 221q115 0 115 -108q0 -54 -30 -83.5t-85 -29.5h-405q-64 0 -99.5 33.5t-35.5 95.5v8q0 89 81 142q179 115 246.5 171.5t67.5 90.5v2q0 26 -20 41.5t-52 15.5q-39 0 -84 -27q-26 -15 -63 -14t-72 19q-56 30 -72 68t15 75q91 104 282 104
q147 0 235.5 -74.5t88.5 -197.5v-14q0 -89 -61.5 -158.5t-206.5 -161.5z" />
    <glyph glyph-name="threequarters" unicode="&#xbe;" horiz-adv-x="1658" 
d="M721 1059q0 -115 -90.5 -184.5t-239.5 -69.5q-213 0 -299 123q-12 22 -10 46.5t26.5 50.5t65.5 40q82 26 125 -4q45 -33 84 -33q32 0 53 12t21 31v2q0 19 -15 31t-39 12h-2q-47 0 -72.5 30t-25.5 85q0 52 24 80t68 28h2q20 0 32.5 10t12.5 25v4q0 37 -59 37
q-35 0 -70 -14q-67 -26 -135 2q-54 23 -70.5 65t11.5 74q79 98 272 98q142 0 230 -67.5t88 -179.5v-19q0 -91 -99 -145q111 -52 111 -156v-14zM1274 1587q106 -62 43 -172l-768 -1325q-31 -53 -75 -66t-97 17q-106 62 -43 172l768 1327q31 53 75 65t97 -18zM1608 201
q0 -44 -21 -73t-59 -36q-19 -102 -131 -102t-127 98h-217q-57 0 -88 37t-31 106v7q0 73 39 141l209 356q46 78 155 78h11q88 0 135 -45.5t47 -130.5v-328q78 -18 78 -108zM1276 496l-105 -183h101z" />
    <glyph glyph-name="questiondown" unicode="&#xbf;" horiz-adv-x="1116" 
d="M758 817q-94 0 -144.5 47.5t-50.5 136.5v3q0 90 50.5 137t144.5 47t144 -47t50 -137v-3q0 -90 -49.5 -137t-144.5 -47zM897 -92q82 0 125 -42t43 -122t-43 -122t-125 -42h-346q-229 0 -369.5 126t-140.5 331v39q0 196 140.5 316t369.5 120h22q3 88 51 134t134 46
t133.5 -46t50.5 -134v-119q0 -82 -43 -125t-125 -43h-203q-65 0 -105 -41t-40 -108v-19q0 -67 40 -108t105 -41h326z" />
    <glyph glyph-name="Agrave" unicode="&#xc0;" horiz-adv-x="1533" 
d="M580 1802q-71 17 -99.5 60t-9.5 106q19 62 67 80t115 -10l289 -117q132 -54 105 -139q-14 -43 -57 -56.5t-111 3.5zM1470 227q28 -91 -4 -151.5t-120 -85.5q-89 -25 -149.5 8.5t-86.5 122.5l-45 153h-596l-45 -153q-26 -89 -86.5 -122.5t-149.5 -8.5q-88 25 -120.5 86
t-4.5 151l367 1188q33 107 114.5 165t203.5 58h38q122 0 203.5 -58t114.5 -165zM567 602h400l-199 678z" />
    <glyph glyph-name="Aacute" unicode="&#xc1;" horiz-adv-x="1533" 
d="M653 1729q-138 -35 -166 53q-28 85 105 139l287 117q69 28 117 9.5t65 -79.5q19 -64 -9.5 -106.5t-99.5 -59.5zM1470 227q28 -91 -4 -151.5t-120 -85.5q-89 -25 -149.5 8.5t-86.5 122.5l-45 153h-596l-45 -153q-26 -89 -86.5 -122.5t-149.5 -8.5q-88 25 -120.5 86
t-4.5 151l367 1188q33 107 114.5 165t203.5 58h38q122 0 203.5 -58t114.5 -165zM567 602h400l-199 678z" />
    <glyph glyph-name="Acircumflex" unicode="&#xc2;" horiz-adv-x="1533" 
d="M580 1731q-81 -47 -131 24q-53 77 18 137l229 193q33 29 70 29t70 -29l229 -193q72 -60 22 -131q-53 -78 -135 -30l-186 108zM1470 227q28 -91 -4 -151.5t-120 -85.5q-89 -25 -149.5 8.5t-86.5 122.5l-45 153h-596l-45 -153q-26 -89 -86.5 -122.5t-149.5 -8.5
q-88 25 -120.5 86t-4.5 151l367 1188q33 107 114.5 165t203.5 58h38q122 0 203.5 -58t114.5 -165zM567 602h400l-199 678z" />
    <glyph glyph-name="Atilde" unicode="&#xc3;" horiz-adv-x="1533" 
d="M428 1774q-42 27 -52 62.5t17 76.5q112 149 252 149q52 0 136.5 -36.5t125.5 -36.5q39 0 64 14q32 17 49 24t38.5 6.5t43.5 -14.5q42 -27 52 -62.5t-17 -76.5q-112 -149 -252 -149q-53 0 -137.5 36.5t-126.5 36.5q-39 0 -72 -20q-37 -24 -60.5 -27t-60.5 17zM1470 227
q28 -91 -4 -151.5t-120 -85.5q-89 -25 -149.5 8.5t-86.5 122.5l-45 153h-596l-45 -153q-26 -89 -86.5 -122.5t-149.5 -8.5q-88 25 -120.5 86t-4.5 151l367 1188q33 107 114.5 165t203.5 58h38q122 0 203.5 -58t114.5 -165zM567 602h400l-199 678z" />
    <glyph glyph-name="Adieresis" unicode="&#xc4;" horiz-adv-x="1533" 
d="M565 1729q-83 0 -127.5 42t-44.5 117v15q0 77 44.5 118t127.5 41t127.5 -41t44.5 -118v-15q0 -76 -44 -117.5t-128 -41.5zM967 1729q-83 0 -127.5 42t-44.5 117v15q0 77 44.5 118t127.5 41t127.5 -41t44.5 -118v-15q0 -76 -44 -117.5t-128 -41.5zM1470 227
q28 -91 -4 -151.5t-120 -85.5q-89 -25 -149.5 8.5t-86.5 122.5l-45 153h-596l-45 -153q-26 -89 -86.5 -122.5t-149.5 -8.5q-88 25 -120.5 86t-4.5 151l367 1188q33 107 114.5 165t203.5 58h38q122 0 203.5 -58t114.5 -165zM567 602h400l-199 678z" />
    <glyph glyph-name="Aring" unicode="&#xc5;" horiz-adv-x="1533" 
d="M766 1700q-138 0 -221.5 65t-83.5 172v27q0 107 83.5 172.5t221.5 65.5t221.5 -65.5t83.5 -172.5v-27q0 -107 -83.5 -172t-221.5 -65zM674 1958v-14q0 -28 25.5 -45t66.5 -17t66.5 17t25.5 45v14q0 28 -25.5 44.5t-66.5 16.5t-66.5 -16.5t-25.5 -44.5zM1470 227
q28 -91 -4 -151.5t-120 -85.5q-89 -25 -149.5 8.5t-86.5 122.5l-45 153h-596l-45 -153q-26 -89 -86.5 -122.5t-149.5 -8.5q-88 25 -120.5 86t-4.5 151l367 1188q33 107 114.5 165t203.5 58h38q122 0 203.5 -58t114.5 -165zM567 602h400l-199 678z" />
    <glyph glyph-name="AE" unicode="&#xc6;" horiz-adv-x="2136" 
d="M1917 328q82 0 125 -42t43 -122t-43 -122t-125 -42h-705q-159 0 -180 156l-16 118h-547l-70 -170q-70 -172 -239 -106q-82 32 -106.5 95t12.5 149l530 1222q33 75 109 119.5t182 44.5h1009q82 0 125 -42t43 -122t-43 -122t-125 -42h-647l47 -309h559q93 0 130.5 -40
t37.5 -124q0 -83 -37.5 -123t-130.5 -40h-507l51 -336h518zM604 602h367l-94 666z" />
    <glyph glyph-name="Ccedilla" unicode="&#xc7;" horiz-adv-x="1431" 
d="M1255 475q42 -17 70 -45t38 -57.5t10 -55.5t-9 -45q-59 -122 -179.5 -193t-277.5 -91l-14 -35q72 -25 111.5 -66.5t39.5 -93.5v-6q0 -94 -98.5 -150.5t-261.5 -56.5h-2q-54 0 -84.5 27t-30.5 76q0 89 78 102q37 6 37 25v2q0 10 -6.5 15.5t-24.5 16.5q-23 13 -28.5 27
t0.5 35l24 84q-267 37 -424 209t-157 432v366q0 293 197 472.5t519 179.5q174 0 324 -62t229 -188q20 -31 21 -76.5t-25.5 -92t-81.5 -67.5q-50 -22 -96.5 -17t-76 19t-52.5 35q-62 60 -126.5 85.5t-115.5 25.5q-149 0 -240 -91.5t-91 -242.5v-326q0 -151 91 -242.5
t242 -91.5q143 0 252 117q88 95 219 41z" />
    <glyph glyph-name="Egrave" unicode="&#xc8;" horiz-adv-x="1355" 
d="M522 1802q-71 17 -99 60t-9 106q19 62 67 80t115 -10l289 -117q131 -53 104 -139q-14 -43 -57 -56.5t-111 3.5zM1137 328q82 0 125 -42t43 -122t-43 -122t-125 -42h-854q-82 0 -125 43t-43 125v1292q0 82 43 125t125 43h833q82 0 125 -42t43 -122t-43 -122t-125 -42h-616
v-309h575q82 0 125 -42t43 -122q0 -79 -43 -121t-125 -42h-575v-336h637z" />
    <glyph glyph-name="Eacute" unicode="&#xc9;" horiz-adv-x="1355" 
d="M596 1729q-138 -35 -166 53q-28 85 105 139l286 117q69 28 117.5 9.5t65.5 -79.5q19 -64 -9.5 -106.5t-99.5 -59.5zM1137 328q82 0 125 -42t43 -122t-43 -122t-125 -42h-854q-82 0 -125 43t-43 125v1292q0 82 43 125t125 43h833q82 0 125 -42t43 -122t-43 -122t-125 -42
h-616v-309h575q82 0 125 -42t43 -122q0 -79 -43 -121t-125 -42h-575v-336h637z" />
    <glyph glyph-name="Ecircumflex" unicode="&#xca;" horiz-adv-x="1355" 
d="M522 1731q-81 -47 -131 24q-53 77 19 137l229 193q33 29 70 29q36 0 69 -29l230 -193q72 -60 22 -131q-53 -78 -135 -30l-186 108zM1137 328q82 0 125 -42t43 -122t-43 -122t-125 -42h-854q-82 0 -125 43t-43 125v1292q0 82 43 125t125 43h833q82 0 125 -42t43 -122
t-43 -122t-125 -42h-616v-309h575q82 0 125 -42t43 -122q0 -79 -43 -121t-125 -42h-575v-336h637z" />
    <glyph glyph-name="Edieresis" unicode="&#xcb;" horiz-adv-x="1355" 
d="M508 1729q-83 0 -127.5 42t-44.5 117v15q0 77 44.5 118t127.5 41t127.5 -41t44.5 -118v-15q0 -76 -44 -117.5t-128 -41.5zM909 1729q-83 0 -127.5 42t-44.5 117v15q0 77 44.5 118t127.5 41t127.5 -41t44.5 -118v-15q0 -76 -44 -117.5t-128 -41.5zM1137 328q82 0 125 -42
t43 -122t-43 -122t-125 -42h-854q-82 0 -125 43t-43 125v1292q0 82 43 125t125 43h833q82 0 125 -42t43 -122t-43 -122t-125 -42h-616v-309h575q82 0 125 -42t43 -122q0 -79 -43 -121t-125 -42h-575v-336h637z" />
    <glyph glyph-name="Igrave" unicode="&#xcc;" horiz-adv-x="614" 
d="M526 1780q-27 -87 -166 -56l-202 45q-72 15 -101 58.5t-10 105.5q19 63 67 80.5t115 -12.5l195 -82q129 -56 102 -139zM307 -20q-94 0 -143 48t-49 140v1288q0 94 49 143.5t143 49.5t143.5 -49.5t49.5 -143.5v-1288q0 -92 -49.5 -140t-143.5 -48z" />
    <glyph glyph-name="Iacute" unicode="&#xcd;" horiz-adv-x="614" 
d="M256 1724q-139 -31 -166 56q-27 83 103 139l194 82q67 30 115 12.5t67 -80.5t-10 -106t-100 -58zM307 -20q-94 0 -143 48t-49 140v1288q0 94 49 143.5t143 49.5t143.5 -49.5t49.5 -143.5v-1288q0 -92 -49.5 -140t-143.5 -48z" />
    <glyph glyph-name="Icircumflex" unicode="&#xce;" horiz-adv-x="614" 
d="M182 1749q-86 -59 -139 10q-61 79 12 150l176 166q37 34 76 34t76 -34l176 -166q73 -70 23 -135q-65 -83 -150 -25l-125 84zM307 -20q-94 0 -143 48t-49 140v1288q0 94 49 143.5t143 49.5t143.5 -49.5t49.5 -143.5v-1288q0 -92 -49.5 -140t-143.5 -48z" />
    <glyph glyph-name="Idieresis" unicode="&#xcf;" horiz-adv-x="614" 
d="M156 1729q-63 0 -97 32.5t-34 91.5v84q0 60 34 92.5t97 32.5t97 -32.5t34 -92.5v-84q0 -59 -33.5 -91.5t-97.5 -32.5zM459 1729q-63 0 -97 32.5t-34 91.5v84q0 60 34 92.5t97 32.5t97 -32.5t34 -92.5v-84q0 -59 -33.5 -91.5t-97.5 -32.5zM307 -20q-94 0 -143 48t-49 140
v1288q0 94 49 143.5t143 49.5t143.5 -49.5t49.5 -143.5v-1288q0 -92 -49.5 -140t-143.5 -48z" />
    <glyph glyph-name="Eth" unicode="&#xd0;" horiz-adv-x="1564" 
d="M813 1628q309 0 497.5 -176t188.5 -465v-346q0 -289 -188.5 -465t-497.5 -176h-487q-82 0 -125 43t-43 125v516h-2q-71 0 -109.5 37t-38.5 106t38.5 106.5t109.5 37.5h2v489q0 82 43 125t125 43h487zM1114 662v305q0 151 -88 242t-233 91h-250v-329h155q71 0 109.5 -37.5
t38.5 -106.5t-38.5 -106t-109.5 -37h-155v-356h250q145 0 233 91.5t88 242.5z" />
    <glyph glyph-name="Ntilde" unicode="&#xd1;" horiz-adv-x="1576" 
d="M451 1774q-42 27 -52 62.5t17 76.5q112 149 252 149q52 0 136.5 -36.5t125.5 -36.5q38 0 63 14q32 17 49 24t38.5 6.5t43.5 -14.5q42 -27 52 -62.5t-17 -76.5q-112 -149 -252 -149q-53 0 -137.5 36.5t-126.5 36.5q-39 0 -72 -20q-37 -24 -60 -27t-60 17zM1274 1649
q91 0 139.5 -49.5t48.5 -143.5v-1216q0 -122 -64 -186t-186 -64h-26q-157 0 -219 119l-490 931l15 -866q1 -95 -46.5 -144.5t-140.5 -49.5q-92 0 -141 49t-49 143v1217q0 121 64 185t186 64h26q157 0 219 -118l490 -932l-15 866q-1 95 47.5 145t141.5 50z" />
    <glyph glyph-name="Ograve" unicode="&#xd2;" horiz-adv-x="1568" 
d="M1065 1782q-14 -43 -57 -56.5t-111 3.5l-299 73q-71 17 -99.5 60t-9.5 106q19 62 67.5 80t115.5 -10l289 -117q131 -53 104 -139zM784 -20q-324 0 -521 179t-197 472v366q0 293 197 472.5t521 179.5t521.5 -179.5t197.5 -472.5v-366q0 -293 -197.5 -472t-521.5 -179z
M784 317q151 0 242.5 91.5t91.5 242.5v326q0 151 -91.5 242.5t-242.5 91.5t-242 -91.5t-91 -242.5v-326q0 -151 91 -242.5t242 -91.5z" />
    <glyph glyph-name="Oacute" unicode="&#xd3;" horiz-adv-x="1568" 
d="M672 1729q-138 -35 -166 53q-28 85 104 139l287 117q69 28 117 9.5t65 -79.5q38 -130 -108 -166zM784 -20q-324 0 -521 179t-197 472v366q0 293 197 472.5t521 179.5t521.5 -179.5t197.5 -472.5v-366q0 -293 -197.5 -472t-521.5 -179zM784 317q151 0 242.5 91.5
t91.5 242.5v326q0 151 -91.5 242.5t-242.5 91.5t-242 -91.5t-91 -242.5v-326q0 -151 91 -242.5t242 -91.5z" />
    <glyph glyph-name="Ocircumflex" unicode="&#xd4;" horiz-adv-x="1568" 
d="M467 1755q-53 77 18 137l230 193q33 29 69 29q37 0 70 -29l229 -193q72 -61 23 -131q-53 -78 -135 -30l-187 108l-186 -108q-81 -47 -131 24zM784 -20q-324 0 -521 179t-197 472v366q0 293 197 472.5t521 179.5t521.5 -179.5t197.5 -472.5v-366q0 -293 -197.5 -472
t-521.5 -179zM784 317q151 0 242.5 91.5t91.5 242.5v326q0 151 -91.5 242.5t-242.5 91.5t-242 -91.5t-91 -242.5v-326q0 -151 91 -242.5t242 -91.5z" />
    <glyph glyph-name="Otilde" unicode="&#xd5;" horiz-adv-x="1568" 
d="M567 1784q-37 -24 -60.5 -27t-60.5 17q-41 27 -51.5 62.5t17.5 76.5q112 149 252 149q52 0 136.5 -36.5t125.5 -36.5q38 0 63 14q32 17 49 24t38.5 6.5t43.5 -14.5q42 -27 52 -62.5t-17 -76.5q-112 -149 -252 -149q-53 0 -137.5 36.5t-126.5 36.5q-39 0 -72 -20zM784 -20
q-324 0 -521 179t-197 472v366q0 293 197 472.5t521 179.5t521.5 -179.5t197.5 -472.5v-366q0 -293 -197.5 -472t-521.5 -179zM784 317q151 0 242.5 91.5t91.5 242.5v326q0 151 -91.5 242.5t-242.5 91.5t-242 -91.5t-91 -242.5v-326q0 -151 91 -242.5t242 -91.5z" />
    <glyph glyph-name="Odieresis" unicode="&#xd6;" horiz-adv-x="1568" 
d="M584 1729q-83 0 -127.5 42t-44.5 117v15q0 77 44.5 118t127.5 41t127.5 -41t44.5 -118v-15q0 -76 -44 -117.5t-128 -41.5zM985 1729q-83 0 -127.5 42t-44.5 117v15q0 77 44.5 118t127.5 41t127.5 -41t44.5 -118v-15q0 -76 -44 -117.5t-128 -41.5zM784 -20
q-324 0 -521 179t-197 472v366q0 293 197 472.5t521 179.5t521.5 -179.5t197.5 -472.5v-366q0 -293 -197.5 -472t-521.5 -179zM784 317q151 0 242.5 91.5t91.5 242.5v326q0 151 -91.5 242.5t-242.5 91.5t-242 -91.5t-91 -242.5v-326q0 -151 91 -242.5t242 -91.5z" />
    <glyph glyph-name="multiply" unicode="&#xd7;" horiz-adv-x="1155" 
d="M795 592l168 -168q54 -54 54.5 -110.5t-52.5 -108.5q-52 -53 -109 -52.5t-111 54.5l-167 168l-168 -168q-54 -54 -111 -54.5t-109 52.5q-53 52 -52 108.5t55 110.5l167 168l-167 168q-54 54 -55 110.5t52 108.5q52 53 109 52.5t111 -54.5l168 -168l167 168
q54 54 111 54.5t109 -52.5q53 -52 52.5 -108.5t-54.5 -110.5z" />
    <glyph glyph-name="Oslash" unicode="&#xd8;" horiz-adv-x="1585" 
d="M1430 1325q81 -144 81 -328v-366q0 -293 -197 -472t-521 -179q-233 0 -404 94l-6 -6q-53 -63 -112 -69.5t-119 44.5q-125 106 -19 233l23 27q-82 145 -82 328v366q0 293 197.5 472.5t521.5 179.5q225 0 405 -97l8 11q53 63 112.5 69.5t119.5 -45.5q123 -108 16 -233z
M459 977v-309l504 604q-73 39 -170 39q-151 0 -242.5 -91.5t-91.5 -242.5zM793 317q151 0 242 91.5t91 242.5v310l-503 -605q76 -39 170 -39z" />
    <glyph glyph-name="Ugrave" unicode="&#xd9;" horiz-adv-x="1521" 
d="M1042 1782q-14 -43 -57 -56.5t-111 3.5l-299 73q-71 17 -99 60t-9 106q19 62 67 80t115 -10l289 -117q131 -53 104 -139zM762 -20q-297 0 -478.5 162t-181.5 429v885q0 94 49.5 143.5t143.5 49.5t143 -49.5t49 -143.5v-864q0 -124 76 -199.5t199 -75.5t197.5 75.5
t74.5 199.5v864q0 94 49.5 143.5t143.5 49.5t143 -49.5t49 -143.5v-885q0 -267 -180.5 -429t-476.5 -162z" />
    <glyph glyph-name="Uacute" unicode="&#xda;" horiz-adv-x="1521" 
d="M649 1729q-138 -35 -166 53q-28 85 105 139l286 117q69 28 117.5 9.5t65.5 -79.5q19 -64 -9.5 -106.5t-99.5 -59.5zM762 -20q-297 0 -478.5 162t-181.5 429v885q0 94 49.5 143.5t143.5 49.5t143 -49.5t49 -143.5v-864q0 -124 76 -199.5t199 -75.5t197.5 75.5t74.5 199.5
v864q0 94 49.5 143.5t143.5 49.5t143 -49.5t49 -143.5v-885q0 -267 -180.5 -429t-476.5 -162z" />
    <glyph glyph-name="Ucircumflex" unicode="&#xdb;" horiz-adv-x="1521" 
d="M444 1755q-53 77 19 137l229 193q33 29 70 29q36 0 69 -29l230 -193q72 -60 22 -131q-53 -78 -135 -30l-186 108l-187 -108q-81 -47 -131 24zM762 -20q-297 0 -478.5 162t-181.5 429v885q0 94 49.5 143.5t143.5 49.5t143 -49.5t49 -143.5v-864q0 -124 76 -199.5
t199 -75.5t197.5 75.5t74.5 199.5v864q0 94 49.5 143.5t143.5 49.5t143 -49.5t49 -143.5v-885q0 -267 -180.5 -429t-476.5 -162z" />
    <glyph glyph-name="Udieresis" unicode="&#xdc;" horiz-adv-x="1521" 
d="M561 1729q-83 0 -127.5 42t-44.5 117v15q0 77 44.5 118t127.5 41t127.5 -41t44.5 -118v-15q0 -76 -44 -117.5t-128 -41.5zM963 1729q-83 0 -127.5 42t-44.5 117v15q0 77 44.5 118t127.5 41t127.5 -41t44.5 -118v-15q0 -76 -44 -117.5t-128 -41.5zM762 -20
q-297 0 -478.5 162t-181.5 429v885q0 94 49.5 143.5t143.5 49.5t143 -49.5t49 -143.5v-864q0 -124 76 -199.5t199 -75.5t197.5 75.5t74.5 199.5v864q0 94 49.5 143.5t143.5 49.5t143 -49.5t49 -143.5v-885q0 -267 -180.5 -429t-476.5 -162z" />
    <glyph glyph-name="Yacute" unicode="&#xdd;" horiz-adv-x="1464" 
d="M621 1729q-138 -35 -166 53q-28 85 104 139l287 117q69 28 117 9.5t65 -79.5q38 -130 -108 -166zM1296 1620q80 -43 100 -108.5t-26 -145.5l-444 -743v-451q0 -94 -49.5 -143t-143.5 -49t-143 49t-49 143v446l-447 748q-46 80 -26 145.5t100 108.5q159 85 254 -80
l311 -541l309 541q95 165 254 80z" />
    <glyph glyph-name="Thorn" unicode="&#xde;" horiz-adv-x="1484" 
d="M934 1307q229 0 369.5 -126t140.5 -331v-59q0 -205 -140.5 -331t-369.5 -126h-434v-162q0 -94 -49.5 -143t-143.5 -49t-143 49t-49 143v1284q0 94 49 143.5t143 49.5t143.5 -49.5t49.5 -143.5v-149h434zM1059 811v18q0 67 -40.5 108.5t-105.5 41.5h-413v-317h413
q65 0 105.5 41t40.5 108z" />
    <glyph glyph-name="germandbls" unicode="&#xdf;" horiz-adv-x="1304" 
d="M995 846q126 -43 195.5 -126t69.5 -192v-106q0 -190 -144.5 -306t-380.5 -116h-22q-75 0 -116.5 37t-41.5 106t38.5 106.5t108.5 37.5h13q80 0 128 42.5t48 112.5v86q0 70 -48 113t-126 43h-2q-71 0 -109.5 37t-38.5 106t38 106.5t110 37.5q52 0 83 39.5t31 105.5v72
q0 65 -50.5 104t-135.5 39q-82 0 -132 -42.5t-50 -114.5v-1006q0 -91 -47.5 -139.5t-137.5 -48.5q-89 0 -136.5 48.5t-47.5 139.5v1026q0 205 151.5 330t399.5 125q250 0 402.5 -121.5t152.5 -319.5v-92q0 -88 -53 -157.5t-150 -112.5z" />
    <glyph glyph-name="agrave" unicode="&#xe0;" horiz-adv-x="1189" 
d="M391 1401q-69 22 -93 67t-1 107q24 61 71 76.5t115 -17.5l279 -137q129 -63 94 -147q-35 -87 -170 -43zM575 1188q238 0 384.5 -110.5t146.5 -291.5v-618q0 -91 -42.5 -139.5t-123.5 -48.5q-144 0 -172 143q-127 -143 -348 -143q-169 0 -273 95t-104 251v67
q0 145 109.5 233.5t289.5 88.5h295v47q0 67 -45 108t-117 41q-81 0 -165 -63q-16 -12 -28.5 -19.5t-33 -15.5t-46 -7.5t-54.5 9.5q-47 15 -79 41t-44.5 55t-11.5 58.5t16 52.5q51 81 176 123.5t270 42.5zM537 266q89 0 144.5 48t55.5 126v29h-207q-52 0 -85 -25t-33 -65v-8
q0 -47 34 -76t91 -29z" />
    <glyph glyph-name="aacute" unicode="&#xe1;" horiz-adv-x="1189" 
d="M485 1307q-135 -44 -170 43q-35 84 95 147l278 137q66 32 116 16.5t73 -75.5q23 -61 -2.5 -106.5t-94.5 -67.5zM575 1188q238 0 384.5 -110.5t146.5 -291.5v-618q0 -91 -42.5 -139.5t-123.5 -48.5q-144 0 -172 143q-127 -143 -348 -143q-169 0 -273 95t-104 251v67
q0 145 109.5 233.5t289.5 88.5h295v47q0 67 -45 108t-117 41q-81 0 -165 -63q-16 -12 -28.5 -19.5t-33 -15.5t-46 -7.5t-54.5 9.5q-47 15 -79 41t-44.5 55t-11.5 58.5t16 52.5q51 81 176 123.5t270 42.5zM537 266q89 0 144.5 48t55.5 126v29h-207q-52 0 -85 -25t-33 -65v-8
q0 -47 34 -76t91 -29z" />
    <glyph glyph-name="acircumflex" unicode="&#xe2;" horiz-adv-x="1189" 
d="M399 1296q-80 -47 -131 25q-53 77 19 137l229 193q32 28 70 28q37 0 69 -28l230 -193q72 -60 22 -131q-54 -78 -135 -31l-186 109zM575 1188q238 0 384.5 -110.5t146.5 -291.5v-618q0 -91 -42.5 -139.5t-123.5 -48.5q-144 0 -172 143q-127 -143 -348 -143q-169 0 -273 95
t-104 251v67q0 145 109.5 233.5t289.5 88.5h295v47q0 67 -45 108t-117 41q-81 0 -165 -63q-16 -12 -28.5 -19.5t-33 -15.5t-46 -7.5t-54.5 9.5q-47 15 -79 41t-44.5 55t-11.5 58.5t16 52.5q51 81 176 123.5t270 42.5zM537 266q89 0 144.5 48t55.5 126v29h-207q-52 0 -85 -25
t-33 -65v-8q0 -47 34 -76t91 -29z" />
    <glyph glyph-name="atilde" unicode="&#xe3;" horiz-adv-x="1189" 
d="M248 1360q-42 27 -52 62.5t17 76.5q113 150 252 150q52 0 136.5 -37t125.5 -37q39 0 64 14q32 18 48.5 24.5t39 6.5t43.5 -14q41 -27 51.5 -63t-17.5 -77q-112 -149 -251 -149q-53 0 -138 37t-127 37q-36 0 -71 -21q-37 -24 -60.5 -27t-60.5 17zM575 1188
q238 0 384.5 -110.5t146.5 -291.5v-618q0 -91 -42.5 -139.5t-123.5 -48.5q-144 0 -172 143q-127 -143 -348 -143q-169 0 -273 95t-104 251v67q0 145 109.5 233.5t289.5 88.5h295v47q0 67 -45 108t-117 41q-81 0 -165 -63q-16 -12 -28.5 -19.5t-33 -15.5t-46 -7.5t-54.5 9.5
q-47 15 -79 41t-44.5 55t-11.5 58.5t16 52.5q51 81 176 123.5t270 42.5zM537 266q89 0 144.5 48t55.5 126v29h-207q-52 0 -85 -25t-33 -65v-8q0 -47 34 -76t91 -29z" />
    <glyph glyph-name="adieresis" unicode="&#xe4;" horiz-adv-x="1189" 
d="M385 1315q-83 0 -127.5 42t-44.5 118v14q0 77 44.5 118.5t127.5 41.5t127.5 -41.5t44.5 -118.5v-14q0 -76 -44 -118t-128 -42zM786 1315q-83 0 -127.5 42t-44.5 118v14q0 77 44.5 118.5t127.5 41.5t127.5 -41.5t44.5 -118.5v-14q0 -76 -44 -118t-128 -42zM575 1188
q238 0 384.5 -110.5t146.5 -291.5v-618q0 -91 -42.5 -139.5t-123.5 -48.5q-144 0 -172 143q-127 -143 -348 -143q-169 0 -273 95t-104 251v67q0 145 109.5 233.5t289.5 88.5h295v47q0 67 -45 108t-117 41q-81 0 -165 -63q-16 -12 -28.5 -19.5t-33 -15.5t-46 -7.5t-54.5 9.5
q-47 15 -79 41t-44.5 55t-11.5 58.5t16 52.5q51 81 176 123.5t270 42.5zM537 266q89 0 144.5 48t55.5 126v29h-207q-52 0 -85 -25t-33 -65v-8q0 -47 34 -76t91 -29z" />
    <glyph glyph-name="aring" unicode="&#xe5;" horiz-adv-x="1189" 
d="M586 1208q-138 0 -221.5 65.5t-83.5 172.5v27q0 107 83.5 172t221.5 65t221.5 -65t83.5 -172v-27q0 -107 -83.5 -172.5t-221.5 -65.5zM494 1466v-14q0 -28 25.5 -44.5t66.5 -16.5t66.5 16.5t25.5 44.5v14q0 28 -25.5 45t-66.5 17t-66.5 -17t-25.5 -45zM575 1188
q238 0 384.5 -110.5t146.5 -291.5v-618q0 -91 -42.5 -139.5t-123.5 -48.5q-144 0 -172 143q-127 -143 -348 -143q-169 0 -273 95t-104 251v67q0 145 109.5 233.5t289.5 88.5h295v47q0 67 -45 108t-117 41q-81 0 -165 -63q-16 -12 -28.5 -19.5t-33 -15.5t-46 -7.5t-54.5 9.5
q-47 15 -79 41t-44.5 55t-11.5 58.5t16 52.5q51 81 176 123.5t270 42.5zM537 266q89 0 144.5 48t55.5 126v29h-207q-52 0 -85 -25t-33 -65v-8q0 -47 34 -76t91 -29z" />
    <glyph glyph-name="ae" unicode="&#xe6;" horiz-adv-x="1894" 
d="M1315 1188q238 0 383 -138.5t145 -365.5v-68q0 -70 -38.5 -108.5t-108.5 -38.5h-590q1 -96 54 -154.5t138 -58.5q84 0 183 78q74 60 161 33q47 -14 79 -40t44.5 -55.5t11.5 -59t-16 -52.5q-54 -85 -180 -132.5t-258 -47.5q-134 0 -238 58t-165 163q-67 -105 -185 -163
t-272 -58q-189 0 -304.5 95t-115.5 251v67q0 145 109.5 233.5t289.5 88.5h295v47q0 67 -45 108t-117 41q-81 0 -165 -63q-16 -12 -28.5 -19.5t-33 -15.5t-46 -7.5t-54.5 9.5q-47 14 -79 40t-44.5 55.5t-11.5 59t16 52.5q51 81 176 123.5t270 42.5q123 0 217 -49t146 -138
q63 89 159.5 138t217.5 49zM1290 911q-78 0 -128 -53.5t-56 -142.5h369q-6 89 -56.5 142.5t-128.5 53.5zM737 440v29h-207q-52 0 -85 -25t-33 -65v-8q0 -47 34 -76t91 -29q89 0 144.5 48t55.5 126z" />
    <glyph glyph-name="ccedilla" unicode="&#xe7;" horiz-adv-x="1132" 
d="M954 389q50 -16 78.5 -51t31.5 -71t-3 -70q-23 -87 -110 -138.5t-208 -70.5l-14 -35q73 -25 112.5 -66.5t39.5 -93.5v-6q0 -94 -99 -150.5t-262 -56.5h-2q-54 0 -84.5 27t-30.5 76q0 89 78 102q37 6 37 25v2q0 10 -6.5 15.5t-24.5 16.5q-23 13 -28.5 27t0.5 35l24 86
q-201 35 -318.5 169.5t-117.5 332.5v180q0 232 157 373t414 141q327 0 422 -193q10 -20 11.5 -48t-6 -57.5t-32 -56t-63.5 -38.5q-122 -39 -192 22q-59 53 -140 53q-91 0 -146.5 -56t-55.5 -148v-164q0 -92 56.5 -148.5t148.5 -56.5q86 0 151 63q70 66 182 29z" />
    <glyph glyph-name="egrave" unicode="&#xe8;" horiz-adv-x="1206" 
d="M410 1401q-69 22 -93.5 67t-1.5 107q24 61 71.5 76.5t115.5 -17.5l278 -137q129 -63 94 -147q-35 -87 -169 -43zM604 1188q249 0 401 -138.5t152 -365.5v-68q0 -70 -38.5 -108.5t-108.5 -38.5h-590q1 -96 54 -154.5t138 -58.5q84 0 183 78q74 60 161 33q47 -14 79 -40
t44.5 -55.5t11.5 -59t-16 -52.5q-55 -86 -184.5 -133t-278.5 -47q-252 0 -406.5 138t-154.5 365v201q0 227 152 365.5t401 138.5zM604 911q-78 0 -128 -53.5t-56 -142.5h368q-6 89 -56 142.5t-128 53.5z" />
    <glyph glyph-name="eacute" unicode="&#xe9;" horiz-adv-x="1206" 
d="M504 1307q-135 -44 -170 43q-35 84 94 147l279 137q66 32 115.5 16.5t72.5 -75.5q23 -61 -2 -106.5t-94 -67.5zM604 1188q249 0 401 -138.5t152 -365.5v-68q0 -70 -38.5 -108.5t-108.5 -38.5h-590q1 -96 54 -154.5t138 -58.5q84 0 183 78q74 60 161 33q47 -14 79 -40
t44.5 -55.5t11.5 -59t-16 -52.5q-55 -86 -184.5 -133t-278.5 -47q-252 0 -406.5 138t-154.5 365v201q0 227 152 365.5t401 138.5zM604 911q-78 0 -128 -53.5t-56 -142.5h368q-6 89 -56 142.5t-128 53.5z" />
    <glyph glyph-name="ecircumflex" unicode="&#xea;" horiz-adv-x="1206" 
d="M418 1296q-80 -47 -131 25q-53 77 18 137l230 193q32 28 69 28q38 0 70 -28l229 -193q72 -61 23 -131q-54 -78 -135 -31l-187 109zM604 1188q249 0 401 -138.5t152 -365.5v-68q0 -70 -38.5 -108.5t-108.5 -38.5h-590q1 -96 54 -154.5t138 -58.5q84 0 183 78q74 60 161 33
q47 -14 79 -40t44.5 -55.5t11.5 -59t-16 -52.5q-55 -86 -184.5 -133t-278.5 -47q-252 0 -406.5 138t-154.5 365v201q0 227 152 365.5t401 138.5zM604 911q-78 0 -128 -53.5t-56 -142.5h368q-6 89 -56 142.5t-128 53.5z" />
    <glyph glyph-name="edieresis" unicode="&#xeb;" horiz-adv-x="1206" 
d="M403 1315q-83 0 -127.5 42t-44.5 118v14q0 77 44.5 118.5t127.5 41.5t127.5 -41.5t44.5 -118.5v-14q0 -76 -44 -118t-128 -42zM805 1315q-83 0 -127.5 42t-44.5 118v14q0 77 44.5 118.5t127.5 41.5t127.5 -41.5t44.5 -118.5v-14q0 -76 -44 -118t-128 -42zM604 1188
q249 0 401 -138.5t152 -365.5v-68q0 -70 -38.5 -108.5t-108.5 -38.5h-590q1 -96 54 -154.5t138 -58.5q84 0 183 78q74 60 161 33q47 -14 79 -40t44.5 -55.5t11.5 -59t-16 -52.5q-55 -86 -184.5 -133t-278.5 -47q-252 0 -406.5 138t-154.5 365v201q0 227 152 365.5t401 138.5
zM604 911q-78 0 -128 -53.5t-56 -142.5h368q-6 89 -56 142.5t-128 53.5z" />
    <glyph glyph-name="igrave" unicode="&#xec;" horiz-adv-x="552" 
d="M473 1358q-44 -84 -174 -27l-160 72q-137 62 -78 180q28 57 79 65.5t112 -32.5l147 -98q119 -78 74 -160zM276 -20q-89 0 -136.5 48.5t-47.5 139.5v831q0 91 47.5 140t136.5 49t137 -49t48 -140v-831q0 -91 -47.5 -139.5t-137.5 -48.5z" />
    <glyph glyph-name="iacute" unicode="&#xed;" horiz-adv-x="552" 
d="M256 1331q-130 -57 -174 27q-45 82 74 160l147 98q61 41 112 32.5t79 -65.5q59 -118 -78 -180zM276 -20q-89 0 -136.5 48.5t-47.5 139.5v831q0 91 47.5 140t136.5 49t137 -49t48 -140v-831q0 -91 -47.5 -139.5t-137.5 -48.5z" />
    <glyph glyph-name="icircumflex" unicode="&#xee;" horiz-adv-x="552" 
d="M152 1315q-86 -59 -140 10q-61 79 13 150l176 165q38 35 75 35q38 0 76 -35l176 -165q73 -70 23 -136q-64 -83 -150 -24l-125 84zM276 -20q-89 0 -136.5 48.5t-47.5 139.5v831q0 91 47.5 140t136.5 49t137 -49t48 -140v-831q0 -91 -47.5 -139.5t-137.5 -48.5z" />
    <glyph glyph-name="idieresis" unicode="&#xef;" horiz-adv-x="552" 
d="M125 1315q-63 0 -97 33t-34 92v84q0 60 34 92.5t97 32.5t97 -32.5t34 -92.5v-84q0 -59 -33.5 -92t-97.5 -33zM428 1315q-63 0 -97 33t-34 92v84q0 60 34 92.5t97 32.5t97 -32.5t34 -92.5v-84q0 -59 -33.5 -92t-97.5 -33zM276 -20q-89 0 -136.5 48.5t-47.5 139.5v831
q0 91 47.5 140t136.5 49t137 -49t48 -140v-831q0 -91 -47.5 -139.5t-137.5 -48.5z" />
    <glyph glyph-name="eth" unicode="&#xf0;" horiz-adv-x="1243" 
d="M958 1362q224 -238 224 -606v-285q0 -221 -156.5 -356t-411.5 -135q-256 0 -412.5 135t-156.5 356v123q0 221 126 356t333 135q172 0 297 -86q-62 139 -162 232l-272 -111q-114 -47 -164 68q-23 54 -5.5 96.5t74.5 65.5l97 39q-45 12 -86 18q-67 9 -98 49t-19 98
q13 58 49 78t98 15q225 -17 414 -113l164 68q117 48 164 -68q46 -114 -72 -162zM813 481v103q0 83 -55 133.5t-144 50.5q-91 0 -145.5 -50.5t-54.5 -133.5v-103q0 -83 54.5 -133.5t145.5 -50.5q89 0 144 50.5t55 133.5z" />
    <glyph glyph-name="ntilde" unicode="&#xf1;" horiz-adv-x="1257" 
d="M291 1360q-42 27 -52 62.5t17 76.5q112 150 252 150q52 0 136.5 -37t125.5 -37q39 0 64 14q32 18 48.5 24.5t39 6.5t43.5 -14q41 -27 51.5 -63t-17.5 -77q-112 -149 -251 -149q-53 0 -138 37t-127 37q-37 0 -71 -21q-37 -24 -60.5 -27t-60.5 17zM754 1188
q189 0 304.5 -120t115.5 -316v-584q0 -91 -47.5 -139.5t-137.5 -48.5q-89 0 -136.5 48.5t-47.5 139.5v522q0 81 -47.5 130.5t-124.5 49.5t-124.5 -49.5t-47.5 -130.5v-522q0 -91 -47.5 -139.5t-137.5 -48.5q-89 0 -136.5 48.5t-47.5 139.5v831q0 91 43.5 140t124.5 49
q143 0 168 -139q123 139 326 139z" />
    <glyph glyph-name="ograve" unicode="&#xf2;" horiz-adv-x="1234" 
d="M889 1350q-35 -87 -170 -43l-295 94q-69 22 -93 67t-1 107q24 61 71 76.5t115 -17.5l279 -137q129 -63 94 -147zM618 -20q-256 0 -412.5 141t-156.5 371v184q0 230 156.5 371t412.5 141q255 0 411.5 -141t156.5 -371v-184q0 -230 -156.5 -371t-411.5 -141zM618 297
q89 0 144 56.5t55 148.5v164q0 92 -55 148t-144 56q-91 0 -145.5 -56t-54.5 -148v-164q0 -92 54.5 -148.5t145.5 -56.5z" />
    <glyph glyph-name="oacute" unicode="&#xf3;" horiz-adv-x="1234" 
d="M518 1307q-135 -44 -170 43q-35 84 94 147l279 137q66 32 115.5 16.5t72.5 -75.5q23 -61 -2 -106.5t-94 -67.5zM618 -20q-256 0 -412.5 141t-156.5 371v184q0 230 156.5 371t412.5 141q255 0 411.5 -141t156.5 -371v-184q0 -230 -156.5 -371t-411.5 -141zM618 297
q89 0 144 56.5t55 148.5v164q0 92 -55 148t-144 56q-91 0 -145.5 -56t-54.5 -148v-164q0 -92 54.5 -148.5t145.5 -56.5z" />
    <glyph glyph-name="ocircumflex" unicode="&#xf4;" horiz-adv-x="1234" 
d="M301 1321q-53 77 18 137l230 193q32 28 69 28q38 0 70 -28l230 -193q72 -60 22 -131q-54 -78 -135 -31l-187 109l-186 -109q-80 -47 -131 25zM618 -20q-256 0 -412.5 141t-156.5 371v184q0 230 156.5 371t412.5 141q255 0 411.5 -141t156.5 -371v-184q0 -230 -156.5 -371
t-411.5 -141zM618 297q89 0 144 56.5t55 148.5v164q0 92 -55 148t-144 56q-91 0 -145.5 -56t-54.5 -148v-164q0 -92 54.5 -148.5t145.5 -56.5z" />
    <glyph glyph-name="otilde" unicode="&#xf5;" horiz-adv-x="1234" 
d="M401 1370q-37 -24 -60 -27t-60 17q-42 27 -52 62.5t17 76.5q112 150 252 150q52 0 136.5 -37t125.5 -37q38 0 63 14q32 18 48.5 24.5t39 6.5t43.5 -14q42 -27 52 -63t-17 -77q-112 -149 -252 -149q-53 0 -137.5 37t-126.5 37q-37 0 -72 -21zM618 -20q-256 0 -412.5 141
t-156.5 371v184q0 230 156.5 371t412.5 141q255 0 411.5 -141t156.5 -371v-184q0 -230 -156.5 -371t-411.5 -141zM618 297q89 0 144 56.5t55 148.5v164q0 92 -55 148t-144 56q-91 0 -145.5 -56t-54.5 -148v-164q0 -92 54.5 -148.5t145.5 -56.5z" />
    <glyph glyph-name="odieresis" unicode="&#xf6;" horiz-adv-x="1234" 
d="M418 1315q-83 0 -127.5 42t-44.5 118v14q0 77 44.5 118.5t127.5 41.5t127.5 -41.5t44.5 -118.5v-14q0 -76 -44 -118t-128 -42zM819 1315q-83 0 -127.5 42t-44.5 118v14q0 77 44.5 118.5t127.5 41.5t127.5 -41.5t44.5 -118.5v-14q0 -76 -44 -118t-128 -42zM618 -20
q-256 0 -412.5 141t-156.5 371v184q0 230 156.5 371t412.5 141q255 0 411.5 -141t156.5 -371v-184q0 -230 -156.5 -371t-411.5 -141zM618 297q89 0 144 56.5t55 148.5v164q0 92 -55 148t-144 56q-91 0 -145.5 -56t-54.5 -148v-164q0 -92 54.5 -148.5t145.5 -56.5z" />
    <glyph glyph-name="divide" unicode="&#xf7;" horiz-adv-x="1155" 
d="M578 813q-89 0 -137 38t-48 107v3q0 70 48 107.5t137 37.5t136.5 -37.5t47.5 -107.5v-3q0 -70 -47 -107.5t-137 -37.5zM209 449q-71 0 -109.5 37t-38.5 106t38.5 106t109.5 37h737q71 0 109.5 -37t38.5 -106t-38.5 -106t-109.5 -37h-737zM578 78q-89 0 -137 38t-48 107v2
q0 70 48 108t137 38t136.5 -37.5t47.5 -108.5v-2q0 -70 -47 -107.5t-137 -37.5z" />
    <glyph glyph-name="oslash" unicode="&#xf8;" horiz-adv-x="1239" 
d="M1085 989q103 -131 103 -313v-184q0 -230 -156 -371t-411 -141q-154 0 -283 55l-6 -8q-75 -97 -168 -25q-46 34 -51 77.5t32 90.5l9 10q-103 128 -103 312v184q0 230 157 371t413 141q156 0 274 -53l6 6q37 46 81.5 52.5t90.5 -28.5q46 -34 51 -78.5t-32 -91.5zM420 666
v-144l264 340q-27 8 -63 8q-91 0 -146 -56t-55 -148zM621 297q89 0 143.5 56.5t54.5 148.5v145l-268 -340q38 -10 70 -10z" />
    <glyph glyph-name="ugrave" unicode="&#xf9;" horiz-adv-x="1236" 
d="M426 1401q-69 22 -93 67t-1 107q24 61 71 76.5t115 -17.5l279 -137q129 -63 94 -147q-35 -87 -170 -43zM961 1188q89 0 136.5 -49t47.5 -140v-831q0 -91 -42.5 -139.5t-123.5 -48.5q-139 0 -170 135q-119 -135 -315 -135q-185 0 -297.5 117t-112.5 309v593q0 91 47.5 140
t136.5 49t137 -49t48 -140v-532q0 -76 44.5 -123t116.5 -47t117 47t45 123v532q0 91 48 140t137 49z" />
    <glyph glyph-name="uacute" unicode="&#xfa;" horiz-adv-x="1236" 
d="M520 1307q-135 -44 -170 43q-35 84 94 147l279 137q66 32 115.5 16.5t72.5 -75.5q23 -61 -2 -106.5t-94 -67.5zM961 1188q89 0 136.5 -49t47.5 -140v-831q0 -91 -42.5 -139.5t-123.5 -48.5q-139 0 -170 135q-119 -135 -315 -135q-185 0 -297.5 117t-112.5 309v593
q0 91 47.5 140t136.5 49t137 -49t48 -140v-532q0 -76 44.5 -123t116.5 -47t117 47t45 123v532q0 91 48 140t137 49z" />
    <glyph glyph-name="ucircumflex" unicode="&#xfb;" horiz-adv-x="1236" 
d="M434 1296q-80 -47 -131 25q-53 77 19 137l229 193q32 28 70 28q37 0 69 -28l230 -193q72 -60 22 -131q-54 -78 -135 -31l-186 109zM961 1188q89 0 136.5 -49t47.5 -140v-831q0 -91 -42.5 -139.5t-123.5 -48.5q-139 0 -170 135q-119 -135 -315 -135q-185 0 -297.5 117
t-112.5 309v593q0 91 47.5 140t136.5 49t137 -49t48 -140v-532q0 -76 44.5 -123t116.5 -47t117 47t45 123v532q0 91 48 140t137 49z" />
    <glyph glyph-name="udieresis" unicode="&#xfc;" horiz-adv-x="1236" 
d="M420 1315q-83 0 -127.5 42t-44.5 118v14q0 77 44.5 118.5t127.5 41.5t127.5 -41.5t44.5 -118.5v-14q0 -76 -44 -118t-128 -42zM821 1315q-83 0 -127.5 42t-44.5 118v14q0 77 44.5 118.5t127.5 41.5t127.5 -41.5t44.5 -118.5v-14q0 -76 -44 -118t-128 -42zM961 1188
q89 0 136.5 -49t47.5 -140v-831q0 -91 -42.5 -139.5t-123.5 -48.5q-139 0 -170 135q-119 -135 -315 -135q-185 0 -297.5 117t-112.5 309v593q0 91 47.5 140t136.5 49t137 -49t48 -140v-532q0 -76 44.5 -123t116.5 -47t117 47t45 123v532q0 91 48 140t137 49z" />
    <glyph glyph-name="yacute" unicode="&#xfd;" horiz-adv-x="1159" 
d="M477 1307q-135 -44 -170 43q-35 84 94 147l279 137q66 32 115.5 16.5t72.5 -75.5q23 -61 -2 -106.5t-94 -67.5zM985 1176q85 -28 113.5 -90t-2.5 -148l-344 -977q-66 -189 -200 -295t-323 -106q-69 0 -107 38.5t-38 108.5q0 68 32 103.5t93 35.5q55 0 100 29.5t62 77.5
l30 82l-335 903q-32 88 -4.5 150t112.5 88q86 26 147 -5.5t89 -117.5l184 -570l160 564q26 89 86 123t145 6z" />
    <glyph glyph-name="thorn" unicode="&#xfe;" horiz-adv-x="1282" 
d="M772 1188q206 0 331.5 -132.5t125.5 -350.5v-242q0 -218 -125.5 -350.5t-331.5 -132.5q-189 0 -311 116v-348q0 -91 -47.5 -139.5t-137.5 -48.5q-89 0 -136.5 48.5t-47.5 139.5v1712q0 91 47.5 140t136.5 49t137 -49t48 -140v-389q123 117 311 117zM860 502v164
q0 92 -54.5 148t-143.5 56q-91 0 -146 -56t-55 -148v-164q0 -92 55 -148.5t146 -56.5q89 0 143.5 56.5t54.5 148.5z" />
    <glyph glyph-name="ydieresis" unicode="&#xff;" horiz-adv-x="1159" 
d="M377 1315q-83 0 -127.5 42t-44.5 118v14q0 77 44.5 118.5t127.5 41.5t127.5 -41.5t44.5 -118.5v-14q0 -76 -44 -118t-128 -42zM778 1315q-83 0 -127.5 42t-44.5 118v14q0 77 44.5 118.5t127.5 41.5t127.5 -41.5t44.5 -118.5v-14q0 -76 -44 -118t-128 -42zM985 1176
q85 -28 113.5 -90t-2.5 -148l-344 -977q-66 -189 -200 -295t-323 -106q-69 0 -107 38.5t-38 108.5q0 68 32 103.5t93 35.5q55 0 100 29.5t62 77.5l30 82l-335 903q-32 88 -4.5 150t112.5 88q86 26 147 -5.5t89 -117.5l184 -570l160 564q26 89 86 123t145 6z" />
    <glyph glyph-name="Amacron" unicode="&#x100;" horiz-adv-x="1533" 
d="M547 1786q-63 0 -97 33.5t-34 95.5q0 61 34 94t97 33h438q63 0 97 -33t34 -94q0 -63 -34 -96t-97 -33h-438zM1470 227q28 -91 -4 -151.5t-120 -85.5q-89 -25 -149.5 8.5t-86.5 122.5l-45 153h-596l-45 -153q-26 -89 -86.5 -122.5t-149.5 -8.5q-88 25 -120.5 86t-4.5 151
l367 1188q33 107 114.5 165t203.5 58h38q122 0 203.5 -58t114.5 -165zM567 602h400l-199 678z" />
    <glyph glyph-name="amacron" unicode="&#x101;" horiz-adv-x="1189" 
d="M377 1372q-63 0 -97 33.5t-34 95.5q0 61 34 94t97 33h418q63 0 97 -33t34 -94q0 -63 -34 -96t-97 -33h-418zM575 1188q238 0 384.5 -110.5t146.5 -291.5v-618q0 -91 -42.5 -139.5t-123.5 -48.5q-144 0 -172 143q-127 -143 -348 -143q-169 0 -273 95t-104 251v67
q0 145 109.5 233.5t289.5 88.5h295v47q0 67 -45 108t-117 41q-81 0 -165 -63q-16 -12 -28.5 -19.5t-33 -15.5t-46 -7.5t-54.5 9.5q-47 15 -79 41t-44.5 55t-11.5 58.5t16 52.5q51 81 176 123.5t270 42.5zM537 266q89 0 144.5 48t55.5 126v29h-207q-52 0 -85 -25t-33 -65v-8
q0 -47 34 -76t91 -29z" />
    <glyph glyph-name="Abreve" unicode="&#x102;" horiz-adv-x="1533" 
d="M766 1708q-130 0 -223 68.5t-121 177.5q-15 59 19 100t98 41q35 0 64.5 -20.5t45.5 -51.5q24 -45 51 -58t66 -13q24 0 40.5 3.5t38.5 20t38 47.5t45.5 51.5t64.5 20.5q64 0 98 -41t19 -100q-28 -109 -121 -177.5t-223 -68.5zM1470 227q28 -91 -4 -151.5t-120 -85.5
q-89 -25 -149.5 8.5t-86.5 122.5l-45 153h-596l-45 -153q-26 -89 -86.5 -122.5t-149.5 -8.5q-88 25 -120.5 86t-4.5 151l367 1188q33 107 114.5 165t203.5 58h38q122 0 203.5 -58t114.5 -165zM567 602h400l-199 678z" />
    <glyph glyph-name="abreve" unicode="&#x103;" horiz-adv-x="1189" 
d="M586 1268q-130 0 -223 68t-121 177q-15 59 18.5 100.5t97.5 41.5q35 0 65 -20.5t46 -51.5q24 -45 51 -58.5t66 -13.5q37 0 64.5 13.5t51.5 58.5q16 31 46 51.5t65 20.5q64 0 98 -41.5t19 -100.5q-28 -109 -121 -177t-223 -68zM575 1188q238 0 384.5 -110.5t146.5 -291.5
v-618q0 -91 -42.5 -139.5t-123.5 -48.5q-144 0 -172 143q-127 -143 -348 -143q-169 0 -273 95t-104 251v67q0 145 109.5 233.5t289.5 88.5h295v47q0 67 -45 108t-117 41q-81 0 -165 -63q-16 -12 -28.5 -19.5t-33 -15.5t-46 -7.5t-54.5 9.5q-47 15 -79 41t-44.5 55
t-11.5 58.5t16 52.5q51 81 176 123.5t270 42.5zM537 266q89 0 144.5 48t55.5 126v29h-207q-52 0 -85 -25t-33 -65v-8q0 -47 34 -76t91 -29z" />
    <glyph glyph-name="Aogonek" unicode="&#x104;" horiz-adv-x="1533" 
d="M1475 -164q38 -26 52.5 -48.5t14.5 -68.5q0 -77 -56 -118t-161 -41h-2q-126 0 -202.5 67.5t-76.5 179.5v7q0 110 119 209q-36 39 -53 98l-45 153h-596l-45 -153q-26 -89 -86.5 -122.5t-149.5 -8.5q-88 25 -120.5 86t-4.5 151l367 1188q33 107 114.5 165t203.5 58h38
q122 0 203.5 -58t114.5 -165l366 -1188q34 -103 -16 -172q-51 -68 -51 -121v-4q0 -44 72 -94zM567 602h400l-199 678z" />
    <glyph glyph-name="aogonek" unicode="&#x105;" horiz-adv-x="1189" 
d="M1059 -164q38 -26 52.5 -48.5t14.5 -68.5q0 -77 -56 -118t-161 -41h-2q-126 0 -202 67.5t-76 179.5v7q0 66 44 126.5t124 108.5q-19 28 -29 74q-127 -143 -348 -143q-169 0 -273 95t-104 251v67q0 145 109.5 233.5t289.5 88.5h295v47q0 67 -45 108t-117 41
q-81 0 -165 -63q-16 -12 -28.5 -19.5t-33 -15.5t-46 -7.5t-54.5 9.5q-47 15 -79 41t-44.5 55t-11.5 58.5t16 52.5q51 81 176 123.5t270 42.5q238 0 384.5 -110.5t146.5 -291.5v-618q0 -123 -76 -168q-43 -31 -43 -76v-4q0 -23 16 -40t56 -44zM537 266q89 0 144.5 48
t55.5 126v29h-207q-52 0 -85 -25t-33 -65v-8q0 -47 34 -76t91 -29z" />
    <glyph glyph-name="Cacute" unicode="&#x106;" horiz-adv-x="1431" 
d="M670 1729q-138 -35 -166 53q-28 85 104 139l287 117q69 28 117 9.5t65 -79.5q38 -130 -108 -166zM784 -20q-324 0 -521 179t-197 472v366q0 293 197 472.5t519 179.5q174 0 324 -62t229 -188q20 -31 21 -76.5t-25.5 -92t-81.5 -67.5q-50 -22 -96.5 -17t-76 19t-52.5 35
q-62 60 -126.5 85.5t-115.5 25.5q-149 0 -240 -91.5t-91 -242.5v-326q0 -151 91 -242.5t242 -91.5q143 0 252 117q88 95 219 41q42 -17 70 -45t38 -57.5t10 -55.5t-9 -45q-70 -146 -226.5 -219t-353.5 -73z" />
    <glyph glyph-name="cacute" unicode="&#x107;" horiz-adv-x="1132" 
d="M518 1307q-135 -44 -170 43q-35 84 94 147l279 137q66 32 115.5 16.5t72.5 -75.5q23 -61 -2 -106.5t-94 -67.5zM621 -20q-258 0 -416 141t-158 373v180q0 232 157 373t414 141q327 0 422 -193q10 -20 11.5 -48t-6 -57.5t-32 -56t-63.5 -38.5q-122 -39 -192 22
q-59 53 -140 53q-91 0 -146.5 -56t-55.5 -148v-164q0 -92 56.5 -148.5t148.5 -56.5q86 0 151 63q70 66 182 29q50 -16 78.5 -51t31.5 -71t-3 -70q-15 -57 -60 -101t-108 -68t-131.5 -36t-140.5 -12z" />
    <glyph glyph-name="Cdotaccent" unicode="&#x10a;" horiz-adv-x="1431" 
d="M782 1729q-102 0 -157.5 43.5t-55.5 121.5v2q0 80 55 123t158 43t158 -43t55 -123v-2q0 -79 -55 -122t-158 -43zM784 -20q-324 0 -521 179t-197 472v366q0 293 197 472.5t519 179.5q174 0 324 -62t229 -188q20 -31 21 -76.5t-25.5 -92t-81.5 -67.5q-50 -22 -96.5 -17
t-76 19t-52.5 35q-62 60 -126.5 85.5t-115.5 25.5q-149 0 -240 -91.5t-91 -242.5v-326q0 -151 91 -242.5t242 -91.5q143 0 252 117q88 95 219 41q42 -17 70 -45t38 -57.5t10 -55.5t-9 -45q-70 -146 -226.5 -219t-353.5 -73z" />
    <glyph glyph-name="cdotaccent" unicode="&#x10b;" horiz-adv-x="1132" 
d="M618 1315q-89 0 -136.5 43.5t-47.5 122.5v2q0 80 47.5 123t136.5 43t137 -43t48 -123v-2q0 -79 -47.5 -122.5t-137.5 -43.5zM621 -20q-258 0 -416 141t-158 373v180q0 232 157 373t414 141q327 0 422 -193q10 -20 11.5 -48t-6 -57.5t-32 -56t-63.5 -38.5
q-122 -39 -192 22q-59 53 -140 53q-91 0 -146.5 -56t-55.5 -148v-164q0 -92 56.5 -148.5t148.5 -56.5q86 0 151 63q70 66 182 29q50 -16 78.5 -51t31.5 -71t-3 -70q-15 -57 -60 -101t-108 -68t-131.5 -36t-140.5 -12z" />
    <glyph glyph-name="Ccaron" unicode="&#x10c;" horiz-adv-x="1431" 
d="M782 1692q-37 0 -69 28l-230 193q-71 60 -18 137q51 72 131 25l186 -109l187 109q81 47 135 -31q49 -70 -23 -131l-229 -193q-32 -28 -70 -28zM784 -20q-324 0 -521 179t-197 472v366q0 293 197 472.5t519 179.5q174 0 324 -62t229 -188q20 -31 21 -76.5t-25.5 -92
t-81.5 -67.5q-50 -22 -96.5 -17t-76 19t-52.5 35q-62 60 -126.5 85.5t-115.5 25.5q-149 0 -240 -91.5t-91 -242.5v-326q0 -151 91 -242.5t242 -91.5q143 0 252 117q88 95 219 41q42 -17 70 -45t38 -57.5t10 -55.5t-9 -45q-70 -146 -226.5 -219t-353.5 -73z" />
    <glyph glyph-name="ccaron" unicode="&#x10d;" horiz-adv-x="1132" 
d="M618 1257q-36 0 -69 29l-230 193q-71 60 -18 137q50 71 131 24l186 -108l187 108q82 48 135 -30q50 -71 -22 -131l-230 -193q-33 -29 -70 -29zM621 -20q-258 0 -416 141t-158 373v180q0 232 157 373t414 141q327 0 422 -193q10 -20 11.5 -48t-6 -57.5t-32 -56
t-63.5 -38.5q-122 -39 -192 22q-59 53 -140 53q-91 0 -146.5 -56t-55.5 -148v-164q0 -92 56.5 -148.5t148.5 -56.5q86 0 151 63q70 66 182 29q50 -16 78.5 -51t31.5 -71t-3 -70q-15 -57 -60 -101t-108 -68t-131.5 -36t-140.5 -12z" />
    <glyph glyph-name="Dcaron" unicode="&#x10e;" horiz-adv-x="1521" 
d="M772 1692q-38 0 -70 28l-229 193q-71 60 -18 137q51 72 131 25l186 -109l186 109q82 48 136 -31q49 -70 -23 -131l-229 -193q-32 -28 -70 -28zM283 0q-82 0 -125 43t-43 125v1292q0 82 43 125t125 43h487q309 0 497.5 -176t188.5 -465v-346q0 -289 -188.5 -465
t-497.5 -176h-487zM500 328h250q145 0 233 91.5t88 242.5v305q0 151 -88 242t-233 91h-250v-972z" />
    <glyph glyph-name="dcaron" unicode="&#x10f;" horiz-adv-x="1464" 
d="M1477 1645q65 -15 91.5 -63t4.5 -116l-80 -260q-40 -129 -135 -110t-78 153l35 273q9 71 53.5 104.5t108.5 18.5zM1006 1649q89 0 136.5 -49t47.5 -140v-1292q0 -91 -42.5 -139.5t-123.5 -48.5q-148 0 -170 151q-126 -151 -342 -151q-207 0 -333 132.5t-126 350.5v242
q0 218 126 350.5t333 132.5q186 0 309 -117v389q0 91 48 140t137 49zM623 297q89 0 143.5 56.5t54.5 148.5v164q0 92 -54.5 148t-143.5 56q-91 0 -146 -56t-55 -148v-164q0 -92 55 -148.5t146 -56.5z" />
    <glyph glyph-name="Dcroat" unicode="&#x110;" horiz-adv-x="1564" 
d="M813 1628q309 0 497.5 -176t188.5 -465v-346q0 -289 -188.5 -465t-497.5 -176h-487q-82 0 -125 43t-43 125v516h-2q-71 0 -109.5 37t-38.5 106t38.5 106.5t109.5 37.5h2v489q0 82 43 125t125 43h487zM1114 662v305q0 151 -88 242t-233 91h-250v-329h155q71 0 109.5 -37.5
t38.5 -106.5t-38.5 -106t-109.5 -37h-155v-356h250q145 0 233 91.5t88 242.5z" />
    <glyph glyph-name="dcroat" unicode="&#x111;" horiz-adv-x="1282" 
d="M1284 1409q0 -105 -94 -127v-1114q0 -91 -42.5 -139.5t-123.5 -48.5q-148 0 -170 151q-126 -151 -342 -151q-207 0 -333 132.5t-126 350.5v242q0 218 126 350.5t333 132.5q186 0 309 -117v205h-213q-71 0 -109 34.5t-38 98.5t38 98.5t109 34.5h226q38 107 172 107
q137 0 172 -111q106 -18 106 -129zM623 297q89 0 143.5 56.5t54.5 148.5v164q0 92 -54.5 148t-143.5 56q-91 0 -146 -56t-55 -148v-164q0 -92 55 -148.5t146 -56.5z" />
    <glyph glyph-name="Emacron" unicode="&#x112;" horiz-adv-x="1355" 
d="M489 1786q-63 0 -97 33.5t-34 95.5q0 61 34 94t97 33h439q63 0 97 -33t34 -94q0 -63 -34 -96t-97 -33h-439zM1137 328q82 0 125 -42t43 -122t-43 -122t-125 -42h-854q-82 0 -125 43t-43 125v1292q0 82 43 125t125 43h833q82 0 125 -42t43 -122t-43 -122t-125 -42h-616
v-309h575q82 0 125 -42t43 -122q0 -79 -43 -121t-125 -42h-575v-336h637z" />
    <glyph glyph-name="emacron" unicode="&#x113;" horiz-adv-x="1206" 
d="M395 1372q-63 0 -97 33.5t-34 95.5q0 61 34 94t97 33h418q63 0 97 -33t34 -94q0 -63 -34 -96t-97 -33h-418zM604 1188q249 0 401 -138.5t152 -365.5v-68q0 -70 -38.5 -108.5t-108.5 -38.5h-590q1 -96 54 -154.5t138 -58.5q84 0 183 78q74 60 161 33q47 -14 79 -40
t44.5 -55.5t11.5 -59t-16 -52.5q-55 -86 -184.5 -133t-278.5 -47q-252 0 -406.5 138t-154.5 365v201q0 227 152 365.5t401 138.5zM604 911q-78 0 -128 -53.5t-56 -142.5h368q-6 89 -56 142.5t-128 53.5z" />
    <glyph glyph-name="Edotaccent" unicode="&#x116;" horiz-adv-x="1355" 
d="M709 1729q-102 0 -157.5 43.5t-55.5 121.5v2q0 80 55 123t158 43t158 -43t55 -123v-2q0 -79 -55 -122t-158 -43zM1137 328q82 0 125 -42t43 -122t-43 -122t-125 -42h-854q-82 0 -125 43t-43 125v1292q0 82 43 125t125 43h833q82 0 125 -42t43 -122t-43 -122t-125 -42
h-616v-309h575q82 0 125 -42t43 -122q0 -79 -43 -121t-125 -42h-575v-336h637z" />
    <glyph glyph-name="edotaccent" unicode="&#x117;" horiz-adv-x="1206" 
d="M604 1315q-89 0 -136.5 43.5t-47.5 122.5v2q0 80 47.5 123t136.5 43t136.5 -43t47.5 -123v-2q0 -79 -47 -122.5t-137 -43.5zM604 1188q249 0 401 -138.5t152 -365.5v-68q0 -70 -38.5 -108.5t-108.5 -38.5h-590q1 -96 54 -154.5t138 -58.5q84 0 183 78q74 60 161 33
q47 -14 79 -40t44.5 -55.5t11.5 -59t-16 -52.5q-55 -86 -184.5 -133t-278.5 -47q-252 0 -406.5 138t-154.5 365v201q0 227 152 365.5t401 138.5zM604 911q-78 0 -128 -53.5t-56 -142.5h368q-6 89 -56 142.5t-128 53.5z" />
    <glyph glyph-name="Eogonek" unicode="&#x118;" horiz-adv-x="1355" 
d="M1247 -164q38 -26 53 -48.5t15 -68.5q0 -77 -56 -118t-161 -41h-2q-126 0 -202.5 67.5t-76.5 179.5v7q0 98 98 186h-632q-82 0 -125 43t-43 125v1292q0 82 43 125t125 43h833q82 0 125 -42t43 -122t-43 -122t-125 -42h-616v-309h575q82 0 125 -42t43 -122q0 -79 -43 -121
t-125 -42h-575v-336h637q82 0 125 -42t43 -122q0 -86 -52 -129q-47 -38 -62 -62.5t-15 -48.5v-4q0 -23 16 -40t55 -44z" />
    <glyph glyph-name="eogonek" unicode="&#x119;" horiz-adv-x="1206" 
d="M604 1188q249 0 401 -138.5t152 -365.5v-68q0 -70 -38.5 -108.5t-108.5 -38.5h-590q1 -96 54 -154.5t138 -58.5q84 0 183 78q74 60 161 33q47 -14 79 -40t44.5 -55.5t11.5 -59t-16 -52.5q-71 -113 -270 -158q-86 -37 -86 -84v-4q0 -19 16.5 -35t55.5 -43
q38 -26 52.5 -48.5t14.5 -68.5q0 -77 -56 -118t-161 -41h-2q-126 0 -202.5 67.5t-76.5 179.5v7q0 97 95 182q-186 40 -295 170t-109 317v201q0 227 152 365.5t401 138.5zM604 911q-78 0 -128 -53.5t-56 -142.5h368q-6 89 -56 142.5t-128 53.5z" />
    <glyph glyph-name="Ecaron" unicode="&#x11a;" horiz-adv-x="1355" 
d="M410 1913q-72 60 -19 137q51 72 131 25l187 -109l186 109q81 47 135 -31q50 -71 -22 -131l-230 -193q-32 -28 -69 -28q-38 0 -70 28zM1137 328q82 0 125 -42t43 -122t-43 -122t-125 -42h-854q-82 0 -125 43t-43 125v1292q0 82 43 125t125 43h833q82 0 125 -42t43 -122
t-43 -122t-125 -42h-616v-309h575q82 0 125 -42t43 -122q0 -79 -43 -121t-125 -42h-575v-336h637z" />
    <glyph glyph-name="ecaron" unicode="&#x11b;" horiz-adv-x="1206" 
d="M305 1479q-71 60 -18 137q50 71 131 24l186 -108l187 108q82 48 135 -30q49 -70 -23 -131l-229 -193q-33 -29 -70 -29q-36 0 -69 29zM604 1188q249 0 401 -138.5t152 -365.5v-68q0 -70 -38.5 -108.5t-108.5 -38.5h-590q1 -96 54 -154.5t138 -58.5q84 0 183 78
q74 60 161 33q47 -14 79 -40t44.5 -55.5t11.5 -59t-16 -52.5q-55 -86 -184.5 -133t-278.5 -47q-252 0 -406.5 138t-154.5 365v201q0 227 152 365.5t401 138.5zM604 911q-78 0 -128 -53.5t-56 -142.5h368q-6 89 -56 142.5t-128 53.5z" />
    <glyph glyph-name="Gbreve" unicode="&#x11e;" horiz-adv-x="1529" 
d="M782 1708q-130 0 -223 68.5t-121 177.5q-15 59 19 100t98 41q35 0 65 -20.5t46 -51.5q24 -45 50.5 -58t65.5 -13q24 0 40.5 3.5t38.5 20t38 47.5t46 51.5t65 20.5q64 0 97.5 -41t18.5 -100q-28 -109 -121 -177.5t-223 -68.5zM1305 991q82 0 125 -43t43 -125v-202
q0 -191 -87.5 -336.5t-247 -225t-368.5 -79.5q-317 0 -510.5 179t-193.5 472v366q0 293 197 472.5t519 179.5q174 0 324 -62t229 -188q20 -31 21 -76.5t-25.5 -92t-81.5 -67.5q-50 -22 -96.5 -17t-76 19t-52.5 35q-62 60 -126.5 85.5t-115.5 25.5q-149 0 -240 -91.5
t-91 -242.5v-326q0 -150 88 -242t231 -92q151 0 234 87.5t83 236.5v23h-180q-82 0 -125 42t-43 121q0 80 43 122t125 42h398z" />
    <glyph glyph-name="gbreve" unicode="&#x11f;" horiz-adv-x="1284" 
d="M625 1268q-130 0 -223 68t-121 177q-15 59 18.5 100.5t97.5 41.5q35 0 65 -20.5t46 -51.5q24 -45 51 -58.5t66 -13.5q37 0 64.5 13.5t51.5 58.5q16 31 46 51.5t65 20.5q64 0 98 -41.5t19 -100.5q-28 -109 -121 -177t-223 -68zM1026 1188q80 0 123 -49t43 -140v-944
q0 -223 -165.5 -359t-436.5 -136q-54 0 -85.5 1t-83 6.5t-86 16.5t-72.5 33t-64 53q-27 32 -32.5 74t17.5 85t74 69q29 15 60.5 18t52 -2.5t35.5 -13.5q95 -54 184 -54q117 0 188.5 63.5t71.5 166.5v86q-126 -142 -336 -142q-207 0 -333 130t-126 344v221q0 214 126 343.5
t333 129.5q214 0 342 -150q11 72 54.5 111t115.5 39zM625 338q89 0 143.5 53t54.5 141v144q0 88 -54.5 141t-143.5 53q-91 0 -146 -53t-55 -141v-144q0 -88 55 -141t146 -53z" />
    <glyph glyph-name="Gdotaccent" unicode="&#x120;" horiz-adv-x="1529" 
d="M782 1729q-102 0 -157.5 43.5t-55.5 121.5v2q0 80 55 123t158 43t158 -43t55 -123v-2q0 -79 -55 -122t-158 -43zM1305 991q82 0 125 -43t43 -125v-202q0 -191 -87.5 -336.5t-247 -225t-368.5 -79.5q-317 0 -510.5 179t-193.5 472v366q0 293 197 472.5t519 179.5
q174 0 324 -62t229 -188q20 -31 21 -76.5t-25.5 -92t-81.5 -67.5q-50 -22 -96.5 -17t-76 19t-52.5 35q-62 60 -126.5 85.5t-115.5 25.5q-149 0 -240 -91.5t-91 -242.5v-326q0 -150 88 -242t231 -92q151 0 234 87.5t83 236.5v23h-180q-82 0 -125 42t-43 121q0 80 43 122
t125 42h398z" />
    <glyph glyph-name="gdotaccent" unicode="&#x121;" horiz-adv-x="1284" 
d="M625 1315q-89 0 -137 43.5t-48 122.5v2q0 80 48 123t137 43t136.5 -43t47.5 -123v-2q0 -79 -47 -122.5t-137 -43.5zM1026 1188q80 0 123 -49t43 -140v-944q0 -223 -165.5 -359t-436.5 -136q-54 0 -85.5 1t-83 6.5t-86 16.5t-72.5 33t-64 53q-27 32 -32.5 74t17.5 85
t74 69q29 15 60.5 18t52 -2.5t35.5 -13.5q95 -54 184 -54q117 0 188.5 63.5t71.5 166.5v86q-126 -142 -336 -142q-207 0 -333 130t-126 344v221q0 214 126 343.5t333 129.5q214 0 342 -150q11 72 54.5 111t115.5 39zM625 338q89 0 143.5 53t54.5 141v144q0 88 -54.5 141
t-143.5 53q-91 0 -146 -53t-55 -141v-144q0 -88 55 -141t146 -53z" />
    <glyph glyph-name="Gcommaaccent" unicode="&#x122;" horiz-adv-x="1529" 
d="M1305 991q82 0 125 -43t43 -125v-202q0 -191 -87.5 -336.5t-247 -225t-368.5 -79.5q-317 0 -510.5 179t-193.5 472v366q0 293 197 472.5t519 179.5q174 0 324 -62t229 -188q20 -31 21 -76.5t-25.5 -92t-81.5 -67.5q-50 -22 -96.5 -17t-76 19t-52.5 35q-62 60 -126.5 85.5
t-115.5 25.5q-149 0 -240 -91.5t-91 -242.5v-326q0 -150 88 -242t231 -92q151 0 234 87.5t83 236.5v23h-180q-82 0 -125 42t-43 121q0 80 43 122t125 42h398zM831 -88q44 -16 68 -36.5t28 -45.5t-3.5 -49.5t-26.5 -56.5l-43 -70q-39 -63 -76.5 -84.5t-95.5 0.5
q-129 48 -82 168l25 61q13 32 26.5 54.5t31.5 40.5t38.5 26t48.5 6.5t61 -14.5z" />
    <glyph glyph-name="gcommaaccent" unicode="&#x123;" horiz-adv-x="1284" 
d="M584 1276q-59 18 -83 50t-18 70t35 89l41 69q19 31 33.5 49.5t35 33t41.5 12.5t54 -11q61 -23 77.5 -63.5t-5.5 -104.5l-25 -81q-25 -83 -65 -110.5t-121 -2.5zM1026 1188q80 0 123 -49t43 -140v-944q0 -223 -165.5 -359t-436.5 -136q-54 0 -85.5 1t-83 6.5t-86 16.5
t-72.5 33t-64 53q-27 32 -32.5 74t17.5 85t74 69q29 15 60.5 18t52 -2.5t35.5 -13.5q95 -54 184 -54q117 0 188.5 63.5t71.5 166.5v86q-126 -142 -336 -142q-207 0 -333 130t-126 344v221q0 214 126 343.5t333 129.5q214 0 342 -150q11 72 54.5 111t115.5 39zM625 338
q89 0 143.5 53t54.5 141v144q0 88 -54.5 141t-143.5 53q-91 0 -146 -53t-55 -141v-144q0 -88 55 -141t146 -53z" />
    <glyph glyph-name="Hbar" unicode="&#x126;" horiz-adv-x="1630" 
d="M1612 1327q0 -69 -38.5 -106t-107.5 -37v-1012q0 -94 -49 -143t-143 -49t-143.5 49t-49.5 143v492h-526v-492q0 -94 -49.5 -143t-143.5 -49t-143 49t-49 143v1012h-2q-71 0 -109.5 37t-38.5 106t38.5 106t109.5 37h2q9 179 192 179q91 0 139.5 -45.5t53.5 -133.5h526
q5 88 53.5 133.5t139.5 45.5q183 0 192 -179q69 0 107.5 -37t38.5 -106zM555 991h526v193h-526v-193z" />
    <glyph glyph-name="hbar" unicode="&#x127;" horiz-adv-x="1257" 
d="M754 1188q189 0 304.5 -120t115.5 -316v-584q0 -91 -47.5 -139.5t-137.5 -48.5q-89 0 -136.5 48.5t-47.5 139.5v522q0 81 -47.5 130.5t-124.5 49.5t-124.5 -49.5t-47.5 -130.5v-522q0 -91 -47.5 -139.5t-137.5 -48.5q-89 0 -136.5 48.5t-47.5 139.5v1114q-94 22 -94 127
q0 111 106 129q35 111 172 111q135 0 173 -107h225q71 0 109 -34.5t38 -98.5t-38 -98.5t-109 -34.5h-213v-195q120 107 293 107z" />
    <glyph glyph-name="Imacron" unicode="&#x12a;" horiz-adv-x="614" 
d="M162 1786q-63 0 -97 33.5t-34 95.5q0 61 34 94t97 33h291q63 0 97 -33t34 -94q0 -63 -34 -96t-97 -33h-291zM307 -20q-94 0 -143 48t-49 140v1288q0 94 49 143.5t143 49.5t143.5 -49.5t49.5 -143.5v-1288q0 -92 -49.5 -140t-143.5 -48z" />
    <glyph glyph-name="imacron" unicode="&#x12b;" horiz-adv-x="552" 
d="M133 1372q-63 0 -97 33.5t-34 95.5q0 61 34 94t97 33h287q63 0 97 -33t34 -94q0 -63 -34 -96t-97 -33h-287zM276 -20q-89 0 -136.5 48.5t-47.5 139.5v831q0 91 47.5 140t136.5 49t137 -49t48 -140v-831q0 -91 -47.5 -139.5t-137.5 -48.5z" />
    <glyph glyph-name="Iogonek" unicode="&#x12e;" horiz-adv-x="614" 
d="M453 -164q38 -26 52.5 -48.5t14.5 -68.5q0 -77 -56 -118t-161 -41q-128 0 -204 67.5t-76 179.5v7q0 121 139 217q-47 47 -47 137v1288q0 94 49 143.5t143 49.5t143.5 -49.5t49.5 -143.5v-1288q0 -109 -68 -156q-51 -44 -51 -88v-4q0 -23 16 -40t56 -44z" />
    <glyph glyph-name="iogonek" unicode="&#x12f;" horiz-adv-x="555" 
d="M279 1315q-89 0 -137 43.5t-48 122.5v2q0 80 48 123t137 43t136.5 -43t47.5 -123v-2q0 -79 -47 -122.5t-137 -43.5zM416 -164q38 -26 52.5 -48.5t14.5 -68.5q0 -77 -56 -118t-161 -41q-128 0 -204 67.5t-76 179.5v7q0 126 149 223q-41 47 -41 131v831q0 91 48 140t137 49
t136.5 -49t47.5 -140v-831q0 -117 -76 -162q-43 -38 -43 -82v-4q0 -23 16 -40t56 -44z" />
    <glyph glyph-name="Idotaccent" unicode="&#x130;" horiz-adv-x="614" 
d="M307 1729q-102 0 -157.5 43.5t-55.5 121.5v2q0 80 55 123t158 43t158 -43t55 -123v-2q0 -79 -55 -122t-158 -43zM307 -20q-94 0 -143 48t-49 140v1288q0 94 49 143.5t143 49.5t143.5 -49.5t49.5 -143.5v-1288q0 -92 -49.5 -140t-143.5 -48z" />
    <glyph glyph-name="dotlessi" unicode="&#x131;" horiz-adv-x="552" 
d="M276 -20q-89 0 -136.5 48.5t-47.5 139.5v831q0 91 47.5 140t136.5 49t137 -49t48 -140v-831q0 -91 -47.5 -139.5t-137.5 -48.5z" />
    <glyph glyph-name="IJ" unicode="&#x132;" horiz-adv-x="1445" 
d="M283 643q-88 0 -135.5 50t-47.5 143v620q0 93 47.5 143t135.5 50t135 -49.5t47 -143.5v-620q0 -94 -46.5 -143.5t-135.5 -49.5zM731 -20q-175 0 -315.5 71t-212.5 215q-14 28 -14 64t12.5 71.5t41.5 67t70 49.5q30 13 57.5 14.5t47.5 -5t39 -20.5t31 -27.5t24 -30.5
q54 -76 106 -104t113 -28q101 0 163 64t62 170v905q0 94 49.5 143.5t143.5 49.5t143 -49.5t49 -143.5v-926q0 -249 -167.5 -399.5t-442.5 -150.5z" />
    <glyph glyph-name="Kcommaaccent" unicode="&#x136;" horiz-adv-x="1460" 
d="M1386 244q36 -85 10 -148.5t-110 -97.5q-85 -34 -148 -7.5t-98 111.5l-284 693l-256 -281v-342q0 -94 -49.5 -143t-143.5 -49t-143 49t-49 143v1284q0 94 49 143.5t143 49.5t143.5 -49.5t49.5 -143.5v-504l557 621q123 138 256 26q66 -55 67 -120.5t-61 -132.5l-272 -304
zM813 -88q44 -16 68 -36.5t28 -45.5t-3.5 -49.5t-26.5 -56.5l-43 -70q-39 -63 -76.5 -84.5t-95.5 0.5q-129 48 -82 168l24 61q34 82 80.5 112.5t126.5 0.5z" />
    <glyph glyph-name="kcommaaccent" unicode="&#x137;" horiz-adv-x="1183" 
d="M1106 254q40 -82 19.5 -147t-99.5 -103q-78 -39 -142 -16.5t-102 106.5l-178 385l-143 -157v-154q0 -91 -47.5 -139.5t-137.5 -48.5q-89 0 -136.5 48.5t-47.5 139.5v1292q0 91 47.5 140t136.5 49t137 -49t48 -140v-735l358 397q117 126 236 13q59 -56 62 -117t-52 -121
l-180 -199zM653 -88q44 -16 68 -36.5t28 -45.5t-3.5 -49.5t-26.5 -56.5l-43 -70q-39 -63 -76.5 -84.5t-95.5 0.5q-129 48 -82 168l24 61q34 82 80.5 112.5t126.5 0.5z" />
    <glyph glyph-name="Lacute" unicode="&#x139;" horiz-adv-x="1224" 
d="M215 1729q-138 -35 -166 53q-28 85 105 139l286 117q69 28 117.5 9.5t65.5 -79.5q19 -64 -9.5 -106.5t-99.5 -59.5zM1034 328q82 0 125 -42t43 -122t-43 -122t-125 -42h-751q-82 0 -125 43t-43 125v1288q0 94 49 143.5t143 49.5t143.5 -49.5t49.5 -143.5v-1128h534z" />
    <glyph glyph-name="lacute" unicode="&#x13a;" horiz-adv-x="583" 
d="M238 1724q-139 -31 -166 56q-27 83 102 139l195 82q67 30 115 12.5t67 -80.5t-10.5 -106t-100.5 -58zM360 -20q-123 0 -197.5 83t-74.5 218v1179q0 91 47.5 140t136.5 49t137 -49t48 -140v-1122q0 -55 43 -92q55 -44 55 -119q0 -68 -55 -107.5t-140 -39.5z" />
    <glyph glyph-name="Lcommaaccent" unicode="&#x13b;" horiz-adv-x="1224" 
d="M1034 328q82 0 125 -42t43 -122t-43 -122t-125 -42h-751q-82 0 -125 43t-43 125v1288q0 94 49 143.5t143 49.5t143.5 -49.5t49.5 -143.5v-1128h534zM705 -88q44 -16 68 -36.5t27.5 -45.5t-4 -49.5t-26.5 -56.5l-43 -70q-39 -63 -76.5 -84.5t-95.5 0.5q-129 48 -82 168
l25 61q34 82 80.5 112.5t126.5 0.5z" />
    <glyph glyph-name="lcommaaccent" unicode="&#x13c;" horiz-adv-x="583" 
d="M360 -20q-123 0 -197.5 83t-74.5 218v1179q0 91 47.5 140t136.5 49t137 -49t48 -140v-1122q0 -55 43 -92q55 -44 55 -119q0 -68 -55 -107.5t-140 -39.5zM186 -430q-129 48 -82 168l25 61q34 82 80.5 112.5t126.5 0.5q44 -16 68 -36.5t27.5 -45.5t-4 -49.5t-26.5 -56.5
l-43 -70q-39 -63 -76.5 -84.5t-95.5 0.5z" />
    <glyph glyph-name="Lcaron" unicode="&#x13d;" horiz-adv-x="1232" 
d="M852 1096q-95 19 -78 153l35 273q9 71 53.5 104.5t108.5 18.5q65 -15 91.5 -63t4.5 -116l-80 -260q-40 -129 -135 -110zM1034 328q82 0 125 -42t43 -122t-43 -122t-125 -42h-751q-82 0 -125 43t-43 125v1288q0 94 49 143.5t143 49.5t143.5 -49.5t49.5 -143.5v-1128h534z
" />
    <glyph glyph-name="lcaron" unicode="&#x13e;" horiz-adv-x="737" 
d="M760 1206q-40 -129 -135 -110t-78 153l35 273q9 71 53.5 104.5t107.5 18.5q65 -15 92 -63t5 -116zM360 -20q-123 0 -197.5 83t-74.5 218v1179q0 91 47.5 140t136.5 49t137 -49t48 -140v-1122q0 -55 43 -92q55 -44 55 -119q0 -68 -55 -107.5t-140 -39.5z" />
    <glyph glyph-name="Lslash" unicode="&#x141;" horiz-adv-x="1294" 
d="M1104 328q82 0 125 -42t43 -122t-43 -122t-125 -42h-752q-82 0 -125 43t-43 125v432q-47 -14 -84 12.5t-57 87.5q-23 69 1.5 119t94.5 76l45 16v545q0 94 49.5 143.5t143.5 49.5t143 -49.5t49 -143.5v-412l103 39q70 28 122 7.5t74 -86.5q47 -139 -96 -195l-203 -78v-403
h535z" />
    <glyph glyph-name="lslash" unicode="&#x142;" horiz-adv-x="718" 
d="M571 754l-36 -15v-401q0 -55 43 -92q55 -44 55 -119q0 -68 -55 -107.5t-140 -39.5q-123 0 -197.5 83t-74.5 218v340q-80 -6 -115 98q-44 130 90 182l25 10v549q0 91 47.5 140t136.5 49t137 -49t48 -140v-432q95 9 129 -92q43 -128 -93 -182z" />
    <glyph glyph-name="Nacute" unicode="&#x143;" horiz-adv-x="1576" 
d="M676 1729q-138 -35 -166 53q-28 85 104 139l287 117q69 28 117 9.5t65 -79.5q38 -130 -108 -166zM1274 1649q91 0 139.5 -49.5t48.5 -143.5v-1216q0 -122 -64 -186t-186 -64h-26q-157 0 -219 119l-490 931l15 -866q1 -95 -46.5 -144.5t-140.5 -49.5q-92 0 -141 49
t-49 143v1217q0 121 64 185t186 64h26q157 0 219 -118l490 -932l-15 866q-1 95 47.5 145t141.5 50z" />
    <glyph glyph-name="nacute" unicode="&#x144;" horiz-adv-x="1257" 
d="M528 1307q-135 -44 -170 43q-35 84 95 147l278 137q66 32 116 16.5t73 -75.5q23 -61 -2.5 -106.5t-94.5 -67.5zM754 1188q189 0 304.5 -120t115.5 -316v-584q0 -91 -47.5 -139.5t-137.5 -48.5q-89 0 -136.5 48.5t-47.5 139.5v522q0 81 -47.5 130.5t-124.5 49.5
t-124.5 -49.5t-47.5 -130.5v-522q0 -91 -47.5 -139.5t-137.5 -48.5q-89 0 -136.5 48.5t-47.5 139.5v831q0 91 43.5 140t124.5 49q143 0 168 -139q123 139 326 139z" />
    <glyph glyph-name="Ncommaaccent" unicode="&#x145;" horiz-adv-x="1576" 
d="M1274 1649q91 0 139.5 -49.5t48.5 -143.5v-1216q0 -122 -64 -186t-186 -64h-26q-157 0 -219 119l-490 931l15 -866q1 -95 -46.5 -144.5t-140.5 -49.5q-92 0 -141 49t-49 143v1217q0 121 64 185t186 64h26q157 0 219 -118l490 -932l-15 866q-1 95 47.5 145t141.5 50z
M836 -88q44 -16 68 -36.5t27.5 -45.5t-4 -49.5t-26.5 -56.5l-43 -70q-39 -63 -76.5 -84.5t-95.5 0.5q-129 48 -82 168l25 61q34 82 80.5 112.5t126.5 0.5z" />
    <glyph glyph-name="ncommaaccent" unicode="&#x146;" horiz-adv-x="1257" 
d="M754 1188q189 0 304.5 -120t115.5 -316v-584q0 -91 -47.5 -139.5t-137.5 -48.5q-89 0 -136.5 48.5t-47.5 139.5v522q0 81 -47.5 130.5t-124.5 49.5t-124.5 -49.5t-47.5 -130.5v-522q0 -91 -47.5 -139.5t-137.5 -48.5q-89 0 -136.5 48.5t-47.5 139.5v831q0 91 43.5 140
t124.5 49q143 0 168 -139q123 139 326 139zM676 -88q44 -16 68 -36.5t27.5 -45.5t-4 -49.5t-26.5 -56.5l-43 -70q-39 -63 -76.5 -84.5t-95.5 0.5q-129 48 -82 168l25 61q34 82 80.5 112.5t126.5 0.5z" />
    <glyph glyph-name="Ncaron" unicode="&#x147;" horiz-adv-x="1576" 
d="M489 1913q-71 60 -18 137q51 72 131 25l186 -109l187 109q81 47 135 -31q49 -70 -23 -131l-229 -193q-32 -28 -70 -28q-37 0 -69 28zM1274 1649q91 0 139.5 -49.5t48.5 -143.5v-1216q0 -122 -64 -186t-186 -64h-26q-157 0 -219 119l-490 931l15 -866q1 -95 -46.5 -144.5
t-140.5 -49.5q-92 0 -141 49t-49 143v1217q0 121 64 185t186 64h26q157 0 219 -118l490 -932l-15 866q-1 95 47.5 145t141.5 50z" />
    <glyph glyph-name="ncaron" unicode="&#x148;" horiz-adv-x="1257" 
d="M330 1479q-72 60 -19 137q50 71 131 24l187 -108l186 108q82 48 135 -30q50 -71 -22 -131l-230 -193q-33 -29 -69 -29q-37 0 -70 29zM754 1188q189 0 304.5 -120t115.5 -316v-584q0 -91 -47.5 -139.5t-137.5 -48.5q-89 0 -136.5 48.5t-47.5 139.5v522q0 81 -47.5 130.5
t-124.5 49.5t-124.5 -49.5t-47.5 -130.5v-522q0 -91 -47.5 -139.5t-137.5 -48.5q-89 0 -136.5 48.5t-47.5 139.5v831q0 91 43.5 140t124.5 49q143 0 168 -139q123 139 326 139z" />
    <glyph glyph-name="Eng" unicode="&#x14a;" horiz-adv-x="1574" 
d="M1274 1649q91 0 139.5 -49t48.5 -144l-2 -1337v-8q0 -239 -151 -385t-398 -146h-32q-81 0 -127.5 43t-46.5 121q0 75 42 119.5t119 44.5h25q83 0 133.5 62t50.5 165v8l-598 959l15 -928q1 -95 -46.5 -144.5t-140.5 -49.5q-92 0 -141 49t-49 143v1217q0 122 65 185.5
t189 63.5h20q158 0 227 -110l482 -764l-11 690q-1 95 47 145t140 50z" />
    <glyph glyph-name="eng" unicode="&#x14b;" horiz-adv-x="1257" 
d="M754 1188q189 0 304.5 -120t115.5 -316v-824q0 -157 -111.5 -252.5t-294.5 -95.5h-35q-75 0 -116.5 37.5t-41.5 106.5t38.5 106t109.5 37h4q35 0 56.5 22.5t21.5 59.5v741q0 81 -47.5 130.5t-124.5 49.5t-124.5 -49.5t-47.5 -130.5v-522q0 -91 -47.5 -139.5t-137.5 -48.5
q-89 0 -136.5 48.5t-47.5 139.5v831q0 91 43.5 140t124.5 49q143 0 168 -139q123 139 326 139z" />
    <glyph glyph-name="Omacron" unicode="&#x14c;" horiz-adv-x="1568" 
d="M565 1786q-63 0 -97 33.5t-34 95.5q0 61 34 94t97 33h439q63 0 97 -33t34 -94q0 -63 -34 -96t-97 -33h-439zM784 -20q-324 0 -521 179t-197 472v366q0 293 197 472.5t521 179.5t521.5 -179.5t197.5 -472.5v-366q0 -293 -197.5 -472t-521.5 -179zM784 317
q151 0 242.5 91.5t91.5 242.5v326q0 151 -91.5 242.5t-242.5 91.5t-242 -91.5t-91 -242.5v-326q0 -151 91 -242.5t242 -91.5z" />
    <glyph glyph-name="omacron" unicode="&#x14d;" horiz-adv-x="1234" 
d="M410 1372q-63 0 -97 33.5t-34 95.5q0 61 34 94t97 33h417q63 0 97 -33t34 -94q0 -63 -34 -96t-97 -33h-417zM618 -20q-256 0 -412.5 141t-156.5 371v184q0 230 156.5 371t412.5 141q255 0 411.5 -141t156.5 -371v-184q0 -230 -156.5 -371t-411.5 -141zM618 297
q89 0 144 56.5t55 148.5v164q0 92 -55 148t-144 56q-91 0 -145.5 -56t-54.5 -148v-164q0 -92 54.5 -148.5t145.5 -56.5z" />
    <glyph glyph-name="Ohungarumlaut" unicode="&#x150;" horiz-adv-x="1568" 
d="M680 1753q-115 -83 -174 -12q-60 72 37 172l125 127q53 54 103.5 56.5t90.5 -48.5q39 -51 28.5 -100.5t-69.5 -92.5zM1081 1753q-115 -83 -174 -12q-60 72 37 172l125 127q53 54 104 56.5t91 -48.5q39 -51 28.5 -100.5t-69.5 -92.5zM784 -20q-324 0 -521 179t-197 472
v366q0 293 197 472.5t521 179.5t521.5 -179.5t197.5 -472.5v-366q0 -293 -197.5 -472t-521.5 -179zM784 317q151 0 242.5 91.5t91.5 242.5v326q0 151 -91.5 242.5t-242.5 91.5t-242 -91.5t-91 -242.5v-326q0 -151 91 -242.5t242 -91.5z" />
    <glyph glyph-name="ohungarumlaut" unicode="&#x151;" horiz-adv-x="1234" 
d="M518 1303q-115 -84 -174 -13q-60 72 37 172l125 127q53 54 103.5 56.5t90.5 -48.5q80 -103 -41 -192zM920 1303q-116 -84 -175 -13q-60 72 37 172l125 127q53 54 104 56.5t91 -48.5q80 -103 -41 -192zM618 -20q-256 0 -412.5 141t-156.5 371v184q0 230 156.5 371
t412.5 141q255 0 411.5 -141t156.5 -371v-184q0 -230 -156.5 -371t-411.5 -141zM618 297q89 0 144 56.5t55 148.5v164q0 92 -55 148t-144 56q-91 0 -145.5 -56t-54.5 -148v-164q0 -92 54.5 -148.5t145.5 -56.5z" />
    <glyph glyph-name="OE" unicode="&#x152;" horiz-adv-x="2359" 
d="M2140 328q82 0 125 -42t43 -122t-43 -122t-125 -42h-854q-79 0 -122.5 42t-45.5 120q-162 -182 -438 -182q-277 0 -445.5 179t-168.5 472v366q0 293 168.5 472.5t445.5 179.5q275 0 438 -183q2 78 45.5 120t122.5 42h834q82 0 125 -42t43 -122t-43 -122t-125 -42h-617
v-309h576q82 0 125 -42t43 -122q0 -79 -43 -121t-125 -42h-576v-336h637zM784 317q151 0 242.5 91.5t91.5 242.5v326q0 151 -91.5 242.5t-242.5 91.5t-242 -91.5t-91 -242.5v-326q0 -151 91 -242.5t242 -91.5z" />
    <glyph glyph-name="oe" unicode="&#x153;" horiz-adv-x="1974" 
d="M1395 1188q238 0 383 -138.5t145 -365.5v-68q0 -70 -38.5 -108.5t-108.5 -38.5h-590q1 -96 54 -154.5t138 -58.5q84 0 183 78q74 60 161 33q47 -14 79 -40t44.5 -55.5t11.5 -59t-16 -52.5q-54 -85 -180 -132.5t-258 -47.5q-134 0 -238.5 58t-165.5 163
q-62 -105 -167 -163t-240 -58q-244 0 -393.5 143.5t-149.5 378.5v164q0 235 149.5 378.5t393.5 143.5q135 0 240 -57.5t167 -161.5q59 104 161.5 161.5t234.5 57.5zM1370 911q-78 0 -128 -53.5t-56 -142.5h368q-6 89 -56 142.5t-128 53.5zM817 502v164q0 92 -55 148t-144 56
q-91 0 -145.5 -56t-54.5 -148v-164q0 -92 54.5 -148.5t145.5 -56.5q89 0 144 56.5t55 148.5z" />
    <glyph glyph-name="Racute" unicode="&#x154;" horiz-adv-x="1495" 
d="M651 1729q-138 -35 -166 53q-28 85 105 139l287 117q69 28 117 9.5t65 -79.5q19 -64 -9.5 -106.5t-99.5 -59.5zM1444 1116q0 -141 -69 -245.5t-193 -159.5l200 -467q36 -83 10 -147.5t-110 -98.5q-85 -34 -148 -7.5t-98 111.5l-231 562h-305v-492q0 -94 -49.5 -143
t-143.5 -49t-143 49t-49 143v1288q0 82 43 125t125 43h651q230 0 370 -124t140 -328v-60zM500 1300v-309h413q65 0 105.5 40t40.5 106v18q0 66 -40.5 105.5t-105.5 39.5h-413z" />
    <glyph glyph-name="racute" unicode="&#x155;" horiz-adv-x="870" 
d="M336 1307q-135 -44 -170 43q-35 84 94 147l279 137q66 32 115.5 16.5t72.5 -75.5q23 -61 -2 -106.5t-94 -67.5zM653 1188q78 0 121 -46t43 -132q0 -72 -43.5 -106.5t-138.5 -53.5q-174 -33 -174 -211v-471q0 -91 -47.5 -139.5t-137.5 -48.5q-89 0 -136.5 48.5
t-47.5 139.5v831q0 91 43.5 140t124.5 49q133 0 164 -121q92 121 229 121z" />
    <glyph glyph-name="Rcommaaccent" unicode="&#x156;" horiz-adv-x="1495" 
d="M1444 1116q0 -141 -69 -245.5t-193 -159.5l200 -467q36 -83 10 -147.5t-110 -98.5q-85 -34 -148 -7.5t-98 111.5l-231 562h-305v-492q0 -94 -49.5 -143t-143.5 -49t-143 49t-49 143v1288q0 82 43 125t125 43h651q230 0 370 -124t140 -328v-60zM500 1300v-309h413
q65 0 105.5 40t40.5 106v18q0 66 -40.5 105.5t-105.5 39.5h-413zM811 -88q44 -16 68 -36.5t28 -45.5t-3.5 -49.5t-26.5 -56.5l-43 -70q-39 -63 -76.5 -84.5t-95.5 0.5q-129 48 -82 168l24 61q34 82 80.5 112.5t126.5 0.5z" />
    <glyph glyph-name="rcommaaccent" unicode="&#x157;" horiz-adv-x="870" 
d="M653 1188q78 0 121 -46t43 -132q0 -72 -43.5 -106.5t-138.5 -53.5q-174 -33 -174 -211v-471q0 -91 -47.5 -139.5t-137.5 -48.5q-89 0 -136.5 48.5t-47.5 139.5v831q0 91 43.5 140t124.5 49q133 0 164 -121q92 121 229 121zM293 -88q44 -16 68 -36.5t27.5 -45.5t-4 -49.5
t-26.5 -56.5l-43 -70q-39 -63 -76.5 -84.5t-95.5 0.5q-129 48 -82 168l25 61q34 82 80.5 112.5t126.5 0.5z" />
    <glyph glyph-name="Rcaron" unicode="&#x158;" horiz-adv-x="1495" 
d="M465 1913q-72 60 -19 137q51 72 132 25l186 -109l186 109q81 47 135 -31q50 -71 -22 -131l-229 -193q-32 -28 -70 -28t-70 28zM1444 1116q0 -141 -69 -245.5t-193 -159.5l200 -467q36 -83 10 -147.5t-110 -98.5q-85 -34 -148 -7.5t-98 111.5l-231 562h-305v-492
q0 -94 -49.5 -143t-143.5 -49t-143 49t-49 143v1288q0 82 43 125t125 43h651q230 0 370 -124t140 -328v-60zM500 1300v-309h413q65 0 105.5 40t40.5 106v18q0 66 -40.5 105.5t-105.5 39.5h-413z" />
    <glyph glyph-name="rcaron" unicode="&#x159;" horiz-adv-x="870" 
d="M137 1479q-71 60 -18 137q50 71 131 24l186 -108l187 108q82 48 135 -30q49 -70 -23 -131l-229 -193q-33 -29 -70 -29q-36 0 -69 29zM653 1188q78 0 121 -46t43 -132q0 -72 -43.5 -106.5t-138.5 -53.5q-174 -33 -174 -211v-471q0 -91 -47.5 -139.5t-137.5 -48.5
q-89 0 -136.5 48.5t-47.5 139.5v831q0 91 43.5 140t124.5 49q133 0 164 -121q92 121 229 121z" />
    <glyph glyph-name="Sacute" unicode="&#x15a;" horiz-adv-x="1409" 
d="M586 1729q-138 -35 -166 53q-28 85 104 139l287 117q69 28 117 9.5t65 -79.5q38 -130 -108 -166zM696 -20q-460 0 -598 233q-22 43 -24 87t27.5 87.5t84.5 69.5q109 52 213 -39q137 -121 308 -121q127 0 205.5 48t78.5 126v6q0 49 -32 82.5t-86 52.5t-123.5 32t-147 26.5
t-155 31t-147 49.5t-123.5 78t-86 121t-32 174v27q0 224 176.5 361t466.5 137q171 0 317 -54.5t236 -160.5q50 -58 24.5 -134.5t-108.5 -111.5q-120 -51 -210 35q-113 108 -269 108q-120 0 -192 -40.5t-72 -106.5v-6q0 -46 26.5 -79.5t71.5 -52t105.5 -34t128 -24.5
t139.5 -24.5t139.5 -33t128 -51t105.5 -77.5t71.5 -113t26.5 -157v-26q0 -236 -186 -381t-488 -145z" />
    <glyph glyph-name="sacute" unicode="&#x15b;" horiz-adv-x="1130" 
d="M459 1307q-135 -44 -170 43q-35 84 94 147l279 137q66 32 115.5 16.5t72.5 -75.5q23 -61 -2 -106.5t-94 -67.5zM553 -20q-145 0 -286 48t-195 132q-32 50 2.5 114.5t126.5 92.5q29 9 54 9.5t45.5 -7.5t32.5 -15t29 -20q90 -68 201 -68q75 0 121.5 24t46.5 62v6
q0 38 -37.5 59t-97 29.5t-131.5 16t-144 26t-131.5 50t-97 97t-37.5 159.5v24q0 179 135.5 274t368.5 95q145 0 270.5 -42.5t176.5 -123.5q15 -23 16 -52.5t-11.5 -59t-44.5 -55.5t-79 -40q-92 -28 -162 33q-88 74 -176 74q-66 0 -106 -22.5t-40 -59.5v-4q0 -38 38 -58.5
t98.5 -29.5t133.5 -16t146.5 -25.5t134 -50t98.5 -97t38 -160.5v-26q0 -190 -145 -291.5t-392 -101.5z" />
    <glyph glyph-name="Scedilla" unicode="&#x15e;" horiz-adv-x="1409" 
d="M428 1178q0 -46 26.5 -79.5t71.5 -52t105.5 -34t128 -24.5t139.5 -24.5t139.5 -33t128 -51t105.5 -77.5t71.5 -113t26.5 -157v-26q0 -211 -149 -351t-402 -169l-12 -33q72 -25 111.5 -66.5t39.5 -93.5v-6q0 -94 -98.5 -150.5t-261.5 -56.5h-2q-54 0 -84.5 27t-30.5 76
q0 89 78 102q37 6 37 25v2q0 10 -6.5 15.5t-24.5 16.5q-23 13 -28.5 27t0.5 35l24 80q-347 28 -463 227q-22 43 -24 87t27.5 87.5t84.5 69.5q109 52 213 -39q137 -121 308 -121q127 0 205.5 48t78.5 126v6q0 49 -32 82.5t-86 52.5t-123.5 32t-147 26.5t-155 31t-147 49.5
t-123.5 78t-86 121t-32 174v27q0 224 176.5 361t466.5 137q171 0 317 -54.5t236 -160.5q50 -58 24.5 -134.5t-108.5 -111.5q-120 -51 -210 35q-113 108 -269 108q-120 0 -192 -40.5t-72 -106.5v-6z" />
    <glyph glyph-name="scedilla" unicode="&#x15f;" horiz-adv-x="1130" 
d="M403 836q0 -38 38 -58.5t98.5 -29.5t133.5 -16t146.5 -25.5t134 -50t98.5 -97t38 -160.5v-26q0 -162 -108.5 -261t-299.5 -124l-14 -35q72 -25 111.5 -66.5t39.5 -93.5v-6q0 -94 -98.5 -150.5t-261.5 -56.5h-2q-54 0 -84.5 27t-30.5 76q0 89 78 102q37 6 37 25v2
q0 10 -6.5 15.5t-24.5 16.5q-23 13 -29 26.5t0 35.5l25 84q-118 19 -214 62.5t-136 107.5q-32 50 2.5 114.5t126.5 92.5q29 9 54 9.5t45.5 -7.5t32.5 -15t29 -20q90 -68 201 -68q75 0 121.5 24t46.5 62v6q0 38 -37.5 59t-97 29.5t-131.5 16t-144 26t-131.5 50t-97 97
t-37.5 159.5v24q0 179 135.5 274t368.5 95q145 0 270.5 -42.5t176.5 -123.5q15 -23 16 -52.5t-11.5 -59t-44.5 -55.5t-79 -40q-92 -28 -162 33q-88 74 -176 74q-66 0 -106 -22.5t-40 -59.5v-4z" />
    <glyph glyph-name="Scaron" unicode="&#x160;" horiz-adv-x="1409" 
d="M698 1692q-37 0 -69 28l-230 193q-71 60 -18 137q51 72 131 25l186 -109l187 109q81 47 135 -31q49 -70 -23 -131l-229 -193q-32 -28 -70 -28zM696 -20q-460 0 -598 233q-22 43 -24 87t27.5 87.5t84.5 69.5q109 52 213 -39q137 -121 308 -121q127 0 205.5 48t78.5 126v6
q0 49 -32 82.5t-86 52.5t-123.5 32t-147 26.5t-155 31t-147 49.5t-123.5 78t-86 121t-32 174v27q0 224 176.5 361t466.5 137q171 0 317 -54.5t236 -160.5q50 -58 24.5 -134.5t-108.5 -111.5q-120 -51 -210 35q-113 108 -269 108q-120 0 -192 -40.5t-72 -106.5v-6
q0 -46 26.5 -79.5t71.5 -52t105.5 -34t128 -24.5t139.5 -24.5t139.5 -33t128 -51t105.5 -77.5t71.5 -113t26.5 -157v-26q0 -236 -186 -381t-488 -145z" />
    <glyph glyph-name="scaron" unicode="&#x161;" horiz-adv-x="1130" 
d="M559 1257q-37 0 -70 29l-229 193q-71 60 -18 137q50 71 131 24l186 -108l186 108q82 48 136 -30q49 -70 -23 -131l-229 -193q-33 -29 -70 -29zM553 -20q-145 0 -286 48t-195 132q-32 50 2.5 114.5t126.5 92.5q29 9 54 9.5t45.5 -7.5t32.5 -15t29 -20q90 -68 201 -68
q75 0 121.5 24t46.5 62v6q0 38 -37.5 59t-97 29.5t-131.5 16t-144 26t-131.5 50t-97 97t-37.5 159.5v24q0 179 135.5 274t368.5 95q145 0 270.5 -42.5t176.5 -123.5q15 -23 16 -52.5t-11.5 -59t-44.5 -55.5t-79 -40q-92 -28 -162 33q-88 74 -176 74q-66 0 -106 -22.5
t-40 -59.5v-4q0 -38 38 -58.5t98.5 -29.5t133.5 -16t146.5 -25.5t134 -50t98.5 -97t38 -160.5v-26q0 -190 -145 -291.5t-392 -101.5z" />
    <glyph glyph-name="uni0162" unicode="&#x162;" horiz-adv-x="1366" 
d="M1180 1628q82 0 125 -42t43 -122t-43 -122t-125 -42h-306v-1128q0 -71 -26 -113l-41 -104q72 -25 111.5 -66.5t39.5 -93.5v-6q0 -94 -98.5 -150.5t-261.5 -56.5h-2q-54 0 -84.5 27t-30.5 76q0 89 78 102q37 6 37 25v2q0 10 -6.5 15.5t-24.5 16.5q-23 13 -28.5 27t0.5 35
l30 100q-78 47 -78 164v1128h-303q-82 0 -125 42t-43 122t43 122t125 42h994z" />
    <glyph glyph-name="uni0163" unicode="&#x163;" horiz-adv-x="847" 
d="M662 287q70 0 108.5 -37.5t38.5 -106.5t-38 -106t-109 -37h-66q-35 0 -51 2l-19 -49q73 -25 112.5 -66.5t39.5 -93.5v-6q0 -94 -99 -150.5t-262 -56.5h-2q-54 0 -84 27t-30 76q0 89 78 102q36 6 36 25v2q0 10 -6.5 16t-23.5 16q-23 13 -29 26.5t0 35.5l55 182
q-121 95 -121 260v533h-36q-71 0 -109.5 37t-38.5 106t38.5 106t109.5 37h45v140q0 91 46 139.5t134 48.5t134 -48.5t46 -139.5v-140h123q71 0 109 -37t38 -106t-38 -106t-109 -37h-123v-512q0 -37 21.5 -59.5t56.5 -22.5h25z" />
    <glyph glyph-name="Tcaron" unicode="&#x164;" horiz-adv-x="1366" 
d="M383 1913q-71 60 -18 137q51 72 131 25l186 -109l186 109q82 48 136 -31q49 -70 -23 -131l-229 -193q-32 -28 -70 -28t-70 28zM1180 1628q82 0 125 -42t43 -122t-43 -122t-125 -42h-306v-1128q0 -94 -49 -143t-143 -49t-143.5 49t-49.5 143v1128h-303q-82 0 -125 42
t-43 122t43 122t125 42h994z" />
    <glyph glyph-name="tcaron" unicode="&#x165;" horiz-adv-x="847" 
d="M846 1661q65 -12 91.5 -50t4.5 -93l-80 -211q-40 -106 -135 -90t-78 124l35 222q9 58 54 85t108 13zM682 881h-123v-512q0 -37 21.5 -59.5t56.5 -22.5h25q70 0 108.5 -37.5t38.5 -106.5t-38 -106t-109 -37h-66q-183 0 -294.5 95.5t-111.5 252.5v533h-36q-71 0 -109.5 37
t-38.5 106t38.5 106t109.5 37h45v140q0 91 46 139.5t134 48.5t134 -48.5t46 -139.5v-140h123q71 0 109 -37t38 -106t-38 -106t-109 -37z" />
    <glyph glyph-name="Tbar" unicode="&#x166;" horiz-adv-x="1382" 
d="M1188 1628q82 0 125 -42t43 -122t-43 -122t-125 -42h-305v-329h118q80 0 124 -37.5t44 -106.5t-44 -106t-124 -37h-118v-512q0 -94 -49.5 -143t-143.5 -49t-143 49t-49 143v512h-115q-82 0 -126 37t-44 106t44 106.5t126 37.5h115v329h-303q-82 0 -125 42t-43 122t43 122
t125 42h993z" />
    <glyph glyph-name="tbar" unicode="&#x167;" horiz-adv-x="882" 
d="M700 459h-122v-90q0 -37 21 -59.5t56 -22.5h25q70 0 108.5 -37.5t38.5 -106.5t-38 -106t-109 -37h-66q-183 0 -294 95.5t-111 252.5v111h-37q-71 0 -109 34.5t-38 98.5t38 98.5t109 34.5h37v156h-37q-71 0 -109 37t-38 106t38 106t109 37h45v140q0 91 46 139.5t134 48.5
t134.5 -48.5t46.5 -139.5v-140h122q71 0 109.5 -37t38.5 -106t-38.5 -106t-109.5 -37h-122v-156h122q71 0 109.5 -34.5t38.5 -98.5t-38.5 -98.5t-109.5 -34.5z" />
    <glyph glyph-name="Umacron" unicode="&#x16a;" horiz-adv-x="1521" 
d="M543 1786q-63 0 -97 33.5t-34 95.5q0 61 34 94t97 33h438q63 0 97 -33t34 -94q0 -63 -34 -96t-97 -33h-438zM762 -20q-297 0 -478.5 162t-181.5 429v885q0 94 49.5 143.5t143.5 49.5t143 -49.5t49 -143.5v-864q0 -124 76 -199.5t199 -75.5t197.5 75.5t74.5 199.5v864
q0 94 49.5 143.5t143.5 49.5t143 -49.5t49 -143.5v-885q0 -267 -180.5 -429t-476.5 -162z" />
    <glyph glyph-name="umacron" unicode="&#x16b;" horiz-adv-x="1236" 
d="M412 1372q-63 0 -97 33.5t-34 95.5q0 61 34 94t97 33h417q63 0 97.5 -33t34.5 -94q0 -63 -34.5 -96t-97.5 -33h-417zM961 1188q89 0 136.5 -49t47.5 -140v-831q0 -91 -42.5 -139.5t-123.5 -48.5q-139 0 -170 135q-119 -135 -315 -135q-185 0 -297.5 117t-112.5 309v593
q0 91 47.5 140t136.5 49t137 -49t48 -140v-532q0 -76 44.5 -123t116.5 -47t117 47t45 123v532q0 91 48 140t137 49z" />
    <glyph glyph-name="Uring" unicode="&#x16e;" horiz-adv-x="1521" 
d="M762 1700q-138 0 -221.5 65t-83.5 172v27q0 107 83.5 172.5t221.5 65.5t221.5 -65.5t83.5 -172.5v-27q0 -107 -83.5 -172t-221.5 -65zM762 1882q41 0 66.5 17t25.5 45v14q0 28 -25.5 44.5t-66.5 16.5t-66.5 -16.5t-25.5 -44.5v-14q0 -28 25.5 -45t66.5 -17zM762 -20
q-297 0 -478.5 162t-181.5 429v885q0 94 49.5 143.5t143.5 49.5t143 -49.5t49 -143.5v-864q0 -124 76 -199.5t199 -75.5t197.5 75.5t74.5 199.5v864q0 94 49.5 143.5t143.5 49.5t143 -49.5t49 -143.5v-885q0 -267 -180.5 -429t-476.5 -162z" />
    <glyph glyph-name="uring" unicode="&#x16f;" horiz-adv-x="1236" 
d="M621 1208q-138 0 -222 65.5t-84 172.5v27q0 107 84 172t222 65t221.5 -65t83.5 -172v-27q0 -107 -83.5 -172.5t-221.5 -65.5zM528 1466v-14q0 -28 25.5 -44.5t67.5 -16.5q41 0 66.5 16.5t25.5 44.5v14q0 28 -25.5 45t-66.5 17t-67 -17t-26 -45zM961 1188q89 0 136.5 -49
t47.5 -140v-831q0 -91 -42.5 -139.5t-123.5 -48.5q-139 0 -170 135q-119 -135 -315 -135q-185 0 -297.5 117t-112.5 309v593q0 91 47.5 140t136.5 49t137 -49t48 -140v-532q0 -76 44.5 -123t116.5 -47t117 47t45 123v532q0 91 48 140t137 49z" />
    <glyph glyph-name="Uhungarumlaut" unicode="&#x170;" horiz-adv-x="1521" 
d="M657 1753q-115 -83 -174 -12q-60 72 37 172l125 127q53 54 104 56.5t91 -48.5q39 -51 28.5 -100.5t-69.5 -92.5zM1059 1753q-115 -83 -174 -12q-60 72 37 172l125 127q53 54 103.5 56.5t90.5 -48.5q39 -51 28.5 -100.5t-69.5 -92.5zM762 -20q-297 0 -478.5 162
t-181.5 429v885q0 94 49.5 143.5t143.5 49.5t143 -49.5t49 -143.5v-864q0 -124 76 -199.5t199 -75.5t197.5 75.5t74.5 199.5v864q0 94 49.5 143.5t143.5 49.5t143 -49.5t49 -143.5v-885q0 -267 -180.5 -429t-476.5 -162z" />
    <glyph glyph-name="uhungarumlaut" unicode="&#x171;" horiz-adv-x="1236" 
d="M520 1303q-115 -84 -174 -13q-60 72 37 172l125 127q53 54 103.5 56.5t90.5 -48.5q81 -104 -40 -192zM748 1290q-60 73 36 172l125 127q53 54 104 56.5t91 -48.5q80 -103 -41 -192l-141 -102q-115 -84 -174 -13zM961 1188q89 0 136.5 -49t47.5 -140v-831
q0 -91 -42.5 -139.5t-123.5 -48.5q-139 0 -170 135q-119 -135 -315 -135q-185 0 -297.5 117t-112.5 309v593q0 91 47.5 140t136.5 49t137 -49t48 -140v-532q0 -76 44.5 -123t116.5 -47t117 47t45 123v532q0 91 48 140t137 49z" />
    <glyph glyph-name="Uogonek" unicode="&#x172;" horiz-adv-x="1521" 
d="M1227 1649q94 0 143 -49.5t49 -143.5v-885q0 -216 -120.5 -365.5t-329.5 -201.5q-92 -37 -92 -86v-4q0 -19 16 -35t55 -43q38 -26 53 -48.5t15 -68.5q0 -77 -56 -118t-161 -41h-2q-126 0 -202.5 67.5t-76.5 179.5v7q0 94 90 178q-233 40 -369.5 195t-136.5 384v885
q0 94 49.5 143.5t143.5 49.5t143 -49.5t49 -143.5v-864q0 -124 76 -199.5t199 -75.5t197.5 75.5t74.5 199.5v864q0 94 49.5 143.5t143.5 49.5z" />
    <glyph glyph-name="uogonek" unicode="&#x173;" horiz-adv-x="1236" 
d="M1098 -164q38 -26 52.5 -48.5t14.5 -68.5q0 -77 -56 -118t-161 -41h-2q-126 0 -202 67.5t-76 179.5v7q0 66 44 126.5t124 108.5q-18 28 -27 66q-119 -135 -315 -135q-185 0 -297.5 117t-112.5 309v593q0 91 47.5 140t136.5 49t137 -49t48 -140v-532q0 -76 44.5 -123
t116.5 -47t117 47t45 123v532q0 91 48 140t137 49t136.5 -49t47.5 -140v-831q0 -123 -76 -168q-43 -31 -43 -76v-4q0 -23 16 -40t56 -44z" />
    <glyph glyph-name="Wcircumflex" unicode="&#x174;" horiz-adv-x="2160" 
d="M895 1731q-81 -47 -131 24q-53 77 18 137l230 193q33 29 69 29q37 0 70 -29l229 -193q72 -61 23 -131q-53 -78 -135 -30l-187 108zM1966 1642q89 -17 126.5 -73.5t18.5 -147.5l-243 -1196q-23 -109 -93.5 -172t-189.5 -63h-43q-120 0 -189.5 63t-90.5 172l-181 955
l-182 -955q-21 -109 -91 -172t-190 -63h-40q-119 0 -189.5 63t-93.5 172l-246 1196q-19 90 19.5 147t128.5 74t146 -21t71 -130l192 -1120l176 1042q19 112 86 168.5t191 56.5h45q123 0 189 -56t85 -169l178 -1042l191 1120q15 91 72 129.5t147 21.5z" />
    <glyph glyph-name="wcircumflex" unicode="&#x175;" horiz-adv-x="1839" 
d="M733 1296q-80 -47 -131 25q-53 77 19 137l229 193q32 28 70 28q37 0 69 -28l230 -193q72 -60 22 -131q-54 -78 -135 -31l-186 109zM1655 1182q86 -19 120.5 -77t12.5 -147l-174 -716q-63 -252 -285 -252h-14q-124 0 -192 70.5t-93 181.5l-110 501l-111 -501
q-25 -111 -93 -181.5t-192 -70.5h-16q-222 0 -285 252l-174 716q-22 89 13.5 147t121.5 77t142 -19t75 -129l127 -643l119 547q12 52 30 92.5t47.5 75.5t76.5 53.5t108 18.5h19q61 0 108 -18.5t76.5 -53.5t47.5 -75.5t30 -92.5l119 -553l127 649q19 90 75.5 128.5
t143.5 19.5z" />
    <glyph glyph-name="Ycircumflex" unicode="&#x176;" horiz-adv-x="1464" 
d="M547 1731q-81 -47 -131 24q-53 77 18 137l230 193q33 29 69 29q37 0 70 -29l229 -193q72 -61 23 -131q-53 -78 -135 -30l-187 108zM1296 1620q80 -43 100 -108.5t-26 -145.5l-444 -743v-451q0 -94 -49.5 -143t-143.5 -49t-143 49t-49 143v446l-447 748q-46 80 -26 145.5
t100 108.5q159 85 254 -80l311 -541l309 541q95 165 254 80z" />
    <glyph glyph-name="ycircumflex" unicode="&#x177;" horiz-adv-x="1159" 
d="M391 1296q-80 -47 -131 25q-53 77 19 137l229 193q32 28 70 28q37 0 69 -28l230 -193q72 -60 22 -131q-54 -78 -135 -31l-186 109zM985 1176q85 -28 113.5 -90t-2.5 -148l-344 -977q-66 -189 -200 -295t-323 -106q-69 0 -107 38.5t-38 108.5q0 68 32 103.5t93 35.5
q55 0 100 29.5t62 77.5l30 82l-335 903q-32 88 -4.5 150t112.5 88q86 26 147 -5.5t89 -117.5l184 -570l160 564q26 89 86 123t145 6z" />
    <glyph glyph-name="Ydieresis" unicode="&#x178;" horiz-adv-x="1464" 
d="M532 1729q-83 0 -127.5 42t-44.5 117v15q0 77 44.5 118t127.5 41t128 -41t45 -118v-15q0 -76 -44.5 -117.5t-128.5 -41.5zM934 1729q-83 0 -127.5 42t-44.5 117v15q0 77 44.5 118t127.5 41t127.5 -41t44.5 -118v-15q0 -76 -44 -117.5t-128 -41.5zM1296 1620
q80 -43 100 -108.5t-26 -145.5l-444 -743v-451q0 -94 -49.5 -143t-143.5 -49t-143 49t-49 143v446l-447 748q-46 80 -26 145.5t100 108.5q159 85 254 -80l311 -541l309 541q95 165 254 80z" />
    <glyph glyph-name="Zacute" unicode="&#x179;" horiz-adv-x="1396" 
d="M586 1729q-138 -35 -166 53q-28 85 104 139l287 117q69 28 117 9.5t65 -79.5q38 -130 -108 -166zM1190 326q82 0 125 -41.5t43 -120.5q0 -80 -43 -122t-125 -42h-940q-101 0 -155 54t-54 155v12q0 62 18 110.5t60 98.5l762 877l-652 -4q-82 0 -125 41t-43 120
q0 80 43 122t125 42h899q101 0 155 -54t54 -155v-12q0 -63 -18 -111t-59 -98l-762 -876z" />
    <glyph glyph-name="zacute" unicode="&#x17a;" horiz-adv-x="1075" 
d="M438 1307q-135 -44 -170 43q-35 84 94 147l279 137q66 32 115.5 16.5t72.5 -75.5q23 -61 -2 -106.5t-94 -67.5zM883 285q72 0 109.5 -36.5t37.5 -105.5t-38 -106t-109 -37h-641q-94 0 -144.5 48.5t-50.5 139.5v7q0 104 72 182l469 510l-373 -4q-72 0 -109.5 36t-37.5 105
t38 106t109 37h600q94 0 144.5 -48.5t50.5 -139.5v-6q0 -104 -72 -182l-469 -510z" />
    <glyph glyph-name="Zdotaccent" unicode="&#x17b;" horiz-adv-x="1396" 
d="M698 1729q-102 0 -157.5 43.5t-55.5 121.5v2q0 80 55 123t158 43t158 -43t55 -123v-2q0 -79 -55 -122t-158 -43zM1190 326q82 0 125 -41.5t43 -120.5q0 -80 -43 -122t-125 -42h-940q-101 0 -155 54t-54 155v12q0 62 18 110.5t60 98.5l762 877l-652 -4q-82 0 -125 41
t-43 120q0 80 43 122t125 42h899q101 0 155 -54t54 -155v-12q0 -63 -18 -111t-59 -98l-762 -876z" />
    <glyph glyph-name="zdotaccent" unicode="&#x17c;" horiz-adv-x="1075" 
d="M539 1315q-89 0 -137 43.5t-48 122.5v2q0 80 48 123t137 43t136.5 -43t47.5 -123v-2q0 -79 -47 -122.5t-137 -43.5zM883 285q72 0 109.5 -36.5t37.5 -105.5t-38 -106t-109 -37h-641q-94 0 -144.5 48.5t-50.5 139.5v7q0 104 72 182l469 510l-373 -4q-72 0 -109.5 36
t-37.5 105t38 106t109 37h600q94 0 144.5 -48.5t50.5 -139.5v-6q0 -104 -72 -182l-469 -510z" />
    <glyph glyph-name="Zcaron" unicode="&#x17d;" horiz-adv-x="1396" 
d="M399 1913q-71 60 -18 137q51 72 131 25l186 -109l187 109q81 47 135 -31q49 -70 -23 -131l-229 -193q-32 -28 -70 -28q-37 0 -69 28zM1190 326q82 0 125 -41.5t43 -120.5q0 -80 -43 -122t-125 -42h-940q-101 0 -155 54t-54 155v12q0 62 18 110.5t60 98.5l762 877l-652 -4
q-82 0 -125 41t-43 120q0 80 43 122t125 42h899q101 0 155 -54t54 -155v-12q0 -63 -18 -111t-59 -98l-762 -876z" />
    <glyph glyph-name="zcaron" unicode="&#x17e;" horiz-adv-x="1075" 
d="M240 1479q-72 60 -19 137q50 71 131 24l187 -108l186 108q82 48 135 -30q50 -71 -22 -131l-230 -193q-33 -29 -69 -29q-37 0 -70 29zM883 285q72 0 109.5 -36.5t37.5 -105.5t-38 -106t-109 -37h-641q-94 0 -144.5 48.5t-50.5 139.5v7q0 104 72 182l469 510l-373 -4
q-72 0 -109.5 36t-37.5 105t38 106t109 37h600q94 0 144.5 -48.5t50.5 -139.5v-6q0 -104 -72 -182l-469 -510z" />
    <glyph glyph-name="uni018F" unicode="&#x18f;" horiz-adv-x="1529" 
d="M748 1649q322 0 519 -179.5t197 -472.5v-366q0 -293 -193.5 -472t-510.5 -179q-209 0 -368.5 79.5t-247 225t-87.5 336.5v202q0 82 43 125t125 43h854q-5 145 -95 232.5t-236 87.5q-132 0 -267 -111q-23 -19 -51.5 -32t-75.5 -19.5t-94 14.5q-54 21 -81 67.5t-26 92
t21 76.5q80 127 236 188.5t338 61.5zM760 317q143 0 231 92t88 242v13h-637v-23q0 -149 83.5 -236.5t234.5 -87.5z" />
    <glyph glyph-name="florin" unicode="&#x192;" horiz-adv-x="1292" 
d="M1069 991q82 0 125 -42t43 -122q0 -79 -43 -121t-125 -42h-229v-134q0 -239 -162.5 -384.5t-429.5 -145.5h-94q-46 0 -71.5 42.5t-25.5 121.5q0 80 43 122t125 42h2q103 0 165.5 62t62.5 165v109h-230q-82 0 -125 42t-43 121q0 80 43 122t125 42h230v107
q0 239 162.5 384.5t429.5 145.5h22q82 0 125 -42t43 -122t-43 -122t-125 -42h-2q-103 0 -165 -62t-62 -165v-82h229z" />
    <glyph glyph-name="uni01C7" unicode="&#x1c7;" horiz-adv-x="1433" 
d="M270 664q-82 0 -125 42.5t-43 124.5v625q0 93 47.5 143t135.5 50t135 -49.5t47 -143.5v-465h147q82 0 125 -42t43 -122q0 -79 -43 -121t-125 -42h-344zM1137 1649q94 0 143 -49.5t49 -143.5v-926q0 -249 -167.5 -399.5t-442.5 -150.5q-176 0 -316.5 71t-212.5 215
q-16 41 -13 87.5t36.5 94t87.5 70.5q30 13 57.5 14.5t47.5 -5t39 -20.5t31 -27.5t24 -30.5q54 -76 106 -104t113 -28q101 0 163 64t62 170v905q0 94 49.5 143.5t143.5 49.5z" />
    <glyph glyph-name="Scommaaccent" unicode="&#x218;" horiz-adv-x="1409" 
d="M696 -20q-460 0 -598 233q-22 43 -24 87t27.5 87.5t84.5 69.5q109 52 213 -39q137 -121 308 -121q127 0 205.5 48t78.5 126v6q0 49 -32 82.5t-86 52.5t-123.5 32t-147 26.5t-155 31t-147 49.5t-123.5 78t-86 121t-32 174v27q0 224 176.5 361t466.5 137q171 0 317 -54.5
t236 -160.5q50 -58 24.5 -134.5t-108.5 -111.5q-120 -51 -210 35q-113 108 -269 108q-120 0 -192 -40.5t-72 -106.5v-6q0 -46 26.5 -79.5t71.5 -52t105.5 -34t128 -24.5t139.5 -24.5t139.5 -33t128 -51t105.5 -77.5t71.5 -113t26.5 -157v-26q0 -236 -186 -381t-488 -145z
M596 -430q-129 48 -82 168l25 61q13 32 26.5 54.5t31.5 40.5t38.5 26t48.5 6.5t61 -14.5q44 -16 68 -36.5t28 -45.5t-3.5 -49.5t-26.5 -56.5l-43 -70q-39 -63 -76.5 -84.5t-95.5 0.5z" />
    <glyph glyph-name="scommaaccent" unicode="&#x219;" horiz-adv-x="1130" 
d="M553 -20q-145 0 -286 48t-195 132q-32 50 2.5 114.5t126.5 92.5q29 9 54 9.5t45.5 -7.5t32.5 -15t29 -20q90 -68 201 -68q75 0 121.5 24t46.5 62v6q0 38 -37.5 59t-97 29.5t-131.5 16t-144 26t-131.5 50t-97 97t-37.5 159.5v24q0 179 135.5 274t368.5 95
q145 0 270.5 -42.5t176.5 -123.5q15 -23 16 -52.5t-11.5 -59t-44.5 -55.5t-79 -40q-92 -28 -162 33q-88 74 -176 74q-66 0 -106 -22.5t-40 -59.5v-4q0 -38 38 -58.5t98.5 -29.5t133.5 -16t146.5 -25.5t134 -50t98.5 -97t38 -160.5v-26q0 -190 -145 -291.5t-392 -101.5z
M457 -430q-129 48 -82 168l24 61q34 82 80.5 112.5t126.5 0.5q44 -16 68 -36.5t28 -45.5t-3.5 -49.5t-26.5 -56.5l-43 -70q-39 -63 -76.5 -84.5t-95.5 0.5z" />
    <glyph glyph-name="uni021A" unicode="&#x21a;" horiz-adv-x="1366" 
d="M1180 1628q82 0 125 -42t43 -122t-43 -122t-125 -42h-306v-1128q0 -94 -49 -143t-143 -49t-143.5 49t-49.5 143v1128h-303q-82 0 -125 42t-43 122t43 122t125 42h994zM715 -88q44 -16 68 -36.5t27.5 -45.5t-4 -49.5t-26.5 -56.5l-43 -70q-39 -63 -76.5 -84.5t-95.5 0.5
q-129 48 -82 168l25 61q34 82 80.5 112.5t126.5 0.5z" />
    <glyph glyph-name="uni021B" unicode="&#x21b;" horiz-adv-x="847" 
d="M662 287q70 0 108.5 -37.5t38.5 -106.5t-38 -106t-109 -37h-66q-183 0 -294.5 95.5t-111.5 252.5v533h-36q-71 0 -109.5 37t-38.5 106t38.5 106t109.5 37h45v140q0 91 46 139.5t134 48.5t134 -48.5t46 -139.5v-140h123q71 0 109 -37t38 -106t-38 -106t-109 -37h-123v-512
q0 -37 21.5 -59.5t56.5 -22.5h25zM465 -88q44 -16 68 -36.5t27.5 -45.5t-4 -49.5t-26.5 -56.5l-43 -70q-39 -63 -76.5 -84.5t-95.5 0.5q-129 48 -82 168l25 61q34 82 80.5 112.5t126.5 0.5z" />
    <glyph glyph-name="uni0237" unicode="&#x237;" horiz-adv-x="561" 
d="M176 -440q-85 0 -139.5 39t-54.5 108q0 75 57 125q31 27 46 52.5t15 64.5v1050q0 91 48 140t137 49t136.5 -49t47.5 -140v-1077q0 -160 -84 -261t-209 -101z" />
    <glyph glyph-name="uni0259" unicode="&#x259;" horiz-adv-x="1204" 
d="M594 1188q252 0 406.5 -138.5t154.5 -365.5v-201q0 -227 -152 -365t-401 -138t-401 138t-152 365v84q0 71 38.5 109.5t109.5 38.5h589q-6 89 -58 142.5t-134 53.5q-85 0 -182 -77q-74 -60 -162 -33q-47 14 -79 40t-44.5 55.5t-11.5 59t16 52.5q55 86 184.5 133t278.5 47z
M602 256q82 0 132.5 58t51.5 155h-368q1 -97 51.5 -155t132.5 -58z" />
    <glyph glyph-name="circumflex" unicode="&#x2c6;" horiz-adv-x="933" 
d="M150 1321q-53 77 18 137l229 193q32 28 70 28t70 -28l229 -193q72 -60 22 -131q-54 -78 -135 -31l-186 109l-186 -109q-80 -47 -131 25z" />
    <glyph glyph-name="caron" unicode="&#x2c7;" horiz-adv-x="933" 
d="M467 1257q-37 0 -70 29l-229 193q-71 60 -18 137q50 71 131 24l186 -108l186 108q82 48 135 -30q50 -71 -22 -131l-229 -193q-33 -29 -70 -29z" />
    <glyph glyph-name="breve" unicode="&#x2d8;" horiz-adv-x="933" 
d="M467 1262q-130 0 -223 68t-121 177q-15 59 19 100.5t98 41.5q35 0 64.5 -20.5t45.5 -51.5q24 -45 51 -58.5t66 -13.5q24 0 40.5 3.5t38.5 20.5t38 48t45.5 51.5t64.5 20.5q64 0 98 -41.5t19 -100.5q-28 -109 -121 -177t-223 -68z" />
    <glyph glyph-name="dotaccent" unicode="&#x2d9;" horiz-adv-x="512" 
d="M256 1315q-89 0 -136.5 43.5t-47.5 122.5v2q0 80 47.5 123t136.5 43t136.5 -43t47.5 -123v-2q0 -79 -47 -122.5t-137 -43.5z" />
    <glyph glyph-name="ring" unicode="&#x2da;" horiz-adv-x="851" 
d="M426 1208q-138 0 -221.5 65.5t-83.5 172.5v27q0 107 83.5 172t221.5 65t221.5 -65t83.5 -172v-27q0 -107 -83.5 -172.5t-221.5 -65.5zM426 1391q41 0 66.5 16.5t25.5 44.5v14q0 28 -25.5 45t-66.5 17t-66.5 -17t-25.5 -45v-14q0 -28 25.5 -44.5t66.5 -16.5z" />
    <glyph glyph-name="ogonek" unicode="&#x2db;" horiz-adv-x="702" 
d="M381 -440q-126 0 -202.5 67.5t-76.5 179.5v7q0 107 111.5 196t294.5 127l6 -129q-53 -36 -53 -84v-4q0 -23 16 -40t55 -44q38 -26 53 -48.5t15 -68.5q0 -77 -56 -118t-161 -41h-2z" />
    <glyph glyph-name="tilde" unicode="&#x2dc;" horiz-adv-x="1189" 
d="M379 1370q-37 -24 -60.5 -27t-60.5 17q-42 27 -52 62.5t17 76.5q112 150 252 150q52 0 136.5 -37t125.5 -37q39 0 64 14q32 18 48.5 24.5t39 6.5t43.5 -14q42 -27 52 -63t-17 -77q-112 -149 -252 -149q-53 0 -137.5 37t-126.5 37q-37 0 -72 -21z" />
    <glyph glyph-name="hungarumlaut" unicode="&#x2dd;" horiz-adv-x="1026" 
d="M291 1303q-115 -84 -174 -13q-60 72 37 172l125 127q53 54 103.5 56.5t90.5 -48.5q80 -103 -41 -192zM692 1303q-115 -84 -174 -13q-60 72 37 172l125 127q53 54 103.5 56.5t90.5 -48.5q81 -104 -40 -192z" />
    <glyph glyph-name="gravecomb" unicode="&#x300;" 
d="M-92 1350q-35 -87 -170 -43l-295 94q-69 22 -93 67t-1 107q24 61 71 76.5t115 -17.5l279 -137q129 -63 94 -147z" />
    <glyph glyph-name="acutecomb" unicode="&#x301;" 
d="M-483 1307q-135 -44 -170 43q-35 84 94 147l278 137q66 32 116 16.5t73 -75.5q23 -61 -2 -106.5t-94 -67.5z" />
    <glyph glyph-name="uni0302" unicode="&#x302;" 
d="M-784 1321q-53 77 18 137l229 193q32 28 70 28t70 -28l229 -193q72 -61 23 -131q-54 -79 -136 -31l-186 109l-186 -109q-80 -47 -131 25z" />
    <glyph glyph-name="tildecomb" unicode="&#x303;" 
d="M-811 1370q-37 -24 -60.5 -27t-60.5 17q-42 27 -52 62.5t17 76.5q113 150 252 150q52 0 136.5 -37t125.5 -37q39 0 64 14q32 18 48.5 24.5t39 6.5t43.5 -14q42 -27 52 -63t-17 -77q-112 -149 -252 -149q-53 0 -137.5 37t-126.5 37q-37 0 -72 -21z" />
    <glyph glyph-name="uni0304" unicode="&#x304;" 
d="M-598 1372q-63 0 -97 33.5t-34 95.5q0 61 34 94t97 33h418q63 0 97 -33t34 -94q0 -63 -34 -96t-97 -33h-418z" />
    <glyph glyph-name="uni0306" unicode="&#x306;" 
d="M-467 1262q-130 0 -223 68t-121 177q-15 59 19 100.5t98 41.5q35 0 64.5 -20.5t45.5 -51.5q24 -45 51 -58.5t66 -13.5q24 0 40.5 3.5t38.5 20.5t38 48t45.5 51.5t64.5 20.5q64 0 98 -41.5t19 -100.5q-28 -109 -121 -177t-223 -68z" />
    <glyph glyph-name="uni0307" unicode="&#x307;" 
d="M-256 1315q-89 0 -136.5 43.5t-47.5 122.5v2q0 80 47.5 123t136.5 43t136.5 -43t47.5 -123v-2q0 -79 -47 -122.5t-137 -43.5z" />
    <glyph glyph-name="uni0308" unicode="&#x308;" 
d="M-682 1315q-83 0 -127.5 42t-44.5 118v14q0 77 44.5 118.5t127.5 41.5t127.5 -41.5t44.5 -118.5v-14q0 -76 -44 -118t-128 -42zM-281 1315q-83 0 -127.5 42t-44.5 118v14q0 77 44.5 118.5t127.5 41.5t127.5 -41.5t44.5 -118.5v-14q0 -76 -44 -118t-128 -42z" />
    <glyph glyph-name="uni030A" unicode="&#x30a;" 
d="M-426 1208q-138 0 -221.5 65.5t-83.5 172.5v27q0 107 83.5 172t221.5 65t221.5 -65t83.5 -172v-27q0 -107 -83.5 -172.5t-221.5 -65.5zM-426 1391q41 0 66.5 16.5t25.5 44.5v14q0 28 -25.5 45t-66.5 17t-66.5 -17t-25.5 -45v-14q0 -28 25.5 -44.5t66.5 -16.5z" />
    <glyph glyph-name="uni030B" unicode="&#x30b;" 
d="M-735 1303q-115 -84 -174 -13q-60 72 37 172l124 127q53 54 104 56.5t91 -48.5q80 -103 -41 -192zM-334 1303q-115 -84 -174 -13q-60 72 37 172l125 127q53 54 103.5 56.5t90.5 -48.5q80 -103 -41 -192z" />
    <glyph glyph-name="uni030C" unicode="&#x30c;" 
d="M-467 1257q-37 0 -70 29l-229 193q-71 60 -18 137q50 71 131 24l186 -108l186 108q82 48 136 -30q49 -70 -23 -131l-229 -193q-33 -29 -70 -29z" />
    <glyph glyph-name="uni0312" unicode="&#x312;" 
d="M-209 1638q61 -23 77.5 -63.5t-5.5 -104.5l-25 -81q-25 -83 -65 -110.5t-121 -2.5q-59 18 -83 50t-18 70t35 89l41 69q19 31 33.5 49.5t35 33t41.5 12.5t54 -11z" />
    <glyph glyph-name="uni0326" unicode="&#x326;" 
d="M-395 -430q-129 48 -82 168l24 61q34 82 80.5 112.5t126.5 0.5q44 -16 68 -36.5t28 -45.5t-3.5 -49.5t-26.5 -56.5l-43 -70q-39 -63 -76.5 -84.5t-95.5 0.5z" />
    <glyph glyph-name="uni0327" unicode="&#x327;" 
d="M-231 -47q72 -25 111.5 -66.5t39.5 -93.5v-6q0 -94 -98.5 -150.5t-261.5 -56.5h-2q-54 0 -84.5 27t-30.5 76q0 89 78 102q37 6 37 25v2q0 10 -6.5 15.5t-24.5 16.5q-23 13 -29 26.5t0 35.5l70 233l242 -82z" />
    <glyph glyph-name="uni0328" unicode="&#x328;" 
d="M-322 -440q-126 0 -202 67.5t-76 179.5v7q0 107 111 196t294 127l7 -129q-54 -36 -54 -84v-4q0 -23 16 -40t56 -44q38 -26 53 -48.5t15 -68.5q0 -77 -56 -118t-161 -41h-3z" />
    <glyph glyph-name="uni0335" unicode="&#x335;" 
d="M-715 686q-71 0 -109 34.5t-38 98.5t38 98.5t109 34.5h529q71 0 109 -34.5t38 -98.5t-38 -98.5t-109 -34.5h-529z" />
    <glyph glyph-name="uni0336" unicode="&#x336;" 
d="M-1538 676q-71 0 -109.5 37t-38.5 106t38.5 106.5t109.5 37.5h1296q71 0 109.5 -37.5t38.5 -106.5t-38.5 -106t-109.5 -37h-1296z" />
    <glyph glyph-name="uni0394" unicode="&#x394;" horiz-adv-x="1533" 
d="M1464 248q13 -44 13 -78q0 -80 -62 -125t-145 -45h-1006q-84 0 -145.5 46t-61.5 124q0 34 13 78l360 1167q33 107 114.5 165t203.5 58h38q122 0 203.5 -58t114.5 -165zM768 1280l-283 -952h564z" />
    <glyph glyph-name="uni03A9" unicode="&#x3a9;" horiz-adv-x="1638" 
d="M1378 328q88 -1 134.5 -43.5t46.5 -120.5q0 -79 -49 -121.5t-140 -42.5h-301q-82 0 -125 43t-43 125q0 72 30.5 116.5t98.5 94.5q59 43 91 117t32 166v315q0 151 -91.5 242.5t-242.5 91.5t-242.5 -91.5t-91.5 -242.5v-315q0 -184 123 -283q48 -38 70.5 -61t40.5 -61.5
t18 -88.5q0 -82 -43 -125t-125 -43h-301q-91 0 -139.5 42.5t-48.5 121.5q0 78 46 120.5t134 43.5q-160 141 -160 354v315q0 293 197.5 472.5t521.5 179.5t521.5 -179.5t197.5 -472.5v-315q0 -213 -160 -354z" />
    <glyph glyph-name="pi" unicode="&#x3c0;" horiz-adv-x="1456" 
d="M1300 1167q71 0 109.5 -37t38.5 -106t-38.5 -106t-109.5 -37h-53v-713q0 -91 -47 -139.5t-137 -48.5q-89 0 -136.5 48.5t-47.5 139.5v713h-301v-713q0 -91 -47.5 -139.5t-137.5 -48.5q-89 0 -136.5 48.5t-47.5 139.5v713h-53q-71 0 -109.5 37t-38.5 106t38.5 106
t109.5 37h1144z" />
    <glyph glyph-name="Wgrave" unicode="&#x1e80;" horiz-adv-x="2160" 
d="M895 1802q-71 17 -99.5 60t-9.5 106q19 62 67.5 80t115.5 -10l288 -117q132 -54 105 -139q-14 -43 -57 -56.5t-111 3.5zM1966 1642q89 -17 126.5 -73.5t18.5 -147.5l-243 -1196q-23 -109 -93.5 -172t-189.5 -63h-43q-120 0 -189.5 63t-90.5 172l-181 955l-182 -955
q-21 -109 -91 -172t-190 -63h-40q-119 0 -189.5 63t-93.5 172l-246 1196q-19 90 19.5 147t128.5 74t146 -21t71 -130l192 -1120l176 1042q19 112 86 168.5t191 56.5h45q123 0 189 -56t85 -169l178 -1042l191 1120q15 91 72 129.5t147 21.5z" />
    <glyph glyph-name="wgrave" unicode="&#x1e81;" horiz-adv-x="1839" 
d="M725 1401q-69 22 -93 67t-1 107q24 61 71 76.5t115 -17.5l279 -137q129 -63 94 -147q-35 -87 -170 -43zM1655 1182q86 -19 120.5 -77t12.5 -147l-174 -716q-63 -252 -285 -252h-14q-124 0 -192 70.5t-93 181.5l-110 501l-111 -501q-25 -111 -93 -181.5t-192 -70.5h-16
q-222 0 -285 252l-174 716q-22 89 13.5 147t121.5 77t142 -19t75 -129l127 -643l119 547q12 52 30 92.5t47.5 75.5t76.5 53.5t108 18.5h19q61 0 108 -18.5t76.5 -53.5t47.5 -75.5t30 -92.5l119 -553l127 649q19 90 75.5 128.5t143.5 19.5z" />
    <glyph glyph-name="Wacute" unicode="&#x1e82;" horiz-adv-x="2160" 
d="M969 1729q-138 -35 -166 53q-28 85 104 139l287 117q69 28 117 9.5t65 -79.5q38 -130 -108 -166zM1966 1642q89 -17 126.5 -73.5t18.5 -147.5l-243 -1196q-23 -109 -93.5 -172t-189.5 -63h-43q-120 0 -189.5 63t-90.5 172l-181 955l-182 -955q-21 -109 -91 -172t-190 -63
h-40q-119 0 -189.5 63t-93.5 172l-246 1196q-19 90 19.5 147t128.5 74t146 -21t71 -130l192 -1120l176 1042q19 112 86 168.5t191 56.5h45q123 0 189 -56t85 -169l178 -1042l191 1120q15 91 72 129.5t147 21.5z" />
    <glyph glyph-name="wacute" unicode="&#x1e83;" horiz-adv-x="1839" 
d="M819 1307q-135 -44 -170 43q-35 84 94 147l279 137q66 32 115.5 16.5t72.5 -75.5q23 -61 -2 -106.5t-94 -67.5zM1655 1182q86 -19 120.5 -77t12.5 -147l-174 -716q-63 -252 -285 -252h-14q-124 0 -192 70.5t-93 181.5l-110 501l-111 -501q-25 -111 -93 -181.5t-192 -70.5
h-16q-222 0 -285 252l-174 716q-22 89 13.5 147t121.5 77t142 -19t75 -129l127 -643l119 547q12 52 30 92.5t47.5 75.5t76.5 53.5t108 18.5h19q61 0 108 -18.5t76.5 -53.5t47.5 -75.5t30 -92.5l119 -553l127 649q19 90 75.5 128.5t143.5 19.5z" />
    <glyph glyph-name="Wdieresis" unicode="&#x1e84;" horiz-adv-x="2160" 
d="M881 1729q-83 0 -127.5 42t-44.5 117v15q0 77 44.5 118t127.5 41t127.5 -41t44.5 -118v-15q0 -76 -44 -117.5t-128 -41.5zM1282 1729q-83 0 -127.5 42t-44.5 117v15q0 77 44.5 118t127.5 41t127.5 -41t44.5 -118v-15q0 -76 -44 -117.5t-128 -41.5zM1966 1642
q89 -17 126.5 -73.5t18.5 -147.5l-243 -1196q-23 -109 -93.5 -172t-189.5 -63h-43q-120 0 -189.5 63t-90.5 172l-181 955l-182 -955q-21 -109 -91 -172t-190 -63h-40q-119 0 -189.5 63t-93.5 172l-246 1196q-19 90 19.5 147t128.5 74t146 -21t71 -130l192 -1120l176 1042
q19 112 86 168.5t191 56.5h45q123 0 189 -56t85 -169l178 -1042l191 1120q15 91 72 129.5t147 21.5z" />
    <glyph glyph-name="wdieresis" unicode="&#x1e85;" horiz-adv-x="1839" 
d="M719 1315q-83 0 -127.5 42t-44.5 118v14q0 77 44.5 118.5t127.5 41.5t127.5 -41.5t44.5 -118.5v-14q0 -76 -44 -118t-128 -42zM1120 1315q-83 0 -127.5 42t-44.5 118v14q0 77 44.5 118.5t127.5 41.5t127.5 -41.5t44.5 -118.5v-14q0 -76 -44 -118t-128 -42zM1655 1182
q86 -19 120.5 -77t12.5 -147l-174 -716q-63 -252 -285 -252h-14q-124 0 -192 70.5t-93 181.5l-110 501l-111 -501q-25 -111 -93 -181.5t-192 -70.5h-16q-222 0 -285 252l-174 716q-22 89 13.5 147t121.5 77t142 -19t75 -129l127 -643l119 547q12 52 30 92.5t47.5 75.5
t76.5 53.5t108 18.5h19q61 0 108 -18.5t76.5 -53.5t47.5 -75.5t30 -92.5l119 -553l127 649q19 90 75.5 128.5t143.5 19.5z" />
    <glyph glyph-name="uni1E9E" unicode="&#x1e9e;" horiz-adv-x="1550" 
d="M1124 958q174 -35 276.5 -154t102.5 -284v-59q0 -207 -144.5 -334t-381.5 -127h-150q-67 0 -103 42t-36 122t43 122t125 42h100q73 0 117.5 42t44.5 111v29q0 69 -44.5 111.5t-117.5 42.5h-49q-91 0 -139.5 45.5t-48.5 128.5v18q0 114 69 207l179 244l-467 -4v-1131
q0 -94 -49.5 -143t-143.5 -49t-143 49t-49 143v1288q0 82 43 125t125 43h913q104 0 159.5 -54t55.5 -155v-12q0 -62 -18 -110.5t-60 -98.5z" />
    <glyph glyph-name="Ygrave" unicode="&#x1ef2;" horiz-adv-x="1464" 
d="M547 1802q-71 17 -99.5 60t-9.5 106q19 62 67.5 80t115.5 -10l288 -117q132 -54 105 -139q-14 -43 -57 -56.5t-111 3.5zM1296 1620q80 -43 100 -108.5t-26 -145.5l-444 -743v-451q0 -94 -49.5 -143t-143.5 -49t-143 49t-49 143v446l-447 748q-46 80 -26 145.5t100 108.5
q159 85 254 -80l311 -541l309 541q95 165 254 80z" />
    <glyph glyph-name="ygrave" unicode="&#x1ef3;" horiz-adv-x="1159" 
d="M383 1401q-69 22 -93 67t-1 107q24 61 71 76.5t115 -17.5l279 -137q129 -63 94 -147q-35 -87 -170 -43zM985 1176q85 -28 113.5 -90t-2.5 -148l-344 -977q-66 -189 -200 -295t-323 -106q-69 0 -107 38.5t-38 108.5q0 68 32 103.5t93 35.5q55 0 100 29.5t62 77.5l30 82
l-335 903q-32 88 -4.5 150t112.5 88q86 26 147 -5.5t89 -117.5l184 -570l160 564q26 89 86 123t145 6z" />
    <glyph glyph-name="endash" unicode="&#x2013;" horiz-adv-x="1044" 
d="M236 449q-71 0 -109.5 37t-38.5 106t38.5 106t109.5 37h573q71 0 109 -37t38 -106t-38 -106t-109 -37h-573z" />
    <glyph glyph-name="emdash" unicode="&#x2014;" horiz-adv-x="1800" 
d="M236 449q-71 0 -109.5 37t-38.5 106t38.5 106t109.5 37h1329q71 0 109 -37t38 -106t-38 -106t-109 -37h-1329z" />
    <glyph glyph-name="quoteleft" unicode="&#x2018;" horiz-adv-x="518" 
d="M354 1640q126 -29 107 -165l-31 -218q-12 -92 -67 -130.5t-144 -16.5q-90 22 -120.5 81.5t3.5 147.5l80 205q49 125 172 96z" />
    <glyph glyph-name="quoteright" unicode="&#x2019;" horiz-adv-x="497" 
d="M176 1110q-125 29 -106 166l30 217q12 92 67 130.5t144 16.5q90 -22 120.5 -81.5t-3.5 -147.5l-80 -205q-49 -125 -172 -96z" />
    <glyph glyph-name="quotesinglbase" unicode="&#x201a;" horiz-adv-x="530" 
d="M156 -190q-126 29 -107 165l31 218q12 92 67 130.5t144 16.5q90 -22 120.5 -81.5t-3.5 -147.5l-80 -205q-49 -125 -172 -96z" />
    <glyph glyph-name="quotedblleft" unicode="&#x201c;" horiz-adv-x="937" 
d="M354 1640q126 -29 107 -165l-31 -218q-12 -92 -67 -130.5t-144 -16.5q-90 22 -120.5 81.5t3.5 147.5l80 205q49 125 172 96zM774 1640q126 -29 107 -165l-31 -218q-12 -92 -67 -130.5t-144 -16.5q-90 22 -120.5 81.5t3.5 147.5l80 205q49 125 172 96z" />
    <glyph glyph-name="quotedblright" unicode="&#x201d;" horiz-adv-x="917" 
d="M176 1110q-125 29 -106 166l30 217q12 92 67 130.5t144 16.5q90 -22 120.5 -81.5t-3.5 -147.5l-80 -205q-49 -125 -172 -96zM596 1110q-126 29 -107 166l31 217q12 92 67 130.5t144 16.5q90 -22 120.5 -81.5t-3.5 -147.5l-80 -205q-49 -125 -172 -96z" />
    <glyph glyph-name="quotedblbase" unicode="&#x201e;" horiz-adv-x="950" 
d="M156 -190q-126 29 -107 165l31 218q12 92 67 130.5t144 16.5q90 -22 120.5 -81.5t-3.5 -147.5l-80 -205q-49 -125 -172 -96zM575 -190q-125 29 -106 165l31 218q12 92 67 130.5t144 16.5q90 -22 120 -81.5t-4 -147.5l-79 -205q-49 -125 -173 -96z" />
    <glyph glyph-name="dagger" unicode="&#x2020;" horiz-adv-x="708" 
d="M555 1448q54 0 82.5 -23.5t28.5 -66.5t-28.5 -66.5t-82.5 -23.5h-94v-334q0 -111 -107 -111q-51 0 -78.5 28.5t-27.5 82.5v334h-94q-54 0 -82.5 23.5t-28.5 66.5t28.5 66.5t82.5 23.5h94v74q0 54 27.5 82t78.5 28t79 -28t28 -82v-74h94z" />
    <glyph glyph-name="daggerdbl" unicode="&#x2021;" horiz-adv-x="741" 
d="M170 1268q-54 0 -82.5 23.5t-28.5 66.5t28.5 66.5t82.5 23.5h94v74q0 54 28 82t79 28t78.5 -28t27.5 -82v-74h94q54 0 82.5 -23.5t28.5 -66.5t-28.5 -66.5t-82.5 -23.5h-401zM571 1186q54 0 82.5 -23.5t28.5 -66.5t-28.5 -66.5t-82.5 -23.5h-94v-72q0 -54 -27.5 -82.5
t-78.5 -28.5t-79 28.5t-28 82.5v72h-94q-54 0 -82.5 23.5t-28.5 66.5t28.5 66.5t82.5 23.5h401z" />
    <glyph glyph-name="bullet" unicode="&#x2022;" horiz-adv-x="761" 
d="M381 297q-128 0 -205.5 74.5t-77.5 197.5v29q0 123 77.5 197.5t205.5 74.5t205.5 -74.5t77.5 -197.5v-29q0 -123 -77.5 -197.5t-205.5 -74.5z" />
    <glyph glyph-name="ellipsis" unicode="&#x2026;" horiz-adv-x="1525" 
d="M260 -20q-94 0 -144 47.5t-50 136.5v2q0 90 50 137t144 47t144.5 -47t50.5 -137v-2q0 -89 -50 -136.5t-145 -47.5zM762 -20q-94 0 -144.5 47.5t-50.5 136.5v2q0 90 50.5 137t144.5 47t144 -47t50 -137v-2q0 -90 -49.5 -137t-144.5 -47zM1266 -20q-94 0 -144.5 47.5
t-50.5 136.5v2q0 90 50.5 137t144.5 47t144 -47t50 -137v-2q0 -90 -49.5 -137t-144.5 -47z" />
    <glyph glyph-name="perthousand" unicode="&#x2030;" horiz-adv-x="2447" 
d="M391 805q-155 0 -250.5 82t-95.5 217v237q0 134 95.5 216.5t250.5 82.5q158 0 253 -82.5t95 -216.5v-237q0 -135 -95 -217t-253 -82zM567 90q-31 -53 -75 -66t-97 17q-106 62 -43 172l768 1327q31 53 75 65t97 -18q106 -62 43 -172zM391 1036q38 0 60 22t22 58v211
q0 37 -22 59.5t-60 22.5q-37 0 -59.5 -22.5t-22.5 -59.5v-211q0 -35 22.5 -57.5t59.5 -22.5zM1294 -10q-155 0 -250.5 82t-95.5 217v237q0 134 95.5 216.5t250.5 82.5q158 0 253 -82.5t95 -216.5v-237q0 -135 -95 -217t-253 -82zM2054 -10q-155 0 -250.5 82t-95.5 217v237
q0 134 95.5 216.5t250.5 82.5q158 0 253 -82.5t95 -216.5v-237q0 -135 -95 -217t-253 -82zM1294 221q38 0 60 22t22 58v211q0 37 -22 59.5t-60 22.5q-37 0 -59.5 -22.5t-22.5 -59.5v-211q0 -35 22.5 -57.5t59.5 -22.5zM2054 221q38 0 60 22t22 58v211q0 37 -22 59.5
t-60 22.5q-37 0 -59.5 -22.5t-22.5 -59.5v-211q0 -35 22.5 -57.5t59.5 -22.5z" />
    <glyph glyph-name="guilsinglleft" unicode="&#x2039;" horiz-adv-x="1148" 
d="M946 412q75 -26 103.5 -78.5t5.5 -122.5q-23 -69 -79 -90t-132 10l-662 264q-141 57 -141 197q0 139 141 196l662 265q76 31 132.5 10t78.5 -90q23 -72 -5.5 -123.5t-103.5 -77.5l-510 -180z" />
    <glyph glyph-name="guilsinglright" unicode="&#x203a;" horiz-adv-x="1148" 
d="M967 788q141 -57 141 -196q0 -140 -141 -197l-662 -264q-76 -31 -132 -10t-79 90q-23 70 5.5 122.5t103.5 78.5l510 180l-510 180q-75 26 -103.5 77.5t-5.5 123.5q22 69 78.5 90t132.5 -10z" />
    <glyph glyph-name="fraction" unicode="&#x2044;" horiz-adv-x="204" 
d="M-174 90q-31 -53 -75 -66t-97 17q-106 62 -43 172l768 1327q31 53 75 65t97 -18q106 -62 43 -172z" />
    <glyph glyph-name="lira" unicode="&#x20a4;" horiz-adv-x="1560" 
d="M219 868q-62 0 -94.5 31.5t-32.5 91.5t32.5 91.5t94.5 31.5h53v342q0 94 49.5 143.5t143.5 49.5t143 -49.5t49 -143.5v-342h379q62 0 94.5 -31.5t32.5 -91.5t-32.5 -91.5t-94.5 -31.5h-817zM1333 438q47 -15 78 -43t42 -60.5t6.5 -67.5t-25.5 -64q-143 -203 -496 -203
h-498q-82 0 -125 43t-43 125v373h-53q-62 0 -94.5 31.5t-32.5 91.5t32.5 91t94.5 31h817q62 0 94.5 -31t32.5 -91t-32.5 -91.5t-94.5 -31.5h-379v-213h281q91 0 201 73q16 11 23.5 15.5t30.5 14.5t41 13.5t45 3t54 -9.5z" />
    <glyph glyph-name="Euro" unicode="&#x20ac;" horiz-adv-x="1536" 
d="M182 868q-62 0 -94.5 31.5t-32.5 91.5t32.5 91.5t94.5 31.5h56q23 244 202.5 389.5t458.5 145.5q152 0 279.5 -47.5t201.5 -141.5q33 -42 34.5 -95.5t-31 -100t-91.5 -66.5q-35 -12 -65 -14t-54 5.5t-39.5 16t-33.5 21.5q-74 56 -113 70t-88 14q-101 0 -172 -53t-96 -144
h368q62 0 94.5 -31.5t32.5 -91.5t-32.5 -91.5t-94.5 -31.5h-817zM1307 442q44 -15 74 -41.5t41.5 -56.5t11 -59t-12.5 -52q-68 -130 -208 -191.5t-312 -61.5q-288 0 -468.5 153.5t-194.5 407.5h-56q-62 0 -94.5 31.5t-32.5 91.5t32.5 91t94.5 31h817q62 0 94.5 -31t32.5 -91
t-32.5 -91.5t-94.5 -31.5h-374q19 -103 92.5 -163.5t183.5 -60.5q35 0 62 4t69 25.5t76 61.5q67 79 199 34z" />
    <glyph glyph-name="uni20B1" unicode="&#x20b1;" horiz-adv-x="1583" 
d="M1384 1298q75 0 115.5 -39.5t40.5 -113.5t-40.5 -114t-115.5 -40h-18q-40 -152 -171.5 -239.5t-322.5 -87.5h-249v-492q0 -94 -49.5 -143t-143.5 -49t-143 49t-49 143v819h-23q-75 0 -115.5 40t-40.5 114t40.5 113.5t115.5 39.5h23v162q0 82 43 125t125 43h466
q191 0 323.5 -88.5t172.5 -241.5h16zM997 1137v18q0 66 -40 105.5t-105 39.5h-229v-309h229q65 0 105 40t40 106z" />
    <glyph glyph-name="uni20B9" unicode="&#x20b9;" horiz-adv-x="1351" 
d="M180 1382q-62 0 -94.5 31.5t-32.5 91.5t32.5 91.5t94.5 31.5h1002q62 0 94.5 -31.5t32.5 -91.5t-32.5 -91.5t-94.5 -31.5h-1002zM1182 1300q62 0 94.5 -31t32.5 -91t-32.5 -91.5t-94.5 -31.5h-35q-13 -124 -85 -214.5t-190 -135.5l197 -461q36 -83 10 -147.5t-110 -98.5
q-85 -34 -148 -7.5t-98 111.5l-231 562h-293q-70 0 -108 37t-38 106t38 106t108 37h442q53 0 91 28.5t50 76.5h-602q-62 0 -94.5 31.5t-32.5 91.5t32.5 91t94.5 31h1002z" />
    <glyph glyph-name="uni20BD" unicode="&#x20bd;" horiz-adv-x="1503" 
d="M948 1628q229 0 369.5 -124t140.5 -328v-60q0 -204 -140.5 -328t-369.5 -124h-719q-75 0 -115 39.5t-40 113.5t40 114t115 40h23v489q0 82 43 125t125 43h528zM1073 1137v18q0 66 -40 105.5t-105 39.5h-291v-309h291q65 0 105 40t40 106zM989 582q75 0 115.5 -40
t40.5 -114t-40.5 -114t-115.5 -40h-352v-102q0 -94 -49.5 -143t-143.5 -49t-143 49t-49 143v102h-23q-75 0 -115 40t-40 114t40 114t115 40h760z" />
    <glyph glyph-name="uni20BF" unicode="&#x20bf;" horiz-adv-x="1523" 
d="M1239 836q109 -46 170 -131t61 -195v-49q0 -207 -140 -334t-369 -127h-87v-27q0 -91 -47 -139.5t-137 -48.5q-89 0 -136.5 48.5t-47.5 139.5v27h-217q-82 0 -125 43t-43 125v1292q0 82 43 125t125 43h217v27q0 91 47.5 139.5t136.5 48.5t136.5 -48.5t47.5 -139.5v-27h46
q230 0 370 -124t140 -328v-39q0 -97 -49.5 -174t-141.5 -127zM506 1300v-309h393q66 0 105.5 40t39.5 106v18q0 66 -39.5 105.5t-105.5 39.5h-393zM1085 481v29q0 69 -40 111.5t-105 42.5h-434v-336h434q65 0 105 42t40 111z" />
    <glyph glyph-name="trademark" unicode="&#x2122;" horiz-adv-x="1472" 
d="M1237 1632q63 0 99 -35.5t36 -99.5v-414q0 -110 -104 -110q-106 0 -103 112l6 224l-77 -140q-36 -65 -80 -65q-46 0 -82 65l-76 136l6 -220q3 -112 -102 -112q-51 0 -79 28t-28 82v414q0 64 36 99.5t99 35.5h13q86 0 135 -90l78 -149l76 149q46 90 135 90h12zM524 1628
q45 0 69.5 -23.5t24.5 -66.5t-25 -66.5t-69 -23.5h-86v-365q0 -110 -106 -110q-51 0 -79 28t-28 82v365h-86q-45 0 -69.5 23.5t-24.5 66.5t25 66.5t69 23.5h385z" />
    <glyph glyph-name="oneeighth" unicode="&#x215b;" horiz-adv-x="1624" 
d="M287 1337l-25 -20q-43 -36 -84.5 -33t-75.5 45q-70 85 17 160l106 88q62 51 154 51h8q78 0 121 -39t43 -112v-537q0 -65 -33.5 -100t-97.5 -35q-65 0 -99 34.5t-34 100.5v397zM1214 1587q106 -62 43 -172l-768 -1325q-31 -53 -75 -66t-97 17q-106 62 -43 172l768 1327
q31 53 75 65t97 -18zM1458 418q105 -60 105 -164v-4q0 -118 -95.5 -189t-253.5 -71q-157 0 -251.5 71t-94.5 189v4q0 104 105 164q-84 55 -84 149v2q0 115 89 185.5t236 70.5q148 0 238 -70.5t90 -185.5v-2q0 -94 -84 -149zM1165 559v-2q0 -15 13.5 -25t35.5 -10
q23 0 37.5 10t14.5 25v2q0 15 -14.5 25t-37.5 10q-22 0 -35.5 -10t-13.5 -25zM1286 260v2q0 19 -20 30t-52 11q-31 0 -50 -11t-19 -30v-2q0 -19 19 -30t50 -11q32 0 52 11t20 30z" />
    <glyph glyph-name="threeeighths" unicode="&#x215c;" horiz-adv-x="1669" 
d="M721 1059q0 -115 -90.5 -184.5t-239.5 -69.5q-213 0 -299 123q-12 22 -10 46.5t26.5 50.5t65.5 40q82 26 125 -4q45 -33 84 -33q32 0 53 12t21 31v2q0 19 -15 31t-39 12h-2q-47 0 -72.5 30t-25.5 85q0 52 24 80t68 28h2q20 0 32.5 10t12.5 25v4q0 37 -59 37
q-35 0 -70 -14q-67 -26 -135 2q-54 23 -70.5 65t11.5 74q79 98 272 98q142 0 230 -67.5t88 -179.5v-19q0 -91 -99 -145q111 -52 111 -156v-14zM1274 1587q106 -62 43 -172l-768 -1325q-31 -53 -75 -66t-97 17q-106 62 -43 172l768 1327q31 53 75 65t97 -18zM1518 418
q104 -60 104 -164v-4q0 -118 -95 -189t-253 -71q-157 0 -251.5 71t-94.5 189v4q0 104 104 164q-84 55 -84 149v2q0 114 89.5 185t236.5 71q148 0 238 -70.5t90 -185.5v-2q0 -94 -84 -149zM1225 559v-2q0 -15 13.5 -25t35.5 -10q23 0 37 10t14 25v2q0 15 -14 25t-37 10
q-22 0 -35.5 -10t-13.5 -25zM1346 260v2q0 19 -20 30t-52 11q-31 0 -50.5 -11t-19.5 -30v-2q0 -19 19.5 -30t50.5 -11q32 0 52 11t20 30z" />
    <glyph glyph-name="fiveeighths" unicode="&#x215d;" horiz-adv-x="1662" 
d="M721 1065q0 -118 -91.5 -190t-240.5 -72q-214 0 -293 110q-26 31 -4.5 75.5t84.5 72.5q48 17 78 14t47 -16q39 -29 80 -29q31 0 50.5 13.5t19.5 35.5v2q0 22 -18.5 35.5t-49.5 13.5h-190q-58 0 -86.5 32t-20.5 89l33 269q6 52 38 79t85 27h331q55 0 85 -29.5t30 -83.5
t-30 -83t-85 -29h-204l-7 -43h82q124 0 200.5 -74.5t76.5 -196.5v-22zM1266 1587q106 -62 43 -172l-768 -1325q-31 -53 -75 -66t-97 17q-106 62 -43 172l768 1327q31 53 75 65t97 -18zM1509 418q105 -60 105 -164v-4q0 -118 -95 -189t-253 -71q-157 0 -251.5 71t-94.5 189v4
q0 104 104 164q-84 55 -84 149v2q0 114 89.5 185t236.5 71q148 0 237.5 -70.5t89.5 -185.5v-2q0 -94 -84 -149zM1217 559v-2q0 -15 13.5 -25t35.5 -10q23 0 37 10t14 25v2q0 15 -14 25t-37 10q-22 0 -35.5 -10t-13.5 -25zM1337 260v2q0 19 -19.5 30t-51.5 11
q-31 0 -50.5 -11t-19.5 -30v-2q0 -19 19.5 -30t50.5 -11q32 0 51.5 11t19.5 30z" />
    <glyph glyph-name="seveneighths" unicode="&#x215e;" horiz-adv-x="1613" 
d="M444 891q-60 -126 -180 -70q-123 57 -65 183l186 403l-227 -2q-56 0 -85.5 28.5t-29.5 82.5t30 83t85 29h362q75 0 115.5 -38.5t40.5 -110.5v-11q0 -75 -31 -141zM1221 1587q106 -62 43 -172l-768 -1325q-31 -53 -75 -66t-97 17q-106 62 -43 172l768 1327q31 53 75 65
t97 -18zM1464 418q105 -60 105 -164v-4q0 -118 -95 -189t-253 -71q-157 0 -252 71t-95 189v4q0 104 105 164q-84 55 -84 149v2q0 114 89.5 185t236.5 71q148 0 237.5 -70.5t89.5 -185.5v-2q0 -94 -84 -149zM1171 559v-2q0 -15 14 -25t36 -10q23 0 37 10t14 25v2q0 15 -14 25
t-37 10q-22 0 -36 -10t-14 -25zM1292 260v2q0 19 -19.5 30t-51.5 11q-31 0 -50.5 -11t-19.5 -30v-2q0 -19 19.5 -30t50.5 -11q32 0 51.5 11t19.5 30z" />
    <glyph glyph-name="arrowleft" unicode="&#x2190;" horiz-adv-x="1748" 
d="M1522 991q82 0 125 -42t43 -122q0 -79 -43 -121t-125 -42h-901l180 -175q120 -117 12 -225q-53 -52 -111.5 -49.5t-115.5 59.5l-555 553l555 553q57 57 115.5 60t111.5 -49q109 -109 -12 -226l-180 -174h901z" />
    <glyph glyph-name="arrowup" unicode="&#x2191;" horiz-adv-x="1400" 
d="M1253 1094q57 -57 60 -116t-49 -112t-110.5 -50t-115.5 63l-174 180v-912q0 -82 -42 -124.5t-122 -42.5t-121.5 42.5t-41.5 124.5v912l-175 -180q-57 -60 -115 -63t-110 50t-49.5 112t59.5 116l553 555z" />
    <glyph glyph-name="arrowright" unicode="&#x2192;" horiz-adv-x="1748" 
d="M1163 1380l555 -553l-555 -553q-57 -57 -115.5 -59.5t-111.5 49.5q-108 108 12 225l180 175h-901q-82 0 -125 42t-43 121q0 80 43 122t125 42h901l-180 174q-121 117 -12 226q53 52 111.5 49t115.5 -60z" />
    <glyph glyph-name="arrowdown" unicode="&#x2193;" horiz-adv-x="1400" 
d="M1264 762q52 -53 49 -111.5t-60 -115.5l-553 -555l-553 555q-57 57 -59.5 115.5t49.5 111.5t110 50.5t115 -62.5l175 -181v912q0 82 42 125t121 43q80 0 122 -43t42 -125v-912l174 181q57 60 115.5 62.5t110.5 -50.5z" />
    <glyph glyph-name="partialdiff" unicode="&#x2202;" horiz-adv-x="1257" 
d="M346 1647q133 -15 258.5 -69.5t233.5 -149t188.5 -219t127 -289t46.5 -349.5v-98q0 -222 -160.5 -357.5t-423.5 -135.5q-264 0 -424.5 135t-160.5 358v57q0 223 130 358.5t345 135.5q140 0 248 -57q-70 135 -188 227t-257 121q-73 15 -115.5 64t-29.5 132q11 71 56.5 108
t125.5 28zM815 494v16q0 79 -55 127.5t-144 48.5q-91 0 -145.5 -48t-54.5 -128v-16q0 -80 54.5 -128.5t145.5 -48.5q89 0 144 49t55 128z" />
    <glyph glyph-name="emptyset" unicode="&#x2205;" horiz-adv-x="1271" 
d="M1079 954q125 -134 125 -340v-61q0 -230 -156 -371t-411 -141q-135 0 -244 41l-43 -55q-74 -95 -168 -25t-18 168l31 41q-127 133 -127 342v61q0 230 156.5 371t412.5 141q131 0 240 -39l43 54q37 46 81.5 52t90.5 -28t50.5 -78.5t-32.5 -91.5zM436 563q0 -27 2 -39
l221 283q-6 2 -22 2q-91 0 -146 -56.5t-55 -148.5v-41zM836 563v41q0 27 -2 37l-222 -281q8 -2 25 -2q89 0 144 56.5t55 148.5z" />
    <glyph glyph-name="product" unicode="&#x220f;" horiz-adv-x="1619" 
d="M1409 1833q82 0 125 -42t43 -122t-43 -122t-125 -42h-33v-1528q0 -94 -49 -143t-143 -49t-143.5 49t-49.5 143v1528h-362v-1528q0 -94 -49.5 -143t-143.5 -49t-143 49t-49 143v1528h-33q-82 0 -125 42t-43 122t43 122t125 42h1198z" />
    <glyph glyph-name="summation" unicode="&#x2211;" horiz-adv-x="1413" 
d="M1198 121q82 0 125 -41.5t43 -120.5q0 -80 -43 -122t-125 -42h-919q-111 0 -170.5 54t-59.5 155v12q0 62 18 110.5t60 98.5l522 606l-502 572q-77 88 -77 209v12q0 101 59.5 155t169.5 54h879q82 0 125 -42t43 -122q0 -79 -43 -120.5t-125 -41.5l-650 4l445 -503
q78 -89 78 -172q0 -44 -18 -84t-60 -90l-469 -545z" />
    <glyph glyph-name="minus" unicode="&#x2212;" horiz-adv-x="1155" 
d="M199 449q-71 0 -109.5 37t-38.5 106t38.5 106t109.5 37h757q71 0 109.5 -37t38.5 -106t-38.5 -106t-109.5 -37h-757z" />
    <glyph glyph-name="radical" unicode="&#x221a;" horiz-adv-x="1333" 
d="M1190 1843q88 -25 120.5 -84.5t6.5 -148.5l-479 -1590q-32 -108 -107.5 -171.5t-191.5 -63.5h-33q-116 0 -191.5 63.5t-107.5 171.5l-180 601q-26 88 6.5 148t118.5 83t144 -11.5t81 -125.5l145 -574l434 1571q25 88 85.5 122t148.5 9z" />
    <glyph glyph-name="infinity" unicode="&#x221e;" horiz-adv-x="1855" 
d="M1307 1079q220 0 354.5 -126t134.5 -335v-53q0 -206 -135 -333.5t-354 -127.5q-122 0 -219.5 45t-159.5 127q-62 -82 -159.5 -127t-219.5 -45q-219 0 -354.5 127.5t-135.5 333.5v53q0 209 135 335t355 126q121 0 219 -44.5t160 -125.5q62 81 160 125.5t219 44.5zM735 575
v33q0 63 -39.5 101.5t-105.5 38.5t-106 -38.5t-40 -101.5v-33q0 -62 40 -100.5t106 -38.5t105.5 38.5t39.5 100.5zM1411 575v33q0 63 -39.5 101.5t-105.5 38.5t-106 -38.5t-40 -101.5v-33q0 -62 40 -100.5t106 -38.5t105.5 38.5t39.5 100.5z" />
    <glyph glyph-name="integral" unicode="&#x222b;" horiz-adv-x="1142" 
d="M150 -205q-80 0 -124 42.5t-44 121.5q0 80 43 122t125 42h2q103 0 165 62t62 165v953q0 239 162.5 384.5t429.5 145.5h22q82 0 125 -42t43 -122t-43 -122t-125 -42h-2q-103 0 -165 -62t-62 -165v-952q0 -239 -162.5 -385t-429.5 -146h-22z" />
    <glyph glyph-name="approxequal" unicode="&#x2248;" horiz-adv-x="1200" 
d="M281 678q-28 -29 -49.5 -42t-45.5 -11t-51 22q-41 32 -50.5 70t17.5 82q63 98 148.5 154.5t171.5 56.5q48 0 105 -23t100 -51t91 -51t81 -23q63 0 119 56q28 28 49.5 40.5t45 10t50.5 -22.5q87 -67 33 -151q-63 -98 -148.5 -154.5t-171.5 -56.5q-48 0 -105.5 23
t-100.5 50.5t-91.5 50.5t-81.5 23q-66 0 -116 -53zM281 268q-42 -43 -72.5 -51t-73.5 21q-87 67 -33 151q63 98 148.5 154.5t171.5 56.5q48 0 105 -23t100 -50.5t91 -50.5t81 -23q64 0 119 55q28 28 49 40.5t45 10.5t51 -22q41 -32 50.5 -70t-17.5 -82
q-63 -98 -148.5 -154.5t-171.5 -56.5q-48 0 -105.5 23t-100.5 51t-91.5 51t-81.5 23q-65 0 -116 -54z" />
    <glyph glyph-name="notequal" unicode="&#x2260;" horiz-adv-x="1155" 
d="M956 555q71 0 109.5 -37t38.5 -106t-38.5 -106.5t-109.5 -37.5h-483l-180 -229q-74 -95 -168 -25q-46 34 -51 77.5t32 90.5l68 88q-59 6 -91 42.5t-32 99.5q0 69 38.5 106t109.5 37h198l64 82h-262q-71 0 -109.5 37t-38.5 106t38.5 106.5t109.5 37.5h485l178 229
q37 46 81.5 52.5t90.5 -27.5t51 -78.5t-32 -91.5l-68 -86q57 -8 88 -44.5t31 -97.5q0 -69 -38.5 -106t-109.5 -37h-194l-64 -82h258z" />
    <glyph glyph-name="equivalence" unicode="&#x2261;" horiz-adv-x="1441" 
d="M274 1073q-82 0 -125 42t-43 122t43 122t125 42h893q82 0 125 -42t43 -122t-43 -122t-125 -42h-893zM274 664q-82 0 -125 42t-43 121q0 80 43 122t125 42h893q82 0 125 -42t43 -122q0 -79 -43 -121t-125 -42h-893zM274 254q-82 0 -125 42t-43 122t43 122t125 42h893
q82 0 125 -42t43 -122t-43 -122t-125 -42h-893z" />
    <glyph glyph-name="lessequal" unicode="&#x2264;" horiz-adv-x="1155" 
d="M987 684q53 -9 89 -50.5t36 -96.5q0 -73 -57.5 -119t-128.5 -27l-750 195q-58 15 -95.5 62t-37.5 108t37.5 108t95.5 62l750 194q74 20 130 -27t56 -118q0 -55 -35 -97t-88 -51l-414 -71zM965 309q71 0 109 -37t38 -106t-38 -106t-109 -37h-775q-71 0 -109 37t-38 106
t38 106t109 37h775z" />
    <glyph glyph-name="greaterequal" unicode="&#x2265;" horiz-adv-x="1155" 
d="M43 537q0 55 36 96.5t89 50.5l412 72l-414 71q-53 9 -88 51t-35 97q0 71 56 118t130 27l750 -194q58 -15 95.5 -62t37.5 -108t-37.5 -108t-95.5 -62l-750 -195q-71 -19 -128.5 27t-57.5 119zM965 309q71 0 109 -37t38 -106t-38 -106t-109 -37h-775q-71 0 -109 37t-38 106
t38 106t109 37h775z" />
    <glyph glyph-name="triagup" unicode="&#x25b2;" horiz-adv-x="1413" 
d="M186 285q-49 0 -64.5 28.5t9.5 69.5l518 897q25 41 57.5 41t57.5 -41l518 -897q25 -41 9.5 -69.5t-64.5 -28.5h-1041z" />
    <glyph glyph-name="uni25B4" unicode="&#x25b4;" horiz-adv-x="1413" 
d="M426 258q-49 0 -64.5 28.5t9.5 69.5l278 484q25 41 57.5 41t57.5 -41l278 -484q25 -41 8.5 -69.5t-63.5 -28.5h-561z" />
    <glyph glyph-name="uni25B6" unicode="&#x25b6;" horiz-adv-x="1413" 
d="M303 252q-41 -25 -69.5 -8.5t-28.5 63.5v1041q0 47 28.5 63.5t69.5 -8.5l899 -518q41 -25 41 -57.5t-41 -57.5z" />
    <glyph glyph-name="uni25B8" unicode="&#x25b8;" horiz-adv-x="1413" 
d="M508 256q-41 -25 -69.5 -8.5t-28.5 63.5v561q0 47 28.5 64t69.5 -8l485 -279q41 -25 41 -57t-41 -57z" />
    <glyph glyph-name="triagdn" unicode="&#x25bc;" horiz-adv-x="1413" 
d="M764 375q-25 -41 -57.5 -41t-57.5 41l-518 897q-25 41 -9.5 69.5t64.5 28.5h1041q49 0 64.5 -28.5t-9.5 -69.5z" />
    <glyph glyph-name="uni25BE" unicode="&#x25be;" horiz-adv-x="1413" 
d="M764 348q-25 -41 -57.5 -41t-57.5 41l-278 483q-25 41 -8.5 70t63.5 29h561q47 0 63.5 -29t-8.5 -70z" />
    <glyph glyph-name="uni25C0" unicode="&#x25c0;" horiz-adv-x="1413" 
d="M1208 307q0 -47 -28.5 -63.5t-69.5 8.5l-899 518q-41 25 -41 57.5t41 57.5l899 518q41 25 69.5 8.5t28.5 -63.5v-1041z" />
    <glyph glyph-name="uni25C2" unicode="&#x25c2;" horiz-adv-x="1413" 
d="M1004 311q0 -47 -29 -63.5t-70 8.5l-485 279q-41 25 -41 57t41 57l485 279q41 25 70 8t29 -64v-561z" />
    <glyph glyph-name="lozenge" unicode="&#x25ca;" horiz-adv-x="1191" 
d="M930 1384l168 -434q24 -64 24 -125q0 -57 -24 -125l-168 -456q-89 -244 -316 -244h-36q-227 0 -316 244l-168 456q-24 68 -24 125q0 61 24 125l166 434q43 114 117 179t198 65h41q124 0 197.5 -65t116.5 -179zM596 338l174 487l-174 467l-174 -467z" />
    <glyph glyph-name="uni2605" unicode="&#x2605;" horiz-adv-x="1413" 
d="M1061 377q19 -55 -9 -75.5t-75 13.5l-270 197l-271 -197q-47 -34 -75 -13.5t-9 75.5l103 317l-269 197q-47 34 -36 67t69 33h332l102 320q12 36 32.5 49.5t41.5 0t33 -49.5l102 -320h332q58 0 69 -33t-36 -67l-269 -197z" />
    <glyph glyph-name="uni276E" unicode="&#x276e;" horiz-adv-x="1095" 
d="M872 489q121 -117 13 -225q-53 -52 -112 -49.5t-116 59.5l-555 553l555 553q57 57 116 60t112 -49q108 -108 -13 -226l-350 -338z" />
    <glyph glyph-name="uni276F" unicode="&#x276f;" horiz-adv-x="1095" 
d="M438 1380l555 -553l-555 -553q-57 -57 -115.5 -59.5t-111.5 49.5q-108 108 12 225l350 338l-350 338q-121 117 -12 226q53 52 111.5 49t115.5 -60z" />
    <glyph glyph-name="uni2913" unicode="&#x2913;" horiz-adv-x="1884" 
d="M942 309l-434 436q-51 51 -52.5 103.5t44.5 97.5q45 46 97 44t101 -54l99 -102v667q0 71 37.5 109.5t107.5 38.5t107.5 -38.5t37.5 -109.5v-667l99 102q49 52 101.5 54.5t98.5 -44.5q46 -45 44.5 -97.5t-52.5 -103.5zM1634 246q62 0 94.5 -31.5t32.5 -91.5t-32.5 -91.5
t-94.5 -31.5h-1384q-62 0 -94.5 31.5t-32.5 91.5t32.5 91.5t94.5 31.5h1384z" />
    <glyph glyph-name="uniF8FF" unicode="&#xf8ff;" horiz-adv-x="2609" 
d="M156 -20q-15 0 -25 10.5t-10 25.5q0 21 10 31l700 698h-663q-47 0 -47 39q0 16 14 33l696 701h-669q-41 0 -41 38v3q0 38 41 38h758q47 0 47 -41q0 -20 -17 -34l-698 -697h676q17 0 29 -12t12 -29v-669l694 692q13 16 35 16q37 0 37 -45v-663l696 692q13 16 33 16
q15 0 25 -12t10 -27q0 -18 -13 -28l-753 -762q-14 -14 -35 -14q-41 0 -41 47v663l-694 -696q-14 -14 -35 -14q-41 0 -41 47v663l-697 -696q-14 -14 -34 -14z" />
    <glyph glyph-name="uni00A40301" horiz-adv-x="1312" 
d="M965 1724q-139 -31 -166 56q-27 83 102 139l195 82q67 30 115 12.5t67 -80.5t-10.5 -106t-100.5 -58zM598 -20q-175 0 -315.5 71t-212.5 215q-14 28 -14 64t12.5 71.5t41.5 67t70 49.5q30 13 57.5 14.5t47.5 -5t39 -20.5t31 -27.5t24 -30.5q54 -76 106 -104t113 -28
q101 0 163 64t62 170v905q0 94 49.5 143.5t143.5 49.5t143 -49.5t49 -143.5v-926q0 -249 -167.5 -399.5t-442.5 -150.5z" />
    <glyph glyph-name="a.ss01" horiz-adv-x="1282" 
d="M1024 1188q80 0 123 -49t43 -140v-831q0 -91 -42.5 -139.5t-123.5 -48.5q-148 0 -170 151q-126 -151 -342 -151q-207 0 -333 132.5t-126 350.5v242q0 218 126 350.5t333 132.5q215 0 342 -152q22 152 170 152zM623 297q89 0 143.5 56.5t54.5 148.5v164q0 92 -54.5 148
t-143.5 56q-91 0 -146 -56t-55 -148v-164q0 -92 55 -148.5t146 -56.5z" />
    <glyph glyph-name="aacute.ss01" horiz-adv-x="1282" 
d="M532 1307q-135 -44 -170 43q-35 84 95 147l278 137q66 32 116 16.5t73 -75.5q23 -61 -2.5 -106.5t-94.5 -67.5zM1024 1188q80 0 123 -49t43 -140v-831q0 -91 -42.5 -139.5t-123.5 -48.5q-148 0 -170 151q-126 -151 -342 -151q-207 0 -333 132.5t-126 350.5v242
q0 218 126 350.5t333 132.5q215 0 342 -152q22 152 170 152zM623 297q89 0 143.5 56.5t54.5 148.5v164q0 92 -54.5 148t-143.5 56q-91 0 -146 -56t-55 -148v-164q0 -92 55 -148.5t146 -56.5z" />
    <glyph glyph-name="abreve.ss01" horiz-adv-x="1282" 
d="M633 1268q-130 0 -223 68t-121 177q-15 59 19 100.5t98 41.5q35 0 64.5 -20.5t45.5 -51.5q24 -45 51 -58.5t66 -13.5q24 0 40.5 3.5t38.5 20.5t38 48t45.5 51.5t64.5 20.5q64 0 98 -41.5t19 -100.5q-28 -109 -121 -177t-223 -68zM1024 1188q80 0 123 -49t43 -140v-831
q0 -91 -42.5 -139.5t-123.5 -48.5q-148 0 -170 151q-126 -151 -342 -151q-207 0 -333 132.5t-126 350.5v242q0 218 126 350.5t333 132.5q215 0 342 -152q22 152 170 152zM623 297q89 0 143.5 56.5t54.5 148.5v164q0 92 -54.5 148t-143.5 56q-91 0 -146 -56t-55 -148v-164
q0 -92 55 -148.5t146 -56.5z" />
    <glyph glyph-name="acircumflex.ss01" horiz-adv-x="1282" 
d="M446 1296q-80 -47 -131 25q-53 77 19 137l229 193q32 28 70 28q37 0 69 -28l230 -193q72 -60 22 -131q-54 -78 -135 -31l-186 109zM1024 1188q80 0 123 -49t43 -140v-831q0 -91 -42.5 -139.5t-123.5 -48.5q-148 0 -170 151q-126 -151 -342 -151q-207 0 -333 132.5
t-126 350.5v242q0 218 126 350.5t333 132.5q215 0 342 -152q22 152 170 152zM623 297q89 0 143.5 56.5t54.5 148.5v164q0 92 -54.5 148t-143.5 56q-91 0 -146 -56t-55 -148v-164q0 -92 55 -148.5t146 -56.5z" />
    <glyph glyph-name="adieresis.ss01" horiz-adv-x="1282" 
d="M432 1315q-83 0 -127.5 42t-44.5 118v14q0 77 44.5 118.5t127.5 41.5t127.5 -41.5t44.5 -118.5v-14q0 -76 -44 -118t-128 -42zM834 1315q-83 0 -127.5 42t-44.5 118v14q0 77 44.5 118.5t127.5 41.5t127.5 -41.5t44.5 -118.5v-14q0 -76 -44 -118t-128 -42zM1024 1188
q80 0 123 -49t43 -140v-831q0 -91 -42.5 -139.5t-123.5 -48.5q-148 0 -170 151q-126 -151 -342 -151q-207 0 -333 132.5t-126 350.5v242q0 218 126 350.5t333 132.5q215 0 342 -152q22 152 170 152zM623 297q89 0 143.5 56.5t54.5 148.5v164q0 92 -54.5 148t-143.5 56
q-91 0 -146 -56t-55 -148v-164q0 -92 55 -148.5t146 -56.5z" />
    <glyph glyph-name="agrave.ss01" horiz-adv-x="1282" 
d="M438 1401q-69 22 -93 67t-1 107q24 61 71 76.5t115 -17.5l279 -137q129 -63 94 -147q-35 -87 -170 -43zM1024 1188q80 0 123 -49t43 -140v-831q0 -91 -42.5 -139.5t-123.5 -48.5q-148 0 -170 151q-126 -151 -342 -151q-207 0 -333 132.5t-126 350.5v242q0 218 126 350.5
t333 132.5q215 0 342 -152q22 152 170 152zM623 297q89 0 143.5 56.5t54.5 148.5v164q0 92 -54.5 148t-143.5 56q-91 0 -146 -56t-55 -148v-164q0 -92 55 -148.5t146 -56.5z" />
    <glyph glyph-name="amacron.ss01" horiz-adv-x="1282" 
d="M424 1372q-63 0 -97 33.5t-34 95.5q0 61 34 94t97 33h418q63 0 97 -33t34 -94q0 -63 -34 -96t-97 -33h-418zM1024 1188q80 0 123 -49t43 -140v-831q0 -91 -42.5 -139.5t-123.5 -48.5q-148 0 -170 151q-126 -151 -342 -151q-207 0 -333 132.5t-126 350.5v242
q0 218 126 350.5t333 132.5q215 0 342 -152q22 152 170 152zM623 297q89 0 143.5 56.5t54.5 148.5v164q0 92 -54.5 148t-143.5 56q-91 0 -146 -56t-55 -148v-164q0 -92 55 -148.5t146 -56.5z" />
    <glyph glyph-name="aogonek.ss01" horiz-adv-x="1282" 
d="M1143 -164q38 -26 52.5 -48.5t14.5 -68.5q0 -77 -56 -118t-161 -41h-2q-126 0 -202 67.5t-76 179.5v7q0 133 168 235q-22 43 -27 82q-126 -151 -342 -151q-207 0 -333 132.5t-126 350.5v242q0 218 126 350.5t333 132.5q215 0 342 -152q22 152 170 152q80 0 123 -49
t43 -140v-831q0 -123 -76 -168q-43 -31 -43 -76v-4q0 -23 16 -40t56 -44zM623 297q89 0 143.5 56.5t54.5 148.5v164q0 92 -54.5 148t-143.5 56q-91 0 -146 -56t-55 -148v-164q0 -92 55 -148.5t146 -56.5z" />
    <glyph glyph-name="aring.ss01" horiz-adv-x="1282" 
d="M633 1208q-138 0 -221.5 65.5t-83.5 172.5v27q0 107 83.5 172t221.5 65t221.5 -65t83.5 -172v-27q0 -107 -83.5 -172.5t-221.5 -65.5zM541 1466v-14q0 -28 25.5 -44.5t66.5 -16.5t66.5 16.5t25.5 44.5v14q0 28 -25.5 45t-66.5 17t-66.5 -17t-25.5 -45zM1024 1188
q80 0 123 -49t43 -140v-831q0 -91 -42.5 -139.5t-123.5 -48.5q-148 0 -170 151q-126 -151 -342 -151q-207 0 -333 132.5t-126 350.5v242q0 218 126 350.5t333 132.5q215 0 342 -152q22 152 170 152zM623 297q89 0 143.5 56.5t54.5 148.5v164q0 92 -54.5 148t-143.5 56
q-91 0 -146 -56t-55 -148v-164q0 -92 55 -148.5t146 -56.5z" />
    <glyph glyph-name="atilde.ss01" horiz-adv-x="1282" 
d="M295 1360q-42 27 -52 62.5t17 76.5q112 150 252 150q52 0 136.5 -37t125.5 -37q39 0 64 14q32 18 48.5 24.5t39 6.5t43.5 -14q42 -27 52 -63t-17 -77q-112 -149 -252 -149q-53 0 -138 37t-127 37q-36 0 -71 -21q-37 -24 -60.5 -27t-60.5 17zM1024 1188q80 0 123 -49
t43 -140v-831q0 -91 -42.5 -139.5t-123.5 -48.5q-148 0 -170 151q-126 -151 -342 -151q-207 0 -333 132.5t-126 350.5v242q0 218 126 350.5t333 132.5q215 0 342 -152q22 152 170 152zM623 297q89 0 143.5 56.5t54.5 148.5v164q0 92 -54.5 148t-143.5 56q-91 0 -146 -56
t-55 -148v-164q0 -92 55 -148.5t146 -56.5z" />
    <glyph glyph-name="i.loclTRK" horiz-adv-x="552" 
d="M276 1315q-89 0 -136.5 43.5t-47.5 122.5v2q0 80 47.5 123t136.5 43t137 -43t48 -123v-2q0 -79 -47.5 -122.5t-137.5 -43.5zM276 -20q-89 0 -136.5 48.5t-47.5 139.5v831q0 91 47.5 140t136.5 49t137 -49t48 -140v-831q0 -91 -47.5 -139.5t-137.5 -48.5z" />
    <glyph glyph-name="uni006A0301" horiz-adv-x="561" 
d="M264 1331q-130 -57 -174 27q-45 82 74 160l147 98q61 41 112 32.5t79 -65.5q59 -118 -78 -180zM176 -440q-85 0 -139.5 39t-54.5 108q0 75 57 125q31 27 46 52.5t15 64.5v1050q0 91 48 140t137 49t136.5 -49t47.5 -140v-1077q0 -160 -84 -261t-209 -101z" />
    <glyph glyph-name="l.ss01" horiz-adv-x="552" 
d="M276 -20q-89 0 -136.5 48.5t-47.5 139.5v1292q0 91 47.5 140t136.5 49t137 -49t48 -140v-1292q0 -91 -47.5 -139.5t-137.5 -48.5z" />
    <glyph glyph-name="lacute.ss01" horiz-adv-x="552" 
d="M225 1724q-139 -31 -166 56q-27 83 103 139l194 82q67 30 115.5 12.5t67.5 -80.5t-10.5 -106t-100.5 -58zM276 -20q-89 0 -136.5 48.5t-47.5 139.5v1292q0 91 47.5 140t136.5 49t137 -49t48 -140v-1292q0 -91 -47.5 -139.5t-137.5 -48.5z" />
    <glyph glyph-name="lcaron.ss01" horiz-adv-x="735" 
d="M764 1206q-40 -129 -135 -110t-78 153l35 273q9 71 53.5 104.5t108.5 18.5q65 -15 91.5 -63t4.5 -116zM276 -20q-89 0 -136.5 48.5t-47.5 139.5v1292q0 91 47.5 140t136.5 49t137 -49t48 -140v-1292q0 -91 -47.5 -139.5t-137.5 -48.5z" />
    <glyph glyph-name="lcommaaccent.ss01" horiz-adv-x="552" 
d="M276 -20q-89 0 -136.5 48.5t-47.5 139.5v1292q0 91 47.5 140t136.5 49t137 -49t48 -140v-1292q0 -91 -47.5 -139.5t-137.5 -48.5zM143 -430q-129 48 -82 168l25 61q34 82 80.5 112.5t126.5 0.5q44 -16 68 -36.5t27.5 -45.5t-4 -49.5t-26.5 -56.5l-43 -70
q-39 -63 -76.5 -84.5t-95.5 0.5z" />
    <glyph glyph-name="lslash.ss01" horiz-adv-x="733" 
d="M672 936q43 -128 -92 -182l-31 -13v-573q0 -91 -47 -139.5t-137 -48.5q-89 0 -137 48.5t-48 139.5v453q-83 -9 -121 98q-44 130 91 182l30 12v547q0 91 48 140t137 49t136.5 -49t47.5 -140v-432q43 3 75.5 -21t47.5 -71z" />
    <glyph glyph-name="y.ss01" horiz-adv-x="1236" 
d="M961 1188q89 0 136.5 -49t47.5 -140v-954q0 -218 -157 -351.5t-415 -133.5q-57 0 -85.5 0.5t-82 6t-87 16.5t-72 33t-64.5 54q-27 32 -32 74t18 85t74 69q29 15 60.5 17.5t51.5 -2.5t35 -13q95 -54 184 -54q103 0 166.5 61t63.5 159v81q-121 -127 -309 -127
q-185 0 -297.5 117t-112.5 309v553q0 91 47.5 140t136.5 49t137 -49t48 -140v-491q0 -76 44.5 -123t116.5 -47t117 47t45 123v491q0 91 48 140t137 49z" />
    <glyph glyph-name="yacute.ss01" horiz-adv-x="1236" 
d="M520 1307q-135 -44 -170 43q-35 84 94 147l279 137q66 32 115.5 16.5t72.5 -75.5q23 -61 -2 -106.5t-94 -67.5zM961 1188q89 0 136.5 -49t47.5 -140v-954q0 -218 -157 -351.5t-415 -133.5q-57 0 -85.5 0.5t-82 6t-87 16.5t-72 33t-64.5 54q-27 32 -32 74t18 85t74 69
q29 15 60.5 17.5t51.5 -2.5t35 -13q95 -54 184 -54q103 0 166.5 61t63.5 159v81q-121 -127 -309 -127q-185 0 -297.5 117t-112.5 309v553q0 91 47.5 140t136.5 49t137 -49t48 -140v-491q0 -76 44.5 -123t116.5 -47t117 47t45 123v491q0 91 48 140t137 49z" />
    <glyph glyph-name="ycircumflex.ss01" horiz-adv-x="1236" 
d="M434 1296q-80 -47 -131 25q-53 77 19 137l229 193q32 28 70 28q37 0 69 -28l230 -193q72 -60 22 -131q-54 -78 -135 -31l-186 109zM961 1188q89 0 136.5 -49t47.5 -140v-954q0 -218 -157 -351.5t-415 -133.5q-57 0 -85.5 0.5t-82 6t-87 16.5t-72 33t-64.5 54
q-27 32 -32 74t18 85t74 69q29 15 60.5 17.5t51.5 -2.5t35 -13q95 -54 184 -54q103 0 166.5 61t63.5 159v81q-121 -127 -309 -127q-185 0 -297.5 117t-112.5 309v553q0 91 47.5 140t136.5 49t137 -49t48 -140v-491q0 -76 44.5 -123t116.5 -47t117 47t45 123v491q0 91 48 140
t137 49z" />
    <glyph glyph-name="ydieresis.ss01" horiz-adv-x="1236" 
d="M420 1315q-83 0 -127.5 42t-44.5 118v14q0 77 44.5 118.5t127.5 41.5t127.5 -41.5t44.5 -118.5v-14q0 -76 -44 -118t-128 -42zM821 1315q-83 0 -127.5 42t-44.5 118v14q0 77 44.5 118.5t127.5 41.5t127.5 -41.5t44.5 -118.5v-14q0 -76 -44 -118t-128 -42zM961 1188
q89 0 136.5 -49t47.5 -140v-954q0 -218 -157 -351.5t-415 -133.5q-57 0 -85.5 0.5t-82 6t-87 16.5t-72 33t-64.5 54q-27 32 -32 74t18 85t74 69q29 15 60.5 17.5t51.5 -2.5t35 -13q95 -54 184 -54q103 0 166.5 61t63.5 159v81q-121 -127 -309 -127q-185 0 -297.5 117
t-112.5 309v553q0 91 47.5 140t136.5 49t137 -49t48 -140v-491q0 -76 44.5 -123t116.5 -47t117 47t45 123v491q0 91 48 140t137 49z" />
    <glyph glyph-name="ygrave.ss01" horiz-adv-x="1236" 
d="M426 1401q-69 22 -93 67t-1 107q24 61 71 76.5t115 -17.5l279 -137q129 -63 94 -147q-35 -87 -170 -43zM961 1188q89 0 136.5 -49t47.5 -140v-954q0 -218 -157 -351.5t-415 -133.5q-57 0 -85.5 0.5t-82 6t-87 16.5t-72 33t-64.5 54q-27 32 -32 74t18 85t74 69
q29 15 60.5 17.5t51.5 -2.5t35 -13q95 -54 184 -54q103 0 166.5 61t63.5 159v81q-121 -127 -309 -127q-185 0 -297.5 117t-112.5 309v553q0 91 47.5 140t136.5 49t137 -49t48 -140v-491q0 -76 44.5 -123t116.5 -47t117 47t45 123v491q0 91 48 140t137 49z" />
    <glyph glyph-name="uni00CD00A40301" horiz-adv-x="1445" 
d="M231 1724q-138 -31 -165 56q-27 83 102 139l194 82q67 30 115.5 12.5t67.5 -80.5t-10.5 -106t-100.5 -58zM1098 1724q-139 -31 -166 56q-27 83 102 139l195 82q67 30 115 12.5t67 -80.5t-10.5 -106t-100.5 -58zM283 643q-88 0 -135.5 50t-47.5 143v620q0 93 47.5 143
t135.5 50t135 -49.5t47 -143.5v-620q0 -94 -46.5 -143.5t-135.5 -49.5zM731 -20q-175 0 -315.5 71t-212.5 215q-14 28 -14 64t12.5 71.5t41.5 67t70 49.5q30 13 57.5 14.5t47.5 -5t39 -20.5t31 -27.5t24 -30.5q54 -76 106 -104t113 -28q101 0 163 64t62 170v905
q0 94 49.5 143.5t143.5 49.5t143 -49.5t49 -143.5v-926q0 -249 -167.5 -399.5t-442.5 -150.5z" />
    <glyph glyph-name="f_f_l.ss01" horiz-adv-x="2183" 
d="M1907 1649q89 0 136.5 -49t47.5 -140v-1292q0 -91 -47 -139.5t-137 -48.5q-89 0 -137 48.5t-48 139.5v1292q0 91 48 140t137 49zM1448 1341q-44 0 -71 -28t-27 -74v-72h123q71 0 109 -37t38 -106t-38 -106t-109 -37h-123v-713q0 -91 -47.5 -139.5t-137.5 -48.5
q-89 0 -136.5 48.5t-47.5 139.5v713h-414v-713q0 -91 -47 -139.5t-137 -48.5q-89 0 -136.5 48.5t-47.5 139.5v713h-37q-71 0 -109.5 37t-38.5 106t38.5 106t109.5 37h37v93q0 166 117 267t309 101h65q71 0 109.5 -37t38.5 -106t-38.5 -106.5t-109.5 -37.5h-24
q-44 0 -71.5 -28t-27.5 -74v-72h414v93q0 166 117 267t309 101h66q71 0 109 -37t38 -106t-38.5 -106.5t-108.5 -37.5h-25z" />
    <glyph glyph-name="f_t" horiz-adv-x="1638" 
d="M1452 287q70 0 108.5 -37.5t38.5 -106.5t-38 -106t-109 -37h-66q-183 0 -294 95.5t-111 252.5v533h-414v-713q0 -91 -47 -139.5t-137 -48.5q-89 0 -136.5 48.5t-47.5 139.5v713h-37q-71 0 -109.5 37t-38.5 106t38.5 106t109.5 37h37v93q0 166 117 267t309 101h65
q71 0 109.5 -37t38.5 -106t-38.5 -106.5t-109.5 -37.5h-24q-44 0 -71.5 -28t-27.5 -74v-72h422v140q0 91 46 139.5t134 48.5t134.5 -48.5t46.5 -139.5v-140h123q71 0 109 -37t38 -106t-38 -106t-109 -37h-123v-512q0 -37 21 -59.5t56 -22.5h25z" />
    <glyph glyph-name="fl.ss01" horiz-adv-x="1400" 
d="M1124 1649q89 0 137 -49t48 -140v-1292q0 -91 -47.5 -139.5t-137.5 -48.5q-89 0 -136.5 48.5t-47.5 139.5v1292q0 91 47.5 140t136.5 49zM666 1341q-44 0 -71.5 -28t-27.5 -74v-72h123q71 0 109.5 -37t38.5 -106t-38.5 -106t-109.5 -37h-123v-713q0 -91 -47 -139.5
t-137 -48.5q-89 0 -136.5 48.5t-47.5 139.5v713h-37q-71 0 -109.5 37t-38.5 106t38.5 106t109.5 37h37v93q0 166 117 267t309 101h65q71 0 109.5 -37t38.5 -106t-38.5 -106.5t-109.5 -37.5h-24z" />
    <glyph glyph-name="t_f" horiz-adv-x="1607" 
d="M1464 1167q71 0 109.5 -37t38.5 -106t-38.5 -106t-109.5 -37h-123v-713q0 -91 -47 -139.5t-137 -48.5q-89 0 -136.5 48.5t-47.5 139.5v713h-414v-512q0 -37 21.5 -59.5t56.5 -22.5h25q70 0 108.5 -37.5t38.5 -106.5t-38 -106t-109 -37h-66q-183 0 -294.5 95.5
t-111.5 252.5v533h-36q-71 0 -109.5 37t-38.5 106t38.5 106t109.5 37h45v140q0 91 46 139.5t134 48.5t134 -48.5t46 -139.5v-140h414v93q0 166 117 267t309 101h65q71 0 109.5 -37t38.5 -106t-38.5 -106.5t-109.5 -37.5h-24q-44 0 -71.5 -28t-27.5 -74v-72h123z" />
    <glyph glyph-name="t_t" horiz-adv-x="1630" 
d="M1444 287q70 0 108.5 -37.5t38.5 -106.5t-38 -106t-109 -37h-66q-183 0 -294 95.5t-111 252.5v533h-414v-512q0 -37 21.5 -59.5t56.5 -22.5h25q70 0 108.5 -37.5t38.5 -106.5t-38 -106t-109 -37h-66q-183 0 -294.5 95.5t-111.5 252.5v533h-36q-71 0 -109.5 37t-38.5 106
t38.5 106t109.5 37h45v140q0 91 46 139.5t134 48.5t134 -48.5t46 -139.5v-140h422v140q0 91 46 139.5t134 48.5t134 -48.5t46 -139.5v-140h123q71 0 109.5 -37t38.5 -106t-38.5 -106t-109.5 -37h-123v-512q0 -37 21.5 -59.5t56.5 -22.5h25z" />
    <glyph glyph-name="zero.tf" horiz-adv-x="1413" 
d="M707 -20q-284 0 -458.5 157.5t-174.5 413.5v526q0 257 174.5 414.5t458.5 157.5q285 0 458.5 -157.5t173.5 -414.5v-526q0 -257 -173.5 -414t-458.5 -157zM707 317q112 0 179.5 70t67.5 184v486q0 114 -67.5 184t-179.5 70q-111 0 -179.5 -70t-68.5 -184v-486
q0 -114 68.5 -184t179.5 -70z" />
    <glyph glyph-name="one.tf" horiz-adv-x="1413" 
d="M862 1638q122 0 186 -64t64 -185v-1217q0 -94 -49 -143t-143 -49t-143.5 49t-49.5 143v1032l-233 -200q-63 -54 -123 -49t-111 67q-105 123 23 233l354 308q49 41 97 58t112 17h16z" />
    <glyph glyph-name="two.tf" horiz-adv-x="1413" 
d="M1147 326q82 0 125 -41.5t43 -120.5q0 -80 -43 -122t-125 -42h-848q-100 0 -154.5 49t-54.5 139v2q0 75 30.5 130.5t96.5 101.5q197 137 320 230t219 179.5t137 151.5t41 123v6q0 94 -63 151.5t-166 57.5q-61 0 -119 -21.5t-121 -89.5q-35 -38 -98.5 -49t-137.5 17
q-75 33 -95 93.5t16 119.5q74 131 225 194.5t338 63.5q270 0 434 -139t164 -367v-29q0 -84 -30.5 -164.5t-83 -153t-141.5 -153t-187 -154t-238 -167.5z" />
    <glyph glyph-name="three.tf" horiz-adv-x="1413" 
d="M1073 831q116 -50 179 -135t63 -196v-49q0 -212 -169 -341.5t-446 -129.5q-188 0 -335 61.5t-230 189.5q-18 28 -20.5 60.5t10 64t42.5 59.5t75 44q123 45 215 -43q65 -63 118.5 -86t114.5 -23q107 0 173.5 45.5t66.5 118.5v29q0 72 -51.5 113.5t-141.5 50.5
q-93 9 -139.5 48t-46.5 115t43 115.5t127 48.5q82 9 132 49t50 97v37q0 67 -60 107t-157 40q-56 0 -105.5 -18.5t-111.5 -69.5q-24 -20 -54.5 -32t-75 -15t-91.5 16q-57 21 -85.5 62t-27 84t26.5 79q79 111 220 166.5t314 55.5q266 0 429 -125t163 -330v-57
q0 -100 -56.5 -179t-158.5 -127z" />
    <glyph glyph-name="four.tf" horiz-adv-x="1413" 
d="M1169 602q82 0 125 -42t43 -122t-43 -122t-125 -42h-8v-102q0 -94 -49 -143t-141 -49q-93 0 -140.5 49.5t-46.5 144.5l2 100h-532q-97 0 -149 54t-52 155v6q0 60 14.5 106.5t49.5 100.5l520 801q41 63 111 102t143 39h20q122 0 186 -64t64 -185v-787h8zM420 602h371
l10 592z" />
    <glyph glyph-name="five.tf" horiz-adv-x="1413" 
d="M780 1024q242 0 389.5 -138.5t147.5 -363.5v-51q0 -221 -169 -356t-446 -135q-188 0 -335 61.5t-230 189.5q-18 28 -20.5 60.5t10 64t42.5 59.5t75 44q54 22 99.5 15t71.5 -21.5t44 -36.5q55 -66 110 -87.5t123 -21.5q107 0 173.5 51t66.5 134v20q0 83 -64 133.5
t-170 50.5h-376q-85 0 -126.5 46t-31.5 132l78 599q21 155 178 155h659q82 0 125 -42t43 -122t-43 -122t-125 -42h-481l-35 -276h217z" />
    <glyph glyph-name="six.tf" horiz-adv-x="1413" 
d="M791 1014q253 0 407 -134t154 -354v-49q0 -224 -176.5 -360.5t-466.5 -136.5t-466.5 136.5t-176.5 360.5v49q0 79 34.5 170t102.5 222l315 616q43 84 111 107t151 -19q83 -41 102.5 -108.5t-26.5 -153.5l-197 -363q77 17 132 17zM956 492v20q0 82 -67.5 131t-179.5 49
q-113 0 -180.5 -49t-67.5 -131v-20q0 -82 68 -131.5t180 -49.5t179.5 49.5t67.5 131.5z" />
    <glyph glyph-name="seven.tf" horiz-adv-x="1413" 
d="M1067 1628q107 0 165 -58t58 -165v-8q0 -109 -45 -207l-497 -1090q-40 -86 -106.5 -111t-154.5 15q-86 38 -111 105t15 155l483 1043l-595 -4q-82 0 -125 41t-43 120q0 80 43 122t125 42h788z" />
    <glyph glyph-name="eight.tf" horiz-adv-x="1413" 
d="M1108 834q117 -56 179.5 -143.5t62.5 -198.5v-23q0 -221 -176.5 -355t-466.5 -134q-291 0 -467.5 134t-176.5 355v23q0 111 62.5 198.5t179.5 143.5q-201 114 -201 315v27q0 212 166 342.5t437 130.5t436.5 -130t165.5 -343v-27q0 -201 -201 -315zM500 1165v-26
q0 -69 56.5 -111.5t150.5 -42.5q93 0 149.5 42.5t56.5 111.5v26q0 68 -56.5 110t-149.5 42t-150 -42t-57 -110zM954 479v23q0 75 -67.5 121.5t-179.5 46.5t-180 -46.5t-68 -121.5v-23q0 -75 68 -121.5t180 -46.5t179.5 46.5t67.5 121.5z" />
    <glyph glyph-name="nine.tf" horiz-adv-x="1413" 
d="M707 1649q290 0 466.5 -137t176.5 -361v-49q0 -78 -34.5 -167.5t-103.5 -223.5l-315 -617q-43 -84 -111 -107t-151 19q-83 41 -102.5 108.5t26.5 153.5l197 363q-76 -17 -131 -17q-253 0 -407.5 134t-154.5 354v49q0 224 177 361t467 137zM954 1116v21q0 82 -67.5 131
t-179.5 49q-113 0 -180.5 -49t-67.5 -131v-21q0 -82 67.5 -131t180.5 -49q112 0 179.5 49t67.5 131z" />
    <glyph glyph-name="zero.zero" horiz-adv-x="1454" 
d="M727 1649q291 0 468 -159t177 -419v-514q0 -260 -177 -418.5t-468 -158.5q-290 0 -467.5 158.5t-177.5 418.5v514q0 260 177.5 419t467.5 159zM1008 1051q0 126 -77.5 202t-203.5 76q-39 0 -84 -10l365 -688v420zM449 578q0 -126 76 -202.5t202 -76.5q40 0 82 10
l-360 684v-415z" />
    <glyph glyph-name="zero.zero.tf" horiz-adv-x="1413" 
d="M707 1649q285 0 458.5 -160.5t173.5 -423.5v-502q0 -263 -173.5 -423t-458.5 -160q-284 0 -458.5 160.5t-174.5 422.5v502q0 262 174.5 423t458.5 161zM975 1044q0 129 -74 207t-194 78q-40 0 -82 -10l350 -666v391zM440 584q0 -129 73.5 -207t193.5 -78q39 0 81 10
l-348 662v-387z" />
    <glyph glyph-name="zero.dnom" horiz-adv-x="800" 
d="M399 -10q-155 0 -250.5 82t-95.5 217v237q0 134 95.5 216.5t250.5 82.5q158 0 253.5 -82.5t95.5 -216.5v-237q0 -135 -95.5 -217t-253.5 -82zM399 221q38 0 60 22t22 58v211q0 37 -22 59.5t-60 22.5q-37 0 -59.5 -22.5t-22.5 -59.5v-211q0 -35 22.5 -57.5t59.5 -22.5z
" />
    <glyph glyph-name="one.dnom" horiz-adv-x="589" 
d="M350 813q78 0 121 -39t43 -112v-537q0 -65 -33.5 -100t-97.5 -35q-65 0 -99 34.5t-34 100.5v397l-25 -20q-88 -75 -159 12q-70 86 16 160l106 88q62 51 154 51h8z" />
    <glyph glyph-name="two.dnom" horiz-adv-x="763" 
d="M594 221q115 0 115 -108q0 -54 -30 -83.5t-85 -29.5h-406q-64 0 -99.5 33.5t-35.5 95.5v8q0 89 82 142q179 115 246.5 171.5t67.5 90.5v2q0 26 -20 41.5t-52 15.5q-39 0 -84 -27q-26 -15 -63 -14t-72 19q-57 30 -73 68t15 75q91 104 283 104q147 0 235.5 -74.5
t88.5 -197.5v-14q0 -89 -61.5 -158.5t-207.5 -161.5z" />
    <glyph glyph-name="three.dnom" horiz-adv-x="751" 
d="M594 414q111 -52 111 -156v-14q0 -115 -90.5 -184.5t-239.5 -69.5q-213 0 -299 123q-12 22 -10 46.5t26.5 50.5t65.5 40q82 26 125 -4q45 -33 84 -33q32 0 52.5 12t20.5 31v2q0 19 -14.5 31t-38.5 12h-2q-47 0 -72.5 30t-25.5 85q0 52 24 80t68 28h2q20 0 32.5 10
t12.5 25v4q0 37 -59 37q-35 0 -70 -14q-67 -26 -135 2q-54 23 -71 65t11 74q79 98 273 98q142 0 229.5 -67.5t87.5 -179.5v-19q0 -92 -98 -145z" />
    <glyph glyph-name="four.dnom" horiz-adv-x="755" 
d="M711 201q0 -44 -21 -73t-59 -36q-19 -102 -131 -102t-127 98h-217q-57 0 -88 37t-31 106v7q0 73 39 141l209 356q46 78 155 78h11q88 0 135 -45.5t47 -130.5v-328q78 -18 78 -108zM379 496l-105 -183h101z" />
    <glyph glyph-name="five.dnom" horiz-adv-x="751" 
d="M430 545q124 0 200.5 -74.5t76.5 -196.5v-22q0 -118 -91.5 -190t-240.5 -72q-214 0 -293 110q-26 31 -4.5 75.5t84.5 72.5q48 17 78 14t47 -16q39 -29 80 -29q31 0 50 13.5t19 35.5v2q0 22 -18 35.5t-49 13.5h-191q-58 0 -86 32t-20 89l32 269q6 52 38 79t85 27h332
q55 0 85 -29.5t30 -83.5t-30 -83t-85 -29h-205l-6 -43h82z" />
    <glyph glyph-name="six.dnom" horiz-adv-x="747" 
d="M440 512q129 0 208 -66.5t79 -175.5v-10q0 -123 -95 -196.5t-253 -73.5q-157 0 -251.5 73.5t-94.5 196.5v10q0 43 18 92t58 132l116 243q29 60 76.5 78.5t106.5 -8.5q120 -57 57 -182l-59 -115q12 2 34 2zM451 260v2q0 18 -19.5 28.5t-52.5 10.5q-31 0 -50.5 -10.5
t-19.5 -28.5v-2q0 -19 19.5 -30t50.5 -11q32 0 52 11t20 30z" />
    <glyph glyph-name="seven.dnom" horiz-adv-x="694" 
d="M508 813q75 0 115.5 -38.5t40.5 -110.5v-11q0 -75 -31 -141l-201 -436q-60 -126 -180 -70q-124 57 -66 182l187 404l-228 -2q-114 0 -114 110q0 54 29.5 83.5t84.5 29.5h363z" />
    <glyph glyph-name="eight.dnom" horiz-adv-x="780" 
d="M633 418q104 -60 104 -164v-4q0 -118 -95 -189t-253 -71q-157 0 -251.5 71t-94.5 189v4q0 104 104 164q-84 55 -84 149v2q0 114 89.5 185t236.5 71q148 0 238 -70.5t90 -185.5v-2q0 -94 -84 -149zM340 559v-2q0 -15 13.5 -25t35.5 -10q23 0 37 10t14 25v2q0 15 -14 25
t-37 10q-22 0 -35.5 -10t-13.5 -25zM461 260v2q0 19 -20 30t-52 11q-31 0 -50.5 -11t-19.5 -30v-2q0 -19 19.5 -30t50.5 -11q32 0 52 11t20 30z" />
    <glyph glyph-name="nine.dnom" horiz-adv-x="747" 
d="M369 823q157 0 251.5 -73.5t94.5 -196.5v-10q0 -43 -18 -92t-58 -132l-117 -243q-29 -60 -76 -78.5t-106 8.5q-120 57 -57 182l59 115q-12 -2 -35 -2q-129 0 -208 66.5t-79 175.5v10q0 123 95.5 196.5t253.5 73.5zM297 551q0 -18 19.5 -28.5t52.5 -10.5q31 0 50 10.5
t19 28.5v2q0 19 -19 30t-50 11q-32 0 -52 -11t-20 -30v-2z" />
    <glyph glyph-name="zero.numr" horiz-adv-x="800" 
d="M399 805q-155 0 -250.5 82t-95.5 217v237q0 134 95.5 216.5t250.5 82.5q158 0 253.5 -82.5t95.5 -216.5v-237q0 -135 -95.5 -217t-253.5 -82zM399 1036q38 0 60 22t22 58v211q0 37 -22 59.5t-60 22.5q-37 0 -59.5 -22.5t-22.5 -59.5v-211q0 -35 22.5 -57.5t59.5 -22.5z
" />
    <glyph glyph-name="one.numr" horiz-adv-x="587" 
d="M350 1628q78 0 121 -39t43 -112v-537q0 -65 -33.5 -100t-97.5 -35q-65 0 -99 34.5t-34 100.5v397l-25 -20q-88 -75 -159 12q-70 86 16 160l106 88q62 51 154 51h8z" />
    <glyph glyph-name="two.numr" horiz-adv-x="759" 
d="M592 1036q115 0 115 -108q0 -54 -30 -83.5t-85 -29.5h-406q-64 0 -99.5 33.5t-35.5 95.5v8q0 89 82 142q178 114 245.5 171t67.5 91v2q0 26 -19.5 41.5t-51.5 15.5q-41 0 -84 -26q-25 -15 -63 -14.5t-72 18.5q-57 30 -73 68t15 75q91 104 283 104q147 0 235.5 -74.5
t88.5 -197.5v-14q0 -89 -61.5 -158.5t-207.5 -161.5z" />
    <glyph glyph-name="three.numr" horiz-adv-x="749" 
d="M594 1229q111 -52 111 -156v-14q0 -115 -90.5 -184.5t-239.5 -69.5q-213 0 -299 123q-12 22 -10 46.5t26.5 50.5t65.5 40q82 26 125 -4q45 -33 84 -33q32 0 52.5 12t20.5 31v2q0 19 -14.5 31t-38.5 12h-2q-47 0 -72.5 30t-25.5 85q0 52 24 80t68 28h2q20 0 32.5 10
t12.5 25v4q0 37 -59 37q-35 0 -70 -14q-67 -26 -135 2q-54 23 -71 65t11 74q79 98 273 98q142 0 229.5 -67.5t87.5 -179.5v-19q0 -92 -98 -145z" />
    <glyph glyph-name="four.numr" horiz-adv-x="753" 
d="M709 1016q0 -44 -21 -73t-59 -36q-19 -102 -131 -102t-127 98h-217q-57 0 -88 37.5t-31 106.5v6q0 73 39 141l209 356q46 78 155 78h11q88 0 135 -45.5t47 -130.5v-328q78 -18 78 -108zM377 1311l-105 -183h101z" />
    <glyph glyph-name="five.numr" horiz-adv-x="749" 
d="M430 1358q124 0 200.5 -74.5t76.5 -196.5v-22q0 -118 -91.5 -190t-240.5 -72q-214 0 -293 110q-26 31 -4.5 75.5t84.5 72.5q48 17 78 14t47 -16q39 -29 80 -29q31 0 50 13.5t19 35.5v2q0 22 -18 35.5t-49 13.5h-191q-58 0 -86 32t-20 89l32 269q6 52 38 79t85 27h332
q55 0 85 -29.5t30 -83.5t-30 -83t-85 -29h-205l-6 -43h82z" />
    <glyph glyph-name="six.numr" horiz-adv-x="747" 
d="M440 1327q129 0 208 -66.5t79 -175.5v-10q0 -123 -95 -196.5t-253 -73.5q-157 0 -251.5 73.5t-94.5 196.5v10q0 43 18 92t58 132l116 243q29 60 76.5 78.5t106.5 -8.5q120 -57 57 -182l-59 -115q12 2 34 2zM451 1075v2q0 18 -19.5 28.5t-52.5 10.5q-31 0 -50.5 -10.5
t-19.5 -28.5v-2q0 -19 19.5 -30t50.5 -11q32 0 52 11t20 30z" />
    <glyph glyph-name="seven.numr" horiz-adv-x="692" 
d="M506 1628q75 0 115.5 -38.5t40.5 -110.5v-11q0 -75 -31 -141l-201 -436q-60 -126 -180 -70q-124 57 -66 183l187 403l-228 -2q-55 0 -84.5 28.5t-29.5 82.5t29.5 83t84.5 29h363z" />
    <glyph glyph-name="eight.numr" horiz-adv-x="780" 
d="M633 1233q104 -60 104 -164v-4q0 -118 -95 -189t-253 -71q-157 0 -251.5 71t-94.5 189v4q0 104 104 164q-84 55 -84 149v2q0 114 89.5 185t236.5 71q148 0 238 -70.5t90 -185.5v-2q0 -94 -84 -149zM340 1374v-2q0 -15 13.5 -25t35.5 -10q23 0 37 10t14 25v2q0 15 -14 25
t-37 10q-22 0 -35.5 -10t-13.5 -25zM461 1075v2q0 19 -20 30t-52 11q-31 0 -50.5 -11t-19.5 -30v-2q0 -19 19.5 -30t50.5 -11q32 0 52 11t20 30z" />
    <glyph glyph-name="nine.numr" horiz-adv-x="745" 
d="M369 1638q157 0 251.5 -73.5t94.5 -196.5v-10q0 -30 -11.5 -68.5t-24.5 -68t-40 -86.5l-117 -244q-29 -60 -76 -78.5t-106 8.5q-120 57 -57 183l59 114q-12 -2 -35 -2q-129 0 -208 66.5t-79 175.5v10q0 123 95.5 196.5t253.5 73.5zM297 1366q0 -18 19.5 -28.5t52.5 -10.5
q31 0 50 10.5t19 28.5v2q0 19 -19 30t-50 11q-32 0 -52 -11t-20 -30v-2z" />
    <glyph glyph-name="backslash.case" horiz-adv-x="946" 
d="M729 -197q-172 -44 -219 140l-422 1654q-23 88 9.5 147t115.5 81q84 22 141 -13t80 -124l422 -1657q22 -88 -10.5 -147t-116.5 -81z" />
    <glyph glyph-name="exclamdown.case" horiz-adv-x="610" 
d="M305 1649q95 0 145 -47.5t50 -137.5v-2q0 -90 -50.5 -137t-144.5 -47t-144 47t-50 137v2q0 89 50 137t144 48zM305 1153q91 0 137.5 -49t46.5 -143v-789q0 -94 -47.5 -143t-136.5 -49t-136.5 49t-47.5 143v789q0 94 47.5 143t136.5 49z" />
    <glyph glyph-name="questiondown.case" horiz-adv-x="1126" 
d="M762 1278q-94 0 -144.5 47t-50.5 137v2q0 90 50 137.5t145 47.5q94 0 144 -48t50 -137v-2q0 -90 -50 -137t-144 -47zM901 328q82 0 125 -42t43 -122t-43 -122t-125 -42h-346q-229 0 -369.5 124.5t-140.5 328.5v39q0 195 140.5 313.5t369.5 118.5h23v37q0 94 46.5 143
t137.5 49q89 0 136.5 -49t47.5 -143v-156q0 -82 -43 -125t-125 -43h-203q-65 0 -105 -39.5t-40 -105.5v-19q0 -66 40 -105.5t105 -39.5h326z" />
    <glyph glyph-name="slash.case" horiz-adv-x="946" 
d="M217 -197q-84 22 -116.5 81t-10.5 147l422 1657q23 89 80 124t141 13q83 -22 115.5 -81t9.5 -147l-422 -1654q-47 -184 -219 -140z" />
    <glyph glyph-name="comma.tf" horiz-adv-x="706" 
d="M221 -332q-126 26 -108 162l49 344q12 92 65.5 132.5t141.5 21.5q91 -19 123.5 -78t3.5 -148l-111 -333q-22 -64 -61.5 -89t-102.5 -12z" />
    <glyph glyph-name="period.tf" horiz-adv-x="706" 
d="M354 -20q-94 0 -144 47.5t-50 136.5v2q0 90 50 137t144 47t144.5 -47t50.5 -137v-2q0 -89 -50 -136.5t-145 -47.5z" />
    <glyph glyph-name="braceleft.case" horiz-adv-x="905" 
d="M702 123q78 0 120 -41t42 -119q0 -82 -41.5 -125t-120.5 -43q-227 0 -366 115t-139 303v301q0 76 -80 145q-84 72 -84 168t84 168q80 69 80 146v274q0 188 139 303t366 115q77 0 119.5 -43.5t42.5 -124.5q0 -77 -42 -118.5t-120 -41.5q-54 0 -87 -33.5t-33 -87.5v-233
q0 -106 -56.5 -190t-158.5 -134q102 -50 158.5 -133.5t56.5 -189.5v-260q0 -54 33 -87.5t87 -33.5z" />
    <glyph glyph-name="braceright.case" horiz-adv-x="905" 
d="M788 995q84 -72 84 -168t-84 -168q-79 -68 -79 -145v-301q0 -188 -139.5 -303t-366.5 -115q-79 0 -120.5 43t-41.5 125q0 78 42 119t120 41q54 0 87.5 33.5t33.5 87.5v260q0 106 56.5 189.5t158.5 133.5q-102 50 -158.5 134t-56.5 190v233q0 54 -33.5 87.5t-87.5 33.5
q-78 0 -120 41.5t-42 118.5q0 81 42.5 124.5t119.5 43.5q227 0 366.5 -115t139.5 -303v-274q0 -78 79 -146z" />
    <glyph glyph-name="bracketleft.case" horiz-adv-x="831" 
d="M623 123q82 0 125 -42t43 -122t-43 -122t-125 -42h-334q-82 0 -125 43t-43 125v1702q0 82 43 125t125 43h334q82 0 125 -42t43 -122t-43 -122t-125 -42h-117v-1382h117z" />
    <glyph glyph-name="bracketright.case" horiz-adv-x="831" 
d="M543 1833q82 0 125 -43t43 -125v-1702q0 -82 -43 -125t-125 -43h-334q-82 0 -125 42t-43 122t43 122t125 42h117v1382h-117q-82 0 -125 42t-43 122t43 122t125 42h334z" />
    <glyph glyph-name="parenleft.case" horiz-adv-x="794" 
d="M592 -205q-227 0 -366.5 115t-139.5 303v1202q0 188 139.5 303t366.5 115q77 0 119.5 -43.5t42.5 -124.5q0 -77 -42 -118.5t-120 -41.5q-54 0 -87.5 -33.5t-33.5 -87.5v-1140q0 -54 33.5 -87.5t87.5 -33.5q78 0 120 -41t42 -119q0 -82 -41.5 -125t-120.5 -43z" />
    <glyph glyph-name="parenright.case" horiz-adv-x="794" 
d="M203 -205q-79 0 -120.5 43t-41.5 125q0 78 42 119t120 41q54 0 87.5 33.5t33.5 87.5v1140q0 54 -33.5 87.5t-87.5 33.5q-78 0 -120 41.5t-42 118.5q0 81 42.5 124.5t119.5 43.5q227 0 366.5 -115t139.5 -303v-1202q0 -188 -139.5 -303t-366.5 -115z" />
    <glyph glyph-name="emdash.case" horiz-adv-x="1808" 
d="M260 664q-82 0 -125 42t-43 121q0 80 43 122t125 42h1288q82 0 125 -42t43 -122q0 -79 -43 -121t-125 -42h-1288z" />
    <glyph glyph-name="endash.case" horiz-adv-x="1052" 
d="M260 664q-82 0 -125 42t-43 121q0 80 43 122t125 42h533q82 0 125 -42t43 -122q0 -79 -43 -121t-125 -42h-533z" />
    <glyph glyph-name="hyphen.case" horiz-adv-x="794" 
d="M260 664q-82 0 -125 42t-43 121q0 80 43 122t125 42h275q82 0 124.5 -42t42.5 -122t-42.5 -121.5t-124.5 -41.5h-275z" />
    <glyph glyph-name="uni00AD.case" horiz-adv-x="794" 
d="M260 664q-82 0 -125 42t-43 121q0 80 43 122t125 42h275q82 0 124.5 -42t42.5 -122t-42.5 -121.5t-124.5 -41.5h-275z" />
    <glyph glyph-name="guillemotleft.case" horiz-adv-x="1595" 
d="M670 657q148 -79 82 -204q-32 -62 -88 -73t-127 30l-353 202q-131 74 -131 215t131 215l353 203q70 41 126.5 30.5t88.5 -71.5q66 -126 -82 -205l-324 -172zM1386 657q148 -79 82 -204q-32 -62 -88 -73t-127 30l-352 202q-131 74 -131 215t131 215l352 203
q70 41 126.5 30.5t88.5 -71.5q66 -126 -82 -205l-323 -172z" />
    <glyph glyph-name="guillemotright.case" horiz-adv-x="1595" 
d="M694 1042q131 -74 131 -215t-131 -215l-352 -202q-71 -41 -127 -30t-88 73q-66 125 82 204l323 170l-323 172q-148 79 -82 205q32 61 88.5 71.5t126.5 -30.5zM1411 1042q131 -74 131 -215t-131 -215l-352 -202q-71 -41 -127 -30t-88 73q-66 125 82 204l323 170l-323 172
q-148 79 -82 205q32 61 88.5 71.5t126.5 -30.5z" />
    <glyph glyph-name="guilsinglleft.case" horiz-adv-x="1177" 
d="M950 647q75 -26 103.5 -78.5t5.5 -122.5q-23 -69 -79 -89.5t-132 10.5l-662 264q-141 57 -141 196q0 140 141 197l662 264q76 31 132.5 10t78.5 -90q47 -145 -109 -200l-510 -181z" />
    <glyph glyph-name="guilsinglright.case" horiz-adv-x="1177" 
d="M991 1024q142 -58 142 -197q0 -72 -35 -119.5t-107 -76.5l-661 -264q-76 -31 -132 -10.5t-79 89.5q-23 70 5 122.5t103 78.5l510 180l-510 181q-75 26 -103 77t-5 123q22 69 78.5 90t132.5 -10z" />
    <glyph glyph-name="space.tf" horiz-adv-x="706" 
 />
    <glyph glyph-name="cent.tf" horiz-adv-x="1413" 
d="M1079 618q50 -16 78.5 -51t31.5 -71t-3 -70q-39 -149 -271 -201v-18q0 -94 -47 -143.5t-137 -49.5q-89 0 -136.5 49.5t-47.5 143.5v29q-175 48 -275 176t-100 311v180q0 183 100 311.5t275 178.5v26q0 94 47.5 143.5t136.5 49.5t136.5 -49.5t47.5 -143.5v-18
q185 -44 250 -176q10 -20 11.5 -48t-6 -58t-32 -56.5t-63.5 -38.5q-121 -39 -192 23q-59 53 -140 53q-91 0 -146.5 -56.5t-55.5 -148.5v-164q0 -92 56 -148.5t148 -56.5q86 0 152 64q70 65 182 28z" />
    <glyph glyph-name="dollar.tf" horiz-adv-x="1413" 
d="M469 1178q0 -51 30 -86t81 -54.5t116.5 -33.5t138.5 -28t145.5 -32t138 -51t116.5 -79.5t81 -123.5t30 -178v-27q0 -184 -123.5 -315t-335.5 -174v-19q0 -94 -47 -143t-138 -49q-89 0 -136.5 49t-47.5 143v17q-269 44 -373 219q-22 43 -24 87t27.5 87.5t84.5 69.5
q109 52 213 -39q137 -121 269 -121q114 0 183 48t69 126v6q0 49 -29.5 82.5t-80 52.5t-115.5 32.5t-136.5 28t-143.5 32.5t-137 52t-115.5 82t-80 126t-29.5 180v26q0 168 113 291t305 166v23q0 94 47.5 143t136.5 49q90 0 137.5 -49.5t47.5 -142.5v-21q231 -48 356 -196
q50 -58 24.5 -134.5t-108.5 -111.5q-120 -51 -211 35q-113 108 -248 108q-104 0 -167.5 -40.5t-63.5 -106.5v-6z" />
    <glyph glyph-name="Euro.tf" horiz-adv-x="1413" 
d="M158 868q-62 0 -94.5 31.5t-32.5 91.5t32.5 91.5t94.5 31.5h53q9 242 179.5 388.5t443.5 146.5q141 0 268.5 -45.5t189.5 -141.5q16 -24 17 -55.5t-11.5 -63.5t-43.5 -61t-76 -45q-103 -38 -183 12q-61 37 -94 49.5t-67 12.5q-95 0 -158.5 -53t-75.5 -144h293
q62 0 94.5 -31.5t32.5 -91.5t-32.5 -91.5t-94.5 -31.5h-735zM1186 412q89 -23 120.5 -90t2.5 -125q-109 -217 -473 -217q-281 0 -453 153.5t-172 405.5v2h-53q-62 0 -94.5 31.5t-32.5 91.5t32.5 91t94.5 31h735q62 0 94.5 -31t32.5 -91t-32.5 -91.5t-94.5 -31.5h-297
q6 -101 71.5 -162.5t168.5 -61.5q89 0 163 64q70 62 187 31z" />
    <glyph glyph-name="florin.tf" horiz-adv-x="1413" 
d="M1128 991q82 0 125 -42t43 -122q0 -79 -43 -121t-125 -42h-229v-134q0 -239 -162.5 -384.5t-429.5 -145.5h-94q-46 0 -71 42.5t-25 121.5q0 80 43 122t125 42h2q103 0 165 62t62 165v109h-229q-82 0 -125 42t-43 121q0 80 43 122t125 42h229v107q0 239 162.5 384.5
t429.5 145.5h22q82 0 125 -42t43 -122t-43 -122t-125 -42h-2q-103 0 -165 -62t-62 -165v-82h229z" />
    <glyph glyph-name="lira.tf" horiz-adv-x="1413" 
d="M164 868q-62 0 -94.5 31.5t-32.5 91.5t32.5 91.5t94.5 31.5h53v342q0 94 49.5 143.5t143.5 49.5t143 -49.5t49 -143.5v-342h307q62 0 94.5 -31.5t32.5 -91.5t-32.5 -91.5t-94.5 -31.5h-745zM1206 438q47 -15 78 -43t42 -60.5t6.5 -67.5t-25.5 -64q-143 -203 -496 -203
h-426q-82 0 -125 43t-43 125v373h-53q-62 0 -94.5 31.5t-32.5 91.5t32.5 91t94.5 31h745q62 0 94.5 -31t32.5 -91t-32.5 -91.5t-94.5 -31.5h-307v-213h209q91 0 201 73q16 11 23.5 15.5t30.5 14.5t41 13.5t45 3t54 -9.5z" />
    <glyph glyph-name="uni20B1.tf" horiz-adv-x="1413" 
d="M1225 1298q75 0 115 -39.5t40 -113.5t-40 -114t-115 -40h-8q-40 -152 -171.5 -239.5t-322.5 -87.5h-129v-492q0 -94 -49.5 -143t-143.5 -49t-143 49t-49 143v819h-12q-75 0 -115.5 40t-40.5 114t40.5 113.5t115.5 39.5h12v162q0 82 43 125t125 43h346q191 0 323.5 -88.5
t172.5 -241.5h6zM848 1137v18q0 66 -40.5 105.5t-105.5 39.5h-108v-309h108q65 0 105.5 40t40.5 106z" />
    <glyph glyph-name="uni20BD.tf" horiz-adv-x="1413" 
d="M862 1628q229 0 369.5 -124t140.5 -328v-60q0 -204 -140.5 -328t-369.5 -124h-657q-75 0 -115.5 39.5t-40.5 113.5t40.5 114t115.5 40h22v489q0 82 43 125t125 43h467zM987 1137v18q0 66 -40 105.5t-105 39.5h-230v-309h230q65 0 105 40t40 106zM903 582q75 0 115.5 -40
t40.5 -114t-40.5 -114t-115.5 -40h-291v-102q0 -94 -49 -143t-143 -49t-143.5 49t-49.5 143v102h-22q-75 0 -115.5 40t-40.5 114t40.5 114t115.5 40h698z" />
    <glyph glyph-name="uni20B9.tf" horiz-adv-x="1413" 
d="M209 1382q-62 0 -94.5 31.5t-32.5 91.5t32.5 91.5t94.5 31.5h1001q62 0 94.5 -31.5t32.5 -91.5t-32.5 -91.5t-94.5 -31.5h-1001zM1210 1300q62 0 94.5 -31t32.5 -91t-32.5 -91.5t-94.5 -31.5h-34q-13 -124 -85 -214.5t-190 -135.5l197 -461q36 -83 9.5 -147.5
t-110.5 -98.5q-173 -69 -245 104l-232 562h-291q-71 0 -109 37t-38 106t38 106t109 37h441q53 0 91 28.5t50 76.5h-602q-62 0 -94.5 31.5t-32.5 91.5t32.5 91t94.5 31h1001z" />
    </font>
</defs>
</svg>
