<?xml version="1.0" standalone="no"?>
<!DOCTYPE svg PUBLIC "-//W3C//DTD SVG 1.1//EN" "http://www.w3.org/Graphics/SVG/1.1/DTD/svg11.dtd" >
<svg xmlns="http://www.w3.org/2000/svg" xmlns:xlink="http://www.w3.org/1999/xlink" version="1.1">
<metadata>
Created by FontForge 20170731 at Thu Dec  1 14:24:25 2022
 By Aleksey,,,
Copyright (c) 2018 by Alberto Romanos. All rights reserved.
</metadata>
<defs>
<font id="BwSeidoRoundDEMO-Bold" horiz-adv-x="0" >
  <font-face 
    font-family="Bw Seido Round DEMO Bold"
    font-weight="700"
    font-stretch="normal"
    units-per-em="2048"
    panose-1="0 0 8 0 0 0 0 0 0 0"
    ascent="1657"
    descent="-391"
    x-height="1161"
    cap-height="1647"
    bbox="-1647 -516 2499 2179"
    underline-thickness="102"
    underline-position="-307"
    unicode-range="U+000D-FB02"
  />
<missing-glyph horiz-adv-x="2609" 
d="M156 -20q-15 0 -25 10.5t-10 25.5q0 21 10 31l700 698h-663q-47 0 -47 39q0 16 14 33l696 701h-669q-41 0 -41 38v3q0 38 41 38h758q47 0 47 -41q0 -20 -17 -34l-698 -697h676q17 0 29 -12t12 -29v-669l694 692q13 16 35 16q37 0 37 -45v-663l696 692q13 16 33 16
q15 0 25 -12t10 -27q0 -18 -13 -28l-753 -762q-14 -14 -35 -14q-41 0 -41 47v663l-694 -696q-14 -14 -35 -14q-41 0 -41 47v663l-697 -696q-14 -14 -34 -14z" />
    <glyph glyph-name="fi" unicode="fi" horiz-adv-x="1318" 
d="M1059 1647q70 0 106.5 -34t36.5 -97v-33q0 -63 -36.5 -97t-106.5 -34q-69 0 -106.5 34t-37.5 97v33q0 63 37.5 97t106.5 34zM614 1403q-54 0 -86 -33.5t-32 -89.5v-119h168q57 0 87.5 -29t30.5 -83t-30.5 -83.5t-87.5 -29.5h-168v-807q0 -71 -37 -109t-107 -38
q-69 0 -106 38t-37 109v807h-72q-57 0 -88 29.5t-31 83.5t31 83t88 29h72v135q0 149 103 240.5t272 91.5h80q57 0 87.5 -29t30.5 -83t-30.5 -83.5t-87.5 -29.5h-50zM1059 1180q70 0 106.5 -38.5t36.5 -109.5v-903q0 -71 -36.5 -109t-106.5 -38q-69 0 -106.5 38.5
t-37.5 108.5v903q0 71 37.5 109.5t106.5 38.5z" />
    <glyph glyph-name="fl" unicode="fl" horiz-adv-x="1337" 
d="M1245 195q55 -35 55 -97q0 -54 -43 -85t-110 -31q-109 0 -176.5 73t-67.5 193v1251q0 71 37.5 109.5t106.5 38.5t106 -38.5t37 -109.5v-1208q0 -68 55 -96zM614 1403q-54 0 -86 -33.5t-32 -89.5v-119h168q57 0 87.5 -29t30.5 -83t-30.5 -83.5t-87.5 -29.5h-168v-807
q0 -71 -37 -109t-107 -38q-69 0 -106 38t-37 109v807h-72q-57 0 -88 29.5t-31 83.5t31 83t88 29h72v135q0 149 103 240.5t272 91.5h80q57 0 87.5 -29t30.5 -83t-30.5 -83.5t-87.5 -29.5h-50z" />
    <glyph glyph-name="f_f" unicode="ff" horiz-adv-x="1511" 
d="M1393 1161q57 0 87.5 -29t30.5 -83t-30.5 -83.5t-87.5 -29.5h-168v-807q0 -71 -37 -109t-107 -38q-69 0 -106 38t-37 109v807h-442v-807q0 -71 -37 -109t-107 -38q-69 0 -106 38t-37 109v807h-72q-57 0 -88 29.5t-31 83.5t31 83t88 29h72v135q0 149 103 240.5t272 91.5
h80q57 0 87.5 -29t30.5 -83t-30.5 -83.5t-87.5 -29.5h-50q-54 0 -86 -33.5t-32 -89.5v-119h442v135q0 149 103 240.5t272 91.5h80q57 0 87.5 -29t30.5 -83t-30.5 -83.5t-87.5 -29.5h-50q-54 0 -86 -33.5t-32 -89.5v-119h168z" />
    <glyph glyph-name="f_f_i" unicode="ffi" horiz-adv-x="2048" 
d="M1790 1647q70 0 106.5 -34t36.5 -97v-33q0 -63 -36.5 -97t-106.5 -34q-69 0 -106 34t-37 97v33q0 63 37 97t106 34zM1346 1403q-54 0 -86.5 -33.5t-32.5 -89.5v-119h168q57 0 87.5 -29t30.5 -83t-30.5 -83.5t-87.5 -29.5h-168v-807q0 -71 -37 -109t-107 -38
q-69 0 -106 38t-37 109v807h-444v-807q0 -71 -37 -109t-107 -38q-69 0 -106 38t-37 109v807h-72q-57 0 -88 29.5t-31 83.5t31 83t88 29h72v135q0 149 103 240.5t272 91.5h80q57 0 87.5 -29t30.5 -83t-30.5 -83.5t-87.5 -29.5h-50q-54 0 -86 -33.5t-32 -89.5v-119h444v135
q0 149 103 240.5t272 91.5h80q57 0 87.5 -29t30.5 -83t-30.5 -83.5t-87.5 -29.5h-49zM1790 1180q70 0 106.5 -38.5t36.5 -109.5v-903q0 -71 -36.5 -109t-106.5 -38q-69 0 -106 38t-37 109v903q0 71 37 109.5t106 38.5z" />
    <glyph glyph-name="f_f_l" unicode="ffl" horiz-adv-x="2068" 
d="M1974 195q56 -36 56 -97q0 -54 -43.5 -85t-110.5 -31q-109 0 -176.5 73t-67.5 193v1251q0 71 37.5 109.5t106.5 38.5t106 -38.5t37 -109.5v-1208q0 -68 55 -96zM1346 1403q-54 0 -86.5 -33.5t-32.5 -89.5v-119h168q57 0 87.5 -29t30.5 -83t-30.5 -83.5t-87.5 -29.5h-168
v-807q0 -71 -37 -109t-107 -38q-69 0 -106 38t-37 109v807h-444v-807q0 -71 -37 -109t-107 -38q-69 0 -106 38t-37 109v807h-72q-57 0 -88 29.5t-31 83.5t31 83t88 29h72v135q0 149 103 240.5t272 91.5h80q57 0 87.5 -29t30.5 -83t-30.5 -83.5t-87.5 -29.5h-50
q-54 0 -86 -33.5t-32 -89.5v-119h444v135q0 149 103 240.5t272 91.5h80q57 0 87.5 -29t30.5 -83t-30.5 -83.5t-87.5 -29.5h-49z" />
    <glyph glyph-name=".notdef" horiz-adv-x="2609" 
d="M156 -20q-15 0 -25 10.5t-10 25.5q0 21 10 31l700 698h-663q-47 0 -47 39q0 16 14 33l696 701h-669q-41 0 -41 38v3q0 38 41 38h758q47 0 47 -41q0 -20 -17 -34l-698 -697h676q17 0 29 -12t12 -29v-669l694 692q13 16 35 16q37 0 37 -45v-663l696 692q13 16 33 16
q15 0 25 -12t10 -27q0 -18 -13 -28l-753 -762q-14 -14 -35 -14q-41 0 -41 47v663l-694 -696q-14 -14 -35 -14q-41 0 -41 47v663l-697 -696q-14 -14 -34 -14z" />
    <glyph glyph-name=".null" 
 />
    <glyph glyph-name="nonmarkingreturn" horiz-adv-x="682" 
 />
    <glyph glyph-name="CR" unicode="&#xd;" horiz-adv-x="423" 
 />
    <glyph glyph-name="space" unicode=" " horiz-adv-x="423" 
 />
    <glyph glyph-name="exclam" unicode="!" horiz-adv-x="567" 
d="M283 473q-69 0 -106.5 39.5t-37.5 112.5v870q0 73 37.5 112.5t106.5 39.5t107 -39.5t38 -112.5v-870q0 -74 -37.5 -113t-107.5 -39zM283 -18q-74 0 -115 38.5t-41 110.5v23q0 73 41 111t115 38q75 0 115 -38t40 -111v-23q0 -72 -39.5 -110.5t-115.5 -38.5z" />
    <glyph glyph-name="quotedbl" unicode="&#x22;" horiz-adv-x="798" 
d="M223 1116q-52 0 -82 28.5t-35 82.5l-16 266q-8 73 27 113.5t106 40.5t106 -40.5t29 -113.5l-18 -266q-5 -54 -35 -82.5t-82 -28.5zM575 1116q-107 0 -116 111l-17 266q-8 73 27 113.5t106 40.5t106.5 -40.5t29.5 -113.5l-19 -266q-5 -54 -35 -82.5t-82 -28.5z" />
    <glyph glyph-name="numbersign" unicode="#" horiz-adv-x="1433" 
d="M1264 1055h-80l-49 -482h57q57 0 88 -29.5t31 -84.5t-31 -85t-88 -30h-80l-22 -223q-6 -67 -46 -103t-108 -36h-2q-67 0 -101 40.5t-26 112.5l20 209h-313l-22 -223q-8 -68 -47.5 -103.5t-108.5 -35.5h-2q-66 0 -99.5 40.5t-27.5 112.5l20 209h-57q-56 0 -86.5 30
t-30.5 85t30.5 84.5t86.5 29.5h80l49 482h-57q-56 0 -86.5 29.5t-30.5 84.5t30.5 85t86.5 30h80l22 223q15 140 156 140q67 0 101 -41t28 -113l-21 -209h312l22 223q7 69 47.5 104.5t108.5 35.5t101.5 -40.5t27.5 -113.5l-21 -209h58q57 0 87.5 -29.5t30.5 -85.5
q0 -55 -30.5 -84.5t-87.5 -29.5zM850 573l47 482h-311l-49 -482h313z" />
    <glyph glyph-name="dollar" unicode="$" horiz-adv-x="1353" 
d="M381 1182q0 -62 31 -104.5t83.5 -65.5t120.5 -38t143.5 -28t150.5 -29t143 -46.5t120.5 -75.5t83.5 -121t31 -178v-27q0 -186 -127 -314.5t-342 -162.5v-53q0 -73 -37 -112.5t-106 -39.5q-70 0 -107 39t-37 113v51q-138 21 -245 84.5t-164 171.5q-30 48 -12 103.5
t82 86.5q92 42 169 -35q140 -172 320 -172q140 0 225.5 64t85.5 168v10q0 61 -31 102.5t-83 64.5t-119 38t-141.5 28t-149.5 29.5t-142 47.5t-119 76.5t-83 122t-31 179.5v27q0 172 118.5 293.5t319.5 156.5v54q0 74 37 112.5t107 38.5q69 0 106 -39t37 -112v-54
q124 -22 225 -82.5t164 -154.5q37 -47 17 -106t-84 -87q-100 -40 -166 35q-129 158 -301 158q-132 0 -212.5 -57.5t-80.5 -149.5v-10z" />
    <glyph glyph-name="percent" unicode="%" horiz-adv-x="1681" 
d="M385 805q-148 0 -238 80.5t-90 212.5v250q0 131 90.5 211.5t237.5 80.5q150 0 241 -80.5t91 -211.5v-250q0 -132 -91 -212.5t-241 -80.5zM524 70q-25 -43 -61 -54t-78 13q-86 51 -35 139l805 1393q25 43 61.5 53t77.5 -15q86 -51 35 -139zM385 991q53 0 85 31.5t32 83.5
v231q0 53 -31.5 85t-85.5 32q-53 0 -85 -32t-32 -85v-231q0 -51 32.5 -83t84.5 -32zM1292 -10q-148 0 -237.5 80.5t-89.5 212.5v249q0 131 90 212t237 81q150 0 241 -81t91 -212v-249q0 -132 -91 -212.5t-241 -80.5zM1292 176q54 0 85.5 32t31.5 83v231q0 53 -31.5 85
t-85.5 32q-52 0 -84 -32t-32 -85v-231q0 -51 32 -83t84 -32z" />
    <glyph glyph-name="ampersand" unicode="&#x26;" horiz-adv-x="1474" 
d="M1309 254q46 -8 76 -40t30 -91q0 -62 -38 -97.5t-105 -35.5q-97 0 -170.5 44.5t-116.5 127.5q-62 -87 -163 -134.5t-230 -47.5q-229 0 -370.5 124t-141.5 328v57q0 117 66 207t184 138q-105 46 -163 128.5t-58 190.5v57q0 197 138.5 318t364.5 121q148 0 273.5 -65
t193.5 -191q30 -43 6 -100t-92 -81q-39 -15 -71 -10.5t-51.5 17t-30.5 30.5q-77 142 -219 142q-97 0 -155 -54t-58 -143v-41q0 -89 60.5 -143t158.5 -54h655q64 0 98.5 -32.5t34.5 -94.5q0 -63 -34 -96t-99 -33h-133v-262q0 -97 43 -136t117 -48zM614 238q106 0 171 55
t65 145v262h-244q-101 0 -163 -58t-62 -153v-40q0 -95 64.5 -153t168.5 -58z" />
    <glyph glyph-name="quotesingle" unicode="'" horiz-adv-x="448" 
d="M223 1116q-52 0 -82 28.5t-35 82.5l-16 266q-8 73 27 113.5t106 40.5t106 -40.5t29 -113.5l-18 -266q-5 -54 -35 -82.5t-82 -28.5z" />
    <glyph glyph-name="parenleft" unicode="(" horiz-adv-x="743" 
d="M590 -516q-218 0 -348.5 113.5t-130.5 300.5v1443q0 186 131 299t348 113q60 0 93.5 -34t33.5 -97q0 -60 -33 -92.5t-94 -32.5q-82 0 -130 -49.5t-48 -130.5v-1397q0 -82 48 -130t130 -48q62 0 94.5 -33t32.5 -94q0 -63 -33 -97t-94 -34z" />
    <glyph glyph-name="parenright" unicode=")" horiz-adv-x="743" 
d="M154 -516q-61 0 -94 34t-33 97q0 61 32.5 94t94.5 33q82 0 130 48t48 130v1397q0 81 -48 130.5t-130 49.5q-61 0 -94 32.5t-33 92.5q0 63 33.5 97t93.5 34q217 0 348 -113t131 -299v-1443q0 -187 -130.5 -300.5t-348.5 -113.5z" />
    <glyph glyph-name="asterisk" unicode="*" horiz-adv-x="800" 
d="M711 1405q25 -86 -62 -107l-125 -34l82 -105q58 -67 -12 -121q-34 -25 -66 -18.5t-55 43.5l-74 111l-71 -111q-47 -75 -119 -25q-73 51 -16 123l83 103l-126 34q-41 10 -56.5 38.5t-3.5 68.5q25 80 111 49l123 -47l-7 129q-2 44 19.5 68t62.5 24t63 -24t21 -68l-6 -129
l123 47q40 15 70.5 2t40.5 -51z" />
    <glyph glyph-name="plus" unicode="+" horiz-adv-x="1155" 
d="M979 702q57 0 88 -29t31 -83t-31 -83.5t-88 -29.5h-258v-231q0 -71 -36.5 -108.5t-106.5 -37.5q-69 0 -106.5 38t-37.5 108v231h-258q-57 0 -88 29.5t-31 83.5t31 83t88 29h258v232q0 70 37.5 108.5t106.5 38.5t106 -38t37 -109v-232h258z" />
    <glyph glyph-name="comma" unicode="," horiz-adv-x="501" 
d="M131 -319q-102 20 -86 129l55 356q11 71 53.5 102.5t110.5 16.5q71 -14 97.5 -60t3.5 -116l-105 -349q-17 -51 -47.5 -70t-81.5 -9z" />
    <glyph glyph-name="hyphen" unicode="-" horiz-adv-x="815" 
d="M223 477q-57 0 -87 29.5t-30 83.5t30 83t87 29h369q57 0 87 -29t30 -83t-30 -83.5t-87 -29.5h-369z" />
    <glyph glyph-name="period" unicode="." horiz-adv-x="489" 
d="M246 -18q-75 0 -115.5 38.5t-40.5 110.5v23q0 73 40.5 111t115.5 38q74 0 113.5 -38t39.5 -111v-23q0 -72 -39 -110.5t-114 -38.5z" />
    <glyph glyph-name="slash" unicode="/" horiz-adv-x="890" 
d="M186 -430q-65 15 -91 61.5t-9 114.5l453 1786q19 69 63 96t109 10q64 -15 88.5 -61t9.5 -115l-453 -1786q-38 -141 -170 -106z" />
    <glyph glyph-name="zero" unicode="0" horiz-adv-x="1435" 
d="M717 -20q-277 0 -447 156t-170 411v534q0 255 170 411.5t447 156.5q279 0 447.5 -156t168.5 -412v-534q0 -256 -168.5 -411.5t-447.5 -155.5zM717 244q144 0 230.5 88t86.5 231v502q0 143 -86.5 231t-230.5 88q-141 0 -229.5 -88.5t-88.5 -230.5v-502q0 -142 88.5 -230.5
t229.5 -88.5z" />
    <glyph glyph-name="one" unicode="1" horiz-adv-x="1048" 
d="M711 1638q92 0 142 -50t50 -142v-1313q0 -73 -38.5 -112t-110.5 -39q-73 0 -111.5 38.5t-38.5 112.5v1165l-344 -294q-100 -86 -184 14q-80 99 18 184l438 377q70 59 164 59h15z" />
    <glyph glyph-name="two" unicode="2" horiz-adv-x="1331" 
d="M1114 256q133 0 133 -127q0 -63 -34 -96t-99 -33h-874q-80 0 -124 39t-44 111v2q0 112 98 180q160 115 271.5 200.5t213.5 173.5t162.5 157.5t95.5 137.5t35 129v9q0 114 -77 183t-203 69q-186 0 -297 -162q-28 -34 -77 -45t-108 10q-60 26 -76.5 72.5t11.5 95.5
q67 141 215.5 214t337.5 73q256 0 412.5 -134t156.5 -352v-26q0 -90 -36 -179t-96 -169.5t-160 -172.5t-205.5 -174t-256.5 -188z" />
    <glyph glyph-name="three" unicode="3" horiz-adv-x="1331" 
d="M981 831q125 -48 194.5 -137.5t69.5 -208.5v-51q0 -204 -162 -329t-426 -125q-185 0 -329 71t-217 207q-17 33 -16 66t27.5 64.5t72.5 47.5q103 39 167 -39q61 -84 130.5 -121.5t158.5 -37.5q132 0 213.5 58.5t81.5 154.5v34q0 95 -70.5 151t-191.5 64q-84 6 -123 36
t-39 93q0 61 36 91t108 36q114 8 184 62t70 137v37q0 90 -75.5 144.5t-199.5 54.5q-160 0 -272 -144q-28 -28 -69 -38t-103 8q-44 17 -68 48.5t-22.5 64t18.5 63.5q67 124 207 190t317 66q254 0 410 -121t156 -320v-53q0 -107 -63 -191.5t-175 -132.5z" />
    <glyph glyph-name="four" unicode="4" horiz-adv-x="1343" 
d="M1153 588q65 0 99 -33t34 -96t-34 -96t-99 -33h-55v-197q0 -73 -38.5 -112t-109.5 -39q-72 0 -109 39t-36 112l2 197h-610q-77 0 -118.5 42.5t-41.5 121.5v4q0 88 51 164l602 868q34 50 87 79t110 29h18q93 0 143 -50t50 -144v-856h55zM332 588h477l8 708z" />
    <glyph glyph-name="five" unicode="5" horiz-adv-x="1290" 
d="M700 987q237 0 382 -132.5t145 -348.5v-53q0 -213 -162 -343t-426 -130q-186 0 -331 71t-218 207q-29 45 -6.5 99.5t90.5 78.5q43 18 78.5 12.5t56.5 -18.5t35 -33q96 -159 287 -159q134 0 215.5 63.5t81.5 167.5v29q0 104 -79.5 168.5t-209.5 64.5h-375q-68 0 -101 36
t-24 103l84 635q15 123 139 123h660q65 0 99 -33t34 -96t-34 -96t-99 -33h-522l-49 -383h249z" />
    <glyph glyph-name="six" unicode="6" horiz-adv-x="1308" 
d="M717 995q250 0 401.5 -133t151.5 -350v-41q0 -221 -168.5 -356t-446.5 -135q-277 0 -445.5 135t-168.5 356v41q0 132 127 367l364 677q34 66 87.5 83.5t117.5 -15.5q64 -32 79.5 -84.5t-19.5 -118.5l-254 -452q96 26 174 26zM963 481v19q0 109 -84.5 175t-223.5 66
q-138 0 -222.5 -66t-84.5 -175v-19q0 -109 84.5 -175t222.5 -66q139 0 223.5 66t84.5 175z" />
    <glyph glyph-name="seven" unicode="7" horiz-adv-x="1202" 
d="M987 1628q85 0 129.5 -45.5t44.5 -130.5v-6q0 -90 -35 -164l-548 -1204q-66 -138 -205 -76q-68 29 -87.5 81.5t11.5 121.5l539 1169l-674 -2q-133 0 -133 127q0 63 34 96t99 33h825z" />
    <glyph glyph-name="eight" unicode="8" horiz-adv-x="1390" 
d="M1044 834q126 -53 195.5 -145.5t69.5 -209.5v-28q0 -212 -168.5 -341.5t-446.5 -129.5q-277 0 -445.5 129.5t-168.5 341.5v28q0 118 69.5 210t194.5 145q-106 52 -164.5 136t-58.5 191v35q0 203 157.5 328t415.5 125q259 0 416.5 -125t157.5 -328v-35q0 -107 -58.5 -191
t-165.5 -136zM428 1186v-29q0 -92 73 -148.5t193 -56.5q121 0 194 56.5t73 148.5v29q0 91 -73 147t-194 56q-120 0 -193 -56t-73 -147zM1001 461v22q0 100 -84 161t-223 61q-138 0 -222.5 -61t-84.5 -161v-22q0 -100 84.5 -160.5t222.5 -60.5q139 0 223 60.5t84 160.5z" />
    <glyph glyph-name="nine" unicode="9" horiz-adv-x="1306" 
d="M653 1649q277 0 446 -135.5t169 -356.5v-41q0 -131 -127 -366l-365 -678q-34 -66 -87.5 -83.5t-117.5 15.5q-64 32 -79 84.5t20 118.5l254 452q-96 -26 -174 -26q-250 0 -401.5 133t-151.5 350v41q0 222 168 357t446 135zM961 1128v19q0 109 -85 175.5t-223 66.5
q-139 0 -223 -66.5t-84 -175.5v-19q0 -109 84 -175t223 -66q138 0 223 66t85 175z" />
    <glyph glyph-name="colon" unicode=":" horiz-adv-x="507" 
d="M256 858q-75 0 -115.5 39t-40.5 111v22q0 73 40.5 111.5t115.5 38.5q74 0 114 -38.5t40 -111.5v-22q0 -72 -39.5 -111t-114.5 -39zM256 -18q-75 0 -115.5 38.5t-40.5 110.5v23q0 73 40.5 111t115.5 38q74 0 114 -38t40 -111v-23q0 -72 -39.5 -110.5t-114.5 -38.5z" />
    <glyph glyph-name="semicolon" unicode=";" horiz-adv-x="575" 
d="M293 858q-75 0 -115.5 39t-40.5 111v22q0 73 40.5 111.5t115.5 38.5q74 0 113.5 -38.5t39.5 -111.5v-22q0 -72 -39 -111t-114 -39zM174 -319q-102 20 -86 129l55 356q11 71 53.5 102.5t110.5 16.5q71 -14 97.5 -60t3.5 -116l-105 -349q-17 -51 -47.5 -70t-81.5 -9z" />
    <glyph glyph-name="less" unicode="&#x3c;" horiz-adv-x="1155" 
d="M1026 336q34 -12 56 -42.5t22 -68.5q0 -62 -52 -96.5t-110 -11.5l-792 327q-43 18 -71 58t-28 88q0 49 28 88t71 57l792 330q58 23 110 -12.5t52 -98.5q0 -38 -22 -68t-56 -42l-600 -236q-25 -10 -53 -18q19 -6 53 -19z" />
    <glyph glyph-name="equal" unicode="=" horiz-adv-x="1155" 
d="M176 645q-57 0 -88 29.5t-31 83.5q0 55 31 84.5t88 29.5h803q57 0 88 -29.5t31 -84.5q0 -54 -31 -83.5t-88 -29.5h-803zM176 315q-57 0 -88 29t-31 84q0 54 31 83.5t88 29.5h803q57 0 88 -29.5t31 -83.5q0 -55 -31 -84t-88 -29h-803z" />
    <glyph glyph-name="greater" unicode="&#x3e;" horiz-adv-x="1155" 
d="M1006 735q43 -18 70.5 -57t27.5 -88q0 -48 -28 -88t-70 -58l-793 -327q-58 -23 -110 11.5t-52 96.5q0 38 22 68.5t56 42.5l600 235q34 13 53 19q-28 8 -53 18l-600 236q-34 12 -56 42t-22 68q0 63 52 98.5t110 12.5z" />
    <glyph glyph-name="question" unicode="?" horiz-adv-x="1085" 
d="M549 1628q217 0 349 -120t132 -318v-37q0 -191 -132 -307.5t-349 -116.5h-64v-104q0 -74 -37.5 -113t-107.5 -39q-69 0 -106 39.5t-37 112.5v200q0 63 34.5 97t98.5 34h202q89 0 144 55t55 144v19q0 89 -54.5 142.5t-144.5 53.5h-337q-65 0 -99.5 33t-34.5 96t34.5 96
t99.5 33h354zM340 303q75 0 115.5 -38t40.5 -111v-23q0 -72 -40 -110.5t-116 -38.5q-74 0 -115 38.5t-41 110.5v23q0 73 41 111t115 38z" />
    <glyph glyph-name="at" unicode="@" horiz-adv-x="1775" 
d="M942 1649q335 0 540.5 -164t205.5 -432v-510q0 -213 -143.5 -344t-377.5 -131q-236 0 -379 126.5t-143 333.5v138q0 207 120.5 333.5t319.5 126.5q197 0 316 -131v41q0 163 -126.5 263t-332.5 100q-259 0 -418 -163.5t-159 -430.5v-391q0 -274 170 -441.5t448 -167.5h74
q56 0 86.5 -29t30.5 -83t-30.5 -83.5t-86.5 -29.5h-103q-260 0 -459.5 102t-308 287.5t-108.5 427.5v424q0 246 107.5 434t304 291t452.5 103zM1401 559v76q0 109 -65 175.5t-169 66.5q-106 0 -170.5 -66.5t-64.5 -175.5v-76q0 -109 64.5 -175.5t170.5 -66.5q104 0 169 66.5
t65 175.5z" />
    <glyph glyph-name="A" unicode="A" horiz-adv-x="1503" 
d="M1442 176q22 -70 -3 -118t-93 -68q-69 -19 -117 7t-68 95l-78 238h-663l-76 -238q-44 -140 -184 -102q-68 21 -94 68.5t-3 117.5l426 1288q26 84 89.5 129t158.5 45h31q95 0 158.5 -45t89.5 -129zM504 588h497l-249 768z" />
    <glyph glyph-name="B" unicode="B" horiz-adv-x="1495" 
d="M1180 838q116 -46 180.5 -135.5t64.5 -208.5v-48q0 -201 -133 -323.5t-350 -122.5h-670q-64 0 -98.5 34t-34.5 99v1362q0 65 34.5 99t98.5 34h629q218 0 350.5 -120t132.5 -318v-35q0 -106 -53 -187.5t-151 -129.5zM438 1370v-414h447q91 0 145.5 55t54.5 144v19
q0 89 -54.5 142.5t-145.5 53.5h-447zM1126 463v31q0 92 -55.5 149t-144.5 57h-488v-442h488q89 0 144.5 56.5t55.5 148.5z" />
    <glyph glyph-name="C" unicode="C" horiz-adv-x="1419" 
d="M770 -20q-309 0 -496.5 174.5t-187.5 461.5v390q0 290 187 466.5t495 176.5q177 0 327.5 -74t225.5 -207q13 -29 15.5 -63.5t-20 -70.5t-65.5 -52q-40 -16 -76 -12t-59.5 16.5t-40.5 32.5q-66 84 -146.5 124.5t-160.5 40.5q-172 0 -277.5 -108.5t-105.5 -286.5v-356
q0 -175 106 -282t279 -107q95 0 176.5 45.5t138.5 126.5q68 82 175 39q43 -18 67 -50t24 -60.5t-8 -51.5q-70 -153 -224 -233t-349 -80z" />
    <glyph glyph-name="D" unicode="D" horiz-adv-x="1505" 
d="M272 0q-64 0 -98.5 34t-34.5 99v1362q0 65 34.5 99t98.5 34h484q299 0 482 -174.5t183 -458.5v-362q0 -284 -183 -458.5t-482 -174.5h-484zM438 258h301q172 0 276.5 107t104.5 284v330q0 177 -104.5 284t-276.5 107h-301v-1112z" />
    <glyph glyph-name="E" unicode="E" horiz-adv-x="1347" 
d="M1149 258q63 0 97 -33t34 -96t-34 -96t-97 -33h-877q-64 0 -98.5 34t-34.5 99v1362q0 65 34.5 99t98.5 34h856q63 0 97.5 -33t34.5 -96t-34.5 -96t-97.5 -33h-690v-414h649q63 0 97.5 -33t34.5 -94q0 -63 -34.5 -96t-97.5 -33h-649v-442h711z" />
    <glyph glyph-name="F" unicode="F" horiz-adv-x="1310" 
d="M1128 1370h-690v-414h649q63 0 97.5 -33t34.5 -94q0 -63 -34.5 -96t-97.5 -33h-649v-567q0 -73 -38.5 -112t-110.5 -39t-111 39t-39 112v1362q0 65 34.5 99t98.5 34h856q63 0 97.5 -33t34.5 -96t-34.5 -96t-97.5 -33z" />
    <glyph glyph-name="G" unicode="G" horiz-adv-x="1507" 
d="M1298 956q64 0 99 -34t35 -97v-217q0 -283 -185 -455.5t-487 -172.5q-303 0 -488.5 174.5t-185.5 461.5v390q0 290 187 466.5t495 176.5q179 0 330.5 -74t224.5 -207q13 -29 15.5 -63.5t-20 -70.5t-65.5 -52q-40 -16 -76 -12t-59.5 16.5t-40.5 32.5q-64 83 -146 124
t-163 41q-172 0 -277.5 -108.5t-105.5 -286.5v-356q0 -174 103.5 -281.5t271.5 -107.5q173 0 273 104t100 277v75h-283q-63 0 -97 33t-34 96q0 61 34 94t97 33h448z" />
    <glyph glyph-name="H" unicode="H" horiz-adv-x="1515" 
d="M1225 1647q73 0 112 -39t39 -113v-1362q0 -73 -39 -112t-112 -39q-72 0 -111 39t-39 112v567h-637v-567q0 -73 -38.5 -112t-110.5 -39t-111 39t-39 112v1362q0 73 39 112.5t111 39.5t110.5 -39.5t38.5 -112.5v-539h637v539q0 73 39 112.5t111 39.5z" />
    <glyph glyph-name="I" unicode="I" horiz-adv-x="577" 
d="M289 -18q-72 0 -111 38t-39 109v1366q0 73 39 112.5t111 39.5t110.5 -39.5t38.5 -112.5v-1366q0 -71 -38.5 -109t-110.5 -38z" />
    <glyph glyph-name="J" unicode="J" horiz-adv-x="1292" 
d="M584 -20q-174 0 -311.5 80.5t-204.5 234.5q-23 48 1 108.5t87 88.5q92 37 157 -60q103 -188 271 -188q126 0 203 79.5t77 211.5v960q0 73 39 112.5t111 39.5q73 0 112 -39t39 -113v-977q0 -243 -160 -390.5t-421 -147.5z" />
    <glyph glyph-name="K" unicode="K" horiz-adv-x="1449" 
d="M1378 188q57 -135 -78 -192q-66 -26 -115 -5t-77 87l-332 790l-338 -364v-371q0 -73 -38.5 -112t-110.5 -39t-111 39t-39 112v1362q0 73 39 112.5t111 39.5t110.5 -39.5t38.5 -112.5v-645l676 737q94 108 201 21q51 -41 51.5 -93t-49.5 -104l-318 -348z" />
    <glyph glyph-name="L" unicode="L" horiz-adv-x="1208" 
d="M1047 258q63 0 97 -33t34 -96t-34 -96t-97 -33h-775q-64 0 -98.5 34t-34.5 99v1362q0 73 39 112.5t111 39.5t110.5 -39.5t38.5 -112.5v-1237h609z" />
    <glyph glyph-name="M" unicode="M" horiz-adv-x="1894" 
d="M1561 1638q94 0 144 -50t50 -144v-1311q0 -74 -37.5 -112.5t-109.5 -38.5t-110 39t-38 112l10 1059l-401 -666q-55 -90 -121 -90q-71 0 -123 90l-401 664l8 -1057q1 -73 -36 -112t-109 -39q-71 0 -109.5 39t-38.5 112v1311q0 94 50.5 144t144.5 50h16q118 0 185 -114
l413 -693l412 693q64 114 184 114h17z" />
    <glyph glyph-name="N" unicode="N" horiz-adv-x="1570" 
d="M1284 1647q71 0 109.5 -39.5t38.5 -112.5v-1311q0 -94 -50.5 -144t-144.5 -50h-20q-122 0 -173 92l-622 1102l10 -1051q1 -73 -36 -112t-109 -39q-71 0 -109.5 39t-38.5 112v1311q0 94 50.5 144t144.5 50h20q121 0 172 -92l623 -1104l-12 1053q-1 73 37 112.5t110 39.5z
" />
    <glyph glyph-name="O" unicode="O" horiz-adv-x="1552" 
d="M776 -20q-312 0 -501 176t-189 465v387q0 289 189 465t501 176q154 0 282.5 -46.5t218 -129.5t139.5 -202.5t50 -262.5v-387q0 -143 -50 -262.5t-139.5 -202.5t-218 -129.5t-282.5 -46.5zM776 244q177 0 284 108t107 285v354q0 177 -107 285t-284 108t-284 -108
t-107 -285v-354q0 -177 107 -285t284 -108z" />
    <glyph glyph-name="P" unicode="P" horiz-adv-x="1452" 
d="M922 1628q217 0 350 -120t133 -318v-51q0 -198 -133 -318.5t-350 -120.5h-484v-567q0 -73 -38.5 -112t-110.5 -39t-111 39t-39 112v1362q0 65 34.5 99t98.5 34h650zM1106 1155v19q0 89 -55.5 142.5t-145.5 53.5h-467v-414h467q89 0 145 55t56 144z" />
    <glyph glyph-name="Q" unicode="Q" horiz-adv-x="1556" 
d="M1413 100q101 -104 14 -198q-43 -43 -94 -39t-102 55l-125 127q-145 -65 -330 -65q-312 0 -501 176t-189 465v387q0 289 189 465t501 176q154 0 282.5 -46.5t218 -129.5t139.5 -202.5t50 -262.5v-387q0 -255 -149 -424zM776 244q67 0 119 14l-59 59q-51 52 -54 104t41 95
q43 44 93.5 40t101.5 -56l88 -90q61 99 61 227v354q0 177 -107 285t-284 108t-284 -108t-107 -285v-354q0 -177 107 -285t284 -108z" />
    <glyph glyph-name="R" unicode="R" horiz-adv-x="1472" 
d="M1405 1139q0 -148 -76 -255t-211 -153l236 -543q28 -64 8 -114t-86 -78q-65 -26 -114.5 -5t-78.5 87l-262 622h-383v-567q0 -73 -38.5 -112t-110.5 -39t-111 39t-39 112v1362q0 65 34.5 99t98.5 34h650q218 0 350.5 -120t132.5 -318v-51zM438 1370v-414h467q89 0 145 55
t56 144v19q0 89 -55.5 142.5t-145.5 53.5h-467z" />
    <glyph glyph-name="S" unicode="S" horiz-adv-x="1398" 
d="M692 -20q-201 0 -359 65.5t-229 200.5q-30 48 -12 103.5t82 86.5q92 43 170 -35q140 -172 354 -172q155 0 249.5 64t94.5 168v10q0 61 -33 102.5t-88.5 64t-127.5 37.5t-152 27.5t-160 28t-152 45.5t-127.5 74t-88.5 118.5t-33 174.5v26q0 216 169.5 348t448.5 132
q180 0 324 -64.5t227 -185.5q37 -47 17 -106t-84 -87q-100 -40 -166 35q-126 158 -324 158q-147 0 -236 -57t-89 -150v-10q0 -62 33 -104.5t89.5 -65t129.5 -37.5t153.5 -27.5t161 -28t153.5 -45t129 -73t89.5 -117.5t33.5 -174v-27q0 -226 -178.5 -364.5t-468.5 -138.5z
" />
    <glyph glyph-name="T" unicode="T" horiz-adv-x="1304" 
d="M1145 1628q65 0 99 -33t34 -96t-34 -96t-99 -33h-344v-1237q0 -73 -39 -112t-111 -39t-110.5 39t-38.5 112v1237h-342q-65 0 -99 33t-34 96t34 96t99 33h985z" />
    <glyph glyph-name="U" unicode="U" horiz-adv-x="1509" 
d="M756 -20q-283 0 -456 159t-173 420v936q0 73 38.5 112.5t110.5 39.5t111 -39.5t39 -112.5v-920q0 -150 91 -240.5t239 -90.5t236.5 90t88.5 241v920q0 73 39.5 112.5t112.5 39.5q72 0 110.5 -39.5t38.5 -112.5v-936q0 -261 -171.5 -420t-454.5 -159z" />
    <glyph glyph-name="V" unicode="V" horiz-adv-x="1470" 
d="M1307 1636q142 -45 96 -188l-408 -1247q-66 -211 -247 -211h-25q-89 0 -153.5 54t-96.5 157l-410 1251q-21 68 5 115t94 69q137 44 182 -98l391 -1249l389 1245q22 71 69 97.5t114 4.5z" />
    <glyph glyph-name="W" unicode="W" horiz-adv-x="2113" 
d="M1948 1640q69 -13 97 -58t13 -116l-286 -1292q-18 -84 -73.5 -134t-148.5 -50h-34q-94 0 -149 49.5t-73 134.5l-237 1108l-238 -1108q-16 -84 -70.5 -134t-148.5 -50h-33q-93 0 -149 50t-74 134l-289 1292q-13 70 16.5 115t98.5 59t113.5 -16t56.5 -100l250 -1235
l233 1173q15 88 67.5 132t149.5 44h35q187 0 215 -176l236 -1177l248 1239q27 144 174 116z" />
    <glyph glyph-name="X" unicode="X" horiz-adv-x="1406" 
d="M1317 209q41 -60 29.5 -112t-72.5 -89q-120 -71 -199 53l-373 570l-370 -570q-79 -124 -199 -53q-60 37 -72 89t27 112l430 618l-416 592q-40 60 -28.5 112t71.5 89q58 35 109.5 21.5t89.5 -74.5l358 -545l361 545q78 126 197 53q61 -37 72.5 -89t-29.5 -112l-414 -592z
" />
    <glyph glyph-name="Y" unicode="Y" horiz-adv-x="1439" 
d="M1290 1622q62 -34 77 -84.5t-21 -112.5l-476 -778v-514q0 -73 -38.5 -112t-110.5 -39q-73 0 -111.5 38.5t-38.5 112.5v510l-477 782q-36 62 -21 113t77 84q126 67 198 -59l373 -629l371 629q35 62 85.5 77t112.5 -18z" />
    <glyph glyph-name="Z" unicode="Z" horiz-adv-x="1359" 
d="M1184 256q133 0 133 -127q0 -63 -34 -96t-99 -33h-973q-79 0 -121.5 43t-42.5 121v10q0 51 13.5 88.5t45.5 77.5l838 1034l-745 -2q-63 0 -97 32t-34 95t34 96t97 33h931q79 0 122.5 -43t43.5 -121v-10q0 -51 -13.5 -88.5t-45.5 -77.5l-838 -1034z" />
    <glyph glyph-name="bracketleft" unicode="[" horiz-adv-x="772" 
d="M612 -258q65 0 99 -33t34 -96t-34 -96t-99 -33h-342q-64 0 -98.5 34t-34.5 97v2007q0 63 34.5 97t98.5 34h342q64 0 98.5 -32.5t34.5 -94.5q0 -63 -34 -96t-99 -33h-174v-1755h174z" />
    <glyph glyph-name="backslash" unicode="\" horiz-adv-x="890" 
d="M705 -430q-132 -35 -170 106l-453 1786q-15 69 9.5 115t88.5 61q65 17 109 -10t63 -96l453 -1786q17 -68 -9 -114.5t-91 -61.5z" />
    <glyph glyph-name="bracketright" unicode="]" horiz-adv-x="772" 
d="M502 1753q64 0 98.5 -34t34.5 -97v-2007q0 -63 -34.5 -97t-98.5 -34h-342q-65 0 -99 33t-34 96t34 96t99 33h174v1755h-174q-65 0 -99 33t-34 96q0 62 34.5 94.5t98.5 32.5h342z" />
    <glyph glyph-name="asciicircum" unicode="^" horiz-adv-x="1155" 
d="M1014 1004q27 -65 0 -113.5t-96 -69.5q-67 -19 -114 8.5t-67 96.5l-159 452l-158 -452q-42 -143 -178 -105q-69 21 -97 69.5t-2 113.5l181 428q20 51 39 86t47.5 66.5t67.5 47t89 15.5h21q50 0 88.5 -15.5t67 -48t47 -65.5t40.5 -86z" />
    <glyph glyph-name="underscore" unicode="_" horiz-adv-x="1095" 
d="M156 -303q-50 0 -76.5 25.5t-26.5 72.5t27 73t76 26h782q51 0 77.5 -25.5t26.5 -73.5q0 -47 -26.5 -72.5t-77.5 -25.5h-782z" />
    <glyph glyph-name="grave" unicode="`" horiz-adv-x="753" 
d="M653 1343q-27 -70 -137 -34l-332 137q-54 19 -72 55.5t1 83.5q21 48 58.5 61t90.5 -14l318 -170q101 -49 73 -119z" />
    <glyph glyph-name="a" unicode="a" horiz-adv-x="1185" 
d="M575 1182q226 0 365 -110.5t139 -293.5v-649q0 -71 -33 -109t-96 -38q-64 0 -99 37.5t-40 107.5v12q-134 -159 -377 -159q-168 0 -270.5 90.5t-102.5 240.5v68q0 139 104.5 224t276.5 85h351v70q0 92 -60.5 148.5t-157.5 56.5q-124 0 -217 -101q-55 -51 -131 -28
q-36 11 -60.5 31t-34.5 42.5t-9.5 45.5t12.5 42q52 90 173 138.5t267 48.5zM522 207q121 0 196 62.5t75 164.5v58h-285q-71 0 -115.5 -34t-44.5 -91v-23q0 -63 48 -100t126 -37z" />
    <glyph glyph-name="b" unicode="b" horiz-adv-x="1269" 
d="M739 1182q207 0 333 -132.5t126 -349.5v-239q0 -217 -126 -349t-333 -132q-232 0 -358 167v-20q-3 -70 -38 -107.5t-99 -37.5q-63 0 -96 38t-33 109v1370q0 71 37 109.5t106 38.5t106 -38.5t37 -109.5v-461q125 144 338 144zM911 492v178q0 119 -69.5 191.5t-184.5 72.5
t-185.5 -72.5t-70.5 -191.5v-178q0 -119 70.5 -191t185.5 -72t184.5 72t69.5 191z" />
    <glyph glyph-name="c" unicode="c" horiz-adv-x="1124" 
d="M610 -20q-244 0 -393 137.5t-149 363.5v199q0 226 148.5 364t391.5 138q141 0 254.5 -51.5t167.5 -161.5q8 -25 9.5 -55t-20 -60.5t-61.5 -44.5q-95 -29 -153 25q-82 100 -197 100q-114 0 -184 -72t-70 -190v-185q0 -117 70 -187.5t186 -70.5q57 0 111.5 25t93.5 76
q56 56 146 26q58 -19 76.5 -62.5t6.5 -88.5q-18 -57 -62.5 -101.5t-105 -70.5t-128 -39.5t-138.5 -13.5z" />
    <glyph glyph-name="d" unicode="d" horiz-adv-x="1269" 
d="M1012 1647q69 0 106 -38.5t37 -109.5v-1370q0 -71 -33 -109t-96 -38q-64 0 -99 37.5t-38 107.5v20q-61 -80 -153 -123.5t-206 -43.5q-207 0 -332.5 132t-125.5 349v239q0 217 125.5 349.5t332.5 132.5q213 0 338 -144v461q0 71 37.5 109.5t106.5 38.5zM612 229
q115 0 185.5 72t70.5 191v178q0 119 -70.5 191.5t-185.5 72.5t-184.5 -72.5t-69.5 -191.5v-178q0 -119 69.5 -191t184.5 -72z" />
    <glyph glyph-name="e" unicode="e" horiz-adv-x="1193" 
d="M598 1182q238 0 384 -137t146 -361v-74q0 -57 -30.5 -87.5t-87.5 -30.5h-654v-21q0 -123 68.5 -197.5t181.5 -74.5q138 0 236 110q52 52 131 31q36 -11 60.5 -31.5t34.5 -43.5t9.5 -46.5t-12.5 -42.5q-54 -93 -179.5 -144.5t-279.5 -51.5q-242 0 -389 136.5t-147 360.5
v207q0 224 145 361t383 137zM842 688v2q0 123 -67.5 198t-176.5 75t-175.5 -75t-66.5 -198v-2h486z" />
    <glyph glyph-name="f" unicode="f" horiz-adv-x="782" 
d="M664 1161q57 0 87.5 -29t30.5 -83t-30.5 -83.5t-87.5 -29.5h-168v-807q0 -71 -37 -109t-107 -38q-69 0 -106 38t-37 109v807h-72q-57 0 -88 29.5t-31 83.5t31 83t88 29h72v135q0 149 103 240.5t272 91.5h80q57 0 87.5 -29t30.5 -83t-30.5 -83.5t-87.5 -29.5h-50
q-54 0 -86 -33.5t-32 -89.5v-119h168z" />
    <glyph glyph-name="g" unicode="g" horiz-adv-x="1271" 
d="M1028 1180q61 0 95 -38.5t34 -109.5v-995q0 -215 -156.5 -346t-414.5 -131q-292 0 -398 143q-22 27 -26 60t15 66t59 54q43 18 72.5 14t47.5 -20q109 -90 230 -90q137 0 220 73t83 193v131q-61 -79 -152.5 -121.5t-204.5 -42.5q-207 0 -332.5 129.5t-125.5 342.5v219
q0 212 125.5 341.5t332.5 129.5q114 0 206 -42.5t153 -121.5v16q3 71 38 108.5t99 37.5zM614 270q116 0 186 69t70 183v160q0 113 -70.5 182.5t-185.5 69.5t-184.5 -69.5t-69.5 -182.5v-160q0 -114 69.5 -183t184.5 -69z" />
    <glyph glyph-name="h" unicode="h" horiz-adv-x="1253" 
d="M719 1182q193 0 310.5 -121.5t117.5 -319.5v-612q0 -71 -36.5 -109t-106.5 -38q-69 0 -106.5 38.5t-37.5 108.5v567q0 107 -63 172.5t-166 65.5q-102 0 -166 -65.5t-64 -172.5v-567q0 -71 -36.5 -109t-106.5 -38q-69 0 -106 38t-37 109v1370q0 71 37 109.5t106 38.5
q70 0 106.5 -38.5t36.5 -109.5v-446q120 129 318 129z" />
    <glyph glyph-name="i" unicode="i" horiz-adv-x="518" 
d="M258 1352q-69 0 -106 34t-37 97v33q0 63 37 97t106 34q70 0 106.5 -34t36.5 -97v-33q0 -63 -36.5 -97t-106.5 -34zM258 -18q-69 0 -106 38t-37 109v903q0 71 37 109.5t106 38.5q70 0 106.5 -38.5t36.5 -109.5v-903q0 -71 -36.5 -109t-106.5 -38z" />
    <glyph glyph-name="j" unicode="j" horiz-adv-x="528" 
d="M270 1352q-70 0 -106.5 34t-36.5 97v33q0 63 36.5 97t106.5 34q69 0 106.5 -34t37.5 -97v-33q0 -63 -37.5 -97t-106.5 -34zM137 -438q-67 0 -110 31t-43 85q0 65 57 101q42 22 64 52.5t22 78.5v1122q0 71 36.5 109.5t106.5 38.5q69 0 106.5 -38.5t37.5 -109.5v-1143
q0 -146 -79 -236.5t-198 -90.5z" />
    <glyph glyph-name="k" unicode="k" horiz-adv-x="1153" 
d="M1075 197q32 -63 16.5 -114.5t-77.5 -80.5q-128 -64 -191 70l-227 469l-195 -215v-197q0 -71 -36.5 -109t-106.5 -38q-69 0 -106 38t-37 109v1370q0 71 37 109.5t106 38.5q70 0 106.5 -38.5t36.5 -109.5v-852l443 479q92 99 184 13q46 -43 48.5 -91.5t-40.5 -95.5
l-221 -239z" />
    <glyph glyph-name="l" unicode="l" horiz-adv-x="544" 
d="M354 -18q-109 0 -176 73t-67 193v1251q0 71 37 109.5t106 38.5t106 -38.5t37 -109.5v-1208q0 -67 56 -96q55 -35 55 -97q0 -54 -43.5 -85t-110.5 -31z" />
    <glyph glyph-name="m" unicode="m" horiz-adv-x="1957" 
d="M1434 1182q189 0 303 -118t114 -312v-623q0 -71 -36.5 -109t-106.5 -38q-69 0 -106 38t-37 109v578q0 103 -60.5 165t-158.5 62q-97 0 -158.5 -62.5t-61.5 -164.5v-578q0 -71 -36.5 -109t-106.5 -38q-69 0 -106 38t-37 109v578q0 103 -60.5 165t-158.5 62
q-97 0 -158.5 -62.5t-61.5 -164.5v-578q0 -71 -36.5 -109t-106.5 -38q-69 0 -106 38t-37 109v903q0 71 34.5 109.5t98.5 38.5q63 0 97.5 -37.5t37.5 -106.5q56 70 140 108t186 38q116 0 205.5 -46t144.5 -132q61 86 157 132t218 46z" />
    <glyph glyph-name="n" unicode="n" horiz-adv-x="1253" 
d="M719 1182q193 0 310.5 -121.5t117.5 -319.5v-612q0 -71 -36.5 -109t-106.5 -38q-69 0 -106.5 38.5t-37.5 108.5v567q0 107 -63 172.5t-166 65.5q-102 0 -166 -65.5t-64 -172.5v-567q0 -71 -36.5 -109t-106.5 -38q-69 0 -106 38t-37 109v903q0 71 34.5 109.5t98.5 38.5
q63 0 97.5 -37.5t37.5 -108.5v-4q58 73 144 112.5t192 39.5z" />
    <glyph glyph-name="o" unicode="o" horiz-adv-x="1220" 
d="M610 -20q-245 0 -393.5 138t-148.5 365v195q0 227 149 365.5t393 138.5t392.5 -138.5t148.5 -365.5v-195q0 -227 -148.5 -365t-392.5 -138zM610 229q115 0 184.5 72t69.5 191v178q0 119 -69.5 191.5t-184.5 72.5t-185.5 -72.5t-70.5 -191.5v-178q0 -119 70.5 -191
t185.5 -72z" />
    <glyph glyph-name="p" unicode="p" horiz-adv-x="1269" 
d="M739 1182q207 0 334 -132.5t127 -349.5v-239q0 -217 -127 -349t-334 -132q-211 0 -338 143v-414q0 -71 -36.5 -109t-106.5 -38q-69 0 -106 38t-37 109v1323q0 71 34.5 109.5t98.5 38.5q63 0 97.5 -37.5t37.5 -108.5v-18q60 80 151.5 123t204.5 43zM913 492v178
q0 119 -70.5 191.5t-185.5 72.5t-185.5 -72.5t-70.5 -191.5v-178q0 -119 70.5 -191t185.5 -72t185.5 72t70.5 191z" />
    <glyph glyph-name="q" unicode="q" horiz-adv-x="1269" 
d="M1022 1180q64 0 98.5 -38.5t34.5 -109.5v-1323q0 -71 -37 -109t-106 -38q-70 0 -107 38t-37 109v414q-127 -143 -338 -143q-207 0 -333.5 132t-126.5 349v239q0 217 126.5 349.5t333.5 132.5q113 0 205 -43t152 -123v18q3 71 37.5 108.5t97.5 37.5zM612 229
q115 0 185.5 72t70.5 191v178q0 119 -70.5 191.5t-185.5 72.5t-185.5 -72.5t-70.5 -191.5v-178q0 -119 70.5 -191t185.5 -72z" />
    <glyph glyph-name="r" unicode="r" horiz-adv-x="804" 
d="M647 1180q144 0 144 -138q0 -59 -37.5 -85.5t-120.5 -41.5q-107 -16 -169.5 -82.5t-62.5 -179.5v-524q0 -71 -36.5 -109t-106.5 -38q-69 0 -106 38t-37 109v903q0 71 34.5 109.5t98.5 38.5q63 0 97.5 -37t37.5 -107q99 144 264 144z" />
    <glyph glyph-name="s" unicode="s" horiz-adv-x="1118" 
d="M549 -20q-148 0 -281 52.5t-188 143.5q-25 41 1.5 91.5t98.5 72.5q72 20 131 -31q96 -102 246 -102q100 0 161.5 36t61.5 95v6q0 51 -39 80.5t-101 41t-137.5 19t-151 23.5t-137.5 46t-101 94.5t-39 160.5v20q0 168 130.5 260.5t352.5 92.5q145 0 264 -48.5t170 -138.5
q13 -19 14 -42.5t-9 -46t-35 -42.5t-62 -30q-76 -23 -131 28q-93 107 -219 107q-92 0 -147.5 -35t-55.5 -92v-4q0 -39 24.5 -65t66 -39t95 -20.5t113 -14.5t118.5 -17t112.5 -31.5t95 -54t66 -89t24.5 -132.5v-23q0 -177 -138.5 -274.5t-373.5 -97.5z" />
    <glyph glyph-name="t" unicode="t" horiz-adv-x="798" 
d="M637 225q57 0 87 -29t30 -83t-30 -83.5t-87 -29.5h-78q-161 0 -258.5 86t-97.5 227v623h-72q-57 0 -88 29.5t-31 83.5t31 83t88 29h78v180q0 71 36 109.5t103 38.5q69 0 105 -38.5t36 -109.5v-180h168q57 0 87 -29t30 -83t-30 -83.5t-87 -29.5h-168v-606q0 -46 28 -75.5
t73 -29.5h47z" />
    <glyph glyph-name="u" unicode="u" horiz-adv-x="1232" 
d="M975 1180q69 0 106 -38.5t37 -109.5v-903q0 -71 -33 -109t-96 -38q-64 0 -99 36.5t-40 106.5q-120 -145 -326 -145q-188 0 -303 118.5t-115 311.5v622q0 71 37.5 109.5t106.5 38.5t106 -38.5t37 -109.5v-577q0 -102 60 -164t159 -62t159 62t60 164v577q0 71 37.5 109.5
t106.5 38.5z" />
    <glyph glyph-name="v" unicode="v" horiz-adv-x="1150" 
d="M991 1171q67 -20 91.5 -67t2.5 -115l-256 -786q-32 -102 -88.5 -157.5t-154.5 -55.5h-21q-98 0 -155.5 56t-87.5 157l-256 786q-22 67 3 114.5t93 67.5q68 19 114.5 -8t65.5 -96l233 -803l234 803q19 69 66 96t116 8z" />
    <glyph glyph-name="w" unicode="w" horiz-adv-x="1787" 
d="M1630 1174q66 -13 93 -59.5t10 -115.5l-220 -815q-51 -194 -221 -194h-14q-177 0 -221 194l-162 666l-164 -666q-44 -194 -221 -194h-14q-173 0 -224 194l-219 815q-17 69 11 115t94 60q66 15 110.5 -14t59.5 -99l184 -774l168 698q20 86 67 136t138 50h16
q92 0 138.5 -50t66.5 -136l170 -698l184 774q13 70 58 99t112 14z" />
    <glyph glyph-name="x" unicode="x" horiz-adv-x="1085" 
d="M1024 203q39 -58 24 -110t-75 -87q-62 -32 -106.5 -15t-88.5 79l-235 336l-240 -336q-85 -125 -190 -64q-62 35 -77.5 87t25.5 110l297 405l-276 350q-42 55 -28 109.5t73 89.5q36 24 70.5 20.5t62 -23.5t57.5 -60l226 -297l223 297q45 61 88 77.5t104 -14.5
q60 -34 73.5 -89t-27.5 -110l-277 -350z" />
    <glyph glyph-name="y" unicode="y" horiz-adv-x="1128" 
d="M979 1169q64 -22 86.5 -70t-0.5 -114l-385 -1065q-60 -167 -181 -262.5t-286 -95.5q-54 0 -84.5 31t-30.5 88q0 52 26 80t73 28q63 0 115.5 36.5t72.5 96.5l39 107l-358 956q-25 67 -3.5 115.5t87.5 68.5t113 -4t69 -90l243 -713l224 707q20 69 67 95.5t113 4.5z" />
    <glyph glyph-name="z" unicode="z" horiz-adv-x="1054" 
d="M885 225q57 0 88 -29t31 -83t-31 -83.5t-88 -29.5h-676q-74 0 -114 39t-40 111v4q0 84 56 145l546 641l-464 -2q-57 0 -87 28.5t-30 82.5t30.5 83t86.5 29h634q74 0 115 -38.5t41 -108.5v-6q0 -83 -57 -146l-545 -641z" />
    <glyph glyph-name="braceleft" unicode="{" horiz-adv-x="829" 
d="M676 -258q62 0 94.5 -33t32.5 -94q0 -63 -32 -97t-95 -34q-218 0 -348.5 113.5t-130.5 300.5v424q0 92 -93 151q-75 53 -75 133q0 78 75 131q93 59 93 154v450q0 186 131 299t348 113q60 0 93.5 -34t33.5 -97q0 -60 -33 -92.5t-94 -32.5q-82 0 -130 -49.5t-48 -130.5
v-422q0 -96 -50.5 -171t-142.5 -118q92 -43 142.5 -118.5t50.5 -172.5v-395q0 -81 49 -129.5t129 -48.5z" />
    <glyph glyph-name="bar" unicode="|" horiz-adv-x="561" 
d="M281 -438q-69 0 -106.5 39t-37.5 112v1782q0 73 37.5 112.5t106.5 39.5t106 -39.5t37 -112.5v-1782q0 -74 -36.5 -112.5t-106.5 -38.5z" />
    <glyph glyph-name="braceright" unicode="}" horiz-adv-x="829" 
d="M725 737q76 -54 76 -131q0 -79 -76 -133q-92 -58 -92 -151v-424q0 -187 -130.5 -300.5t-348.5 -113.5q-63 0 -95 34t-32 97q0 61 32.5 94t94.5 33q80 0 129 48.5t49 129.5v395q0 97 50 172.5t142 118.5q-91 43 -141.5 118t-50.5 171v422q0 81 -48 130.5t-130 49.5
q-61 0 -94 32.5t-33 92.5q0 63 33.5 97t93.5 34q217 0 348 -113t131 -299v-450q0 -96 92 -154z" />
    <glyph glyph-name="asciitilde" unicode="~" horiz-adv-x="1220" 
d="M262 483q-34 -36 -58.5 -42.5t-58.5 16.5q-73 54 -26 125q59 90 139.5 142t163.5 52q50 0 108 -23.5t101.5 -52t94 -52t87.5 -23.5q78 0 145 73q34 36 58 42t59 -17q33 -26 41 -57t-14 -66q-60 -91 -141 -142.5t-164 -51.5q-50 0 -108.5 23.5t-102.5 51t-95 51t-88 23.5
q-79 0 -141 -72z" />
    <glyph glyph-name="uni00A0" unicode="&#xa0;" horiz-adv-x="423" 
 />
    <glyph glyph-name="exclamdown" unicode="&#xa1;" horiz-adv-x="538" 
d="M268 858q-74 0 -114.5 39t-40.5 111v22q0 72 40.5 111t114.5 39q75 0 115.5 -39t40.5 -111v-22q0 -72 -40 -111t-116 -39zM268 -438q-69 0 -106 39t-37 112v826q0 72 37 110.5t106 38.5t107.5 -38.5t38.5 -110.5v-826q0 -73 -37.5 -112t-108.5 -39z" />
    <glyph glyph-name="cent" unicode="&#xa2;" horiz-adv-x="1177" 
d="M979 588q58 -19 77 -63t7 -89q-28 -85 -109.5 -139t-191.5 -74v-61q0 -72 -37 -111t-107 -39q-69 0 -106 39t-37 111v65q-180 40 -284.5 170t-104.5 316v198q0 188 104.5 317t284.5 169v71q0 73 37 112.5t106 39.5t106.5 -39.5t37.5 -112.5v-67q211 -43 287 -201
q8 -25 9.5 -55t-20 -60.5t-61.5 -44.5q-96 -29 -154 25q-82 100 -196 100t-184 -72t-70 -190v-184q0 -117 70 -187.5t186 -70.5q57 0 111.5 24.5t93.5 75.5q57 57 145 27z" />
    <glyph glyph-name="sterling" unicode="&#xa3;" horiz-adv-x="1474" 
d="M1286 258q65 0 99 -33t34 -96t-34 -96t-99 -33h-1089q-65 0 -99.5 33t-34.5 96t34.5 96t99.5 33h55v442h-55q-65 0 -99.5 33t-34.5 96q0 61 34.5 94t99.5 33h55v134q0 252 166 405.5t438 153.5q164 0 297.5 -65t192.5 -191q15 -34 15.5 -69t-25.5 -68t-74 -50
q-98 -33 -158 35q-104 143 -248 143q-137 0 -221 -86t-84 -225v-117h467q64 0 98.5 -32.5t34.5 -94.5q0 -63 -34 -96t-99 -33h-467v-442h735z" />
    <glyph glyph-name="currency" unicode="&#xa4;" horiz-adv-x="1441" 
d="M1180 483l108 -137q82 -109 -18 -180q-50 -37 -97.5 -30t-85.5 57l-100 129q-115 -56 -266 -56q-149 0 -264 56l-101 -129q-38 -50 -85 -57t-97 30q-99 73 -18 180l108 137q-84 122 -84 293v74q0 171 84 293l-108 137q-82 108 18 182q103 76 182 -26l101 -129
q115 53 264 53q151 0 264 -55l102 131q39 50 86 57t97 -31q100 -74 18 -180l-108 -139q84 -127 84 -293v-74q0 -166 -84 -293zM467 778q0 -119 69.5 -191.5t184.5 -72.5t185.5 72.5t70.5 191.5v70q0 119 -70.5 191.5t-185.5 72.5t-184.5 -72.5t-69.5 -191.5v-70z" />
    <glyph glyph-name="yen" unicode="&#xa5;" horiz-adv-x="1505" 
d="M1323 1622q62 -34 76.5 -84.5t-21.5 -112.5l-346 -567h187q102 0 102 -100q0 -47 -26.5 -73t-75.5 -26h-932q-49 0 -76 26t-27 73q0 100 103 100h186l-346 567q-37 62 -22 113t77 84q124 66 199 -59l373 -629l370 629q73 127 199 59zM1219 553q49 0 75.5 -25.5
t26.5 -72.5q0 -101 -102 -101h-316v-221q0 -73 -38.5 -112t-110.5 -39q-74 0 -113 39t-39 112v221h-315q-50 0 -76.5 26t-26.5 75q0 47 26.5 72.5t76.5 25.5h932z" />
    <glyph glyph-name="brokenbar" unicode="&#xa6;" horiz-adv-x="561" 
d="M281 821q-69 0 -106.5 39.5t-37.5 112.5v522q0 73 37.5 112.5t106.5 39.5t106 -39.5t37 -112.5v-522q0 -74 -36.5 -113t-106.5 -39zM281 -438q-69 0 -106.5 39t-37.5 112v584q0 73 37.5 112.5t106.5 39.5t106 -39.5t37 -112.5v-584q0 -74 -36.5 -112.5t-106.5 -38.5z" />
    <glyph glyph-name="section" unicode="&#xa7;" horiz-adv-x="1280" 
d="M1085 328q101 -126 101 -279v-26q0 -207 -152 -335t-401 -128q-162 0 -292 63t-198 189q-33 50 -12.5 110t88.5 84q23 8 44.5 9t37.5 -3t32.5 -14t27.5 -19t24 -22q61 -76 122 -111.5t132 -35.5q118 0 189 61t71 160v10q0 62 -25 117q-106 -41 -233 -41
q-235 0 -378.5 131t-143.5 346v22q0 152 76 267q-99 128 -99 276v27q0 208 151.5 335.5t401.5 127.5q160 0 297.5 -71.5t198.5 -195.5q15 -33 13.5 -66.5t-28 -65.5t-71.5 -48q-93 -34 -164 49q-105 148 -254 148q-117 0 -188.5 -61t-71.5 -160v-11q0 -61 25 -116
q104 43 235 43q235 0 377.5 -131.5t142.5 -346.5v-22q0 -151 -76 -266zM406 594q0 -109 64.5 -175.5t170.5 -66.5t169.5 66.5t63.5 175.5v22q0 109 -63.5 175.5t-169.5 66.5t-170.5 -66.5t-64.5 -175.5v-22z" />
    <glyph glyph-name="dieresis" unicode="&#xa8;" horiz-adv-x="899" 
d="M260 1352q-64 0 -98.5 33t-34.5 92v43q0 60 34.5 93.5t98.5 33.5q65 0 100 -33t35 -94v-43q0 -59 -35 -92t-100 -33zM639 1352q-64 0 -99.5 33t-35.5 92v43q0 60 35.5 93.5t99.5 33.5t99.5 -33.5t35.5 -93.5v-43q0 -59 -35 -92t-100 -33z" />
    <glyph glyph-name="copyright" unicode="&#xa9;" horiz-adv-x="2170" 
d="M1085 -207q-301 0 -530.5 114t-355 323t-125.5 483v202q0 274 125.5 483t355 323t530.5 114q226 0 414.5 -66.5t320 -186t204.5 -291t73 -376.5v-202q0 -205 -73 -376.5t-204.5 -291t-320 -186t-414.5 -66.5zM1085 57q321 0 517 185t196 487v170q0 302 -196 487t-517 185
t-516.5 -185t-195.5 -487v-170q0 -302 195.5 -487t516.5 -185zM1102 272q-235 0 -378.5 133t-143.5 351v116q0 218 143 351t377 133q141 0 254.5 -51.5t165.5 -161.5q8 -25 9 -55t-20.5 -60.5t-60.5 -44.5q-100 -33 -154 25q-75 98 -194 98q-104 0 -169 -66.5t-65 -175.5
v-100q0 -109 65 -175.5t171 -66.5q126 0 203 101q53 57 145 26q58 -19 77 -62.5t7 -88.5q-25 -76 -94.5 -128.5t-155.5 -75t-182 -22.5z" />
    <glyph glyph-name="ordfeminine" unicode="&#xaa;" horiz-adv-x="737" 
d="M350 1640q131 0 211 -62t80 -165v-369q0 -77 -76 -77q-72 0 -78 75v9q-73 -86 -206 -86q-95 0 -153 51.5t-58 136.5v37q0 79 59 127.5t154 48.5h192v29q0 53 -34 84.5t-91 31.5q-66 0 -112 -49q-32 -32 -82 -18q-35 9 -49 42.5t8 59.5q33 44 97 69t138 25zM330 1100
q66 0 105.5 33.5t39.5 87.5v30h-158q-37 0 -59 -19t-22 -50v-13q0 -31 25.5 -50t68.5 -19z" />
    <glyph glyph-name="guillemotleft" unicode="&#xab;" horiz-adv-x="1552" 
d="M672 381q115 -62 65 -162q-27 -48 -70.5 -57.5t-99.5 22.5l-413 238q-103 57 -103 168q0 110 103 170l413 235q117 68 170 -32q50 -100 -65 -162l-389 -211zM1372 381q114 -63 64 -162q-25 -48 -68.5 -57.5t-99.5 22.5l-414 238q-102 55 -102 168q0 112 102 170l414 235
q118 68 168 -32q50 -99 -64 -162l-391 -211z" />
    <glyph glyph-name="logicalnot" unicode="&#xac;" horiz-adv-x="1155" 
d="M956 702q64 0 99 -34t35 -97v-325q0 -71 -37 -108.5t-107 -37.5q-69 0 -106 38t-37 108v231h-627q-57 0 -88 29.5t-31 83.5t31 83t88 29h780z" />
    <glyph glyph-name="uni00AD" unicode="&#xad;" horiz-adv-x="815" 
d="M223 477q-57 0 -87 29.5t-30 83.5t30 83t87 29h369q57 0 87 -29t30 -83t-30 -83.5t-87 -29.5h-369z" />
    <glyph glyph-name="registered" unicode="&#xae;" horiz-adv-x="1032" 
d="M514 1765q201 0 325 -118.5t124 -311.5v-67q0 -193 -124 -311.5t-325 -118.5q-200 0 -322 118.5t-122 311.5v67q0 193 122 311.5t322 118.5zM848 1274v55q0 152 -91.5 245t-242.5 93q-149 0 -240.5 -93t-91.5 -245v-55q0 -152 91.5 -245t240.5 -93q151 0 242.5 93
t91.5 245zM573 1552q69 0 111.5 -37t42.5 -98v-16q0 -84 -78 -121l60 -137q25 -59 -27 -78q-23 -10 -44.5 -1t-31.5 36l-67 166h-93v-146q0 -61 -55 -61q-57 0 -57 61v371q0 61 61 61h178zM446 1456v-94h121q22 0 34.5 12.5t12.5 32.5v6q0 19 -13 31t-34 12h-121z" />
    <glyph glyph-name="macron" unicode="&#xaf;" horiz-adv-x="753" 
d="M164 1399q-51 0 -79 26.5t-28 75.5q0 47 28 74t79 27h426q50 0 77 -26.5t27 -74.5q0 -102 -104 -102h-426z" />
    <glyph glyph-name="degree" unicode="&#xb0;" horiz-adv-x="722" 
d="M360 1081q-135 0 -218 68t-83 180v72q0 112 83 180t218 68q137 0 219.5 -68t82.5 -180v-72q0 -112 -82.5 -180t-219.5 -68zM360 1233q57 0 92 28t35 74v60q0 46 -35 74t-92 28t-92 -28t-35 -74v-60q0 -46 35 -74t92 -28z" />
    <glyph glyph-name="plusminus" unicode="&#xb1;" horiz-adv-x="1155" 
d="M182 623q-56 0 -86 29.5t-30 84.5q0 54 30.5 83.5t85.5 29.5h252v143q0 69 37.5 107.5t106.5 38.5t106 -38.5t37 -107.5v-143h252q56 0 86.5 -29.5t30.5 -83.5q0 -55 -30.5 -84.5t-86.5 -29.5h-252v-142q0 -71 -36.5 -109t-106.5 -38q-69 0 -106.5 38.5t-37.5 108.5v142
h-252zM973 270q56 0 86.5 -28.5t30.5 -83.5q0 -54 -30.5 -83.5t-86.5 -29.5h-791q-55 0 -85.5 29.5t-30.5 83.5q0 55 30 83.5t86 28.5h791z" />
    <glyph glyph-name="acute" unicode="&#xb4;" horiz-adv-x="753" 
d="M236 1309q-109 -36 -136 34q-30 68 72 119l317 170q53 26 92.5 13.5t59.5 -60.5q19 -47 -0.5 -83.5t-73.5 -55.5z" />
    <glyph glyph-name="uni00B5" unicode="&#xb5;" horiz-adv-x="1257" 
d="M999 1180q69 0 106.5 -38.5t37.5 -109.5v-622q0 -193 -115 -311.5t-303 -118.5t-307 122v-393q0 -71 -37 -109t-107 -38q-69 0 -106 38t-37 109v1323q0 71 37 109.5t106 38.5t106.5 -38.5t37.5 -109.5v-577q0 -102 60 -164t159 -62t159 62t60 164v577q0 71 37 109.5
t106 38.5z" />
    <glyph glyph-name="paragraph" unicode="&#xb6;" horiz-adv-x="1382" 
d="M637 1647q89 0 136.5 -47t47.5 -132v-1771q0 -65 -34.5 -100t-100.5 -35q-64 0 -99.5 35t-35.5 100v1014h-41q-207 0 -335 117t-128 307v53q0 205 151 332t396 127h43zM1083 1647q65 0 100.5 -35.5t35.5 -100.5v-1814q0 -64 -35.5 -99.5t-100.5 -35.5q-66 0 -100.5 35
t-34.5 100v1814q0 65 34.5 100.5t100.5 35.5z" />
    <glyph glyph-name="periodcentered" unicode="&#xb7;" horiz-adv-x="503" 
d="M254 428q-75 0 -115.5 39t-40.5 111v22q0 73 40.5 111.5t115.5 38.5q74 0 114 -38.5t40 -111.5v-22q0 -72 -39.5 -111t-114.5 -39z" />
    <glyph glyph-name="cedilla" unicode="&#xb8;" horiz-adv-x="667" 
d="M403 -66q76 -22 119 -63t43 -94v-10q0 -85 -84.5 -136t-222.5 -51h-33q-44 0 -69 22t-25 62q0 41 23.5 60t72.5 24q56 3 56 37v4q0 17 -13 28t-41 21q-33 12 -41.5 24t-1.5 36l68 217l195 -64z" />
    <glyph glyph-name="ordmasculine" unicode="&#xba;" horiz-adv-x="741" 
d="M371 965q-136 0 -220.5 78t-84.5 204v111q0 127 84 204.5t221 77.5t221 -77.5t84 -204.5v-111q0 -126 -84.5 -204t-220.5 -78zM371 1110q63 0 101 39t38 104v99q0 66 -38 105.5t-101 39.5t-101.5 -39.5t-38.5 -105.5v-99q0 -64 38.5 -103.5t101.5 -39.5z" />
    <glyph glyph-name="guillemotright" unicode="&#xbb;" horiz-adv-x="1552" 
d="M698 760q103 -59 103 -170q0 -112 -103 -168l-413 -238q-56 -32 -99.5 -22.5t-68.5 57.5q-50 100 63 162l391 209l-391 211q-113 62 -63 162t168 32zM1399 760q102 -60 102 -170q0 -111 -102 -168l-414 -238q-56 -32 -99.5 -22.5t-70.5 57.5q-50 100 66 162l389 209
l-389 211q-116 62 -66 162q53 100 170 32z" />
    <glyph glyph-name="onequarter" unicode="&#xbc;" horiz-adv-x="1601" 
d="M317 915v478l-90 -76q-35 -29 -69 -26.5t-60 36.5q-58 67 13 129l155 129q51 43 127 43h6q63 0 97 -31.5t34 -89.5v-592q0 -108 -106 -108q-107 0 -107 108zM1212 1599q86 -51 35 -139l-805 -1390q-25 -43 -61 -54t-78 13q-86 51 -35 139l805 1393q25 43 61.5 53
t77.5 -15zM1534 213q0 -84 -86 -90v-23q0 -108 -107 -108q-104 0 -104 108v23h-260q-45 0 -69.5 30t-24.5 85v4q0 62 32 116l252 392q38 63 127 63h9q69 0 107 -36.5t38 -102.5v-369q41 -3 63.5 -27t22.5 -65zM1081 305h160l6 260z" />
    <glyph glyph-name="onehalf" unicode="&#xbd;" horiz-adv-x="1589" 
d="M317 915v478l-90 -76q-35 -29 -69 -26.5t-60 36.5q-58 67 13 129l155 129q51 43 127 43h6q63 0 97 -31.5t34 -89.5v-592q0 -108 -106 -108q-107 0 -107 108zM1212 1599q86 -51 35 -139l-805 -1390q-25 -43 -61 -54t-78 13q-86 51 -35 139l805 1393q25 43 61.5 53
t77.5 -15zM1415 178q94 0 94 -88q0 -43 -24.5 -66.5t-69.5 -23.5h-422q-51 0 -79.5 27.5t-28.5 76.5v7q0 72 67 116q189 128 268.5 201t79.5 125v4q0 38 -28 62t-74 24q-58 0 -117 -51q-47 -35 -110 -4q-45 24 -58 55t11 62q86 120 278 120q138 0 221.5 -71.5t83.5 -188.5
v-12q0 -68 -39.5 -130.5t-105 -117.5t-178.5 -129z" />
    <glyph glyph-name="threequarters" unicode="&#xbe;" horiz-adv-x="1648" 
d="M696 1049q0 -110 -86 -177t-227 -67q-207 0 -289 131q-16 28 1 62.5t65 52.5q73 21 104 -13q53 -53 113 -53q47 0 76.5 20.5t29.5 51.5v8q0 33 -25 53.5t-67 20.5h-4q-40 0 -61 24t-21 68q0 41 20.5 64.5t55.5 23.5h2q40 0 64 18t24 47v9q0 30 -26 47.5t-68 17.5
q-56 0 -103 -39q-49 -31 -110 -6q-44 19 -57.5 52.5t8.5 62.5q76 112 266 112q136 0 219.5 -65t83.5 -172v-19q0 -101 -111 -153q59 -25 91 -68t32 -98v-16zM1274 1599q86 -51 35 -139l-805 -1390q-25 -43 -61 -54t-78 13q-86 51 -35 139l805 1393q25 43 61.5 53t77.5 -15z
M1593 213q0 -84 -86 -90v-23q0 -108 -106 -108q-105 0 -105 108v23h-260q-45 0 -69.5 30t-24.5 85v4q0 60 33 116l252 392q38 63 127 63h8q69 0 107 -36.5t38 -102.5v-369q41 -3 63.5 -27t22.5 -65zM1141 305h159l7 260z" />
    <glyph glyph-name="questiondown" unicode="&#xbf;" horiz-adv-x="1075" 
d="M741 858q-75 0 -115 39t-40 111v22q0 72 40 111t115 39q74 0 115 -39t41 -111v-22q0 -72 -40.5 -111t-115.5 -39zM887 -162q65 0 99 -33t34 -96t-34 -96t-99 -33h-355q-217 0 -349 121.5t-132 321.5v36q0 192 132 310t349 118h64v52q0 72 38 110.5t107 38.5t106.5 -38.5
t37.5 -110.5v-148q0 -63 -34.5 -97t-98.5 -34h-203q-89 0 -144 -56t-55 -147v-18q0 -91 55 -146t144 -55h338z" />
    <glyph glyph-name="Agrave" unicode="&#xc0;" horiz-adv-x="1503" 
d="M541 1825q-57 13 -79 48.5t-7 86.5q15 49 53 64t92 -7l338 -129q106 -42 82 -112q-22 -73 -135 -45zM1442 176q22 -70 -3 -118t-93 -68q-69 -19 -117 7t-68 95l-78 238h-663l-76 -238q-44 -140 -184 -102q-68 21 -94 68.5t-3 117.5l426 1288q26 84 89.5 129t158.5 45h31
q95 0 158.5 -45t89.5 -129zM504 588h497l-249 768z" />
    <glyph glyph-name="Aacute" unicode="&#xc1;" horiz-adv-x="1503" 
d="M616 1731q-111 -28 -133 45q-12 34 9.5 63t72.5 49l336 129q55 22 94 7t52 -64q31 -107 -86 -135zM1442 176q22 -70 -3 -118t-93 -68q-69 -19 -117 7t-68 95l-78 238h-663l-76 -238q-44 -140 -184 -102q-68 21 -94 68.5t-3 117.5l426 1288q26 84 89.5 129t158.5 45h31
q95 0 158.5 -45t89.5 -129zM504 588h497l-249 768z" />
    <glyph glyph-name="Acircumflex" unicode="&#xc2;" horiz-adv-x="1503" 
d="M547 1729q-65 -41 -107 16q-46 63 13 113l241 210q26 23 58 23q31 0 57 -23l240 -210q61 -49 16 -109t-109 -20l-204 139zM1442 176q22 -70 -3 -118t-93 -68q-69 -19 -117 7t-68 95l-78 238h-663l-76 -238q-44 -140 -184 -102q-68 21 -94 68.5t-3 117.5l426 1288
q26 84 89.5 129t158.5 45h31q95 0 158.5 -45t89.5 -129zM504 588h497l-249 768z" />
    <glyph glyph-name="Atilde" unicode="&#xc3;" horiz-adv-x="1503" 
d="M426 1772q-34 23 -42 52t17 62q99 127 228 127q52 0 135.5 -37t124.5 -37q40 0 78 23q24 15 39.5 21.5t33 5t35.5 -14.5q34 -23 41 -52t-16 -62q-46 -59 -106 -93t-124 -34q-51 0 -135 36.5t-127 36.5q-46 0 -82 -26q-30 -22 -50 -24.5t-50 16.5zM1442 176
q22 -70 -3 -118t-93 -68q-69 -19 -117 7t-68 95l-78 238h-663l-76 -238q-44 -140 -184 -102q-68 21 -94 68.5t-3 117.5l426 1288q26 84 89.5 129t158.5 45h31q95 0 158.5 -45t89.5 -129zM504 588h497l-249 768z" />
    <glyph glyph-name="Adieresis" unicode="&#xc4;" horiz-adv-x="1503" 
d="M561 1737q-64 0 -98.5 33.5t-34.5 93.5v43q0 60 34.5 92.5t98.5 32.5q66 0 100.5 -32.5t34.5 -92.5v-43q0 -61 -35 -94t-100 -33zM940 1737q-64 0 -99.5 33.5t-35.5 93.5v43q0 60 35 92.5t100 32.5t100 -32.5t35 -92.5v-43q0 -61 -35 -94t-100 -33zM1442 176
q22 -70 -3 -118t-93 -68q-69 -19 -117 7t-68 95l-78 238h-663l-76 -238q-44 -140 -184 -102q-68 21 -94 68.5t-3 117.5l426 1288q26 84 89.5 129t158.5 45h31q95 0 158.5 -45t89.5 -129zM504 588h497l-249 768z" />
    <glyph glyph-name="Aring" unicode="&#xc5;" horiz-adv-x="1503" 
d="M752 1704q-126 0 -202.5 60.5t-76.5 160.5v33q0 100 76.5 160.5t202.5 60.5q127 0 202.5 -60.5t75.5 -160.5v-33q0 -100 -75.5 -160.5t-202.5 -60.5zM647 1952v-21q0 -34 29 -56t76 -22t76.5 22t29.5 56v21q0 35 -29.5 56.5t-76.5 21.5t-76 -21.5t-29 -56.5zM1442 176
q22 -70 -3 -118t-93 -68q-69 -19 -117 7t-68 95l-78 238h-663l-76 -238q-44 -140 -184 -102q-68 21 -94 68.5t-3 117.5l426 1288q26 84 89.5 129t158.5 45h31q95 0 158.5 -45t89.5 -129zM504 588h497l-249 768z" />
    <glyph glyph-name="AE" unicode="&#xc6;" horiz-adv-x="2127" 
d="M1927 258q65 0 99 -33t34 -96t-34 -96t-99 -33h-710q-61 0 -98 31t-44 92l-33 207h-616l-113 -250q-56 -136 -188 -82q-63 25 -82 73.5t10 114.5l606 1311q27 61 87 96t143 35h1018q65 0 99 -33t34 -96t-34 -96t-99 -33h-731l67 -414h623q72 0 102.5 -31.5t30.5 -95.5
q0 -66 -30 -97.5t-103 -31.5h-582l72 -442h571zM541 588h460l-120 758z" />
    <glyph glyph-name="Ccedilla" unicode="&#xc7;" horiz-adv-x="1419" 
d="M1260 455q43 -18 67 -50t24 -60.5t-8 -51.5q-61 -132 -185.5 -209.5t-285.5 -97.5l-20 -52q76 -22 119 -63t43 -94v-10q0 -85 -84.5 -136t-222.5 -51h-33q-44 0 -69 22t-25 62q0 41 23.5 60t72.5 24q55 3 55 37v4q0 18 -13 28.5t-40 20.5q-33 12 -41.5 24t-1.5 36l27 88
q-264 31 -420 200.5t-156 429.5v390q0 290 187 466.5t495 176.5q177 0 327.5 -74t225.5 -207q13 -29 15.5 -63.5t-20 -70.5t-65.5 -52q-40 -16 -76 -12t-59.5 16.5t-40.5 32.5q-66 84 -146.5 124.5t-160.5 40.5q-172 0 -277.5 -108.5t-105.5 -286.5v-356q0 -175 106 -282
t279 -107q95 0 176.5 45.5t138.5 126.5q68 82 175 39z" />
    <glyph glyph-name="Egrave" unicode="&#xc8;" horiz-adv-x="1347" 
d="M494 1825q-57 13 -79 48.5t-7 86.5q15 49 53 64t92 -7l338 -129q106 -42 82 -112q-22 -73 -135 -45zM1149 258q63 0 97 -33t34 -96t-34 -96t-97 -33h-877q-64 0 -98.5 34t-34.5 99v1362q0 65 34.5 99t98.5 34h856q63 0 97.5 -33t34.5 -96t-34.5 -96t-97.5 -33h-690v-414
h649q63 0 97.5 -33t34.5 -94q0 -63 -34.5 -96t-97.5 -33h-649v-442h711z" />
    <glyph glyph-name="Eacute" unicode="&#xc9;" horiz-adv-x="1347" 
d="M569 1731q-111 -28 -133 45q-12 34 9.5 63t72.5 49l336 129q55 22 93.5 7t51.5 -64q31 -107 -86 -135zM1149 258q63 0 97 -33t34 -96t-34 -96t-97 -33h-877q-64 0 -98.5 34t-34.5 99v1362q0 65 34.5 99t98.5 34h856q63 0 97.5 -33t34.5 -96t-34.5 -96t-97.5 -33h-690
v-414h649q63 0 97.5 -33t34.5 -94q0 -63 -34.5 -96t-97.5 -33h-649v-442h711z" />
    <glyph glyph-name="Ecircumflex" unicode="&#xca;" horiz-adv-x="1347" 
d="M500 1729q-65 -41 -107 16q-46 63 13 113l241 210q26 23 58 23q31 0 57 -23l239 -210q61 -49 17 -109q-45 -60 -109 -20l-204 139zM1149 258q63 0 97 -33t34 -96t-34 -96t-97 -33h-877q-64 0 -98.5 34t-34.5 99v1362q0 65 34.5 99t98.5 34h856q63 0 97.5 -33t34.5 -96
t-34.5 -96t-97.5 -33h-690v-414h649q63 0 97.5 -33t34.5 -94q0 -63 -34.5 -96t-97.5 -33h-649v-442h711z" />
    <glyph glyph-name="Edieresis" unicode="&#xcb;" horiz-adv-x="1347" 
d="M514 1737q-64 0 -98.5 33.5t-34.5 93.5v43q0 60 34.5 92.5t98.5 32.5q66 0 100.5 -32.5t34.5 -92.5v-43q0 -61 -35 -94t-100 -33zM893 1737q-64 0 -99.5 33.5t-35.5 93.5v43q0 60 35 92.5t100 32.5t100 -32.5t35 -92.5v-43q0 -61 -35 -94t-100 -33zM1149 258q63 0 97 -33
t34 -96t-34 -96t-97 -33h-877q-64 0 -98.5 34t-34.5 99v1362q0 65 34.5 99t98.5 34h856q63 0 97.5 -33t34.5 -96t-34.5 -96t-97.5 -33h-690v-414h649q63 0 97.5 -33t34.5 -94q0 -63 -34.5 -96t-97.5 -33h-649v-442h711z" />
    <glyph glyph-name="Igrave" unicode="&#xcc;" horiz-adv-x="577" 
d="M502 1774q-25 -73 -135 -45l-246 63q-56 12 -78.5 47.5t-7.5 85.5q15 51 53 65t92 -10l240 -94q104 -43 82 -112zM289 -18q-72 0 -111 38t-39 109v1366q0 73 39 112.5t111 39.5t110.5 -39.5t38.5 -112.5v-1366q0 -71 -38.5 -109t-110.5 -38z" />
    <glyph glyph-name="Iacute" unicode="&#xcd;" horiz-adv-x="577" 
d="M213 1729q-112 -27 -133 45q-24 68 80 112l239 94q54 24 92.5 10t53.5 -65t-7.5 -86t-78.5 -47zM289 -18q-72 0 -111 38t-39 109v1366q0 73 39 112.5t111 39.5t110.5 -39.5t38.5 -112.5v-1366q0 -71 -38.5 -109t-110.5 -38z" />
    <glyph glyph-name="Icircumflex" unicode="&#xce;" horiz-adv-x="577" 
d="M154 1743q-69 -50 -113 6q-52 63 6 121l178 188q31 31 64 31q30 0 61 -31l180 -188q57 -57 15 -111q-53 -66 -121 -16l-135 117zM289 -18q-72 0 -111 38t-39 109v1366q0 73 39 112.5t111 39.5t110.5 -39.5t38.5 -112.5v-1366q0 -71 -38.5 -109t-110.5 -38z" />
    <glyph glyph-name="Idieresis" unicode="&#xcf;" horiz-adv-x="577" 
d="M154 1737q-50 0 -77.5 27t-27.5 75v92q0 48 27 74.5t78 26.5q50 0 77 -26.5t27 -74.5v-92q0 -48 -26.5 -75t-77.5 -27zM426 1737q-50 0 -77 27t-27 75v92q0 48 27 74.5t77 26.5q51 0 78.5 -26.5t27.5 -74.5v-92q0 -48 -27 -75t-79 -27zM289 -18q-72 0 -111 38t-39 109
v1366q0 73 39 112.5t111 39.5t110.5 -39.5t38.5 -112.5v-1366q0 -71 -38.5 -109t-110.5 -38z" />
    <glyph glyph-name="Eth" unicode="&#xd0;" horiz-adv-x="1538" 
d="M788 1628q299 0 482.5 -174.5t183.5 -458.5v-362q0 -284 -183.5 -458.5t-482.5 -174.5h-483q-65 0 -99 34t-34 99v580h-27q-56 0 -86 29.5t-30 84.5q0 54 30.5 83.5t85.5 29.5h27v555q0 65 34 99t99 34h483zM1153 649v330q0 177 -104.5 284t-276.5 107h-301v-430h223
q56 0 86.5 -29.5t30.5 -83.5q0 -55 -30.5 -84.5t-86.5 -29.5h-223v-455h301q172 0 276.5 107t104.5 284z" />
    <glyph glyph-name="Ntilde" unicode="&#xd1;" horiz-adv-x="1570" 
d="M461 1772q-34 23 -42 52t17 62q99 127 228 127q52 0 135.5 -37t124.5 -37q39 0 77 23q24 15 39.5 21.5t33.5 5t36 -14.5q34 -23 41 -52t-16 -62q-46 -59 -106 -93t-124 -34q-51 0 -135 36.5t-127 36.5q-46 0 -82 -26q-30 -22 -50 -24.5t-50 16.5zM1284 1647
q71 0 109.5 -39.5t38.5 -112.5v-1311q0 -94 -50.5 -144t-144.5 -50h-20q-122 0 -173 92l-622 1102l10 -1051q1 -73 -36 -112t-109 -39q-71 0 -109.5 39t-38.5 112v1311q0 94 50.5 144t144.5 50h20q121 0 172 -92l623 -1104l-12 1053q-1 73 37 112.5t110 39.5z" />
    <glyph glyph-name="Ograve" unicode="&#xd2;" horiz-adv-x="1552" 
d="M1044 1776q-22 -73 -135 -45l-344 94q-57 13 -79 48.5t-7 86.5q15 49 53.5 64t92.5 -7l338 -129q105 -42 81 -112zM776 -20q-312 0 -501 176t-189 465v387q0 289 189 465t501 176q154 0 282.5 -46.5t218 -129.5t139.5 -202.5t50 -262.5v-387q0 -143 -50 -262.5
t-139.5 -202.5t-218 -129.5t-282.5 -46.5zM776 244q177 0 284 108t107 285v354q0 177 -107 285t-284 108t-284 -108t-107 -285v-354q0 -177 107 -285t284 -108z" />
    <glyph glyph-name="Oacute" unicode="&#xd3;" horiz-adv-x="1552" 
d="M641 1731q-111 -28 -133 45q-12 34 9.5 63t72.5 49l336 129q55 22 93.5 7t51.5 -64q31 -107 -86 -135zM776 -20q-312 0 -501 176t-189 465v387q0 289 189 465t501 176q154 0 282.5 -46.5t218 -129.5t139.5 -202.5t50 -262.5v-387q0 -143 -50 -262.5t-139.5 -202.5
t-218 -129.5t-282.5 -46.5zM776 244q177 0 284 108t107 285v354q0 177 -107 285t-284 108t-284 -108t-107 -285v-354q0 -177 107 -285t284 -108z" />
    <glyph glyph-name="Ocircumflex" unicode="&#xd4;" horiz-adv-x="1552" 
d="M465 1745q-46 64 12 113l242 210q26 23 57 23q32 0 58 -23l239 -210q61 -49 17 -109q-45 -60 -109 -20l-205 139l-205 -139q-65 -41 -106 16zM776 -20q-312 0 -501 176t-189 465v387q0 289 189 465t501 176q154 0 282.5 -46.5t218 -129.5t139.5 -202.5t50 -262.5v-387
q0 -143 -50 -262.5t-139.5 -202.5t-218 -129.5t-282.5 -46.5zM776 244q177 0 284 108t107 285v354q0 177 -107 285t-284 108t-284 -108t-107 -285v-354q0 -177 107 -285t284 -108z" />
    <glyph glyph-name="Otilde" unicode="&#xd5;" horiz-adv-x="1552" 
d="M551 1780q-30 -22 -50 -24.5t-50 16.5q-34 23 -42 52t17 62q99 127 227 127q52 0 135.5 -37t124.5 -37q40 0 78 23q24 15 39.5 21.5t33.5 5t36 -14.5q33 -23 40.5 -52t-16.5 -62q-99 -127 -229 -127q-52 0 -136 36.5t-126 36.5q-46 0 -82 -26zM776 -20q-312 0 -501 176
t-189 465v387q0 289 189 465t501 176q154 0 282.5 -46.5t218 -129.5t139.5 -202.5t50 -262.5v-387q0 -143 -50 -262.5t-139.5 -202.5t-218 -129.5t-282.5 -46.5zM776 244q177 0 284 108t107 285v354q0 177 -107 285t-284 108t-284 -108t-107 -285v-354q0 -177 107 -285
t284 -108z" />
    <glyph glyph-name="Odieresis" unicode="&#xd6;" horiz-adv-x="1552" 
d="M586 1737q-64 0 -98.5 33.5t-34.5 93.5v43q0 60 34.5 92.5t98.5 32.5q66 0 100.5 -32.5t34.5 -92.5v-43q0 -61 -35 -94t-100 -33zM965 1737q-64 0 -100 33.5t-36 93.5v43q0 60 35.5 92.5t100.5 32.5t100 -32.5t35 -92.5v-43q0 -61 -35 -94t-100 -33zM776 -20
q-312 0 -501 176t-189 465v387q0 289 189 465t501 176q154 0 282.5 -46.5t218 -129.5t139.5 -202.5t50 -262.5v-387q0 -143 -50 -262.5t-139.5 -202.5t-218 -129.5t-282.5 -46.5zM776 244q177 0 284 108t107 285v354q0 177 -107 285t-284 108t-284 -108t-107 -285v-354
q0 -177 107 -285t284 -108z" />
    <glyph glyph-name="multiply" unicode="&#xd7;" horiz-adv-x="1155" 
d="M969 369q43 -41 43 -86t-41 -86q-40 -41 -85.5 -41t-86.5 43l-221 221l-222 -221q-41 -43 -86.5 -43t-85.5 41q-41 41 -41 86t43 86l222 221l-222 221q-43 41 -43 87t41 87q39 40 85 39t87 -43l222 -221l221 221q41 42 87 43t85 -39q41 -41 41 -87t-43 -87l-221 -221z
" />
    <glyph glyph-name="Oslash" unicode="&#xd8;" horiz-adv-x="1566" 
d="M1440 1403l-51 -62q84 -149 84 -333v-387q0 -190 -86 -336t-243 -225.5t-362 -79.5q-253 0 -428 118l-30 -37q-84 -101 -183 -18q-98 83 -14 184l49 60q-84 149 -84 334v387q0 289 189 465t501 176q255 0 430 -121l33 39q42 50 88 55.5t94 -35.5q47 -41 50.5 -89
t-37.5 -95zM391 637q0 -43 6 -84l633 756q-101 75 -248 75q-177 0 -284 -108t-107 -285v-354zM1174 991q0 37 -7 84l-630 -758q103 -73 245 -73q177 0 284.5 108t107.5 285v354z" />
    <glyph glyph-name="Ugrave" unicode="&#xd9;" horiz-adv-x="1509" 
d="M1024 1776q-22 -73 -135 -45l-344 94q-57 13 -79 48.5t-7 86.5q15 49 53 64t92 -7l338 -129q106 -42 82 -112zM756 -20q-283 0 -456 159t-173 420v936q0 73 38.5 112.5t110.5 39.5t111 -39.5t39 -112.5v-920q0 -150 91 -240.5t239 -90.5t236.5 90t88.5 241v920
q0 73 39.5 112.5t112.5 39.5q72 0 110.5 -39.5t38.5 -112.5v-936q0 -261 -171.5 -420t-454.5 -159z" />
    <glyph glyph-name="Uacute" unicode="&#xda;" horiz-adv-x="1509" 
d="M621 1731q-112 -28 -134 45q-12 34 9.5 63t72.5 49l336 129q55 22 94 7t52 -64q31 -107 -86 -135zM756 -20q-283 0 -456 159t-173 420v936q0 73 38.5 112.5t110.5 39.5t111 -39.5t39 -112.5v-920q0 -150 91 -240.5t239 -90.5t236.5 90t88.5 241v920q0 73 39.5 112.5
t112.5 39.5q72 0 110.5 -39.5t38.5 -112.5v-936q0 -261 -171.5 -420t-454.5 -159z" />
    <glyph glyph-name="Ucircumflex" unicode="&#xdb;" horiz-adv-x="1509" 
d="M444 1745q-46 63 13 113l241 210q26 23 58 23q31 0 57 -23l240 -210q61 -49 16 -109t-108 -20l-205 139l-205 -139q-65 -41 -107 16zM756 -20q-283 0 -456 159t-173 420v936q0 73 38.5 112.5t110.5 39.5t111 -39.5t39 -112.5v-920q0 -150 91 -240.5t239 -90.5t236.5 90
t88.5 241v920q0 73 39.5 112.5t112.5 39.5q72 0 110.5 -39.5t38.5 -112.5v-936q0 -261 -171.5 -420t-454.5 -159z" />
    <glyph glyph-name="Udieresis" unicode="&#xdc;" horiz-adv-x="1509" 
d="M565 1737q-64 0 -98.5 33.5t-34.5 93.5v43q0 60 34.5 92.5t98.5 32.5q66 0 100.5 -32.5t34.5 -92.5v-43q0 -61 -35 -94t-100 -33zM944 1737q-64 0 -99.5 33.5t-35.5 93.5v43q0 60 35 92.5t100 32.5t100 -32.5t35 -92.5v-43q0 -61 -35 -94t-100 -33zM756 -20
q-283 0 -456 159t-173 420v936q0 73 38.5 112.5t110.5 39.5t111 -39.5t39 -112.5v-920q0 -150 91 -240.5t239 -90.5t236.5 90t88.5 241v920q0 73 39.5 112.5t112.5 39.5q72 0 110.5 -39.5t38.5 -112.5v-936q0 -261 -171.5 -420t-454.5 -159z" />
    <glyph glyph-name="Yacute" unicode="&#xdd;" horiz-adv-x="1439" 
d="M586 1731q-111 -28 -133 45q-12 34 9.5 63t72.5 49l335 129q55 22 94 7t52 -64q31 -107 -86 -135zM1290 1622q62 -34 77 -84.5t-21 -112.5l-476 -778v-514q0 -73 -38.5 -112t-110.5 -39q-73 0 -111.5 38.5t-38.5 112.5v510l-477 782q-36 62 -21 113t77 84q126 67 198 -59
l373 -629l371 629q35 62 85.5 77t112.5 -18z" />
    <glyph glyph-name="Thorn" unicode="&#xde;" horiz-adv-x="1462" 
d="M922 1290q217 0 350 -122t133 -320v-51q0 -200 -133 -322.5t-350 -122.5h-484v-219q0 -73 -38.5 -112t-110.5 -39t-111 39t-39 112v1362q0 73 39 112.5t111 39.5t110.5 -39.5t38.5 -112.5v-205h484zM1106 813v18q0 90 -55.5 145.5t-145.5 55.5h-467v-422h467
q90 0 145.5 55.5t55.5 147.5z" />
    <glyph glyph-name="germandbls" unicode="&#xdf;" horiz-adv-x="1280" 
d="M938 844q132 -42 206.5 -128.5t74.5 -203.5v-98q0 -186 -137 -300t-361 -114h-55q-60 0 -92.5 29.5t-32.5 83.5t30.5 83t87.5 29h46q101 0 164 56.5t63 148.5v82q0 92 -62.5 147.5t-164.5 55.5h-21q-56 0 -86.5 29.5t-30.5 84.5q0 54 30 83.5t87 29.5q85 0 135.5 52.5
t50.5 140.5v73q0 86 -64.5 138.5t-170.5 52.5q-105 0 -169.5 -57.5t-64.5 -153.5v-1059q0 -71 -36.5 -109t-106.5 -38q-69 0 -106 38t-37 109v1075q0 201 143 323t377 122q235 0 378.5 -116.5t143.5 -307.5v-90q0 -97 -57.5 -172.5t-161.5 -118.5z" />
    <glyph glyph-name="agrave" unicode="&#xe0;" horiz-adv-x="1185" 
d="M379 1446q-54 19 -72.5 55.5t0.5 83.5q21 48 59 61t91 -14l317 -170q102 -49 74 -119q-27 -70 -137 -34zM575 1182q226 0 365 -110.5t139 -293.5v-649q0 -71 -33 -109t-96 -38q-64 0 -99 37.5t-40 107.5v12q-134 -159 -377 -159q-168 0 -270.5 90.5t-102.5 240.5v68
q0 139 104.5 224t276.5 85h351v70q0 92 -60.5 148.5t-157.5 56.5q-124 0 -217 -101q-55 -51 -131 -28q-36 11 -60.5 31t-34.5 42.5t-9.5 45.5t12.5 42q52 90 173 138.5t267 48.5zM522 207q121 0 196 62.5t75 164.5v58h-285q-71 0 -115.5 -34t-44.5 -91v-23q0 -63 48 -100
t126 -37z" />
    <glyph glyph-name="aacute" unicode="&#xe1;" horiz-adv-x="1185" 
d="M455 1309q-109 -36 -136 34q-30 68 72 119l318 170q53 26 92 13.5t59 -60.5q19 -47 -0.5 -83.5t-73.5 -55.5zM575 1182q226 0 365 -110.5t139 -293.5v-649q0 -71 -33 -109t-96 -38q-64 0 -99 37.5t-40 107.5v12q-134 -159 -377 -159q-168 0 -270.5 90.5t-102.5 240.5v68
q0 139 104.5 224t276.5 85h351v70q0 92 -60.5 148.5t-157.5 56.5q-124 0 -217 -101q-55 -51 -131 -28q-36 11 -60.5 31t-34.5 42.5t-9.5 45.5t12.5 42q52 90 173 138.5t267 48.5zM522 207q121 0 196 62.5t75 164.5v58h-285q-71 0 -115.5 -34t-44.5 -91v-23q0 -63 48 -100
t126 -37z" />
    <glyph glyph-name="acircumflex" unicode="&#xe2;" horiz-adv-x="1185" 
d="M379 1305q-65 -41 -107 16q-46 60 13 113l241 208q25 25 58 25q32 0 57 -25l240 -208q59 -51 16 -109q-43 -61 -109 -20l-204 139zM575 1182q226 0 365 -110.5t139 -293.5v-649q0 -71 -33 -109t-96 -38q-64 0 -99 37.5t-40 107.5v12q-134 -159 -377 -159
q-168 0 -270.5 90.5t-102.5 240.5v68q0 139 104.5 224t276.5 85h351v70q0 92 -60.5 148.5t-157.5 56.5q-124 0 -217 -101q-55 -51 -131 -28q-36 11 -60.5 31t-34.5 42.5t-9.5 45.5t12.5 42q52 90 173 138.5t267 48.5zM522 207q121 0 196 62.5t75 164.5v58h-285
q-71 0 -115.5 -34t-44.5 -91v-23q0 -63 48 -100t126 -37z" />
    <glyph glyph-name="atilde" unicode="&#xe3;" horiz-adv-x="1185" 
d="M258 1384q-34 23 -42 52.5t17 62.5q99 127 228 127q52 0 135.5 -37t124.5 -37q42 0 78 25q25 14 40 20t32.5 5t35.5 -13q72 -52 25 -116q-105 -127 -230 -127q-52 0 -136 36.5t-126 36.5q-46 0 -82 -26q-30 -20 -50 -23t-50 14zM575 1182q226 0 365 -110.5t139 -293.5
v-649q0 -71 -33 -109t-96 -38q-64 0 -99 37.5t-40 107.5v12q-134 -159 -377 -159q-168 0 -270.5 90.5t-102.5 240.5v68q0 139 104.5 224t276.5 85h351v70q0 92 -60.5 148.5t-157.5 56.5q-124 0 -217 -101q-55 -51 -131 -28q-36 11 -60.5 31t-34.5 42.5t-9.5 45.5t12.5 42
q52 90 173 138.5t267 48.5zM522 207q121 0 196 62.5t75 164.5v58h-285q-71 0 -115.5 -34t-44.5 -91v-23q0 -63 48 -100t126 -37z" />
    <glyph glyph-name="adieresis" unicode="&#xe4;" horiz-adv-x="1185" 
d="M393 1352q-64 0 -98.5 33t-34.5 92v43q0 60 34.5 93.5t98.5 33.5q65 0 100 -33t35 -94v-43q0 -59 -35 -92t-100 -33zM772 1352q-64 0 -99.5 33t-35.5 92v43q0 60 35.5 93.5t99.5 33.5t99.5 -33.5t35.5 -93.5v-43q0 -59 -35 -92t-100 -33zM575 1182q226 0 365 -110.5
t139 -293.5v-649q0 -71 -33 -109t-96 -38q-64 0 -99 37.5t-40 107.5v12q-134 -159 -377 -159q-168 0 -270.5 90.5t-102.5 240.5v68q0 139 104.5 224t276.5 85h351v70q0 92 -60.5 148.5t-157.5 56.5q-124 0 -217 -101q-55 -51 -131 -28q-36 11 -60.5 31t-34.5 42.5t-9.5 45.5
t12.5 42q52 90 173 138.5t267 48.5zM522 207q121 0 196 62.5t75 164.5v58h-285q-71 0 -115.5 -34t-44.5 -91v-23q0 -63 48 -100t126 -37z" />
    <glyph glyph-name="aring" unicode="&#xe5;" horiz-adv-x="1185" 
d="M584 1217q-126 0 -202.5 61t-76.5 162v30q0 100 76.5 161t202.5 61q127 0 202.5 -61t75.5 -161v-30q0 -101 -75.5 -162t-202.5 -61zM479 1464v-18q0 -35 29 -56.5t76 -21.5t76.5 21.5t29.5 56.5v18q0 35 -29.5 56.5t-76.5 21.5t-76 -21.5t-29 -56.5zM575 1182
q226 0 365 -110.5t139 -293.5v-649q0 -71 -33 -109t-96 -38q-64 0 -99 37.5t-40 107.5v12q-134 -159 -377 -159q-168 0 -270.5 90.5t-102.5 240.5v68q0 139 104.5 224t276.5 85h351v70q0 92 -60.5 148.5t-157.5 56.5q-124 0 -217 -101q-55 -51 -131 -28q-36 11 -60.5 31
t-34.5 42.5t-9.5 45.5t12.5 42q52 90 173 138.5t267 48.5zM522 207q121 0 196 62.5t75 164.5v58h-285q-71 0 -115.5 -34t-44.5 -91v-23q0 -63 48 -100t126 -37z" />
    <glyph glyph-name="ae" unicode="&#xe6;" horiz-adv-x="1916" 
d="M1339 1182q230 0 371 -137t141 -361v-74q0 -57 -30.5 -87.5t-87.5 -30.5h-654v-21q0 -123 68.5 -197.5t181.5 -74.5q138 0 236 110q52 52 131 31q36 -11 60.5 -31.5t34.5 -43.5t9.5 -46.5t-12.5 -42.5q-54 -92 -177 -144t-265 -52q-140 0 -247.5 63t-164.5 176
q-64 -113 -184.5 -176t-280.5 -63q-184 0 -296 90.5t-112 240.5v68q0 139 104.5 224t276.5 85h351v70q0 92 -60.5 148.5t-157.5 56.5q-124 0 -217 -101q-55 -51 -131 -28q-36 10 -60.5 30t-34.5 42.5t-9.5 46t12.5 42.5q52 90 173 138.5t267 48.5q131 0 229 -55t146 -152
q61 99 161 153t228 54zM1565 688v2q0 123 -67.5 198t-176.5 75t-175.5 -75t-66.5 -198v-2h486zM793 449v43h-285q-71 0 -115.5 -34t-44.5 -91v-23q0 -63 48 -100t128 -37q120 0 194.5 66.5t74.5 175.5z" />
    <glyph glyph-name="ccedilla" unicode="&#xe7;" horiz-adv-x="1124" 
d="M961 356q58 -19 76.5 -62.5t6.5 -88.5q-29 -91 -119 -145.5t-212 -73.5l-21 -52q76 -22 119 -63t43 -94v-10q0 -85 -84.5 -136t-222.5 -51h-33q-44 0 -69 22t-25 62q0 41 23.5 60t72.5 24q55 3 55 37v4q0 18 -13 28.5t-40 20.5q-33 12 -41.5 24t-1.5 36l29 90
q-200 29 -318 161.5t-118 331.5v199q0 226 148.5 364t391.5 138q141 0 254.5 -51.5t167.5 -161.5q8 -25 9.5 -55t-20 -60.5t-61.5 -44.5q-95 -29 -153 25q-82 100 -197 100q-114 0 -184 -72t-70 -190v-185q0 -117 70 -187.5t186 -70.5q57 0 111.5 25t93.5 76q56 56 146 26z
" />
    <glyph glyph-name="egrave" unicode="&#xe8;" horiz-adv-x="1193" 
d="M395 1446q-54 19 -72 55.5t1 83.5q21 48 58.5 61t90.5 -14l318 -170q101 -49 73 -119q-27 -70 -137 -34zM598 1182q238 0 384 -137t146 -361v-74q0 -57 -30.5 -87.5t-87.5 -30.5h-654v-21q0 -123 68.5 -197.5t181.5 -74.5q138 0 236 110q52 52 131 31q36 -11 60.5 -31.5
t34.5 -43.5t9.5 -46.5t-12.5 -42.5q-54 -93 -179.5 -144.5t-279.5 -51.5q-242 0 -389 136.5t-147 360.5v207q0 224 145 361t383 137zM842 688v2q0 123 -67.5 198t-176.5 75t-175.5 -75t-66.5 -198v-2h486z" />
    <glyph glyph-name="eacute" unicode="&#xe9;" horiz-adv-x="1193" 
d="M471 1309q-108 -36 -135 34q-30 68 72 119l317 170q53 26 92.5 13.5t59.5 -60.5q19 -47 -0.5 -83.5t-73.5 -55.5zM598 1182q238 0 384 -137t146 -361v-74q0 -57 -30.5 -87.5t-87.5 -30.5h-654v-21q0 -123 68.5 -197.5t181.5 -74.5q138 0 236 110q52 52 131 31
q36 -11 60.5 -31.5t34.5 -43.5t9.5 -46.5t-12.5 -42.5q-54 -93 -179.5 -144.5t-279.5 -51.5q-242 0 -389 136.5t-147 360.5v207q0 224 145 361t383 137zM842 688v2q0 123 -67.5 198t-176.5 75t-175.5 -75t-66.5 -198v-2h486z" />
    <glyph glyph-name="ecircumflex" unicode="&#xea;" horiz-adv-x="1193" 
d="M395 1305q-65 -41 -106 16q-46 61 12 113l242 208q25 25 57 25t57 -25l240 -208q59 -51 16 -109q-43 -61 -108 -20l-205 139zM598 1182q238 0 384 -137t146 -361v-74q0 -57 -30.5 -87.5t-87.5 -30.5h-654v-21q0 -123 68.5 -197.5t181.5 -74.5q138 0 236 110q52 52 131 31
q36 -11 60.5 -31.5t34.5 -43.5t9.5 -46.5t-12.5 -42.5q-54 -93 -179.5 -144.5t-279.5 -51.5q-242 0 -389 136.5t-147 360.5v207q0 224 145 361t383 137zM842 688v2q0 123 -67.5 198t-176.5 75t-175.5 -75t-66.5 -198v-2h486z" />
    <glyph glyph-name="edieresis" unicode="&#xeb;" horiz-adv-x="1193" 
d="M410 1352q-64 0 -99 33t-35 92v43q0 60 35 93.5t99 33.5q65 0 100 -33t35 -94v-43q0 -59 -35 -92t-100 -33zM788 1352q-64 0 -99.5 33t-35.5 92v43q0 60 35.5 93.5t99.5 33.5t100 -33.5t36 -93.5v-43q0 -59 -35.5 -92t-100.5 -33zM598 1182q238 0 384 -137t146 -361v-74
q0 -57 -30.5 -87.5t-87.5 -30.5h-654v-21q0 -123 68.5 -197.5t181.5 -74.5q138 0 236 110q52 52 131 31q36 -11 60.5 -31.5t34.5 -43.5t9.5 -46.5t-12.5 -42.5q-54 -93 -179.5 -144.5t-279.5 -51.5q-242 0 -389 136.5t-147 360.5v207q0 224 145 361t383 137zM842 688v2
q0 123 -67.5 198t-176.5 75t-175.5 -75t-66.5 -198v-2h486z" />
    <glyph glyph-name="igrave" unicode="&#xec;" horiz-adv-x="518" 
d="M446 1352q-39 -67 -141 -21l-205 117q-107 50 -57 145q23 44 64 50.5t88 -25.5l194 -137q95 -64 57 -129zM258 -18q-69 0 -106 38t-37 109v903q0 71 37 109.5t106 38.5q70 0 106.5 -38.5t36.5 -109.5v-903q0 -71 -36.5 -109t-106.5 -38z" />
    <glyph glyph-name="iacute" unicode="&#xed;" horiz-adv-x="518" 
d="M213 1331q-100 -47 -139 21q-36 67 57 129l195 137q47 32 87.5 25.5t63.5 -50.5q50 -95 -57 -145zM258 -18q-69 0 -106 38t-37 109v903q0 71 37 109.5t106 38.5q70 0 106.5 -38.5t36.5 -109.5v-903q0 -71 -36.5 -109t-106.5 -38z" />
    <glyph glyph-name="icircumflex" unicode="&#xee;" horiz-adv-x="518" 
d="M125 1319q-69 -50 -113 6q-53 62 6 121l179 188q31 31 63 31q31 0 62 -31l180 -188q56 -56 14 -111q-53 -66 -121 -16l-135 117zM258 -18q-69 0 -106 38t-37 109v903q0 71 37 109.5t106 38.5q70 0 106.5 -38.5t36.5 -109.5v-903q0 -71 -36.5 -109t-106.5 -38z" />
    <glyph glyph-name="idieresis" unicode="&#xef;" horiz-adv-x="518" 
d="M123 1352q-51 0 -78 26t-27 74v92q0 50 27 76.5t78 26.5t77.5 -26.5t26.5 -76.5v-92q0 -100 -104 -100zM395 1352q-51 0 -77.5 26t-26.5 74v92q0 50 26.5 76.5t77.5 26.5t79 -27t28 -76v-92q0 -48 -27.5 -74t-79.5 -26zM258 -18q-69 0 -106 38t-37 109v903q0 71 37 109.5
t106 38.5q70 0 106.5 -38.5t36.5 -109.5v-903q0 -71 -36.5 -109t-106.5 -38z" />
    <glyph glyph-name="eth" unicode="&#xf0;" horiz-adv-x="1232" 
d="M895 1395q254 -244 254 -641v-285q0 -221 -149 -355t-392 -134q-245 0 -393.5 134t-148.5 355v152q0 220 125.5 353.5t334.5 133.5q192 0 318 -107q-61 169 -201 287l-309 -131q-92 -41 -133 53q-18 41 -3 75.5t60 53.5l174 74q-92 31 -166 39q-53 6 -79 38.5t-17 78.5
q18 83 119 76q231 -18 418 -115l190 80q95 39 133 -54q38 -89 -59 -129zM862 477v133q0 112 -70 181t-184 69q-115 0 -185.5 -68.5t-70.5 -181.5v-133q0 -112 70 -180t186 -68q114 0 184 68t70 180z" />
    <glyph glyph-name="ntilde" unicode="&#xf1;" horiz-adv-x="1253" 
d="M301 1384q-34 23 -42 52.5t17 62.5q99 127 228 127q52 0 135.5 -37t124.5 -37q42 0 78 25q25 14 40 20t32.5 5t35.5 -13q72 -52 25 -116q-105 -127 -230 -127q-51 0 -135 36.5t-127 36.5q-46 0 -82 -26q-30 -20 -50 -23t-50 14zM719 1182q193 0 310.5 -121.5
t117.5 -319.5v-612q0 -71 -36.5 -109t-106.5 -38q-69 0 -106.5 38.5t-37.5 108.5v567q0 107 -63 172.5t-166 65.5q-102 0 -166 -65.5t-64 -172.5v-567q0 -71 -36.5 -109t-106.5 -38q-69 0 -106 38t-37 109v903q0 71 34.5 109.5t98.5 38.5q63 0 97.5 -37.5t37.5 -108.5v-4
q58 73 144 112.5t192 39.5z" />
    <glyph glyph-name="ograve" unicode="&#xf2;" horiz-adv-x="1220" 
d="M874 1343q-27 -70 -137 -34l-331 137q-54 19 -72.5 55.5t0.5 83.5q21 48 58.5 61t90.5 -14l318 -170q101 -49 73 -119zM610 -20q-245 0 -393.5 138t-148.5 365v195q0 227 149 365.5t393 138.5t392.5 -138.5t148.5 -365.5v-195q0 -227 -148.5 -365t-392.5 -138zM610 229
q115 0 184.5 72t69.5 191v178q0 119 -69.5 191.5t-184.5 72.5t-185.5 -72.5t-70.5 -191.5v-178q0 -119 70.5 -191t185.5 -72z" />
    <glyph glyph-name="oacute" unicode="&#xf3;" horiz-adv-x="1220" 
d="M483 1309q-108 -36 -135 34q-30 68 72 119l317 170q53 26 92.5 13.5t59.5 -60.5q19 -47 -0.5 -83.5t-73.5 -55.5zM610 -20q-245 0 -393.5 138t-148.5 365v195q0 227 149 365.5t393 138.5t392.5 -138.5t148.5 -365.5v-195q0 -227 -148.5 -365t-392.5 -138zM610 229
q115 0 184.5 72t69.5 191v178q0 119 -69.5 191.5t-184.5 72.5t-185.5 -72.5t-70.5 -191.5v-178q0 -119 70.5 -191t185.5 -72z" />
    <glyph glyph-name="ocircumflex" unicode="&#xf4;" horiz-adv-x="1220" 
d="M299 1321q-46 61 12 113l242 208q25 25 57 25q33 0 58 -25l239 -208q60 -51 17 -109q-43 -61 -109 -20l-205 139l-204 -139q-65 -41 -107 16zM610 -20q-245 0 -393.5 138t-148.5 365v195q0 227 149 365.5t393 138.5t392.5 -138.5t148.5 -365.5v-195q0 -227 -148.5 -365
t-392.5 -138zM610 229q115 0 184.5 72t69.5 191v178q0 119 -69.5 191.5t-184.5 72.5t-185.5 -72.5t-70.5 -191.5v-178q0 -119 70.5 -191t185.5 -72z" />
    <glyph glyph-name="otilde" unicode="&#xf5;" horiz-adv-x="1220" 
d="M385 1393q-30 -20 -50 -23t-50 14q-34 23 -42 52.5t17 62.5q99 127 227 127q52 0 136 -37t125 -37t77 25q24 14 39.5 20t33.5 5t36 -13q71 -51 24 -116q-105 -127 -229 -127q-51 0 -135 36.5t-127 36.5q-46 0 -82 -26zM610 -20q-245 0 -393.5 138t-148.5 365v195
q0 227 149 365.5t393 138.5t392.5 -138.5t148.5 -365.5v-195q0 -227 -148.5 -365t-392.5 -138zM610 229q115 0 184.5 72t69.5 191v178q0 119 -69.5 191.5t-184.5 72.5t-185.5 -72.5t-70.5 -191.5v-178q0 -119 70.5 -191t185.5 -72z" />
    <glyph glyph-name="odieresis" unicode="&#xf6;" horiz-adv-x="1220" 
d="M420 1352q-64 0 -98.5 33t-34.5 92v43q0 60 34.5 93.5t98.5 33.5q65 0 100 -33t35 -94v-43q0 -59 -35 -92t-100 -33zM799 1352q-64 0 -99.5 33t-35.5 92v43q0 60 35.5 93.5t99.5 33.5t99.5 -33.5t35.5 -93.5v-43q0 -59 -35 -92t-100 -33zM610 -20q-245 0 -393.5 138
t-148.5 365v195q0 227 149 365.5t393 138.5t392.5 -138.5t148.5 -365.5v-195q0 -227 -148.5 -365t-392.5 -138zM610 229q115 0 184.5 72t69.5 191v178q0 119 -69.5 191.5t-184.5 72.5t-185.5 -72.5t-70.5 -191.5v-178q0 -119 70.5 -191t185.5 -72z" />
    <glyph glyph-name="divide" unicode="&#xf7;" horiz-adv-x="1155" 
d="M578 836q-69 0 -106.5 30t-37.5 86v27q0 57 37.5 87t106.5 30t106 -30t37 -87v-27q0 -56 -36.5 -86t-106.5 -30zM182 477q-55 0 -85.5 29.5t-30.5 83.5t30 83t86 29h791q56 0 86.5 -29t30.5 -83t-30.5 -83.5t-86.5 -29.5h-791zM578 84q-69 0 -106.5 30.5t-37.5 86.5v26
q0 57 37.5 87t106.5 30t106 -30t37 -87v-26q0 -56 -36.5 -86.5t-106.5 -30.5z" />
    <glyph glyph-name="oslash" unicode="&#xf8;" horiz-adv-x="1224" 
d="M1055 989q98 -128 98 -311v-195q0 -227 -148.5 -365t-392.5 -138q-168 0 -297 69l-22 -31q-59 -77 -135 -20q-78 57 -17 137l29 37q-100 124 -100 311v195q0 227 149 365.5t393 138.5q164 0 291 -68l23 29q64 76 141 20q75 -56 14 -139zM356 492q0 -40 9 -70l374 481
q-54 31 -127 31q-115 0 -185.5 -72.5t-70.5 -191.5v-178zM866 492v178q0 40 -8 71l-377 -481q60 -31 131 -31q115 0 184.5 72t69.5 191z" />
    <glyph glyph-name="ugrave" unicode="&#xf9;" horiz-adv-x="1232" 
d="M416 1446q-54 19 -72.5 55.5t0.5 83.5q21 48 59 61t91 -14l317 -170q102 -49 74 -119q-27 -70 -137 -34zM975 1180q69 0 106 -38.5t37 -109.5v-903q0 -71 -33 -109t-96 -38q-64 0 -99 36.5t-40 106.5q-120 -145 -326 -145q-188 0 -303 118.5t-115 311.5v622
q0 71 37.5 109.5t106.5 38.5t106 -38.5t37 -109.5v-577q0 -102 60 -164t159 -62t159 62t60 164v577q0 71 37.5 109.5t106.5 38.5z" />
    <glyph glyph-name="uacute" unicode="&#xfa;" horiz-adv-x="1232" 
d="M492 1309q-109 -36 -136 34q-30 68 72 119l317 170q53 26 92.5 13.5t59.5 -60.5q19 -47 -0.5 -83.5t-73.5 -55.5zM975 1180q69 0 106 -38.5t37 -109.5v-903q0 -71 -33 -109t-96 -38q-64 0 -99 36.5t-40 106.5q-120 -145 -326 -145q-188 0 -303 118.5t-115 311.5v622
q0 71 37.5 109.5t106.5 38.5t106 -38.5t37 -109.5v-577q0 -102 60 -164t159 -62t159 62t60 164v577q0 71 37.5 109.5t106.5 38.5z" />
    <glyph glyph-name="ucircumflex" unicode="&#xfb;" horiz-adv-x="1232" 
d="M416 1305q-65 -41 -107 16q-46 60 13 113l241 208q25 25 58 25q32 0 57 -25l240 -208q59 -51 16 -109q-43 -61 -109 -20l-204 139zM975 1180q69 0 106 -38.5t37 -109.5v-903q0 -71 -33 -109t-96 -38q-64 0 -99 36.5t-40 106.5q-120 -145 -326 -145q-188 0 -303 118.5
t-115 311.5v622q0 71 37.5 109.5t106.5 38.5t106 -38.5t37 -109.5v-577q0 -102 60 -164t159 -62t159 62t60 164v577q0 71 37.5 109.5t106.5 38.5z" />
    <glyph glyph-name="udieresis" unicode="&#xfc;" horiz-adv-x="1232" 
d="M430 1352q-64 0 -98.5 33t-34.5 92v43q0 60 34.5 93.5t98.5 33.5q65 0 100 -33t35 -94v-43q0 -59 -35 -92t-100 -33zM809 1352q-64 0 -99.5 33t-35.5 92v43q0 60 35.5 93.5t99.5 33.5t99.5 -33.5t35.5 -93.5v-43q0 -59 -35 -92t-100 -33zM975 1180q69 0 106 -38.5
t37 -109.5v-903q0 -71 -33 -109t-96 -38q-64 0 -99 36.5t-40 106.5q-120 -145 -326 -145q-188 0 -303 118.5t-115 311.5v622q0 71 37.5 109.5t106.5 38.5t106 -38.5t37 -109.5v-577q0 -102 60 -164t159 -62t159 62t60 164v577q0 71 37.5 109.5t106.5 38.5z" />
    <glyph glyph-name="yacute" unicode="&#xfd;" horiz-adv-x="1128" 
d="M434 1309q-108 -36 -135 34q-30 68 72 119l317 170q53 26 92.5 13.5t59.5 -60.5q19 -47 -0.5 -83.5t-73.5 -55.5zM979 1169q64 -22 86.5 -70t-0.5 -114l-385 -1065q-60 -167 -181 -262.5t-286 -95.5q-54 0 -84.5 31t-30.5 88q0 52 26 80t73 28q63 0 115.5 36.5t72.5 96.5
l39 107l-358 956q-25 67 -3.5 115.5t87.5 68.5t113 -4t69 -90l243 -713l224 707q20 69 67 95.5t113 4.5z" />
    <glyph glyph-name="thorn" unicode="&#xfe;" horiz-adv-x="1269" 
d="M739 1182q207 0 334 -132.5t127 -349.5v-239q0 -217 -127 -349t-334 -132q-211 0 -338 143v-414q0 -71 -36.5 -109t-106.5 -38q-69 0 -106 38t-37 109v1790q0 71 37 109.5t106 38.5q70 0 106.5 -38.5t36.5 -109.5v-461q125 144 338 144zM913 492v178q0 119 -70.5 191.5
t-185.5 72.5t-185.5 -72.5t-70.5 -191.5v-178q0 -119 70.5 -191t185.5 -72t185.5 72t70.5 191z" />
    <glyph glyph-name="ydieresis" unicode="&#xff;" horiz-adv-x="1128" 
d="M373 1352q-64 0 -98.5 33t-34.5 92v43q0 60 34.5 93.5t98.5 33.5q65 0 100 -33t35 -94v-43q0 -59 -35 -92t-100 -33zM752 1352q-64 0 -100 33t-36 92v43q0 60 36 93.5t100 33.5t99.5 -33.5t35.5 -93.5v-43q0 -59 -35 -92t-100 -33zM979 1169q64 -22 86.5 -70t-0.5 -114
l-385 -1065q-60 -167 -181 -262.5t-286 -95.5q-54 0 -84.5 31t-30.5 88q0 52 26 80t73 28q63 0 115.5 36.5t72.5 96.5l39 107l-358 956q-25 67 -3.5 115.5t87.5 68.5t113 -4t69 -90l243 -713l224 707q20 69 67 95.5t113 4.5z" />
    <glyph glyph-name="Amacron" unicode="&#x100;" horiz-adv-x="1503" 
d="M516 1784q-51 0 -78.5 27t-27.5 75q0 50 27.5 76.5t78.5 26.5h469q51 0 79 -27t28 -76t-28 -75.5t-79 -26.5h-469zM1442 176q22 -70 -3 -118t-93 -68q-69 -19 -117 7t-68 95l-78 238h-663l-76 -238q-44 -140 -184 -102q-68 21 -94 68.5t-3 117.5l426 1288q26 84 89.5 129
t158.5 45h31q95 0 158.5 -45t89.5 -129zM504 588h497l-249 768z" />
    <glyph glyph-name="amacron" unicode="&#x101;" horiz-adv-x="1185" 
d="M371 1399q-51 0 -79 26.5t-28 75.5q0 47 28 74t79 27h426q50 0 77 -26.5t27 -74.5q0 -102 -104 -102h-426zM575 1182q226 0 365 -110.5t139 -293.5v-649q0 -71 -33 -109t-96 -38q-64 0 -99 37.5t-40 107.5v12q-134 -159 -377 -159q-168 0 -270.5 90.5t-102.5 240.5v68
q0 139 104.5 224t276.5 85h351v70q0 92 -60.5 148.5t-157.5 56.5q-124 0 -217 -101q-55 -51 -131 -28q-36 11 -60.5 31t-34.5 42.5t-9.5 45.5t12.5 42q52 90 173 138.5t267 48.5zM522 207q121 0 196 62.5t75 164.5v58h-285q-71 0 -115.5 -34t-44.5 -91v-23q0 -63 48 -100
t126 -37z" />
    <glyph glyph-name="Abreve" unicode="&#x102;" horiz-adv-x="1503" 
d="M752 1712q-130 0 -219.5 69t-114.5 185q-12 48 15 80.5t79 32.5q30 0 53.5 -17.5t36.5 -44.5q22 -59 59 -83.5t91 -24.5q108 0 149 108q13 27 36.5 44.5t53.5 17.5q52 0 79 -32.5t15 -80.5q-25 -115 -114.5 -184.5t-218.5 -69.5zM1442 176q22 -70 -3 -118t-93 -68
q-69 -19 -117 7t-68 95l-78 238h-663l-76 -238q-44 -140 -184 -102q-68 21 -94 68.5t-3 117.5l426 1288q26 84 89.5 129t158.5 45h31q95 0 158.5 -45t89.5 -129zM504 588h497l-249 768z" />
    <glyph glyph-name="abreve" unicode="&#x103;" horiz-adv-x="1185" 
d="M584 1282q-130 0 -219.5 70t-114.5 184q-12 48 15 81.5t79 33.5q29 0 53 -18t37 -46q22 -59 59 -82.5t91 -23.5q109 0 149 106q13 28 37 46t53 18q52 0 79.5 -33.5t15.5 -81.5q-25 -114 -115 -184t-219 -70zM575 1182q226 0 365 -110.5t139 -293.5v-649q0 -71 -33 -109
t-96 -38q-64 0 -99 37.5t-40 107.5v12q-134 -159 -377 -159q-168 0 -270.5 90.5t-102.5 240.5v68q0 139 104.5 224t276.5 85h351v70q0 92 -60.5 148.5t-157.5 56.5q-124 0 -217 -101q-55 -51 -131 -28q-36 11 -60.5 31t-34.5 42.5t-9.5 45.5t12.5 42q52 90 173 138.5
t267 48.5zM522 207q121 0 196 62.5t75 164.5v58h-285q-71 0 -115.5 -34t-44.5 -91v-23q0 -63 48 -100t126 -37z" />
    <glyph glyph-name="Aogonek" unicode="&#x104;" horiz-adv-x="1503" 
d="M1407 -219q51 -19 68.5 -36t17.5 -58q0 -60 -44 -92.5t-128 -32.5h-8q-121 0 -195 62t-74 163v10q0 114 150 228q-21 27 -33 67l-78 238h-663l-76 -238q-44 -140 -184 -102q-68 21 -94 68.5t-3 117.5l426 1288q26 84 89.5 129t158.5 45h31q95 0 158.5 -45t89.5 -129
l426 -1288q31 -109 -39 -158q-78 -81 -78 -135v-8q0 -57 82 -94zM504 588h497l-249 768z" />
    <glyph glyph-name="aogonek" unicode="&#x105;" horiz-adv-x="1185" 
d="M1008 -219q52 -19 69 -35.5t17 -58.5q0 -60 -44 -92.5t-128 -32.5h-9q-121 0 -194.5 62t-73.5 163v10q0 67 50.5 130.5t140.5 113.5q-22 36 -25 86v12q-134 -159 -377 -159q-168 0 -270.5 90.5t-102.5 240.5v68q0 139 104.5 224t276.5 85h351v70q0 92 -60.5 148.5
t-157.5 56.5q-124 0 -217 -101q-55 -51 -131 -28q-36 11 -60.5 31t-34.5 42.5t-9.5 45.5t12.5 42q52 90 173 138.5t267 48.5q226 0 365 -110.5t139 -293.5v-649q0 -100 -65 -135q-88 -60 -88 -119v-6q0 -29 20.5 -49t61.5 -39zM522 207q121 0 196 62.5t75 164.5v58h-285
q-71 0 -115.5 -34t-44.5 -91v-23q0 -63 48 -100t126 -37z" />
    <glyph glyph-name="Cacute" unicode="&#x106;" horiz-adv-x="1419" 
d="M635 1731q-111 -28 -133 45q-12 34 9.5 63t72.5 49l336 129q55 22 93.5 7t51.5 -64q31 -107 -86 -135zM770 -20q-309 0 -496.5 174.5t-187.5 461.5v390q0 290 187 466.5t495 176.5q177 0 327.5 -74t225.5 -207q13 -29 15.5 -63.5t-20 -70.5t-65.5 -52q-40 -16 -76 -12
t-59.5 16.5t-40.5 32.5q-66 84 -146.5 124.5t-160.5 40.5q-172 0 -277.5 -108.5t-105.5 -286.5v-356q0 -175 106 -282t279 -107q95 0 176.5 45.5t138.5 126.5q68 82 175 39q43 -18 67 -50t24 -60.5t-8 -51.5q-70 -153 -224 -233t-349 -80z" />
    <glyph glyph-name="cacute" unicode="&#x107;" horiz-adv-x="1124" 
d="M479 1309q-108 -36 -135 34q-30 68 72 119l317 170q53 26 92.5 13.5t59.5 -60.5q19 -47 -0.5 -83.5t-73.5 -55.5zM610 -20q-244 0 -393 137.5t-149 363.5v199q0 226 148.5 364t391.5 138q141 0 254.5 -51.5t167.5 -161.5q8 -25 9.5 -55t-20 -60.5t-61.5 -44.5
q-95 -29 -153 25q-82 100 -197 100q-114 0 -184 -72t-70 -190v-185q0 -117 70 -187.5t186 -70.5q57 0 111.5 25t93.5 76q56 56 146 26q58 -19 76.5 -62.5t6.5 -88.5q-18 -57 -62.5 -101.5t-105 -70.5t-128 -39.5t-138.5 -13.5z" />
    <glyph glyph-name="Cdotaccent" unicode="&#x10a;" horiz-adv-x="1419" 
d="M768 1737q-79 0 -121.5 35t-42.5 98v31q0 63 42.5 97t121.5 34t121.5 -34t42.5 -97v-31q0 -63 -42.5 -98t-121.5 -35zM770 -20q-309 0 -496.5 174.5t-187.5 461.5v390q0 290 187 466.5t495 176.5q177 0 327.5 -74t225.5 -207q13 -29 15.5 -63.5t-20 -70.5t-65.5 -52
q-40 -16 -76 -12t-59.5 16.5t-40.5 32.5q-66 84 -146.5 124.5t-160.5 40.5q-172 0 -277.5 -108.5t-105.5 -286.5v-356q0 -175 106 -282t279 -107q95 0 176.5 45.5t138.5 126.5q68 82 175 39q43 -18 67 -50t24 -60.5t-8 -51.5q-70 -153 -224 -233t-349 -80z" />
    <glyph glyph-name="cdotaccent" unicode="&#x10b;" horiz-adv-x="1124" 
d="M608 1352q-69 0 -106 34t-37 97v33q0 63 37 97t106 34t106.5 -34t37.5 -97v-33q0 -63 -37 -97t-107 -34zM610 -20q-244 0 -393 137.5t-149 363.5v199q0 226 148.5 364t391.5 138q141 0 254.5 -51.5t167.5 -161.5q8 -25 9.5 -55t-20 -60.5t-61.5 -44.5q-95 -29 -153 25
q-82 100 -197 100q-114 0 -184 -72t-70 -190v-185q0 -117 70 -187.5t186 -70.5q57 0 111.5 25t93.5 76q56 56 146 26q58 -19 76.5 -62.5t6.5 -88.5q-18 -57 -62.5 -101.5t-105 -70.5t-128 -39.5t-138.5 -13.5z" />
    <glyph glyph-name="Ccaron" unicode="&#x10c;" horiz-adv-x="1419" 
d="M768 1692q-33 0 -57 24l-242 209q-58 49 -12 113q41 57 106 16l205 -139l205 139q65 41 108 -20q45 -60 -16 -109l-240 -209q-24 -24 -57 -24zM770 -20q-309 0 -496.5 174.5t-187.5 461.5v390q0 290 187 466.5t495 176.5q177 0 327.5 -74t225.5 -207q13 -29 15.5 -63.5
t-20 -70.5t-65.5 -52q-40 -16 -76 -12t-59.5 16.5t-40.5 32.5q-66 84 -146.5 124.5t-160.5 40.5q-172 0 -277.5 -108.5t-105.5 -286.5v-356q0 -175 106 -282t279 -107q95 0 176.5 45.5t138.5 126.5q68 82 175 39q43 -18 67 -50t24 -60.5t-8 -51.5q-70 -153 -224 -233
t-349 -80z" />
    <glyph glyph-name="ccaron" unicode="&#x10d;" horiz-adv-x="1124" 
d="M608 1272q-30 0 -57 24l-242 209q-58 52 -12 113q39 57 106 18l205 -139l205 139q66 38 109 -22q44 -57 -17 -109l-239 -209q-27 -24 -58 -24zM610 -20q-244 0 -393 137.5t-149 363.5v199q0 226 148.5 364t391.5 138q141 0 254.5 -51.5t167.5 -161.5q8 -25 9.5 -55
t-20 -60.5t-61.5 -44.5q-95 -29 -153 25q-82 100 -197 100q-114 0 -184 -72t-70 -190v-185q0 -117 70 -187.5t186 -70.5q57 0 111.5 25t93.5 76q56 56 146 26q58 -19 76.5 -62.5t6.5 -88.5q-18 -57 -62.5 -101.5t-105 -70.5t-128 -39.5t-138.5 -13.5z" />
    <glyph glyph-name="Dcaron" unicode="&#x10e;" horiz-adv-x="1505" 
d="M764 1692q-33 0 -57 24l-242 209q-58 49 -12 113q41 57 106 16l205 -139l205 139q65 41 108 -20q45 -60 -16 -109l-240 -209q-24 -24 -57 -24zM272 0q-64 0 -98.5 34t-34.5 99v1362q0 65 34.5 99t98.5 34h484q299 0 482 -174.5t183 -458.5v-362q0 -284 -183 -458.5
t-482 -174.5h-484zM438 258h301q172 0 276.5 107t104.5 284v330q0 177 -104.5 284t-276.5 107h-301v-1112z" />
    <glyph glyph-name="dcaron" unicode="&#x10f;" horiz-adv-x="1411" 
d="M1427 1645q53 -11 74 -49t4 -93l-80 -305q-15 -51 -43.5 -73.5t-64.5 -14.5q-78 16 -64 123l45 313q7 58 42.5 84.5t86.5 14.5zM1012 1647q69 0 106 -38.5t37 -109.5v-1370q0 -71 -33 -109t-96 -38q-64 0 -99 37.5t-38 107.5v20q-61 -80 -153 -123.5t-206 -43.5
q-207 0 -332.5 132t-125.5 349v239q0 217 125.5 349.5t332.5 132.5q213 0 338 -144v461q0 71 37.5 109.5t106.5 38.5zM612 229q115 0 185.5 72t70.5 191v178q0 119 -70.5 191.5t-185.5 72.5t-184.5 -72.5t-69.5 -191.5v-178q0 -119 69.5 -191t184.5 -72z" />
    <glyph glyph-name="Dcroat" unicode="&#x110;" horiz-adv-x="1538" 
d="M788 1628q299 0 482.5 -174.5t183.5 -458.5v-362q0 -284 -183.5 -458.5t-482.5 -174.5h-483q-65 0 -99 34t-34 99v580h-27q-56 0 -86 29.5t-30 84.5q0 54 30.5 83.5t85.5 29.5h27v555q0 65 34 99t99 34h483zM1153 649v330q0 177 -104.5 284t-276.5 107h-301v-430h223
q56 0 86.5 -29.5t30.5 -83.5q0 -55 -30.5 -84.5t-86.5 -29.5h-223v-455h301q172 0 276.5 107t104.5 284z" />
    <glyph glyph-name="dcroat" unicode="&#x111;" horiz-adv-x="1269" 
d="M1260 1409q0 -100 -105 -106v-1174q0 -71 -33 -109t-96 -38q-64 0 -99 37.5t-38 107.5v20q-61 -80 -153 -123.5t-206 -43.5q-207 0 -332.5 132t-125.5 349v239q0 217 125.5 349.5t332.5 132.5q213 0 338 -144v265h-254q-118 0 -118 106q0 51 30.5 77.5t87.5 26.5h254
q5 65 41.5 99.5t102.5 34.5t102 -34.5t41 -99.5q51 -3 78 -30t27 -74zM612 229q115 0 185.5 72t70.5 191v178q0 119 -70.5 191.5t-185.5 72.5t-184.5 -72.5t-69.5 -191.5v-178q0 -119 69.5 -191t184.5 -72z" />
    <glyph glyph-name="Emacron" unicode="&#x112;" horiz-adv-x="1347" 
d="M469 1784q-51 0 -79 27t-28 75q0 49 28 76t79 27h469q51 0 78.5 -26.5t27.5 -76.5q0 -49 -27.5 -75.5t-78.5 -26.5h-469zM1149 258q63 0 97 -33t34 -96t-34 -96t-97 -33h-877q-64 0 -98.5 34t-34.5 99v1362q0 65 34.5 99t98.5 34h856q63 0 97.5 -33t34.5 -96t-34.5 -96
t-97.5 -33h-690v-414h649q63 0 97.5 -33t34.5 -94q0 -63 -34.5 -96t-97.5 -33h-649v-442h711z" />
    <glyph glyph-name="emacron" unicode="&#x113;" horiz-adv-x="1193" 
d="M385 1399q-51 0 -78.5 26.5t-27.5 75.5q0 48 27.5 74.5t78.5 26.5h426q50 0 77 -26.5t27 -74.5q0 -102 -104 -102h-426zM598 1182q238 0 384 -137t146 -361v-74q0 -57 -30.5 -87.5t-87.5 -30.5h-654v-21q0 -123 68.5 -197.5t181.5 -74.5q138 0 236 110q52 52 131 31
q36 -11 60.5 -31.5t34.5 -43.5t9.5 -46.5t-12.5 -42.5q-54 -93 -179.5 -144.5t-279.5 -51.5q-242 0 -389 136.5t-147 360.5v207q0 224 145 361t383 137zM842 688v2q0 123 -67.5 198t-176.5 75t-175.5 -75t-66.5 -198v-2h486z" />
    <glyph glyph-name="Edotaccent" unicode="&#x116;" horiz-adv-x="1347" 
d="M705 1737q-79 0 -121.5 35t-42.5 98v31q0 63 42.5 97t121.5 34t121 -34t42 -97v-31q0 -63 -42 -98t-121 -35zM1149 258q63 0 97 -33t34 -96t-34 -96t-97 -33h-877q-64 0 -98.5 34t-34.5 99v1362q0 65 34.5 99t98.5 34h856q63 0 97.5 -33t34.5 -96t-34.5 -96t-97.5 -33
h-690v-414h649q63 0 97.5 -33t34.5 -94q0 -63 -34.5 -96t-97.5 -33h-649v-442h711z" />
    <glyph glyph-name="edotaccent" unicode="&#x117;" horiz-adv-x="1193" 
d="M600 1352q-69 0 -106 34t-37 97v33q0 63 37 97t106 34t106 -34t37 -97v-33q0 -63 -36.5 -97t-106.5 -34zM598 1182q238 0 384 -137t146 -361v-74q0 -57 -30.5 -87.5t-87.5 -30.5h-654v-21q0 -123 68.5 -197.5t181.5 -74.5q138 0 236 110q52 52 131 31q36 -11 60.5 -31.5
t34.5 -43.5t9.5 -46.5t-12.5 -42.5q-54 -93 -179.5 -144.5t-279.5 -51.5q-242 0 -389 136.5t-147 360.5v207q0 224 145 361t383 137zM842 688v2q0 123 -67.5 198t-176.5 75t-175.5 -75t-66.5 -198v-2h486z" />
    <glyph glyph-name="Eogonek" unicode="&#x118;" horiz-adv-x="1347" 
d="M1200 -219q52 -19 70 -36t18 -58q0 -60 -44 -92.5t-128 -32.5h-8q-121 0 -194.5 62t-73.5 163v10q0 108 125 203h-693q-64 0 -98.5 34t-34.5 99v1362q0 65 34.5 99t98.5 34h856q63 0 97.5 -33t34.5 -96t-34.5 -96t-97.5 -33h-690v-414h649q63 0 97.5 -33t34.5 -94
q0 -63 -34.5 -96t-97.5 -33h-649v-442h711q63 0 97 -33t34 -96q0 -67 -41 -102q-119 -89 -119 -152v-6q0 -29 20 -49t60 -39z" />
    <glyph glyph-name="eogonek" unicode="&#x119;" horiz-adv-x="1193" 
d="M598 1182q238 0 384 -137t146 -361v-74q0 -57 -30.5 -87.5t-87.5 -30.5h-654v-21q0 -123 68.5 -197.5t181.5 -74.5q138 0 236 110q52 52 131 31q36 -11 60.5 -31.5t34.5 -43.5t9.5 -46.5t-12.5 -42.5q-36 -62 -104.5 -106t-159.5 -66q-64 -28 -103 -64t-39 -69v-6
q0 -47 82 -84q52 -19 69 -35.5t17 -58.5q0 -60 -44 -92.5t-128 -32.5h-8q-120 0 -193 62t-73 163v10q0 104 111 191q-194 33 -308 163.5t-114 325.5v207q0 224 145 361t383 137zM842 688v2q0 123 -67.5 198t-176.5 75t-175.5 -75t-66.5 -198v-2h486z" />
    <glyph glyph-name="Ecaron" unicode="&#x11a;" horiz-adv-x="1347" 
d="M406 1925q-59 50 -13 113q42 57 107 16l205 -139l204 139q66 41 109 -20q44 -60 -17 -109l-239 -209q-24 -24 -57 -24q-34 0 -58 24zM1149 258q63 0 97 -33t34 -96t-34 -96t-97 -33h-877q-64 0 -98.5 34t-34.5 99v1362q0 65 34.5 99t98.5 34h856q63 0 97.5 -33t34.5 -96
t-34.5 -96t-97.5 -33h-690v-414h649q63 0 97.5 -33t34.5 -94q0 -63 -34.5 -96t-97.5 -33h-649v-442h711z" />
    <glyph glyph-name="ecaron" unicode="&#x11b;" horiz-adv-x="1193" 
d="M301 1505q-58 52 -12 113q39 57 106 18l205 -139l205 139q66 38 108 -22q45 -57 -16 -109l-240 -209q-27 -24 -57 -24t-57 24zM598 1182q238 0 384 -137t146 -361v-74q0 -57 -30.5 -87.5t-87.5 -30.5h-654v-21q0 -123 68.5 -197.5t181.5 -74.5q138 0 236 110
q52 52 131 31q36 -11 60.5 -31.5t34.5 -43.5t9.5 -46.5t-12.5 -42.5q-54 -93 -179.5 -144.5t-279.5 -51.5q-242 0 -389 136.5t-147 360.5v207q0 224 145 361t383 137zM842 688v2q0 123 -67.5 198t-176.5 75t-175.5 -75t-66.5 -198v-2h486z" />
    <glyph glyph-name="Gbreve" unicode="&#x11e;" horiz-adv-x="1507" 
d="M768 1712q-130 0 -219.5 69t-114.5 185q-12 48 15 80.5t79 32.5q30 0 53.5 -17.5t36.5 -44.5q22 -59 59 -83.5t91 -24.5q109 0 150 108q13 27 36.5 44.5t53.5 17.5q52 0 79 -32.5t15 -80.5q-25 -115 -115 -184.5t-219 -69.5zM1298 956q64 0 99 -34t35 -97v-217
q0 -283 -185 -455.5t-487 -172.5q-303 0 -488.5 174.5t-185.5 461.5v390q0 290 187 466.5t495 176.5q179 0 330.5 -74t224.5 -207q13 -29 15.5 -63.5t-20 -70.5t-65.5 -52q-40 -16 -76 -12t-59.5 16.5t-40.5 32.5q-64 83 -146 124t-163 41q-172 0 -277.5 -108.5
t-105.5 -286.5v-356q0 -174 103.5 -281.5t271.5 -107.5q173 0 273 104t100 277v75h-283q-63 0 -97 33t-34 96q0 61 34 94t97 33h448z" />
    <glyph glyph-name="gbreve" unicode="&#x11f;" horiz-adv-x="1271" 
d="M616 1282q-130 0 -219 69.5t-114 184.5q-12 48 15 81.5t79 33.5q29 0 53 -18t37 -46q22 -59 58.5 -82.5t90.5 -23.5q110 0 150 106q13 28 37 46t53 18q52 0 79 -33.5t15 -81.5q-25 -114 -115 -184t-219 -70zM1028 1180q61 0 95 -38.5t34 -109.5v-995q0 -215 -156.5 -346
t-414.5 -131q-292 0 -398 143q-22 27 -26 60t15 66t59 54q43 18 72.5 14t47.5 -20q109 -90 230 -90q137 0 220 73t83 193v131q-61 -79 -152.5 -121.5t-204.5 -42.5q-207 0 -332.5 129.5t-125.5 342.5v219q0 212 125.5 341.5t332.5 129.5q114 0 206 -42.5t153 -121.5v16
q3 71 38 108.5t99 37.5zM614 270q116 0 186 69t70 183v160q0 113 -70.5 182.5t-185.5 69.5t-184.5 -69.5t-69.5 -182.5v-160q0 -114 69.5 -183t184.5 -69z" />
    <glyph glyph-name="Gdotaccent" unicode="&#x120;" horiz-adv-x="1507" 
d="M768 1737q-79 0 -121.5 35t-42.5 98v31q0 63 42.5 97t121.5 34t121.5 -34t42.5 -97v-31q0 -63 -42.5 -98t-121.5 -35zM1298 956q64 0 99 -34t35 -97v-217q0 -283 -185 -455.5t-487 -172.5q-303 0 -488.5 174.5t-185.5 461.5v390q0 290 187 466.5t495 176.5
q179 0 330.5 -74t224.5 -207q13 -29 15.5 -63.5t-20 -70.5t-65.5 -52q-40 -16 -76 -12t-59.5 16.5t-40.5 32.5q-64 83 -146 124t-163 41q-172 0 -277.5 -108.5t-105.5 -286.5v-356q0 -174 103.5 -281.5t271.5 -107.5q173 0 273 104t100 277v75h-283q-63 0 -97 33t-34 96
q0 61 34 94t97 33h448z" />
    <glyph glyph-name="gdotaccent" unicode="&#x121;" horiz-adv-x="1271" 
d="M616 1352q-69 0 -106 34t-37 97v33q0 63 37 97t106 34t106.5 -34t37.5 -97v-33q0 -63 -37 -97t-107 -34zM1028 1180q61 0 95 -38.5t34 -109.5v-995q0 -215 -156.5 -346t-414.5 -131q-292 0 -398 143q-22 27 -26 60t15 66t59 54q43 18 72.5 14t47.5 -20q109 -90 230 -90
q137 0 220 73t83 193v131q-61 -79 -152.5 -121.5t-204.5 -42.5q-207 0 -332.5 129.5t-125.5 342.5v219q0 212 125.5 341.5t332.5 129.5q114 0 206 -42.5t153 -121.5v16q3 71 38 108.5t99 37.5zM614 270q116 0 186 69t70 183v160q0 113 -70.5 182.5t-185.5 69.5t-184.5 -69.5
t-69.5 -182.5v-160q0 -114 69.5 -183t184.5 -69z" />
    <glyph glyph-name="Gcommaaccent" unicode="&#x122;" horiz-adv-x="1507" 
d="M1298 956q64 0 99 -34t35 -97v-217q0 -283 -185 -455.5t-487 -172.5q-303 0 -488.5 174.5t-185.5 461.5v390q0 290 187 466.5t495 176.5q179 0 330.5 -74t224.5 -207q13 -29 15.5 -63.5t-20 -70.5t-65.5 -52q-40 -16 -76 -12t-59.5 16.5t-40.5 32.5q-64 83 -146 124
t-163 41q-172 0 -277.5 -108.5t-105.5 -286.5v-356q0 -174 103.5 -281.5t271.5 -107.5q173 0 273 104t100 277v75h-283q-63 0 -97 33t-34 96q0 61 34 94t97 33h448zM821 -86q34 -12 53 -28t22.5 -36t-2 -41t-20.5 -47l-57 -127q-30 -50 -61 -67.5t-76 0.5q-102 37 -66 135
l43 121q25 66 63 90.5t101 -0.5z" />
    <glyph glyph-name="gcommaaccent" unicode="&#x123;" horiz-adv-x="1271" 
d="M575 1272q-125 39 -53 166l56 135q29 49 57 66t74 1q50 -18 62.5 -50.5t-5.5 -84.5l-41 -143q-20 -65 -53.5 -87t-96.5 -3zM1028 1180q61 0 95 -38.5t34 -109.5v-995q0 -215 -156.5 -346t-414.5 -131q-292 0 -398 143q-22 27 -26 60t15 66t59 54q43 18 72.5 14t47.5 -20
q109 -90 230 -90q137 0 220 73t83 193v131q-61 -79 -152.5 -121.5t-204.5 -42.5q-207 0 -332.5 129.5t-125.5 342.5v219q0 212 125.5 341.5t332.5 129.5q114 0 206 -42.5t153 -121.5v16q3 71 38 108.5t99 37.5zM614 270q116 0 186 69t70 183v160q0 113 -70.5 182.5
t-185.5 69.5t-184.5 -69.5t-69.5 -182.5v-160q0 -114 69.5 -183t184.5 -69z" />
    <glyph glyph-name="Hbar" unicode="&#x126;" horiz-adv-x="1591" 
d="M1440 1423q57 0 88 -29t31 -83q0 -55 -31 -85t-88 -30h-23v-1063q0 -73 -38.5 -112t-112.5 -39q-72 0 -111 39t-39 112v567h-637v-567q0 -73 -38.5 -112t-110.5 -39t-111 39t-39 112v1063h-28q-57 0 -88 30t-31 85q0 54 31 83t88 29h28v72q0 73 39 112.5t111 39.5
t110.5 -39.5t38.5 -112.5v-72h637v72q0 73 39 112.5t111 39.5q73 0 112 -39t39 -113v-72h23zM1116 956v240h-637v-240h637z" />
    <glyph glyph-name="hbar" unicode="&#x127;" horiz-adv-x="1253" 
d="M719 1182q193 0 310.5 -121.5t117.5 -319.5v-612q0 -71 -36.5 -109t-106.5 -38q-69 0 -106.5 38.5t-37.5 108.5v567q0 107 -63 172.5t-166 65.5q-102 0 -166 -65.5t-64 -172.5v-567q0 -71 -36.5 -109t-106.5 -38q-69 0 -106 38t-37 109v1174q-105 6 -105 106q0 47 27 74
t78 30q5 65 41 99.5t102 34.5q134 0 143 -134h254q57 0 88 -26.5t31 -77.5q0 -52 -31 -79t-88 -27h-254v-250q120 129 318 129z" />
    <glyph glyph-name="Imacron" unicode="&#x12a;" horiz-adv-x="577" 
d="M145 1784q-51 0 -78.5 27t-27.5 75q0 50 27.5 76.5t78.5 26.5h287q51 0 78 -26.5t27 -76.5t-27 -76t-78 -26h-287zM289 -18q-72 0 -111 38t-39 109v1366q0 73 39 112.5t111 39.5t110.5 -39.5t38.5 -112.5v-1366q0 -71 -38.5 -109t-110.5 -38z" />
    <glyph glyph-name="imacron" unicode="&#x12b;" horiz-adv-x="518" 
d="M119 1399q-51 0 -79 26.5t-28 75.5q0 47 28 74t79 27h282q51 0 79 -27t28 -74q0 -102 -107 -102h-282zM258 -18q-69 0 -106 38t-37 109v903q0 71 37 109.5t106 38.5q70 0 106.5 -38.5t36.5 -109.5v-903q0 -71 -36.5 -109t-106.5 -38z" />
    <glyph glyph-name="Iogonek" unicode="&#x12e;" horiz-adv-x="577" 
d="M391 -219q35 -19 48.5 -37.5t13.5 -56.5q0 -61 -44 -93t-126 -32q-117 0 -186.5 61.5t-69.5 163.5v10q0 61 39 119.5t110 106.5q-37 37 -37 106v1366q0 73 39 112.5t111 39.5t110.5 -39.5t38.5 -112.5v-1366q0 -79 -51 -121q-82 -67 -82 -133v-6q0 -49 86 -88z" />
    <glyph glyph-name="iogonek" unicode="&#x12f;" horiz-adv-x="520" 
d="M262 1352q-69 0 -106 34t-37 97v33q0 63 37 97t106 34t106.5 -34t37.5 -97v-33q0 -63 -37 -97t-107 -34zM356 -219q35 -19 48.5 -37.5t13.5 -56.5q0 -61 -44 -93t-126 -32q-117 0 -186.5 61.5t-69.5 163.5v10q0 63 40.5 123t114.5 107q-30 37 -30 102v903q0 71 37 109.5
t106 38.5q70 0 106.5 -38.5t36.5 -109.5v-903q0 -88 -57 -127q-76 -64 -76 -127v-6q0 -49 86 -88z" />
    <glyph glyph-name="Idotaccent" unicode="&#x130;" horiz-adv-x="577" 
d="M289 1737q-79 0 -121.5 35t-42.5 98v31q0 63 42.5 97t121.5 34t121.5 -34t42.5 -97v-31q0 -63 -42.5 -98t-121.5 -35zM289 -18q-72 0 -111 38t-39 109v1366q0 73 39 112.5t111 39.5t110.5 -39.5t38.5 -112.5v-1366q0 -71 -38.5 -109t-110.5 -38z" />
    <glyph glyph-name="dotlessi" unicode="&#x131;" horiz-adv-x="518" 
d="M258 -18q-69 0 -106 38t-37 109v903q0 71 37 109.5t106 38.5q70 0 106.5 -38.5t36.5 -109.5v-903q0 -71 -36.5 -109t-106.5 -38z" />
    <glyph glyph-name="IJ" unicode="&#x132;" horiz-adv-x="1429" 
d="M266 682q-68 0 -104.5 38.5t-36.5 110.5v664q0 73 36.5 112.5t104.5 39.5q69 0 106.5 -39.5t37.5 -112.5v-664q0 -72 -37 -110.5t-107 -38.5zM721 -20q-174 0 -311.5 80.5t-204.5 234.5q-23 48 1 108.5t87 88.5q92 37 158 -60q103 -188 270 -188q126 0 203 79.5t77 211.5
v960q0 73 39 112.5t111 39.5q73 0 112.5 -39.5t39.5 -112.5v-977q0 -243 -160.5 -390.5t-421.5 -147.5z" />
    <glyph glyph-name="Kcommaaccent" unicode="&#x136;" horiz-adv-x="1449" 
d="M1378 188q57 -135 -78 -192q-66 -26 -115 -5t-77 87l-332 790l-338 -364v-371q0 -73 -38.5 -112t-110.5 -39t-111 39t-39 112v1362q0 73 39 112.5t111 39.5t110.5 -39.5t38.5 -112.5v-645l676 737q94 108 201 21q51 -41 51.5 -93t-49.5 -104l-318 -348zM803 -86
q34 -12 53 -28t22.5 -36t-2 -41t-20.5 -47l-57 -127q-30 -50 -61 -67.5t-76 0.5q-102 37 -66 135l43 121q25 66 63 90.5t101 -0.5z" />
    <glyph glyph-name="kcommaaccent" unicode="&#x137;" horiz-adv-x="1153" 
d="M1075 197q32 -63 16.5 -114.5t-77.5 -80.5q-128 -64 -191 70l-227 469l-195 -215v-197q0 -71 -36.5 -109t-106.5 -38q-69 0 -106 38t-37 109v1370q0 71 37 109.5t106 38.5q70 0 106.5 -38.5t36.5 -109.5v-852l443 479q92 99 184 13q46 -43 48.5 -91.5t-40.5 -95.5
l-221 -239zM635 -86q34 -12 53 -28t22.5 -36t-2 -41t-20.5 -47l-57 -127q-30 -50 -61 -67.5t-76 0.5q-102 37 -66 135l43 121q25 66 63 90.5t101 -0.5z" />
    <glyph glyph-name="Lacute" unicode="&#x139;" horiz-adv-x="1208" 
d="M526 1825l-344 -94q-111 -28 -133 45q-12 34 9.5 63t72.5 49l336 129q55 22 93.5 7t51.5 -64q31 -107 -86 -135zM1047 258q63 0 97 -33t34 -96t-34 -96t-97 -33h-775q-64 0 -98.5 34t-34.5 99v1362q0 73 39 112.5t111 39.5t110.5 -39.5t38.5 -112.5v-1237h609z" />
    <glyph glyph-name="lacute" unicode="&#x13a;" horiz-adv-x="544" 
d="M193 1729q-112 -27 -134 45q-24 68 80 112l240 94q54 24 92 10t53 -65t-7.5 -86t-78.5 -47zM354 -18q-109 0 -176 73t-67 193v1251q0 71 37 109.5t106 38.5t106 -38.5t37 -109.5v-1208q0 -67 56 -96q55 -35 55 -97q0 -54 -43.5 -85t-110.5 -31z" />
    <glyph glyph-name="Lcommaaccent" unicode="&#x13b;" horiz-adv-x="1208" 
d="M1047 258q63 0 97 -33t34 -96t-34 -96t-97 -33h-775q-64 0 -98.5 34t-34.5 99v1362q0 73 39 112.5t111 39.5t110.5 -39.5t38.5 -112.5v-1237h609zM698 -86q45 -16 63.5 -40t14.5 -50t-24 -62l-58 -127q-30 -50 -61 -67.5t-76 0.5q-101 37 -65 135l43 121q25 66 63 90.5
t100 -0.5z" />
    <glyph glyph-name="lcommaaccent" unicode="&#x13c;" horiz-adv-x="544" 
d="M354 -18q-109 0 -176 73t-67 193v1251q0 71 37 109.5t106 38.5t106 -38.5t37 -109.5v-1208q0 -67 56 -96q55 -35 55 -97q0 -54 -43.5 -85t-110.5 -31zM178 -432q-101 37 -65 135l43 121q25 66 63 90.5t100 -0.5q45 -16 63.5 -40t14.5 -50t-24 -62l-58 -127
q-30 -50 -61 -67.5t-76 0.5z" />
    <glyph glyph-name="Lcaron" unicode="&#x13d;" horiz-adv-x="1214" 
d="M831 1110q-77 16 -63 123l45 313q7 58 42.5 84.5t86.5 14.5q53 -11 74 -49t4 -93l-80 -305q-15 -51 -44 -73.5t-65 -14.5zM1047 258q63 0 97 -33t34 -96t-34 -96t-97 -33h-775q-64 0 -98.5 34t-34.5 99v1362q0 73 39 112.5t111 39.5t110.5 -39.5t38.5 -112.5v-1237h609z
" />
    <glyph glyph-name="lcaron" unicode="&#x13e;" horiz-adv-x="667" 
d="M668 1198q-15 -51 -44 -73.5t-65 -14.5q-77 16 -63 123l45 313q7 58 42.5 84.5t86.5 14.5q53 -11 74 -49t4 -93zM354 -18q-109 0 -176 73t-67 193v1251q0 71 37 109.5t106 38.5t106 -38.5t37 -109.5v-1208q0 -67 56 -96q55 -35 55 -97q0 -54 -43.5 -85t-110.5 -31z" />
    <glyph glyph-name="Lslash" unicode="&#x141;" horiz-adv-x="1263" 
d="M1102 258q63 0 97 -33t34 -96t-34 -96t-97 -33h-774q-64 0 -98.5 34t-34.5 99v514l-11 -4q-43 -17 -76.5 2.5t-50.5 71.5q-38 109 76 153l62 25v600q0 73 38.5 112.5t110.5 39.5t111 -39.5t39 -112.5v-498l176 70q57 22 97.5 6t57.5 -67q37 -110 -75 -156l-256 -100v-492
h608z" />
    <glyph glyph-name="lslash" unicode="&#x142;" horiz-adv-x="671" 
d="M537 778l-70 -26v-461q0 -68 55 -96q56 -36 56 -97q0 -54 -43.5 -85t-110.5 -31q-109 0 -176.5 73t-67.5 193v405q-86 -35 -123 70q-35 103 72 143l51 21v612q0 71 37.5 109.5t106.5 38.5t106 -38.5t37 -109.5v-514q108 38 143 -63q35 -102 -73 -144z" />
    <glyph glyph-name="Nacute" unicode="&#x143;" horiz-adv-x="1570" 
d="M651 1731q-111 -28 -133 45q-12 34 9.5 63t72.5 49l336 129q55 22 93.5 7t51.5 -64q31 -107 -86 -135zM1284 1647q71 0 109.5 -39.5t38.5 -112.5v-1311q0 -94 -50.5 -144t-144.5 -50h-20q-122 0 -173 92l-622 1102l10 -1051q1 -73 -36 -112t-109 -39q-71 0 -109.5 39
t-38.5 112v1311q0 94 50.5 144t144.5 50h20q121 0 172 -92l623 -1104l-12 1053q-1 73 37 112.5t110 39.5z" />
    <glyph glyph-name="nacute" unicode="&#x144;" horiz-adv-x="1253" 
d="M498 1309q-109 -36 -136 34q-30 68 72 119l318 170q53 26 92 13.5t59 -60.5q19 -47 -0.5 -83.5t-73.5 -55.5zM719 1182q193 0 310.5 -121.5t117.5 -319.5v-612q0 -71 -36.5 -109t-106.5 -38q-69 0 -106.5 38.5t-37.5 108.5v567q0 107 -63 172.5t-166 65.5
q-102 0 -166 -65.5t-64 -172.5v-567q0 -71 -36.5 -109t-106.5 -38q-69 0 -106 38t-37 109v903q0 71 34.5 109.5t98.5 38.5q63 0 97.5 -37.5t37.5 -108.5v-4q58 73 144 112.5t192 39.5z" />
    <glyph glyph-name="Ncommaaccent" unicode="&#x145;" horiz-adv-x="1570" 
d="M1284 1647q71 0 109.5 -39.5t38.5 -112.5v-1311q0 -94 -50.5 -144t-144.5 -50h-20q-122 0 -173 92l-622 1102l10 -1051q1 -73 -36 -112t-109 -39q-71 0 -109.5 39t-38.5 112v1311q0 94 50.5 144t144.5 50h20q121 0 172 -92l623 -1104l-12 1053q-1 73 37 112.5t110 39.5z
M836 -86q34 -12 53 -28t22.5 -36t-2 -41t-20.5 -47l-58 -127q-30 -50 -61 -67.5t-76 0.5q-101 37 -65 135l43 121q25 66 63 90.5t101 -0.5z" />
    <glyph glyph-name="ncommaaccent" unicode="&#x146;" horiz-adv-x="1253" 
d="M719 1182q193 0 310.5 -121.5t117.5 -319.5v-612q0 -71 -36.5 -109t-106.5 -38q-69 0 -106.5 38.5t-37.5 108.5v567q0 107 -63 172.5t-166 65.5q-102 0 -166 -65.5t-64 -172.5v-567q0 -71 -36.5 -109t-106.5 -38q-69 0 -106 38t-37 109v903q0 71 34.5 109.5t98.5 38.5
q63 0 97.5 -37.5t37.5 -108.5v-4q58 73 144 112.5t192 39.5zM676 -86q34 -12 53 -28t22.5 -36t-2 -41t-20.5 -47l-57 -127q-30 -50 -61 -67.5t-76 0.5q-102 37 -66 135l43 121q25 66 63 90.5t101 -0.5z" />
    <glyph glyph-name="Ncaron" unicode="&#x147;" horiz-adv-x="1570" 
d="M485 1925q-58 49 -12 113q42 57 107 16l204 -139l205 139q66 41 109 -20q44 -60 -17 -109l-239 -209q-24 -24 -58 -24q-33 0 -57 24zM1284 1647q71 0 109.5 -39.5t38.5 -112.5v-1311q0 -94 -50.5 -144t-144.5 -50h-20q-122 0 -173 92l-622 1102l10 -1051q1 -73 -36 -112
t-109 -39q-71 0 -109.5 39t-38.5 112v1311q0 94 50.5 144t144.5 50h20q121 0 172 -92l623 -1104l-12 1053q-1 73 37 112.5t110 39.5z" />
    <glyph glyph-name="ncaron" unicode="&#x148;" horiz-adv-x="1253" 
d="M328 1505q-59 53 -13 113q40 57 107 18l205 -139l204 139q66 38 109 -22q45 -57 -16 -109l-240 -209q-27 -24 -57 -24q-31 0 -58 24zM719 1182q193 0 310.5 -121.5t117.5 -319.5v-612q0 -71 -36.5 -109t-106.5 -38q-69 0 -106.5 38.5t-37.5 108.5v567q0 107 -63 172.5
t-166 65.5q-102 0 -166 -65.5t-64 -172.5v-567q0 -71 -36.5 -109t-106.5 -38q-69 0 -106 38t-37 109v903q0 71 34.5 109.5t98.5 38.5q63 0 97.5 -37.5t37.5 -108.5v-4q58 73 144 112.5t192 39.5z" />
    <glyph glyph-name="Eng" unicode="&#x14a;" horiz-adv-x="1568" 
d="M1284 1647q71 0 109.5 -39.5t38.5 -112.5l-2 -1384v-11q0 -235 -147.5 -377.5t-389.5 -142.5h-43q-64 0 -100.5 33.5t-36.5 95.5q0 59 34 94t95 35h35q114 0 183.5 77.5t69.5 205.5v6l-708 1096l10 -1090q1 -73 -36 -112t-109 -39q-71 0 -109.5 39t-38.5 112v1311
q0 94 51 144t146 50h16q121 0 178 -86l617 -946l-8 889q-2 74 35.5 113t109.5 39z" />
    <glyph glyph-name="eng" unicode="&#x14b;" horiz-adv-x="1253" 
d="M719 1182q193 0 310.5 -121.5t117.5 -319.5v-837q0 -146 -100.5 -235t-264.5 -89h-41q-60 0 -92.5 29.5t-32.5 83.5t30.5 83t86.5 29h19q49 0 78.5 31t29.5 84v776q0 107 -63 172.5t-166 65.5q-102 0 -166 -65.5t-64 -172.5v-567q0 -71 -36.5 -109t-106.5 -38
q-69 0 -106 38t-37 109v903q0 71 34.5 109.5t98.5 38.5q63 0 97.5 -37.5t37.5 -108.5v-4q58 73 144 112.5t192 39.5z" />
    <glyph glyph-name="Omacron" unicode="&#x14c;" horiz-adv-x="1552" 
d="M541 1784q-51 0 -79 27t-28 75q0 49 28 76t79 27h469q51 0 78.5 -26.5t27.5 -76.5q0 -49 -27.5 -75.5t-78.5 -26.5h-469zM776 -20q-312 0 -501 176t-189 465v387q0 289 189 465t501 176q154 0 282.5 -46.5t218 -129.5t139.5 -202.5t50 -262.5v-387q0 -143 -50 -262.5
t-139.5 -202.5t-218 -129.5t-282.5 -46.5zM776 244q177 0 284 108t107 285v354q0 177 -107 285t-284 108t-284 -108t-107 -285v-354q0 -177 107 -285t284 -108z" />
    <glyph glyph-name="omacron" unicode="&#x14d;" horiz-adv-x="1220" 
d="M397 1399q-51 0 -78.5 26.5t-27.5 75.5q0 48 27.5 74.5t78.5 26.5h426q51 0 78 -26.5t27 -74.5q0 -102 -105 -102h-426zM610 -20q-245 0 -393.5 138t-148.5 365v195q0 227 149 365.5t393 138.5t392.5 -138.5t148.5 -365.5v-195q0 -227 -148.5 -365t-392.5 -138zM610 229
q115 0 184.5 72t69.5 191v178q0 119 -69.5 191.5t-184.5 72.5t-185.5 -72.5t-70.5 -191.5v-178q0 -119 70.5 -191t185.5 -72z" />
    <glyph glyph-name="Ohungarumlaut" unicode="&#x150;" horiz-adv-x="1552" 
d="M659 1749q-89 -68 -139 -12q-49 57 27 139l162 174q41 43 82 45.5t73 -37.5t25 -79.5t-53 -73.5zM1034 1749q-89 -68 -139 -12q-50 59 27 139l161 174q41 43 82.5 45.5t73.5 -37.5t24.5 -79.5t-53.5 -73.5zM776 -20q-312 0 -501 176t-189 465v387q0 289 189 465t501 176
q154 0 282.5 -46.5t218 -129.5t139.5 -202.5t50 -262.5v-387q0 -143 -50 -262.5t-139.5 -202.5t-218 -129.5t-282.5 -46.5zM776 244q177 0 284 108t107 285v354q0 177 -107 285t-284 108t-284 -108t-107 -285v-354q0 -177 107 -285t284 -108z" />
    <glyph glyph-name="ohungarumlaut" unicode="&#x151;" horiz-adv-x="1220" 
d="M496 1294q-90 -69 -140 -10q-50 56 27 139l162 174q42 43 82 45.5t73 -38.5q66 -81 -28 -154zM870 1294q-90 -68 -139 -10q-51 58 27 139l162 174q42 43 82 45.5t73 -38.5q66 -81 -28 -154zM610 -20q-245 0 -393.5 138t-148.5 365v195q0 227 149 365.5t393 138.5
t392.5 -138.5t148.5 -365.5v-195q0 -227 -148.5 -365t-392.5 -138zM610 229q115 0 184.5 72t69.5 191v178q0 119 -69.5 191.5t-184.5 72.5t-185.5 -72.5t-70.5 -191.5v-178q0 -119 70.5 -191t185.5 -72z" />
    <glyph glyph-name="OE" unicode="&#x152;" horiz-adv-x="2375" 
d="M2175 258q65 0 99 -33t34 -96t-34 -96t-99 -33h-877q-63 0 -97 34.5t-34 98.5v62q-79 -103 -199.5 -159t-267.5 -56q-277 0 -445.5 176t-168.5 465v387q0 289 168.5 465t445.5 176q147 0 267.5 -56t199.5 -159v61q0 64 34 98.5t97 34.5h856q65 0 99.5 -33t34.5 -96
t-34.5 -96t-99.5 -33h-688v-414h648q64 0 98.5 -32.5t34.5 -94.5q0 -63 -34 -96t-99 -33h-648v-442h709zM776 244q177 0 284 108t107 285v354q0 177 -107 285t-284 108t-284 -108t-107 -285v-354q0 -177 107 -285t284 -108z" />
    <glyph glyph-name="oe" unicode="&#x153;" horiz-adv-x="1990" 
d="M1411 1182q230 0 371 -137t141 -361v-74q0 -57 -30.5 -87.5t-86.5 -30.5h-655v-21q0 -122 69.5 -197t180.5 -75q137 0 235 110q56 52 131 31q37 -11 62 -31.5t35 -43.5t9.5 -46.5t-13.5 -42.5q-54 -92 -177 -144t-264 -52q-139 0 -246 62.5t-165 174.5
q-61 -112 -169 -174.5t-247 -62.5q-236 0 -380 140t-144 369v183q0 229 144 369.5t380 140.5q140 0 247.5 -62.5t166.5 -173.5q58 112 162.5 174t242.5 62zM1636 688v2q0 123 -66 198t-175 75t-176.5 -75t-67.5 -198v-2h485zM864 492v178q0 119 -69.5 191.5t-184.5 72.5
t-185.5 -72.5t-70.5 -191.5v-178q0 -119 70.5 -191t185.5 -72t184.5 72t69.5 191z" />
    <glyph glyph-name="Racute" unicode="&#x154;" horiz-adv-x="1472" 
d="M614 1731q-111 -28 -133 45q-12 34 9.5 63t72.5 49l336 129q55 22 93.5 7t51.5 -64q31 -107 -86 -135zM1405 1139q0 -148 -76 -255t-211 -153l236 -543q28 -64 8 -114t-86 -78q-65 -26 -114.5 -5t-78.5 87l-262 622h-383v-567q0 -73 -38.5 -112t-110.5 -39t-111 39
t-39 112v1362q0 65 34.5 99t98.5 34h650q218 0 350.5 -120t132.5 -318v-51zM438 1370v-414h467q89 0 145 55t56 144v19q0 89 -55.5 142.5t-145.5 53.5h-467z" />
    <glyph glyph-name="racute" unicode="&#x155;" horiz-adv-x="835" 
d="M301 1309q-108 -36 -135 34q-30 68 72 119l317 170q53 26 92.5 13.5t59.5 -60.5q19 -47 -0.5 -83.5t-73.5 -55.5zM647 1180q144 0 144 -138q0 -59 -37.5 -85.5t-120.5 -41.5q-107 -16 -169.5 -82.5t-62.5 -179.5v-524q0 -71 -36.5 -109t-106.5 -38q-69 0 -106 38t-37 109
v903q0 71 34.5 109.5t98.5 38.5q63 0 97.5 -37t37.5 -107q99 144 264 144z" />
    <glyph glyph-name="Rcommaaccent" unicode="&#x156;" horiz-adv-x="1472" 
d="M1405 1139q0 -148 -76 -255t-211 -153l236 -543q28 -64 8 -114t-86 -78q-65 -26 -114.5 -5t-78.5 87l-262 622h-383v-567q0 -73 -38.5 -112t-110.5 -39t-111 39t-39 112v1362q0 65 34.5 99t98.5 34h650q218 0 350.5 -120t132.5 -318v-51zM438 1370v-414h467q89 0 145 55
t56 144v19q0 89 -55.5 142.5t-145.5 53.5h-467zM799 -86q34 -12 53 -28t22.5 -36t-2 -41t-20.5 -47l-57 -127q-30 -49 -61.5 -67t-76.5 0q-101 37 -65 135l43 121q25 66 63 90.5t101 -0.5z" />
    <glyph glyph-name="rcommaaccent" unicode="&#x157;" horiz-adv-x="835" 
d="M647 1180q144 0 144 -138q0 -59 -37.5 -85.5t-120.5 -41.5q-107 -16 -169.5 -82.5t-62.5 -179.5v-524q0 -71 -36.5 -109t-106.5 -38q-69 0 -106 38t-37 109v903q0 71 34.5 109.5t98.5 38.5q63 0 97.5 -37t37.5 -107q99 144 264 144zM285 -86q34 -12 53 -28t22.5 -36
t-2 -41t-20.5 -47l-57 -127q-30 -49 -61.5 -67t-76.5 0q-101 37 -65 135l43 121q25 66 63 90.5t101 -0.5z" />
    <glyph glyph-name="Rcaron" unicode="&#x158;" horiz-adv-x="1472" 
d="M451 1925q-59 50 -13 113q42 57 107 16l205 -139l204 139q66 41 109 -20q45 -60 -16 -109l-240 -209q-24 -24 -57 -24q-34 0 -58 24zM1405 1139q0 -148 -76 -255t-211 -153l236 -543q28 -64 8 -114t-86 -78q-65 -26 -114.5 -5t-78.5 87l-262 622h-383v-567
q0 -73 -38.5 -112t-110.5 -39t-111 39t-39 112v1362q0 65 34.5 99t98.5 34h650q218 0 350.5 -120t132.5 -318v-51zM438 1370v-414h467q89 0 145 55t56 144v19q0 89 -55.5 142.5t-145.5 53.5h-467z" />
    <glyph glyph-name="rcaron" unicode="&#x159;" horiz-adv-x="835" 
d="M131 1505q-58 52 -12 113q39 57 106 18l205 -139l205 139q66 38 108 -22q45 -57 -16 -109l-240 -209q-27 -24 -57 -24t-57 24zM647 1180q144 0 144 -138q0 -59 -37.5 -85.5t-120.5 -41.5q-107 -16 -169.5 -82.5t-62.5 -179.5v-524q0 -71 -36.5 -109t-106.5 -38
q-69 0 -106 38t-37 109v903q0 71 34.5 109.5t98.5 38.5q63 0 97.5 -37t37.5 -107q99 144 264 144z" />
    <glyph glyph-name="Sacute" unicode="&#x15a;" horiz-adv-x="1398" 
d="M559 1731q-111 -28 -133 45q-12 34 9.5 63t72.5 49l336 129q55 22 93.5 7t51.5 -64q31 -107 -86 -135zM692 -20q-201 0 -359 65.5t-229 200.5q-30 48 -12 103.5t82 86.5q92 43 170 -35q140 -172 354 -172q155 0 249.5 64t94.5 168v10q0 61 -33 102.5t-88.5 64
t-127.5 37.5t-152 27.5t-160 28t-152 45.5t-127.5 74t-88.5 118.5t-33 174.5v26q0 216 169.5 348t448.5 132q180 0 324 -64.5t227 -185.5q37 -47 17 -106t-84 -87q-100 -40 -166 35q-126 158 -324 158q-147 0 -236 -57t-89 -150v-10q0 -62 33 -104.5t89.5 -65t129.5 -37.5
t153.5 -27.5t161 -28t153.5 -45t129 -73t89.5 -117.5t33.5 -174v-27q0 -226 -178.5 -364.5t-468.5 -138.5z" />
    <glyph glyph-name="sacute" unicode="&#x15b;" horiz-adv-x="1118" 
d="M426 1309q-108 -36 -135 34q-30 68 71 119l318 170q53 26 92 13.5t59 -60.5q19 -47 0 -83.5t-73 -55.5zM549 -20q-148 0 -281 52.5t-188 143.5q-25 41 1.5 91.5t98.5 72.5q72 20 131 -31q96 -102 246 -102q100 0 161.5 36t61.5 95v6q0 51 -39 80.5t-101 41t-137.5 19
t-151 23.5t-137.5 46t-101 94.5t-39 160.5v20q0 168 130.5 260.5t352.5 92.5q145 0 264 -48.5t170 -138.5q13 -19 14 -42.5t-9 -46t-35 -42.5t-62 -30q-76 -23 -131 28q-93 107 -219 107q-92 0 -147.5 -35t-55.5 -92v-4q0 -39 24.5 -65t66 -39t95 -20.5t113 -14.5t118.5 -17
t112.5 -31.5t95 -54t66 -89t24.5 -132.5v-23q0 -177 -138.5 -274.5t-373.5 -97.5z" />
    <glyph glyph-name="Scedilla" unicode="&#x15e;" horiz-adv-x="1398" 
d="M367 1182q0 -62 33 -104.5t89.5 -65t129.5 -37.5t153.5 -27.5t161 -28t153.5 -45t129 -73t89.5 -117.5t33.5 -174v-27q0 -204 -147.5 -338.5t-396.5 -160.5l-19 -50q76 -22 119 -63t43 -94v-10q0 -85 -84.5 -136t-222.5 -51h-33q-44 0 -69 22t-25 62q0 41 23.5 60
t72.5 24q55 3 55 37v4q0 18 -13 28.5t-40 20.5q-33 12 -41.5 24t-1.5 36l27 86q-167 16 -294 80.5t-188 181.5q-30 48 -12 103.5t82 86.5q92 43 170 -35q140 -172 354 -172q155 0 249.5 64t94.5 168v10q0 61 -33 102.5t-88.5 64t-127.5 37.5t-152 27.5t-160 28t-152 45.5
t-127.5 74t-88.5 118.5t-33 174.5v26q0 216 169.5 348t448.5 132q180 0 324 -64.5t227 -185.5q37 -47 17 -106t-84 -87q-100 -40 -166 35q-126 158 -324 158q-147 0 -236 -57t-89 -150v-10z" />
    <glyph glyph-name="scedilla" unicode="&#x15f;" horiz-adv-x="1118" 
d="M346 838q0 -39 24.5 -65t66 -39t95 -20.5t113 -14.5t118.5 -17t112.5 -31.5t95 -54t66 -89t24.5 -132.5v-23q0 -155 -107.5 -249.5t-296.5 -116.5l-20 -52q76 -22 119 -63t43 -94v-10q0 -85 -84.5 -136t-222.5 -51h-33q-44 0 -69 22t-25 62q0 41 23.5 60t72.5 24
q55 3 55 37v4q0 18 -13 28.5t-40 20.5q-33 12 -41.5 24t-1.5 36l26 88q-122 16 -222 65.5t-144 124.5q-25 41 1.5 91.5t98.5 72.5q72 20 131 -31q96 -102 246 -102q100 0 161.5 36t61.5 95v6q0 51 -39 80.5t-101 41t-137.5 19t-151 23.5t-137.5 46t-101 94.5t-39 160.5v20
q0 168 130.5 260.5t352.5 92.5q145 0 264 -48.5t170 -138.5q13 -19 14 -42.5t-9 -46t-35 -42.5t-62 -30q-76 -23 -131 28q-93 107 -219 107q-92 0 -147.5 -35t-55.5 -92v-4z" />
    <glyph glyph-name="Scaron" unicode="&#x160;" horiz-adv-x="1398" 
d="M694 1692q-33 0 -57 24l-242 209q-58 49 -12 113q41 57 106 16l205 -139l205 139q66 41 109 -20q44 -60 -17 -109l-239 -209q-24 -24 -58 -24zM692 -20q-201 0 -359 65.5t-229 200.5q-30 48 -12 103.5t82 86.5q92 43 170 -35q140 -172 354 -172q155 0 249.5 64t94.5 168
v10q0 61 -33 102.5t-88.5 64t-127.5 37.5t-152 27.5t-160 28t-152 45.5t-127.5 74t-88.5 118.5t-33 174.5v26q0 216 169.5 348t448.5 132q180 0 324 -64.5t227 -185.5q37 -47 17 -106t-84 -87q-100 -40 -166 35q-126 158 -324 158q-147 0 -236 -57t-89 -150v-10
q0 -62 33 -104.5t89.5 -65t129.5 -37.5t153.5 -27.5t161 -28t153.5 -45t129 -73t89.5 -117.5t33.5 -174v-27q0 -226 -178.5 -364.5t-468.5 -138.5z" />
    <glyph glyph-name="scaron" unicode="&#x161;" horiz-adv-x="1118" 
d="M555 1272q-30 0 -57 24l-242 209q-58 52 -12 113q39 57 106 18l205 -139l205 139q66 38 108 -22q45 -57 -16 -109l-240 -209q-27 -24 -57 -24zM549 -20q-148 0 -281 52.5t-188 143.5q-25 41 1.5 91.5t98.5 72.5q72 20 131 -31q96 -102 246 -102q100 0 161.5 36t61.5 95v6
q0 51 -39 80.5t-101 41t-137.5 19t-151 23.5t-137.5 46t-101 94.5t-39 160.5v20q0 168 130.5 260.5t352.5 92.5q145 0 264 -48.5t170 -138.5q13 -19 14 -42.5t-9 -46t-35 -42.5t-62 -30q-76 -23 -131 28q-93 107 -219 107q-92 0 -147.5 -35t-55.5 -92v-4q0 -39 24.5 -65
t66 -39t95 -20.5t113 -14.5t118.5 -17t112.5 -31.5t95 -54t66 -89t24.5 -132.5v-23q0 -177 -138.5 -274.5t-373.5 -97.5z" />
    <glyph glyph-name="uni0162" unicode="&#x162;" horiz-adv-x="1304" 
d="M1145 1628q65 0 99 -33t34 -96t-34 -96t-99 -33h-344v-1237q0 -53 -21 -88l-41 -108q75 -22 117.5 -63.5t42.5 -94.5v-10q0 -85 -83.5 -136t-221.5 -51h-33q-44 0 -69 22t-25 62q0 41 23 60t73 22q55 6 55 37v6q0 30 -53 49q-33 12 -41.5 24t-1.5 36l33 108
q-53 38 -53 125v1237h-342q-65 0 -99 33t-34 96t34 96t99 33h985z" />
    <glyph glyph-name="uni0163" unicode="&#x163;" horiz-adv-x="798" 
d="M637 225q57 0 87 -29t30 -83t-30 -83.5t-87 -29.5h-78q-37 0 -53 2l-27 -68q76 -22 119 -63t43 -94v-10q0 -85 -84.5 -136t-222.5 -51h-33q-44 0 -69 22t-25 62q0 41 23.5 60t72.5 24q55 3 55 37v4q0 18 -13 28.5t-40 20.5q-33 12 -41.5 24t-1.5 36l55 174
q-114 85 -114 241v623h-72q-57 0 -88 29.5t-31 83.5t31 83t88 29h78v180q0 71 36 109.5t103 38.5q69 0 105 -38.5t36 -109.5v-180h168q57 0 87 -29t30 -83t-30 -83.5t-87 -29.5h-168v-606q0 -46 28 -75.5t73 -29.5h47z" />
    <glyph glyph-name="Tcaron" unicode="&#x164;" horiz-adv-x="1304" 
d="M352 1925q-58 49 -12 113q41 57 106 16l205 -139l205 139q66 41 109 -20q44 -60 -17 -109l-239 -209q-24 -24 -58 -24q-33 0 -57 24zM1145 1628q65 0 99 -33t34 -96t-34 -96t-99 -33h-344v-1237q0 -73 -39 -112t-111 -39t-110.5 39t-38.5 112v1237h-342q-65 0 -99 33
t-34 96t34 96t99 33h985z" />
    <glyph glyph-name="tcaron" unicode="&#x165;" horiz-adv-x="798" 
d="M768 1663q53 -9 74 -40t4 -75l-80 -248q-15 -42 -44 -59.5t-65 -11.5q-77 13 -63 98l45 256q7 47 42 68t87 12zM657 936h-168v-606q0 -46 28 -75.5t73 -29.5h47q57 0 87 -29t30 -83t-30 -83.5t-87 -29.5h-78q-161 0 -258.5 86t-97.5 227v623h-72q-57 0 -88 29.5t-31 83.5
t31 83t88 29h78v180q0 71 36 109.5t103 38.5q69 0 105 -38.5t36 -109.5v-180h168q57 0 87 -29t30 -83t-30 -83.5t-87 -29.5z" />
    <glyph glyph-name="Tbar" unicode="&#x166;" horiz-adv-x="1325" 
d="M1155 1628q65 0 99 -33t34 -96t-34 -96t-99 -33h-344v-430h154q62 0 95.5 -29.5t33.5 -83.5q0 -55 -33.5 -84.5t-95.5 -29.5h-154v-580q0 -73 -38.5 -112t-110.5 -39t-111 39t-39 112v580h-150q-62 0 -95.5 29.5t-33.5 84.5q0 54 33.5 83.5t95.5 29.5h150v430h-342
q-65 0 -99 33t-34 96t34 96t99 33h985z" />
    <glyph glyph-name="tbar" unicode="&#x167;" horiz-adv-x="837" 
d="M657 225q57 0 87 -29t30 -83t-30 -83.5t-87 -29.5h-77q-161 0 -259 86t-98 227v170h-71q-57 0 -88 27.5t-31 79.5q0 51 31 77.5t88 26.5h71v242h-71q-57 0 -88 29.5t-31 83.5t31 83t88 29h77v180q0 71 36.5 109.5t103.5 38.5q69 0 105 -38.5t36 -109.5v-180h168
q57 0 87 -29t30 -83t-30 -83.5t-87 -29.5h-168v-242h168q57 0 88 -26.5t31 -77.5q0 -52 -31 -79.5t-88 -27.5h-168v-153q0 -46 27.5 -75.5t72.5 -29.5h47z" />
    <glyph glyph-name="Umacron" unicode="&#x16a;" horiz-adv-x="1509" 
d="M520 1784q-51 0 -78.5 27t-27.5 75q0 50 27.5 76.5t78.5 26.5h469q51 0 79 -27t28 -76t-28 -75.5t-79 -26.5h-469zM756 -20q-283 0 -456 159t-173 420v936q0 73 38.5 112.5t110.5 39.5t111 -39.5t39 -112.5v-920q0 -150 91 -240.5t239 -90.5t236.5 90t88.5 241v920
q0 73 39.5 112.5t112.5 39.5q72 0 110.5 -39.5t38.5 -112.5v-936q0 -261 -171.5 -420t-454.5 -159z" />
    <glyph glyph-name="umacron" unicode="&#x16b;" horiz-adv-x="1232" 
d="M406 1399q-51 0 -79 26.5t-28 75.5q0 47 28 74t79 27h425q51 0 78 -26.5t27 -74.5q0 -102 -105 -102h-425zM975 1180q69 0 106 -38.5t37 -109.5v-903q0 -71 -33 -109t-96 -38q-64 0 -99 36.5t-40 106.5q-120 -145 -326 -145q-188 0 -303 118.5t-115 311.5v622
q0 71 37.5 109.5t106.5 38.5t106 -38.5t37 -109.5v-577q0 -102 60 -164t159 -62t159 62t60 164v577q0 71 37.5 109.5t106.5 38.5z" />
    <glyph glyph-name="Uring" unicode="&#x16e;" horiz-adv-x="1509" 
d="M756 1704q-126 0 -202.5 60.5t-76.5 160.5v33q0 100 76.5 160.5t202.5 60.5q127 0 202.5 -60.5t75.5 -160.5v-33q0 -100 -75.5 -160.5t-202.5 -60.5zM756 1853q47 0 76.5 22t29.5 56v21q0 35 -29.5 56.5t-76.5 21.5t-76 -21.5t-29 -56.5v-21q0 -34 29 -56t76 -22z
M756 -20q-283 0 -456 159t-173 420v936q0 73 38.5 112.5t110.5 39.5t111 -39.5t39 -112.5v-920q0 -150 91 -240.5t239 -90.5t236.5 90t88.5 241v920q0 73 39.5 112.5t112.5 39.5q72 0 110.5 -39.5t38.5 -112.5v-936q0 -261 -171.5 -420t-454.5 -159z" />
    <glyph glyph-name="uring" unicode="&#x16f;" horiz-adv-x="1232" 
d="M618 1217q-126 0 -202 61t-76 162v30q0 100 76 161t202 61q127 0 203 -61t76 -161v-30q0 -101 -76 -162t-203 -61zM514 1464v-18q0 -35 28.5 -56.5t75.5 -21.5q48 0 77.5 21.5t29.5 56.5v18q0 35 -29.5 56.5t-77.5 21.5q-47 0 -75.5 -21.5t-28.5 -56.5zM975 1180
q69 0 106 -38.5t37 -109.5v-903q0 -71 -33 -109t-96 -38q-64 0 -99 36.5t-40 106.5q-120 -145 -326 -145q-188 0 -303 118.5t-115 311.5v622q0 71 37.5 109.5t106.5 38.5t106 -38.5t37 -109.5v-577q0 -102 60 -164t159 -62t159 62t60 164v577q0 71 37.5 109.5t106.5 38.5z
" />
    <glyph glyph-name="Uhungarumlaut" unicode="&#x170;" horiz-adv-x="1509" 
d="M639 1749q-89 -68 -139 -12q-49 58 26 139l162 174q41 43 82.5 45.5t73.5 -37.5t24.5 -79.5t-53.5 -73.5zM1014 1749q-90 -68 -140 -12q-50 59 27 139l162 174q41 43 82.5 45.5t73.5 -37.5t24.5 -79.5t-53.5 -73.5zM756 -20q-283 0 -456 159t-173 420v936
q0 73 38.5 112.5t110.5 39.5t111 -39.5t39 -112.5v-920q0 -150 91 -240.5t239 -90.5t236.5 90t88.5 241v920q0 73 39.5 112.5t112.5 39.5q72 0 110.5 -39.5t38.5 -112.5v-936q0 -261 -171.5 -420t-454.5 -159z" />
    <glyph glyph-name="uhungarumlaut" unicode="&#x171;" horiz-adv-x="1232" 
d="M504 1294q-90 -68 -139 -10q-50 57 26 139l162 174q42 43 82.5 45.5t73.5 -38.5q66 -81 -29 -154zM739 1284q-51 58 27 139l162 174q42 43 82 45.5t73 -38.5q66 -81 -28 -154l-176 -156q-90 -69 -140 -10zM975 1180q69 0 106 -38.5t37 -109.5v-903q0 -71 -33 -109
t-96 -38q-64 0 -99 36.5t-40 106.5q-120 -145 -326 -145q-188 0 -303 118.5t-115 311.5v622q0 71 37.5 109.5t106.5 38.5t106 -38.5t37 -109.5v-577q0 -102 60 -164t159 -62t159 62t60 164v577q0 71 37.5 109.5t106.5 38.5z" />
    <glyph glyph-name="Uogonek" unicode="&#x172;" horiz-adv-x="1509" 
d="M1233 1647q72 0 110.5 -39.5t38.5 -112.5v-936q0 -209 -112 -355.5t-307 -197.5q-67 -28 -107.5 -64.5t-40.5 -70.5v-6q0 -47 82 -84q52 -19 69 -35.5t17 -58.5q0 -60 -44 -92.5t-128 -32.5h-8q-120 0 -193 62t-73 163v10q0 104 108 189q-238 32 -378 186t-140 387v936
q0 73 38.5 112.5t110.5 39.5t111 -39.5t39 -112.5v-920q0 -150 91 -240.5t239 -90.5t236.5 90t88.5 241v920q0 73 39.5 112.5t112.5 39.5z" />
    <glyph glyph-name="uogonek" unicode="&#x173;" horiz-adv-x="1232" 
d="M1047 -219q52 -19 69 -35.5t17 -58.5q0 -60 -44 -92.5t-128 -32.5h-9q-121 0 -194.5 62t-73.5 163v10q0 67 50 130.5t140 113.5q-21 35 -24 84q-120 -145 -326 -145q-188 0 -303 118.5t-115 311.5v622q0 71 37.5 109.5t106.5 38.5t106 -38.5t37 -109.5v-577
q0 -102 60 -164t159 -62t159 62t60 164v577q0 71 37.5 109.5t106.5 38.5t106 -38.5t37 -109.5v-903q0 -100 -65 -135q-88 -60 -88 -119v-6q0 -29 20.5 -49t61.5 -39z" />
    <glyph glyph-name="Wcircumflex" unicode="&#x174;" horiz-adv-x="2113" 
d="M854 1729q-65 -41 -106 16q-46 64 12 113l241 210q26 23 58 23q31 0 57 -23l240 -210q61 -49 16 -109t-108 -20l-205 139zM1948 1640q69 -13 97 -58t13 -116l-286 -1292q-18 -84 -73.5 -134t-148.5 -50h-34q-94 0 -149 49.5t-73 134.5l-237 1108l-238 -1108
q-16 -84 -70.5 -134t-148.5 -50h-33q-93 0 -149 50t-74 134l-289 1292q-13 70 16.5 115t98.5 59t113.5 -16t56.5 -100l250 -1235l233 1173q15 88 67.5 132t149.5 44h35q187 0 215 -176l236 -1177l248 1239q27 144 174 116z" />
    <glyph glyph-name="wcircumflex" unicode="&#x175;" horiz-adv-x="1787" 
d="M690 1305q-65 -41 -106 16q-46 61 12 113l242 208q25 25 57 25t57 -25l240 -208q59 -51 16 -109q-43 -61 -108 -20l-205 139zM1630 1174q66 -13 93 -59.5t10 -115.5l-220 -815q-51 -194 -221 -194h-14q-177 0 -221 194l-162 666l-164 -666q-44 -194 -221 -194h-14
q-173 0 -224 194l-219 815q-17 69 11 115t94 60q66 15 110.5 -14t59.5 -99l184 -774l168 698q20 86 67 136t138 50h16q92 0 138.5 -50t66.5 -136l170 -698l184 774q13 70 58 99t112 14z" />
    <glyph glyph-name="Ycircumflex" unicode="&#x176;" horiz-adv-x="1439" 
d="M516 1729q-65 -41 -106 16q-46 64 12 113l242 210q26 23 57 23t57 -23l240 -210q61 -49 16 -109t-108 -20l-205 139zM1290 1622q62 -34 77 -84.5t-21 -112.5l-476 -778v-514q0 -73 -38.5 -112t-110.5 -39q-73 0 -111.5 38.5t-38.5 112.5v510l-477 782q-36 62 -21 113
t77 84q126 67 198 -59l373 -629l371 629q35 62 85.5 77t112.5 -18z" />
    <glyph glyph-name="ycircumflex" unicode="&#x177;" horiz-adv-x="1128" 
d="M358 1305q-65 -41 -106 16q-46 61 12 113l242 208q25 25 57 25q33 0 58 -25l239 -208q60 -51 17 -109q-43 -61 -109 -20l-205 139zM979 1169q64 -22 86.5 -70t-0.5 -114l-385 -1065q-60 -167 -181 -262.5t-286 -95.5q-54 0 -84.5 31t-30.5 88q0 52 26 80t73 28
q63 0 115.5 36.5t72.5 96.5l39 107l-358 956q-25 67 -3.5 115.5t87.5 68.5t113 -4t69 -90l243 -713l224 707q20 69 67 95.5t113 4.5z" />
    <glyph glyph-name="Ydieresis" unicode="&#x178;" horiz-adv-x="1439" 
d="M530 1737q-64 0 -98.5 33.5t-34.5 93.5v43q0 60 34.5 92.5t98.5 32.5q66 0 101 -32.5t35 -92.5v-43q0 -60 -35 -93.5t-101 -33.5zM909 1737q-64 0 -99.5 33.5t-35.5 93.5v43q0 60 35 92.5t100 32.5t100 -32.5t35 -92.5v-43q0 -61 -35 -94t-100 -33zM1290 1622
q62 -34 77 -84.5t-21 -112.5l-476 -778v-514q0 -73 -38.5 -112t-110.5 -39q-73 0 -111.5 38.5t-38.5 112.5v510l-477 782q-36 62 -21 113t77 84q126 67 198 -59l373 -629l371 629q35 62 85.5 77t112.5 -18z" />
    <glyph glyph-name="Zacute" unicode="&#x179;" horiz-adv-x="1359" 
d="M547 1731q-111 -28 -133 45q-12 34 9.5 63t72.5 49l335 129q55 22 94 7t52 -64q31 -107 -86 -135zM1184 256q133 0 133 -127q0 -63 -34 -96t-99 -33h-973q-79 0 -121.5 43t-42.5 121v10q0 51 13.5 88.5t45.5 77.5l838 1034l-745 -2q-63 0 -97 32t-34 95t34 96t97 33h931
q79 0 122.5 -43t43.5 -121v-10q0 -51 -13.5 -88.5t-45.5 -77.5l-838 -1034z" />
    <glyph glyph-name="zacute" unicode="&#x17a;" horiz-adv-x="1054" 
d="M401 1309q-108 -36 -135 34q-30 68 72 119l317 170q53 26 92.5 13.5t59.5 -60.5q19 -47 -0.5 -83.5t-73.5 -55.5zM885 225q57 0 88 -29t31 -83t-31 -83.5t-88 -29.5h-676q-74 0 -114 39t-40 111v4q0 84 56 145l546 641l-464 -2q-57 0 -87 28.5t-30 82.5t30.5 83t86.5 29
h634q74 0 115 -38.5t41 -108.5v-6q0 -83 -57 -146l-545 -641z" />
    <glyph glyph-name="Zdotaccent" unicode="&#x17b;" horiz-adv-x="1359" 
d="M682 1737q-79 0 -121.5 35t-42.5 98v31q0 63 42.5 97t121.5 34t121.5 -34t42.5 -97v-31q0 -63 -42.5 -98t-121.5 -35zM1184 256q133 0 133 -127q0 -63 -34 -96t-99 -33h-973q-79 0 -121.5 43t-42.5 121v10q0 51 13.5 88.5t45.5 77.5l838 1034l-745 -2q-63 0 -97 32
t-34 95t34 96t97 33h931q79 0 122.5 -43t43.5 -121v-10q0 -51 -13.5 -88.5t-45.5 -77.5l-838 -1034z" />
    <glyph glyph-name="zdotaccent" unicode="&#x17c;" horiz-adv-x="1054" 
d="M528 1352q-69 0 -106 34t-37 97v33q0 63 37 97t106 34t106.5 -34t37.5 -97v-33q0 -63 -37 -97t-107 -34zM885 225q57 0 88 -29t31 -83t-31 -83.5t-88 -29.5h-676q-74 0 -114 39t-40 111v4q0 84 56 145l546 641l-464 -2q-57 0 -87 28.5t-30 82.5t30.5 83t86.5 29h634
q74 0 115 -38.5t41 -108.5v-6q0 -83 -57 -146l-545 -641z" />
    <glyph glyph-name="Zcaron" unicode="&#x17d;" horiz-adv-x="1359" 
d="M383 1925q-58 49 -12 113q41 57 106 16l205 -139l205 139q65 41 108 -20q45 -60 -16 -109l-240 -209q-24 -24 -57 -24t-57 24zM1184 256q133 0 133 -127q0 -63 -34 -96t-99 -33h-973q-79 0 -121.5 43t-42.5 121v10q0 51 13.5 88.5t45.5 77.5l838 1034l-745 -2
q-63 0 -97 32t-34 95t34 96t97 33h931q79 0 122.5 -43t43.5 -121v-10q0 -51 -13.5 -88.5t-45.5 -77.5l-838 -1034z" />
    <glyph glyph-name="zcaron" unicode="&#x17e;" horiz-adv-x="1054" 
d="M229 1505q-58 52 -12 113q40 57 107 18l204 -139l205 139q66 38 109 -22q44 -57 -17 -109l-239 -209q-27 -24 -58 -24q-30 0 -57 24zM885 225q57 0 88 -29t31 -83t-31 -83.5t-88 -29.5h-676q-74 0 -114 39t-40 111v4q0 84 56 145l546 641l-464 -2q-57 0 -87 28.5
t-30 82.5t30.5 83t86.5 29h634q74 0 115 -38.5t41 -108.5v-6q0 -83 -57 -146l-545 -641z" />
    <glyph glyph-name="uni018F" unicode="&#x18f;" horiz-adv-x="1507" 
d="M739 1649q308 0 496 -176.5t188 -466.5v-390q0 -287 -185 -461.5t-490 -174.5q-302 0 -487 172.5t-185 455.5v217q0 63 34.5 97t98.5 34h913v33q0 178 -105.5 286.5t-277.5 108.5q-181 0 -325 -165q-17 -18 -40.5 -30.5t-59.5 -17.5t-74 11q-42 16 -64.5 52t-20.5 70.5
t15 63.5q74 134 230 207.5t339 73.5zM748 244q169 0 271.5 107t102.5 282v67h-745v-75q0 -174 99 -277.5t272 -103.5z" />
    <glyph glyph-name="florin" unicode="&#x192;" horiz-adv-x="1257" 
d="M1059 956q63 0 97 -33t34 -94q0 -63 -34 -96t-97 -33h-281v-192q0 -229 -152 -368.5t-401 -139.5h-78q-79 0 -79 129q0 63 34 96t99 33h8q122 0 196 73.5t74 196.5v172h-278q-65 0 -99 33t-34 96q0 62 34.5 94.5t98.5 32.5h278v164q0 229 152.5 368.5t402.5 139.5h25
q63 0 97 -33t34 -96t-34 -96t-97 -33h-8q-123 0 -198 -73.5t-75 -196.5v-144h281z" />
    <glyph glyph-name="uni01C7" unicode="&#x1c7;" horiz-adv-x="1421" 
d="M258 700q-63 0 -97 34t-34 97v664q0 73 36.5 112.5t104.5 39.5q69 0 106.5 -39.5t37.5 -112.5v-539h229q64 0 98.5 -32.5t34.5 -94.5q0 -63 -34 -96t-99 -33h-383zM1141 1647q73 0 112 -39t39 -113v-977q0 -243 -160 -390.5t-421 -147.5q-174 0 -311.5 80.5t-204.5 234.5
q-23 48 1 108.5t87 88.5q92 37 157 -60q103 -188 271 -188q126 0 203 79.5t77 211.5v960q0 73 39 112.5t111 39.5z" />
    <glyph glyph-name="Scommaaccent" unicode="&#x218;" horiz-adv-x="1398" 
d="M692 -20q-201 0 -359 65.5t-229 200.5q-30 48 -12 103.5t82 86.5q92 43 170 -35q140 -172 354 -172q155 0 249.5 64t94.5 168v10q0 61 -33 102.5t-88.5 64t-127.5 37.5t-152 27.5t-160 28t-152 45.5t-127.5 74t-88.5 118.5t-33 174.5v26q0 216 169.5 348t448.5 132
q180 0 324 -64.5t227 -185.5q37 -47 17 -106t-84 -87q-100 -40 -166 35q-126 158 -324 158q-147 0 -236 -57t-89 -150v-10q0 -62 33 -104.5t89.5 -65t129.5 -37.5t153.5 -27.5t161 -28t153.5 -45t129 -73t89.5 -117.5t33.5 -174v-27q0 -226 -178.5 -364.5t-468.5 -138.5z
M602 -432q-101 37 -65 135l43 121q25 66 63 90.5t100 -0.5q45 -16 63.5 -40t14.5 -50t-24 -62l-58 -127q-30 -50 -61 -67.5t-76 0.5z" />
    <glyph glyph-name="scommaaccent" unicode="&#x219;" horiz-adv-x="1118" 
d="M549 -20q-148 0 -281 52.5t-188 143.5q-25 41 1.5 91.5t98.5 72.5q72 20 131 -31q96 -102 246 -102q100 0 161.5 36t61.5 95v6q0 51 -39 80.5t-101 41t-137.5 19t-151 23.5t-137.5 46t-101 94.5t-39 160.5v20q0 168 130.5 260.5t352.5 92.5q145 0 264 -48.5t170 -138.5
q13 -19 14 -42.5t-9 -46t-35 -42.5t-62 -30q-76 -23 -131 28q-93 107 -219 107q-92 0 -147.5 -35t-55.5 -92v-4q0 -39 24.5 -65t66 -39t95 -20.5t113 -14.5t118.5 -17t112.5 -31.5t95 -54t66 -89t24.5 -132.5v-23q0 -177 -138.5 -274.5t-373.5 -97.5zM463 -432
q-102 37 -66 135l43 121q25 66 63 90.5t101 -0.5q34 -12 53 -28t22.5 -36t-2 -41t-20.5 -47l-57 -127q-30 -50 -61 -67.5t-76 0.5z" />
    <glyph glyph-name="uni021A" unicode="&#x21a;" horiz-adv-x="1304" 
d="M1145 1628q65 0 99 -33t34 -96t-34 -96t-99 -33h-344v-1237q0 -73 -39 -112t-111 -39t-110.5 39t-38.5 112v1237h-342q-65 0 -99 33t-34 96t34 96t99 33h985zM690 -86q34 -12 53 -28t22.5 -36t-2 -41t-20.5 -47l-57 -127q-30 -50 -61 -67.5t-76 0.5q-102 37 -66 135
l43 121q25 66 63 90.5t101 -0.5z" />
    <glyph glyph-name="uni021B" unicode="&#x21b;" horiz-adv-x="798" 
d="M637 225q57 0 87 -29t30 -83t-30 -83.5t-87 -29.5h-78q-161 0 -258.5 86t-97.5 227v623h-72q-57 0 -88 29.5t-31 83.5t31 83t88 29h78v180q0 71 36 109.5t103 38.5q69 0 105 -38.5t36 -109.5v-180h168q57 0 87 -29t30 -83t-30 -83.5t-87 -29.5h-168v-606q0 -46 28 -75.5
t73 -29.5h47zM446 -86q45 -16 63.5 -40t14.5 -50t-24 -62l-58 -127q-30 -50 -61 -67.5t-76 0.5q-101 37 -65 135l43 121q25 66 63 90.5t100 -0.5z" />
    <glyph glyph-name="uni0237" unicode="&#x237;" horiz-adv-x="528" 
d="M137 -438q-67 0 -110 31t-43 85q0 65 57 101q42 22 64 52.5t22 78.5v1122q0 71 36.5 109.5t106.5 38.5q69 0 106.5 -38.5t37.5 -109.5v-1143q0 -146 -79 -236.5t-198 -90.5z" />
    <glyph glyph-name="uni0259" unicode="&#x259;" horiz-adv-x="1191" 
d="M588 1182q241 0 388.5 -137t147.5 -361v-207q0 -224 -145 -360.5t-383 -136.5t-384 136.5t-146 360.5v94q0 56 30.5 86.5t87.5 30.5h654v2q0 123 -68.5 198t-181.5 75q-137 0 -236 -111q-53 -53 -131 -29q-36 11 -60.5 31t-34.5 42.5t-9.5 46t12.5 42.5q54 93 180 145
t279 52zM596 199q109 0 175.5 74.5t66.5 197.5v21h-486v-21q0 -123 67.5 -197.5t176.5 -74.5z" />
    <glyph glyph-name="circumflex" unicode="&#x2c6;" horiz-adv-x="921" 
d="M150 1321q-46 61 12 113l241 208q25 25 58 25q32 0 57 -25l240 -208q59 -51 16 -109q-43 -61 -108 -20l-205 139l-205 -139q-65 -41 -106 16z" />
    <glyph glyph-name="caron" unicode="&#x2c7;" horiz-adv-x="921" 
d="M461 1272q-31 0 -58 24l-241 209q-58 52 -12 113q39 57 106 18l205 -139l205 139q66 38 108 -22q45 -57 -16 -109l-240 -209q-27 -24 -57 -24z" />
    <glyph glyph-name="breve" unicode="&#x2d8;" horiz-adv-x="921" 
d="M461 1278q-130 0 -219.5 70t-114.5 184q-12 48 15 81.5t79 33.5q29 0 53 -18t37 -46q22 -59 59 -82.5t91 -23.5q109 0 149 106q13 28 37 46t53 18q52 0 79.5 -33.5t15.5 -81.5q-25 -114 -115 -184t-219 -70z" />
    <glyph glyph-name="dotaccent" unicode="&#x2d9;" horiz-adv-x="483" 
d="M242 1352q-69 0 -106.5 34t-37.5 97v33q0 63 37.5 97t106.5 34t106 -34t37 -97v-33q0 -63 -36.5 -97t-106.5 -34z" />
    <glyph glyph-name="ring" unicode="&#x2da;" horiz-adv-x="829" 
d="M414 1217q-126 0 -202.5 61t-76.5 162v30q0 100 76.5 161t202.5 61q127 0 202.5 -61t75.5 -161v-30q0 -101 -75.5 -162t-202.5 -61zM414 1368q47 0 76.5 21.5t29.5 56.5v18q0 35 -29.5 56.5t-76.5 21.5t-76 -21.5t-29 -56.5v-18q0 -35 29 -56.5t76 -21.5z" />
    <glyph glyph-name="ogonek" unicode="&#x2db;" horiz-adv-x="700" 
d="M393 -438q-121 0 -194.5 62t-73.5 163v10q0 97 102.5 184t266.5 130l14 -107q-49 -30 -75.5 -64.5t-26.5 -64.5v-6q0 -29 20 -49t61 -39q52 -19 69 -35.5t17 -58.5q0 -60 -44 -92.5t-128 -32.5h-8z" />
    <glyph glyph-name="tilde" unicode="&#x2dc;" horiz-adv-x="1130" 
d="M342 1393q-30 -20 -50 -23t-50 14q-34 23 -42 52.5t17 62.5q99 127 227 127q52 0 136 -37t125 -37t77 25q24 14 39.5 20t33.5 5t36 -13q71 -51 24 -116q-105 -127 -229 -127q-52 0 -136 36.5t-126 36.5q-46 0 -82 -26z" />
    <glyph glyph-name="hungarumlaut" unicode="&#x2dd;" horiz-adv-x="1015" 
d="M274 1294q-90 -68 -139 -10q-50 56 27 139l162 174q42 43 82 45.5t73 -38.5q66 -81 -28 -154zM649 1294q-90 -68 -139 -10q-51 58 27 139l161 174q42 43 82.5 45.5t73.5 -38.5q66 -81 -29 -154z" />
    <glyph glyph-name="gravecomb" unicode="&#x300;" 
d="M-100 1343q-27 -70 -138 -34l-331 137q-54 19 -72.5 55.5t0.5 83.5q21 48 58.5 61t90.5 -14l318 -170q102 -49 74 -119z" />
    <glyph glyph-name="acutecomb" unicode="&#x301;" 
d="M-518 1309q-108 -36 -135 34q-30 68 71 119l318 170q53 26 92 13.5t59 -60.5q19 -47 0 -83.5t-73 -55.5z" />
    <glyph glyph-name="uni0302" unicode="&#x302;" 
d="M-772 1321q-46 61 12 113l242 208q25 25 57 25q33 0 58 -25l239 -208q60 -51 17 -109q-43 -61 -109 -20l-205 139l-205 -139q-65 -41 -106 16z" />
    <glyph glyph-name="tildecomb" unicode="&#x303;" 
d="M-788 1393q-30 -20 -50.5 -23t-50.5 14q-34 23 -41.5 52.5t17.5 62.5q99 127 227 127q52 0 135.5 -37t124.5 -37q42 0 78 25q25 14 40 20t32.5 5t35.5 -13q72 -52 25 -116q-105 -127 -229 -127q-52 0 -136 36.5t-127 36.5q-45 0 -81 -26z" />
    <glyph glyph-name="uni0304" unicode="&#x304;" 
d="M-590 1399q-51 0 -78.5 26.5t-27.5 75.5q0 48 27.5 74.5t78.5 26.5h426q51 0 78 -26.5t27 -74.5q0 -102 -105 -102h-426z" />
    <glyph glyph-name="uni0306" unicode="&#x306;" 
d="M-461 1278q-130 0 -219.5 70t-114.5 184q-12 48 15.5 81.5t79.5 33.5q29 0 53 -18t37 -46q22 -59 58.5 -82.5t90.5 -23.5q110 0 150 106q13 28 37 46t53 18q52 0 79 -33.5t15 -81.5q-25 -114 -115 -184t-219 -70z" />
    <glyph glyph-name="uni0307" unicode="&#x307;" 
d="M-242 1352q-69 0 -106 34t-37 97v33q0 63 37 97t106 34t106.5 -34t37.5 -97v-33q0 -63 -37 -97t-107 -34z" />
    <glyph glyph-name="uni0308" unicode="&#x308;" 
d="M-639 1352q-64 0 -98.5 33t-34.5 92v43q0 60 34.5 93.5t98.5 33.5q65 0 100 -33t35 -94v-43q0 -59 -35 -92t-100 -33zM-260 1352q-64 0 -99.5 33t-35.5 92v43q0 60 35.5 93.5t99.5 33.5t99.5 -33.5t35.5 -93.5v-43q0 -59 -35 -92t-100 -33z" />
    <glyph glyph-name="uni030A" unicode="&#x30a;" 
d="M-416 1217q-126 0 -202 61t-76 162v30q0 100 76 161t202 61q127 0 203 -61t76 -161v-30q0 -101 -76 -162t-203 -61zM-416 1368q48 0 77.5 21.5t29.5 56.5v18q0 35 -29.5 56.5t-77.5 21.5q-47 0 -75.5 -21.5t-28.5 -56.5v-18q0 -35 28.5 -56.5t75.5 -21.5z" />
    <glyph glyph-name="uni030B" unicode="&#x30b;" 
d="M-741 1294q-90 -69 -140 -10q-50 56 27 139l162 174q42 43 82 45.5t73 -38.5q66 -81 -28 -154zM-367 1294q-90 -68 -139 -10q-51 58 27 139l162 174q42 43 82 45.5t73 -38.5q66 -81 -28 -154z" />
    <glyph glyph-name="uni030C" unicode="&#x30c;" 
d="M-461 1272q-30 0 -57 24l-242 209q-58 52 -12 113q39 57 106 18l205 -139l205 139q66 38 109 -22q44 -57 -17 -109l-239 -209q-27 -24 -58 -24z" />
    <glyph glyph-name="uni0312" unicode="&#x312;" 
d="M-217 1640q50 -18 62.5 -50.5t-5.5 -84.5l-41 -143q-20 -65 -53 -87t-96 -3q-125 39 -53 166l55 135q29 49 57 66t74 1z" />
    <glyph glyph-name="uni0326" unicode="&#x326;" 
d="M-385 -432q-102 37 -66 135l43 121q25 66 63 90.5t101 -0.5q45 -16 63.5 -40t14.5 -50t-24 -62l-58 -127q-30 -50 -61 -67.5t-76 0.5z" />
    <glyph glyph-name="uni0327" unicode="&#x327;" 
d="M-264 -66q76 -22 119 -63t43 -94v-10q0 -85 -85 -136t-223 -51h-32q-44 0 -69.5 22t-25.5 62q0 41 24 60t73 24q55 3 55 37v4q0 18 -13 28.5t-40 20.5q-33 12 -41.5 24t-1.5 36l67 217l195 -64z" />
    <glyph glyph-name="uni0328" unicode="&#x328;" 
d="M-307 -438q-121 0 -194.5 62t-73.5 163v10q0 97 102 184t266 130l14 -107q-49 -30 -75.5 -64.5t-26.5 -64.5v-6q0 -29 20.5 -49t61.5 -39q52 -19 69 -35.5t17 -58.5q0 -60 -44 -92.5t-128 -32.5h-8z" />
    <glyph glyph-name="uni0335" unicode="&#x335;" 
d="M-715 715q-57 0 -88 27t-31 79q0 51 31 78t88 27h527q57 0 87.5 -27t30.5 -78q0 -106 -118 -106h-527z" />
    <glyph glyph-name="uni0336" unicode="&#x336;" 
d="M-1528 707q-57 0 -88 29.5t-31 84.5q0 54 31 83.5t88 29.5h1288q57 0 88 -29.5t31 -83.5q0 -55 -31 -84.5t-88 -29.5h-1288z" />
    <glyph glyph-name="uni0394" unicode="&#x394;" horiz-adv-x="1503" 
d="M1436 195q10 -33 10 -62q0 -63 -48 -98t-114 -35h-1065q-66 0 -113 36t-47 97q0 32 9 62l421 1269q26 84 89.5 129t158.5 45h31q95 0 158.5 -45t89.5 -129zM752 1356l-357 -1098h713z" />
    <glyph glyph-name="uni03A9" unicode="&#x3a9;" horiz-adv-x="1615" 
d="M1370 258q71 0 108.5 -33t37.5 -96t-37.5 -96t-108.5 -33h-342q-64 0 -98.5 34t-34.5 97v2q0 56 25 90.5t79 71.5q93 40 147 134t54 220v342q0 177 -108 285t-283 108q-177 0 -284 -108t-107 -285v-342q0 -126 53 -219t145 -135q56 -42 80.5 -75t24.5 -89
q0 -63 -34.5 -97t-98.5 -34h-340q-71 0 -109.5 33t-38.5 96t38.5 96t109.5 33h59q-90 73 -139 177t-49 229v344q0 289 189 465t501 176q154 0 282.5 -46.5t218 -129.5t139.5 -202.5t50 -262.5v-344q0 -125 -49 -229t-139 -177h59z" />
    <glyph glyph-name="pi" unicode="&#x3c0;" horiz-adv-x="1406" 
d="M1274 1161q57 0 88 -29t31 -83t-31 -83.5t-88 -29.5h-80v-807q0 -71 -36.5 -109t-106.5 -38q-69 0 -106.5 38.5t-37.5 108.5v807h-405v-807q0 -70 -37.5 -108.5t-106.5 -38.5q-70 0 -106.5 38t-36.5 109v807h-82q-57 0 -88 29.5t-31 83.5t31 83t88 29h1141z" />
    <glyph glyph-name="Wgrave" unicode="&#x1e80;" horiz-adv-x="2113" 
d="M848 1825q-57 13 -79 48.5t-7 86.5q15 49 53 64t92 -7l338 -129q106 -42 82 -112q-22 -73 -135 -45zM1948 1640q69 -13 97 -58t13 -116l-286 -1292q-18 -84 -73.5 -134t-148.5 -50h-34q-94 0 -149 49.5t-73 134.5l-237 1108l-238 -1108q-16 -84 -70.5 -134t-148.5 -50
h-33q-93 0 -149 50t-74 134l-289 1292q-13 70 16.5 115t98.5 59t113.5 -16t56.5 -100l250 -1235l233 1173q15 88 67.5 132t149.5 44h35q187 0 215 -176l236 -1177l248 1239q27 144 174 116z" />
    <glyph glyph-name="wgrave" unicode="&#x1e81;" horiz-adv-x="1787" 
d="M690 1446q-54 19 -72.5 55.5t0.5 83.5q21 48 59 61t91 -14l317 -170q102 -49 74 -119q-27 -70 -137 -34zM1630 1174q66 -13 93 -59.5t10 -115.5l-220 -815q-51 -194 -221 -194h-14q-177 0 -221 194l-162 666l-164 -666q-44 -194 -221 -194h-14q-173 0 -224 194l-219 815
q-17 69 11 115t94 60q66 15 110.5 -14t59.5 -99l184 -774l168 698q20 86 67 136t138 50h16q92 0 138.5 -50t66.5 -136l170 -698l184 774q13 70 58 99t112 14z" />
    <glyph glyph-name="Wacute" unicode="&#x1e82;" horiz-adv-x="2113" 
d="M924 1731q-111 -28 -133 45q-25 70 81 112l336 129q55 22 94 7t52 -64q31 -107 -86 -135zM1948 1640q69 -13 97 -58t13 -116l-286 -1292q-18 -84 -73.5 -134t-148.5 -50h-34q-94 0 -149 49.5t-73 134.5l-237 1108l-238 -1108q-16 -84 -70.5 -134t-148.5 -50h-33
q-93 0 -149 50t-74 134l-289 1292q-13 70 16.5 115t98.5 59t113.5 -16t56.5 -100l250 -1235l233 1173q15 88 67.5 132t149.5 44h35q187 0 215 -176l236 -1177l248 1239q27 144 174 116z" />
    <glyph glyph-name="wacute" unicode="&#x1e83;" horiz-adv-x="1787" 
d="M766 1309q-108 -36 -135 34q-30 68 71 119l318 170q53 26 92 13.5t59 -60.5q19 -47 0 -83.5t-73 -55.5zM1630 1174q66 -13 93 -59.5t10 -115.5l-220 -815q-51 -194 -221 -194h-14q-177 0 -221 194l-162 666l-164 -666q-44 -194 -221 -194h-14q-173 0 -224 194l-219 815
q-17 69 11 115t94 60q66 15 110.5 -14t59.5 -99l184 -774l168 698q20 86 67 136t138 50h16q92 0 138.5 -50t66.5 -136l170 -698l184 774q13 70 58 99t112 14z" />
    <glyph glyph-name="Wdieresis" unicode="&#x1e84;" horiz-adv-x="2113" 
d="M868 1737q-64 0 -98.5 33.5t-34.5 93.5v43q0 60 34.5 92.5t98.5 32.5q66 0 101 -32.5t35 -92.5v-43q0 -60 -35 -93.5t-101 -33.5zM1247 1737q-64 0 -99.5 33.5t-35.5 93.5v43q0 60 35 92.5t100 32.5t100 -32.5t35 -92.5v-43q0 -61 -35 -94t-100 -33zM1948 1640
q69 -13 97 -58t13 -116l-286 -1292q-18 -84 -73.5 -134t-148.5 -50h-34q-94 0 -149 49.5t-73 134.5l-237 1108l-238 -1108q-16 -84 -70.5 -134t-148.5 -50h-33q-93 0 -149 50t-74 134l-289 1292q-13 70 16.5 115t98.5 59t113.5 -16t56.5 -100l250 -1235l233 1173
q15 88 67.5 132t149.5 44h35q187 0 215 -176l236 -1177l248 1239q27 144 174 116z" />
    <glyph glyph-name="wdieresis" unicode="&#x1e85;" horiz-adv-x="1787" 
d="M705 1352q-64 0 -99 33t-35 92v43q0 60 35 93.5t99 33.5q65 0 100 -33t35 -94v-43q0 -59 -35 -92t-100 -33zM1083 1352q-64 0 -99.5 33t-35.5 92v43q0 60 35.5 93.5t99.5 33.5t100 -33.5t36 -93.5v-43q0 -59 -35.5 -92t-100.5 -33zM1630 1174q66 -13 93 -59.5t10 -115.5
l-220 -815q-51 -194 -221 -194h-14q-177 0 -221 194l-162 666l-164 -666q-44 -194 -221 -194h-14q-173 0 -224 194l-219 815q-17 69 11 115t94 60q66 15 110.5 -14t59.5 -99l184 -774l168 698q20 86 67 136t138 50h16q92 0 138.5 -50t66.5 -136l170 -698l184 774
q13 70 58 99t112 14z" />
    <glyph glyph-name="uni1E9E" unicode="&#x1e9e;" horiz-adv-x="1517" 
d="M1018 940q200 -15 321 -136t121 -302v-51q0 -203 -139.5 -327t-368.5 -124h-182q-54 0 -83.5 33t-29.5 96t34.5 96t99.5 33h145q101 0 162 57.5t61 151.5v27q0 93 -61 149.5t-162 56.5h-88q-72 0 -112 36t-40 102v14q0 91 56 164l268 358l-582 -2v-1239q0 -73 -38.5 -112
t-110.5 -39t-111 39t-39 112v1362q0 65 34.5 99t98.5 34h924q83 0 127.5 -43t44.5 -121v-10q0 -94 -61 -166z" />
    <glyph glyph-name="Ygrave" unicode="&#x1ef2;" horiz-adv-x="1439" 
d="M510 1825q-57 13 -79 48.5t-7 86.5q15 49 53 64t92 -7l338 -129q106 -42 82 -112q-22 -73 -135 -45zM1290 1622q62 -34 77 -84.5t-21 -112.5l-476 -778v-514q0 -73 -38.5 -112t-110.5 -39q-73 0 -111.5 38.5t-38.5 112.5v510l-477 782q-36 62 -21 113t77 84
q126 67 198 -59l373 -629l371 629q35 62 85.5 77t112.5 -18z" />
    <glyph glyph-name="ygrave" unicode="&#x1ef3;" horiz-adv-x="1128" 
d="M358 1446q-54 19 -72 55.5t1 83.5q21 48 58.5 61t90.5 -14l318 -170q101 -49 73 -119q-27 -70 -137 -34zM979 1169q64 -22 86.5 -70t-0.5 -114l-385 -1065q-60 -167 -181 -262.5t-286 -95.5q-54 0 -84.5 31t-30.5 88q0 52 26 80t73 28q63 0 115.5 36.5t72.5 96.5l39 107
l-358 956q-25 67 -3.5 115.5t87.5 68.5t113 -4t69 -90l243 -713l224 707q20 69 67 95.5t113 4.5z" />
    <glyph glyph-name="endash" unicode="&#x2013;" horiz-adv-x="1071" 
d="M223 477q-57 0 -87 29.5t-30 83.5t30 83t87 29h625q57 0 88 -29t31 -83t-31 -83.5t-88 -29.5h-625z" />
    <glyph glyph-name="emdash" unicode="&#x2014;" horiz-adv-x="1785" 
d="M223 477q-57 0 -87 29.5t-30 83.5t30 83t87 29h1340q56 0 86 -29t30 -83t-30.5 -83.5t-85.5 -29.5h-1340z" />
    <glyph glyph-name="quoteleft" unicode="&#x2018;" horiz-adv-x="487" 
d="M332 1638q100 -24 84 -133l-47 -266q-10 -70 -53.5 -100t-112.5 -15q-70 17 -94 64.5t2 116.5l84 256q40 98 137 77z" />
    <glyph glyph-name="quoteright" unicode="&#x2019;" horiz-adv-x="473" 
d="M172 1124q-100 24 -84 133l47 267q10 70 53.5 99.5t112.5 14.5q70 -17 94 -64t-2 -116l-84 -256q-40 -99 -137 -78z" />
    <glyph glyph-name="quotesinglbase" unicode="&#x201a;" horiz-adv-x="501" 
d="M143 -219q-100 24 -84 133l47 266q10 70 53.5 100t112.5 15q71 -17 95 -64t-2 -116l-84 -256q-40 -99 -138 -78z" />
    <glyph glyph-name="quotedblleft" unicode="&#x201c;" horiz-adv-x="856" 
d="M332 1638q100 -24 84 -133l-47 -266q-10 -70 -53.5 -100t-112.5 -15q-70 17 -94 64.5t2 116.5l84 256q40 98 137 77zM700 1638q100 -24 84 -133l-47 -266q-10 -70 -53.5 -100t-112.5 -15q-70 17 -94 64.5t2 116.5l84 256q40 98 137 77z" />
    <glyph glyph-name="quotedblright" unicode="&#x201d;" horiz-adv-x="839" 
d="M172 1124q-100 24 -84 133l47 267q10 70 53.5 99.5t112.5 14.5q70 -17 94 -64t-2 -116l-84 -256q-40 -99 -137 -78zM541 1124q-100 24 -84 133l47 267q10 70 53.5 99.5t112.5 14.5q70 -17 94 -64t-2 -116l-84 -256q-40 -99 -137 -78z" />
    <glyph glyph-name="quotedblbase" unicode="&#x201e;" horiz-adv-x="870" 
d="M143 -219q-100 24 -84 133l47 266q10 70 53.5 100t112.5 15q71 -17 95 -64t-2 -116l-84 -256q-40 -99 -138 -78zM512 -219q-100 24 -84 133l47 266q10 70 53.5 100t112.5 15q70 -17 94 -64t-2 -116l-84 -256q-40 -99 -137 -78z" />
    <glyph glyph-name="dagger" unicode="&#x2020;" horiz-adv-x="720" 
d="M569 1427q90 0 90 -73q0 -74 -90 -74h-120v-362q0 -44 -23 -68.5t-66 -24.5q-41 0 -63.5 24.5t-22.5 68.5v362h-122q-43 0 -67 19.5t-24 54.5t24 54t67 19h122v113q0 90 86 90q42 0 65.5 -23t23.5 -67v-113h120z" />
    <glyph glyph-name="daggerdbl" unicode="&#x2021;" horiz-adv-x="768" 
d="M176 1280q-44 0 -68 19.5t-24 54.5t24 54t68 19h121v113q0 90 86 90q42 0 65 -23t23 -67v-113h121q44 0 68 -19t24 -54t-24 -54.5t-68 -19.5h-416zM592 1176q44 0 68 -20t24 -54q0 -37 -24 -56.5t-68 -19.5h-121v-108q0 -44 -23.5 -68.5t-64.5 -24.5t-63.5 24.5
t-22.5 68.5v108h-121q-44 0 -68 20t-24 56q0 34 24 54t68 20h416z" />
    <glyph glyph-name="bullet" unicode="&#x2022;" horiz-adv-x="759" 
d="M381 328q-115 0 -184.5 66.5t-69.5 176.5v25q0 110 69.5 177t184.5 67q114 0 183 -67t69 -177v-25q0 -110 -69 -176.5t-183 -66.5z" />
    <glyph glyph-name="ellipsis" unicode="&#x2026;" horiz-adv-x="1425" 
d="M246 -18q-75 0 -115.5 38.5t-40.5 110.5v23q0 73 40.5 111t115.5 38q74 0 113.5 -38t39.5 -111v-23q0 -72 -39 -110.5t-114 -38.5zM713 -18q-75 0 -115.5 38.5t-40.5 110.5v23q0 73 40.5 111t115.5 38q74 0 113.5 -38t39.5 -111v-23q0 -72 -39 -110.5t-114 -38.5z
M1182 -18q-75 0 -115.5 38.5t-40.5 110.5v23q0 73 40.5 111t115.5 38q74 0 113.5 -38t39.5 -111v-23q0 -72 -39 -110.5t-114 -38.5z" />
    <glyph glyph-name="perthousand" unicode="&#x2030;" horiz-adv-x="2430" 
d="M385 805q-148 0 -238 80.5t-90 212.5v250q0 131 90.5 211.5t237.5 80.5q150 0 241 -80.5t91 -211.5v-250q0 -132 -91 -212.5t-241 -80.5zM524 70q-25 -43 -61 -54t-78 13q-86 51 -35 139l805 1393q25 43 61.5 53t77.5 -15q86 -51 35 -139zM385 991q53 0 85 31.5t32 83.5
v231q0 53 -31.5 85t-85.5 32q-53 0 -85 -32t-32 -85v-231q0 -51 32.5 -83t84.5 -32zM1292 -10q-148 0 -237.5 80.5t-89.5 212.5v249q0 131 90 212t237 81q150 0 241 -81t91 -212v-249q0 -132 -91 -212.5t-241 -80.5zM2044 -10q-148 0 -238 80.5t-90 212.5v249
q0 131 90.5 212t237.5 81q150 0 241 -81t91 -212v-249q0 -132 -91 -212.5t-241 -80.5zM1292 176q54 0 85.5 32t31.5 83v231q0 53 -31.5 85t-85.5 32q-52 0 -84 -32t-32 -85v-231q0 -51 32 -83t84 -32zM2044 176q54 0 85.5 32t31.5 83v231q0 53 -31.5 85t-85.5 32
q-52 0 -84.5 -32.5t-32.5 -84.5v-231q0 -51 32.5 -83t84.5 -32z" />
    <glyph glyph-name="guilsinglleft" unicode="&#x2039;" horiz-adv-x="1144" 
d="M948 373q124 -45 86 -158q-19 -55 -62.5 -71.5t-103.5 8.5l-704 282q-111 45 -111 156q0 110 111 155l704 283q60 25 104.5 9t61.5 -70q38 -116 -86 -158l-592 -219z" />
    <glyph glyph-name="guilsinglright" unicode="&#x203a;" horiz-adv-x="1144" 
d="M981 745q111 -45 111 -155q0 -111 -111 -156l-705 -282q-60 -25 -103 -8.5t-62 71.5q-38 113 86 158l591 217l-591 219q-124 42 -86 158q17 54 61 70t104 -9z" />
    <glyph glyph-name="fraction" unicode="&#x2044;" horiz-adv-x="192" 
d="M-219 70q-25 -43 -61 -54t-78 13q-86 51 -35 139l805 1393q25 43 61.5 53t77.5 -15q86 -51 35 -139z" />
    <glyph glyph-name="lira" unicode="&#x20a4;" horiz-adv-x="1529" 
d="M201 881q-103 0 -103 100q0 47 26.5 72.5t76.5 25.5h84v416q0 73 38.5 112.5t110.5 39.5q74 0 113 -39.5t39 -112.5v-416h454q50 0 76.5 -25.5t26.5 -72.5q0 -100 -103 -100h-839zM1337 420q47 -15 73.5 -47.5t26 -67.5t-19.5 -69q-142 -236 -499 -236h-500
q-64 0 -98.5 34t-34.5 99v445h-84q-50 0 -76.5 25.5t-26.5 72.5q0 100 103 100h839q103 0 103 -100q0 -47 -26.5 -72.5t-76.5 -25.5h-454v-320h332q147 0 264 129q79 58 155 33z" />
    <glyph glyph-name="Euro" unicode="&#x20ac;" horiz-adv-x="1517" 
d="M166 881q-103 0 -103 100q0 47 26.5 72.5t76.5 25.5h84q8 257 181 413.5t450 156.5q158 0 287.5 -59.5t199.5 -172.5q40 -50 19.5 -114.5t-89.5 -88.5q-91 -29 -153 29q-72 80 -131 110.5t-133 30.5q-138 0 -227.5 -83.5t-100.5 -221.5h453q49 0 75.5 -25.5t26.5 -72.5
q0 -100 -102 -100h-840zM1311 424q66 -23 88.5 -73.5t1.5 -92.5q-66 -137 -205 -207.5t-313 -70.5q-285 0 -459 160.5t-174 424.5v13h-84q-50 0 -76.5 25.5t-26.5 72.5q0 100 103 100h840q102 0 102 -100q0 -47 -26.5 -72.5t-75.5 -25.5h-455q1 -151 92.5 -242.5
t239.5 -91.5q176 0 270 147q52 68 158 33z" />
    <glyph glyph-name="uni20B1" unicode="&#x20b1;" horiz-adv-x="1562" 
d="M1389 1284q59 0 90.5 -31.5t31.5 -89.5t-31.5 -89.5t-90.5 -31.5h-54q-31 -157 -157.5 -249.5t-313.5 -92.5h-311v-567q0 -73 -39 -112t-111 -39t-110.5 39t-38.5 112v909h-64q-59 0 -90.5 31.5t-31.5 89.5t31.5 89.5t90.5 31.5h64v211q0 64 34 98.5t97 34.5h479
q188 0 315 -92.5t158 -251.5h52zM1047 1155v19q0 89 -55.5 142.5t-143.5 53.5h-295v-414h295q88 0 143.5 55t55.5 144z" />
    <glyph glyph-name="uni20B9" unicode="&#x20b9;" horiz-adv-x="1345" 
d="M174 1430q-49 0 -75.5 25.5t-26.5 72.5q0 100 102 100h1018q102 0 102 -100q0 -47 -26.5 -72.5t-75.5 -25.5h-1018zM1192 1323q49 0 75.5 -25.5t26.5 -72.5q0 -101 -102 -101h-68q-4 -145 -83.5 -249.5t-215.5 -147.5l234 -539q28 -64 8 -114t-86 -78q-66 -26 -115.5 -5
t-77.5 87l-262 622h-340q-55 0 -84.5 29.5t-29.5 83.5q0 56 29.5 85.5t84.5 29.5h453q90 0 144.5 53.5t54.5 142.5h-664q-102 0 -102 101q0 47 26.5 72.5t75.5 25.5h1018z" />
    <glyph glyph-name="uni20BD" unicode="&#x20bd;" horiz-adv-x="1468" 
d="M932 1628q217 0 350 -120t133 -318v-51q0 -198 -133 -318.5t-350 -120.5h-729q-59 0 -91 31.5t-32 89.5t32 89.5t91 31.5h63v553q0 64 34 98.5t97 34.5h535zM1114 1155v19q0 89 -54.5 142.5t-144.5 53.5h-350v-414h350q89 0 144 55t55 144zM979 594q60 0 91.5 -31
t31.5 -90t-31.5 -90t-91.5 -31h-414v-219q0 -73 -38.5 -112t-110.5 -39t-111 39t-39 112v219h-63q-59 0 -91 31.5t-32 89.5t32 89.5t91 31.5h776z" />
    <glyph glyph-name="uni20BF" unicode="&#x20bf;" horiz-adv-x="1503" 
d="M1184 838q117 -46 181.5 -135.5t64.5 -208.5v-48q0 -201 -133.5 -323.5t-350.5 -122.5h-137v-66q0 -71 -36.5 -109t-106.5 -38q-69 0 -106.5 38.5t-37.5 108.5v66h-246q-64 0 -98.5 34t-34.5 99v1362q0 65 34.5 99t98.5 34h246v66q0 70 37.5 108.5t106.5 38.5t106 -38
t37 -109v-66h96q218 0 351 -120t133 -318v-35q0 -106 -53.5 -187.5t-151.5 -129.5zM442 1370v-414h447q91 0 146 55t55 144v19q0 89 -55 142.5t-146 53.5h-447zM1130 463v31q0 92 -55.5 149t-144.5 57h-488v-442h488q89 0 144.5 56.5t55.5 148.5z" />
    <glyph glyph-name="trademark" unicode="&#x2122;" horiz-adv-x="1449" 
d="M1219 1632q53 0 81.5 -29t28.5 -81v-459q0 -43 -22.5 -66.5t-63.5 -23.5t-63 24t-21 68l6 307l-112 -194q-29 -54 -68 -54q-38 0 -67 54l-113 192l6 -305q1 -44 -21 -68t-63 -24t-63.5 23.5t-22.5 66.5v459q0 52 29 81t80 29h10q71 0 114 -76l111 -198l111 198
q40 76 112 76h11zM514 1628q38 0 59 -19.5t21 -54.5t-21 -54t-59 -19h-104v-418q0 -43 -22.5 -66.5t-63.5 -23.5t-64.5 23.5t-23.5 66.5v418h-105q-78 0 -78 73q0 35 20.5 54.5t57.5 19.5h383z" />
    <glyph glyph-name="oneeighth" unicode="&#x215b;" horiz-adv-x="1609" 
d="M317 915v478l-90 -76q-35 -29 -69 -26.5t-60 36.5q-58 67 13 129l155 129q51 43 127 43h6q63 0 97 -31.5t34 -89.5v-592q0 -108 -106 -108q-107 0 -107 108zM1212 1599q86 -51 35 -139l-805 -1390q-25 -43 -61 -54t-78 13q-86 51 -35 139l805 1393q25 43 61.5 53
t77.5 -15zM1423 416q115 -58 115 -168v-8q0 -114 -89.5 -182t-240.5 -68q-149 0 -238 68t-89 182v8q0 111 114 168q-94 59 -94 157v9q0 109 84 176t223 67q140 0 225 -67t85 -176v-9q0 -97 -95 -157zM1122 573v-6q0 -29 24 -47t62 -18q40 0 64 18t24 47v6q0 29 -24 47.5
t-64 18.5q-38 0 -62 -18.5t-24 -47.5zM1317 248v4q0 34 -29.5 54t-79.5 20q-48 0 -77 -20t-29 -54v-4q0 -32 29.5 -53t76.5 -21q49 0 79 20.5t30 53.5z" />
    <glyph glyph-name="threeeighths" unicode="&#x215c;" horiz-adv-x="1652" 
d="M694 1049q0 -110 -86 -177t-227 -67q-207 0 -289 131q-16 28 1 62.5t65 52.5q73 21 104 -13q53 -53 113 -53q47 0 76.5 20.5t29.5 51.5v8q0 33 -25 53.5t-67 20.5h-4q-40 0 -61 24t-21 68q0 41 20.5 64.5t55.5 23.5h2q40 0 64 18t24 47v9q0 30 -26 47.5t-68 17.5
q-56 0 -103 -39q-49 -31 -110 -6q-44 19 -57.5 52.5t8.5 62.5q76 112 266 112q136 0 219.5 -65t83.5 -172v-19q0 -101 -111 -153q59 -25 91 -68t32 -98v-16zM1272 1599q86 -51 35 -139l-805 -1390q-25 -43 -62 -54t-78 13q-85 51 -34 139l805 1393q25 43 61.5 53t77.5 -15z
M1483 416q114 -57 114 -168v-8q0 -114 -89 -182t-240 -68q-149 0 -238.5 68t-89.5 182v8q0 110 115 168q-94 59 -94 157v9q0 109 84 176t223 67q140 0 224.5 -67t84.5 -176v-9q0 -98 -94 -157zM1182 573v-6q0 -29 24 -47t62 -18q40 0 64 18t24 47v6q0 29 -24 47.5t-64 18.5
q-38 0 -62 -18.5t-24 -47.5zM1376 248v4q0 34 -29.5 54t-78.5 20q-48 0 -77.5 -20.5t-29.5 -53.5v-4q0 -32 30 -53t77 -21q49 0 78.5 20.5t29.5 53.5z" />
    <glyph glyph-name="fiveeighths" unicode="&#x215d;" horiz-adv-x="1644" 
d="M692 1053q0 -112 -87 -181t-228 -69q-207 0 -283 123q-21 27 -4 63t68 58q38 13 64 8.5t40 -19.5q45 -51 109 -51q47 0 75.5 22t28.5 58v8q0 36 -27.5 58t-72.5 22h-189q-48 0 -71 25.5t-17 72.5l37 287q4 42 31 65t70 23h327q44 0 69 -23.5t25 -66.5t-25 -67.5
t-69 -24.5h-229l-12 -109h100q121 0 195.5 -71t74.5 -187v-24zM1262 1599q85 -51 34 -139l-804 -1390q-25 -43 -62 -54t-78 13q-86 51 -35 139l805 1393q25 43 62 53t78 -15zM1470 416q115 -58 115 -168v-8q0 -114 -89.5 -182t-240.5 -68q-149 0 -238 68t-89 182v8
q0 111 114 168q-94 59 -94 157v9q0 109 84 176t223 67q140 0 225 -67t85 -176v-9q0 -97 -95 -157zM1169 573v-6q0 -29 24 -47t62 -18q40 0 64 18t24 47v6q0 29 -24 47.5t-64 18.5q-38 0 -62 -18.5t-24 -47.5zM1364 248v4q0 34 -29.5 54t-79.5 20q-48 0 -77 -20t-29 -54v-4
q0 -32 29.5 -53t76.5 -21q49 0 79 20.5t30 53.5z" />
    <glyph glyph-name="seveneighths" unicode="&#x215e;" horiz-adv-x="1603" 
d="M395 874q-49 -99 -145 -55q-98 46 -53 146l223 485l-275 -2q-45 0 -69.5 23.5t-24.5 66.5t24.5 66.5t69.5 23.5h383q60 0 92.5 -31t32.5 -88v-8q0 -62 -24 -117zM1221 1599q85 -51 34 -139l-804 -1390q-25 -43 -62 -54t-78 13q-86 51 -35 139l805 1393q25 43 62 53
t78 -15zM1430 416q114 -57 114 -168v-8q0 -114 -89.5 -182t-240.5 -68q-149 0 -238 68t-89 182v8q0 111 114 168q-94 59 -94 157v9q0 109 84 176t223 67q140 0 225 -67t85 -176v-9q0 -98 -94 -157zM1128 573v-6q0 -29 24 -47t62 -18q40 0 64.5 18t24.5 47v6q0 29 -24.5 47.5
t-64.5 18.5q-38 0 -62 -18.5t-24 -47.5zM1323 248v4q0 34 -29.5 54t-79.5 20q-48 0 -77 -20t-29 -54v-4q0 -32 29.5 -53t76.5 -21q49 0 79 20.5t30 53.5z" />
    <glyph glyph-name="arrowleft" unicode="&#x2190;" horiz-adv-x="1738" 
d="M1540 956q63 0 97 -33t34 -94q0 -63 -34 -96t-97 -33h-1040l284 -276q93 -93 11 -178q-41 -40 -89 -38t-92 46l-575 575l575 574q44 44 92 46.5t89 -38.5q83 -87 -11 -178l-284 -277h1040z" />
    <glyph glyph-name="arrowup" unicode="&#x2191;" horiz-adv-x="1409" 
d="M1278 1073q44 -44 46.5 -91.5t-38.5 -88.5q-39 -40 -85.5 -37.5t-90.5 47.5l-276 283v-1071q0 -65 -33 -99t-96 -34t-96.5 34.5t-33.5 98.5v1071l-276 -283q-44 -45 -90.5 -47.5t-85.5 37.5q-84 84 8 180l574 576z" />
    <glyph glyph-name="arrowright" unicode="&#x2192;" horiz-adv-x="1738" 
d="M1122 1403l578 -574l-578 -575q-44 -44 -90.5 -46t-87.5 38q-86 86 10 178l283 276h-1038q-65 0 -99 33t-34 96q0 62 34.5 94.5t98.5 32.5h1038l-283 277q-96 92 -10 178q41 41 87.5 38.5t90.5 -46.5z" />
    <glyph glyph-name="arrowdown" unicode="&#x2193;" horiz-adv-x="1411" 
d="M1288 735q40 -41 38 -88.5t-46 -91.5l-575 -575l-574 575q-44 44 -46 91.5t38 88.5q41 41 87.5 38.5t90.5 -48.5l274 -283v1071q0 65 33.5 99.5t96.5 34.5t96 -34.5t33 -99.5v-1073l276 285q44 45 90.5 47.5t87.5 -37.5z" />
    <glyph glyph-name="partialdiff" unicode="&#x2202;" horiz-adv-x="1234" 
d="M311 1645q137 -14 263.5 -68t232.5 -149t185 -221.5t123 -293t44 -354.5v-90q0 -221 -152 -355t-401 -134q-251 0 -404 134t-153 355v59q0 221 130 355.5t345 134.5q173 0 293 -88q-71 185 -213 304.5t-319 149.5q-61 12 -95 50t-24 104q17 118 145 107zM860 485v27
q0 109 -70 175.5t-184 66.5q-115 0 -185.5 -66.5t-70.5 -175.5v-27q0 -109 70 -175t186 -66q114 0 184 66t70 175z" />
    <glyph glyph-name="emptyset" unicode="&#x2205;" horiz-adv-x="1257" 
d="M1042 954q127 -133 127 -342v-61q0 -227 -148 -365.5t-392 -138.5q-146 0 -256 49l-62 -78q-61 -75 -137 -20q-75 57 -14 137l55 70q-129 138 -129 346v61q0 226 149.5 364t393.5 138q144 0 254 -49l61 78q29 37 65.5 42.5t73.5 -22.5q77 -58 15 -139zM373 559
q0 -66 22 -121l324 414q-41 14 -90 14q-115 0 -185.5 -72.5t-70.5 -191.5v-43zM883 559v43q0 62 -23 119l-321 -412q38 -14 90 -14q115 0 184.5 72.5t69.5 191.5z" />
    <glyph glyph-name="product" unicode="&#x220f;" horiz-adv-x="1546" 
d="M1364 1815q64 0 98.5 -32.5t34.5 -94.5q0 -63 -34 -96t-99 -33h-66v-1606q0 -73 -38.5 -111.5t-110.5 -38.5q-74 0 -113 38.5t-39 111.5v1606h-448v-1606q0 -73 -39 -111.5t-111 -38.5q-149 0 -149 150v1606h-68q-65 0 -99 33t-34 96q0 62 34.5 94.5t98.5 32.5h1182z" />
    <glyph glyph-name="summation" unicode="&#x2211;" horiz-adv-x="1378" 
d="M1192 70q65 0 99 -33t34 -96q0 -62 -34.5 -94.5t-98.5 -32.5h-956q-88 0 -134.5 42t-46.5 121v11q0 93 60 164l561 682l-541 643q-59 67 -59 163v11q0 80 46 122t134 42h915q65 0 99.5 -33t34.5 -94q0 -63 -34.5 -96t-99.5 -33l-743 4l498 -590q61 -72 61 -137
q0 -66 -61 -138l-520 -632z" />
    <glyph glyph-name="minus" unicode="&#x2212;" horiz-adv-x="1155" 
d="M176 477q-57 0 -88 29.5t-31 83.5t31 83t88 29h803q57 0 88 -29t31 -83t-31 -83.5t-88 -29.5h-803z" />
    <glyph glyph-name="radical" unicode="&#x221a;" horiz-adv-x="1286" 
d="M1180 1825q66 -20 91 -67t5 -116l-535 -1654q-56 -185 -233 -185h-25q-177 0 -233 185l-221 680q-22 69 3 116t91 66q66 17 111.5 -10t64.5 -97l197 -667l501 1648q19 68 67.5 94.5t115.5 6.5z" />
    <glyph glyph-name="infinity" unicode="&#x221e;" horiz-adv-x="1849" 
d="M1305 1061q211 0 339 -122t128 -323v-51q0 -200 -128 -322t-339 -122q-126 0 -223.5 49t-155.5 139q-59 -90 -157 -139t-224 -49q-209 0 -338 122.5t-129 321.5v51q0 201 128.5 323t338.5 122q126 0 224 -49t157 -138q58 89 155.5 138t223.5 49zM774 573v35
q0 87 -54.5 140t-144.5 53q-89 0 -143.5 -53.5t-54.5 -139.5v-35q0 -86 54.5 -139t143.5 -53q90 0 144.5 52.5t54.5 139.5zM1473 573v35q0 86 -55 139.5t-144 53.5q-90 0 -144.5 -53t-54.5 -140v-35q0 -87 54.5 -139.5t144.5 -52.5q89 0 144 53t55 139z" />
    <glyph glyph-name="integral" unicode="&#x222b;" horiz-adv-x="1081" 
d="M111 -186q-63 0 -97 33t-34 94q0 63 34 96t97 33h8q123 0 197.5 74t74.5 196v967q0 229 152.5 368.5t402.5 139.5h25q63 0 97 -33t34 -94q0 -63 -34 -96t-97 -33h-8q-123 0 -198 -74.5t-75 -196.5v-966q0 -229 -152.5 -368.5t-402.5 -139.5h-24z" />
    <glyph glyph-name="approxequal" unicode="&#x2248;" horiz-adv-x="1232" 
d="M268 684q-34 -36 -58 -43t-58 16q-34 25 -42 57t15 68q59 90 139.5 142.5t163.5 52.5q50 0 108 -23.5t101.5 -52.5t94 -52.5t87.5 -23.5q79 0 146 74q34 36 57 42t59 -17q33 -26 41 -57t-14 -66q-60 -91 -141 -143t-164 -52q-50 0 -108.5 23.5t-102 51.5t-94.5 51.5
t-88 23.5q-80 0 -142 -72zM268 309q-34 -36 -58 -42.5t-58 16.5q-34 25 -42 57t15 68q59 90 139.5 142t163.5 52q50 0 108 -23.5t101.5 -52t94 -52t87.5 -23.5q79 0 146 73q34 36 57 42t59 -17q33 -26 41 -57t-14 -66q-60 -91 -141 -143t-164 -52q-50 0 -108.5 23.5
t-102 51.5t-94.5 51.5t-88 23.5q-80 0 -142 -72z" />
    <glyph glyph-name="notequal" unicode="&#x2260;" horiz-adv-x="1155" 
d="M979 541q57 0 88 -29.5t31 -83.5q0 -55 -31 -84t-88 -29h-494l-186 -239q-61 -79 -137 -21q-77 58 -15 138l97 122h-68q-57 0 -88 29t-31 84q0 54 31 83.5t88 29.5h244l80 104h-324q-57 0 -88 29.5t-31 83.5q0 55 31 84.5t88 29.5h502l180 232q29 38 65.5 43t73.5 -23
q76 -57 15 -137l-90 -115h57q57 0 88 -29.5t31 -84.5q0 -54 -31 -83.5t-88 -29.5h-236l-79 -104h315z" />
    <glyph glyph-name="equivalence" unicode="&#x2261;" horiz-adv-x="1425" 
d="M252 1108q-65 0 -99 33t-34 96t34 96t99 33h922q65 0 99 -33t34 -96t-34 -96t-99 -33h-922zM252 700q-65 0 -99 33t-34 96q0 62 34.5 94.5t98.5 32.5h922q64 0 98.5 -32.5t34.5 -94.5q0 -63 -34 -96t-99 -33h-922zM252 293q-64 0 -98.5 32.5t-34.5 94.5q0 63 34 96t99 33
h922q65 0 99 -33t34 -96q0 -62 -34.5 -94.5t-98.5 -32.5h-922z" />
    <glyph glyph-name="lessequal" unicode="&#x2264;" horiz-adv-x="1155" 
d="M1008 596q41 -9 68.5 -42t27.5 -75q0 -57 -45.5 -92t-102.5 -22l-800 237q-45 12 -75 49.5t-30 85.5q0 47 30 84t75 49l800 238q59 15 103.5 -21.5t44.5 -93.5q0 -42 -27 -74t-67 -40l-578 -142zM987 270q56 0 86.5 -28.5t30.5 -83.5q0 -54 -30.5 -83.5t-86.5 -29.5h-819
q-56 0 -86.5 29.5t-30.5 83.5q0 55 30.5 83.5t86.5 28.5h819z" />
    <glyph glyph-name="greaterequal" unicode="&#x2265;" horiz-adv-x="1155" 
d="M51 479q0 42 27.5 75t68.5 42l576 141l-578 142q-40 8 -67 40t-27 74q0 57 44.5 93.5t103.5 21.5l800 -238q45 -12 75 -49t30 -84q0 -48 -30 -85.5t-75 -49.5l-800 -237q-57 -13 -102.5 22t-45.5 92zM987 270q56 0 86.5 -28.5t30.5 -83.5q0 -54 -30.5 -83.5t-86.5 -29.5
h-819q-56 0 -86.5 29.5t-30.5 83.5q0 55 30.5 83.5t86.5 28.5h819z" />
    <glyph glyph-name="triagup" unicode="&#x25b2;" horiz-adv-x="1413" 
d="M215 324q-41 0 -55 24.5t8 59.5l489 847q22 35 49.5 35t49.5 -35l489 -847q22 -35 8 -59.5t-55 -24.5h-983z" />
    <glyph glyph-name="uni25B4" unicode="&#x25b4;" horiz-adv-x="1413" 
d="M438 279q-41 0 -55 24t8 59l266 463q22 35 49.5 35t49.5 -35l266 -463q22 -35 8 -59t-55 -24h-537z" />
    <glyph glyph-name="uni25B6" unicode="&#x25b6;" horiz-adv-x="1413" 
d="M326 291q-35 -22 -59.5 -8t-24.5 55v981q0 41 24.5 55t59.5 -6l850 -489q35 -22 35 -50.5t-35 -48.5z" />
    <glyph glyph-name="uni25B8" unicode="&#x25b8;" horiz-adv-x="1413" 
d="M518 274q-35 -22 -60.5 -7.5t-25.5 55.5v536q0 41 25.5 55t60.5 -8l465 -266q35 -22 35 -49t-35 -49z" />
    <glyph glyph-name="triagdn" unicode="&#x25bc;" horiz-adv-x="1413" 
d="M756 401q-22 -35 -49.5 -35t-49.5 35l-489 848q-22 35 -8 59.5t55 24.5h983q41 0 55 -24.5t-8 -59.5z" />
    <glyph glyph-name="uni25BE" unicode="&#x25be;" horiz-adv-x="1413" 
d="M756 356q-22 -35 -49.5 -35t-49.5 35l-266 463q-22 35 -8 59.5t55 24.5h537q41 0 55 -24.5t-8 -59.5z" />
    <glyph glyph-name="uni25C0" unicode="&#x25c0;" horiz-adv-x="1413" 
d="M1171 338q0 -41 -24.5 -55t-59.5 8l-849 489q-35 20 -35 48.5t35 50.5l849 489q35 20 59.5 6t24.5 -55v-981z" />
    <glyph glyph-name="uni25C2" unicode="&#x25c2;" horiz-adv-x="1413" 
d="M981 322q0 -41 -25.5 -55.5t-60.5 7.5l-465 267q-35 22 -35 49t35 49l465 266q35 22 60.5 8t25.5 -55v-536z" />
    <glyph glyph-name="lozenge" unicode="&#x25ca;" horiz-adv-x="1140" 
d="M829 1442l220 -518q18 -50 18 -97q0 -45 -18 -98l-220 -543q-32 -88 -90 -138t-155 -50h-29q-96 0 -154 50t-92 138l-217 543q-18 53 -18 98q0 47 18 97l217 518q34 89 91.5 138.5t154.5 49.5h31q97 0 152.5 -49t90.5 -139zM569 260l224 567l-224 541l-223 -541z" />
    <glyph glyph-name="uni2605" unicode="&#x2605;" horiz-adv-x="1413" 
d="M1040 393q15 -47 -8.5 -64.5t-64.5 11.5l-260 190l-261 -190q-41 -29 -64.5 -11.5t-8.5 64.5l100 305l-260 191q-41 29 -31.5 57.5t60.5 28.5h319l101 309q10 31 27.5 42t35 0t27.5 -42l100 -309h319q51 0 60.5 -28.5t-31.5 -57.5l-260 -191z" />
    <glyph glyph-name="uni276E" unicode="&#x276e;" horiz-adv-x="1075" 
d="M862 424q96 -92 10 -178q-41 -40 -88.5 -38t-91.5 46l-575 575l575 574q44 44 91.5 46.5t88.5 -38.5q86 -86 -10 -178l-416 -404z" />
    <glyph glyph-name="uni276F" unicode="&#x276f;" horiz-adv-x="1075" 
d="M381 1403l577 -574l-577 -575q-44 -44 -90.5 -46t-87.5 38q-86 86 10 178l416 405l-416 404q-96 92 -10 178q41 41 87.5 38.5t90.5 -46.5z" />
    <glyph glyph-name="uni2913" unicode="&#x2913;" horiz-adv-x="1884" 
d="M942 309l-453 455q-40 40 -41.5 81.5t35.5 78.5q37 35 78.5 32.5t79.5 -43.5l186 -190v805q0 57 29 88t86 31t86 -31t29 -88v-805l186 190q38 41 80.5 44.5t79.5 -33.5q35 -37 33.5 -78.5t-41.5 -81.5zM1638 197q49 0 76 -26t27 -73t-26.5 -72.5t-76.5 -25.5h-1392
q-50 0 -76.5 25.5t-26.5 72.5t27 73t76 26h1392z" />
    <glyph glyph-name="uniF8FF" unicode="&#xf8ff;" horiz-adv-x="2609" 
d="M156 -20q-15 0 -25 10.5t-10 25.5q0 21 10 31l700 698h-663q-47 0 -47 39q0 16 14 33l696 701h-669q-41 0 -41 38v3q0 38 41 38h758q47 0 47 -41q0 -20 -17 -34l-698 -697h676q17 0 29 -12t12 -29v-669l694 692q13 16 35 16q37 0 37 -45v-663l696 692q13 16 33 16
q15 0 25 -12t10 -27q0 -18 -13 -28l-753 -762q-14 -14 -35 -14q-41 0 -41 47v663l-694 -696q-14 -14 -35 -14q-41 0 -41 47v663l-697 -696q-14 -14 -34 -14z" />
    <glyph glyph-name="uni00A40301" horiz-adv-x="1292" 
d="M938 1729q-112 -27 -133 45q-24 68 80 112l239 94q54 24 92.5 10t53.5 -65t-7.5 -86t-78.5 -47zM584 -20q-174 0 -311.5 80.5t-204.5 234.5q-23 48 1 108.5t87 88.5q92 37 157 -60q103 -188 271 -188q126 0 203 79.5t77 211.5v960q0 73 39 112.5t111 39.5q73 0 112 -39
t39 -113v-977q0 -243 -160 -390.5t-421 -147.5z" />
    <glyph glyph-name="a.ss01" horiz-adv-x="1269" 
d="M1026 1180q61 0 95 -38.5t34 -109.5v-903q0 -71 -33 -109t-96 -38q-64 0 -99 37.5t-38 107.5v20q-61 -80 -153 -123.5t-206 -43.5q-207 0 -332.5 132t-125.5 349v239q0 217 125.5 349.5t332.5 132.5q114 0 206 -43.5t153 -124.5v20q3 71 38 108.5t99 37.5zM612 229
q115 0 185.5 72t70.5 191v178q0 119 -70.5 191.5t-185.5 72.5t-184.5 -72.5t-69.5 -191.5v-178q0 -119 69.5 -191t184.5 -72z" />
    <glyph glyph-name="aacute.ss01" horiz-adv-x="1269" 
d="M500 1309q-108 -36 -135 34q-30 68 71 119l318 170q53 26 92 13.5t59 -60.5q19 -47 -0.5 -83.5t-73.5 -55.5zM1026 1180q61 0 95 -38.5t34 -109.5v-903q0 -71 -33 -109t-96 -38q-64 0 -99 37.5t-38 107.5v20q-61 -80 -153 -123.5t-206 -43.5q-207 0 -332.5 132
t-125.5 349v239q0 217 125.5 349.5t332.5 132.5q114 0 206 -43.5t153 -124.5v20q3 71 38 108.5t99 37.5zM612 229q115 0 185.5 72t70.5 191v178q0 119 -70.5 191.5t-185.5 72.5t-184.5 -72.5t-69.5 -191.5v-178q0 -119 69.5 -191t184.5 -72z" />
    <glyph glyph-name="abreve.ss01" horiz-adv-x="1269" 
d="M627 1282q-130 0 -219.5 70t-114.5 184q-12 48 15 81.5t79 33.5q29 0 53 -18t37 -46q22 -59 59 -82.5t91 -23.5q109 0 149 106q13 28 37 46t53 18q52 0 79.5 -33.5t15.5 -81.5q-25 -114 -115 -184t-219 -70zM1026 1180q61 0 95 -38.5t34 -109.5v-903q0 -71 -33 -109
t-96 -38q-64 0 -99 37.5t-38 107.5v20q-61 -80 -153 -123.5t-206 -43.5q-207 0 -332.5 132t-125.5 349v239q0 217 125.5 349.5t332.5 132.5q114 0 206 -43.5t153 -124.5v20q3 71 38 108.5t99 37.5zM612 229q115 0 185.5 72t70.5 191v178q0 119 -70.5 191.5t-185.5 72.5
t-184.5 -72.5t-69.5 -191.5v-178q0 -119 69.5 -191t184.5 -72z" />
    <glyph glyph-name="acircumflex.ss01" horiz-adv-x="1269" 
d="M422 1305q-65 -41 -107 16q-46 60 13 113l241 208q25 25 58 25q32 0 57 -25l240 -208q59 -51 16 -109q-43 -61 -109 -20l-204 139zM1026 1180q61 0 95 -38.5t34 -109.5v-903q0 -71 -33 -109t-96 -38q-64 0 -99 37.5t-38 107.5v20q-61 -80 -153 -123.5t-206 -43.5
q-207 0 -332.5 132t-125.5 349v239q0 217 125.5 349.5t332.5 132.5q114 0 206 -43.5t153 -124.5v20q3 71 38 108.5t99 37.5zM612 229q115 0 185.5 72t70.5 191v178q0 119 -70.5 191.5t-185.5 72.5t-184.5 -72.5t-69.5 -191.5v-178q0 -119 69.5 -191t184.5 -72z" />
    <glyph glyph-name="adieresis.ss01" horiz-adv-x="1269" 
d="M438 1352q-64 0 -98.5 33t-34.5 92v43q0 60 34.5 93.5t98.5 33.5q65 0 100 -33t35 -94v-43q0 -59 -35 -92t-100 -33zM817 1352q-64 0 -99.5 33t-35.5 92v43q0 60 35.5 93.5t99.5 33.5t99.5 -33.5t35.5 -93.5v-43q0 -59 -35 -92t-100 -33zM1026 1180q61 0 95 -38.5
t34 -109.5v-903q0 -71 -33 -109t-96 -38q-64 0 -99 37.5t-38 107.5v20q-61 -80 -153 -123.5t-206 -43.5q-207 0 -332.5 132t-125.5 349v239q0 217 125.5 349.5t332.5 132.5q114 0 206 -43.5t153 -124.5v20q3 71 38 108.5t99 37.5zM612 229q115 0 185.5 72t70.5 191v178
q0 119 -70.5 191.5t-185.5 72.5t-184.5 -72.5t-69.5 -191.5v-178q0 -119 69.5 -191t184.5 -72z" />
    <glyph glyph-name="agrave.ss01" horiz-adv-x="1269" 
d="M422 1446q-54 19 -72.5 55.5t0.5 83.5q21 48 59 61t91 -14l317 -170q102 -49 74 -119q-27 -70 -137 -34zM1026 1180q61 0 95 -38.5t34 -109.5v-903q0 -71 -33 -109t-96 -38q-64 0 -99 37.5t-38 107.5v20q-61 -80 -153 -123.5t-206 -43.5q-207 0 -332.5 132t-125.5 349
v239q0 217 125.5 349.5t332.5 132.5q114 0 206 -43.5t153 -124.5v20q3 71 38 108.5t99 37.5zM612 229q115 0 185.5 72t70.5 191v178q0 119 -70.5 191.5t-185.5 72.5t-184.5 -72.5t-69.5 -191.5v-178q0 -119 69.5 -191t184.5 -72z" />
    <glyph glyph-name="amacron.ss01" horiz-adv-x="1269" 
d="M414 1399q-51 0 -79 26.5t-28 75.5q0 47 28 74t79 27h426q50 0 77 -26.5t27 -74.5q0 -102 -104 -102h-426zM1026 1180q61 0 95 -38.5t34 -109.5v-903q0 -71 -33 -109t-96 -38q-64 0 -99 37.5t-38 107.5v20q-61 -80 -153 -123.5t-206 -43.5q-207 0 -332.5 132t-125.5 349
v239q0 217 125.5 349.5t332.5 132.5q114 0 206 -43.5t153 -124.5v20q3 71 38 108.5t99 37.5zM612 229q115 0 185.5 72t70.5 191v178q0 119 -70.5 191.5t-185.5 72.5t-184.5 -72.5t-69.5 -191.5v-178q0 -119 69.5 -191t184.5 -72z" />
    <glyph glyph-name="aogonek.ss01" horiz-adv-x="1269" 
d="M1083 -219q52 -19 69 -35.5t17 -58.5q0 -60 -44 -92.5t-128 -32.5h-8q-121 0 -194.5 62t-73.5 163v10q0 67 50 130.5t140 113.5q-19 31 -22 86v20q-61 -80 -153 -123.5t-206 -43.5q-207 0 -332.5 132t-125.5 349v239q0 217 125.5 349.5t332.5 132.5q114 0 206 -43.5
t153 -124.5v20q3 71 38 108.5t99 37.5q61 0 95 -38.5t34 -109.5v-903q0 -100 -65 -135q-89 -61 -89 -119v-6q0 -29 20.5 -49t61.5 -39zM612 229q115 0 185.5 72t70.5 191v178q0 119 -70.5 191.5t-185.5 72.5t-184.5 -72.5t-69.5 -191.5v-178q0 -119 69.5 -191t184.5 -72z
" />
    <glyph glyph-name="aring.ss01" horiz-adv-x="1269" 
d="M627 1217q-126 0 -202.5 61t-76.5 162v30q0 100 76.5 161t202.5 61q127 0 202.5 -61t75.5 -161v-30q0 -101 -75.5 -162t-202.5 -61zM522 1464v-18q0 -35 29 -56.5t76 -21.5t76.5 21.5t29.5 56.5v18q0 35 -29.5 56.5t-76.5 21.5t-76 -21.5t-29 -56.5zM1026 1180
q61 0 95 -38.5t34 -109.5v-903q0 -71 -33 -109t-96 -38q-64 0 -99 37.5t-38 107.5v20q-61 -80 -153 -123.5t-206 -43.5q-207 0 -332.5 132t-125.5 349v239q0 217 125.5 349.5t332.5 132.5q114 0 206 -43.5t153 -124.5v20q3 71 38 108.5t99 37.5zM612 229q115 0 185.5 72
t70.5 191v178q0 119 -70.5 191.5t-185.5 72.5t-184.5 -72.5t-69.5 -191.5v-178q0 -119 69.5 -191t184.5 -72z" />
    <glyph glyph-name="atilde.ss01" horiz-adv-x="1269" 
d="M301 1384q-34 23 -42 52.5t17 62.5q99 127 228 127q52 0 135.5 -37t124.5 -37q42 0 78 25q25 14 40 20t32.5 5t35.5 -13q72 -52 25 -116q-105 -127 -230 -127q-51 0 -135 36.5t-127 36.5q-46 0 -82 -26q-30 -20 -50 -23t-50 14zM1026 1180q61 0 95 -38.5t34 -109.5v-903
q0 -71 -33 -109t-96 -38q-64 0 -99 37.5t-38 107.5v20q-61 -80 -153 -123.5t-206 -43.5q-207 0 -332.5 132t-125.5 349v239q0 217 125.5 349.5t332.5 132.5q114 0 206 -43.5t153 -124.5v20q3 71 38 108.5t99 37.5zM612 229q115 0 185.5 72t70.5 191v178q0 119 -70.5 191.5
t-185.5 72.5t-184.5 -72.5t-69.5 -191.5v-178q0 -119 69.5 -191t184.5 -72z" />
    <glyph glyph-name="i.loclTRK" horiz-adv-x="518" 
d="M260 1352q-69 0 -106 34t-37 97v33q0 63 37 97t106 34t106 -34t37 -97v-33q0 -63 -36.5 -97t-106.5 -34zM258 -18q-69 0 -106 38t-37 109v903q0 71 37 109.5t106 38.5q70 0 106.5 -38.5t36.5 -109.5v-903q0 -71 -36.5 -109t-106.5 -38z" />
    <glyph glyph-name="uni006A0301" horiz-adv-x="528" 
d="M223 1331q-100 -47 -139 21q-36 67 57 129l195 137q47 32 87.5 25.5t63.5 -50.5q50 -95 -57 -145zM137 -438q-67 0 -110 31t-43 85q0 65 57 101q42 22 64 52.5t22 78.5v1122q0 71 36.5 109.5t106.5 38.5q69 0 106.5 -38.5t37.5 -109.5v-1143q0 -146 -79 -236.5
t-198 -90.5z" />
    <glyph glyph-name="l.ss01" horiz-adv-x="518" 
d="M258 -18q-69 0 -106 38t-37 109v1370q0 71 37 109.5t106 38.5q70 0 106.5 -38.5t36.5 -109.5v-1370q0 -71 -36.5 -109t-106.5 -38z" />
    <glyph glyph-name="lacute.ss01" horiz-adv-x="518" 
d="M182 1729q-112 -27 -133 45q-24 68 80 112l240 94q54 24 92 10t53 -65t-7.5 -86t-78.5 -47zM258 -18q-69 0 -106 38t-37 109v1370q0 71 37 109.5t106 38.5q70 0 106.5 -38.5t36.5 -109.5v-1370q0 -71 -36.5 -109t-106.5 -38z" />
    <glyph glyph-name="lcaron.ss01" horiz-adv-x="659" 
d="M672 1198q-15 -51 -44 -73.5t-65 -14.5q-77 16 -63 123l45 313q7 58 42.5 84.5t86.5 14.5q53 -11 74 -49t4 -93zM258 -18q-69 0 -106 38t-37 109v1370q0 71 37 109.5t106 38.5q70 0 106.5 -38.5t36.5 -109.5v-1370q0 -71 -36.5 -109t-106.5 -38z" />
    <glyph glyph-name="lcommaaccent.ss01" horiz-adv-x="518" 
d="M258 -18q-69 0 -106 38t-37 109v1370q0 71 37 109.5t106 38.5q70 0 106.5 -38.5t36.5 -109.5v-1370q0 -71 -36.5 -109t-106.5 -38zM143 -432q-101 37 -65 135l43 121q25 66 63 90.5t101 -0.5q34 -12 53 -28t22.5 -36t-2 -41t-20.5 -47l-57 -127q-30 -49 -61.5 -67
t-76.5 0z" />
    <glyph glyph-name="lslash.ss01" horiz-adv-x="673" 
d="M614 922q35 -102 -73 -144l-62 -24v-625q0 -71 -36.5 -109t-106.5 -38q-69 0 -106 38t-37 109v526l-7 -2q-44 -17 -76 1.5t-49 68.5q-35 103 72 143l60 23v610q0 71 37 109.5t106 38.5q70 0 106.5 -38.5t36.5 -109.5v-512q50 15 85 -1.5t50 -63.5z" />
    <glyph glyph-name="y.ss01" horiz-adv-x="1232" 
d="M975 1180q69 0 106 -38.5t37 -109.5v-1003q0 -211 -147.5 -340t-388.5 -129q-86 0 -152.5 9.5t-136.5 43t-111 90.5q-21 27 -24.5 60t15 66t58.5 54q42 18 71 14t50 -20q109 -90 230 -90q120 0 194 71t74 187v119q-122 -144 -326 -144q-188 0 -303 119t-115 312v581
q0 71 37.5 109.5t106.5 38.5t106 -38.5t37 -109.5v-536q0 -102 60 -164t159 -62t159 62t60 164v536q0 71 37.5 109.5t106.5 38.5z" />
    <glyph glyph-name="yacute.ss01" horiz-adv-x="1232" 
d="M492 1309q-109 -36 -136 34q-30 68 72 119l317 170q53 26 92.5 13.5t59.5 -60.5q19 -47 -0.5 -83.5t-73.5 -55.5zM975 1180q69 0 106 -38.5t37 -109.5v-1003q0 -211 -147.5 -340t-388.5 -129q-86 0 -152.5 9.5t-136.5 43t-111 90.5q-21 27 -24.5 60t15 66t58.5 54
q42 18 71 14t50 -20q109 -90 230 -90q120 0 194 71t74 187v119q-122 -144 -326 -144q-188 0 -303 119t-115 312v581q0 71 37.5 109.5t106.5 38.5t106 -38.5t37 -109.5v-536q0 -102 60 -164t159 -62t159 62t60 164v536q0 71 37.5 109.5t106.5 38.5z" />
    <glyph glyph-name="ycircumflex.ss01" horiz-adv-x="1232" 
d="M416 1305q-65 -41 -107 16q-46 60 13 113l241 208q25 25 58 25q32 0 57 -25l240 -208q59 -51 16 -109q-43 -61 -109 -20l-204 139zM975 1180q69 0 106 -38.5t37 -109.5v-1003q0 -211 -147.5 -340t-388.5 -129q-86 0 -152.5 9.5t-136.5 43t-111 90.5q-21 27 -24.5 60
t15 66t58.5 54q42 18 71 14t50 -20q109 -90 230 -90q120 0 194 71t74 187v119q-122 -144 -326 -144q-188 0 -303 119t-115 312v581q0 71 37.5 109.5t106.5 38.5t106 -38.5t37 -109.5v-536q0 -102 60 -164t159 -62t159 62t60 164v536q0 71 37.5 109.5t106.5 38.5z" />
    <glyph glyph-name="ydieresis.ss01" horiz-adv-x="1232" 
d="M430 1352q-64 0 -98.5 33t-34.5 92v43q0 60 34.5 93.5t98.5 33.5q65 0 100 -33t35 -94v-43q0 -59 -35 -92t-100 -33zM809 1352q-64 0 -99.5 33t-35.5 92v43q0 60 35.5 93.5t99.5 33.5t99.5 -33.5t35.5 -93.5v-43q0 -59 -35 -92t-100 -33zM975 1180q69 0 106 -38.5
t37 -109.5v-1003q0 -211 -147.5 -340t-388.5 -129q-86 0 -152.5 9.5t-136.5 43t-111 90.5q-21 27 -24.5 60t15 66t58.5 54q42 18 71 14t50 -20q109 -90 230 -90q120 0 194 71t74 187v119q-122 -144 -326 -144q-188 0 -303 119t-115 312v581q0 71 37.5 109.5t106.5 38.5
t106 -38.5t37 -109.5v-536q0 -102 60 -164t159 -62t159 62t60 164v536q0 71 37.5 109.5t106.5 38.5z" />
    <glyph glyph-name="ygrave.ss01" horiz-adv-x="1232" 
d="M416 1446q-54 19 -72.5 55.5t0.5 83.5q21 48 59 61t91 -14l317 -170q102 -49 74 -119q-27 -70 -137 -34zM975 1180q69 0 106 -38.5t37 -109.5v-1003q0 -211 -147.5 -340t-388.5 -129q-86 0 -152.5 9.5t-136.5 43t-111 90.5q-21 27 -24.5 60t15 66t58.5 54q42 18 71 14
t50 -20q109 -90 230 -90q120 0 194 71t74 187v119q-122 -144 -326 -144q-188 0 -303 119t-115 312v581q0 71 37.5 109.5t106.5 38.5t106 -38.5t37 -109.5v-536q0 -102 60 -164t159 -62t159 62t60 164v536q0 71 37.5 109.5t106.5 38.5z" />
    <glyph glyph-name="uni00CD00A40301" horiz-adv-x="1429" 
d="M190 1729q-112 -27 -133 45q-24 68 80 112l240 94q54 24 92 10t53 -65t-7.5 -86t-78.5 -47zM1075 1729q-112 -27 -133 45q-24 68 80 112l240 94q54 24 92 10t53 -65t-7.5 -86t-78.5 -47zM266 682q-68 0 -104.5 38.5t-36.5 110.5v664q0 73 36.5 112.5t104.5 39.5
q69 0 106.5 -39.5t37.5 -112.5v-664q0 -72 -37 -110.5t-107 -38.5zM721 -20q-174 0 -311.5 80.5t-204.5 234.5q-23 48 1 108.5t87 88.5q92 37 158 -60q103 -188 270 -188q126 0 203 79.5t77 211.5v960q0 73 39 112.5t111 39.5q73 0 112.5 -39.5t39.5 -112.5v-977
q0 -243 -160.5 -390.5t-421.5 -147.5z" />
    <glyph glyph-name="f_f_l.ss01" horiz-adv-x="2048" 
d="M1788 1647q70 0 106.5 -38.5t36.5 -109.5v-1370q0 -71 -36.5 -109t-106.5 -38q-69 0 -106 38t-37 109v1370q0 71 37 109.5t106 38.5zM1343 1403q-54 0 -86 -33.5t-32 -89.5v-119h168q57 0 87.5 -29t30.5 -83t-30.5 -83.5t-87.5 -29.5h-168v-807q0 -71 -37 -109t-107 -38
q-69 0 -106 38t-37 109v807h-442v-807q0 -71 -37 -109t-107 -38q-69 0 -106 38t-37 109v807h-72q-57 0 -88 29.5t-31 83.5t31 83t88 29h72v135q0 149 103 240.5t272 91.5h80q57 0 87.5 -29t30.5 -83t-30.5 -83.5t-87.5 -29.5h-50q-54 0 -86 -33.5t-32 -89.5v-119h442v135
q0 149 103 240.5t272 91.5h80q57 0 87.5 -29t30.5 -83t-30.5 -83.5t-87.5 -29.5h-50z" />
    <glyph glyph-name="f_t" horiz-adv-x="1536" 
d="M1372 225q57 0 87 -29t30 -83t-30 -83.5t-87 -29.5h-78q-161 0 -258.5 86t-97.5 227v623h-442v-807q0 -71 -37 -109t-107 -38q-69 0 -106 38t-37 109v807h-72q-57 0 -88 29.5t-31 83.5t31 83t88 29h72v135q0 149 103 240.5t272 91.5h80q57 0 87.5 -29t30.5 -83
t-30.5 -83.5t-87.5 -29.5h-50q-54 0 -86 -33.5t-32 -89.5v-119h448v180q0 71 36 109.5t103 38.5q69 0 105.5 -38.5t36.5 -109.5v-180h168q57 0 86.5 -29t29.5 -83t-29.5 -83.5t-86.5 -29.5h-168v-606q0 -46 27.5 -75.5t72.5 -29.5h47z" />
    <glyph glyph-name="fl.ss01" horiz-adv-x="1318" 
d="M1059 1647q70 0 106.5 -38.5t36.5 -109.5v-1370q0 -71 -36.5 -109t-106.5 -38q-69 0 -106.5 38.5t-37.5 108.5v1370q0 71 37.5 109.5t106.5 38.5zM614 1403q-54 0 -86 -33.5t-32 -89.5v-119h168q57 0 87.5 -29t30.5 -83t-30.5 -83.5t-87.5 -29.5h-168v-807
q0 -71 -37 -109t-107 -38q-69 0 -106 38t-37 109v807h-72q-57 0 -88 29.5t-31 83.5t31 83t88 29h72v135q0 149 103 240.5t272 91.5h80q57 0 87.5 -29t30.5 -83t-30.5 -83.5t-87.5 -29.5h-50z" />
    <glyph glyph-name="t_f" horiz-adv-x="1505" 
d="M1386 1161q57 0 88 -29t31 -83t-31 -83.5t-88 -29.5h-167v-807q0 -71 -37 -109t-107 -38q-69 0 -106 38t-37 109v807h-443v-606q0 -46 28 -75.5t73 -29.5h47q57 0 87 -29t30 -83t-30 -83.5t-87 -29.5h-78q-161 0 -258.5 86t-97.5 227v623h-72q-57 0 -88 29.5t-31 83.5
t31 83t88 29h78v180q0 71 36 109.5t103 38.5q69 0 105 -38.5t36 -109.5v-180h443v135q0 149 103 240.5t272 91.5h79q57 0 88 -29t31 -83t-31 -83.5t-88 -29.5h-49q-54 0 -86 -33.5t-32 -89.5v-119h167z" />
    <glyph glyph-name="t_t" horiz-adv-x="1529" 
d="M1368 225q57 0 87 -29t30 -83t-30 -83.5t-87 -29.5h-78q-161 0 -258.5 86t-97.5 227v623h-445v-606q0 -46 28 -75.5t73 -29.5h47q57 0 87 -29t30 -83t-30 -83.5t-87 -29.5h-78q-161 0 -258.5 86t-97.5 227v623h-72q-57 0 -88 29.5t-31 83.5t31 83t88 29h78v180
q0 71 36 109.5t103 38.5q69 0 105 -38.5t36 -109.5v-180h451v180q0 71 36 109.5t103 38.5q69 0 105.5 -38.5t36.5 -109.5v-180h168q57 0 86.5 -29t29.5 -83t-29.5 -83.5t-86.5 -29.5h-168v-606q0 -46 27.5 -75.5t72.5 -29.5h47z" />
    <glyph glyph-name="zero.tf" horiz-adv-x="1413" 
d="M707 -20q-274 0 -441.5 154.5t-167.5 406.5v546q0 252 167.5 407t441.5 155q273 0 440.5 -155t167.5 -407v-546q0 -252 -167 -406.5t-441 -154.5zM707 244q138 0 222.5 86.5t84.5 226.5v514q0 140 -84.5 226.5t-222.5 86.5t-223 -86.5t-85 -226.5v-514q0 -140 85 -226.5
t223 -86.5z" />
    <glyph glyph-name="one.tf" horiz-adv-x="1413" 
d="M893 1638q92 0 142 -50t50 -142v-1313q0 -73 -38.5 -112t-110.5 -39q-73 0 -111.5 38.5t-38.5 112.5v1165l-344 -294q-100 -86 -184 14q-80 99 18 184l439 377q70 59 164 59h14z" />
    <glyph glyph-name="two.tf" horiz-adv-x="1413" 
d="M1155 256q133 0 133 -127q0 -63 -34 -96t-99 -33h-874q-80 0 -124 39t-44 111v2q0 112 98 180q201 144 332.5 247.5t239 205.5t157 186t49.5 159v9q0 114 -77 183t-203 69q-186 0 -297 -162q-28 -34 -77 -45t-108 10q-60 26 -76.5 72.5t11.5 95.5q68 141 216 214t337 73
q256 0 412.5 -134t156.5 -352v-26q0 -90 -36 -179t-96 -169.5t-160 -172.5t-205.5 -174t-256.5 -188z" />
    <glyph glyph-name="three.tf" horiz-adv-x="1413" 
d="M1022 831q125 -48 194.5 -137.5t69.5 -208.5v-51q0 -204 -162 -329t-426 -125q-186 0 -329.5 70.5t-218.5 207.5q-29 45 -6 99.5t92 78.5q103 39 167 -39q61 -84 130.5 -121.5t158.5 -37.5q132 0 213.5 58.5t81.5 154.5v34q0 95 -70.5 151t-191.5 64q-84 6 -123 36
t-39 93q0 61 36 91t108 36q114 8 184 62t70 137v37q0 90 -75.5 144.5t-199.5 54.5q-160 0 -272 -144q-28 -28 -69 -38t-103 8q-44 17 -68 48.5t-22.5 64t18.5 63.5q67 124 207 190t317 66q254 0 410 -121t156 -320v-53q0 -107 -63 -191.5t-175 -132.5z" />
    <glyph glyph-name="four.tf" horiz-adv-x="1413" 
d="M1188 588q65 0 99 -33t34 -96t-34 -96t-99 -33h-55v-197q0 -73 -38.5 -112t-109.5 -39q-72 0 -109 39t-36 112l2 197h-611q-77 0 -118 42.5t-41 121.5v4q0 88 51 164l602 868q34 50 87 79t110 29h18q92 0 142.5 -50t50.5 -144v-856h55zM367 588h477l8 708z" />
    <glyph glyph-name="five.tf" horiz-adv-x="1413" 
d="M760 987q238 0 383 -132t145 -349v-53q0 -213 -162 -343t-426 -130q-186 0 -330.5 71t-217.5 207q-30 45 -7 99.5t91 78.5q42 18 77.5 12.5t57 -18.5t35.5 -33q96 -159 286 -159q133 0 214 63.5t81 167.5v29q0 105 -78.5 169t-208.5 64h-376q-67 0 -99.5 36t-23.5 103
l82 635q18 123 141 123h659q63 0 97 -33t34 -96t-34 -96t-97 -33h-522l-49 -383h248z" />
    <glyph glyph-name="six.tf" horiz-adv-x="1413" 
d="M770 995q249 0 401 -133t152 -350v-41q0 -222 -168 -356.5t-446 -134.5q-277 0 -446 135t-169 356v41q0 132 127 367l365 677q34 66 87.5 83.5t117.5 -15.5q64 -32 79 -84.5t-20 -118.5l-254 -452q96 26 174 26zM1016 481v19q0 109 -84.5 175t-222.5 66t-223 -66
t-85 -175v-19q0 -109 85 -175t223 -66t222.5 66t84.5 175z" />
    <glyph glyph-name="seven.tf" horiz-adv-x="1413" 
d="M1094 1628q83 0 128.5 -45.5t45.5 -130.5v-6q0 -84 -35 -164l-551 -1204q-31 -68 -83 -87.5t-120 11.5q-68 29 -87.5 81.5t11.5 121.5l539 1169l-674 -2q-133 0 -133 127q0 63 34 96t99 33h826z" />
    <glyph glyph-name="eight.tf" horiz-adv-x="1413" 
d="M1057 834q125 -53 194.5 -145t69.5 -210v-28q0 -213 -168 -342t-446 -129t-446.5 129.5t-168.5 341.5v28q0 118 69.5 210t194.5 145q-107 52 -165 135.5t-58 191.5v35q0 203 158 328t416 125q259 0 416 -125t157 -328v-35q0 -108 -58 -191.5t-165 -135.5zM440 1186v-29
q0 -92 73.5 -148.5t193.5 -56.5t193 56.5t73 148.5v29q0 91 -73 147t-193 56t-193.5 -56t-73.5 -147zM1014 461v22q0 100 -84.5 161t-222.5 61t-223 -61t-85 -161v-22q0 -100 85 -160.5t223 -60.5t222.5 60.5t84.5 160.5z" />
    <glyph glyph-name="nine.tf" horiz-adv-x="1413" 
d="M707 1649q277 0 445.5 -135.5t168.5 -356.5v-41q0 -131 -127 -366l-365 -678q-34 -66 -87 -83.5t-117 15.5q-64 32 -79.5 84.5t19.5 118.5l254 452q-96 -26 -174 -26q-250 0 -401.5 133t-151.5 350v41q0 222 168.5 357t446.5 135zM1014 1128v19q0 109 -84.5 175.5
t-222.5 66.5q-139 0 -223.5 -66.5t-84.5 -175.5v-19q0 -109 84.5 -175t223.5 -66q138 0 222.5 66t84.5 175z" />
    <glyph glyph-name="zero.zero" horiz-adv-x="1435" 
d="M717 1649q279 0 447.5 -156t168.5 -412v-534q0 -256 -168.5 -411.5t-447.5 -155.5q-277 0 -447 156t-170 411v534q0 255 170 411.5t447 156.5zM1049 1065q0 150 -91 241t-241 91q-90 0 -162 -35l489 -864q5 50 5 65v502zM387 563q0 -151 90.5 -241.5t239.5 -90.5
q90 0 162 35l-488 864q-4 -46 -4 -65v-502z" />
    <glyph glyph-name="zero.zero.tf" horiz-adv-x="1413" 
d="M707 1649q273 0 440.5 -157.5t167.5 -414.5v-526q0 -257 -167 -414t-441 -157t-441.5 157t-167.5 414v526q0 257 167.5 414.5t441.5 157.5zM1030 1061q0 152 -89 244t-234 92q-93 0 -160 -37l479 -850q4 36 4 57v494zM385 567q0 -152 88.5 -244t233.5 -92q92 0 159 37
l-477 846q-4 -32 -4 -53v-494z" />
    <glyph glyph-name="zero.dnom" horiz-adv-x="794" 
d="M395 -10q-148 0 -237.5 80.5t-89.5 212.5v249q0 131 90 212t237 81q150 0 241 -81t91 -212v-249q0 -132 -91 -212.5t-241 -80.5zM395 176q53 0 85 32t32 83v231q0 53 -31.5 85t-85.5 32q-52 0 -84 -32t-32 -85v-231q0 -51 32 -83t84 -32z" />
    <glyph glyph-name="one.dnom" horiz-adv-x="589" 
d="M369 813q63 0 97 -31.5t34 -89.5v-592q0 -108 -107 -108q-106 0 -106 108v478l-90 -76q-35 -29 -69 -26.5t-60 36.5q-58 68 12 129l156 129q51 43 126 43h7z" />
    <glyph glyph-name="two.dnom" horiz-adv-x="751" 
d="M592 178q94 0 94 -88q0 -43 -24.5 -66.5t-69.5 -23.5h-422q-51 0 -80 27.5t-29 76.5v7q0 71 68 116q189 128 268.5 201t79.5 125v4q0 38 -28 62t-74 24q-58 0 -117 -51q-47 -35 -111 -4q-45 24 -58 55t11 62q86 120 279 120q138 0 221.5 -71.5t83.5 -188.5v-12
q0 -98 -76.5 -181.5t-247.5 -195.5z" />
    <glyph glyph-name="three.dnom" horiz-adv-x="745" 
d="M561 416q59 -25 91 -68t32 -98v-17q0 -110 -86 -176.5t-227 -66.5q-207 0 -289 131q-18 25 -0.5 61t65.5 54q74 21 105 -13q53 -53 113 -53q47 0 76.5 20.5t29.5 51.5v8q0 33 -25 53.5t-67 20.5h-4q-40 0 -61 24t-21 68q0 41 20.5 64.5t55.5 23.5h2q40 0 64 18t24 47v9
q0 30 -26 47.5t-68 17.5q-56 0 -103 -39q-49 -31 -110 -6q-44 19 -58 52.5t8 62.5q76 112 267 112q136 0 219.5 -65t83.5 -172v-19q0 -101 -111 -153z" />
    <glyph glyph-name="four.dnom" horiz-adv-x="745" 
d="M694 213q0 -84 -86 -90v-23q0 -108 -106 -108q-105 0 -105 108v23h-260q-45 0 -69.5 30t-24.5 85v4q0 60 33 116l252 392q38 63 127 63h8q69 0 107 -36.5t38 -102.5v-369q41 -3 63.5 -27t22.5 -65zM242 305h159l7 260z" />
    <glyph glyph-name="five.dnom" horiz-adv-x="735" 
d="M410 522q121 0 195.5 -71t74.5 -187v-24q0 -112 -87 -181t-228 -69q-207 0 -283 123q-21 27 -4 62.5t67 57.5q38 13 64.5 9t40.5 -19q45 -51 108 -51q47 0 76 22.5t29 57.5v8q0 35 -28 57.5t-73 22.5h-188q-48 0 -71 25.5t-17 72.5l37 287q4 42 30.5 65t69.5 23h328
q44 0 69 -23.5t25 -66.5t-25 -67.5t-69 -24.5h-229l-13 -109h101z" />
    <glyph glyph-name="six.dnom" horiz-adv-x="731" 
d="M418 504q126 0 204 -66.5t78 -175.5v-10q0 -119 -90 -190.5t-241 -71.5q-148 0 -238 72t-90 190v10q0 41 17 87t53 120l147 285q24 48 61.5 63t83.5 -8q96 -44 46 -145l-91 -166q30 6 60 6zM477 252v4q0 35 -29 55.5t-79 20.5q-48 0 -77.5 -20.5t-29.5 -55.5v-4
q0 -35 29.5 -56.5t77.5 -21.5q49 0 78.5 21.5t29.5 56.5z" />
    <glyph glyph-name="seven.dnom" horiz-adv-x="673" 
d="M514 813q60 0 92.5 -31t32.5 -88v-8q0 -60 -25 -117l-233 -510q-49 -99 -145 -55q-99 47 -54 146l224 485l-275 -2q-45 0 -69.5 23.5t-24.5 66.5t24.5 66.5t69.5 23.5h383z" />
    <glyph glyph-name="eight.dnom" horiz-adv-x="772" 
d="M600 416q115 -58 115 -168v-8q0 -114 -89.5 -182t-240.5 -68q-149 0 -238.5 68t-89.5 182v8q0 110 115 168q-94 59 -94 157v9q0 109 84 176t223 67q140 0 224.5 -67t84.5 -176v-9q0 -98 -94 -157zM299 573v-6q0 -29 24 -47t62 -18q40 0 64 18t24 47v6q0 29 -24 47.5
t-64 18.5q-38 0 -62 -18.5t-24 -47.5zM494 248v4q0 34 -29.5 54t-79.5 20q-48 0 -77 -20t-29 -54v-4q0 -32 29.5 -53t76.5 -21q49 0 79 20.5t30 53.5z" />
    <glyph glyph-name="nine.dnom" horiz-adv-x="733" 
d="M362 823q148 0 238 -72t90 -190v-10q0 -42 -17 -88.5t-52 -118.5l-148 -285q-24 -48 -61.5 -63t-83.5 8q-96 44 -45 146l90 165q-30 -6 -60 -6q-126 0 -204 66.5t-78 175.5v10q0 119 90 190.5t241 71.5zM469 557v4q0 35 -29.5 56.5t-77.5 21.5q-49 0 -78.5 -21.5
t-29.5 -56.5v-4q0 -35 29 -55.5t79 -20.5q48 0 77.5 20.5t29.5 55.5z" />
    <glyph glyph-name="zero.numr" horiz-adv-x="794" 
d="M395 805q-148 0 -237.5 80.5t-89.5 212.5v250q0 131 90 211.5t237 80.5q150 0 241 -80.5t91 -211.5v-250q0 -132 -91 -212.5t-241 -80.5zM395 991q53 0 85 31.5t32 83.5v231q0 53 -31.5 85t-85.5 32q-52 0 -84 -32t-32 -85v-231q0 -51 32 -83t84 -32z" />
    <glyph glyph-name="one.numr" horiz-adv-x="587" 
d="M367 1628q63 0 97 -31.5t34 -89.5v-592q0 -108 -107 -108q-106 0 -106 108v478l-90 -76q-35 -29 -69 -26.5t-60 36.5q-58 68 12 129l155 129q51 43 127 43h7z" />
    <glyph glyph-name="two.numr" horiz-adv-x="749" 
d="M592 993q94 0 94 -88q0 -43 -24.5 -66.5t-69.5 -23.5h-422q-51 0 -80 28t-29 77v6q0 71 68 116q189 128 268.5 201t79.5 125v4q0 38 -28 62t-74 24q-58 0 -117 -51q-47 -35 -111 -4q-45 24 -58 55t11 62q86 120 279 120q138 0 221.5 -71.5t83.5 -188.5v-12
q0 -98 -76.5 -181.5t-247.5 -195.5z" />
    <glyph glyph-name="three.numr" horiz-adv-x="743" 
d="M561 1231q59 -25 91 -68t32 -98v-16q0 -110 -86 -177t-227 -67q-207 0 -289 131q-18 25 -0.5 61t65.5 54q74 21 105 -13q53 -53 113 -53q47 0 76.5 20.5t29.5 51.5v8q0 33 -25 53.5t-67 20.5h-4q-40 0 -61 24t-21 68q0 41 20.5 64.5t55.5 23.5h2q40 0 64 18t24 47v9
q0 30 -26 47.5t-68 17.5q-56 0 -103 -39q-49 -31 -110 -6q-44 19 -58 52.5t8 62.5q76 112 267 112q136 0 219.5 -65t83.5 -172v-19q0 -101 -111 -153z" />
    <glyph glyph-name="four.numr" horiz-adv-x="743" 
d="M692 1028q0 -84 -86 -90v-23q0 -108 -106 -108q-105 0 -105 108v23h-260q-45 0 -69.5 30t-24.5 85v4q0 61 33 117l252 391q38 63 127 63h8q69 0 107 -36.5t38 -102.5v-369q41 -3 63.5 -27t22.5 -65zM240 1120h159l7 260z" />
    <glyph glyph-name="five.numr" horiz-adv-x="733" 
d="M410 1335q121 0 195.5 -71t74.5 -187v-24q0 -112 -87 -181t-228 -69q-207 0 -283 123q-21 27 -4 63t67 58q38 13 64.5 8.5t40.5 -19.5q45 -51 108 -51q47 0 76 22.5t29 57.5v8q0 35 -28 57.5t-73 22.5h-188q-48 0 -71 25.5t-17 72.5l37 287q4 42 30.5 65t69.5 23h328
q44 0 69 -23.5t25 -66.5t-25 -67.5t-69 -24.5h-229l-13 -109h101z" />
    <glyph glyph-name="six.numr" horiz-adv-x="733" 
d="M418 1319q126 0 204 -66.5t78 -175.5v-10q0 -119 -90 -190.5t-241 -71.5q-148 0 -238 72t-90 190v10q0 41 17 87t53 120l147 285q24 48 61.5 63t83.5 -8q96 -44 46 -145l-91 -166q30 6 60 6zM477 1067v4q0 35 -29 55.5t-79 20.5q-48 0 -77.5 -20.5t-29.5 -55.5v-4
q0 -35 29.5 -56.5t77.5 -21.5q49 0 78.5 21.5t29.5 56.5z" />
    <glyph glyph-name="seven.numr" horiz-adv-x="671" 
d="M512 1628q60 0 92.5 -31t32.5 -88v-8q0 -60 -25 -117l-233 -510q-50 -99 -146 -55q-98 46 -53 146l223 485l-274 -2q-45 0 -69.5 23.5t-24.5 66.5t24.5 66.5t69.5 23.5h383z" />
    <glyph glyph-name="eight.numr" horiz-adv-x="772" 
d="M600 1231q115 -57 115 -168v-8q0 -114 -89.5 -182t-240.5 -68q-149 0 -238.5 68t-89.5 182v8q0 111 115 168q-94 59 -94 158v8q0 109 84 176t223 67q140 0 224.5 -67t84.5 -176v-8q0 -99 -94 -158zM299 1389v-7q0 -29 24 -47t62 -18q40 0 64 18t24 47v7q0 29 -24 47
t-64 18q-38 0 -62 -18t-24 -47zM494 1063v4q0 34 -29.5 54t-79.5 20q-48 0 -77 -20t-29 -54v-4q0 -32 29.5 -53t76.5 -21q49 0 79 20.5t30 53.5z" />
    <glyph glyph-name="nine.numr" horiz-adv-x="731" 
d="M362 1638q148 0 238 -72t90 -190v-10q0 -42 -17 -88.5t-52 -118.5l-148 -285q-24 -48 -61.5 -63t-83.5 8q-96 44 -45 146l90 165q-30 -6 -60 -6q-126 0 -204 66.5t-78 175.5v10q0 119 90 190.5t241 71.5zM469 1372v4q0 35 -29.5 56.5t-77.5 21.5q-49 0 -78.5 -21.5
t-29.5 -56.5v-4q0 -35 29 -55.5t79 -20.5q48 0 77.5 20.5t29.5 55.5z" />
    <glyph glyph-name="backslash.case" horiz-adv-x="890" 
d="M702 -199q-134 -35 -172 109l-442 1741q-19 67 6 113t90 63t110 -10.5t62 -96.5l445 -1740q17 -69 -8.5 -115.5t-90.5 -63.5z" />
    <glyph glyph-name="exclamdown.case" horiz-adv-x="579" 
d="M289 1647q76 0 115.5 -38.5t39.5 -111.5v-22q0 -73 -40 -111.5t-115 -38.5q-74 0 -115 38.5t-41 111.5v22q0 72 41 111t115 39zM289 1155q71 0 108 -39t37 -112v-871q0 -73 -38 -112t-107 -39t-106.5 39t-37.5 112v871q0 73 37.5 112t106.5 39z" />
    <glyph glyph-name="questiondown.case" horiz-adv-x="1085" 
d="M745 1325q-75 0 -115 38.5t-40 111.5v22q0 73 39.5 111.5t115.5 38.5q74 0 115 -39t41 -111v-22q0 -73 -41 -111.5t-115 -38.5zM891 258q65 0 99 -33t34 -96t-34 -96t-99 -33h-354q-217 0 -349.5 120t-132.5 318v37q0 191 132.5 307.5t349.5 116.5h63v105q0 73 37 112
t108 39q69 0 106.5 -39t37.5 -112v-201q0 -63 -34.5 -97t-98.5 -34h-203q-89 0 -144 -55t-55 -144v-18q0 -89 55 -143t144 -54h338z" />
    <glyph glyph-name="slash.case" horiz-adv-x="890" 
d="M188 -199q-64 17 -89.5 63.5t-8.5 115.5l445 1740q17 69 62 96.5t110 10.5t90 -63t6 -113l-443 -1741q-38 -144 -172 -109z" />
    <glyph glyph-name="comma.tf" horiz-adv-x="706" 
d="M233 -319q-101 21 -86 129l58 356q11 71 53.5 102.5t110.5 16.5q70 -13 96 -59t4 -117l-104 -349q-17 -51 -48.5 -70t-83.5 -9z" />
    <glyph glyph-name="period.tf" horiz-adv-x="706" 
d="M354 -18q-75 0 -115 38.5t-40 110.5v23q0 73 40 111t115 38q74 0 115 -38t41 -111v-23q0 -72 -40.5 -110.5t-115.5 -38.5z" />
    <glyph glyph-name="braceleft.case" horiz-adv-x="858" 
d="M686 70q62 0 94.5 -32t32.5 -93q0 -63 -32 -97t-95 -34q-216 0 -346.5 113t-130.5 298v318q0 94 -94 151q-76 54 -76 131q0 79 76 133q94 57 94 152v293q0 186 130.5 299t346.5 113q60 0 93.5 -34.5t33.5 -97.5q0 -60 -33 -92t-94 -32q-81 0 -129.5 -50.5t-48.5 -130.5
v-262q0 -97 -50 -172t-139 -117q89 -43 139 -118t50 -172v-287q0 -81 49 -130.5t129 -49.5z" />
    <glyph glyph-name="braceright.case" horiz-adv-x="858" 
d="M743 958q76 -54 76 -133q0 -77 -76 -131q-94 -57 -94 -151v-318q0 -185 -130.5 -298t-346.5 -113q-63 0 -95 34t-32 97q0 61 32.5 93t94.5 32q80 0 129 49.5t49 130.5v287q0 97 50 172t139 118q-89 42 -139 117t-50 172v262q0 80 -48.5 130.5t-129.5 50.5q-61 0 -94 32
t-33 92q0 63 33.5 97.5t93.5 34.5q216 0 346.5 -113t130.5 -299v-293q0 -95 94 -152z" />
    <glyph glyph-name="bracketleft.case" horiz-adv-x="794" 
d="M618 70q65 0 99.5 -33t34.5 -96q0 -61 -34.5 -94t-99.5 -33h-342q-64 0 -98.5 34t-34.5 97v1738q0 63 34.5 97.5t98.5 34.5h342q65 0 99.5 -33t34.5 -94q0 -63 -34.5 -96t-99.5 -33h-176v-1489h176z" />
    <glyph glyph-name="bracketright.case" horiz-adv-x="794" 
d="M518 1815q64 0 98.5 -34.5t34.5 -97.5v-1738q0 -63 -34.5 -97t-98.5 -34h-342q-64 0 -98.5 32.5t-34.5 94.5q0 63 34 96t99 33h176v1489h-176q-65 0 -99 33t-34 96q0 62 34.5 94.5t98.5 32.5h342z" />
    <glyph glyph-name="parenleft.case" horiz-adv-x="761" 
d="M590 -186q-216 0 -346.5 113t-130.5 298v1178q0 186 130.5 299t346.5 113q62 0 95.5 -34.5t33.5 -97.5q0 -60 -33.5 -92t-95.5 -32q-81 0 -129.5 -50.5t-48.5 -130.5v-1128q0 -81 49 -130.5t129 -49.5q62 0 95.5 -32t33.5 -93q0 -63 -33 -97t-96 -34z" />
    <glyph glyph-name="parenright.case" horiz-adv-x="761" 
d="M172 -186q-63 0 -96 34t-33 97q0 61 33.5 93t95.5 32q80 0 129 49.5t49 130.5v1128q0 80 -48.5 130.5t-129.5 50.5q-62 0 -95.5 32t-33.5 92q0 63 33.5 97.5t95.5 34.5q216 0 346.5 -113t130.5 -299v-1178q0 -185 -130.5 -298t-346.5 -113z" />
    <glyph glyph-name="emdash.case" horiz-adv-x="1794" 
d="M242 700q-63 0 -97 33t-34 96q0 61 34 94t97 33h1310q63 0 97 -33t34 -94q0 -63 -34 -96t-97 -33h-1310z" />
    <glyph glyph-name="endash.case" horiz-adv-x="1081" 
d="M242 700q-63 0 -97 33t-34 96q0 61 34 94t97 33h596q64 0 98.5 -32.5t34.5 -94.5q0 -63 -34 -96t-99 -33h-596z" />
    <glyph glyph-name="hyphen.case" horiz-adv-x="825" 
d="M242 700q-63 0 -97 33t-34 96q0 61 34 94t97 33h340q64 0 98.5 -32.5t34.5 -94.5q0 -63 -34 -96t-99 -33h-340z" />
    <glyph glyph-name="uni00AD.case" horiz-adv-x="825" 
d="M242 700q-63 0 -97 33t-34 96q0 61 34 94t97 33h340q64 0 98.5 -32.5t34.5 -94.5q0 -63 -34 -96t-99 -33h-340z" />
    <glyph glyph-name="guillemotleft.case" horiz-adv-x="1581" 
d="M682 618q115 -62 66 -161q-27 -48 -70.5 -57.5t-99.5 22.5l-414 237q-103 57 -103 168q0 110 103 170l414 236q55 33 99.5 24.5t70.5 -57.5q50 -100 -66 -162l-389 -211zM1382 618q113 -63 64 -161q-25 -48 -68.5 -57.5t-99.5 22.5l-414 237q-102 55 -102 168
q0 112 102 170l414 236q55 33 99 24.5t69 -57.5q50 -99 -64 -162l-391 -211z" />
    <glyph glyph-name="guillemotright.case" horiz-adv-x="1581" 
d="M717 997q102 -58 102 -170q0 -113 -102 -168l-414 -237q-56 -32 -99.5 -22.5t-68.5 57.5q-49 98 64 161l391 209l-391 211q-114 63 -64 162q25 49 69 57.5t99 -24.5zM1417 997q103 -60 103 -170q0 -111 -103 -168l-413 -237q-56 -32 -99.5 -22.5t-70.5 57.5
q-50 99 65 161l389 209l-389 211q-115 62 -65 162q26 49 70.5 57.5t99.5 -24.5z" />
    <glyph glyph-name="guilsinglleft.case" horiz-adv-x="1167" 
d="M952 610q124 -45 86 -157q-19 -55 -62.5 -72t-103.5 8l-704 283q-111 45 -111 155q0 111 111 156l704 283q60 25 104.5 8.5t61.5 -70.5q38 -115 -86 -157l-592 -220z" />
    <glyph glyph-name="guilsinglright.case" horiz-adv-x="1167" 
d="M999 983q111 -45 111 -156q0 -110 -111 -155l-704 -283q-60 -25 -103.5 -8t-62.5 72q-38 112 86 157l592 217l-592 220q-124 42 -86 157q17 54 61.5 70.5t104.5 -8.5z" />
    <glyph glyph-name="space.tf" horiz-adv-x="706" 
 />
    <glyph glyph-name="cent.tf" horiz-adv-x="1413" 
d="M1092 588q58 -19 77 -63t7 -89q-28 -86 -110 -139.5t-194 -73.5v-53q0 -72 -36.5 -111t-106.5 -39q-69 0 -106 39t-37 111v57q-180 42 -283.5 171t-103.5 315v198q0 187 104 316.5t283 169.5v65q0 72 37 111t106 39q70 0 106.5 -39t36.5 -111v-61q214 -43 289 -201
q8 -25 9.5 -55t-19.5 -60.5t-61 -44.5q-96 -29 -154 25q-82 100 -197 100q-114 0 -184 -72t-70 -190v-184q0 -117 70 -187.5t186 -70.5q57 0 111.5 24.5t93.5 75.5q57 57 146 27z" />
    <glyph glyph-name="dollar.tf" horiz-adv-x="1413" 
d="M412 1182q0 -62 31 -104.5t83.5 -65.5t120.5 -38t143.5 -28t150.5 -29t143 -46.5t120.5 -75.5t83.5 -121t31 -178v-27q0 -185 -127.5 -314.5t-343.5 -164.5v-51q0 -74 -36.5 -113t-106.5 -39q-69 0 -106.5 39.5t-37.5 112.5v51q-89 14 -164.5 44.5t-139.5 84.5t-103 127
q-17 35 -18.5 69t21.5 67t66 54q95 44 168 -35q143 -172 322 -172q140 0 225.5 64t85.5 168v10q0 61 -31 102.5t-83 64.5t-119 38t-142 28t-149.5 29.5t-141.5 47.5t-119 76.5t-83 122t-31 179.5v27q0 172 117.5 293.5t318.5 156.5v54q0 73 37.5 112t106.5 39
q70 0 106.5 -38.5t36.5 -112.5v-54q123 -22 224.5 -82.5t166.5 -154.5q37 -47 16.5 -106t-84.5 -87q-98 -39 -167 35q-126 158 -299 158q-132 0 -212.5 -57.5t-80.5 -149.5v-10z" />
    <glyph glyph-name="Euro.tf" horiz-adv-x="1413" 
d="M145 881q-102 0 -102 100q0 47 26.5 72.5t75.5 25.5h84v15q0 250 164.5 402.5t433.5 152.5q149 0 277.5 -58.5t191.5 -171.5q12 -20 13 -45t-9 -49.5t-34.5 -46.5t-59.5 -35q-89 -32 -145 17q-60 65 -114.5 94.5t-119.5 29.5q-134 0 -216.5 -84.5t-82.5 -220.5h392
q51 0 77.5 -25.5t26.5 -72.5q0 -100 -104 -100h-775zM1214 401q69 -19 94 -71t3 -99q-59 -131 -187 -191t-295 -60q-270 0 -435 150.5t-165 397.5v50h-84q-49 0 -75.5 25.5t-26.5 72.5q0 100 102 100h775q104 0 104 -100q0 -47 -26.5 -72.5t-77.5 -25.5h-392v-33
q0 -135 83 -218t218 -83q65 0 128.5 32.5t107.5 94.5q52 55 149 30z" />
    <glyph glyph-name="florin.tf" horiz-adv-x="1413" 
d="M1137 956q63 0 97 -33t34 -94q0 -63 -34 -96t-97 -33h-281v-192q0 -229 -152.5 -368.5t-402.5 -139.5h-76q-38 0 -59 33t-21 96t34.5 96t99.5 33h6q123 0 197.5 73.5t74.5 196.5v172h-278q-65 0 -99.5 33t-34.5 96q0 61 34.5 94t99.5 33h278v164q0 229 152.5 368.5
t402.5 139.5h25q63 0 97 -33t34 -96t-34 -96t-97 -33h-9q-123 0 -197.5 -73.5t-74.5 -196.5v-144h281z" />
    <glyph glyph-name="lira.tf" horiz-adv-x="1413" 
d="M152 881q-103 0 -103 100q0 47 26.5 72.5t76.5 25.5h84v416q0 74 39 113t112 39q72 0 111 -39.5t39 -112.5v-416h403q49 0 75.5 -25.5t26.5 -72.5q0 -100 -102 -100h-788zM1237 420q48 -15 75 -47.5t26 -67.5t-21 -69q-142 -236 -500 -236h-448q-65 0 -99 34t-34 99v445
h-84q-50 0 -76.5 25.5t-26.5 72.5q0 100 103 100h788q102 0 102 -100q0 -47 -26.5 -72.5t-75.5 -25.5h-403v-320h280q146 0 266 129q75 60 154 33z" />
    <glyph glyph-name="uni20B1.tf" horiz-adv-x="1413" 
d="M1249 1284q60 0 92.5 -31.5t32.5 -89.5t-32.5 -89.5t-92.5 -31.5h-43q-32 -158 -158.5 -250t-314.5 -92h-207v-567q0 -73 -38.5 -112t-110.5 -39q-73 0 -111.5 38.5t-38.5 112.5v909h-55q-60 0 -92.5 31.5t-32.5 89.5t32.5 89.5t92.5 31.5h55v211q0 64 34 98.5t97 34.5
h375q188 0 315 -92.5t158 -251.5h43zM915 1155v19q0 89 -54.5 142.5t-143.5 53.5h-191v-414h191q89 0 143.5 55t54.5 144z" />
    <glyph glyph-name="uni20BD.tf" horiz-adv-x="1413" 
d="M870 1628q217 0 350.5 -120t133.5 -318v-51q0 -198 -133.5 -318.5t-350.5 -120.5h-677q-60 0 -91.5 31t-31.5 90t31.5 90t91.5 31h61v553q0 65 34 99t99 34h483zM1055 1155v19q0 89 -55.5 142.5t-145.5 53.5h-299v-414h299q89 0 145 55t56 144zM918 594q60 0 91 -31
t31 -90t-31 -90t-91 -31h-363v-219q0 -73 -38.5 -112t-110.5 -39q-74 0 -113 39t-39 112v219h-61q-60 0 -91.5 31t-31.5 90t31.5 90t91.5 31h725z" />
    <glyph glyph-name="uni20B9.tf" horiz-adv-x="1413" 
d="M203 1430q-50 0 -76.5 25.5t-26.5 72.5q0 100 103 100h1018q102 0 102 -100q0 -47 -26.5 -72.5t-75.5 -25.5h-1018zM1221 1323q49 0 75.5 -25.5t26.5 -72.5q0 -101 -102 -101h-68q-4 -146 -83.5 -250t-215.5 -147l233 -539q28 -64 8.5 -114t-85.5 -78q-64 -26 -114.5 -5
t-78.5 87l-262 622h-338q-56 0 -86.5 29.5t-30.5 83.5q0 55 30.5 85t86.5 30h451q90 0 145 53.5t55 142.5h-665q-50 0 -76.5 26t-26.5 75q0 47 26.5 72.5t76.5 25.5h1018z" />
    <glyph glyph-name="sterling.tf" horiz-adv-x="1413" 
d="M1235 258q63 0 97 -33t34 -96t-34 -96t-97 -33h-1051q-63 0 -97 33t-34 96t34 96t97 33h56v442h-56q-63 0 -97 33t-34 96q0 61 34 94t97 33h56v150q0 246 159.5 394.5t421.5 148.5q156 0 285.5 -64.5t193.5 -185.5q15 -32 13 -67t-31 -68t-76 -47q-102 -32 -157 36
q-83 131 -228 131q-126 0 -204 -80.5t-78 -213.5v-134h428q63 0 97 -33t34 -94q0 -63 -34 -96t-97 -33h-428v-442h696z" />
    <glyph glyph-name="yen.tf" horiz-adv-x="1413" 
d="M1264 1622q126 -69 55 -197l-336 -567h176q103 0 103 -100q0 -47 -27 -73t-76 -26h-901q-51 0 -77.5 25.5t-26.5 73.5q0 100 104 100h174l-336 567q-36 63 -21 113.5t79 83.5q125 68 196 -59l359 -623l356 623q71 127 199 59zM1159 553q50 0 76.5 -25.5t26.5 -72.5
q0 -49 -26.5 -75t-76.5 -26h-301v-221q0 -73 -38.5 -112t-110.5 -39q-73 0 -111.5 38.5t-38.5 112.5v221h-301q-104 0 -104 101q0 47 26.5 72.5t77.5 25.5h901z" />
    <glyph glyph-name="plus.case" horiz-adv-x="1155" 
d="M979 942q57 0 88 -29.5t31 -83.5q0 -55 -31 -84.5t-88 -29.5h-258v-230q0 -71 -36.5 -109t-106.5 -38q-69 0 -106.5 38.5t-37.5 108.5v230h-258q-57 0 -88 29.5t-31 84.5q0 54 31 83.5t88 29.5h258v229q0 71 37.5 109.5t106.5 38.5t106 -38.5t37 -109.5v-229h258z" />
    <glyph glyph-name="minus.case" horiz-adv-x="1155" 
d="M176 715q-57 0 -88 29.5t-31 84.5q0 54 31 83.5t88 29.5h803q57 0 88 -29.5t31 -83.5q0 -55 -31 -84.5t-88 -29.5h-803z" />
    <glyph glyph-name="multiply.case" horiz-adv-x="1155" 
d="M750 829l219 -221q43 -43 43 -88t-41 -86q-40 -40 -85.5 -39.5t-86.5 41.5l-221 221l-222 -221q-41 -41 -86.5 -41.5t-85.5 39.5q-41 41 -41 86t43 88l222 221l-222 220q-43 43 -43 88t41 86q40 41 85.5 40t86.5 -42l222 -222l221 222q41 41 86.5 42t85.5 -40
q41 -41 41 -86t-43 -88z" />
    <glyph glyph-name="divide.case" horiz-adv-x="1155" 
d="M578 1075q-69 0 -106.5 30t-37.5 85v29q0 55 37.5 84.5t106.5 29.5t106 -29.5t37 -84.5v-29q0 -56 -36.5 -85.5t-106.5 -29.5zM182 715q-56 0 -86 29.5t-30 84.5q0 54 30.5 83.5t85.5 29.5h791q56 0 86.5 -29.5t30.5 -83.5q0 -55 -30.5 -84.5t-86.5 -29.5h-791zM578 324
q-69 0 -106.5 30t-37.5 86v27q0 56 37.5 86.5t106.5 30.5t106 -30.5t37 -86.5v-27q0 -56 -36.5 -86t-106.5 -30z" />
    </font>
</defs>
</svg>
